<svg width="55" height="41" viewBox="0 0 55 41" fill="none" xmlns="http://www.w3.org/2000/svg">
<path fill-rule="evenodd" clip-rule="evenodd" d="M19.8709 21.1064C19.8208 21.4486 19.7948 21.7984 19.7948 22.1539C19.7948 26.2533 23.2445 29.5766 27.5 29.5766C31.7554 29.5766 35.2052 26.2533 35.2052 22.1539C35.2052 21.7984 35.1792 21.4486 35.129 21.1064H53.826V37.6178C53.826 38.6426 52.9636 39.4734 51.8997 39.4734H3.10025C2.03638 39.4734 1.17395 38.6426 1.17395 37.6178V21.1064H19.8709Z" fill="#2E2E37"/>
<path fill-rule="evenodd" clip-rule="evenodd" d="M36.061 20.942C36.061 25.6701 32.2281 29.503 27.5 29.503C22.7719 29.503 18.939 25.6701 18.939 20.942C18.939 20.7888 18.943 20.6366 18.951 20.4854H0.5L6.7959 1.87001C7.06732 1.06748 7.8202 0.527344 8.66737 0.527344H46.3326C47.1798 0.527344 47.9327 1.06748 48.2041 1.87001L54.5 20.4854H36.049C36.057 20.6366 36.061 20.7888 36.061 20.942Z" fill="#2E2E37"/>
<path fill-rule="evenodd" clip-rule="evenodd" d="M34.8081 21.5715C34.8081 25.225 31.5361 28.8453 27.4999 28.8453C23.4637 28.8453 20.1918 25.225 20.1918 21.5715C20.1918 21.4531 20.1952 20.6769 20.202 20.5601H6.42676L11.8013 7.49259C12.033 6.87246 12.6757 6.45508 13.3989 6.45508H41.601C42.3242 6.45508 42.9669 6.87246 43.1986 7.49259L48.5731 20.5601H34.7979C34.8046 20.6769 34.8081 21.4531 34.8081 21.5715Z" fill="#404049"/>
<path fill-rule="evenodd" clip-rule="evenodd" d="M1.32324 20.6199V38.063C1.32324 38.6995 1.83921 39.2155 2.47568 39.2155H52.5245C53.1609 39.2155 53.6769 38.6995 53.6769 38.063V20.6199L47.4244 2.13283C47.2661 1.66469 46.8269 1.34961 46.3327 1.34961H8.66744C8.17326 1.34961 7.73408 1.66469 7.57575 2.13283L1.32324 20.6199Z" stroke="#77777D" stroke-width="2"/>
<path d="M1.81702 20.2822C4.40939 20.2822 15.1095 20.2822 18.1124 20.2822C19.348 20.2822 19.348 21.1506 19.348 21.5993C19.348 25.9637 22.9675 29.5017 27.4323 29.5017C31.8971 29.5017 35.5165 25.9637 35.5165 21.5993C35.5165 21.1506 35.5165 20.2822 36.7521 20.2822H53.1829" stroke="#77777D" stroke-width="2" stroke-linecap="round" stroke-linejoin="round"/>
</svg>
