<svg width="48" height="1357" viewBox="0 0 48 1357" fill="none" xmlns="http://www.w3.org/2000/svg">
<rect x="21" y="45" width="6" height="1312" fill="url(#paint0_linear_604_765)"/>
<g filter="url(#filter0_f_604_765)">
<circle cx="24" cy="24" r="12" fill="#3857F8" fill-opacity="0.2"/>
</g>
<path d="M15 16.6278L24.0043 14L33 16.6278V22.0169C33 27.6811 29.3751 32.2097 24.0013 34.0002C18.626 32.2097 15 27.68 15 22.0143V16.6278Z" stroke="white" stroke-opacity="0.85" stroke-width="1.5" stroke-linejoin="round"/>
<path d="M24 23.5C25.3807 23.5 26.5 22.3807 26.5 21C26.5 19.6193 25.3807 18.5 24 18.5C22.6193 18.5 21.5 19.6193 21.5 21C21.5 22.3807 22.6193 23.5 24 23.5Z" stroke="white" stroke-opacity="0.85" stroke-width="1.5" stroke-linecap="round" stroke-linejoin="round"/>
<path d="M28 27.5C28 25.2908 26.2092 23.5 24 23.5C21.7908 23.5 20 25.2908 20 27.5" stroke="white" stroke-opacity="0.85" stroke-width="1.5" stroke-linecap="round" stroke-linejoin="round"/>
<defs>
<filter id="filter0_f_604_765" x="0" y="0" width="48" height="48" filterUnits="userSpaceOnUse" color-interpolation-filters="sRGB">
<feFlood flood-opacity="0" result="BackgroundImageFix"/>
<feBlend mode="normal" in="SourceGraphic" in2="BackgroundImageFix" result="shape"/>
<feGaussianBlur stdDeviation="6" result="effect1_foregroundBlur_604_765"/>
</filter>
<linearGradient id="paint0_linear_604_765" x1="24" y1="45" x2="24" y2="1357" gradientUnits="userSpaceOnUse">
<stop stop-color="#3857F8"/>
<stop offset="1" stop-color="#3857F8" stop-opacity="0"/>
</linearGradient>
</defs>
</svg>
