<svg width="355" height="32" viewBox="0 0 355 32" fill="none" xmlns="http://www.w3.org/2000/svg">
<path d="M354.651 1.93463V25.4003H349.049V1.93463H354.651Z" fill="white" fill-opacity="0.65"/>
<path d="M338.439 25.7326C336.591 25.7326 335.002 25.3545 333.673 24.5982C332.351 23.8344 331.332 22.7726 330.614 21.413C329.903 20.0456 329.548 18.4606 329.548 16.6579C329.548 14.8476 329.903 13.2626 330.614 11.9029C331.332 10.5356 332.351 9.47388 333.673 8.71767C335.002 7.95381 336.591 7.57188 338.439 7.57188C340.288 7.57188 341.873 7.95381 343.194 8.71767C344.523 9.47388 345.543 10.5356 346.254 11.9029C346.972 13.2626 347.331 14.8476 347.331 16.6579C347.331 18.4606 346.972 20.0456 346.254 21.413C345.543 22.7726 344.523 23.8344 343.194 24.5982C341.873 25.3545 340.288 25.7326 338.439 25.7326ZM338.474 21.5046C339.146 21.5046 339.715 21.2984 340.181 20.8859C340.647 20.4734 341.002 19.9005 341.247 19.1672C341.499 18.4339 341.625 17.586 341.625 16.6236C341.625 15.6458 341.499 14.7903 341.247 14.057C341.002 13.3237 340.647 12.7508 340.181 12.3383C339.715 11.9259 339.146 11.7196 338.474 11.7196C337.779 11.7196 337.19 11.9259 336.709 12.3383C336.236 12.7508 335.873 13.3237 335.621 14.057C335.376 14.7903 335.254 15.6458 335.254 16.6236C335.254 17.586 335.376 18.4339 335.621 19.1672C335.873 19.9005 336.236 20.4734 336.709 20.8859C337.19 21.2984 337.779 21.5046 338.474 21.5046Z" fill="white" fill-opacity="0.65"/>
<path d="M320.34 25.7326C318.484 25.7326 316.891 25.3506 315.562 24.5868C314.24 23.8229 313.224 22.7612 312.514 21.4015C311.804 20.0342 311.448 18.453 311.448 16.6579C311.448 14.8552 311.804 13.2741 312.514 11.9144C313.232 10.5471 314.252 9.48152 315.573 8.71767C316.902 7.95381 318.487 7.57188 320.328 7.57188C321.955 7.57188 323.372 7.86597 324.579 8.45414C325.794 9.04231 326.741 9.87491 327.421 10.9519C328.108 12.0213 328.471 13.2779 328.509 14.7216H323.273C323.166 13.8202 322.86 13.1137 322.356 12.6019C321.86 12.0901 321.21 11.8342 320.408 11.8342C319.759 11.8342 319.19 12.0175 318.701 12.3842C318.212 12.7432 317.83 13.2779 317.555 13.9883C317.288 14.691 317.154 15.5618 317.154 16.6007C317.154 17.6395 317.288 18.5179 317.555 19.236C317.83 19.9463 318.212 20.4849 318.701 20.8515C319.19 21.2105 319.759 21.39 320.408 21.39C320.928 21.39 321.386 21.2793 321.783 21.0578C322.188 20.8362 322.52 20.5116 322.78 20.0838C323.04 19.6484 323.204 19.1214 323.273 18.5027H328.509C328.456 19.954 328.093 21.222 327.421 22.3067C326.756 23.3913 325.82 24.2354 324.613 24.8388C323.414 25.4347 321.99 25.7326 320.34 25.7326Z" fill="white" fill-opacity="0.65"/>
<path d="M301.515 25.7326C299.667 25.7326 298.078 25.3545 296.749 24.5982C295.427 23.8344 294.408 22.7726 293.69 21.413C292.979 20.0456 292.624 18.4606 292.624 16.6579C292.624 14.8476 292.979 13.2626 293.69 11.9029C294.408 10.5356 295.427 9.47388 296.749 8.71767C298.078 7.95381 299.667 7.57188 301.515 7.57188C303.364 7.57188 304.949 7.95381 306.27 8.71767C307.599 9.47388 308.619 10.5356 309.329 11.9029C310.048 13.2626 310.407 14.8476 310.407 16.6579C310.407 18.4606 310.048 20.0456 309.329 21.413C308.619 22.7726 307.599 23.8344 306.27 24.5982C304.949 25.3545 303.364 25.7326 301.515 25.7326ZM301.55 21.5046C302.222 21.5046 302.791 21.2984 303.257 20.8859C303.723 20.4734 304.078 19.9005 304.322 19.1672C304.574 18.4339 304.701 17.586 304.701 16.6236C304.701 15.6458 304.574 14.7903 304.322 14.057C304.078 13.3237 303.723 12.7508 303.257 12.3383C302.791 11.9259 302.222 11.7196 301.55 11.7196C300.855 11.7196 300.266 11.9259 299.785 12.3383C299.312 12.7508 298.949 13.3237 298.697 14.057C298.452 14.7903 298.33 15.6458 298.33 16.6236C298.33 17.586 298.452 18.4339 298.697 19.1672C298.949 19.9005 299.312 20.4734 299.785 20.8859C300.266 21.2984 300.855 21.5046 301.55 21.5046Z" fill="white" fill-opacity="0.65"/>
<path d="M291.783 7.80105V11.9259H280.68V7.80105H291.783ZM283.006 3.58456H288.609V19.8662C288.609 20.2099 288.662 20.4887 288.769 20.7026C288.884 20.9088 289.048 21.0578 289.262 21.1494C289.476 21.2335 289.732 21.2755 290.03 21.2755C290.243 21.2755 290.469 21.2564 290.706 21.2182C290.95 21.1723 291.133 21.1342 291.256 21.1036L292.103 25.1482C291.836 25.2246 291.458 25.3201 290.969 25.4347C290.488 25.5492 289.911 25.6218 289.239 25.6524C287.925 25.7135 286.798 25.5607 285.859 25.194C284.927 24.8198 284.213 24.2392 283.716 23.4525C283.227 22.6657 282.991 21.6765 283.006 20.4849V3.58456Z" fill="white" fill-opacity="0.65"/>
<path d="M271.24 25.7326C269.391 25.7326 267.802 25.3545 266.473 24.5982C265.152 23.8344 264.132 22.7726 263.414 21.413C262.703 20.0456 262.348 18.4606 262.348 16.6579C262.348 14.8476 262.703 13.2626 263.414 11.9029C264.132 10.5356 265.152 9.47388 266.473 8.71767C267.802 7.95381 269.391 7.57188 271.24 7.57188C273.088 7.57188 274.673 7.95381 275.995 8.71767C277.324 9.47388 278.343 10.5356 279.054 11.9029C279.772 13.2626 280.131 14.8476 280.131 16.6579C280.131 18.4606 279.772 20.0456 279.054 21.413C278.343 22.7726 277.324 23.8344 275.995 24.5982C274.673 25.3545 273.088 25.7326 271.24 25.7326ZM271.274 21.5046C271.946 21.5046 272.515 21.2984 272.981 20.8859C273.447 20.4734 273.802 19.9005 274.047 19.1672C274.299 18.4339 274.425 17.586 274.425 16.6236C274.425 15.6458 274.299 14.7903 274.047 14.057C273.802 13.3237 273.447 12.7508 272.981 12.3383C272.515 11.9259 271.946 11.7196 271.274 11.7196C270.579 11.7196 269.991 11.9259 269.509 12.3383C269.036 12.7508 268.673 13.3237 268.421 14.057C268.176 14.7903 268.054 15.6458 268.054 16.6236C268.054 17.586 268.176 18.4339 268.421 19.1672C268.673 19.9005 269.036 20.4734 269.509 20.8859C269.991 21.2984 270.579 21.5046 271.274 21.5046Z" fill="white" fill-opacity="0.65"/>
<path d="M251.51 25.4003V7.80104H256.952V11.0092H257.136C257.457 9.84818 257.98 8.98502 258.706 8.41976C259.431 7.84687 260.275 7.56042 261.238 7.56042C261.497 7.56042 261.765 7.57952 262.04 7.61772C262.315 7.64827 262.571 7.69792 262.807 7.76667V12.6362C262.54 12.5446 262.189 12.472 261.753 12.4185C261.326 12.3651 260.944 12.3383 260.608 12.3383C259.943 12.3383 259.343 12.4873 258.809 12.7852C258.282 13.0755 257.865 13.4841 257.56 14.0112C257.262 14.5306 257.113 15.1417 257.113 15.8444V25.4003H251.51Z" fill="white" fill-opacity="0.65"/>
<path d="M231.614 25.4003V1.93463H241.308C243.064 1.93463 244.581 2.27837 245.856 2.96584C247.14 3.64567 248.129 4.59667 248.824 5.81884C249.519 7.03337 249.867 8.4465 249.867 10.0582C249.867 11.6776 249.511 13.0946 248.801 14.3091C248.098 15.516 247.094 16.4517 245.788 17.1163C244.481 17.7808 242.931 18.1131 241.136 18.1131H235.155V13.6445H240.082C240.937 13.6445 241.651 13.4956 242.224 13.1977C242.805 12.8998 243.244 12.4835 243.542 11.9488C243.84 11.4064 243.989 10.7763 243.989 10.0582C243.989 9.33258 243.84 8.70621 243.542 8.17915C243.244 7.64445 242.805 7.23197 242.224 6.94171C241.644 6.65144 240.93 6.50631 240.082 6.50631H237.286V25.4003H231.614Z" fill="white" fill-opacity="0.65"/>
<path d="M215.773 25.7326C213.932 25.7326 212.343 25.3697 211.006 24.6441C209.677 23.9108 208.653 22.8681 207.935 21.5161C207.225 20.1564 206.87 18.5409 206.87 16.6694C206.87 14.8514 207.229 13.2626 207.947 11.9029C208.665 10.5356 209.677 9.47388 210.983 8.71767C212.289 7.95381 213.829 7.57188 215.601 7.57188C216.853 7.57188 217.999 7.76667 219.038 8.15623C220.077 8.5458 220.974 9.12251 221.731 9.88637C222.487 10.6502 223.075 11.5936 223.495 12.7165C223.915 13.8317 224.125 15.1111 224.125 16.5548V17.9527H208.829V14.6987H218.912C218.904 14.1029 218.763 13.572 218.488 13.106C218.213 12.6401 217.835 12.2772 217.354 12.0175C216.88 11.7502 216.334 11.6165 215.715 11.6165C215.089 11.6165 214.528 11.7578 214.031 12.0404C213.534 12.3154 213.141 12.6935 212.851 13.1748C212.561 13.6484 212.408 14.1869 212.393 14.7903V18.1016C212.393 18.8197 212.534 19.4498 212.816 19.9922C213.099 20.5269 213.5 20.9432 214.02 21.2411C214.539 21.539 215.158 21.6879 215.876 21.6879C216.372 21.6879 216.823 21.6192 217.228 21.4817C217.633 21.3442 217.98 21.1418 218.27 20.8744C218.561 20.6071 218.778 20.2786 218.923 19.8891L224.068 20.038C223.854 21.1914 223.384 22.1959 222.659 23.0514C221.941 23.8993 220.997 24.56 219.829 25.0336C218.66 25.4996 217.308 25.7326 215.773 25.7326Z" fill="white" fill-opacity="0.65"/>
<path d="M188.06 32V7.80104H193.605V10.8145H193.777C194.006 10.2798 194.331 9.76415 194.751 9.26764C195.179 8.77114 195.721 8.36629 196.378 8.05311C197.043 7.73229 197.837 7.57188 198.761 7.57188C199.984 7.57188 201.126 7.8927 202.187 8.53434C203.257 9.17598 204.12 10.1652 204.777 11.5019C205.434 12.8387 205.762 14.5421 205.762 16.6121C205.762 18.6058 205.445 20.2748 204.811 21.6192C204.185 22.9636 203.337 23.9719 202.268 24.6441C201.206 25.3163 200.026 25.6524 198.727 25.6524C197.841 25.6524 197.073 25.5072 196.424 25.217C195.775 24.9267 195.229 24.5448 194.786 24.0712C194.35 23.5976 194.014 23.0896 193.777 22.5473H193.663V32H188.06ZM193.548 16.6007C193.548 17.5478 193.674 18.3728 193.926 19.0756C194.186 19.7783 194.556 20.3245 195.038 20.714C195.526 21.096 196.111 21.2869 196.791 21.2869C197.478 21.2869 198.062 21.096 198.544 20.714C199.025 20.3245 199.388 19.7783 199.632 19.0756C199.884 18.3728 200.01 17.5478 200.01 16.6007C200.01 15.6535 199.884 14.8323 199.632 14.1372C199.388 13.4421 199.025 12.9036 198.544 12.5217C198.07 12.1397 197.486 11.9488 196.791 11.9488C196.103 11.9488 195.519 12.1359 195.038 12.5102C194.556 12.8845 194.186 13.4192 193.926 14.1143C193.674 14.8094 193.548 15.6382 193.548 16.6007Z" fill="white" fill-opacity="0.65"/>
<path d="M177.451 25.7326C175.602 25.7326 174.013 25.3545 172.684 24.5982C171.363 23.8344 170.343 22.7726 169.625 21.413C168.915 20.0456 168.559 18.4606 168.559 16.6579C168.559 14.8476 168.915 13.2626 169.625 11.9029C170.343 10.5356 171.363 9.47388 172.684 8.71767C174.013 7.95381 175.602 7.57188 177.451 7.57188C179.299 7.57188 180.884 7.95381 182.206 8.71767C183.535 9.47388 184.554 10.5356 185.265 11.9029C185.983 13.2626 186.342 14.8476 186.342 16.6579C186.342 18.4606 185.983 20.0456 185.265 21.413C184.554 22.7726 183.535 23.8344 182.206 24.5982C180.884 25.3545 179.299 25.7326 177.451 25.7326ZM177.485 21.5046C178.157 21.5046 178.726 21.2984 179.192 20.8859C179.658 20.4734 180.013 19.9005 180.258 19.1672C180.51 18.4339 180.636 17.586 180.636 16.6236C180.636 15.6458 180.51 14.7903 180.258 14.057C180.013 13.3237 179.658 12.7508 179.192 12.3383C178.726 11.9259 178.157 11.7196 177.485 11.7196C176.79 11.7196 176.202 11.9259 175.72 12.3383C175.247 12.7508 174.884 13.3237 174.632 14.057C174.388 14.7903 174.265 15.6458 174.265 16.6236C174.265 17.586 174.388 18.4339 174.632 19.1672C174.884 19.9005 175.247 20.4734 175.72 20.8859C176.202 21.2984 176.79 21.5046 177.485 21.5046Z" fill="white" fill-opacity="0.65"/>
<path d="M159.351 25.7326C157.495 25.7326 155.902 25.3506 154.573 24.5868C153.252 23.8229 152.236 22.7612 151.525 21.4015C150.815 20.0342 150.46 18.453 150.46 16.6579C150.46 14.8552 150.815 13.2741 151.525 11.9144C152.243 10.5471 153.263 9.48152 154.584 8.71767C155.914 7.95381 157.499 7.57188 159.339 7.57188C160.966 7.57188 162.383 7.86597 163.59 8.45414C164.805 9.04231 165.752 9.87491 166.432 10.9519C167.119 12.0213 167.482 13.2779 167.52 14.7216H162.284C162.177 13.8202 161.872 13.1137 161.367 12.6019C160.871 12.0901 160.222 11.8342 159.42 11.8342C158.77 11.8342 158.201 12.0175 157.712 12.3842C157.224 12.7432 156.842 13.2779 156.567 13.9883C156.299 14.691 156.166 15.5618 156.166 16.6007C156.166 17.6395 156.299 18.5179 156.567 19.236C156.842 19.9463 157.224 20.4849 157.712 20.8515C158.201 21.2105 158.77 21.39 159.42 21.39C159.939 21.39 160.397 21.2793 160.795 21.0578C161.199 20.8362 161.532 20.5116 161.791 20.0838C162.051 19.6484 162.215 19.1214 162.284 18.5027H167.52C167.467 19.954 167.104 21.222 166.432 22.3067C165.767 23.3913 164.832 24.2354 163.625 24.8388C162.425 25.4347 161.001 25.7326 159.351 25.7326Z" fill="white" fill-opacity="0.65"/>
<path d="M149.094 13.1748L143.95 13.3123C143.896 12.9456 143.751 12.621 143.514 12.3383C143.277 12.0481 142.968 11.8227 142.586 11.6623C142.212 11.4943 141.776 11.4103 141.28 11.4103C140.631 11.4103 140.077 11.5401 139.618 11.7998C139.168 12.0595 138.946 12.4109 138.954 12.8539C138.946 13.1977 139.084 13.4956 139.366 13.7477C139.657 13.9997 140.172 14.2022 140.913 14.3549L144.305 14.9966C146.062 15.3327 147.368 15.8903 148.223 16.6694C149.086 17.4485 149.522 18.4797 149.53 19.763C149.522 20.9699 149.163 22.0202 148.452 22.9139C147.75 23.8076 146.787 24.5028 145.565 24.9993C144.343 25.4881 142.945 25.7326 141.372 25.7326C138.858 25.7326 136.876 25.217 135.425 24.1857C133.981 23.1469 133.156 21.7567 132.95 20.0151L138.484 19.8776C138.606 20.5192 138.923 21.0081 139.435 21.3442C139.947 21.6803 140.6 21.8484 141.394 21.8484C142.112 21.8484 142.697 21.7147 143.147 21.4473C143.598 21.18 143.827 20.8248 143.835 20.3817C143.827 19.9845 143.652 19.6675 143.308 19.4307C142.964 19.1863 142.426 18.9953 141.692 18.8579L138.622 18.2735C136.857 17.9527 135.543 17.3607 134.68 16.4975C133.817 15.6267 133.389 14.5192 133.397 13.1748C133.389 11.9984 133.702 10.994 134.336 10.1614C134.97 9.32111 135.872 8.67948 137.04 8.23644C138.209 7.7934 139.588 7.57188 141.177 7.57188C143.56 7.57188 145.439 8.07221 146.814 9.07286C148.189 10.0659 148.949 11.4332 149.094 13.1748Z" fill="white" fill-opacity="0.65"/>
<path d="M123.12 25.7326C121.271 25.7326 119.683 25.3545 118.354 24.5982C117.032 23.8344 116.012 22.7726 115.294 21.413C114.584 20.0456 114.229 18.4606 114.229 16.6579C114.229 14.8476 114.584 13.2626 115.294 11.9029C116.012 10.5356 117.032 9.47388 118.354 8.71767C119.683 7.95381 121.271 7.57188 123.12 7.57188C124.969 7.57188 126.554 7.95381 127.875 8.71767C129.204 9.47388 130.224 10.5356 130.934 11.9029C131.652 13.2626 132.011 14.8476 132.011 16.6579C132.011 18.4606 131.652 20.0456 130.934 21.413C130.224 22.7726 129.204 23.8344 127.875 24.5982C126.554 25.3545 124.969 25.7326 123.12 25.7326ZM123.154 21.5046C123.827 21.5046 124.396 21.2984 124.862 20.8859C125.328 20.4734 125.683 19.9005 125.927 19.1672C126.179 18.4339 126.305 17.586 126.305 16.6236C126.305 15.6458 126.179 14.7903 125.927 14.057C125.683 13.3237 125.328 12.7508 124.862 12.3383C124.396 11.9259 123.827 11.7196 123.154 11.7196C122.459 11.7196 121.871 11.9259 121.39 12.3383C120.916 12.7508 120.553 13.3237 120.301 14.057C120.057 14.7903 119.935 15.6458 119.935 16.6236C119.935 17.586 120.057 18.4339 120.301 19.1672C120.553 19.9005 120.916 20.4734 121.39 20.8859C121.871 21.2984 122.459 21.5046 123.154 21.5046Z" fill="white" fill-opacity="0.65"/>
<path d="M103.39 25.4003V7.80104H108.833V11.0092H109.016C109.337 9.84818 109.86 8.98502 110.586 8.41976C111.312 7.84687 112.156 7.56042 113.118 7.56042C113.378 7.56042 113.645 7.57952 113.92 7.61772C114.195 7.64827 114.451 7.69792 114.688 7.76667V12.6362C114.421 12.5446 114.069 12.472 113.634 12.4185C113.206 12.3651 112.824 12.3383 112.488 12.3383C111.823 12.3383 111.224 12.4873 110.689 12.7852C110.162 13.0755 109.746 13.4841 109.44 14.0112C109.142 14.5306 108.993 15.1417 108.993 15.8444V25.4003H103.39Z" fill="white" fill-opacity="0.65"/>
<path d="M93.506 25.7326C91.6498 25.7326 90.0572 25.3506 88.7281 24.5868C87.4066 23.8229 86.3907 22.7612 85.6803 21.4015C84.9699 20.0342 84.6147 18.453 84.6147 16.6579C84.6147 14.8552 84.9699 13.2741 85.6803 11.9144C86.3983 10.5471 87.4181 9.48152 88.7395 8.71767C90.0686 7.95381 91.6536 7.57188 93.4945 7.57188C95.1216 7.57188 96.5385 7.86597 97.7454 8.45414C98.9599 9.04231 99.9071 9.87491 100.587 10.9519C101.274 12.0213 101.637 13.2779 101.675 14.7216H96.4392C96.3323 13.8202 96.0267 13.1137 95.5226 12.6019C95.0261 12.0901 94.3768 11.8342 93.5747 11.8342C92.9255 11.8342 92.3564 12.0175 91.8675 12.3842C91.3787 12.7432 90.9967 13.2779 90.7217 13.9883C90.4544 14.691 90.3207 15.5618 90.3207 16.6007C90.3207 17.6395 90.4544 18.5179 90.7217 19.236C90.9967 19.9463 91.3787 20.4849 91.8675 20.8515C92.3564 21.2105 92.9255 21.39 93.5747 21.39C94.0942 21.39 94.5525 21.2793 94.9497 21.0578C95.3545 20.8362 95.6868 20.5116 95.9465 20.0838C96.2062 19.6484 96.3705 19.1214 96.4392 18.5027H101.675C101.622 19.954 101.259 21.222 100.587 22.3067C99.9224 23.3913 98.9867 24.2354 97.7798 24.8388C96.5805 25.4347 95.1559 25.7326 93.506 25.7326Z" fill="white" fill-opacity="0.65"/>
<path d="M77.2739 25.4003V7.80104H82.8768V25.4003H77.2739ZM80.0811 5.75009C79.2943 5.75009 78.6183 5.49038 78.0531 4.97096C77.4878 4.44389 77.2052 3.80989 77.2052 3.06895C77.2052 2.33565 77.4878 1.70929 78.0531 1.18987C78.6183 0.662808 79.2943 0.399277 80.0811 0.399277C80.8755 0.399277 81.5515 0.662808 82.1091 1.18987C82.6744 1.70929 82.957 2.33565 82.957 3.06895C82.957 3.80989 82.6744 4.44389 82.1091 4.97096C81.5515 5.49038 80.8755 5.75009 80.0811 5.75009Z" fill="white" fill-opacity="0.65"/>
<path d="M48.6502 1.93463H55.6739L61.6319 16.4632H61.9069L67.865 1.93463H74.8887V25.4003H69.366V10.9863H69.1712L63.5339 25.2513H60.0049L54.3677 10.9061H54.1729V25.4003H48.6502V1.93463Z" fill="white" fill-opacity="0.65"/>
<path d="M26.5923 14.8141C26.5923 16.2154 25.4691 17.3514 24.0836 17.3514C22.698 17.3514 21.5749 16.2154 21.5749 14.8141C21.5749 13.4129 22.698 12.2769 24.0836 12.2769C25.4691 12.2769 26.5923 13.4129 26.5923 14.8141Z" fill="white" fill-opacity="0.65"/>
<path d="M9.03133 5.42633C9.03133 6.82762 7.90813 7.96357 6.52263 7.96357C5.13712 7.96357 4.01392 6.82762 4.01392 5.42633C4.01392 4.02506 5.13712 2.88908 6.52263 2.88908C7.90813 2.88908 9.03133 4.02506 9.03133 5.42633Z" fill="white" fill-opacity="0.65"/>
<path fill-rule="evenodd" clip-rule="evenodd" d="M0 14.8141C0 11.5907 1.18868 8.64806 3.1469 6.41013C3.39419 7.27965 3.96103 8.01234 4.71058 8.4698C3.33285 10.2075 2.5087 12.4135 2.5087 14.8141C2.5087 20.4192 7.00144 24.9632 12.5435 24.9632C17.0668 24.9632 20.8911 21.9364 22.1442 17.7761C22.7 18.149 23.3667 18.3663 24.0836 18.3663C24.2589 18.3663 24.4312 18.3533 24.5996 18.3282C23.0929 23.6252 18.2657 27.5004 12.5435 27.5004C5.61593 27.5004 0 21.8206 0 14.8141ZM22.4054 16.7001C22.4298 16.5688 22.4517 16.4367 22.471 16.3036C23.3935 15.9689 24.2692 15.5348 25.0855 15.0143C25.0739 15.7699 24.9971 16.5094 24.8604 17.2274C24.6158 17.3079 24.3547 17.3514 24.0836 17.3514C23.4383 17.3514 22.8499 17.105 22.4054 16.7001ZM4.59419 5.00026C4.687 5.86782 4.86063 6.71086 5.10732 7.52152C4.46864 7.07937 4.0424 6.34629 4.0153 5.51107C4.20301 5.33496 4.39607 5.1646 4.59419 5.00026Z" fill="white" fill-opacity="0.65"/>
<path fill-rule="evenodd" clip-rule="evenodd" d="M24.8599 9.00407L23.018 0L13.9388 0.475429L16.9277 2.80954L11.5188 15.0618L21.8711 6.66996L24.8599 9.00407Z" fill="white" fill-opacity="0.65"/>
</svg>
