<svg width="355" height="92" viewBox="0 0 355 92" fill="none" xmlns="http://www.w3.org/2000/svg">
<path d="M3.52273 6.45455V21H1.76136V6.45455H3.52273ZM8.1032 14.4375V21H6.42706V10.0909H8.04638V11.7955H8.18842C8.44411 11.2415 8.83236 10.7964 9.3532 10.4602C9.87403 10.1193 10.5464 9.94886 11.3702 9.94886C12.1089 9.94886 12.7552 10.1004 13.3092 10.4034C13.8631 10.7017 14.294 11.1562 14.6018 11.767C14.9095 12.3731 15.0634 13.1402 15.0634 14.0682V21H13.3873V14.1818C13.3873 13.3248 13.1647 12.6572 12.7197 12.179C12.2746 11.696 11.6638 11.4545 10.8873 11.4545C10.3522 11.4545 9.87403 11.5705 9.45263 11.8026C9.03596 12.0346 8.70689 12.3731 8.46541 12.8182C8.22393 13.2633 8.1032 13.803 8.1032 14.4375ZM22.9513 25.0909V10.0909H24.5706V11.8239H24.7695C24.8926 11.6345 25.063 11.393 25.2808 11.0994C25.5034 10.8011 25.8206 10.536 26.2325 10.304C26.6492 10.0672 27.2126 9.94886 27.9229 9.94886C28.8414 9.94886 29.6511 10.1785 30.3518 10.6378C31.0526 11.0971 31.5995 11.7481 31.9925 12.5909C32.3855 13.4337 32.582 14.428 32.582 15.5739C32.582 16.7292 32.3855 17.7306 31.9925 18.5781C31.5995 19.4209 31.055 20.0743 30.3589 20.5384C29.6629 20.9976 28.8604 21.2273 27.9513 21.2273C27.2505 21.2273 26.6894 21.1113 26.268 20.8793C25.8466 20.6425 25.5223 20.375 25.295 20.0767C25.0678 19.7737 24.8926 19.5227 24.7695 19.3239H24.6274V25.0909H22.9513ZM24.599 15.5455C24.599 16.3693 24.7197 17.0961 24.9612 17.7259C25.2027 18.3509 25.5554 18.8409 26.0195 19.196C26.4835 19.5464 27.0517 19.7216 27.724 19.7216C28.4248 19.7216 29.0095 19.5369 29.4783 19.1676C29.9518 18.7936 30.3069 18.2917 30.5436 17.6619C30.7851 17.0275 30.9058 16.322 30.9058 15.5455C30.9058 14.7784 30.7875 14.0871 30.5507 13.4716C30.3187 12.8513 29.966 12.3613 29.4925 12.0014C29.0237 11.6368 28.4342 11.4545 27.724 11.4545C27.0422 11.4545 26.4693 11.6274 26.0053 11.973C25.5412 12.3139 25.1909 12.7921 24.9541 13.4077C24.7174 14.0185 24.599 14.7311 24.599 15.5455ZM37.949 21.2557C37.2577 21.2557 36.6304 21.1255 36.0669 20.8651C35.5035 20.5999 35.056 20.2188 34.7246 19.7216C34.3931 19.2197 34.2274 18.6136 34.2274 17.9034C34.2274 17.2784 34.3505 16.7718 34.5967 16.3835C34.8429 15.9905 35.172 15.6828 35.584 15.4602C35.9959 15.2377 36.4504 15.072 36.9476 14.9631C37.4495 14.8494 37.9537 14.7595 38.4604 14.6932C39.1232 14.608 39.6607 14.544 40.0726 14.5014C40.4893 14.4541 40.7923 14.3759 40.9817 14.267C41.1758 14.1581 41.2729 13.9687 41.2729 13.6989V13.642C41.2729 12.9413 41.0811 12.3968 40.6976 12.0085C40.3188 11.6203 39.7435 11.4261 38.9717 11.4261C38.1715 11.4261 37.5442 11.6013 37.0896 11.9517C36.6351 12.3021 36.3155 12.6761 36.1308 13.0739L34.5399 12.5057C34.824 11.8428 35.2028 11.3267 35.6763 10.9574C36.1545 10.5833 36.6753 10.3229 37.2388 10.1761C37.807 10.0246 38.3657 9.94886 38.9149 9.94886C39.2653 9.94886 39.6678 9.99148 40.1223 10.0767C40.5816 10.1572 41.0243 10.3253 41.4504 10.581C41.8813 10.8366 42.2388 11.2225 42.5229 11.7386C42.807 12.2547 42.949 12.946 42.949 13.8125V21H41.2729V19.5227H41.1876C41.074 19.7595 40.8846 20.0128 40.6195 20.2827C40.3543 20.5526 40.0016 20.7822 39.5612 20.9716C39.1209 21.161 38.5835 21.2557 37.949 21.2557ZM38.2047 19.75C38.8676 19.75 39.4263 19.6198 39.8808 19.3594C40.3401 19.099 40.6857 18.7628 40.9178 18.3509C41.1545 17.9389 41.2729 17.5057 41.2729 17.0511V15.517C41.2018 15.6023 41.0456 15.6804 40.8041 15.7514C40.5674 15.8177 40.2928 15.8769 39.9803 15.929C39.6725 15.9763 39.3718 16.0189 39.0783 16.0568C38.7894 16.09 38.5551 16.1184 38.3751 16.142C37.9395 16.1989 37.5323 16.2912 37.1536 16.419C36.7795 16.5421 36.4765 16.7292 36.2445 16.9801C36.0172 17.2263 35.9036 17.5625 35.9036 17.9886C35.9036 18.571 36.119 19.0114 36.5499 19.3097C36.9855 19.6032 37.5371 19.75 38.2047 19.75ZM45.6083 21V10.0909H47.2276V11.7386H47.3413C47.5401 11.1989 47.9 10.7609 48.4208 10.4247C48.9416 10.0885 49.5288 9.92045 50.1822 9.92045C50.3053 9.92045 50.4592 9.92282 50.6438 9.92756C50.8285 9.93229 50.9682 9.93939 51.0629 9.94886V11.6534C51.006 11.6392 50.8758 11.6179 50.6722 11.5895C50.4734 11.5563 50.2627 11.5398 50.0401 11.5398C49.5098 11.5398 49.0363 11.651 48.6197 11.8736C48.2077 12.0914 47.881 12.3944 47.6396 12.7827C47.4028 13.1662 47.2844 13.6042 47.2844 14.0966V21H45.6083ZM58.0776 10.0909V11.5114H52.4242V10.0909H58.0776ZM54.0719 7.47727H55.7481V17.875C55.7481 18.3485 55.8167 18.7036 55.954 18.9403C56.0961 19.1723 56.276 19.3286 56.4938 19.4091C56.7164 19.4848 56.9507 19.5227 57.1969 19.5227C57.3816 19.5227 57.5331 19.5133 57.6515 19.4943C57.7699 19.4706 57.8646 19.4517 57.9356 19.4375L58.2765 20.9432C58.1629 20.9858 58.0042 21.0284 57.8006 21.071C57.597 21.1184 57.339 21.142 57.0265 21.142C56.553 21.142 56.089 21.0402 55.6344 20.8366C55.1846 20.633 54.8106 20.3229 54.5123 19.9062C54.2187 19.4896 54.0719 18.964 54.0719 18.3295V7.47727ZM61.8751 14.4375V21H60.1989V10.0909H61.8183V11.7955H61.9603C62.216 11.2415 62.6042 10.7964 63.1251 10.4602C63.6459 10.1193 64.3183 9.94886 65.1421 9.94886C65.8808 9.94886 66.5271 10.1004 67.081 10.4034C67.635 10.7017 68.0659 11.1562 68.3737 11.767C68.6814 12.3731 68.8353 13.1402 68.8353 14.0682V21H67.1592V14.1818C67.1592 13.3248 66.9366 12.6572 66.4915 12.179C66.0465 11.696 65.4357 11.4545 64.6592 11.4545C64.1241 11.4545 63.6459 11.5705 63.2245 11.8026C62.8078 12.0346 62.4788 12.3731 62.2373 12.8182C61.9958 13.2633 61.8751 13.803 61.8751 14.4375ZM76.072 21.2273C75.0209 21.2273 74.1142 20.9953 73.3518 20.5312C72.5943 20.0625 72.0095 19.4091 71.5976 18.571C71.1904 17.7282 70.9868 16.7481 70.9868 15.6307C70.9868 14.5133 71.1904 13.5284 71.5976 12.6761C72.0095 11.8191 72.5824 11.1515 73.3163 10.6733C74.055 10.1903 74.9167 9.94886 75.9016 9.94886C76.4697 9.94886 77.0308 10.0436 77.5848 10.233C78.1388 10.4223 78.643 10.7301 79.0976 11.1562C79.5521 11.5777 79.9144 12.1364 80.1842 12.8324C80.4541 13.5284 80.5891 14.3854 80.5891 15.4034V16.1136H72.18V14.6648H78.8845C78.8845 14.0492 78.7614 13.5 78.5152 13.017C78.2737 12.5341 77.9281 12.1529 77.4783 11.8736C77.0332 11.5942 76.5076 11.4545 75.9016 11.4545C75.234 11.4545 74.6563 11.6203 74.1686 11.9517C73.6857 12.2784 73.314 12.7045 73.0536 13.2301C72.7931 13.7557 72.6629 14.3191 72.6629 14.9205V15.8864C72.6629 16.7102 72.805 17.4086 73.0891 17.9815C73.3779 18.5497 73.778 18.983 74.2893 19.2812C74.8007 19.5748 75.3949 19.7216 76.072 19.7216C76.5124 19.7216 76.9101 19.66 77.2652 19.5369C77.6251 19.4091 77.9352 19.2197 78.1956 18.9688C78.456 18.7131 78.6572 18.3958 78.7993 18.017L80.4186 18.4716C80.2482 19.0208 79.9617 19.5038 79.5592 19.9205C79.1568 20.3324 78.6596 20.6544 78.0678 20.8864C77.4759 21.1136 76.8107 21.2273 76.072 21.2273ZM82.7388 21V10.0909H84.3581V11.7386H84.4717C84.6706 11.1989 85.0304 10.7609 85.5513 10.4247C86.0721 10.0885 86.6592 9.92045 87.3126 9.92045C87.4357 9.92045 87.5896 9.92282 87.7743 9.92756C87.959 9.93229 88.0986 9.93939 88.1933 9.94886V11.6534C88.1365 11.6392 88.0063 11.6179 87.8027 11.5895C87.6038 11.5563 87.3931 11.5398 87.1706 11.5398C86.6403 11.5398 86.1668 11.651 85.7501 11.8736C85.3382 12.0914 85.0115 12.3944 84.77 12.7827C84.5333 13.1662 84.4149 13.6042 84.4149 14.0966V21H82.7388ZM97.5075 12.5341L96.0018 12.9602C95.9071 12.7093 95.7674 12.4654 95.5827 12.2287C95.4028 11.9872 95.1566 11.7884 94.8441 11.6321C94.5316 11.4759 94.1315 11.3977 93.6438 11.3977C92.9762 11.3977 92.4199 11.5516 91.9748 11.8594C91.5344 12.1624 91.3143 12.5483 91.3143 13.017C91.3143 13.4337 91.4658 13.7628 91.7688 14.0043C92.0719 14.2457 92.5453 14.447 93.1893 14.608L94.8086 15.0057C95.784 15.2424 96.5108 15.6046 96.989 16.0923C97.4672 16.5753 97.7063 17.1979 97.7063 17.9602C97.7063 18.5852 97.5264 19.1439 97.1665 19.6364C96.8114 20.1288 96.3143 20.517 95.6751 20.8011C95.0359 21.0852 94.2925 21.2273 93.445 21.2273C92.3323 21.2273 91.4113 20.9858 90.6822 20.5028C89.953 20.0199 89.4914 19.3144 89.2972 18.3864L90.8881 17.9886C91.0397 18.5758 91.3261 19.0161 91.7475 19.3097C92.1737 19.6032 92.73 19.75 93.4165 19.75C94.1978 19.75 94.8181 19.5843 95.2773 19.2528C95.7414 18.9167 95.9734 18.5142 95.9734 18.0455C95.9734 17.6667 95.8408 17.3494 95.5756 17.0938C95.3105 16.8333 94.9033 16.6392 94.354 16.5114L92.5359 16.0852C91.5368 15.8485 90.8029 15.4815 90.3342 14.9844C89.8701 14.4825 89.6381 13.8551 89.6381 13.1023C89.6381 12.4867 89.811 11.9422 90.1566 11.4688C90.507 10.9953 90.9828 10.6236 91.5842 10.3537C92.1902 10.0838 92.8768 9.94886 93.6438 9.94886C94.7234 9.94886 95.5709 10.1856 96.1864 10.6591C96.8067 11.1326 97.247 11.7576 97.5075 12.5341ZM101.506 14.4375V21H99.8294V6.45455H101.506V11.7955H101.648C101.903 11.232 102.287 10.7846 102.798 10.4531C103.314 10.117 104.001 9.94886 104.858 9.94886C105.601 9.94886 106.252 10.098 106.811 10.3963C107.37 10.6899 107.803 11.142 108.111 11.7528C108.423 12.3589 108.579 13.1307 108.579 14.0682V21H106.903V14.1818C106.903 13.3153 106.678 12.6454 106.229 12.1719C105.783 11.6937 105.166 11.4545 104.375 11.4545C103.826 11.4545 103.333 11.5705 102.898 11.8026C102.467 12.0346 102.126 12.3731 101.875 12.8182C101.629 13.2633 101.506 13.803 101.506 14.4375ZM111.246 21V10.0909H112.922V21H111.246ZM112.098 8.27273C111.771 8.27273 111.49 8.16146 111.253 7.93892C111.021 7.71638 110.905 7.44886 110.905 7.13636C110.905 6.82386 111.021 6.55634 111.253 6.33381C111.49 6.11127 111.771 6 112.098 6C112.425 6 112.704 6.11127 112.936 6.33381C113.173 6.55634 113.291 6.82386 113.291 7.13636C113.291 7.44886 113.173 7.71638 112.936 7.93892C112.704 8.16146 112.425 8.27273 112.098 8.27273ZM115.592 25.0909V10.0909H117.211V11.8239H117.41C117.533 11.6345 117.704 11.393 117.921 11.0994C118.144 10.8011 118.461 10.536 118.873 10.304C119.29 10.0672 119.853 9.94886 120.563 9.94886C121.482 9.94886 122.292 10.1785 122.992 10.6378C123.693 11.0971 124.24 11.7481 124.633 12.5909C125.026 13.4337 125.223 14.428 125.223 15.5739C125.223 16.7292 125.026 17.7306 124.633 18.5781C124.24 19.4209 123.696 20.0743 123 20.5384C122.304 20.9976 121.501 21.2273 120.592 21.2273C119.891 21.2273 119.33 21.1113 118.909 20.8793C118.487 20.6425 118.163 20.375 117.936 20.0767C117.708 19.7737 117.533 19.5227 117.41 19.3239H117.268V25.0909H115.592ZM117.24 15.5455C117.24 16.3693 117.36 17.0961 117.602 17.7259C117.843 18.3509 118.196 18.8409 118.66 19.196C119.124 19.5464 119.692 19.7216 120.365 19.7216C121.065 19.7216 121.65 19.5369 122.119 19.1676C122.592 18.7936 122.947 18.2917 123.184 17.6619C123.426 17.0275 123.546 16.322 123.546 15.5455C123.546 14.7784 123.428 14.0871 123.191 13.4716C122.959 12.8513 122.607 12.3613 122.133 12.0014C121.664 11.6368 121.075 11.4545 120.365 11.4545C119.683 11.4545 119.11 11.6274 118.646 11.973C118.182 12.3139 117.831 12.7921 117.595 13.4077C117.358 14.0185 117.24 14.7311 117.24 15.5455ZM135.076 21L131.752 10.0909H133.513L135.871 18.4432H135.985L138.315 10.0909H140.104L142.406 18.4148H142.519L144.877 10.0909H146.638L143.315 21H141.667L139.281 12.6193H139.11L136.724 21H135.076ZM148.454 21V10.0909H150.131V21H148.454ZM149.307 8.27273C148.98 8.27273 148.698 8.16146 148.462 7.93892C148.23 7.71638 148.114 7.44886 148.114 7.13636C148.114 6.82386 148.23 6.55634 148.462 6.33381C148.698 6.11127 148.98 6 149.307 6C149.633 6 149.913 6.11127 150.145 6.33381C150.381 6.55634 150.5 6.82386 150.5 7.13636C150.5 7.44886 150.381 7.71638 150.145 7.93892C149.913 8.16146 149.633 8.27273 149.307 8.27273ZM157.545 10.0909V11.5114H151.891V10.0909H157.545ZM153.539 7.47727H155.215V17.875C155.215 18.3485 155.284 18.7036 155.421 18.9403C155.563 19.1723 155.743 19.3286 155.961 19.4091C156.184 19.4848 156.418 19.5227 156.664 19.5227C156.849 19.5227 157 19.5133 157.119 19.4943C157.237 19.4706 157.332 19.4517 157.403 19.4375L157.744 20.9432C157.63 20.9858 157.471 21.0284 157.268 21.071C157.064 21.1184 156.806 21.142 156.494 21.142C156.02 21.142 155.556 21.0402 155.102 20.8366C154.652 20.633 154.278 20.3229 153.979 19.9062C153.686 19.4896 153.539 18.964 153.539 18.3295V7.47727ZM161.577 14.4375V21H159.901V6.45455H161.577V11.7955H161.719C161.974 11.232 162.358 10.7846 162.869 10.4531C163.385 10.117 164.072 9.94886 164.929 9.94886C165.672 9.94886 166.323 10.098 166.882 10.3963C167.441 10.6899 167.874 11.142 168.182 11.7528C168.494 12.3589 168.651 13.1307 168.651 14.0682V21H166.974V14.1818C166.974 13.3153 166.749 12.6454 166.3 12.1719C165.855 11.6937 165.237 11.4545 164.446 11.4545C163.897 11.4545 163.404 11.5705 162.969 11.8026C162.538 12.0346 162.197 12.3731 161.946 12.8182C161.7 13.2633 161.577 13.803 161.577 14.4375ZM184.627 11.9943V21H175.635L175.621 19.4659H181.985L173.746 11.2131L174.854 10.1051L183.092 18.358L183.078 11.9943H184.627Z" fill="white" fill-opacity="0.45"/>
<path d="M354.651 61.9346V85.4003H349.049V61.9346H354.651Z" fill="white" fill-opacity="0.65"/>
<path d="M338.439 85.7326C336.591 85.7326 335.002 85.3545 333.673 84.5982C332.351 83.8344 331.332 82.7726 330.614 81.413C329.903 80.0456 329.548 78.4606 329.548 76.6579C329.548 74.8476 329.903 73.2626 330.614 71.9029C331.332 70.5356 332.351 69.4739 333.673 68.7177C335.002 67.9538 336.591 67.5719 338.439 67.5719C340.288 67.5719 341.873 67.9538 343.194 68.7177C344.523 69.4739 345.543 70.5356 346.254 71.9029C346.972 73.2626 347.331 74.8476 347.331 76.6579C347.331 78.4606 346.972 80.0456 346.254 81.413C345.543 82.7726 344.523 83.8344 343.194 84.5982C341.873 85.3545 340.288 85.7326 338.439 85.7326ZM338.474 81.5046C339.146 81.5046 339.715 81.2984 340.181 80.8859C340.647 80.4734 341.002 79.9005 341.247 79.1672C341.499 78.4339 341.625 77.586 341.625 76.6236C341.625 75.6458 341.499 74.7903 341.247 74.057C341.002 73.3237 340.647 72.7508 340.181 72.3383C339.715 71.9259 339.146 71.7196 338.474 71.7196C337.779 71.7196 337.19 71.9259 336.709 72.3383C336.236 72.7508 335.873 73.3237 335.621 74.057C335.376 74.7903 335.254 75.6458 335.254 76.6236C335.254 77.586 335.376 78.4339 335.621 79.1672C335.873 79.9005 336.236 80.4734 336.709 80.8859C337.19 81.2984 337.779 81.5046 338.474 81.5046Z" fill="white" fill-opacity="0.65"/>
<path d="M320.34 85.7326C318.484 85.7326 316.891 85.3506 315.562 84.5868C314.24 83.8229 313.224 82.7612 312.514 81.4015C311.804 80.0342 311.448 78.453 311.448 76.6579C311.448 74.8552 311.804 73.2741 312.514 71.9144C313.232 70.5471 314.252 69.4815 315.573 68.7177C316.902 67.9538 318.487 67.5719 320.328 67.5719C321.955 67.5719 323.372 67.866 324.579 68.4541C325.794 69.0423 326.741 69.8749 327.421 70.9519C328.108 72.0213 328.471 73.2779 328.509 74.7216H323.273C323.166 73.8202 322.86 73.1137 322.356 72.6019C321.86 72.0901 321.21 71.8342 320.408 71.8342C319.759 71.8342 319.19 72.0175 318.701 72.3842C318.212 72.7432 317.83 73.2779 317.555 73.9883C317.288 74.691 317.154 75.5618 317.154 76.6007C317.154 77.6395 317.288 78.5179 317.555 79.236C317.83 79.9463 318.212 80.4849 318.701 80.8515C319.19 81.2105 319.759 81.39 320.408 81.39C320.928 81.39 321.386 81.2793 321.783 81.0578C322.188 80.8362 322.52 80.5116 322.78 80.0838C323.04 79.6484 323.204 79.1214 323.273 78.5027H328.509C328.456 79.954 328.093 81.222 327.421 82.3067C326.756 83.3913 325.82 84.2354 324.613 84.8388C323.414 85.4347 321.99 85.7326 320.34 85.7326Z" fill="white" fill-opacity="0.65"/>
<path d="M301.515 85.7326C299.667 85.7326 298.078 85.3545 296.749 84.5982C295.427 83.8344 294.408 82.7726 293.69 81.413C292.979 80.0456 292.624 78.4606 292.624 76.6579C292.624 74.8476 292.979 73.2626 293.69 71.9029C294.408 70.5356 295.427 69.4739 296.749 68.7177C298.078 67.9538 299.667 67.5719 301.515 67.5719C303.364 67.5719 304.949 67.9538 306.27 68.7177C307.599 69.4739 308.619 70.5356 309.329 71.9029C310.048 73.2626 310.407 74.8476 310.407 76.6579C310.407 78.4606 310.048 80.0456 309.329 81.413C308.619 82.7726 307.599 83.8344 306.27 84.5982C304.949 85.3545 303.364 85.7326 301.515 85.7326ZM301.55 81.5046C302.222 81.5046 302.791 81.2984 303.257 80.8859C303.723 80.4734 304.078 79.9005 304.322 79.1672C304.574 78.4339 304.701 77.586 304.701 76.6236C304.701 75.6458 304.574 74.7903 304.322 74.057C304.078 73.3237 303.723 72.7508 303.257 72.3383C302.791 71.9259 302.222 71.7196 301.55 71.7196C300.855 71.7196 300.266 71.9259 299.785 72.3383C299.312 72.7508 298.949 73.3237 298.697 74.057C298.452 74.7903 298.33 75.6458 298.33 76.6236C298.33 77.586 298.452 78.4339 298.697 79.1672C298.949 79.9005 299.312 80.4734 299.785 80.8859C300.266 81.2984 300.855 81.5046 301.55 81.5046Z" fill="white" fill-opacity="0.65"/>
<path d="M291.783 67.801V71.9259H280.68V67.801H291.783ZM283.006 63.5846H288.609V79.8662C288.609 80.2099 288.662 80.4887 288.769 80.7026C288.884 80.9088 289.048 81.0578 289.262 81.1494C289.476 81.2335 289.732 81.2755 290.03 81.2755C290.243 81.2755 290.469 81.2564 290.706 81.2182C290.95 81.1723 291.133 81.1342 291.256 81.1036L292.103 85.1482C291.836 85.2246 291.458 85.3201 290.969 85.4347C290.488 85.5492 289.911 85.6218 289.239 85.6524C287.925 85.7135 286.798 85.5607 285.859 85.194C284.927 84.8198 284.213 84.2392 283.716 83.4525C283.227 82.6657 282.991 81.6765 283.006 80.4849V63.5846Z" fill="white" fill-opacity="0.65"/>
<path d="M271.24 85.7326C269.391 85.7326 267.802 85.3545 266.473 84.5982C265.152 83.8344 264.132 82.7726 263.414 81.413C262.703 80.0456 262.348 78.4606 262.348 76.6579C262.348 74.8476 262.703 73.2626 263.414 71.9029C264.132 70.5356 265.152 69.4739 266.473 68.7177C267.802 67.9538 269.391 67.5719 271.24 67.5719C273.088 67.5719 274.673 67.9538 275.995 68.7177C277.324 69.4739 278.343 70.5356 279.054 71.9029C279.772 73.2626 280.131 74.8476 280.131 76.6579C280.131 78.4606 279.772 80.0456 279.054 81.413C278.343 82.7726 277.324 83.8344 275.995 84.5982C274.673 85.3545 273.088 85.7326 271.24 85.7326ZM271.274 81.5046C271.946 81.5046 272.515 81.2984 272.981 80.8859C273.447 80.4734 273.802 79.9005 274.047 79.1672C274.299 78.4339 274.425 77.586 274.425 76.6236C274.425 75.6458 274.299 74.7903 274.047 74.057C273.802 73.3237 273.447 72.7508 272.981 72.3383C272.515 71.9259 271.946 71.7196 271.274 71.7196C270.579 71.7196 269.991 71.9259 269.509 72.3383C269.036 72.7508 268.673 73.3237 268.421 74.057C268.176 74.7903 268.054 75.6458 268.054 76.6236C268.054 77.586 268.176 78.4339 268.421 79.1672C268.673 79.9005 269.036 80.4734 269.509 80.8859C269.991 81.2984 270.579 81.5046 271.274 81.5046Z" fill="white" fill-opacity="0.65"/>
<path d="M251.51 85.4003V67.801H256.952V71.0092H257.136C257.457 69.8482 257.98 68.985 258.706 68.4198C259.431 67.8469 260.275 67.5604 261.238 67.5604C261.497 67.5604 261.765 67.5795 262.04 67.6177C262.315 67.6483 262.571 67.6979 262.807 67.7667V72.6362C262.54 72.5446 262.189 72.472 261.753 72.4185C261.326 72.3651 260.944 72.3383 260.608 72.3383C259.943 72.3383 259.343 72.4873 258.809 72.7852C258.282 73.0755 257.865 73.4841 257.56 74.0112C257.262 74.5306 257.113 75.1417 257.113 75.8444V85.4003H251.51Z" fill="white" fill-opacity="0.65"/>
<path d="M231.614 85.4003V61.9346H241.308C243.064 61.9346 244.581 62.2784 245.856 62.9658C247.14 63.6457 248.129 64.5967 248.824 65.8188C249.519 67.0334 249.867 68.4465 249.867 70.0582C249.867 71.6776 249.511 73.0946 248.801 74.3091C248.098 75.516 247.094 76.4517 245.788 77.1163C244.481 77.7808 242.931 78.1131 241.136 78.1131H235.155V73.6445H240.082C240.937 73.6445 241.651 73.4956 242.224 73.1977C242.805 72.8998 243.244 72.4835 243.542 71.9488C243.84 71.4064 243.989 70.7763 243.989 70.0582C243.989 69.3326 243.84 68.7062 243.542 68.1792C243.244 67.6445 242.805 67.232 242.224 66.9417C241.644 66.6514 240.93 66.5063 240.082 66.5063H237.286V85.4003H231.614Z" fill="white" fill-opacity="0.65"/>
<path d="M215.773 85.7326C213.932 85.7326 212.343 85.3697 211.006 84.6441C209.677 83.9108 208.653 82.8681 207.935 81.5161C207.225 80.1564 206.87 78.5409 206.87 76.6694C206.87 74.8514 207.229 73.2626 207.947 71.9029C208.665 70.5356 209.677 69.4739 210.983 68.7177C212.289 67.9538 213.829 67.5719 215.601 67.5719C216.853 67.5719 217.999 67.7667 219.038 68.1562C220.077 68.5458 220.974 69.1225 221.731 69.8864C222.487 70.6502 223.075 71.5936 223.495 72.7165C223.915 73.8317 224.125 75.1111 224.125 76.5548V77.9527H208.829V74.6987H218.912C218.904 74.1029 218.763 73.572 218.488 73.106C218.213 72.6401 217.835 72.2772 217.354 72.0175C216.88 71.7502 216.334 71.6165 215.715 71.6165C215.089 71.6165 214.528 71.7578 214.031 72.0404C213.534 72.3154 213.141 72.6935 212.851 73.1748C212.561 73.6484 212.408 74.1869 212.393 74.7903V78.1016C212.393 78.8197 212.534 79.4498 212.816 79.9922C213.099 80.5269 213.5 80.9432 214.02 81.2411C214.539 81.539 215.158 81.6879 215.876 81.6879C216.372 81.6879 216.823 81.6192 217.228 81.4817C217.633 81.3442 217.98 81.1418 218.27 80.8744C218.561 80.6071 218.778 80.2786 218.923 79.8891L224.068 80.038C223.854 81.1914 223.384 82.1959 222.659 83.0514C221.941 83.8993 220.997 84.56 219.829 85.0336C218.66 85.4996 217.308 85.7326 215.773 85.7326Z" fill="white" fill-opacity="0.65"/>
<path d="M188.06 92V67.801H193.605V70.8145H193.777C194.006 70.2798 194.331 69.7641 194.751 69.2676C195.179 68.7711 195.721 68.3663 196.378 68.0531C197.043 67.7323 197.837 67.5719 198.761 67.5719C199.984 67.5719 201.126 67.8927 202.187 68.5343C203.257 69.176 204.12 70.1652 204.777 71.5019C205.434 72.8387 205.762 74.5421 205.762 76.6121C205.762 78.6058 205.445 80.2748 204.811 81.6192C204.185 82.9636 203.337 83.9719 202.268 84.6441C201.206 85.3163 200.026 85.6524 198.727 85.6524C197.841 85.6524 197.073 85.5072 196.424 85.217C195.775 84.9267 195.229 84.5448 194.786 84.0712C194.35 83.5976 194.014 83.0896 193.777 82.5473H193.663V92H188.06ZM193.548 76.6007C193.548 77.5478 193.674 78.3728 193.926 79.0756C194.186 79.7783 194.556 80.3245 195.038 80.714C195.526 81.096 196.111 81.2869 196.791 81.2869C197.478 81.2869 198.062 81.096 198.544 80.714C199.025 80.3245 199.388 79.7783 199.632 79.0756C199.884 78.3728 200.01 77.5478 200.01 76.6007C200.01 75.6535 199.884 74.8323 199.632 74.1372C199.388 73.4421 199.025 72.9036 198.544 72.5217C198.07 72.1397 197.486 71.9488 196.791 71.9488C196.103 71.9488 195.519 72.1359 195.038 72.5102C194.556 72.8845 194.186 73.4192 193.926 74.1143C193.674 74.8094 193.548 75.6382 193.548 76.6007Z" fill="white" fill-opacity="0.65"/>
<path d="M177.451 85.7326C175.602 85.7326 174.013 85.3545 172.684 84.5982C171.363 83.8344 170.343 82.7726 169.625 81.413C168.915 80.0456 168.559 78.4606 168.559 76.6579C168.559 74.8476 168.915 73.2626 169.625 71.9029C170.343 70.5356 171.363 69.4739 172.684 68.7177C174.013 67.9538 175.602 67.5719 177.451 67.5719C179.299 67.5719 180.884 67.9538 182.206 68.7177C183.535 69.4739 184.554 70.5356 185.265 71.9029C185.983 73.2626 186.342 74.8476 186.342 76.6579C186.342 78.4606 185.983 80.0456 185.265 81.413C184.554 82.7726 183.535 83.8344 182.206 84.5982C180.884 85.3545 179.299 85.7326 177.451 85.7326ZM177.485 81.5046C178.157 81.5046 178.726 81.2984 179.192 80.8859C179.658 80.4734 180.013 79.9005 180.258 79.1672C180.51 78.4339 180.636 77.586 180.636 76.6236C180.636 75.6458 180.51 74.7903 180.258 74.057C180.013 73.3237 179.658 72.7508 179.192 72.3383C178.726 71.9259 178.157 71.7196 177.485 71.7196C176.79 71.7196 176.202 71.9259 175.72 72.3383C175.247 72.7508 174.884 73.3237 174.632 74.057C174.388 74.7903 174.265 75.6458 174.265 76.6236C174.265 77.586 174.388 78.4339 174.632 79.1672C174.884 79.9005 175.247 80.4734 175.72 80.8859C176.202 81.2984 176.79 81.5046 177.485 81.5046Z" fill="white" fill-opacity="0.65"/>
<path d="M159.351 85.7326C157.495 85.7326 155.902 85.3506 154.573 84.5868C153.252 83.8229 152.236 82.7612 151.525 81.4015C150.815 80.0342 150.46 78.453 150.46 76.6579C150.46 74.8552 150.815 73.2741 151.525 71.9144C152.243 70.5471 153.263 69.4815 154.584 68.7177C155.914 67.9538 157.499 67.5719 159.339 67.5719C160.966 67.5719 162.383 67.866 163.59 68.4541C164.805 69.0423 165.752 69.8749 166.432 70.9519C167.119 72.0213 167.482 73.2779 167.52 74.7216H162.284C162.177 73.8202 161.872 73.1137 161.367 72.6019C160.871 72.0901 160.222 71.8342 159.42 71.8342C158.77 71.8342 158.201 72.0175 157.712 72.3842C157.224 72.7432 156.842 73.2779 156.567 73.9883C156.299 74.691 156.166 75.5618 156.166 76.6007C156.166 77.6395 156.299 78.5179 156.567 79.236C156.842 79.9463 157.224 80.4849 157.712 80.8515C158.201 81.2105 158.77 81.39 159.42 81.39C159.939 81.39 160.397 81.2793 160.795 81.0578C161.199 80.8362 161.532 80.5116 161.791 80.0838C162.051 79.6484 162.215 79.1214 162.284 78.5027H167.52C167.467 79.954 167.104 81.222 166.432 82.3067C165.767 83.3913 164.832 84.2354 163.625 84.8388C162.425 85.4347 161.001 85.7326 159.351 85.7326Z" fill="white" fill-opacity="0.65"/>
<path d="M149.094 73.1748L143.95 73.3123C143.896 72.9456 143.751 72.621 143.514 72.3383C143.277 72.0481 142.968 71.8227 142.586 71.6623C142.212 71.4943 141.776 71.4103 141.28 71.4103C140.631 71.4103 140.077 71.5401 139.618 71.7998C139.168 72.0595 138.946 72.4109 138.954 72.8539C138.946 73.1977 139.084 73.4956 139.366 73.7477C139.657 73.9997 140.172 74.2022 140.913 74.3549L144.305 74.9966C146.062 75.3327 147.368 75.8903 148.223 76.6694C149.086 77.4485 149.522 78.4797 149.53 79.763C149.522 80.9699 149.163 82.0202 148.452 82.9139C147.75 83.8076 146.787 84.5028 145.565 84.9993C144.343 85.4881 142.945 85.7326 141.372 85.7326C138.858 85.7326 136.876 85.217 135.425 84.1857C133.981 83.1469 133.156 81.7567 132.95 80.0151L138.484 79.8776C138.606 80.5192 138.923 81.0081 139.435 81.3442C139.947 81.6803 140.6 81.8484 141.394 81.8484C142.112 81.8484 142.697 81.7147 143.147 81.4473C143.598 81.18 143.827 80.8248 143.835 80.3817C143.827 79.9845 143.652 79.6675 143.308 79.4307C142.964 79.1863 142.426 78.9953 141.692 78.8579L138.622 78.2735C136.857 77.9527 135.543 77.3607 134.68 76.4975C133.817 75.6267 133.389 74.5192 133.397 73.1748C133.389 71.9984 133.702 70.994 134.336 70.1614C134.97 69.3211 135.872 68.6795 137.04 68.2364C138.209 67.7934 139.588 67.5719 141.177 67.5719C143.56 67.5719 145.439 68.0722 146.814 69.0729C148.189 70.0659 148.949 71.4332 149.094 73.1748Z" fill="white" fill-opacity="0.65"/>
<path d="M123.12 85.7326C121.271 85.7326 119.683 85.3545 118.354 84.5982C117.032 83.8344 116.012 82.7726 115.294 81.413C114.584 80.0456 114.229 78.4606 114.229 76.6579C114.229 74.8476 114.584 73.2626 115.294 71.9029C116.012 70.5356 117.032 69.4739 118.354 68.7177C119.683 67.9538 121.271 67.5719 123.12 67.5719C124.969 67.5719 126.554 67.9538 127.875 68.7177C129.204 69.4739 130.224 70.5356 130.934 71.9029C131.652 73.2626 132.011 74.8476 132.011 76.6579C132.011 78.4606 131.652 80.0456 130.934 81.413C130.224 82.7726 129.204 83.8344 127.875 84.5982C126.554 85.3545 124.969 85.7326 123.12 85.7326ZM123.154 81.5046C123.827 81.5046 124.396 81.2984 124.862 80.8859C125.328 80.4734 125.683 79.9005 125.927 79.1672C126.179 78.4339 126.305 77.586 126.305 76.6236C126.305 75.6458 126.179 74.7903 125.927 74.057C125.683 73.3237 125.328 72.7508 124.862 72.3383C124.396 71.9259 123.827 71.7196 123.154 71.7196C122.459 71.7196 121.871 71.9259 121.39 72.3383C120.916 72.7508 120.553 73.3237 120.301 74.057C120.057 74.7903 119.935 75.6458 119.935 76.6236C119.935 77.586 120.057 78.4339 120.301 79.1672C120.553 79.9005 120.916 80.4734 121.39 80.8859C121.871 81.2984 122.459 81.5046 123.154 81.5046Z" fill="white" fill-opacity="0.65"/>
<path d="M103.39 85.4003V67.801H108.833V71.0092H109.016C109.337 69.8482 109.86 68.985 110.586 68.4198C111.312 67.8469 112.156 67.5604 113.118 67.5604C113.378 67.5604 113.645 67.5795 113.92 67.6177C114.195 67.6483 114.451 67.6979 114.688 67.7667V72.6362C114.421 72.5446 114.069 72.472 113.634 72.4185C113.206 72.3651 112.824 72.3383 112.488 72.3383C111.823 72.3383 111.224 72.4873 110.689 72.7852C110.162 73.0755 109.746 73.4841 109.44 74.0112C109.142 74.5306 108.993 75.1417 108.993 75.8444V85.4003H103.39Z" fill="white" fill-opacity="0.65"/>
<path d="M93.506 85.7326C91.6498 85.7326 90.0572 85.3506 88.7281 84.5868C87.4066 83.8229 86.3907 82.7612 85.6803 81.4015C84.9699 80.0342 84.6147 78.453 84.6147 76.6579C84.6147 74.8552 84.9699 73.2741 85.6803 71.9144C86.3983 70.5471 87.4181 69.4815 88.7395 68.7177C90.0686 67.9538 91.6536 67.5719 93.4945 67.5719C95.1216 67.5719 96.5385 67.866 97.7454 68.4541C98.9599 69.0423 99.9071 69.8749 100.587 70.9519C101.274 72.0213 101.637 73.2779 101.675 74.7216H96.4392C96.3323 73.8202 96.0267 73.1137 95.5226 72.6019C95.0261 72.0901 94.3768 71.8342 93.5747 71.8342C92.9255 71.8342 92.3564 72.0175 91.8675 72.3842C91.3787 72.7432 90.9967 73.2779 90.7217 73.9883C90.4544 74.691 90.3207 75.5618 90.3207 76.6007C90.3207 77.6395 90.4544 78.5179 90.7217 79.236C90.9967 79.9463 91.3787 80.4849 91.8675 80.8515C92.3564 81.2105 92.9255 81.39 93.5747 81.39C94.0942 81.39 94.5525 81.2793 94.9497 81.0578C95.3545 80.8362 95.6868 80.5116 95.9465 80.0838C96.2062 79.6484 96.3705 79.1214 96.4392 78.5027H101.675C101.622 79.954 101.259 81.222 100.587 82.3067C99.9224 83.3913 98.9867 84.2354 97.7798 84.8388C96.5805 85.4347 95.1559 85.7326 93.506 85.7326Z" fill="white" fill-opacity="0.65"/>
<path d="M77.2739 85.4003V67.801H82.8768V85.4003H77.2739ZM80.0811 65.7501C79.2943 65.7501 78.6183 65.4904 78.0531 64.971C77.4878 64.4439 77.2052 63.8099 77.2052 63.069C77.2052 62.3357 77.4878 61.7093 78.0531 61.1899C78.6183 60.6628 79.2943 60.3993 80.0811 60.3993C80.8755 60.3993 81.5515 60.6628 82.1091 61.1899C82.6744 61.7093 82.957 62.3357 82.957 63.069C82.957 63.8099 82.6744 64.4439 82.1091 64.971C81.5515 65.4904 80.8755 65.7501 80.0811 65.7501Z" fill="white" fill-opacity="0.65"/>
<path d="M48.6502 61.9346H55.6739L61.6319 76.4632H61.9069L67.865 61.9346H74.8887V85.4003H69.366V70.9863H69.1712L63.5339 85.2513H60.0049L54.3677 70.9061H54.1729V85.4003H48.6502V61.9346Z" fill="white" fill-opacity="0.65"/>
<path d="M26.5923 74.8141C26.5923 76.2154 25.4691 77.3514 24.0836 77.3514C22.698 77.3514 21.5749 76.2154 21.5749 74.8141C21.5749 73.4129 22.698 72.2769 24.0836 72.2769C25.4691 72.2769 26.5923 73.4129 26.5923 74.8141Z" fill="white" fill-opacity="0.65"/>
<path d="M9.03133 65.4263C9.03133 66.8276 7.90813 67.9636 6.52263 67.9636C5.13712 67.9636 4.01392 66.8276 4.01392 65.4263C4.01392 64.0251 5.13712 62.8891 6.52263 62.8891C7.90813 62.8891 9.03133 64.0251 9.03133 65.4263Z" fill="white" fill-opacity="0.65"/>
<path fill-rule="evenodd" clip-rule="evenodd" d="M0 74.8141C0 71.5907 1.18868 68.6481 3.1469 66.4101C3.39419 67.2797 3.96103 68.0123 4.71058 68.4698C3.33285 70.2075 2.5087 72.4135 2.5087 74.8141C2.5087 80.4192 7.00144 84.9632 12.5435 84.9632C17.0668 84.9632 20.8911 81.9364 22.1442 77.7761C22.7 78.149 23.3667 78.3663 24.0836 78.3663C24.2589 78.3663 24.4312 78.3533 24.5996 78.3282C23.0929 83.6252 18.2657 87.5004 12.5435 87.5004C5.61593 87.5004 0 81.8206 0 74.8141ZM22.4054 76.7001C22.4298 76.5688 22.4517 76.4367 22.471 76.3036C23.3935 75.9689 24.2692 75.5348 25.0855 75.0143C25.0739 75.7699 24.9971 76.5094 24.8604 77.2274C24.6158 77.3079 24.3547 77.3514 24.0836 77.3514C23.4383 77.3514 22.8499 77.105 22.4054 76.7001ZM4.59419 65.0003C4.687 65.8678 4.86063 66.7109 5.10732 67.5215C4.46864 67.0794 4.0424 66.3463 4.0153 65.5111C4.20301 65.335 4.39607 65.1646 4.59419 65.0003Z" fill="white" fill-opacity="0.65"/>
<path fill-rule="evenodd" clip-rule="evenodd" d="M24.8599 69.0041L23.018 60L13.9388 60.4754L16.9277 62.8095L11.5188 75.0618L21.8711 66.67L24.8599 69.0041Z" fill="white" fill-opacity="0.65"/>
</svg>
