<svg width="347" height="94" viewBox="0 0 347 94" fill="none" xmlns="http://www.w3.org/2000/svg">
<path d="M1.76136 21V6.45455H6.67614C7.81724 6.45455 8.75 6.66051 9.47443 7.07244C10.2036 7.47964 10.7434 8.03125 11.0938 8.72727C11.4441 9.4233 11.6193 10.1998 11.6193 11.0568C11.6193 11.9138 11.4441 12.6927 11.0938 13.3935C10.7481 14.0942 10.2131 14.6529 9.48864 15.0696C8.7642 15.4815 7.83617 15.6875 6.70455 15.6875H3.18182V14.125H6.64773C7.42898 14.125 8.05634 13.9901 8.52983 13.7202C9.00331 13.4503 9.34659 13.0857 9.55966 12.6264C9.77746 12.1624 9.88636 11.6392 9.88636 11.0568C9.88636 10.4744 9.77746 9.9536 9.55966 9.49432C9.34659 9.03504 9.00095 8.67519 8.52273 8.41477C8.04451 8.14962 7.41004 8.01705 6.61932 8.01705H3.52273V21H1.76136ZM18.144 21.2273C17.1592 21.2273 16.2951 20.9929 15.5517 20.5241C14.8131 20.0554 14.2354 19.3996 13.8188 18.5568C13.4068 17.714 13.2009 16.7292 13.2009 15.6023C13.2009 14.4659 13.4068 13.474 13.8188 12.6264C14.2354 11.7789 14.8131 11.1207 15.5517 10.652C16.2951 10.1832 17.1592 9.94886 18.144 9.94886C19.1289 9.94886 19.9906 10.1832 20.7293 10.652C21.4726 11.1207 22.0503 11.7789 22.4622 12.6264C22.8789 13.474 23.0872 14.4659 23.0872 15.6023C23.0872 16.7292 22.8789 17.714 22.4622 18.5568C22.0503 19.3996 21.4726 20.0554 20.7293 20.5241C19.9906 20.9929 19.1289 21.2273 18.144 21.2273ZM18.144 19.7216C18.8921 19.7216 19.5077 19.5298 19.9906 19.1463C20.4736 18.7628 20.8311 18.2585 21.0631 17.6335C21.2951 17.0085 21.4111 16.3314 21.4111 15.6023C21.4111 14.8731 21.2951 14.1937 21.0631 13.5639C20.8311 12.9342 20.4736 12.4252 19.9906 12.0369C19.5077 11.6487 18.8921 11.4545 18.144 11.4545C17.3959 11.4545 16.7804 11.6487 16.2974 12.0369C15.8145 12.4252 15.457 12.9342 15.225 13.5639C14.993 14.1937 14.877 14.8731 14.877 15.6023C14.877 16.3314 14.993 17.0085 15.225 17.6335C15.457 18.2585 15.8145 18.7628 16.2974 19.1463C16.7804 19.5298 17.3959 19.7216 18.144 19.7216ZM27.3463 21L24.0224 10.0909H25.7838L28.1418 18.4432H28.2554L30.5849 10.0909H32.3747L34.6759 18.4148H34.7895L37.1474 10.0909H38.9088L35.5849 21H33.9372L31.5509 12.6193H31.3804L28.994 21H27.3463ZM44.9275 21.2273C43.8763 21.2273 42.9696 20.9953 42.2073 20.5312C41.4497 20.0625 40.865 19.4091 40.4531 18.571C40.0459 17.7282 39.8423 16.7481 39.8423 15.6307C39.8423 14.5133 40.0459 13.5284 40.4531 12.6761C40.865 11.8191 41.4379 11.1515 42.1718 10.6733C42.9104 10.1903 43.7722 9.94886 44.757 9.94886C45.3252 9.94886 45.8863 10.0436 46.4403 10.233C46.9942 10.4223 47.4985 10.7301 47.9531 11.1562C48.4076 11.5777 48.7698 12.1364 49.0397 12.8324C49.3096 13.5284 49.4445 14.3854 49.4445 15.4034V16.1136H41.0354V14.6648H47.74C47.74 14.0492 47.6169 13.5 47.3707 13.017C47.1292 12.5341 46.7835 12.1529 46.3337 11.8736C45.8887 11.5942 45.3631 11.4545 44.757 11.4545C44.0894 11.4545 43.5118 11.6203 43.0241 11.9517C42.5411 12.2784 42.1694 12.7045 41.909 13.2301C41.6486 13.7557 41.5184 14.3191 41.5184 14.9205V15.8864C41.5184 16.7102 41.6604 17.4086 41.9445 17.9815C42.2334 18.5497 42.6335 18.983 43.1448 19.2812C43.6562 19.5748 44.2504 19.7216 44.9275 19.7216C45.3678 19.7216 45.7656 19.66 46.1207 19.5369C46.4805 19.4091 46.7906 19.2197 47.0511 18.9688C47.3115 18.7131 47.5127 18.3958 47.6548 18.017L49.2741 18.4716C49.1036 19.0208 48.8172 19.5038 48.4147 19.9205C48.0122 20.3324 47.5151 20.6544 46.9232 20.8864C46.3314 21.1136 45.6661 21.2273 44.9275 21.2273ZM51.5942 21V10.0909H53.2136V11.7386H53.3272C53.5261 11.1989 53.8859 10.7609 54.4067 10.4247C54.9276 10.0885 55.5147 9.92045 56.1681 9.92045C56.2912 9.92045 56.4451 9.92282 56.6298 9.92756C56.8144 9.93229 56.9541 9.93939 57.0488 9.94886V11.6534C56.992 11.6392 56.8618 11.6179 56.6582 11.5895C56.4593 11.5563 56.2486 11.5398 56.0261 11.5398C55.4958 11.5398 55.0223 11.651 54.6056 11.8736C54.1937 12.0914 53.867 12.3944 53.6255 12.7827C53.3888 13.1662 53.2704 13.6042 53.2704 14.0966V21H51.5942ZM62.8775 21.2273C61.8263 21.2273 60.9196 20.9953 60.1573 20.5312C59.3997 20.0625 58.815 19.4091 58.4031 18.571C57.9959 17.7282 57.7923 16.7481 57.7923 15.6307C57.7923 14.5133 57.9959 13.5284 58.4031 12.6761C58.815 11.8191 59.3879 11.1515 60.1218 10.6733C60.8604 10.1903 61.7222 9.94886 62.707 9.94886C63.2752 9.94886 63.8363 10.0436 64.3903 10.233C64.9442 10.4223 65.4485 10.7301 65.9031 11.1562C66.3576 11.5777 66.7198 12.1364 66.9897 12.8324C67.2596 13.5284 67.3945 14.3854 67.3945 15.4034V16.1136H58.9854V14.6648H65.69C65.69 14.0492 65.5669 13.5 65.3207 13.017C65.0792 12.5341 64.7335 12.1529 64.2837 11.8736C63.8387 11.5942 63.3131 11.4545 62.707 11.4545C62.0394 11.4545 61.4618 11.6203 60.9741 11.9517C60.4911 12.2784 60.1194 12.7045 59.859 13.2301C59.5986 13.7557 59.4684 14.3191 59.4684 14.9205V15.8864C59.4684 16.7102 59.6104 17.4086 59.8945 17.9815C60.1834 18.5497 60.5835 18.983 61.0948 19.2812C61.6062 19.5748 62.2004 19.7216 62.8775 19.7216C63.3178 19.7216 63.7156 19.66 64.0707 19.5369C64.4305 19.4091 64.7406 19.2197 65.0011 18.9688C65.2615 18.7131 65.4627 18.3958 65.6048 18.017L67.2241 18.4716C67.0536 19.0208 66.7672 19.5038 66.3647 19.9205C65.9622 20.3324 65.4651 20.6544 64.8732 20.8864C64.2814 21.1136 63.6161 21.2273 62.8775 21.2273ZM73.6636 21.2273C72.7545 21.2273 71.9519 20.9976 71.2559 20.5384C70.5599 20.0743 70.0154 19.4209 69.6224 18.5781C69.2294 17.7306 69.0329 16.7292 69.0329 15.5739C69.0329 14.428 69.2294 13.4337 69.6224 12.5909C70.0154 11.7481 70.5622 11.0971 71.263 10.6378C71.9638 10.1785 72.7734 9.94886 73.692 9.94886C74.4022 9.94886 74.9633 10.0672 75.3752 10.304C75.7919 10.536 76.1091 10.8011 76.3269 11.0994C76.5495 11.393 76.7223 11.6345 76.8454 11.8239H76.9874V6.45455H78.6636V21H77.0442V19.3239H76.8454C76.7223 19.5227 76.5471 19.7737 76.3198 20.0767C76.0925 20.375 75.7682 20.6425 75.3468 20.8793C74.9254 21.1113 74.3643 21.2273 73.6636 21.2273ZM73.8908 19.7216C74.5632 19.7216 75.1314 19.5464 75.5954 19.196C76.0594 18.8409 76.4121 18.3509 76.6536 17.7259C76.8951 17.0961 77.0158 16.3693 77.0158 15.5455C77.0158 14.7311 76.8975 14.0185 76.6607 13.4077C76.424 12.7921 76.0736 12.3139 75.6096 11.973C75.1456 11.6274 74.5727 11.4545 73.8908 11.4545C73.1806 11.4545 72.5888 11.6368 72.1153 12.0014C71.6465 12.3613 71.2938 12.8513 71.057 13.4716C70.825 14.0871 70.709 14.7784 70.709 15.5455C70.709 16.322 70.8274 17.0275 71.0641 17.6619C71.3056 18.2917 71.6607 18.7936 72.1295 19.1676C72.603 19.5369 73.1901 19.7216 73.8908 19.7216ZM87.0184 21V6.45455H88.6945V11.8239H88.8366C88.9597 11.6345 89.1301 11.393 89.3479 11.0994C89.5705 10.8011 89.8877 10.536 90.2996 10.304C90.7163 10.0672 91.2798 9.94886 91.99 9.94886C92.9085 9.94886 93.7182 10.1785 94.419 10.6378C95.1197 11.0971 95.6666 11.7481 96.0596 12.5909C96.4526 13.4337 96.6491 14.428 96.6491 15.5739C96.6491 16.7292 96.4526 17.7306 96.0596 18.5781C95.6666 19.4209 95.1221 20.0743 94.4261 20.5384C93.73 20.9976 92.9275 21.2273 92.0184 21.2273C91.3176 21.2273 90.7566 21.1113 90.3352 20.8793C89.9138 20.6425 89.5894 20.375 89.3621 20.0767C89.1349 19.7737 88.9597 19.5227 88.8366 19.3239H88.6377V21H87.0184ZM88.6661 15.5455C88.6661 16.3693 88.7869 17.0961 89.0283 17.7259C89.2698 18.3509 89.6226 18.8409 90.0866 19.196C90.5506 19.5464 91.1188 19.7216 91.7911 19.7216C92.4919 19.7216 93.0766 19.5369 93.5454 19.1676C94.0189 18.7936 94.374 18.2917 94.6107 17.6619C94.8522 17.0275 94.9729 16.322 94.9729 15.5455C94.9729 14.7784 94.8546 14.0871 94.6178 13.4716C94.3858 12.8513 94.0331 12.3613 93.5596 12.0014C93.0908 11.6368 92.5014 11.4545 91.7911 11.4545C91.1093 11.4545 90.5364 11.6274 90.0724 11.973C89.6084 12.3139 89.258 12.7921 89.0212 13.4077C88.7845 14.0185 88.6661 14.7311 88.6661 15.5455ZM99.5019 25.0909C99.2178 25.0909 98.9645 25.0672 98.742 25.0199C98.5194 24.9773 98.3656 24.9347 98.2803 24.892L98.7065 23.4148C99.1137 23.5189 99.4735 23.5568 99.786 23.5284C100.099 23.5 100.375 23.3603 100.617 23.1094C100.863 22.8632 101.088 22.4631 101.292 21.9091L101.604 21.0568L97.5701 10.0909H99.3883L102.4 18.7841H102.513L105.525 10.0909H107.343L102.712 22.5909C102.504 23.1544 102.246 23.6207 101.938 23.9901C101.63 24.3641 101.273 24.6411 100.866 24.821C100.463 25.0009 100.009 25.0909 99.5019 25.0909ZM122.465 11.9943V21H113.473L113.459 19.4659H119.823L111.584 11.2131L112.692 10.1051L120.931 18.358L120.917 11.9943H122.465Z" fill="white" fill-opacity="0.45"/>
<path d="M344.651 35.9346V59.4003H339.049V35.9346H344.651Z" fill="white" fill-opacity="0.65"/>
<path d="M328.439 59.7326C326.591 59.7326 325.002 59.3545 323.673 58.5982C322.351 57.8344 321.332 56.7726 320.614 55.413C319.903 54.0456 319.548 52.4606 319.548 50.6579C319.548 48.8476 319.903 47.2626 320.614 45.9029C321.332 44.5356 322.351 43.4739 323.673 42.7177C325.002 41.9538 326.591 41.5719 328.439 41.5719C330.288 41.5719 331.873 41.9538 333.194 42.7177C334.523 43.4739 335.543 44.5356 336.254 45.9029C336.972 47.2626 337.331 48.8476 337.331 50.6579C337.331 52.4606 336.972 54.0456 336.254 55.413C335.543 56.7726 334.523 57.8344 333.194 58.5982C331.873 59.3545 330.288 59.7326 328.439 59.7326ZM328.474 55.5046C329.146 55.5046 329.715 55.2984 330.181 54.8859C330.647 54.4734 331.002 53.9005 331.247 53.1672C331.499 52.4339 331.625 51.586 331.625 50.6236C331.625 49.6458 331.499 48.7903 331.247 48.057C331.002 47.3237 330.647 46.7508 330.181 46.3383C329.715 45.9259 329.146 45.7196 328.474 45.7196C327.779 45.7196 327.19 45.9259 326.709 46.3383C326.236 46.7508 325.873 47.3237 325.621 48.057C325.376 48.7903 325.254 49.6458 325.254 50.6236C325.254 51.586 325.376 52.4339 325.621 53.1672C325.873 53.9005 326.236 54.4734 326.709 54.8859C327.19 55.2984 327.779 55.5046 328.474 55.5046Z" fill="white" fill-opacity="0.65"/>
<path d="M310.34 59.7326C308.484 59.7326 306.891 59.3506 305.562 58.5868C304.24 57.8229 303.224 56.7612 302.514 55.4015C301.804 54.0342 301.448 52.453 301.448 50.6579C301.448 48.8552 301.804 47.2741 302.514 45.9144C303.232 44.5471 304.252 43.4815 305.573 42.7177C306.902 41.9538 308.487 41.5719 310.328 41.5719C311.955 41.5719 313.372 41.866 314.579 42.4541C315.794 43.0423 316.741 43.8749 317.421 44.9519C318.108 46.0213 318.471 47.2779 318.509 48.7216H313.273C313.166 47.8202 312.86 47.1137 312.356 46.6019C311.86 46.0901 311.21 45.8342 310.408 45.8342C309.759 45.8342 309.19 46.0175 308.701 46.3842C308.212 46.7432 307.83 47.2779 307.555 47.9883C307.288 48.691 307.154 49.5618 307.154 50.6007C307.154 51.6395 307.288 52.5179 307.555 53.236C307.83 53.9463 308.212 54.4849 308.701 54.8515C309.19 55.2105 309.759 55.39 310.408 55.39C310.928 55.39 311.386 55.2793 311.783 55.0578C312.188 54.8362 312.52 54.5116 312.78 54.0838C313.04 53.6484 313.204 53.1214 313.273 52.5027H318.509C318.456 53.954 318.093 55.222 317.421 56.3067C316.756 57.3913 315.82 58.2354 314.613 58.8388C313.414 59.4347 311.99 59.7326 310.34 59.7326Z" fill="white" fill-opacity="0.65"/>
<path d="M291.515 59.7326C289.667 59.7326 288.078 59.3545 286.749 58.5982C285.427 57.8344 284.408 56.7726 283.69 55.413C282.979 54.0456 282.624 52.4606 282.624 50.6579C282.624 48.8476 282.979 47.2626 283.69 45.9029C284.408 44.5356 285.427 43.4739 286.749 42.7177C288.078 41.9538 289.667 41.5719 291.515 41.5719C293.364 41.5719 294.949 41.9538 296.27 42.7177C297.599 43.4739 298.619 44.5356 299.329 45.9029C300.048 47.2626 300.407 48.8476 300.407 50.6579C300.407 52.4606 300.048 54.0456 299.329 55.413C298.619 56.7726 297.599 57.8344 296.27 58.5982C294.949 59.3545 293.364 59.7326 291.515 59.7326ZM291.55 55.5046C292.222 55.5046 292.791 55.2984 293.257 54.8859C293.723 54.4734 294.078 53.9005 294.322 53.1672C294.574 52.4339 294.701 51.586 294.701 50.6236C294.701 49.6458 294.574 48.7903 294.322 48.057C294.078 47.3237 293.723 46.7508 293.257 46.3383C292.791 45.9259 292.222 45.7196 291.55 45.7196C290.855 45.7196 290.266 45.9259 289.785 46.3383C289.312 46.7508 288.949 47.3237 288.697 48.057C288.452 48.7903 288.33 49.6458 288.33 50.6236C288.33 51.586 288.452 52.4339 288.697 53.1672C288.949 53.9005 289.312 54.4734 289.785 54.8859C290.266 55.2984 290.855 55.5046 291.55 55.5046Z" fill="white" fill-opacity="0.65"/>
<path d="M281.783 41.801V45.9259H270.68V41.801H281.783ZM273.006 37.5846H278.609V53.8662C278.609 54.2099 278.662 54.4887 278.769 54.7026C278.884 54.9088 279.048 55.0578 279.262 55.1494C279.476 55.2335 279.732 55.2755 280.03 55.2755C280.243 55.2755 280.469 55.2564 280.706 55.2182C280.95 55.1723 281.133 55.1342 281.256 55.1036L282.103 59.1482C281.836 59.2246 281.458 59.3201 280.969 59.4347C280.488 59.5492 279.911 59.6218 279.239 59.6524C277.925 59.7135 276.798 59.5607 275.859 59.194C274.927 58.8198 274.213 58.2392 273.716 57.4525C273.227 56.6657 272.991 55.6765 273.006 54.4849V37.5846Z" fill="white" fill-opacity="0.65"/>
<path d="M261.24 59.7326C259.391 59.7326 257.802 59.3545 256.473 58.5982C255.152 57.8344 254.132 56.7726 253.414 55.413C252.703 54.0456 252.348 52.4606 252.348 50.6579C252.348 48.8476 252.703 47.2626 253.414 45.9029C254.132 44.5356 255.152 43.4739 256.473 42.7177C257.802 41.9538 259.391 41.5719 261.24 41.5719C263.088 41.5719 264.673 41.9538 265.995 42.7177C267.324 43.4739 268.343 44.5356 269.054 45.9029C269.772 47.2626 270.131 48.8476 270.131 50.6579C270.131 52.4606 269.772 54.0456 269.054 55.413C268.343 56.7726 267.324 57.8344 265.995 58.5982C264.673 59.3545 263.088 59.7326 261.24 59.7326ZM261.274 55.5046C261.946 55.5046 262.515 55.2984 262.981 54.8859C263.447 54.4734 263.802 53.9005 264.047 53.1672C264.299 52.4339 264.425 51.586 264.425 50.6236C264.425 49.6458 264.299 48.7903 264.047 48.057C263.802 47.3237 263.447 46.7508 262.981 46.3383C262.515 45.9259 261.946 45.7196 261.274 45.7196C260.579 45.7196 259.991 45.9259 259.509 46.3383C259.036 46.7508 258.673 47.3237 258.421 48.057C258.176 48.7903 258.054 49.6458 258.054 50.6236C258.054 51.586 258.176 52.4339 258.421 53.1672C258.673 53.9005 259.036 54.4734 259.509 54.8859C259.991 55.2984 260.579 55.5046 261.274 55.5046Z" fill="white" fill-opacity="0.65"/>
<path d="M241.51 59.4003V41.801H246.952V45.0092H247.136C247.457 43.8482 247.98 42.985 248.706 42.4198C249.431 41.8469 250.275 41.5604 251.238 41.5604C251.497 41.5604 251.765 41.5795 252.04 41.6177C252.315 41.6483 252.571 41.6979 252.807 41.7667V46.6362C252.54 46.5446 252.189 46.472 251.753 46.4185C251.326 46.3651 250.944 46.3383 250.608 46.3383C249.943 46.3383 249.343 46.4873 248.809 46.7852C248.282 47.0755 247.865 47.4841 247.56 48.0112C247.262 48.5306 247.113 49.1417 247.113 49.8444V59.4003H241.51Z" fill="white" fill-opacity="0.65"/>
<path d="M221.614 59.4003V35.9346H231.308C233.064 35.9346 234.581 36.2784 235.856 36.9658C237.14 37.6457 238.129 38.5967 238.824 39.8188C239.519 41.0334 239.867 42.4465 239.867 44.0582C239.867 45.6776 239.511 47.0946 238.801 48.3091C238.098 49.516 237.094 50.4517 235.788 51.1163C234.481 51.7808 232.931 52.1131 231.136 52.1131H225.155V47.6445H230.082C230.937 47.6445 231.651 47.4956 232.224 47.1977C232.805 46.8998 233.244 46.4835 233.542 45.9488C233.84 45.4064 233.989 44.7763 233.989 44.0582C233.989 43.3326 233.84 42.7062 233.542 42.1792C233.244 41.6445 232.805 41.232 232.224 40.9417C231.644 40.6514 230.93 40.5063 230.082 40.5063H227.286V59.4003H221.614Z" fill="white" fill-opacity="0.65"/>
<path d="M205.773 59.7326C203.932 59.7326 202.343 59.3697 201.006 58.6441C199.677 57.9108 198.653 56.8681 197.935 55.5161C197.225 54.1564 196.87 52.5409 196.87 50.6694C196.87 48.8514 197.229 47.2626 197.947 45.9029C198.665 44.5356 199.677 43.4739 200.983 42.7177C202.289 41.9538 203.829 41.5719 205.601 41.5719C206.853 41.5719 207.999 41.7667 209.038 42.1562C210.077 42.5458 210.974 43.1225 211.731 43.8864C212.487 44.6502 213.075 45.5936 213.495 46.7165C213.915 47.8317 214.125 49.1111 214.125 50.5548V51.9527H198.829V48.6987H208.912C208.904 48.1029 208.763 47.572 208.488 47.106C208.213 46.6401 207.835 46.2772 207.354 46.0175C206.88 45.7502 206.334 45.6165 205.715 45.6165C205.089 45.6165 204.528 45.7578 204.031 46.0404C203.534 46.3154 203.141 46.6935 202.851 47.1748C202.561 47.6484 202.408 48.1869 202.393 48.7903V52.1016C202.393 52.8197 202.534 53.4498 202.816 53.9922C203.099 54.5269 203.5 54.9432 204.02 55.2411C204.539 55.539 205.158 55.6879 205.876 55.6879C206.372 55.6879 206.823 55.6192 207.228 55.4817C207.633 55.3442 207.98 55.1418 208.27 54.8744C208.561 54.6071 208.778 54.2786 208.923 53.8891L214.068 54.038C213.854 55.1914 213.384 56.1959 212.659 57.0514C211.941 57.8993 210.997 58.56 209.829 59.0336C208.66 59.4996 207.308 59.7326 205.773 59.7326Z" fill="white" fill-opacity="0.65"/>
<path d="M178.06 66V41.801H183.605V44.8145H183.777C184.006 44.2798 184.331 43.7641 184.751 43.2676C185.179 42.7711 185.721 42.3663 186.378 42.0531C187.043 41.7323 187.837 41.5719 188.761 41.5719C189.984 41.5719 191.126 41.8927 192.187 42.5343C193.257 43.176 194.12 44.1652 194.777 45.5019C195.434 46.8387 195.762 48.5421 195.762 50.6121C195.762 52.6058 195.445 54.2748 194.811 55.6192C194.185 56.9636 193.337 57.9719 192.268 58.6441C191.206 59.3163 190.026 59.6524 188.727 59.6524C187.841 59.6524 187.073 59.5072 186.424 59.217C185.775 58.9267 185.229 58.5448 184.786 58.0712C184.35 57.5976 184.014 57.0896 183.777 56.5473H183.663V66H178.06ZM183.548 50.6007C183.548 51.5478 183.674 52.3728 183.926 53.0756C184.186 53.7783 184.556 54.3245 185.038 54.714C185.526 55.096 186.111 55.2869 186.791 55.2869C187.478 55.2869 188.062 55.096 188.544 54.714C189.025 54.3245 189.388 53.7783 189.632 53.0756C189.884 52.3728 190.01 51.5478 190.01 50.6007C190.01 49.6535 189.884 48.8323 189.632 48.1372C189.388 47.4421 189.025 46.9036 188.544 46.5217C188.07 46.1397 187.486 45.9488 186.791 45.9488C186.103 45.9488 185.519 46.1359 185.038 46.5102C184.556 46.8845 184.186 47.4192 183.926 48.1143C183.674 48.8094 183.548 49.6382 183.548 50.6007Z" fill="white" fill-opacity="0.65"/>
<path d="M167.451 59.7326C165.602 59.7326 164.013 59.3545 162.684 58.5982C161.363 57.8344 160.343 56.7726 159.625 55.413C158.915 54.0456 158.559 52.4606 158.559 50.6579C158.559 48.8476 158.915 47.2626 159.625 45.9029C160.343 44.5356 161.363 43.4739 162.684 42.7177C164.013 41.9538 165.602 41.5719 167.451 41.5719C169.299 41.5719 170.884 41.9538 172.206 42.7177C173.535 43.4739 174.554 44.5356 175.265 45.9029C175.983 47.2626 176.342 48.8476 176.342 50.6579C176.342 52.4606 175.983 54.0456 175.265 55.413C174.554 56.7726 173.535 57.8344 172.206 58.5982C170.884 59.3545 169.299 59.7326 167.451 59.7326ZM167.485 55.5046C168.157 55.5046 168.726 55.2984 169.192 54.8859C169.658 54.4734 170.013 53.9005 170.258 53.1672C170.51 52.4339 170.636 51.586 170.636 50.6236C170.636 49.6458 170.51 48.7903 170.258 48.057C170.013 47.3237 169.658 46.7508 169.192 46.3383C168.726 45.9259 168.157 45.7196 167.485 45.7196C166.79 45.7196 166.202 45.9259 165.72 46.3383C165.247 46.7508 164.884 47.3237 164.632 48.057C164.388 48.7903 164.265 49.6458 164.265 50.6236C164.265 51.586 164.388 52.4339 164.632 53.1672C164.884 53.9005 165.247 54.4734 165.72 54.8859C166.202 55.2984 166.79 55.5046 167.485 55.5046Z" fill="white" fill-opacity="0.65"/>
<path d="M149.351 59.7326C147.495 59.7326 145.902 59.3506 144.573 58.5868C143.252 57.8229 142.236 56.7612 141.525 55.4015C140.815 54.0342 140.46 52.453 140.46 50.6579C140.46 48.8552 140.815 47.2741 141.525 45.9144C142.243 44.5471 143.263 43.4815 144.584 42.7177C145.914 41.9538 147.499 41.5719 149.339 41.5719C150.966 41.5719 152.383 41.866 153.59 42.4541C154.805 43.0423 155.752 43.8749 156.432 44.9519C157.119 46.0213 157.482 47.2779 157.52 48.7216H152.284C152.177 47.8202 151.872 47.1137 151.367 46.6019C150.871 46.0901 150.222 45.8342 149.42 45.8342C148.77 45.8342 148.201 46.0175 147.712 46.3842C147.224 46.7432 146.842 47.2779 146.567 47.9883C146.299 48.691 146.166 49.5618 146.166 50.6007C146.166 51.6395 146.299 52.5179 146.567 53.236C146.842 53.9463 147.224 54.4849 147.712 54.8515C148.201 55.2105 148.77 55.39 149.42 55.39C149.939 55.39 150.397 55.2793 150.795 55.0578C151.199 54.8362 151.532 54.5116 151.791 54.0838C152.051 53.6484 152.215 53.1214 152.284 52.5027H157.52C157.467 53.954 157.104 55.222 156.432 56.3067C155.767 57.3913 154.832 58.2354 153.625 58.8388C152.425 59.4347 151.001 59.7326 149.351 59.7326Z" fill="white" fill-opacity="0.65"/>
<path d="M139.094 47.1748L133.95 47.3123C133.896 46.9456 133.751 46.621 133.514 46.3383C133.277 46.0481 132.968 45.8227 132.586 45.6623C132.212 45.4943 131.776 45.4103 131.28 45.4103C130.631 45.4103 130.077 45.5401 129.618 45.7998C129.168 46.0595 128.946 46.4109 128.954 46.8539C128.946 47.1977 129.084 47.4956 129.366 47.7477C129.657 47.9997 130.172 48.2022 130.913 48.3549L134.305 48.9966C136.062 49.3327 137.368 49.8903 138.223 50.6694C139.086 51.4485 139.522 52.4797 139.53 53.763C139.522 54.9699 139.163 56.0202 138.452 56.9139C137.75 57.8076 136.787 58.5028 135.565 58.9993C134.343 59.4881 132.945 59.7326 131.372 59.7326C128.858 59.7326 126.876 59.217 125.425 58.1857C123.981 57.1469 123.156 55.7567 122.95 54.0151L128.484 53.8776C128.606 54.5192 128.923 55.0081 129.435 55.3442C129.947 55.6803 130.6 55.8484 131.394 55.8484C132.112 55.8484 132.697 55.7147 133.147 55.4473C133.598 55.18 133.827 54.8248 133.835 54.3817C133.827 53.9845 133.652 53.6675 133.308 53.4307C132.964 53.1863 132.426 52.9953 131.692 52.8579L128.622 52.2735C126.857 51.9527 125.543 51.3607 124.68 50.4975C123.817 49.6267 123.389 48.5192 123.397 47.1748C123.389 45.9984 123.702 44.994 124.336 44.1614C124.97 43.3211 125.872 42.6795 127.04 42.2364C128.209 41.7934 129.588 41.5719 131.177 41.5719C133.56 41.5719 135.439 42.0722 136.814 43.0729C138.189 44.0659 138.949 45.4332 139.094 47.1748Z" fill="white" fill-opacity="0.65"/>
<path d="M113.12 59.7326C111.271 59.7326 109.683 59.3545 108.354 58.5982C107.032 57.8344 106.012 56.7726 105.294 55.413C104.584 54.0456 104.229 52.4606 104.229 50.6579C104.229 48.8476 104.584 47.2626 105.294 45.9029C106.012 44.5356 107.032 43.4739 108.354 42.7177C109.683 41.9538 111.271 41.5719 113.12 41.5719C114.969 41.5719 116.554 41.9538 117.875 42.7177C119.204 43.4739 120.224 44.5356 120.934 45.9029C121.652 47.2626 122.011 48.8476 122.011 50.6579C122.011 52.4606 121.652 54.0456 120.934 55.413C120.224 56.7726 119.204 57.8344 117.875 58.5982C116.554 59.3545 114.969 59.7326 113.12 59.7326ZM113.154 55.5046C113.827 55.5046 114.396 55.2984 114.862 54.8859C115.328 54.4734 115.683 53.9005 115.927 53.1672C116.179 52.4339 116.305 51.586 116.305 50.6236C116.305 49.6458 116.179 48.7903 115.927 48.057C115.683 47.3237 115.328 46.7508 114.862 46.3383C114.396 45.9259 113.827 45.7196 113.154 45.7196C112.459 45.7196 111.871 45.9259 111.39 46.3383C110.916 46.7508 110.553 47.3237 110.301 48.057C110.057 48.7903 109.935 49.6458 109.935 50.6236C109.935 51.586 110.057 52.4339 110.301 53.1672C110.553 53.9005 110.916 54.4734 111.39 54.8859C111.871 55.2984 112.459 55.5046 113.154 55.5046Z" fill="white" fill-opacity="0.65"/>
<path d="M93.3904 59.4003V41.801H98.8329V45.0092H99.0162C99.337 43.8482 99.8603 42.985 100.586 42.4198C101.312 41.8469 102.156 41.5604 103.118 41.5604C103.378 41.5604 103.645 41.5795 103.92 41.6177C104.195 41.6483 104.451 41.6979 104.688 41.7667V46.6362C104.421 46.5446 104.069 46.472 103.634 46.4185C103.206 46.3651 102.824 46.3383 102.488 46.3383C101.823 46.3383 101.224 46.4873 100.689 46.7852C100.162 47.0755 99.7457 47.4841 99.4402 48.0112C99.1423 48.5306 98.9933 49.1417 98.9933 49.8444V59.4003H93.3904Z" fill="white" fill-opacity="0.65"/>
<path d="M83.506 59.7326C81.6498 59.7326 80.0572 59.3506 78.7281 58.5868C77.4066 57.8229 76.3907 56.7612 75.6803 55.4015C74.9699 54.0342 74.6147 52.453 74.6147 50.6579C74.6147 48.8552 74.9699 47.2741 75.6803 45.9144C76.3983 44.5471 77.4181 43.4815 78.7395 42.7177C80.0686 41.9538 81.6536 41.5719 83.4945 41.5719C85.1216 41.5719 86.5385 41.866 87.7454 42.4541C88.9599 43.0423 89.9071 43.8749 90.5869 44.9519C91.2744 46.0213 91.6372 47.2779 91.6754 48.7216H86.4392C86.3323 47.8202 86.0267 47.1137 85.5226 46.6019C85.0261 46.0901 84.3768 45.8342 83.5747 45.8342C82.9255 45.8342 82.3564 46.0175 81.8675 46.3842C81.3787 46.7432 80.9967 47.2779 80.7217 47.9883C80.4544 48.691 80.3207 49.5618 80.3207 50.6007C80.3207 51.6395 80.4544 52.5179 80.7217 53.236C80.9967 53.9463 81.3787 54.4849 81.8675 54.8515C82.3564 55.2105 82.9255 55.39 83.5747 55.39C84.0942 55.39 84.5525 55.2793 84.9497 55.0578C85.3545 54.8362 85.6868 54.5116 85.9465 54.0838C86.2062 53.6484 86.3705 53.1214 86.4392 52.5027H91.6754C91.622 53.954 91.2591 55.222 90.5869 56.3067C89.9224 57.3913 88.9867 58.2354 87.7798 58.8388C86.5805 59.4347 85.1559 59.7326 83.506 59.7326Z" fill="white" fill-opacity="0.65"/>
<path d="M67.2739 59.4003V41.801H72.8768V59.4003H67.2739ZM70.0811 39.7501C69.2943 39.7501 68.6183 39.4904 68.0531 38.971C67.4878 38.4439 67.2052 37.8099 67.2052 37.069C67.2052 36.3357 67.4878 35.7093 68.0531 35.1899C68.6183 34.6628 69.2943 34.3993 70.0811 34.3993C70.8755 34.3993 71.5515 34.6628 72.1091 35.1899C72.6744 35.7093 72.957 36.3357 72.957 37.069C72.957 37.8099 72.6744 38.4439 72.1091 38.971C71.5515 39.4904 70.8755 39.7501 70.0811 39.7501Z" fill="white" fill-opacity="0.65"/>
<path d="M38.6502 35.9346H45.6739L51.6319 50.4632H51.9069L57.865 35.9346H64.8887V59.4003H59.366V44.9863H59.1712L53.5339 59.2513H50.0049L44.3677 44.9061H44.1729V59.4003H38.6502V35.9346Z" fill="white" fill-opacity="0.65"/>
<path d="M26.5923 49.4284C26.5923 50.9824 25.4691 52.2422 24.0836 52.2422C22.698 52.2422 21.5749 50.9824 21.5749 49.4284C21.5749 47.8745 22.698 46.6147 24.0836 46.6147C25.4691 46.6147 26.5923 47.8745 26.5923 49.4284Z" fill="white" fill-opacity="0.65"/>
<path d="M9.03133 39.0176C9.03133 40.5716 7.90813 41.8314 6.52263 41.8314C5.13712 41.8314 4.01392 40.5716 4.01392 39.0176C4.01392 37.4637 5.13712 36.2039 6.52263 36.2039C7.90813 36.2039 9.03133 37.4637 9.03133 39.0176Z" fill="white" fill-opacity="0.65"/>
<path fill-rule="evenodd" clip-rule="evenodd" d="M0 49.0734C0 45.85 1.18868 42.9073 3.1469 40.6694C3.39419 41.5389 3.96103 42.2716 4.71058 42.7291C3.33285 44.4668 2.5087 46.6727 2.5087 49.0734C2.5087 54.6785 7.00144 59.2224 12.5435 59.2224C17.0668 59.2224 20.8911 56.1957 22.1442 52.0354C22.7 52.4083 23.3667 52.6255 24.0836 52.6255C24.2589 52.6255 24.4312 52.6125 24.5996 52.5874C23.0929 57.8845 18.2657 61.7597 12.5435 61.7597C5.61593 61.7597 0 56.0798 0 49.0734ZM22.4054 50.9594C22.4298 50.8281 22.4517 50.6959 22.471 50.5629C23.3935 50.2281 24.2692 49.7941 25.0855 49.2736C25.0739 50.0291 24.9971 50.7687 24.8604 51.4866C24.6158 51.5671 24.3547 51.6106 24.0836 51.6106C23.4383 51.6106 22.8499 51.3642 22.4054 50.9594ZM4.59419 39.2595C4.687 40.1271 4.86063 40.9701 5.10732 41.7808C4.46864 41.3386 4.0424 40.6055 4.0153 39.7703C4.20301 39.5942 4.39607 39.4239 4.59419 39.2595Z" fill="white" fill-opacity="0.65"/>
<path fill-rule="evenodd" clip-rule="evenodd" d="M24.8599 42.9852L23.018 33L13.9388 33.5272L16.9277 36.1157L11.5188 49.7031L21.8711 40.3968L24.8599 42.9852Z" fill="white" fill-opacity="0.65"/>
<path d="M122.231 87L118.907 76.0909H120.668L123.026 84.4432H123.14L125.469 76.0909H127.259L129.56 84.4148H129.674L132.032 76.0909H133.793L130.469 87H128.822L126.435 78.6193H126.265L123.878 87H122.231ZM135.609 87V76.0909H137.285V87H135.609ZM136.461 74.2727C136.135 74.2727 135.853 74.1615 135.616 73.9389C135.384 73.7164 135.268 73.4489 135.268 73.1364C135.268 72.8239 135.384 72.5563 135.616 72.3338C135.853 72.1113 136.135 72 136.461 72C136.788 72 137.067 72.1113 137.299 72.3338C137.536 72.5563 137.655 72.8239 137.655 73.1364C137.655 73.4489 137.536 73.7164 137.299 73.9389C137.067 74.1615 136.788 74.2727 136.461 74.2727ZM144.7 76.0909V77.5114H139.046V76.0909H144.7ZM140.694 73.4773H142.37V83.875C142.37 84.3485 142.439 84.7036 142.576 84.9403C142.718 85.1723 142.898 85.3286 143.116 85.4091C143.338 85.4848 143.573 85.5227 143.819 85.5227C144.003 85.5227 144.155 85.5133 144.273 85.4943C144.392 85.4706 144.486 85.4517 144.557 85.4375L144.898 86.9432C144.785 86.9858 144.626 87.0284 144.423 87.071C144.219 87.1184 143.961 87.142 143.648 87.142C143.175 87.142 142.711 87.0402 142.256 86.8366C141.807 86.633 141.432 86.3229 141.134 85.9062C140.841 85.4896 140.694 84.964 140.694 84.3295V73.4773ZM148.731 80.4375V87H147.055V72.4545H148.731V77.7955H148.873C149.129 77.232 149.513 76.7846 150.024 76.4531C150.54 76.117 151.227 75.9489 152.084 75.9489C152.827 75.9489 153.478 76.098 154.037 76.3963C154.595 76.6899 155.029 77.142 155.336 77.7528C155.649 78.3589 155.805 79.1307 155.805 80.0682V87H154.129V80.1818C154.129 79.3153 153.904 78.6454 153.454 78.1719C153.009 77.6937 152.391 77.4545 151.601 77.4545C151.051 77.4545 150.559 77.5705 150.123 77.8026C149.692 78.0346 149.352 78.3731 149.101 78.8182C148.854 79.2633 148.731 79.803 148.731 80.4375ZM171.424 78.5341L169.918 78.9602C169.823 78.7093 169.684 78.4654 169.499 78.2287C169.319 77.9872 169.073 77.7884 168.761 77.6321C168.448 77.4759 168.048 77.3977 167.56 77.3977C166.893 77.3977 166.336 77.5516 165.891 77.8594C165.451 78.1624 165.231 78.5483 165.231 79.017C165.231 79.4337 165.382 79.7628 165.685 80.0043C165.988 80.2457 166.462 80.447 167.106 80.608L168.725 81.0057C169.7 81.2424 170.427 81.6046 170.905 82.0923C171.384 82.5753 171.623 83.1979 171.623 83.9602C171.623 84.5852 171.443 85.1439 171.083 85.6364C170.728 86.1288 170.231 86.517 169.591 86.8011C168.952 87.0852 168.209 87.2273 167.361 87.2273C166.249 87.2273 165.328 86.9858 164.599 86.5028C163.869 86.0199 163.408 85.3144 163.214 84.3864L164.805 83.9886C164.956 84.5758 165.243 85.0161 165.664 85.3097C166.09 85.6032 166.646 85.75 167.333 85.75C168.114 85.75 168.734 85.5843 169.194 85.2528C169.658 84.9167 169.89 84.5142 169.89 84.0455C169.89 83.6667 169.757 83.3494 169.492 83.0938C169.227 82.8333 168.82 82.6392 168.27 82.5114L166.452 82.0852C165.453 81.8485 164.719 81.4815 164.251 80.9844C163.787 80.4825 163.555 79.8551 163.555 79.1023C163.555 78.4867 163.727 77.9422 164.073 77.4688C164.423 76.9953 164.899 76.6236 165.501 76.3537C166.107 76.0838 166.793 75.9489 167.56 75.9489C168.64 75.9489 169.487 76.1856 170.103 76.6591C170.723 77.1326 171.163 77.7576 171.424 78.5341ZM175.422 80.4375V87H173.746V72.4545H175.422V77.7955H175.564C175.82 77.232 176.203 76.7846 176.715 76.4531C177.231 76.117 177.917 75.9489 178.774 75.9489C179.518 75.9489 180.169 76.098 180.727 76.3963C181.286 76.6899 181.719 77.142 182.027 77.7528C182.34 78.3589 182.496 79.1307 182.496 80.0682V87H180.82V80.1818C180.82 79.3153 180.595 78.6454 180.145 78.1719C179.7 77.6937 179.082 77.4545 178.291 77.4545C177.742 77.4545 177.25 77.5705 176.814 77.8026C176.383 78.0346 176.042 78.3731 175.791 78.8182C175.545 79.2633 175.422 79.803 175.422 80.4375ZM188.372 87.2557C187.681 87.2557 187.054 87.1255 186.49 86.8651C185.927 86.5999 185.479 86.2188 185.148 85.7216C184.817 85.2197 184.651 84.6136 184.651 83.9034C184.651 83.2784 184.774 82.7718 185.02 82.3835C185.266 81.9905 185.595 81.6828 186.007 81.4602C186.419 81.2377 186.874 81.072 187.371 80.9631C187.873 80.8494 188.377 80.7595 188.884 80.6932C189.547 80.608 190.084 80.544 190.496 80.5014C190.913 80.4541 191.216 80.3759 191.405 80.267C191.599 80.1581 191.696 79.9687 191.696 79.6989V79.642C191.696 78.9413 191.505 78.3968 191.121 78.0085C190.742 77.6203 190.167 77.4261 189.395 77.4261C188.595 77.4261 187.968 77.6013 187.513 77.9517C187.059 78.3021 186.739 78.6761 186.554 79.0739L184.963 78.5057C185.247 77.8428 185.626 77.3267 186.1 76.9574C186.578 76.5833 187.099 76.3229 187.662 76.1761C188.23 76.0246 188.789 75.9489 189.338 75.9489C189.689 75.9489 190.091 75.9915 190.546 76.0767C191.005 76.1572 191.448 76.3253 191.874 76.581C192.305 76.8366 192.662 77.2225 192.946 77.7386C193.23 78.2547 193.372 78.946 193.372 79.8125V87H191.696V85.5227H191.611C191.497 85.7595 191.308 86.0128 191.043 86.2827C190.778 86.5526 190.425 86.7822 189.985 86.9716C189.544 87.161 189.007 87.2557 188.372 87.2557ZM188.628 85.75C189.291 85.75 189.85 85.6198 190.304 85.3594C190.764 85.099 191.109 84.7628 191.341 84.3509C191.578 83.9389 191.696 83.5057 191.696 83.0511V81.517C191.625 81.6023 191.469 81.6804 191.228 81.7514C190.991 81.8177 190.716 81.8769 190.404 81.929C190.096 81.9763 189.795 82.0189 189.502 82.0568C189.213 82.09 188.979 82.1184 188.799 82.142C188.363 82.1989 187.956 82.2912 187.577 82.419C187.203 82.5421 186.9 82.7292 186.668 82.9801C186.441 83.2263 186.327 83.5625 186.327 83.9886C186.327 84.571 186.542 85.0114 186.973 85.3097C187.409 85.6032 187.961 85.75 188.628 85.75ZM196.032 87V76.0909H197.651V77.7386H197.765C197.964 77.1989 198.323 76.7609 198.844 76.4247C199.365 76.0885 199.952 75.9205 200.606 75.9205C200.729 75.9205 200.883 75.9228 201.067 75.9276C201.252 75.9323 201.392 75.9394 201.486 75.9489V77.6534C201.429 77.6392 201.299 77.6179 201.096 77.5895C200.897 77.5563 200.686 77.5398 200.464 77.5398C199.933 77.5398 199.46 77.651 199.043 77.8736C198.631 78.0914 198.304 78.3944 198.063 78.7827C197.826 79.1662 197.708 79.6042 197.708 80.0966V87H196.032ZM207.315 87.2273C206.264 87.2273 205.357 86.9953 204.595 86.5312C203.837 86.0625 203.252 85.4091 202.841 84.571C202.433 83.7282 202.23 82.7481 202.23 81.6307C202.23 80.5133 202.433 79.5284 202.841 78.6761C203.252 77.8191 203.825 77.1515 204.559 76.6733C205.298 76.1903 206.16 75.9489 207.145 75.9489C207.713 75.9489 208.274 76.0436 208.828 76.233C209.382 76.4223 209.886 76.7301 210.341 77.1562C210.795 77.5777 211.157 78.1364 211.427 78.8324C211.697 79.5284 211.832 80.3854 211.832 81.4034V82.1136H203.423V80.6648H210.127C210.127 80.0492 210.004 79.5 209.758 79.017C209.517 78.5341 209.171 78.1529 208.721 77.8736C208.276 77.5942 207.751 77.4545 207.145 77.4545C206.477 77.4545 205.899 77.6203 205.412 77.9517C204.929 78.2784 204.557 78.7045 204.297 79.2301C204.036 79.7557 203.906 80.3191 203.906 80.9205V81.8864C203.906 82.7102 204.048 83.4086 204.332 83.9815C204.621 84.5497 205.021 84.983 205.532 85.2812C206.044 85.5748 206.638 85.7216 207.315 85.7216C207.755 85.7216 208.153 85.66 208.508 85.5369C208.868 85.4091 209.178 85.2197 209.439 84.9688C209.699 84.7131 209.9 84.3958 210.042 84.017L211.662 84.4716C211.491 85.0208 211.205 85.5038 210.802 85.9205C210.4 86.3324 209.903 86.6544 209.311 86.8864C208.719 87.1136 208.054 87.2273 207.315 87.2273ZM218.101 87.2273C217.192 87.2273 216.389 86.9976 215.693 86.5384C214.997 86.0743 214.453 85.4209 214.06 84.5781C213.667 83.7306 213.47 82.7292 213.47 81.5739C213.47 80.428 213.667 79.4337 214.06 78.5909C214.453 77.7481 215 77.0971 215.7 76.6378C216.401 76.1785 217.211 75.9489 218.129 75.9489C218.84 75.9489 219.401 76.0672 219.813 76.304C220.229 76.536 220.547 76.8011 220.764 77.0994C220.987 77.393 221.16 77.6345 221.283 77.8239H221.425V72.4545H223.101V87H221.482V85.3239H221.283C221.16 85.5227 220.985 85.7737 220.757 86.0767C220.53 86.375 220.206 86.6425 219.784 86.8793C219.363 87.1113 218.802 87.2273 218.101 87.2273ZM218.328 85.7216C219.001 85.7216 219.569 85.5464 220.033 85.196C220.497 84.8409 220.85 84.3509 221.091 83.7259C221.333 83.0961 221.453 82.3693 221.453 81.5455C221.453 80.7311 221.335 80.0185 221.098 79.4077C220.861 78.7921 220.511 78.3139 220.047 77.973C219.583 77.6274 219.01 77.4545 218.328 77.4545C217.618 77.4545 217.026 77.6368 216.553 78.0014C216.084 78.3613 215.731 78.8513 215.495 79.4716C215.263 80.0871 215.147 80.7784 215.147 81.5455C215.147 82.322 215.265 83.0275 215.502 83.6619C215.743 84.2917 216.098 84.7936 216.567 85.1676C217.04 85.5369 217.628 85.7216 218.328 85.7216ZM235.973 76.0909V77.5114H230.32V76.0909H235.973ZM231.967 73.4773H233.643V83.875C233.643 84.3485 233.712 84.7036 233.849 84.9403C233.991 85.1723 234.171 85.3286 234.389 85.4091C234.612 85.4848 234.846 85.5227 235.092 85.5227C235.277 85.5227 235.428 85.5133 235.547 85.4943C235.665 85.4706 235.76 85.4517 235.831 85.4375L236.172 86.9432C236.058 86.9858 235.9 87.0284 235.696 87.071C235.492 87.1184 235.234 87.142 234.922 87.142C234.448 87.142 233.984 87.0402 233.53 86.8366C233.08 86.633 232.706 86.3229 232.408 85.9062C232.114 85.4896 231.967 84.964 231.967 84.3295V73.4773ZM242.551 87.2273C241.5 87.2273 240.593 86.9953 239.831 86.5312C239.073 86.0625 238.488 85.4091 238.076 84.571C237.669 83.7282 237.466 82.7481 237.466 81.6307C237.466 80.5133 237.669 79.5284 238.076 78.6761C238.488 77.8191 239.061 77.1515 239.795 76.6733C240.534 76.1903 241.396 75.9489 242.38 75.9489C242.949 75.9489 243.51 76.0436 244.064 76.233C244.618 76.4223 245.122 76.7301 245.576 77.1562C246.031 77.5777 246.393 78.1364 246.663 78.8324C246.933 79.5284 247.068 80.3854 247.068 81.4034V82.1136H238.659V80.6648H245.363C245.363 80.0492 245.24 79.5 244.994 79.017C244.753 78.5341 244.407 78.1529 243.957 77.8736C243.512 77.5942 242.987 77.4545 242.38 77.4545C241.713 77.4545 241.135 77.6203 240.648 77.9517C240.165 78.2784 239.793 78.7045 239.532 79.2301C239.272 79.7557 239.142 80.3191 239.142 80.9205V81.8864C239.142 82.7102 239.284 83.4086 239.568 83.9815C239.857 84.5497 240.257 84.983 240.768 85.2812C241.28 85.5748 241.874 85.7216 242.551 85.7216C242.991 85.7216 243.389 85.66 243.744 85.5369C244.104 85.4091 244.414 85.2197 244.675 84.9688C244.935 84.7131 245.136 84.3958 245.278 84.017L246.898 84.4716C246.727 85.0208 246.441 85.5038 246.038 85.9205C245.636 86.3324 245.139 86.6544 244.547 86.8864C243.955 87.1136 243.29 87.2273 242.551 87.2273ZM253.65 87.2273C252.627 87.2273 251.746 86.9858 251.007 86.5028C250.269 86.0199 249.701 85.3546 249.303 84.5071C248.905 83.6596 248.706 82.6913 248.706 81.6023C248.706 80.4943 248.91 79.5166 249.317 78.669C249.729 77.8168 250.302 77.1515 251.036 76.6733C251.775 76.1903 252.636 75.9489 253.621 75.9489C254.388 75.9489 255.079 76.0909 255.695 76.375C256.31 76.6591 256.815 77.0568 257.208 77.5682C257.601 78.0795 257.845 78.6761 257.939 79.358H256.263C256.135 78.8608 255.851 78.4205 255.411 78.0369C254.975 77.6487 254.388 77.4545 253.65 77.4545C252.996 77.4545 252.423 77.625 251.931 77.9659C251.443 78.3021 251.062 78.7779 250.787 79.3935C250.517 80.0043 250.382 80.7216 250.382 81.5455C250.382 82.3883 250.515 83.1222 250.78 83.7472C251.05 84.3722 251.429 84.8575 251.917 85.2031C252.409 85.5488 252.987 85.7216 253.65 85.7216C254.085 85.7216 254.48 85.6458 254.836 85.4943C255.191 85.3428 255.491 85.125 255.738 84.8409C255.984 84.5568 256.159 84.2159 256.263 83.8182H257.939C257.845 84.4621 257.61 85.0421 257.236 85.5582C256.867 86.0696 256.377 86.4768 255.766 86.7798C255.16 87.0781 254.454 87.2273 253.65 87.2273ZM261.666 80.4375V87H259.99V72.4545H261.666V77.7955H261.808C262.063 77.232 262.447 76.7846 262.958 76.4531C263.474 76.117 264.161 75.9489 265.018 75.9489C265.761 75.9489 266.412 76.098 266.971 76.3963C267.53 76.6899 267.963 77.142 268.271 77.7528C268.583 78.3589 268.74 79.1307 268.74 80.0682V87H267.063V80.1818C267.063 79.3153 266.839 78.6454 266.389 78.1719C265.944 77.6937 265.326 77.4545 264.535 77.4545C263.986 77.4545 263.493 77.5705 263.058 77.8026C262.627 78.0346 262.286 78.3731 262.035 78.8182C261.789 79.2633 261.666 79.803 261.666 80.4375ZM273.082 80.4375V87H271.406V76.0909H273.025V77.7955H273.167C273.423 77.2415 273.811 76.7964 274.332 76.4602C274.853 76.1193 275.525 75.9489 276.349 75.9489C277.088 75.9489 277.734 76.1004 278.288 76.4034C278.842 76.7017 279.273 77.1562 279.581 77.767C279.888 78.3731 280.042 79.1402 280.042 80.0682V87H278.366V80.1818C278.366 79.3248 278.144 78.6572 277.699 78.179C277.254 77.696 276.643 77.4545 275.866 77.4545C275.331 77.4545 274.853 77.5705 274.432 77.8026C274.015 78.0346 273.686 78.3731 273.444 78.8182C273.203 79.2633 273.082 79.803 273.082 80.4375ZM287.137 87.2273C286.152 87.2273 285.288 86.9929 284.545 86.5241C283.806 86.0554 283.228 85.3996 282.812 84.5568C282.4 83.714 282.194 82.7292 282.194 81.6023C282.194 80.4659 282.4 79.474 282.812 78.6264C283.228 77.7789 283.806 77.1207 284.545 76.652C285.288 76.1832 286.152 75.9489 287.137 75.9489C288.122 75.9489 288.984 76.1832 289.722 76.652C290.466 77.1207 291.043 77.7789 291.455 78.6264C291.872 79.474 292.08 80.4659 292.08 81.6023C292.08 82.7292 291.872 83.714 291.455 84.5568C291.043 85.3996 290.466 86.0554 289.722 86.5241C288.984 86.9929 288.122 87.2273 287.137 87.2273ZM287.137 85.7216C287.885 85.7216 288.501 85.5298 288.984 85.1463C289.467 84.7628 289.824 84.2585 290.056 83.6335C290.288 83.0085 290.404 82.3314 290.404 81.6023C290.404 80.8731 290.288 80.1937 290.056 79.5639C289.824 78.9342 289.467 78.4252 288.984 78.0369C288.501 77.6487 287.885 77.4545 287.137 77.4545C286.389 77.4545 285.773 77.6487 285.29 78.0369C284.807 78.4252 284.45 78.9342 284.218 79.5639C283.986 80.1937 283.87 80.8731 283.87 81.6023C283.87 82.3314 283.986 83.0085 284.218 83.6335C284.45 84.2585 284.807 84.7628 285.29 85.1463C285.773 85.5298 286.389 85.7216 287.137 85.7216ZM295.915 72.4545V87H294.239V72.4545H295.915ZM303.017 87.2273C302.032 87.2273 301.168 86.9929 300.424 86.5241C299.686 86.0554 299.108 85.3996 298.691 84.5568C298.279 83.714 298.074 82.7292 298.074 81.6023C298.074 80.4659 298.279 79.474 298.691 78.6264C299.108 77.7789 299.686 77.1207 300.424 76.652C301.168 76.1832 302.032 75.9489 303.017 75.9489C304.002 75.9489 304.863 76.1832 305.602 76.652C306.345 77.1207 306.923 77.7789 307.335 78.6264C307.752 79.474 307.96 80.4659 307.96 81.6023C307.96 82.7292 307.752 83.714 307.335 84.5568C306.923 85.3996 306.345 86.0554 305.602 86.5241C304.863 86.9929 304.002 87.2273 303.017 87.2273ZM303.017 85.7216C303.765 85.7216 304.38 85.5298 304.863 85.1463C305.346 84.7628 305.704 84.2585 305.936 83.6335C306.168 83.0085 306.284 82.3314 306.284 81.6023C306.284 80.8731 306.168 80.1937 305.936 79.5639C305.704 78.9342 305.346 78.4252 304.863 78.0369C304.38 77.6487 303.765 77.4545 303.017 77.4545C302.269 77.4545 301.653 77.6487 301.17 78.0369C300.687 78.4252 300.33 78.9342 300.098 79.5639C299.866 80.1937 299.75 80.8731 299.75 81.6023C299.75 82.3314 299.866 83.0085 300.098 83.6335C300.33 84.2585 300.687 84.7628 301.17 85.1463C301.653 85.5298 302.269 85.7216 303.017 85.7216ZM314.522 91.3182C313.712 91.3182 313.016 91.214 312.434 91.0057C311.851 90.8021 311.366 90.5322 310.978 90.196C310.594 89.8646 310.289 89.5095 310.062 89.1307L311.397 88.1932C311.548 88.392 311.74 88.6193 311.972 88.875C312.204 89.1354 312.521 89.3603 312.924 89.5497C313.331 89.7438 313.864 89.8409 314.522 89.8409C315.403 89.8409 316.129 89.6278 316.702 89.2017C317.275 88.7756 317.562 88.108 317.562 87.1989V84.983H317.42C317.297 85.1818 317.121 85.428 316.894 85.7216C316.672 86.0104 316.35 86.2685 315.928 86.4957C315.511 86.7183 314.948 86.8295 314.238 86.8295C313.357 86.8295 312.566 86.6212 311.866 86.2045C311.17 85.7879 310.618 85.1818 310.211 84.3864C309.808 83.5909 309.607 82.625 309.607 81.4886C309.607 80.3712 309.804 79.3982 310.197 78.5696C310.59 77.7363 311.136 77.0923 311.837 76.6378C312.538 76.1785 313.348 75.9489 314.266 75.9489C314.976 75.9489 315.54 76.0672 315.957 76.304C316.378 76.536 316.7 76.8011 316.922 77.0994C317.15 77.393 317.325 77.6345 317.448 77.8239H317.618V76.0909H319.238V87.3125C319.238 88.25 319.025 89.0123 318.599 89.5994C318.177 90.1913 317.609 90.6245 316.894 90.8991C316.184 91.1785 315.393 91.3182 314.522 91.3182ZM314.465 85.3239C315.137 85.3239 315.706 85.17 316.17 84.8622C316.634 84.5545 316.986 84.1117 317.228 83.5341C317.469 82.9564 317.59 82.2652 317.59 81.4602C317.59 80.6742 317.472 79.9806 317.235 79.3793C316.998 78.7779 316.648 78.3068 316.184 77.9659C315.72 77.625 315.147 77.4545 314.465 77.4545C313.755 77.4545 313.163 77.6345 312.689 77.9943C312.221 78.3542 311.868 78.8371 311.631 79.4432C311.399 80.0492 311.283 80.7216 311.283 81.4602C311.283 82.2178 311.402 82.8878 311.638 83.4702C311.88 84.0478 312.235 84.5024 312.704 84.8338C313.177 85.1605 313.764 85.3239 314.465 85.3239ZM321.906 87V76.0909H323.582V87H321.906ZM322.758 74.2727C322.432 74.2727 322.15 74.1615 321.913 73.9389C321.681 73.7164 321.565 73.4489 321.565 73.1364C321.565 72.8239 321.681 72.5563 321.913 72.3338C322.15 72.1113 322.432 72 322.758 72C323.085 72 323.364 72.1113 323.596 72.3338C323.833 72.5563 323.951 72.8239 323.951 73.1364C323.951 73.4489 323.833 73.7164 323.596 73.9389C323.364 74.1615 323.085 74.2727 322.758 74.2727ZM330.826 87.2273C329.775 87.2273 328.868 86.9953 328.106 86.5312C327.348 86.0625 326.763 85.4091 326.351 84.571C325.944 83.7282 325.741 82.7481 325.741 81.6307C325.741 80.5133 325.944 79.5284 326.351 78.6761C326.763 77.8191 327.336 77.1515 328.07 76.6733C328.809 76.1903 329.671 75.9489 330.655 75.9489C331.224 75.9489 331.785 76.0436 332.339 76.233C332.893 76.4223 333.397 76.7301 333.851 77.1562C334.306 77.5777 334.668 78.1364 334.938 78.8324C335.208 79.5284 335.343 80.3854 335.343 81.4034V82.1136H326.934V80.6648H333.638C333.638 80.0492 333.515 79.5 333.269 79.017C333.028 78.5341 332.682 78.1529 332.232 77.8736C331.787 77.5942 331.262 77.4545 330.655 77.4545C329.988 77.4545 329.41 77.6203 328.923 77.9517C328.44 78.2784 328.068 78.7045 327.807 79.2301C327.547 79.7557 327.417 80.3191 327.417 80.9205V81.8864C327.417 82.7102 327.559 83.4086 327.843 83.9815C328.132 84.5497 328.532 84.983 329.043 85.2812C329.555 85.5748 330.149 85.7216 330.826 85.7216C331.266 85.7216 331.664 85.66 332.019 85.5369C332.379 85.4091 332.689 85.2197 332.95 84.9688C333.21 84.7131 333.411 84.3958 333.553 84.017L335.173 84.4716C335.002 85.0208 334.716 85.5038 334.313 85.9205C333.911 86.3324 333.414 86.6544 332.822 86.8864C332.23 87.1136 331.565 87.2273 330.826 87.2273ZM345.22 78.5341L343.714 78.9602C343.62 78.7093 343.48 78.4654 343.295 78.2287C343.115 77.9872 342.869 77.7884 342.557 77.6321C342.244 77.4759 341.844 77.3977 341.356 77.3977C340.689 77.3977 340.132 77.5516 339.687 77.8594C339.247 78.1624 339.027 78.5483 339.027 79.017C339.027 79.4337 339.178 79.7628 339.481 80.0043C339.784 80.2457 340.258 80.447 340.902 80.608L342.521 81.0057C343.496 81.2424 344.223 81.6046 344.701 82.0923C345.18 82.5753 345.419 83.1979 345.419 83.9602C345.419 84.5852 345.239 85.1439 344.879 85.6364C344.524 86.1288 344.027 86.517 343.388 86.8011C342.748 87.0852 342.005 87.2273 341.157 87.2273C340.045 87.2273 339.124 86.9858 338.395 86.5028C337.666 86.0199 337.204 85.3144 337.01 84.3864L338.601 83.9886C338.752 84.5758 339.039 85.0161 339.46 85.3097C339.886 85.6032 340.442 85.75 341.129 85.75C341.91 85.75 342.531 85.5843 342.99 85.2528C343.454 84.9167 343.686 84.5142 343.686 84.0455C343.686 83.6667 343.553 83.3494 343.288 83.0938C343.023 82.8333 342.616 82.6392 342.067 82.5114L340.248 82.0852C339.249 81.8485 338.515 81.4815 338.047 80.9844C337.583 80.4825 337.351 79.8551 337.351 79.1023C337.351 78.4867 337.523 77.9422 337.869 77.4688C338.219 76.9953 338.695 76.6236 339.297 76.3537C339.903 76.0838 340.589 75.9489 341.356 75.9489C342.436 75.9489 343.283 76.1856 343.899 76.6591C344.519 77.1326 344.96 77.7576 345.22 78.5341Z" fill="white" fill-opacity="0.45"/>
</svg>
