<svg width="635" height="299" viewBox="0 0 635 299" fill="none" xmlns="http://www.w3.org/2000/svg">
<g filter="url(#filter0_b_1515_773)">
<path d="M0.5 16C0.5 7.43958 7.43959 0.5 16 0.5H619C627.56 0.5 634.5 7.43959 634.5 16V283C634.5 291.56 627.56 298.5 619 298.5H16C7.43959 298.5 0.5 291.56 0.5 283V16Z" fill="url(#paint0_linear_1515_773)"/>
<path d="M0.5 16C0.5 7.43958 7.43959 0.5 16 0.5H619C627.56 0.5 634.5 7.43959 634.5 16V283C634.5 291.56 627.56 298.5 619 298.5H16C7.43959 298.5 0.5 291.56 0.5 283V16Z" fill="url(#paint1_radial_1515_773)" fill-opacity="0.2"/>
<path d="M0.5 16C0.5 7.43958 7.43959 0.5 16 0.5H619C627.56 0.5 634.5 7.43959 634.5 16V283C634.5 291.56 627.56 298.5 619 298.5H16C7.43959 298.5 0.5 291.56 0.5 283V16Z" stroke="url(#paint2_linear_1515_773)"/>
<path d="M0.5 16C0.5 7.43958 7.43959 0.5 16 0.5H619C627.56 0.5 634.5 7.43959 634.5 16V283C634.5 291.56 627.56 298.5 619 298.5H16C7.43959 298.5 0.5 291.56 0.5 283V16Z" stroke="url(#paint3_radial_1515_773)" stroke-opacity="0.2"/>
<mask id="mask0_1515_773" style="mask-type:alpha" maskUnits="userSpaceOnUse" x="0" y="0" width="635" height="299">
<path d="M0.5 16C0.5 7.43958 7.43959 0.5 16 0.5H619C627.56 0.5 634.5 7.43959 634.5 16V283C634.5 291.56 627.56 298.5 619 298.5H16C7.43959 298.5 0.5 291.56 0.5 283V16Z" fill="url(#paint4_radial_1515_773)" stroke="url(#paint5_linear_1515_773)"/>
</mask>
<g mask="url(#mask0_1515_773)">
<g filter="url(#filter1_b_1515_773)">
<rect x="132.822" y="205.565" width="369.778" height="67.5991" rx="11.5" stroke="url(#paint6_linear_1515_773)"/>
</g>
<g filter="url(#filter2_b_1515_773)">
<rect x="132.822" y="-41.7998" width="369.778" height="67.5991" rx="11.5" stroke="url(#paint7_linear_1515_773)"/>
</g>
</g>
</g>
<rect opacity="0.22" x="112.814" y="62.354" width="404.686" height="106.475" rx="23.5" stroke="#C59C9C"/>
<rect opacity="0.1" x="94.5574" y="43.7329" width="441.199" height="140.374" rx="31.5" stroke="#E8E8E8"/>
<g filter="url(#filter3_bd_1515_773)">
<rect x="132.322" y="80" width="367.477" height="67.9883" rx="16" fill="#12161A"/>
<rect x="131.822" y="79.5" width="368.477" height="68.9883" rx="16.5" stroke="url(#paint8_linear_1515_773)"/>
<rect x="131.822" y="79.5" width="368.477" height="68.9883" rx="16.5" stroke="#FF0000"/>
</g>
<path fill-rule="evenodd" clip-rule="evenodd" d="M184.661 157.236L179.217 164.253H161.44C157.022 164.253 153.44 167.835 153.44 172.253V182.163C153.44 186.581 157.022 190.163 161.44 190.163H400C404.418 190.163 408 186.581 408 182.163V172.253C408 167.835 404.418 164.253 400 164.253H190.104L184.661 157.236Z" fill="#FE4929"/>
<path d="M167.057 181V172.273H170.006C170.69 172.273 171.25 172.396 171.685 172.643C172.122 172.888 172.446 173.219 172.656 173.636C172.866 174.054 172.972 174.52 172.972 175.034C172.972 175.548 172.866 176.016 172.656 176.436C172.449 176.857 172.128 177.192 171.693 177.442C171.259 177.689 170.702 177.812 170.023 177.812H167.909V176.875H169.989C170.457 176.875 170.834 176.794 171.118 176.632C171.402 176.47 171.608 176.251 171.736 175.976C171.866 175.697 171.932 175.384 171.932 175.034C171.932 174.685 171.866 174.372 171.736 174.097C171.608 173.821 171.401 173.605 171.114 173.449C170.827 173.29 170.446 173.21 169.972 173.21H168.114V181H167.057ZM177.212 181.136C176.581 181.136 176.037 180.997 175.58 180.719C175.125 180.438 174.774 180.045 174.527 179.543C174.283 179.037 174.161 178.449 174.161 177.778C174.161 177.108 174.283 176.517 174.527 176.006C174.774 175.491 175.118 175.091 175.558 174.804C176.001 174.514 176.518 174.369 177.109 174.369C177.45 174.369 177.787 174.426 178.119 174.54C178.452 174.653 178.754 174.838 179.027 175.094C179.3 175.347 179.517 175.682 179.679 176.099C179.841 176.517 179.922 177.031 179.922 177.642V178.068H174.876V177.199H178.899C178.899 176.83 178.825 176.5 178.678 176.21C178.533 175.92 178.325 175.692 178.055 175.524C177.788 175.357 177.473 175.273 177.109 175.273C176.709 175.273 176.362 175.372 176.07 175.571C175.78 175.767 175.557 176.023 175.401 176.338C175.244 176.653 175.166 176.991 175.166 177.352V177.932C175.166 178.426 175.251 178.845 175.422 179.189C175.595 179.53 175.835 179.79 176.142 179.969C176.449 180.145 176.805 180.233 177.212 180.233C177.476 180.233 177.714 180.196 177.928 180.122C178.143 180.045 178.33 179.932 178.486 179.781C178.642 179.628 178.763 179.437 178.848 179.21L179.82 179.483C179.717 179.812 179.545 180.102 179.304 180.352C179.063 180.599 178.764 180.793 178.409 180.932C178.054 181.068 177.655 181.136 177.212 181.136ZM181.452 181V174.455H182.423V175.443H182.491C182.611 175.119 182.827 174.857 183.139 174.655C183.452 174.453 183.804 174.352 184.196 174.352C184.27 174.352 184.362 174.354 184.473 174.357C184.584 174.359 184.668 174.364 184.724 174.369V175.392C184.69 175.384 184.612 175.371 184.49 175.354C184.371 175.334 184.244 175.324 184.111 175.324C183.793 175.324 183.509 175.391 183.259 175.524C183.011 175.655 182.815 175.837 182.67 176.07C182.528 176.3 182.457 176.562 182.457 176.858V181H181.452ZM190.553 175.92L189.65 176.176C189.593 176.026 189.509 175.879 189.398 175.737C189.29 175.592 189.142 175.473 188.955 175.379C188.767 175.286 188.527 175.239 188.235 175.239C187.834 175.239 187.5 175.331 187.233 175.516C186.969 175.697 186.837 175.929 186.837 176.21C186.837 176.46 186.928 176.658 187.11 176.803C187.292 176.947 187.576 177.068 187.962 177.165L188.934 177.403C189.519 177.545 189.955 177.763 190.242 178.055C190.529 178.345 190.672 178.719 190.672 179.176C190.672 179.551 190.564 179.886 190.348 180.182C190.135 180.477 189.837 180.71 189.453 180.881C189.07 181.051 188.624 181.136 188.115 181.136C187.448 181.136 186.895 180.991 186.458 180.702C186.02 180.412 185.743 179.989 185.627 179.432L186.581 179.193C186.672 179.545 186.844 179.81 187.097 179.986C187.353 180.162 187.686 180.25 188.098 180.25C188.567 180.25 188.939 180.151 189.215 179.952C189.493 179.75 189.632 179.509 189.632 179.227C189.632 179 189.553 178.81 189.394 178.656C189.235 178.5 188.99 178.384 188.661 178.307L187.57 178.051C186.971 177.909 186.53 177.689 186.249 177.391C185.971 177.089 185.831 176.713 185.831 176.261C185.831 175.892 185.935 175.565 186.142 175.281C186.353 174.997 186.638 174.774 186.999 174.612C187.363 174.45 187.775 174.369 188.235 174.369C188.882 174.369 189.391 174.511 189.76 174.795C190.132 175.08 190.397 175.455 190.553 175.92ZM194.845 181.136C194.254 181.136 193.736 180.996 193.29 180.714C192.847 180.433 192.5 180.04 192.25 179.534C192.003 179.028 191.879 178.437 191.879 177.761C191.879 177.08 192.003 176.484 192.25 175.976C192.5 175.467 192.847 175.072 193.29 174.791C193.736 174.51 194.254 174.369 194.845 174.369C195.436 174.369 195.953 174.51 196.396 174.791C196.842 175.072 197.189 175.467 197.436 175.976C197.686 176.484 197.811 177.08 197.811 177.761C197.811 178.437 197.686 179.028 197.436 179.534C197.189 180.04 196.842 180.433 196.396 180.714C195.953 180.996 195.436 181.136 194.845 181.136ZM194.845 180.233C195.294 180.233 195.663 180.118 195.953 179.888C196.243 179.658 196.457 179.355 196.597 178.98C196.736 178.605 196.805 178.199 196.805 177.761C196.805 177.324 196.736 176.916 196.597 176.538C196.457 176.161 196.243 175.855 195.953 175.622C195.663 175.389 195.294 175.273 194.845 175.273C194.396 175.273 194.027 175.389 193.737 175.622C193.447 175.855 193.233 176.161 193.094 176.538C192.955 176.916 192.885 177.324 192.885 177.761C192.885 178.199 192.955 178.605 193.094 178.98C193.233 179.355 193.447 179.658 193.737 179.888C194.027 180.118 194.396 180.233 194.845 180.233ZM200.352 177.062V181H199.346V174.455H200.318V175.477H200.403C200.556 175.145 200.789 174.878 201.102 174.676C201.414 174.472 201.818 174.369 202.312 174.369C202.755 174.369 203.143 174.46 203.475 174.642C203.808 174.821 204.066 175.094 204.251 175.46C204.436 175.824 204.528 176.284 204.528 176.841V181H203.522V176.909C203.522 176.395 203.389 175.994 203.122 175.707C202.855 175.418 202.488 175.273 202.022 175.273C201.701 175.273 201.414 175.342 201.162 175.482C200.912 175.621 200.714 175.824 200.569 176.091C200.424 176.358 200.352 176.682 200.352 177.062ZM208.292 181.153C207.877 181.153 207.501 181.075 207.163 180.919C206.825 180.76 206.556 180.531 206.357 180.233C206.158 179.932 206.059 179.568 206.059 179.142C206.059 178.767 206.133 178.463 206.281 178.23C206.428 177.994 206.626 177.81 206.873 177.676C207.12 177.543 207.393 177.443 207.691 177.378C207.992 177.31 208.295 177.256 208.599 177.216C208.996 177.165 209.319 177.126 209.566 177.101C209.816 177.072 209.998 177.026 210.112 176.96C210.228 176.895 210.286 176.781 210.286 176.619V176.585C210.286 176.165 210.171 175.838 209.941 175.605C209.714 175.372 209.369 175.256 208.906 175.256C208.425 175.256 208.049 175.361 207.776 175.571C207.504 175.781 207.312 176.006 207.201 176.244L206.246 175.903C206.417 175.506 206.644 175.196 206.928 174.974C207.215 174.75 207.528 174.594 207.866 174.506C208.207 174.415 208.542 174.369 208.871 174.369C209.082 174.369 209.323 174.395 209.596 174.446C209.871 174.494 210.137 174.595 210.393 174.749C210.651 174.902 210.866 175.134 211.036 175.443C211.207 175.753 211.292 176.168 211.292 176.688V181H210.286V180.114H210.235C210.167 180.256 210.053 180.408 209.894 180.57C209.735 180.732 209.523 180.869 209.259 180.983C208.995 181.097 208.673 181.153 208.292 181.153ZM208.445 180.25C208.843 180.25 209.178 180.172 209.451 180.016C209.727 179.859 209.934 179.658 210.073 179.411C210.215 179.163 210.286 178.903 210.286 178.631V177.71C210.244 177.761 210.15 177.808 210.005 177.851C209.863 177.891 209.698 177.926 209.511 177.957C209.326 177.986 209.146 178.011 208.969 178.034C208.796 178.054 208.656 178.071 208.548 178.085C208.286 178.119 208.042 178.175 207.815 178.251C207.59 178.325 207.408 178.437 207.269 178.588C207.133 178.736 207.065 178.937 207.065 179.193C207.065 179.543 207.194 179.807 207.452 179.986C207.714 180.162 208.045 180.25 208.445 180.25ZM214.133 172.273V181H213.127V172.273H214.133ZM219.487 181V172.273H224.754V173.21H220.543V176.159H224.481V177.097H220.543V180.062H224.822V181H219.487ZM227.528 177.062V181H226.522V174.455H227.494V175.477H227.579C227.732 175.145 227.965 174.878 228.278 174.676C228.59 174.472 228.994 174.369 229.488 174.369C229.931 174.369 230.319 174.46 230.651 174.642C230.984 174.821 231.242 175.094 231.427 175.46C231.612 175.824 231.704 176.284 231.704 176.841V181H230.698V176.909C230.698 176.395 230.565 175.994 230.298 175.707C230.031 175.418 229.664 175.273 229.198 175.273C228.877 175.273 228.59 175.342 228.337 175.482C228.087 175.621 227.89 175.824 227.745 176.091C227.6 176.358 227.528 176.682 227.528 177.062ZM236.388 174.455V175.307H232.996V174.455H236.388ZM233.985 172.886H234.99V179.125C234.99 179.409 235.032 179.622 235.114 179.764C235.199 179.903 235.307 179.997 235.438 180.045C235.571 180.091 235.712 180.114 235.86 180.114C235.971 180.114 236.061 180.108 236.132 180.097C236.203 180.082 236.26 180.071 236.303 180.062L236.507 180.966C236.439 180.991 236.344 181.017 236.222 181.043C236.1 181.071 235.945 181.085 235.757 181.085C235.473 181.085 235.195 181.024 234.922 180.902C234.652 180.78 234.428 180.594 234.249 180.344C234.073 180.094 233.985 179.778 233.985 179.398V172.886ZM237.901 181V174.455H238.907V181H237.901ZM238.412 173.364C238.216 173.364 238.047 173.297 237.905 173.163C237.766 173.03 237.696 172.869 237.696 172.682C237.696 172.494 237.766 172.334 237.905 172.2C238.047 172.067 238.216 172 238.412 172C238.608 172 238.776 172.067 238.915 172.2C239.057 172.334 239.128 172.494 239.128 172.682C239.128 172.869 239.057 173.03 238.915 173.163C238.776 173.297 238.608 173.364 238.412 173.364ZM243.595 174.455V175.307H240.203V174.455H243.595ZM241.192 172.886H242.197V179.125C242.197 179.409 242.239 179.622 242.321 179.764C242.406 179.903 242.514 179.997 242.645 180.045C242.778 180.091 242.919 180.114 243.067 180.114C243.178 180.114 243.268 180.108 243.339 180.097C243.411 180.082 243.467 180.071 243.51 180.062L243.714 180.966C243.646 180.991 243.551 181.017 243.429 181.043C243.307 181.071 243.152 181.085 242.964 181.085C242.68 181.085 242.402 181.024 242.129 180.902C241.859 180.78 241.635 180.594 241.456 180.344C241.28 180.094 241.192 179.778 241.192 179.398V172.886ZM245.756 183.455C245.585 183.455 245.433 183.44 245.3 183.412C245.166 183.386 245.074 183.361 245.023 183.335L245.278 182.449C245.523 182.511 245.739 182.534 245.926 182.517C246.114 182.5 246.28 182.416 246.425 182.266C246.572 182.118 246.707 181.878 246.83 181.545L247.017 181.034L244.597 174.455H245.688L247.494 179.67H247.562L249.369 174.455H250.46L247.682 181.955C247.557 182.293 247.402 182.572 247.217 182.794C247.033 183.018 246.818 183.185 246.574 183.293C246.332 183.401 246.06 183.455 245.756 183.455ZM255.163 181V174.455H256.168V181H255.163ZM255.674 173.364C255.478 173.364 255.309 173.297 255.167 173.163C255.028 173.03 254.958 172.869 254.958 172.682C254.958 172.494 255.028 172.334 255.167 172.2C255.309 172.067 255.478 172 255.674 172C255.87 172 256.038 172.067 256.177 172.2C256.319 172.334 256.39 172.494 256.39 172.682C256.39 172.869 256.319 173.03 256.177 173.163C256.038 173.297 255.87 173.364 255.674 173.364ZM262.647 175.92L261.743 176.176C261.686 176.026 261.603 175.879 261.492 175.737C261.384 175.592 261.236 175.473 261.049 175.379C260.861 175.286 260.621 175.239 260.328 175.239C259.928 175.239 259.594 175.331 259.327 175.516C259.063 175.697 258.931 175.929 258.931 176.21C258.931 176.46 259.022 176.658 259.203 176.803C259.385 176.947 259.669 177.068 260.056 177.165L261.027 177.403C261.613 177.545 262.049 177.763 262.336 178.055C262.623 178.345 262.766 178.719 262.766 179.176C262.766 179.551 262.658 179.886 262.442 180.182C262.229 180.477 261.931 180.71 261.547 180.881C261.164 181.051 260.718 181.136 260.209 181.136C259.542 181.136 258.989 180.991 258.551 180.702C258.114 180.412 257.837 179.989 257.721 179.432L258.675 179.193C258.766 179.545 258.938 179.81 259.191 179.986C259.446 180.162 259.78 180.25 260.192 180.25C260.661 180.25 261.033 180.151 261.309 179.952C261.587 179.75 261.726 179.509 261.726 179.227C261.726 179 261.647 178.81 261.488 178.656C261.328 178.5 261.084 178.384 260.755 178.307L259.664 178.051C259.064 177.909 258.624 177.689 258.343 177.391C258.064 177.089 257.925 176.713 257.925 176.261C257.925 175.892 258.029 175.565 258.236 175.281C258.446 174.997 258.732 174.774 259.093 174.612C259.456 174.45 259.868 174.369 260.328 174.369C260.976 174.369 261.485 174.511 261.854 174.795C262.226 175.08 262.49 175.455 262.647 175.92ZM268.661 177.062V181H267.655V174.455H268.626V175.477H268.712C268.865 175.145 269.098 174.878 269.411 174.676C269.723 174.472 270.126 174.369 270.621 174.369C271.064 174.369 271.452 174.46 271.784 174.642C272.116 174.821 272.375 175.094 272.56 175.46C272.744 175.824 272.837 176.284 272.837 176.841V181H271.831V176.909C271.831 176.395 271.697 175.994 271.43 175.707C271.163 175.418 270.797 175.273 270.331 175.273C270.01 175.273 269.723 175.342 269.47 175.482C269.22 175.621 269.023 175.824 268.878 176.091C268.733 176.358 268.661 176.682 268.661 177.062ZM277.333 181.136C276.743 181.136 276.224 180.996 275.778 180.714C275.335 180.433 274.988 180.04 274.738 179.534C274.491 179.028 274.368 178.437 274.368 177.761C274.368 177.08 274.491 176.484 274.738 175.976C274.988 175.467 275.335 175.072 275.778 174.791C276.224 174.51 276.743 174.369 277.333 174.369C277.924 174.369 278.441 174.51 278.885 174.791C279.331 175.072 279.677 175.467 279.924 175.976C280.174 176.484 280.299 177.08 280.299 177.761C280.299 178.437 280.174 179.028 279.924 179.534C279.677 180.04 279.331 180.433 278.885 180.714C278.441 180.996 277.924 181.136 277.333 181.136ZM277.333 180.233C277.782 180.233 278.152 180.118 278.441 179.888C278.731 179.658 278.946 179.355 279.085 178.98C279.224 178.605 279.294 178.199 279.294 177.761C279.294 177.324 279.224 176.916 279.085 176.538C278.946 176.161 278.731 175.855 278.441 175.622C278.152 175.389 277.782 175.273 277.333 175.273C276.885 175.273 276.515 175.389 276.225 175.622C275.936 175.855 275.721 176.161 275.582 176.538C275.443 176.916 275.373 177.324 275.373 177.761C275.373 178.199 275.443 178.605 275.582 178.98C275.721 179.355 275.936 179.658 276.225 179.888C276.515 180.118 276.885 180.233 277.333 180.233ZM284.681 174.455V175.307H281.289V174.455H284.681ZM282.278 172.886H283.283V179.125C283.283 179.409 283.325 179.622 283.407 179.764C283.492 179.903 283.6 179.997 283.731 180.045C283.864 180.091 284.005 180.114 284.153 180.114C284.263 180.114 284.354 180.108 284.425 180.097C284.496 180.082 284.553 180.071 284.596 180.062L284.8 180.966C284.732 180.991 284.637 181.017 284.515 181.043C284.393 181.071 284.238 181.085 284.05 181.085C283.766 181.085 283.488 181.024 283.215 180.902C282.945 180.78 282.721 180.594 282.542 180.344C282.366 180.094 282.278 179.778 282.278 179.398V172.886ZM291.495 181.153C291.08 181.153 290.704 181.075 290.366 180.919C290.028 180.76 289.759 180.531 289.56 180.233C289.362 179.932 289.262 179.568 289.262 179.142C289.262 178.767 289.336 178.463 289.484 178.23C289.631 177.994 289.829 177.81 290.076 177.676C290.323 177.543 290.596 177.443 290.894 177.378C291.195 177.31 291.498 177.256 291.802 177.216C292.2 177.165 292.522 177.126 292.769 177.101C293.019 177.072 293.201 177.026 293.315 176.96C293.431 176.895 293.489 176.781 293.489 176.619V176.585C293.489 176.165 293.374 175.838 293.144 175.605C292.917 175.372 292.572 175.256 292.109 175.256C291.629 175.256 291.252 175.361 290.979 175.571C290.707 175.781 290.515 176.006 290.404 176.244L289.45 175.903C289.62 175.506 289.847 175.196 290.131 174.974C290.418 174.75 290.731 174.594 291.069 174.506C291.41 174.415 291.745 174.369 292.075 174.369C292.285 174.369 292.526 174.395 292.799 174.446C293.075 174.494 293.34 174.595 293.596 174.749C293.854 174.902 294.069 175.134 294.239 175.443C294.41 175.753 294.495 176.168 294.495 176.688V181H293.489V180.114H293.438C293.37 180.256 293.256 180.408 293.097 180.57C292.938 180.732 292.727 180.869 292.462 180.983C292.198 181.097 291.876 181.153 291.495 181.153ZM291.648 180.25C292.046 180.25 292.381 180.172 292.654 180.016C292.93 179.859 293.137 179.658 293.276 179.411C293.418 179.163 293.489 178.903 293.489 178.631V177.71C293.447 177.761 293.353 177.808 293.208 177.851C293.066 177.891 292.901 177.926 292.714 177.957C292.529 177.986 292.349 178.011 292.173 178.034C291.999 178.054 291.859 178.071 291.751 178.085C291.489 178.119 291.245 178.175 291.018 178.251C290.793 178.325 290.612 178.437 290.472 178.588C290.336 178.736 290.268 178.937 290.268 179.193C290.268 179.543 290.397 179.807 290.656 179.986C290.917 180.162 291.248 180.25 291.648 180.25ZM297.336 172.273V181H296.331V172.273H297.336ZM300.184 172.273V181H299.178V172.273H300.184ZM304.685 181.136C304.094 181.136 303.576 180.996 303.13 180.714C302.686 180.433 302.34 180.04 302.09 179.534C301.843 179.028 301.719 178.437 301.719 177.761C301.719 177.08 301.843 176.484 302.09 175.976C302.34 175.467 302.686 175.072 303.13 174.791C303.576 174.51 304.094 174.369 304.685 174.369C305.276 174.369 305.793 174.51 306.236 174.791C306.682 175.072 307.029 175.467 307.276 175.976C307.526 176.484 307.651 177.08 307.651 177.761C307.651 178.437 307.526 179.028 307.276 179.534C307.029 180.04 306.682 180.433 306.236 180.714C305.793 180.996 305.276 181.136 304.685 181.136ZM304.685 180.233C305.134 180.233 305.503 180.118 305.793 179.888C306.083 179.658 306.297 179.355 306.436 178.98C306.576 178.605 306.645 178.199 306.645 177.761C306.645 177.324 306.576 176.916 306.436 176.538C306.297 176.161 306.083 175.855 305.793 175.622C305.503 175.389 305.134 175.273 304.685 175.273C304.236 175.273 303.867 175.389 303.577 175.622C303.287 175.855 303.073 176.161 302.934 176.538C302.794 176.916 302.725 177.324 302.725 177.761C302.725 178.199 302.794 178.605 302.934 178.98C303.073 179.355 303.287 179.658 303.577 179.888C303.867 180.118 304.236 180.233 304.685 180.233ZM310.446 181L308.452 174.455H309.509L310.924 179.466H310.992L312.39 174.455H313.463L314.844 179.449H314.912L316.327 174.455H317.384L315.39 181H314.401L312.969 175.972H312.867L311.435 181H310.446ZM321.235 181.136C320.604 181.136 320.06 180.997 319.603 180.719C319.148 180.438 318.798 180.045 318.55 179.543C318.306 179.037 318.184 178.449 318.184 177.778C318.184 177.108 318.306 176.517 318.55 176.006C318.798 175.491 319.141 175.091 319.582 174.804C320.025 174.514 320.542 174.369 321.133 174.369C321.474 174.369 321.81 174.426 322.143 174.54C322.475 174.653 322.778 174.838 323.05 175.094C323.323 175.347 323.54 175.682 323.702 176.099C323.864 176.517 323.945 177.031 323.945 177.642V178.068H318.9V177.199H322.923C322.923 176.83 322.849 176.5 322.701 176.21C322.556 175.92 322.349 175.692 322.079 175.524C321.812 175.357 321.496 175.273 321.133 175.273C320.732 175.273 320.386 175.372 320.093 175.571C319.803 175.767 319.58 176.023 319.424 176.338C319.268 176.653 319.19 176.991 319.19 177.352V177.932C319.19 178.426 319.275 178.845 319.445 179.189C319.619 179.53 319.859 179.79 320.165 179.969C320.472 180.145 320.829 180.233 321.235 180.233C321.499 180.233 321.738 180.196 321.951 180.122C322.167 180.045 322.353 179.932 322.509 179.781C322.665 179.628 322.786 179.437 322.871 179.21L323.843 179.483C323.741 179.812 323.569 180.102 323.327 180.352C323.086 180.599 322.788 180.793 322.433 180.932C322.077 181.068 321.678 181.136 321.235 181.136ZM327.947 181.136C327.401 181.136 326.92 180.999 326.502 180.723C326.085 180.445 325.758 180.053 325.522 179.547C325.286 179.038 325.168 178.438 325.168 177.744C325.168 177.057 325.286 176.46 325.522 175.955C325.758 175.449 326.086 175.058 326.506 174.783C326.927 174.507 327.413 174.369 327.964 174.369C328.39 174.369 328.727 174.44 328.974 174.582C329.224 174.722 329.414 174.881 329.545 175.06C329.678 175.236 329.782 175.381 329.856 175.494H329.941V172.273H330.947V181H329.975V179.994H329.856C329.782 180.114 329.677 180.264 329.54 180.446C329.404 180.625 329.21 180.786 328.957 180.928C328.704 181.067 328.367 181.136 327.947 181.136ZM328.083 180.233C328.487 180.233 328.827 180.128 329.106 179.918C329.384 179.705 329.596 179.411 329.741 179.036C329.886 178.658 329.958 178.222 329.958 177.727C329.958 177.239 329.887 176.811 329.745 176.445C329.603 176.075 329.393 175.788 329.114 175.584C328.836 175.376 328.492 175.273 328.083 175.273C327.657 175.273 327.302 175.382 327.018 175.601C326.737 175.817 326.525 176.111 326.383 176.483C326.244 176.852 326.174 177.267 326.174 177.727C326.174 178.193 326.245 178.616 326.387 178.997C326.532 179.375 326.745 179.676 327.026 179.901C327.31 180.122 327.663 180.233 328.083 180.233Z" fill="white"/>
<circle opacity="0.2" cx="462.509" cy="113.994" r="25.0939" fill="#FF0000"/>
<circle cx="462.509" cy="113.994" r="18.6753" fill="#FE2802"/>
<path d="M453.234 121.036C452.85 121.036 452.567 120.869 452.384 120.536C452.2 120.203 452.2 119.869 452.384 119.536L461.634 103.536C461.817 103.203 462.109 103.036 462.509 103.036C462.909 103.036 463.2 103.203 463.384 103.536L472.634 119.536C472.817 119.869 472.817 120.203 472.634 120.536C472.45 120.869 472.167 121.036 471.784 121.036H453.234ZM462.509 110.036C462.225 110.036 461.988 110.132 461.797 110.323C461.605 110.515 461.509 110.753 461.509 111.036V114.036C461.509 114.319 461.605 114.557 461.797 114.748C461.988 114.94 462.225 115.036 462.509 115.036C462.792 115.036 463.03 114.94 463.222 114.748C463.413 114.557 463.509 114.319 463.509 114.036V111.036C463.509 110.753 463.413 110.515 463.222 110.323C463.03 110.132 462.792 110.036 462.509 110.036ZM462.509 118.036C462.792 118.036 463.03 117.94 463.222 117.748C463.413 117.557 463.509 117.319 463.509 117.036C463.509 116.753 463.413 116.515 463.222 116.324C463.03 116.132 462.792 116.036 462.509 116.036C462.225 116.036 461.988 116.132 461.797 116.324C461.605 116.515 461.509 116.753 461.509 117.036C461.509 117.319 461.605 117.557 461.797 117.748C461.988 117.94 462.225 118.036 462.509 118.036Z" fill="white"/>
<path d="M154.598 121V106.455H163.717V108.344H156.793V112.776H163.241V114.658H156.793V119.111H163.803V121H154.598ZM168.602 114.523V121H166.478V110.091H168.517V111.866H168.652C168.903 111.289 169.296 110.825 169.831 110.474C170.37 110.124 171.05 109.949 171.869 109.949C172.612 109.949 173.263 110.105 173.822 110.418C174.381 110.725 174.814 111.185 175.122 111.795C175.43 112.406 175.583 113.161 175.583 114.061V121H173.46V114.317C173.46 113.526 173.254 112.908 172.842 112.463C172.43 112.013 171.864 111.788 171.145 111.788C170.652 111.788 170.214 111.895 169.831 112.108C169.452 112.321 169.151 112.634 168.929 113.045C168.711 113.453 168.602 113.945 168.602 114.523ZM183.524 110.091V111.795H177.565V110.091H183.524ZM179.163 107.477H181.287V117.797C181.287 118.209 181.348 118.519 181.471 118.727C181.594 118.931 181.753 119.071 181.947 119.146C182.146 119.217 182.361 119.253 182.593 119.253C182.764 119.253 182.913 119.241 183.041 119.217C183.169 119.194 183.268 119.175 183.339 119.161L183.723 120.915C183.6 120.962 183.424 121.009 183.197 121.057C182.97 121.109 182.686 121.137 182.345 121.142C181.786 121.152 181.265 121.052 180.782 120.844C180.299 120.635 179.909 120.313 179.61 119.878C179.312 119.442 179.163 118.895 179.163 118.237V107.477ZM185.873 121V110.091H187.996V121H185.873ZM186.945 108.408C186.576 108.408 186.259 108.285 185.994 108.038C185.733 107.787 185.603 107.489 185.603 107.143C185.603 106.793 185.733 106.495 185.994 106.249C186.259 105.998 186.576 105.872 186.945 105.872C187.315 105.872 187.629 105.998 187.89 106.249C188.155 106.495 188.288 106.793 188.288 107.143C188.288 107.489 188.155 107.787 187.89 108.038C187.629 108.285 187.315 108.408 186.945 108.408ZM195.946 110.091V111.795H189.987V110.091H195.946ZM191.585 107.477H193.708V117.797C193.708 118.209 193.77 118.519 193.893 118.727C194.016 118.931 194.175 119.071 194.369 119.146C194.568 119.217 194.783 119.253 195.015 119.253C195.186 119.253 195.335 119.241 195.463 119.217C195.591 119.194 195.69 119.175 195.761 119.161L196.145 120.915C196.021 120.962 195.846 121.009 195.619 121.057C195.392 121.109 195.108 121.137 194.767 121.142C194.208 121.152 193.687 121.052 193.204 120.844C192.721 120.635 192.331 120.313 192.032 119.878C191.734 119.442 191.585 118.895 191.585 118.237V107.477ZM199.637 125.091C199.32 125.091 199.031 125.065 198.771 125.013C198.51 124.965 198.316 124.913 198.188 124.857L198.7 123.116C199.088 123.221 199.433 123.266 199.737 123.251C200.04 123.237 200.307 123.124 200.539 122.911C200.776 122.697 200.984 122.349 201.164 121.866L201.427 121.142L197.435 110.091H199.708L202.471 118.557H202.585L205.347 110.091H207.627L203.131 122.456C202.923 123.024 202.658 123.505 202.336 123.898C202.014 124.295 201.63 124.594 201.185 124.793C200.74 124.991 200.224 125.091 199.637 125.091ZM218.195 110.14C217.375 110.14 216.675 109.54 216.675 108.64C216.675 107.72 217.375 107.12 218.195 107.12C218.995 107.12 219.695 107.72 219.695 108.64C219.695 109.54 218.995 110.14 218.195 110.14ZM218.195 119.92C217.375 119.92 216.675 119.34 216.675 118.42C216.675 117.5 217.375 116.92 218.195 116.92C218.995 116.92 219.695 117.5 219.695 118.42C219.695 119.34 218.995 119.92 218.195 119.92Z" fill="white"/>
<path d="M247.598 121V106.455H249.793V119.111H256.384V121H247.598ZM263.418 121.22C262.344 121.22 261.418 120.991 260.641 120.531C259.87 120.067 259.273 119.416 258.852 118.578C258.435 117.735 258.227 116.748 258.227 115.616C258.227 114.499 258.435 113.514 258.852 112.662C259.273 111.81 259.86 111.144 260.613 110.666C261.371 110.188 262.256 109.949 263.269 109.949C263.885 109.949 264.481 110.051 265.059 110.254C265.637 110.458 266.155 110.777 266.614 111.213C267.074 111.649 267.436 112.214 267.701 112.911C267.966 113.602 268.099 114.442 268.099 115.432V116.185H259.427V114.594H266.018C266.018 114.035 265.904 113.54 265.677 113.109C265.45 112.674 265.13 112.33 264.718 112.08C264.311 111.829 263.833 111.703 263.283 111.703C262.687 111.703 262.166 111.85 261.721 112.143C261.281 112.432 260.94 112.811 260.698 113.28C260.461 113.744 260.343 114.248 260.343 114.793V116.036C260.343 116.765 260.471 117.385 260.727 117.896C260.987 118.408 261.349 118.798 261.813 119.068C262.277 119.333 262.819 119.466 263.44 119.466C263.842 119.466 264.209 119.409 264.54 119.295C264.872 119.177 265.158 119.002 265.4 118.77C265.641 118.538 265.826 118.251 265.954 117.911L267.964 118.273C267.803 118.865 267.514 119.383 267.097 119.828C266.685 120.268 266.167 120.612 265.542 120.858C264.922 121.099 264.214 121.22 263.418 121.22ZM270.625 121V106.455H272.749V111.859H272.877C273 111.632 273.177 111.369 273.409 111.071C273.641 110.773 273.963 110.512 274.375 110.29C274.787 110.062 275.332 109.949 276.009 109.949C276.89 109.949 277.676 110.171 278.367 110.616C279.058 111.062 279.6 111.703 279.993 112.541C280.391 113.379 280.59 114.388 280.59 115.567C280.59 116.746 280.393 117.757 280 118.599C279.607 119.437 279.068 120.084 278.381 120.538C277.694 120.988 276.911 121.213 276.03 121.213C275.367 121.213 274.825 121.102 274.404 120.879C273.987 120.657 273.66 120.396 273.424 120.098C273.187 119.8 273.005 119.535 272.877 119.303H272.699V121H270.625ZM272.706 115.545C272.706 116.312 272.818 116.985 273.04 117.562C273.263 118.14 273.585 118.592 274.006 118.919C274.427 119.241 274.944 119.402 275.554 119.402C276.189 119.402 276.719 119.234 277.145 118.898C277.571 118.557 277.893 118.095 278.111 117.513C278.334 116.93 278.445 116.275 278.445 115.545C278.445 114.826 278.336 114.179 278.118 113.607C277.905 113.034 277.583 112.581 277.152 112.25C276.726 111.919 276.194 111.753 275.554 111.753C274.939 111.753 274.418 111.911 273.992 112.229C273.57 112.546 273.251 112.989 273.033 113.557C272.815 114.125 272.706 114.788 272.706 115.545ZM282.974 121V110.091H285.027V111.824H285.141C285.339 111.237 285.69 110.775 286.192 110.439C286.698 110.098 287.271 109.928 287.911 109.928C288.043 109.928 288.199 109.932 288.379 109.942C288.564 109.951 288.708 109.963 288.812 109.977V112.009C288.727 111.985 288.576 111.959 288.358 111.93C288.14 111.897 287.922 111.881 287.705 111.881C287.203 111.881 286.755 111.987 286.362 112.2C285.974 112.409 285.666 112.7 285.439 113.074C285.212 113.443 285.098 113.865 285.098 114.338V121H282.974ZM294.855 121.22C293.832 121.22 292.94 120.986 292.177 120.517C291.415 120.048 290.823 119.393 290.402 118.55C289.98 117.707 289.77 116.722 289.77 115.595C289.77 114.464 289.98 113.474 290.402 112.626C290.823 111.779 291.415 111.121 292.177 110.652C292.94 110.183 293.832 109.949 294.855 109.949C295.877 109.949 296.77 110.183 297.532 110.652C298.295 111.121 298.886 111.779 299.308 112.626C299.729 113.474 299.94 114.464 299.94 115.595C299.94 116.722 299.729 117.707 299.308 118.55C298.886 119.393 298.295 120.048 297.532 120.517C296.77 120.986 295.877 121.22 294.855 121.22ZM294.862 119.438C295.525 119.438 296.074 119.262 296.51 118.912C296.945 118.562 297.267 118.095 297.475 117.513C297.689 116.93 297.795 116.289 297.795 115.588C297.795 114.892 297.689 114.253 297.475 113.67C297.267 113.083 296.945 112.612 296.51 112.257C296.074 111.902 295.525 111.724 294.862 111.724C294.194 111.724 293.64 111.902 293.2 112.257C292.764 112.612 292.44 113.083 292.227 113.67C292.019 114.253 291.914 114.892 291.914 115.588C291.914 116.289 292.019 116.93 292.227 117.513C292.44 118.095 292.764 118.562 293.2 118.912C293.64 119.262 294.194 119.438 294.862 119.438ZM304.434 114.523V121H302.31V110.091H304.349V111.866H304.484C304.735 111.289 305.128 110.825 305.663 110.474C306.202 110.124 306.882 109.949 307.701 109.949C308.444 109.949 309.095 110.105 309.654 110.418C310.213 110.725 310.646 111.185 310.954 111.795C311.262 112.406 311.415 113.161 311.415 114.061V121H309.292V114.317C309.292 113.526 309.086 112.908 308.674 112.463C308.262 112.013 307.696 111.788 306.977 111.788C306.484 111.788 306.046 111.895 305.663 112.108C305.284 112.321 304.983 112.634 304.761 113.045C304.543 113.453 304.434 113.945 304.434 114.523ZM325.38 106.455H327.568V116.767C327.568 117.7 327.383 118.498 327.014 119.161C326.649 119.823 326.136 120.33 325.473 120.68C324.81 121.026 324.033 121.199 323.143 121.199C322.324 121.199 321.588 121.05 320.934 120.751C320.286 120.453 319.772 120.02 319.393 119.452C319.019 118.879 318.832 118.183 318.832 117.364H321.012C321.012 117.766 321.105 118.114 321.289 118.408C321.479 118.701 321.737 118.931 322.064 119.097C322.395 119.258 322.774 119.338 323.2 119.338C323.664 119.338 324.057 119.241 324.379 119.047C324.706 118.848 324.954 118.557 325.125 118.173C325.295 117.79 325.38 117.321 325.38 116.767V106.455ZM333.766 121.241C333.075 121.241 332.45 121.114 331.891 120.858C331.333 120.598 330.89 120.221 330.563 119.729C330.241 119.236 330.08 118.633 330.08 117.918C330.08 117.302 330.199 116.795 330.435 116.398C330.672 116 330.992 115.685 331.394 115.453C331.797 115.221 332.246 115.046 332.744 114.928C333.241 114.809 333.747 114.719 334.263 114.658C334.917 114.582 335.447 114.52 335.854 114.473C336.262 114.421 336.558 114.338 336.742 114.224C336.927 114.111 337.019 113.926 337.019 113.67V113.621C337.019 113 336.844 112.52 336.494 112.179C336.148 111.838 335.632 111.668 334.945 111.668C334.23 111.668 333.667 111.826 333.255 112.143C332.848 112.456 332.566 112.804 332.41 113.188L330.414 112.733C330.651 112.07 330.996 111.535 331.451 111.128C331.91 110.716 332.438 110.418 333.035 110.233C333.631 110.044 334.259 109.949 334.917 109.949C335.353 109.949 335.814 110.001 336.302 110.105C336.794 110.205 337.254 110.389 337.68 110.659C338.111 110.929 338.463 111.315 338.738 111.817C339.013 112.314 339.15 112.96 339.15 113.756V121H337.076V119.509H336.991C336.853 119.783 336.647 120.053 336.373 120.318C336.098 120.583 335.746 120.804 335.315 120.979C334.884 121.154 334.368 121.241 333.766 121.241ZM334.228 119.537C334.815 119.537 335.317 119.421 335.734 119.189C336.155 118.957 336.475 118.654 336.692 118.28C336.915 117.901 337.026 117.496 337.026 117.065V115.659C336.951 115.735 336.804 115.806 336.586 115.872C336.373 115.934 336.129 115.988 335.854 116.036C335.58 116.078 335.312 116.118 335.052 116.156C334.791 116.189 334.574 116.218 334.398 116.241C333.987 116.294 333.61 116.381 333.269 116.504C332.933 116.627 332.663 116.805 332.46 117.037C332.261 117.264 332.161 117.567 332.161 117.946C332.161 118.472 332.355 118.869 332.744 119.139C333.132 119.404 333.627 119.537 334.228 119.537ZM341.978 121V110.091H344.017V111.866H344.152C344.379 111.265 344.751 110.796 345.267 110.46C345.783 110.119 346.401 109.949 347.12 109.949C347.85 109.949 348.46 110.119 348.953 110.46C349.45 110.801 349.817 111.27 350.054 111.866H350.167C350.428 111.284 350.842 110.82 351.41 110.474C351.978 110.124 352.655 109.949 353.441 109.949C354.431 109.949 355.238 110.259 355.863 110.879C356.493 111.5 356.808 112.435 356.808 113.685V121H354.684V113.884C354.684 113.145 354.483 112.61 354.081 112.278C353.678 111.947 353.198 111.781 352.639 111.781C351.948 111.781 351.41 111.994 351.027 112.42C350.643 112.842 350.451 113.384 350.451 114.047V121H348.335V113.749C348.335 113.157 348.15 112.681 347.781 112.321C347.412 111.961 346.931 111.781 346.339 111.781C345.937 111.781 345.565 111.888 345.224 112.101C344.888 112.309 344.616 112.6 344.407 112.974C344.204 113.348 344.102 113.782 344.102 114.274V121H341.978ZM364.356 121.22C363.281 121.22 362.355 120.991 361.579 120.531C360.807 120.067 360.21 119.416 359.789 118.578C359.372 117.735 359.164 116.748 359.164 115.616C359.164 114.499 359.372 113.514 359.789 112.662C360.21 111.81 360.798 111.144 361.55 110.666C362.308 110.188 363.193 109.949 364.207 109.949C364.822 109.949 365.419 110.051 365.996 110.254C366.574 110.458 367.093 110.777 367.552 111.213C368.011 111.649 368.373 112.214 368.638 112.911C368.904 113.602 369.036 114.442 369.036 115.432V116.185H360.364V114.594H366.955C366.955 114.035 366.842 113.54 366.614 113.109C366.387 112.674 366.067 112.33 365.656 112.08C365.248 111.829 364.77 111.703 364.221 111.703C363.624 111.703 363.103 111.85 362.658 112.143C362.218 112.432 361.877 112.811 361.636 113.28C361.399 113.744 361.281 114.248 361.281 114.793V116.036C361.281 116.765 361.408 117.385 361.664 117.896C361.924 118.408 362.287 118.798 362.751 119.068C363.215 119.333 363.757 119.466 364.377 119.466C364.78 119.466 365.147 119.409 365.478 119.295C365.809 119.177 366.096 119.002 366.337 118.77C366.579 118.538 366.763 118.251 366.891 117.911L368.901 118.273C368.74 118.865 368.451 119.383 368.035 119.828C367.623 120.268 367.104 120.612 366.479 120.858C365.859 121.099 365.151 121.22 364.356 121.22ZM379.567 112.754L377.642 113.095C377.562 112.849 377.434 112.615 377.259 112.392C377.088 112.17 376.856 111.987 376.563 111.845C376.269 111.703 375.902 111.632 375.462 111.632C374.861 111.632 374.359 111.767 373.956 112.037C373.554 112.302 373.353 112.645 373.353 113.067C373.353 113.431 373.488 113.725 373.757 113.947C374.027 114.17 374.463 114.352 375.064 114.494L376.797 114.892C377.801 115.124 378.549 115.482 379.042 115.964C379.534 116.447 379.78 117.075 379.78 117.847C379.78 118.5 379.591 119.082 379.212 119.594C378.838 120.1 378.315 120.498 377.642 120.787C376.975 121.076 376.201 121.22 375.32 121.22C374.098 121.22 373.102 120.96 372.33 120.439C371.558 119.913 371.085 119.168 370.909 118.202L372.962 117.889C373.09 118.424 373.353 118.829 373.75 119.104C374.148 119.374 374.667 119.509 375.306 119.509C376.002 119.509 376.558 119.364 376.975 119.075C377.391 118.782 377.6 118.424 377.6 118.003C377.6 117.662 377.472 117.375 377.216 117.143C376.965 116.911 376.579 116.736 376.059 116.618L374.212 116.213C373.194 115.981 372.441 115.612 371.953 115.105C371.471 114.598 371.229 113.957 371.229 113.18C371.229 112.536 371.409 111.973 371.769 111.49C372.129 111.007 372.626 110.631 373.26 110.361C373.895 110.086 374.622 109.949 375.441 109.949C376.62 109.949 377.548 110.205 378.225 110.716C378.902 111.223 379.349 111.902 379.567 112.754Z" fill="white"/>
<defs>
<filter id="filter0_b_1515_773" x="-28" y="-28" width="691" height="355" filterUnits="userSpaceOnUse" color-interpolation-filters="sRGB">
<feFlood flood-opacity="0" result="BackgroundImageFix"/>
<feGaussianBlur in="BackgroundImageFix" stdDeviation="14"/>
<feComposite in2="SourceAlpha" operator="in" result="effect1_backgroundBlur_1515_773"/>
<feBlend mode="normal" in="SourceGraphic" in2="effect1_backgroundBlur_1515_773" result="shape"/>
</filter>
<filter id="filter1_b_1515_773" x="104.322" y="177.065" width="426.778" height="124.599" filterUnits="userSpaceOnUse" color-interpolation-filters="sRGB">
<feFlood flood-opacity="0" result="BackgroundImageFix"/>
<feGaussianBlur in="BackgroundImageFix" stdDeviation="14"/>
<feComposite in2="SourceAlpha" operator="in" result="effect1_backgroundBlur_1515_773"/>
<feBlend mode="normal" in="SourceGraphic" in2="effect1_backgroundBlur_1515_773" result="shape"/>
</filter>
<filter id="filter2_b_1515_773" x="104.322" y="-70.2998" width="426.778" height="124.599" filterUnits="userSpaceOnUse" color-interpolation-filters="sRGB">
<feFlood flood-opacity="0" result="BackgroundImageFix"/>
<feGaussianBlur in="BackgroundImageFix" stdDeviation="14"/>
<feComposite in2="SourceAlpha" operator="in" result="effect1_backgroundBlur_1515_773"/>
<feBlend mode="normal" in="SourceGraphic" in2="effect1_backgroundBlur_1515_773" result="shape"/>
</filter>
<filter id="filter3_bd_1515_773" x="103.322" y="51" width="425.477" height="125.988" filterUnits="userSpaceOnUse" color-interpolation-filters="sRGB">
<feFlood flood-opacity="0" result="BackgroundImageFix"/>
<feGaussianBlur in="BackgroundImageFix" stdDeviation="14"/>
<feComposite in2="SourceAlpha" operator="in" result="effect1_backgroundBlur_1515_773"/>
<feColorMatrix in="SourceAlpha" type="matrix" values="0 0 0 0 0 0 0 0 0 0 0 0 0 0 0 0 0 0 127 0" result="hardAlpha"/>
<feOffset dy="4"/>
<feGaussianBlur stdDeviation="2.1"/>
<feComposite in2="hardAlpha" operator="out"/>
<feColorMatrix type="matrix" values="0 0 0 0 0 0 0 0 0 0 0 0 0 0 0 0 0 0 0.45 0"/>
<feBlend mode="normal" in2="effect1_backgroundBlur_1515_773" result="effect2_dropShadow_1515_773"/>
<feBlend mode="normal" in="SourceGraphic" in2="effect2_dropShadow_1515_773" result="shape"/>
</filter>
<linearGradient id="paint0_linear_1515_773" x1="299.358" y1="-5.55982e-05" x2="296.474" y2="299.098" gradientUnits="userSpaceOnUse">
<stop stop-color="white" stop-opacity="0.01"/>
<stop offset="1" stop-color="white" stop-opacity="0.04"/>
</linearGradient>
<radialGradient id="paint1_radial_1515_773" cx="0" cy="0" r="1" gradientUnits="userSpaceOnUse" gradientTransform="translate(317.5 10.9696) rotate(90) scale(237.346 504.062)">
<stop offset="0.0655707" stop-color="#FF7E76"/>
<stop offset="0.45492" stop-color="#FF4B40" stop-opacity="0.39"/>
<stop offset="1" stop-color="#FF9355" stop-opacity="0"/>
</radialGradient>
<linearGradient id="paint2_linear_1515_773" x1="317.5" y1="0" x2="317.5" y2="299" gradientUnits="userSpaceOnUse">
<stop stop-color="#EFF6FF" stop-opacity="0.11"/>
<stop offset="1" stop-color="white" stop-opacity="0"/>
</linearGradient>
<radialGradient id="paint3_radial_1515_773" cx="0" cy="0" r="1" gradientUnits="userSpaceOnUse" gradientTransform="translate(315.67) rotate(88.5669) scale(73.1867 155.43)">
<stop stop-color="white"/>
<stop offset="1" stop-color="white" stop-opacity="0"/>
</radialGradient>
<radialGradient id="paint4_radial_1515_773" cx="0" cy="0" r="1" gradientUnits="userSpaceOnUse" gradientTransform="translate(317.5 149.5) rotate(90) scale(149.5 317.5)">
<stop stop-color="white"/>
<stop offset="0.629055" stop-color="white"/>
<stop offset="1" stop-color="white" stop-opacity="0"/>
</radialGradient>
<linearGradient id="paint5_linear_1515_773" x1="317.5" y1="0" x2="317.5" y2="299" gradientUnits="userSpaceOnUse">
<stop stop-color="#EFF6FF" stop-opacity="0.11"/>
<stop offset="1" stop-color="white" stop-opacity="0"/>
</linearGradient>
<linearGradient id="paint6_linear_1515_773" x1="317.711" y1="205.065" x2="317.711" y2="273.664" gradientUnits="userSpaceOnUse">
<stop stop-color="#EFF6FF" stop-opacity="0.15"/>
<stop offset="1" stop-color="white" stop-opacity="0"/>
</linearGradient>
<linearGradient id="paint7_linear_1515_773" x1="317.711" y1="-42.2998" x2="317.711" y2="26.2993" gradientUnits="userSpaceOnUse">
<stop stop-color="#EFF6FF" stop-opacity="0.15"/>
<stop offset="1" stop-color="white" stop-opacity="0.33"/>
</linearGradient>
<linearGradient id="paint8_linear_1515_773" x1="316.06" y1="80" x2="316.06" y2="147.988" gradientUnits="userSpaceOnUse">
<stop stop-color="#EFF6FF" stop-opacity="0.15"/>
<stop offset="1" stop-color="white" stop-opacity="0"/>
</linearGradient>
</defs>
</svg>
