<svg width="635" height="299" viewBox="0 0 635 299" fill="none" xmlns="http://www.w3.org/2000/svg">
<g filter="url(#filter0_b_1388_9303)">
<path d="M0.5 16C0.5 7.43958 7.43959 0.5 16 0.5H619C627.56 0.5 634.5 7.43959 634.5 16V283C634.5 291.56 627.56 298.5 619 298.5H16C7.43959 298.5 0.5 291.56 0.5 283V16Z" fill="url(#paint0_linear_1388_9303)"/>
<path d="M0.5 16C0.5 7.43958 7.43959 0.5 16 0.5H619C627.56 0.5 634.5 7.43959 634.5 16V283C634.5 291.56 627.56 298.5 619 298.5H16C7.43959 298.5 0.5 291.56 0.5 283V16Z" fill="url(#paint1_radial_1388_9303)" fill-opacity="0.2"/>
<path d="M0.5 16C0.5 7.43958 7.43959 0.5 16 0.5H619C627.56 0.5 634.5 7.43959 634.5 16V283C634.5 291.56 627.56 298.5 619 298.5H16C7.43959 298.5 0.5 291.56 0.5 283V16Z" stroke="url(#paint2_linear_1388_9303)"/>
<path d="M0.5 16C0.5 7.43958 7.43959 0.5 16 0.5H619C627.56 0.5 634.5 7.43959 634.5 16V283C634.5 291.56 627.56 298.5 619 298.5H16C7.43959 298.5 0.5 291.56 0.5 283V16Z" stroke="url(#paint3_radial_1388_9303)" stroke-opacity="0.2"/>
<mask id="mask0_1388_9303" style="mask-type:alpha" maskUnits="userSpaceOnUse" x="0" y="0" width="635" height="299">
<path d="M0.5 16C0.5 7.43958 7.43959 0.5 16 0.5H619C627.56 0.5 634.5 7.43959 634.5 16V283C634.5 291.56 627.56 298.5 619 298.5H16C7.43959 298.5 0.5 291.56 0.5 283V16Z" fill="url(#paint4_radial_1388_9303)" stroke="url(#paint5_linear_1388_9303)"/>
</mask>
<g mask="url(#mask0_1388_9303)">
<path fill-rule="evenodd" clip-rule="evenodd" d="M566.5 242C566.5 379.519 455.019 491 317.5 491C179.981 491 68.5 379.519 68.5 242C68.5 104.481 179.981 -7 317.5 -7C455.019 -7 566.5 104.481 566.5 242ZM567.5 242C567.5 380.071 455.571 492 317.5 492C179.429 492 67.5 380.071 67.5 242C67.5 103.929 179.429 -8 317.5 -8C455.571 -8 567.5 103.929 567.5 242ZM317.5 441C427.405 441 516.5 351.905 516.5 242C516.5 132.095 427.405 43 317.5 43C207.595 43 118.5 132.095 118.5 242C118.5 351.905 207.595 441 317.5 441ZM317.5 442C427.957 442 517.5 352.457 517.5 242C517.5 131.543 427.957 42 317.5 42C207.043 42 117.5 131.543 117.5 242C117.5 352.457 207.043 442 317.5 442ZM317.5 391C399.79 391 466.5 324.29 466.5 242C466.5 159.71 399.79 93 317.5 93C235.21 93 168.5 159.71 168.5 242C168.5 324.29 235.21 391 317.5 391ZM317.5 392C400.343 392 467.5 324.843 467.5 242C467.5 159.157 400.343 92 317.5 92C234.657 92 167.5 159.157 167.5 242C167.5 324.843 234.657 392 317.5 392Z" fill="url(#paint6_linear_1388_9303)"/>
<g filter="url(#filter1_b_1388_9303)">
<circle cx="109.17" cy="87.9741" r="31.83" fill="url(#paint7_linear_1388_9303)"/>
<circle cx="109.17" cy="87.9741" r="31.33" stroke="url(#paint8_linear_1388_9303)"/>
</g>
<g filter="url(#filter2_b_1388_9303)">
<circle cx="439.478" cy="20.019" r="32" fill="url(#paint9_linear_1388_9303)"/>
<circle cx="439.478" cy="20.019" r="31.5" stroke="url(#paint10_linear_1388_9303)"/>
</g>
<g filter="url(#filter3_b_1388_9303)">
<circle cx="299.256" cy="41.3701" r="32" fill="url(#paint11_linear_1388_9303)"/>
<circle cx="299.256" cy="41.3701" r="31.5" stroke="url(#paint12_linear_1388_9303)"/>
</g>
<g filter="url(#filter4_b_1388_9303)">
<circle cx="204" cy="135.536" r="32" fill="url(#paint13_linear_1388_9303)"/>
<circle cx="204" cy="135.536" r="31.5" stroke="url(#paint14_linear_1388_9303)"/>
</g>
<g filter="url(#filter5_b_1388_9303)">
<circle cx="114.061" cy="215.724" r="25.4534" fill="url(#paint15_linear_1388_9303)"/>
<circle cx="114.061" cy="215.724" r="24.9534" stroke="url(#paint16_linear_1388_9303)"/>
</g>
<g filter="url(#filter6_b_1388_9303)">
<circle cx="107.57" cy="254.467" r="25.4534" fill="url(#paint17_linear_1388_9303)"/>
<circle cx="107.57" cy="254.467" r="24.9534" stroke="url(#paint18_linear_1388_9303)"/>
</g>
<g filter="url(#filter7_b_1388_9303)">
<circle cx="511.385" cy="203.862" r="25.4534" fill="url(#paint19_linear_1388_9303)"/>
<circle cx="511.385" cy="203.862" r="24.9534" stroke="url(#paint20_linear_1388_9303)"/>
</g>
<g filter="url(#filter8_b_1388_9303)">
<circle cx="521.678" cy="98.4535" r="30.892" fill="url(#paint21_linear_1388_9303)"/>
<circle cx="521.678" cy="98.4535" r="30.392" stroke="url(#paint22_linear_1388_9303)"/>
</g>
<g filter="url(#filter9_b_1388_9303)">
<circle cx="246.995" cy="-12.9231" r="24.9534" stroke="url(#paint23_linear_1388_9303)"/>
</g>
<g filter="url(#filter10_b_1388_9303)">
<circle cx="318.152" cy="236.731" r="98.6569" fill="url(#paint24_linear_1388_9303)"/>
<circle cx="318.152" cy="236.731" r="98.6569" fill="url(#paint25_radial_1388_9303)" fill-opacity="0.5"/>
<circle cx="318.152" cy="236.731" r="98.1569" stroke="url(#paint26_linear_1388_9303)"/>
</g>
<g filter="url(#filter11_f_1388_9303)">
<circle cx="318.152" cy="236.731" r="98.6569" fill="url(#paint27_radial_1388_9303)" fill-opacity="0.5"/>
<circle cx="318.152" cy="236.731" r="94.1569" stroke="url(#paint28_linear_1388_9303)" stroke-width="9"/>
</g>
<g filter="url(#filter12_b_1388_9303)">
<circle cx="318.152" cy="236.731" r="62.9504" fill="url(#paint29_radial_1388_9303)"/>
<circle cx="318.152" cy="236.731" r="62.4504" stroke="url(#paint30_linear_1388_9303)"/>
</g>
<g filter="url(#filter13_b_1388_9303)">
<circle cx="318.152" cy="236.731" r="62.9504" fill="url(#paint31_radial_1388_9303)"/>
</g>
<path d="M103.199 74.6369C103.139 74.7373 102.637 74.8376 102.076 74.8376C101.534 74.8376 101.093 74.9178 101.093 75.0382C101.093 75.1385 100.732 75.2388 100.29 75.2388C99.8488 75.2388 99.4877 75.319 99.4877 75.4394C99.4877 75.5397 99.2269 75.64 98.9059 75.64C98.5649 75.64 98.2439 75.7203 98.1837 75.8406C98.1235 75.9409 97.8427 76.0413 97.5618 76.0413C97.301 76.0413 97.0803 76.1215 97.0803 76.2419C97.0803 76.3422 96.8998 76.4425 96.6992 76.4425C96.4785 76.4425 96.2378 76.5227 96.1776 76.6431C96.1174 76.7434 95.8967 76.8437 95.7162 76.8437C95.5356 76.8437 95.1344 77.0644 94.8335 77.3252L94.2717 77.7866V85.9516C94.2717 91.2479 94.3319 94.0966 94.4723 94.0966C94.5927 94.0966 94.673 94.3574 94.673 94.6984C94.673 95.0194 94.7733 95.3003 94.8736 95.3003C94.9939 95.3003 95.0742 95.4808 95.0742 95.7015C95.0742 95.9222 95.1745 96.1027 95.2748 96.1027C95.3952 96.1027 95.4754 96.2833 95.4754 96.504C95.4754 96.7247 95.5757 96.9052 95.676 96.9052C95.7964 96.9052 95.8766 97.0858 95.8766 97.3064C95.8766 97.5271 95.977 97.7077 96.0773 97.7077C96.1976 97.7077 96.2779 97.8682 96.2779 98.0688C96.2779 98.2694 96.4584 98.5502 96.6791 98.7107C96.8998 98.8712 97.0803 99.112 97.0803 99.2524C97.0803 99.3928 97.3612 99.7941 97.6822 100.155C98.0232 100.496 98.284 100.857 98.284 100.958C98.284 101.178 100.431 103.325 100.651 103.325C100.752 103.325 101.113 103.606 101.454 103.927C101.815 104.268 102.216 104.529 102.357 104.529C102.497 104.529 102.738 104.709 102.898 104.93C103.059 105.15 103.34 105.331 103.54 105.331C103.741 105.331 103.901 105.411 103.901 105.532C103.901 105.632 104.082 105.732 104.302 105.732C104.523 105.732 104.704 105.813 104.704 105.933C104.704 106.033 104.985 106.133 105.306 106.133C105.647 106.133 105.907 106.214 105.907 106.334C105.907 106.434 106.188 106.535 106.509 106.535C106.85 106.535 107.111 106.615 107.111 106.735C107.111 106.836 107.332 106.936 107.613 106.936C107.893 106.936 108.295 107.056 108.515 107.177C108.836 107.377 108.997 107.377 109.318 107.177C109.539 107.056 109.94 106.936 110.221 106.936C110.501 106.936 110.722 106.836 110.722 106.735C110.722 106.615 111.003 106.535 111.324 106.535C111.665 106.535 111.926 106.434 111.926 106.334C111.926 106.214 112.207 106.133 112.528 106.133C112.869 106.133 113.13 106.033 113.13 105.933C113.13 105.813 113.31 105.732 113.531 105.732C113.751 105.732 113.932 105.632 113.932 105.532C113.932 105.411 114.092 105.331 114.293 105.331C114.494 105.331 114.775 105.15 114.935 104.93C115.096 104.709 115.336 104.529 115.477 104.529C115.617 104.529 116.018 104.248 116.379 103.927C116.721 103.586 117.082 103.325 117.182 103.325C117.403 103.325 119.549 101.178 119.549 100.958C119.549 100.857 119.83 100.496 120.151 100.155C120.492 99.7941 120.753 99.3928 120.753 99.2524C120.753 99.112 120.933 98.8712 121.154 98.7107C121.375 98.5502 121.555 98.2694 121.555 98.0688C121.555 97.8682 121.656 97.7077 121.756 97.7077C121.876 97.7077 121.957 97.5271 121.957 97.3064C121.957 97.0858 122.057 96.9052 122.157 96.9052C122.278 96.9052 122.358 96.7247 122.358 96.504C122.358 96.2833 122.458 96.1027 122.558 96.1027C122.679 96.1027 122.759 95.9222 122.759 95.7015C122.759 95.4808 122.859 95.3003 122.96 95.3003C123.08 95.3003 123.16 95.0194 123.16 94.6984C123.16 94.3574 123.261 94.0966 123.361 94.0966C123.501 94.0966 123.562 91.2479 123.562 85.9516C123.562 79.3113 123.501 77.7665 123.281 77.5459C122.839 77.0845 121.575 76.4425 121.154 76.4425C120.933 76.4425 120.753 76.3422 120.753 76.2419C120.753 76.1215 120.532 76.0413 120.271 76.0413C119.991 76.0413 119.71 75.9409 119.65 75.8406C119.589 75.7203 119.268 75.64 118.927 75.64C118.606 75.64 118.346 75.5397 118.346 75.4394C118.346 75.319 117.984 75.2388 117.543 75.2388C117.102 75.2388 116.741 75.1385 116.741 75.0382C116.741 74.9178 116.299 74.8376 115.758 74.8376C115.196 74.8376 114.694 74.7373 114.634 74.6369C114.554 74.5166 112.427 74.4363 108.917 74.4363C105.406 74.4363 103.279 74.5166 103.199 74.6369ZM102.998 79.0505C103.059 79.1508 103.48 79.2511 103.921 79.2511C104.343 79.2511 104.704 79.3313 104.704 79.4517C104.704 79.552 104.884 79.6523 105.105 79.6523C105.326 79.6523 105.506 79.7326 105.506 79.8529C105.506 79.9532 105.647 80.0536 105.827 80.0536C106.269 80.0536 106.71 80.5551 106.71 81.0566C106.71 82.1199 105.566 82.3807 104.744 81.498C104.443 81.1971 103.961 80.8359 103.661 80.6755C103.34 80.515 103.099 80.3143 103.099 80.214C103.099 80.1338 102.838 80.0536 102.497 80.0536C102.176 80.0536 101.895 79.9532 101.895 79.8529C101.895 79.7326 101.634 79.6523 101.293 79.6523C100.972 79.6523 100.691 79.552 100.691 79.4517C100.691 79.3313 100.972 79.2511 101.293 79.2511C101.634 79.2511 101.895 79.1508 101.895 79.0505C101.895 78.9301 102.116 78.8499 102.377 78.8499C102.657 78.8499 102.938 78.9301 102.998 79.0505ZM115.938 79.0505C115.938 79.1508 116.219 79.2511 116.54 79.2511C116.881 79.2511 117.142 79.3313 117.142 79.4517C117.142 79.552 116.881 79.6523 116.54 79.6523C116.219 79.6523 115.938 79.7326 115.938 79.8529C115.938 79.9532 115.677 80.0536 115.336 80.0536C115.015 80.0536 114.734 80.1338 114.734 80.214C114.734 80.3143 114.494 80.515 114.193 80.6755C113.872 80.8359 113.39 81.1971 113.089 81.498C112.508 82.1199 111.846 82.2202 111.404 81.7788C110.843 81.1971 111.244 80.0536 112.006 80.0536C112.187 80.0536 112.327 79.9532 112.327 79.8529C112.327 79.7326 112.508 79.6523 112.728 79.6523C112.949 79.6523 113.13 79.552 113.13 79.4517C113.13 79.3313 113.491 79.2511 113.912 79.2511C114.353 79.2511 114.775 79.1508 114.835 79.0505C114.895 78.9301 115.176 78.8499 115.457 78.8499C115.717 78.8499 115.938 78.9301 115.938 79.0505ZM105.105 85.0689C105.105 85.1692 105.245 85.2695 105.426 85.2695C105.586 85.2695 105.867 85.41 106.028 85.5705C106.309 85.8313 106.309 85.9115 106.028 86.1723C105.867 86.3328 105.586 86.4732 105.426 86.4732C105.245 86.4732 105.105 86.5535 105.105 86.6738C105.105 86.7942 104.363 86.8745 103.299 86.8745C102.236 86.8745 101.494 86.7942 101.494 86.6738C101.494 86.5535 101.353 86.4732 101.173 86.4732C101.012 86.4732 100.732 86.3328 100.571 86.1723C100.29 85.9115 100.29 85.8313 100.571 85.5705C100.732 85.41 101.012 85.2695 101.173 85.2695C101.353 85.2695 101.494 85.1692 101.494 85.0689C101.494 84.9486 102.236 84.8683 103.299 84.8683C104.363 84.8683 105.105 84.9486 105.105 85.0689ZM116.339 85.0689C116.339 85.1692 116.48 85.2695 116.66 85.2695C116.821 85.2695 117.102 85.41 117.262 85.5705C117.543 85.8313 117.543 85.9115 117.262 86.1723C117.102 86.3328 116.821 86.4732 116.66 86.4732C116.48 86.4732 116.339 86.5535 116.339 86.6738C116.339 86.7942 115.597 86.8745 114.534 86.8745C113.471 86.8745 112.728 86.7942 112.728 86.6738C112.728 86.5535 112.588 86.4732 112.407 86.4732C112.247 86.4732 111.966 86.3328 111.805 86.1723C111.525 85.9115 111.525 85.8313 111.805 85.5705C111.966 85.41 112.247 85.2695 112.407 85.2695C112.588 85.2695 112.728 85.1692 112.728 85.0689C112.728 84.9486 113.471 84.8683 114.534 84.8683C115.597 84.8683 116.339 84.9486 116.339 85.0689ZM101.093 92.2911C101.093 92.3914 101.213 92.4917 101.373 92.4917C101.514 92.4917 101.915 92.7525 102.256 93.0935C102.617 93.4145 103.039 93.6954 103.199 93.6954C103.36 93.6954 103.5 93.7756 103.5 93.896C103.5 93.9963 103.681 94.0966 103.901 94.0966C104.122 94.0966 104.302 94.1768 104.302 94.2972C104.302 94.3975 104.744 94.4978 105.306 94.4978C106.429 94.4978 107.452 94.0163 108.355 93.0534L108.917 92.4516L109.478 93.0534C110.381 94.0163 111.404 94.4978 112.528 94.4978C113.089 94.4978 113.531 94.3975 113.531 94.2972C113.531 94.1768 113.711 94.0966 113.932 94.0966C114.153 94.0966 114.333 93.9963 114.333 93.896C114.333 93.7756 114.494 93.6954 114.694 93.6954C114.895 93.6954 115.176 93.5148 115.336 93.2941C115.497 93.0735 115.717 92.8929 115.838 92.8929C115.958 92.8929 116.259 92.7124 116.52 92.4716C117.102 91.93 117.302 92.1306 116.761 92.7124C116.52 92.9732 116.339 93.2741 116.339 93.3944C116.339 93.5148 116.159 93.7355 115.938 93.896C115.717 94.0565 115.537 94.2972 115.537 94.4577C115.537 94.8188 114.614 95.7015 114.233 95.7015C114.072 95.7015 113.932 95.7818 113.932 95.9021C113.932 96.0024 113.751 96.1027 113.531 96.1027C113.31 96.1027 113.13 96.183 113.13 96.3034C113.13 96.4237 112.608 96.504 111.946 96.504C111.284 96.504 110.682 96.4037 110.622 96.3034C110.562 96.183 110.281 96.1027 110 96.1027C109.739 96.1027 109.518 96.0024 109.518 95.9021C109.518 95.7818 109.258 95.7015 108.917 95.7015C108.596 95.7015 108.315 95.7818 108.315 95.9021C108.315 96.0024 108.094 96.1027 107.833 96.1027C107.552 96.1027 107.272 96.183 107.211 96.3034C107.151 96.4037 106.549 96.504 105.887 96.504C105.225 96.504 104.704 96.4237 104.704 96.3034C104.704 96.183 104.523 96.1027 104.302 96.1027C104.082 96.1027 103.901 96.0024 103.901 95.9021C103.901 95.7818 103.761 95.7015 103.6 95.7015C103.219 95.7015 102.296 94.8188 102.296 94.4778C102.296 94.3574 102.136 94.0966 101.935 93.916C101.755 93.7355 101.474 93.3543 101.313 93.0333C101.153 92.7324 100.952 92.4917 100.852 92.4917C100.772 92.4917 100.691 92.3914 100.691 92.2911C100.691 92.1707 100.792 92.0904 100.892 92.0904C101.012 92.0904 101.093 92.1707 101.093 92.2911ZM110.321 101.82C110.321 103.064 110.281 103.184 109.619 103.846L108.917 104.549L108.214 103.846C107.552 103.184 107.512 103.064 107.512 101.82V100.516H108.917H110.321V101.82Z" fill="url(#paint32_linear_1388_9303)"/>
<path d="M197.245 120.284C197.185 120.384 196.683 120.485 196.122 120.485C195.58 120.485 195.139 120.565 195.139 120.685C195.139 120.785 194.778 120.886 194.336 120.886C193.895 120.886 193.534 120.966 193.534 121.086C193.534 121.187 193.273 121.287 192.952 121.287C192.611 121.287 192.29 121.367 192.23 121.488C192.17 121.588 191.889 121.688 191.608 121.688C191.347 121.688 191.126 121.768 191.126 121.889C191.126 121.989 190.946 122.089 190.745 122.089C190.525 122.089 190.284 122.17 190.224 122.29C190.163 122.39 189.943 122.491 189.762 122.491C189.582 122.491 189.18 122.711 188.879 122.972L188.318 123.434V131.599C188.318 136.895 188.378 139.744 188.518 139.744C188.639 139.744 188.719 140.004 188.719 140.345C188.719 140.666 188.819 140.947 188.92 140.947C189.04 140.947 189.12 141.128 189.12 141.348C189.12 141.569 189.221 141.75 189.321 141.75C189.441 141.75 189.521 141.93 189.521 142.151C189.521 142.372 189.622 142.552 189.722 142.552C189.842 142.552 189.923 142.733 189.923 142.953C189.923 143.174 190.023 143.355 190.123 143.355C190.244 143.355 190.324 143.515 190.324 143.716C190.324 143.916 190.504 144.197 190.725 144.358C190.946 144.518 191.126 144.759 191.126 144.899C191.126 145.04 191.407 145.441 191.728 145.802C192.069 146.143 192.33 146.504 192.33 146.605C192.33 146.825 194.477 148.972 194.697 148.972C194.798 148.972 195.159 149.253 195.5 149.574C195.861 149.915 196.262 150.176 196.403 150.176C196.543 150.176 196.784 150.356 196.944 150.577C197.105 150.797 197.386 150.978 197.586 150.978C197.787 150.978 197.947 151.058 197.947 151.179C197.947 151.279 198.128 151.379 198.348 151.379C198.569 151.379 198.75 151.459 198.75 151.58C198.75 151.68 199.031 151.78 199.352 151.78C199.693 151.78 199.953 151.861 199.953 151.981C199.953 152.081 200.234 152.182 200.555 152.182C200.896 152.182 201.157 152.262 201.157 152.382C201.157 152.483 201.378 152.583 201.659 152.583C201.94 152.583 202.341 152.703 202.561 152.824C202.882 153.024 203.043 153.024 203.364 152.824C203.585 152.703 203.986 152.583 204.267 152.583C204.547 152.583 204.768 152.483 204.768 152.382C204.768 152.262 205.049 152.182 205.37 152.182C205.711 152.182 205.972 152.081 205.972 151.981C205.972 151.861 206.253 151.78 206.574 151.78C206.915 151.78 207.176 151.68 207.176 151.58C207.176 151.459 207.356 151.379 207.577 151.379C207.797 151.379 207.978 151.279 207.978 151.179C207.978 151.058 208.139 150.978 208.339 150.978C208.54 150.978 208.821 150.797 208.981 150.577C209.142 150.356 209.382 150.176 209.523 150.176C209.663 150.176 210.064 149.895 210.426 149.574C210.767 149.233 211.128 148.972 211.228 148.972C211.449 148.972 213.595 146.825 213.595 146.605C213.595 146.504 213.876 146.143 214.197 145.802C214.538 145.441 214.799 145.04 214.799 144.899C214.799 144.759 214.979 144.518 215.2 144.358C215.421 144.197 215.601 143.916 215.601 143.716C215.601 143.515 215.702 143.355 215.802 143.355C215.922 143.355 216.003 143.174 216.003 142.953C216.003 142.733 216.103 142.552 216.203 142.552C216.324 142.552 216.404 142.372 216.404 142.151C216.404 141.93 216.504 141.75 216.604 141.75C216.725 141.75 216.805 141.569 216.805 141.348C216.805 141.128 216.905 140.947 217.006 140.947C217.126 140.947 217.206 140.666 217.206 140.345C217.206 140.004 217.307 139.744 217.407 139.744C217.547 139.744 217.608 136.895 217.608 131.599C217.608 124.958 217.547 123.414 217.327 123.193C216.885 122.731 215.621 122.089 215.2 122.089C214.979 122.089 214.799 121.989 214.799 121.889C214.799 121.768 214.578 121.688 214.317 121.688C214.037 121.688 213.756 121.588 213.696 121.488C213.635 121.367 213.314 121.287 212.973 121.287C212.652 121.287 212.392 121.187 212.392 121.086C212.392 120.966 212.03 120.886 211.589 120.886C211.148 120.886 210.787 120.785 210.787 120.685C210.787 120.565 210.345 120.485 209.804 120.485C209.242 120.485 208.74 120.384 208.68 120.284C208.6 120.164 206.473 120.083 202.963 120.083C199.452 120.083 197.325 120.164 197.245 120.284ZM197.044 124.697C197.105 124.798 197.526 124.898 197.967 124.898C198.389 124.898 198.75 124.978 198.75 125.099C198.75 125.199 198.93 125.299 199.151 125.299C199.372 125.299 199.552 125.38 199.552 125.5C199.552 125.6 199.693 125.701 199.873 125.701C200.315 125.701 200.756 126.202 200.756 126.704C200.756 127.767 199.612 128.028 198.79 127.145C198.489 126.844 198.007 126.483 197.707 126.322C197.386 126.162 197.145 125.961 197.145 125.861C197.145 125.781 196.884 125.701 196.543 125.701C196.222 125.701 195.941 125.6 195.941 125.5C195.941 125.38 195.68 125.299 195.339 125.299C195.018 125.299 194.737 125.199 194.737 125.099C194.737 124.978 195.018 124.898 195.339 124.898C195.68 124.898 195.941 124.798 195.941 124.697C195.941 124.577 196.162 124.497 196.423 124.497C196.703 124.497 196.984 124.577 197.044 124.697ZM209.984 124.697C209.984 124.798 210.265 124.898 210.586 124.898C210.927 124.898 211.188 124.978 211.188 125.099C211.188 125.199 210.927 125.299 210.586 125.299C210.265 125.299 209.984 125.38 209.984 125.5C209.984 125.6 209.723 125.701 209.382 125.701C209.061 125.701 208.78 125.781 208.78 125.861C208.78 125.961 208.54 126.162 208.239 126.322C207.918 126.483 207.436 126.844 207.135 127.145C206.554 127.767 205.892 127.867 205.45 127.426C204.889 126.844 205.29 125.701 206.052 125.701C206.233 125.701 206.373 125.6 206.373 125.5C206.373 125.38 206.554 125.299 206.774 125.299C206.995 125.299 207.176 125.199 207.176 125.099C207.176 124.978 207.537 124.898 207.958 124.898C208.399 124.898 208.821 124.798 208.881 124.697C208.941 124.577 209.222 124.497 209.503 124.497C209.763 124.497 209.984 124.577 209.984 124.697ZM199.151 130.716C199.151 130.816 199.291 130.917 199.472 130.917C199.632 130.917 199.913 131.057 200.074 131.217C200.355 131.478 200.355 131.558 200.074 131.819C199.913 131.98 199.632 132.12 199.472 132.12C199.291 132.12 199.151 132.2 199.151 132.321C199.151 132.441 198.409 132.521 197.345 132.521C196.282 132.521 195.54 132.441 195.54 132.321C195.54 132.2 195.399 132.12 195.219 132.12C195.058 132.12 194.778 131.98 194.617 131.819C194.336 131.558 194.336 131.478 194.617 131.217C194.778 131.057 195.058 130.917 195.219 130.917C195.399 130.917 195.54 130.816 195.54 130.716C195.54 130.596 196.282 130.515 197.345 130.515C198.409 130.515 199.151 130.596 199.151 130.716ZM210.385 130.716C210.385 130.816 210.526 130.917 210.706 130.917C210.867 130.917 211.148 131.057 211.308 131.217C211.589 131.478 211.589 131.558 211.308 131.819C211.148 131.98 210.867 132.12 210.706 132.12C210.526 132.12 210.385 132.2 210.385 132.321C210.385 132.441 209.643 132.521 208.58 132.521C207.517 132.521 206.774 132.441 206.774 132.321C206.774 132.2 206.634 132.12 206.453 132.12C206.293 132.12 206.012 131.98 205.851 131.819C205.571 131.558 205.571 131.478 205.851 131.217C206.012 131.057 206.293 130.917 206.453 130.917C206.634 130.917 206.774 130.816 206.774 130.716C206.774 130.596 207.517 130.515 208.58 130.515C209.643 130.515 210.385 130.596 210.385 130.716ZM195.139 137.938C195.139 138.038 195.259 138.139 195.42 138.139C195.56 138.139 195.961 138.399 196.302 138.74C196.663 139.061 197.085 139.342 197.245 139.342C197.406 139.342 197.546 139.423 197.546 139.543C197.546 139.643 197.727 139.744 197.947 139.744C198.168 139.744 198.348 139.824 198.348 139.944C198.348 140.044 198.79 140.145 199.352 140.145C200.475 140.145 201.498 139.663 202.401 138.7L202.963 138.099L203.524 138.7C204.427 139.663 205.45 140.145 206.574 140.145C207.135 140.145 207.577 140.044 207.577 139.944C207.577 139.824 207.757 139.744 207.978 139.744C208.199 139.744 208.379 139.643 208.379 139.543C208.379 139.423 208.54 139.342 208.74 139.342C208.941 139.342 209.222 139.162 209.382 138.941C209.543 138.72 209.763 138.54 209.884 138.54C210.004 138.54 210.305 138.359 210.566 138.119C211.148 137.577 211.348 137.778 210.807 138.359C210.566 138.62 210.385 138.921 210.385 139.041C210.385 139.162 210.205 139.382 209.984 139.543C209.763 139.703 209.583 139.944 209.583 140.105C209.583 140.466 208.66 141.348 208.279 141.348C208.118 141.348 207.978 141.429 207.978 141.549C207.978 141.649 207.797 141.75 207.577 141.75C207.356 141.75 207.176 141.83 207.176 141.95C207.176 142.071 206.654 142.151 205.992 142.151C205.33 142.151 204.728 142.051 204.668 141.95C204.608 141.83 204.327 141.75 204.046 141.75C203.785 141.75 203.564 141.649 203.564 141.549C203.564 141.429 203.304 141.348 202.963 141.348C202.642 141.348 202.361 141.429 202.361 141.549C202.361 141.649 202.14 141.75 201.879 141.75C201.598 141.75 201.318 141.83 201.257 141.95C201.197 142.051 200.595 142.151 199.933 142.151C199.271 142.151 198.75 142.071 198.75 141.95C198.75 141.83 198.569 141.75 198.348 141.75C198.128 141.75 197.947 141.649 197.947 141.549C197.947 141.429 197.807 141.348 197.646 141.348C197.265 141.348 196.342 140.466 196.342 140.125C196.342 140.004 196.182 139.744 195.981 139.563C195.801 139.382 195.52 139.001 195.359 138.68C195.199 138.379 194.998 138.139 194.898 138.139C194.818 138.139 194.737 138.038 194.737 137.938C194.737 137.818 194.838 137.737 194.938 137.737C195.058 137.737 195.139 137.818 195.139 137.938ZM204.367 147.467C204.367 148.711 204.327 148.831 203.665 149.493L202.963 150.196L202.26 149.493C201.598 148.831 201.558 148.711 201.558 147.467V146.163H202.963H204.367V147.467Z" fill="url(#paint33_linear_1388_9303)"/>
<path d="M109.77 204.658C109.723 204.737 109.329 204.816 108.888 204.816C108.463 204.816 108.116 204.879 108.116 204.973C108.116 205.052 107.833 205.131 107.486 205.131C107.14 205.131 106.856 205.194 106.856 205.288C106.856 205.367 106.651 205.446 106.399 205.446C106.132 205.446 105.88 205.509 105.832 205.603C105.785 205.682 105.565 205.761 105.344 205.761C105.139 205.761 104.966 205.824 104.966 205.918C104.966 205.997 104.824 206.076 104.667 206.076C104.493 206.076 104.304 206.139 104.257 206.233C104.21 206.312 104.037 206.391 103.895 206.391C103.753 206.391 103.438 206.564 103.202 206.769L102.761 207.131V213.542C102.761 217.7 102.808 219.937 102.918 219.937C103.013 219.937 103.076 220.141 103.076 220.409C103.076 220.661 103.155 220.882 103.233 220.882C103.328 220.882 103.391 221.023 103.391 221.197C103.391 221.37 103.47 221.512 103.548 221.512C103.643 221.512 103.706 221.653 103.706 221.827C103.706 222 103.785 222.142 103.863 222.142C103.958 222.142 104.021 222.283 104.021 222.457C104.021 222.63 104.1 222.772 104.178 222.772C104.273 222.772 104.336 222.898 104.336 223.055C104.336 223.213 104.478 223.433 104.651 223.559C104.824 223.685 104.966 223.874 104.966 223.984C104.966 224.095 105.187 224.41 105.439 224.693C105.706 224.961 105.911 225.245 105.911 225.323C105.911 225.497 107.596 227.182 107.77 227.182C107.848 227.182 108.132 227.402 108.4 227.654C108.683 227.922 108.998 228.127 109.108 228.127C109.219 228.127 109.408 228.269 109.534 228.442C109.66 228.615 109.88 228.757 110.038 228.757C110.195 228.757 110.321 228.82 110.321 228.915C110.321 228.993 110.463 229.072 110.636 229.072C110.81 229.072 110.951 229.135 110.951 229.23C110.951 229.308 111.172 229.387 111.424 229.387C111.692 229.387 111.896 229.45 111.896 229.545C111.896 229.623 112.117 229.702 112.369 229.702C112.637 229.702 112.841 229.765 112.841 229.86C112.841 229.938 113.015 230.017 113.235 230.017C113.456 230.017 113.771 230.112 113.944 230.206C114.196 230.364 114.322 230.364 114.574 230.206C114.747 230.112 115.062 230.017 115.283 230.017C115.503 230.017 115.677 229.938 115.677 229.86C115.677 229.765 115.897 229.702 116.149 229.702C116.417 229.702 116.622 229.623 116.622 229.545C116.622 229.45 116.842 229.387 117.094 229.387C117.362 229.387 117.567 229.308 117.567 229.23C117.567 229.135 117.708 229.072 117.882 229.072C118.055 229.072 118.197 228.993 118.197 228.915C118.197 228.82 118.323 228.757 118.48 228.757C118.638 228.757 118.858 228.615 118.984 228.442C119.11 228.269 119.299 228.127 119.41 228.127C119.52 228.127 119.835 227.906 120.118 227.654C120.386 227.387 120.67 227.182 120.748 227.182C120.922 227.182 122.607 225.497 122.607 225.323C122.607 225.245 122.827 224.961 123.08 224.693C123.347 224.41 123.552 224.095 123.552 223.984C123.552 223.874 123.694 223.685 123.867 223.559C124.04 223.433 124.182 223.213 124.182 223.055C124.182 222.898 124.261 222.772 124.34 222.772C124.434 222.772 124.497 222.63 124.497 222.457C124.497 222.283 124.576 222.142 124.655 222.142C124.749 222.142 124.812 222 124.812 221.827C124.812 221.653 124.891 221.512 124.97 221.512C125.064 221.512 125.127 221.37 125.127 221.197C125.127 221.023 125.206 220.882 125.285 220.882C125.379 220.882 125.442 220.661 125.442 220.409C125.442 220.141 125.521 219.937 125.6 219.937C125.71 219.937 125.757 217.7 125.757 213.542C125.757 208.328 125.71 207.115 125.537 206.942C125.19 206.58 124.198 206.076 123.867 206.076C123.694 206.076 123.552 205.997 123.552 205.918C123.552 205.824 123.379 205.761 123.174 205.761C122.954 205.761 122.733 205.682 122.686 205.603C122.638 205.509 122.386 205.446 122.119 205.446C121.867 205.446 121.662 205.367 121.662 205.288C121.662 205.194 121.378 205.131 121.032 205.131C120.685 205.131 120.402 205.052 120.402 204.973C120.402 204.879 120.055 204.816 119.63 204.816C119.189 204.816 118.795 204.737 118.748 204.658C118.685 204.564 117.015 204.501 114.259 204.501C111.503 204.501 109.833 204.564 109.77 204.658ZM109.612 208.123C109.66 208.202 109.991 208.281 110.337 208.281C110.668 208.281 110.951 208.344 110.951 208.438C110.951 208.517 111.093 208.596 111.266 208.596C111.44 208.596 111.581 208.659 111.581 208.753C111.581 208.832 111.692 208.911 111.833 208.911C112.18 208.911 112.526 209.305 112.526 209.698C112.526 210.533 111.629 210.738 110.983 210.045C110.747 209.809 110.369 209.525 110.132 209.399C109.88 209.273 109.691 209.116 109.691 209.037C109.691 208.974 109.486 208.911 109.219 208.911C108.967 208.911 108.746 208.832 108.746 208.753C108.746 208.659 108.541 208.596 108.274 208.596C108.022 208.596 107.801 208.517 107.801 208.438C107.801 208.344 108.022 208.281 108.274 208.281C108.541 208.281 108.746 208.202 108.746 208.123C108.746 208.029 108.919 207.966 109.124 207.966C109.345 207.966 109.565 208.029 109.612 208.123ZM119.772 208.123C119.772 208.202 119.992 208.281 120.244 208.281C120.512 208.281 120.717 208.344 120.717 208.438C120.717 208.517 120.512 208.596 120.244 208.596C119.992 208.596 119.772 208.659 119.772 208.753C119.772 208.832 119.567 208.911 119.299 208.911C119.047 208.911 118.827 208.974 118.827 209.037C118.827 209.116 118.638 209.273 118.401 209.399C118.149 209.525 117.771 209.809 117.535 210.045C117.078 210.533 116.559 210.612 116.212 210.265C115.771 209.809 116.086 208.911 116.685 208.911C116.826 208.911 116.937 208.832 116.937 208.753C116.937 208.659 117.078 208.596 117.252 208.596C117.425 208.596 117.567 208.517 117.567 208.438C117.567 208.344 117.85 208.281 118.181 208.281C118.528 208.281 118.858 208.202 118.906 208.123C118.953 208.029 119.173 207.966 119.394 207.966C119.599 207.966 119.772 208.029 119.772 208.123ZM111.266 212.849C111.266 212.927 111.377 213.006 111.518 213.006C111.644 213.006 111.865 213.116 111.991 213.242C112.211 213.447 112.211 213.51 111.991 213.715C111.865 213.841 111.644 213.951 111.518 213.951C111.377 213.951 111.266 214.014 111.266 214.109C111.266 214.203 110.684 214.266 109.849 214.266C109.014 214.266 108.431 214.203 108.431 214.109C108.431 214.014 108.321 213.951 108.179 213.951C108.053 213.951 107.833 213.841 107.707 213.715C107.486 213.51 107.486 213.447 107.707 213.242C107.833 213.116 108.053 213.006 108.179 213.006C108.321 213.006 108.431 212.927 108.431 212.849C108.431 212.754 109.014 212.691 109.849 212.691C110.684 212.691 111.266 212.754 111.266 212.849ZM120.087 212.849C120.087 212.927 120.197 213.006 120.339 213.006C120.465 213.006 120.685 213.116 120.811 213.242C121.032 213.447 121.032 213.51 120.811 213.715C120.685 213.841 120.465 213.951 120.339 213.951C120.197 213.951 120.087 214.014 120.087 214.109C120.087 214.203 119.504 214.266 118.669 214.266C117.834 214.266 117.252 214.203 117.252 214.109C117.252 214.014 117.141 213.951 117 213.951C116.874 213.951 116.653 213.841 116.527 213.715C116.307 213.51 116.307 213.447 116.527 213.242C116.653 213.116 116.874 213.006 117 213.006C117.141 213.006 117.252 212.927 117.252 212.849C117.252 212.754 117.834 212.691 118.669 212.691C119.504 212.691 120.087 212.754 120.087 212.849ZM108.116 218.519C108.116 218.598 108.211 218.676 108.337 218.676C108.447 218.676 108.762 218.881 109.03 219.149C109.313 219.401 109.644 219.621 109.77 219.621C109.896 219.621 110.006 219.684 110.006 219.779C110.006 219.858 110.148 219.937 110.321 219.937C110.495 219.937 110.636 220 110.636 220.094C110.636 220.173 110.983 220.252 111.424 220.252C112.306 220.252 113.109 219.874 113.818 219.117L114.259 218.645L114.7 219.117C115.409 219.874 116.212 220.252 117.094 220.252C117.535 220.252 117.882 220.173 117.882 220.094C117.882 220 118.023 219.937 118.197 219.937C118.37 219.937 118.512 219.858 118.512 219.779C118.512 219.684 118.638 219.621 118.795 219.621C118.953 219.621 119.173 219.48 119.299 219.306C119.425 219.133 119.599 218.991 119.693 218.991C119.788 218.991 120.024 218.85 120.229 218.661C120.685 218.235 120.843 218.393 120.418 218.85C120.229 219.054 120.087 219.291 120.087 219.385C120.087 219.48 119.945 219.653 119.772 219.779C119.599 219.905 119.457 220.094 119.457 220.22C119.457 220.504 118.732 221.197 118.433 221.197C118.307 221.197 118.197 221.26 118.197 221.354C118.197 221.433 118.055 221.512 117.882 221.512C117.708 221.512 117.567 221.575 117.567 221.669C117.567 221.764 117.157 221.827 116.637 221.827C116.118 221.827 115.645 221.748 115.598 221.669C115.551 221.575 115.33 221.512 115.11 221.512C114.905 221.512 114.732 221.433 114.732 221.354C114.732 221.26 114.527 221.197 114.259 221.197C114.007 221.197 113.786 221.26 113.786 221.354C113.786 221.433 113.613 221.512 113.408 221.512C113.188 221.512 112.967 221.575 112.92 221.669C112.873 221.748 112.4 221.827 111.881 221.827C111.361 221.827 110.951 221.764 110.951 221.669C110.951 221.575 110.81 221.512 110.636 221.512C110.463 221.512 110.321 221.433 110.321 221.354C110.321 221.26 110.211 221.197 110.085 221.197C109.786 221.197 109.061 220.504 109.061 220.236C109.061 220.141 108.935 219.937 108.778 219.795C108.636 219.653 108.415 219.354 108.289 219.102C108.163 218.865 108.006 218.676 107.927 218.676C107.864 218.676 107.801 218.598 107.801 218.519C107.801 218.424 107.88 218.361 107.959 218.361C108.053 218.361 108.116 218.424 108.116 218.519ZM115.362 226.001C115.362 226.977 115.33 227.072 114.81 227.591L114.259 228.143L113.708 227.591C113.188 227.072 113.156 226.977 113.156 226.001V224.977H114.259H115.362V226.001Z" fill="url(#paint34_linear_1388_9303)"/>
<path d="M293.539 26.4426C293.479 26.5429 292.977 26.6432 292.415 26.6432C291.874 26.6432 291.432 26.7235 291.432 26.8438C291.432 26.9441 291.071 27.0445 290.63 27.0445C290.188 27.0445 289.827 27.1247 289.827 27.2451C289.827 27.3454 289.567 27.4457 289.246 27.4457C288.904 27.4457 288.584 27.5259 288.523 27.6463C288.463 27.7466 288.182 27.8469 287.901 27.8469C287.641 27.8469 287.42 27.9272 287.42 28.0475C287.42 28.1478 287.239 28.2481 287.039 28.2481C286.818 28.2481 286.577 28.3284 286.517 28.4488C286.457 28.5491 286.236 28.6494 286.056 28.6494C285.875 28.6494 285.474 28.8701 285.173 29.1309L284.611 29.5923V37.7573C284.611 43.0535 284.672 45.9023 284.812 45.9023C284.932 45.9023 285.013 46.1631 285.013 46.5041C285.013 46.8251 285.113 47.1059 285.213 47.1059C285.334 47.1059 285.414 47.2865 285.414 47.5072C285.414 47.7279 285.514 47.9084 285.614 47.9084C285.735 47.9084 285.815 48.089 285.815 48.3096C285.815 48.5303 285.915 48.7109 286.016 48.7109C286.136 48.7109 286.216 48.8914 286.216 49.1121C286.216 49.3328 286.317 49.5133 286.417 49.5133C286.537 49.5133 286.617 49.6738 286.617 49.8744C286.617 50.075 286.798 50.3559 287.019 50.5164C287.239 50.6769 287.42 50.9176 287.42 51.0581C287.42 51.1985 287.701 51.5997 288.022 51.9608C288.363 52.3019 288.624 52.663 288.624 52.7633C288.624 52.984 290.77 55.1305 290.991 55.1305C291.091 55.1305 291.452 55.4114 291.793 55.7324C292.154 56.0734 292.556 56.3342 292.696 56.3342C292.837 56.3342 293.077 56.5148 293.238 56.7355C293.398 56.9561 293.679 57.1367 293.88 57.1367C294.08 57.1367 294.241 57.2169 294.241 57.3373C294.241 57.4376 294.421 57.5379 294.642 57.5379C294.863 57.5379 295.043 57.6182 295.043 57.7385C295.043 57.8388 295.324 57.9392 295.645 57.9392C295.986 57.9392 296.247 58.0194 296.247 58.1398C296.247 58.2401 296.528 58.3404 296.849 58.3404C297.19 58.3404 297.451 58.4206 297.451 58.541C297.451 58.6413 297.671 58.7416 297.952 58.7416C298.233 58.7416 298.634 58.862 298.855 58.9824C299.176 59.183 299.336 59.183 299.657 58.9824C299.878 58.862 300.279 58.7416 300.56 58.7416C300.841 58.7416 301.062 58.6413 301.062 58.541C301.062 58.4206 301.343 58.3404 301.664 58.3404C302.005 58.3404 302.265 58.2401 302.265 58.1398C302.265 58.0194 302.546 57.9392 302.867 57.9392C303.208 57.9392 303.469 57.8388 303.469 57.7385C303.469 57.6182 303.65 57.5379 303.87 57.5379C304.091 57.5379 304.272 57.4376 304.272 57.3373C304.272 57.2169 304.432 57.1367 304.633 57.1367C304.833 57.1367 305.114 56.9561 305.275 56.7355C305.435 56.5148 305.676 56.3342 305.816 56.3342C305.957 56.3342 306.358 56.0534 306.719 55.7324C307.06 55.3913 307.421 55.1305 307.522 55.1305C307.742 55.1305 309.889 52.984 309.889 52.7633C309.889 52.663 310.17 52.3019 310.491 51.9608C310.832 51.5997 311.092 51.1985 311.092 51.0581C311.092 50.9176 311.273 50.6769 311.494 50.5164C311.714 50.3559 311.895 50.075 311.895 49.8744C311.895 49.6738 311.995 49.5133 312.096 49.5133C312.216 49.5133 312.296 49.3328 312.296 49.1121C312.296 48.8914 312.396 48.7109 312.497 48.7109C312.617 48.7109 312.697 48.5303 312.697 48.3096C312.697 48.089 312.798 47.9084 312.898 47.9084C313.018 47.9084 313.099 47.7279 313.099 47.5072C313.099 47.2865 313.199 47.1059 313.299 47.1059C313.42 47.1059 313.5 46.8251 313.5 46.5041C313.5 46.1631 313.6 45.9023 313.7 45.9023C313.841 45.9023 313.901 43.0535 313.901 37.7573C313.901 31.1169 313.841 29.5722 313.62 29.3515C313.179 28.8901 311.915 28.2481 311.494 28.2481C311.273 28.2481 311.092 28.1478 311.092 28.0475C311.092 27.9272 310.872 27.8469 310.611 27.8469C310.33 27.8469 310.049 27.7466 309.989 27.6463C309.929 27.5259 309.608 27.4457 309.267 27.4457C308.946 27.4457 308.685 27.3454 308.685 27.2451C308.685 27.1247 308.324 27.0445 307.883 27.0445C307.441 27.0445 307.08 26.9441 307.08 26.8438C307.08 26.7235 306.639 26.6432 306.097 26.6432C305.535 26.6432 305.034 26.5429 304.974 26.4426C304.893 26.3222 302.767 26.242 299.256 26.242C295.745 26.242 293.619 26.3222 293.539 26.4426ZM293.338 30.8561C293.398 30.9564 293.82 31.0568 294.261 31.0568C294.682 31.0568 295.043 31.137 295.043 31.2574C295.043 31.3577 295.224 31.458 295.445 31.458C295.665 31.458 295.846 31.5382 295.846 31.6586C295.846 31.7589 295.986 31.8592 296.167 31.8592C296.608 31.8592 297.049 32.3608 297.049 32.8623C297.049 33.9255 295.906 34.1863 295.083 33.3036C294.783 33.0027 294.301 32.6416 294 32.4811C293.679 32.3206 293.438 32.12 293.438 32.0197C293.438 31.9395 293.178 31.8592 292.837 31.8592C292.516 31.8592 292.235 31.7589 292.235 31.6586C292.235 31.5382 291.974 31.458 291.633 31.458C291.312 31.458 291.031 31.3577 291.031 31.2574C291.031 31.137 291.312 31.0568 291.633 31.0568C291.974 31.0568 292.235 30.9564 292.235 30.8561C292.235 30.7358 292.455 30.6555 292.716 30.6555C292.997 30.6555 293.278 30.7358 293.338 30.8561ZM306.278 30.8561C306.278 30.9564 306.559 31.0568 306.88 31.0568C307.221 31.0568 307.481 31.137 307.481 31.2574C307.481 31.3577 307.221 31.458 306.88 31.458C306.559 31.458 306.278 31.5382 306.278 31.6586C306.278 31.7589 306.017 31.8592 305.676 31.8592C305.355 31.8592 305.074 31.9395 305.074 32.0197C305.074 32.12 304.833 32.3206 304.532 32.4811C304.211 32.6416 303.73 33.0027 303.429 33.3036C302.847 33.9255 302.185 34.0259 301.744 33.5845C301.182 33.0027 301.583 31.8592 302.346 31.8592C302.526 31.8592 302.667 31.7589 302.667 31.6586C302.667 31.5382 302.847 31.458 303.068 31.458C303.289 31.458 303.469 31.3577 303.469 31.2574C303.469 31.137 303.83 31.0568 304.252 31.0568C304.693 31.0568 305.114 30.9564 305.174 30.8561C305.235 30.7358 305.515 30.6555 305.796 30.6555C306.057 30.6555 306.278 30.7358 306.278 30.8561ZM295.445 36.8746C295.445 36.9749 295.585 37.0752 295.766 37.0752C295.926 37.0752 296.207 37.2156 296.367 37.3761C296.648 37.6369 296.648 37.7172 296.367 37.978C296.207 38.1385 295.926 38.2789 295.766 38.2789C295.585 38.2789 295.445 38.3591 295.445 38.4795C295.445 38.5999 294.702 38.6801 293.639 38.6801C292.576 38.6801 291.833 38.5999 291.833 38.4795C291.833 38.3591 291.693 38.2789 291.512 38.2789C291.352 38.2789 291.071 38.1385 290.911 37.978C290.63 37.7172 290.63 37.6369 290.911 37.3761C291.071 37.2156 291.352 37.0752 291.512 37.0752C291.693 37.0752 291.833 36.9749 291.833 36.8746C291.833 36.7542 292.576 36.674 293.639 36.674C294.702 36.674 295.445 36.7542 295.445 36.8746ZM306.679 36.8746C306.679 36.9749 306.819 37.0752 307 37.0752C307.16 37.0752 307.441 37.2156 307.602 37.3761C307.883 37.6369 307.883 37.7172 307.602 37.978C307.441 38.1385 307.16 38.2789 307 38.2789C306.819 38.2789 306.679 38.3591 306.679 38.4795C306.679 38.5999 305.937 38.6801 304.873 38.6801C303.81 38.6801 303.068 38.5999 303.068 38.4795C303.068 38.3591 302.927 38.2789 302.747 38.2789C302.586 38.2789 302.306 38.1385 302.145 37.978C301.864 37.7172 301.864 37.6369 302.145 37.3761C302.306 37.2156 302.586 37.0752 302.747 37.0752C302.927 37.0752 303.068 36.9749 303.068 36.8746C303.068 36.7542 303.81 36.674 304.873 36.674C305.937 36.674 306.679 36.7542 306.679 36.8746ZM291.432 44.0967C291.432 44.197 291.553 44.2973 291.713 44.2973C291.854 44.2973 292.255 44.5581 292.596 44.8992C292.957 45.2202 293.378 45.501 293.539 45.501C293.699 45.501 293.84 45.5813 293.84 45.7016C293.84 45.802 294.02 45.9023 294.241 45.9023C294.462 45.9023 294.642 45.9825 294.642 46.1029C294.642 46.2032 295.083 46.3035 295.645 46.3035C296.769 46.3035 297.792 45.822 298.694 44.8591L299.256 44.2572L299.818 44.8591C300.721 45.822 301.744 46.3035 302.867 46.3035C303.429 46.3035 303.87 46.2032 303.87 46.1029C303.87 45.9825 304.051 45.9023 304.272 45.9023C304.492 45.9023 304.673 45.802 304.673 45.7016C304.673 45.5813 304.833 45.501 305.034 45.501C305.235 45.501 305.515 45.3205 305.676 45.0998C305.836 44.8791 306.057 44.6986 306.177 44.6986C306.298 44.6986 306.599 44.518 306.86 44.2773C307.441 43.7356 307.642 43.9362 307.1 44.518C306.86 44.7788 306.679 45.0797 306.679 45.2001C306.679 45.3205 306.498 45.5412 306.278 45.7016C306.057 45.8621 305.877 46.1029 305.877 46.2634C305.877 46.6245 304.954 47.5072 304.573 47.5072C304.412 47.5072 304.272 47.5874 304.272 47.7078C304.272 47.8081 304.091 47.9084 303.87 47.9084C303.65 47.9084 303.469 47.9887 303.469 48.109C303.469 48.2294 302.948 48.3096 302.286 48.3096C301.623 48.3096 301.022 48.2093 300.961 48.109C300.901 47.9887 300.62 47.9084 300.34 47.9084C300.079 47.9084 299.858 47.8081 299.858 47.7078C299.858 47.5874 299.597 47.5072 299.256 47.5072C298.935 47.5072 298.654 47.5874 298.654 47.7078C298.654 47.8081 298.434 47.9084 298.173 47.9084C297.892 47.9084 297.611 47.9887 297.551 48.109C297.491 48.2093 296.889 48.3096 296.227 48.3096C295.565 48.3096 295.043 48.2294 295.043 48.109C295.043 47.9887 294.863 47.9084 294.642 47.9084C294.421 47.9084 294.241 47.8081 294.241 47.7078C294.241 47.5874 294.1 47.5072 293.94 47.5072C293.559 47.5072 292.636 46.6245 292.636 46.2834C292.636 46.1631 292.475 45.9023 292.275 45.7217C292.094 45.5412 291.813 45.16 291.653 44.839C291.492 44.5381 291.292 44.2973 291.191 44.2973C291.111 44.2973 291.031 44.197 291.031 44.0967C291.031 43.9764 291.131 43.8961 291.232 43.8961C291.352 43.8961 291.432 43.9764 291.432 44.0967ZM300.661 53.6259C300.661 54.8697 300.62 54.9901 299.958 55.6521L299.256 56.3543L298.554 55.6521C297.892 54.9901 297.852 54.8697 297.852 53.6259V52.3219H299.256H300.661V53.6259Z" fill="url(#paint35_linear_1388_9303)"/>
<path d="M433.267 5.1638C433.207 5.26411 432.705 5.36442 432.144 5.36442C431.602 5.36442 431.161 5.44466 431.161 5.56503C431.161 5.66534 430.8 5.76565 430.358 5.76565C429.917 5.76565 429.556 5.84589 429.556 5.96626C429.556 6.06657 429.295 6.16688 428.974 6.16688C428.633 6.16688 428.312 6.24713 428.252 6.36749C428.192 6.4678 427.911 6.56811 427.63 6.56811C427.369 6.56811 427.148 6.64836 427.148 6.76872C427.148 6.86903 426.968 6.96934 426.767 6.96934C426.546 6.96934 426.306 7.04959 426.246 7.16995C426.185 7.27026 425.965 7.37057 425.784 7.37057C425.604 7.37057 425.202 7.59124 424.901 7.85204L424.34 8.31346V16.4785C424.34 21.7747 424.4 24.6234 424.54 24.6234C424.661 24.6234 424.741 24.8842 424.741 25.2253C424.741 25.5463 424.841 25.8271 424.942 25.8271C425.062 25.8271 425.142 26.0077 425.142 26.2284C425.142 26.449 425.242 26.6296 425.343 26.6296C425.463 26.6296 425.543 26.8102 425.543 27.0308C425.543 27.2515 425.644 27.4321 425.744 27.4321C425.864 27.4321 425.945 27.6126 425.945 27.8333C425.945 28.054 426.045 28.2345 426.145 28.2345C426.266 28.2345 426.346 28.395 426.346 28.5956C426.346 28.7962 426.526 29.0771 426.747 29.2376C426.968 29.3981 427.148 29.6388 427.148 29.7793C427.148 29.9197 427.429 30.3209 427.75 30.682C428.091 31.0231 428.352 31.3842 428.352 31.4845C428.352 31.7052 430.499 33.8517 430.719 33.8517C430.82 33.8517 431.181 34.1326 431.522 34.4536C431.883 34.7946 432.284 35.0554 432.425 35.0554C432.565 35.0554 432.806 35.236 432.966 35.4567C433.127 35.6773 433.408 35.8579 433.608 35.8579C433.809 35.8579 433.969 35.9381 433.969 36.0585C433.969 36.1588 434.15 36.2591 434.37 36.2591C434.591 36.2591 434.772 36.3394 434.772 36.4597C434.772 36.56 435.053 36.6603 435.374 36.6603C435.715 36.6603 435.975 36.7406 435.975 36.861C435.975 36.9613 436.256 37.0616 436.577 37.0616C436.918 37.0616 437.179 37.1418 437.179 37.2622C437.179 37.3625 437.4 37.4628 437.681 37.4628C437.961 37.4628 438.363 37.5832 438.583 37.7035C438.904 37.9042 439.065 37.9042 439.386 37.7035C439.607 37.5832 440.008 37.4628 440.289 37.4628C440.569 37.4628 440.79 37.3625 440.79 37.2622C440.79 37.1418 441.071 37.0616 441.392 37.0616C441.733 37.0616 441.994 36.9613 441.994 36.861C441.994 36.7406 442.275 36.6603 442.596 36.6603C442.937 36.6603 443.198 36.56 443.198 36.4597C443.198 36.3394 443.378 36.2591 443.599 36.2591C443.819 36.2591 444 36.1588 444 36.0585C444 35.9381 444.16 35.8579 444.361 35.8579C444.562 35.8579 444.843 35.6773 445.003 35.4567C445.164 35.236 445.404 35.0554 445.545 35.0554C445.685 35.0554 446.086 34.7746 446.447 34.4536C446.789 34.1125 447.15 33.8517 447.25 33.8517C447.471 33.8517 449.617 31.7052 449.617 31.4845C449.617 31.3842 449.898 31.0231 450.219 30.682C450.56 30.3209 450.821 29.9197 450.821 29.7793C450.821 29.6388 451.001 29.3981 451.222 29.2376C451.443 29.0771 451.623 28.7962 451.623 28.5956C451.623 28.395 451.724 28.2345 451.824 28.2345C451.944 28.2345 452.025 28.054 452.025 27.8333C452.025 27.6126 452.125 27.4321 452.225 27.4321C452.346 27.4321 452.426 27.2515 452.426 27.0308C452.426 26.8102 452.526 26.6296 452.626 26.6296C452.747 26.6296 452.827 26.449 452.827 26.2284C452.827 26.0077 452.927 25.8271 453.028 25.8271C453.148 25.8271 453.228 25.5463 453.228 25.2253C453.228 24.8842 453.329 24.6234 453.429 24.6234C453.569 24.6234 453.63 21.7747 453.63 16.4785C453.63 9.83813 453.569 8.2934 453.349 8.07272C452.907 7.61131 451.643 6.96934 451.222 6.96934C451.001 6.96934 450.821 6.86903 450.821 6.76872C450.821 6.64836 450.6 6.56811 450.339 6.56811C450.059 6.56811 449.778 6.4678 449.718 6.36749C449.657 6.24713 449.336 6.16688 448.995 6.16688C448.674 6.16688 448.414 6.06657 448.414 5.96626C448.414 5.84589 448.052 5.76565 447.611 5.76565C447.17 5.76565 446.809 5.66534 446.809 5.56503C446.809 5.44466 446.367 5.36442 445.826 5.36442C445.264 5.36442 444.762 5.26411 444.702 5.1638C444.622 5.04343 442.495 4.96319 438.985 4.96319C435.474 4.96319 433.347 5.04343 433.267 5.1638ZM433.066 9.57733C433.127 9.67764 433.548 9.77795 433.989 9.77795C434.411 9.77795 434.772 9.85819 434.772 9.97856C434.772 10.0789 434.952 10.1792 435.173 10.1792C435.394 10.1792 435.574 10.2594 435.574 10.3798C435.574 10.4801 435.715 10.5804 435.895 10.5804C436.336 10.5804 436.778 11.0819 436.778 11.5835C436.778 12.6467 435.634 12.9075 434.812 12.0248C434.511 11.7239 434.029 11.3628 433.729 11.2023C433.408 11.0418 433.167 10.8412 433.167 10.7409C433.167 10.6607 432.906 10.5804 432.565 10.5804C432.244 10.5804 431.963 10.4801 431.963 10.3798C431.963 10.2594 431.702 10.1792 431.361 10.1792C431.04 10.1792 430.759 10.0789 430.759 9.97856C430.759 9.85819 431.04 9.77795 431.361 9.77795C431.702 9.77795 431.963 9.67764 431.963 9.57733C431.963 9.45696 432.184 9.37672 432.445 9.37672C432.725 9.37672 433.006 9.45696 433.066 9.57733ZM446.006 9.57733C446.006 9.67764 446.287 9.77795 446.608 9.77795C446.949 9.77795 447.21 9.85819 447.21 9.97856C447.21 10.0789 446.949 10.1792 446.608 10.1792C446.287 10.1792 446.006 10.2594 446.006 10.3798C446.006 10.4801 445.745 10.5804 445.404 10.5804C445.083 10.5804 444.802 10.6607 444.802 10.7409C444.802 10.8412 444.562 11.0418 444.261 11.2023C443.94 11.3628 443.458 11.7239 443.157 12.0248C442.576 12.6467 441.914 12.747 441.472 12.3057C440.911 11.7239 441.312 10.5804 442.074 10.5804C442.255 10.5804 442.395 10.4801 442.395 10.3798C442.395 10.2594 442.576 10.1792 442.796 10.1792C443.017 10.1792 443.198 10.0789 443.198 9.97856C443.198 9.85819 443.559 9.77795 443.98 9.77795C444.421 9.77795 444.843 9.67764 444.903 9.57733C444.963 9.45696 445.244 9.37672 445.525 9.37672C445.785 9.37672 446.006 9.45696 446.006 9.57733ZM435.173 15.5958C435.173 15.6961 435.313 15.7964 435.494 15.7964C435.654 15.7964 435.935 15.9368 436.096 16.0973C436.377 16.3581 436.377 16.4384 436.096 16.6992C435.935 16.8597 435.654 17.0001 435.494 17.0001C435.313 17.0001 435.173 17.0803 435.173 17.2007C435.173 17.3211 434.431 17.4013 433.367 17.4013C432.304 17.4013 431.562 17.3211 431.562 17.2007C431.562 17.0803 431.421 17.0001 431.241 17.0001C431.08 17.0001 430.8 16.8597 430.639 16.6992C430.358 16.4384 430.358 16.3581 430.639 16.0973C430.8 15.9368 431.08 15.7964 431.241 15.7964C431.421 15.7964 431.562 15.6961 431.562 15.5958C431.562 15.4754 432.304 15.3952 433.367 15.3952C434.431 15.3952 435.173 15.4754 435.173 15.5958ZM446.407 15.5958C446.407 15.6961 446.548 15.7964 446.728 15.7964C446.889 15.7964 447.17 15.9368 447.33 16.0973C447.611 16.3581 447.611 16.4384 447.33 16.6992C447.17 16.8597 446.889 17.0001 446.728 17.0001C446.548 17.0001 446.407 17.0803 446.407 17.2007C446.407 17.3211 445.665 17.4013 444.602 17.4013C443.539 17.4013 442.796 17.3211 442.796 17.2007C442.796 17.0803 442.656 17.0001 442.475 17.0001C442.315 17.0001 442.034 16.8597 441.873 16.6992C441.593 16.4384 441.593 16.3581 441.873 16.0973C442.034 15.9368 442.315 15.7964 442.475 15.7964C442.656 15.7964 442.796 15.6961 442.796 15.5958C442.796 15.4754 443.539 15.3952 444.602 15.3952C445.665 15.3952 446.407 15.4754 446.407 15.5958ZM431.161 22.8179C431.161 22.9182 431.281 23.0185 431.441 23.0185C431.582 23.0185 431.983 23.2793 432.324 23.6204C432.685 23.9414 433.107 24.2222 433.267 24.2222C433.428 24.2222 433.568 24.3025 433.568 24.4228C433.568 24.5231 433.749 24.6234 433.969 24.6234C434.19 24.6234 434.37 24.7037 434.37 24.8241C434.37 24.9244 434.812 25.0247 435.374 25.0247C436.497 25.0247 437.52 24.5432 438.423 23.5803L438.985 22.9784L439.546 23.5803C440.449 24.5432 441.472 25.0247 442.596 25.0247C443.157 25.0247 443.599 24.9244 443.599 24.8241C443.599 24.7037 443.779 24.6234 444 24.6234C444.221 24.6234 444.401 24.5231 444.401 24.4228C444.401 24.3025 444.562 24.2222 444.762 24.2222C444.963 24.2222 445.244 24.0417 445.404 23.821C445.565 23.6003 445.785 23.4198 445.906 23.4198C446.026 23.4198 446.327 23.2392 446.588 22.9985C447.17 22.4568 447.37 22.6574 446.829 23.2392C446.588 23.5 446.407 23.8009 446.407 23.9213C446.407 24.0417 446.227 24.2623 446.006 24.4228C445.785 24.5833 445.605 24.8241 445.605 24.9846C445.605 25.3457 444.682 26.2284 444.301 26.2284C444.14 26.2284 444 26.3086 444 26.429C444 26.5293 443.819 26.6296 443.599 26.6296C443.378 26.6296 443.198 26.7098 443.198 26.8302C443.198 26.9506 442.676 27.0308 442.014 27.0308C441.352 27.0308 440.75 26.9305 440.69 26.8302C440.63 26.7098 440.349 26.6296 440.068 26.6296C439.807 26.6296 439.586 26.5293 439.586 26.429C439.586 26.3086 439.326 26.2284 438.985 26.2284C438.664 26.2284 438.383 26.3086 438.383 26.429C438.383 26.5293 438.162 26.6296 437.901 26.6296C437.62 26.6296 437.34 26.7098 437.279 26.8302C437.219 26.9305 436.617 27.0308 435.955 27.0308C435.293 27.0308 434.772 26.9506 434.772 26.8302C434.772 26.7098 434.591 26.6296 434.37 26.6296C434.15 26.6296 433.969 26.5293 433.969 26.429C433.969 26.3086 433.829 26.2284 433.668 26.2284C433.287 26.2284 432.364 25.3457 432.364 25.0046C432.364 24.8842 432.204 24.6235 432.003 24.4429C431.823 24.2623 431.542 23.8812 431.381 23.5602C431.221 23.2593 431.02 23.0185 430.92 23.0185C430.84 23.0185 430.759 22.9182 430.759 22.8179C430.759 22.6975 430.86 22.6173 430.96 22.6173C431.08 22.6173 431.161 22.6975 431.161 22.8179ZM440.389 32.3471C440.389 33.5909 440.349 33.7113 439.687 34.3733L438.985 35.0755L438.282 34.3733C437.62 33.7113 437.58 33.5909 437.58 32.3471V31.0431H438.985H440.389V32.3471Z" fill="url(#paint36_linear_1388_9303)"/>
<path d="M507.775 191.672C507.728 191.751 507.334 191.829 506.894 191.829C506.469 191.829 506.123 191.892 506.123 191.987C506.123 192.065 505.84 192.144 505.493 192.144C505.147 192.144 504.864 192.207 504.864 192.301C504.864 192.38 504.66 192.459 504.408 192.459C504.14 192.459 503.889 192.521 503.841 192.616C503.794 192.695 503.574 192.773 503.354 192.773C503.149 192.773 502.976 192.836 502.976 192.931C502.976 193.009 502.834 193.088 502.677 193.088C502.504 193.088 502.315 193.151 502.268 193.245C502.221 193.324 502.048 193.403 501.906 193.403C501.764 193.403 501.45 193.576 501.214 193.78L500.773 194.142V200.546C500.773 204.7 500.82 206.934 500.931 206.934C501.025 206.934 501.088 207.138 501.088 207.406C501.088 207.658 501.167 207.878 501.245 207.878C501.34 207.878 501.403 208.02 501.403 208.193C501.403 208.366 501.481 208.507 501.56 208.507C501.654 208.507 501.717 208.649 501.717 208.822C501.717 208.995 501.796 209.137 501.875 209.137C501.969 209.137 502.032 209.278 502.032 209.451C502.032 209.624 502.111 209.766 502.189 209.766C502.284 209.766 502.347 209.892 502.347 210.049C502.347 210.207 502.488 210.427 502.661 210.553C502.834 210.679 502.976 210.867 502.976 210.978C502.976 211.088 503.196 211.402 503.448 211.686C503.715 211.953 503.92 212.236 503.92 212.315C503.92 212.488 505.604 214.172 505.777 214.172C505.855 214.172 506.139 214.392 506.406 214.644C506.689 214.911 507.004 215.116 507.114 215.116C507.224 215.116 507.413 215.257 507.539 215.43C507.665 215.603 507.885 215.745 508.042 215.745C508.2 215.745 508.326 215.808 508.326 215.902C508.326 215.981 508.467 216.06 508.64 216.06C508.813 216.06 508.955 216.123 508.955 216.217C508.955 216.296 509.175 216.374 509.427 216.374C509.694 216.374 509.899 216.437 509.899 216.532C509.899 216.61 510.119 216.689 510.371 216.689C510.638 216.689 510.843 216.752 510.843 216.846C510.843 216.925 511.016 217.004 511.236 217.004C511.457 217.004 511.771 217.098 511.944 217.193C512.196 217.35 512.322 217.35 512.574 217.193C512.747 217.098 513.062 217.004 513.282 217.004C513.502 217.004 513.675 216.925 513.675 216.846C513.675 216.752 513.895 216.689 514.147 216.689C514.415 216.689 514.619 216.61 514.619 216.532C514.619 216.437 514.839 216.374 515.091 216.374C515.359 216.374 515.563 216.296 515.563 216.217C515.563 216.123 515.705 216.06 515.878 216.06C516.051 216.06 516.193 215.981 516.193 215.902C516.193 215.808 516.318 215.745 516.476 215.745C516.633 215.745 516.853 215.603 516.979 215.43C517.105 215.257 517.294 215.116 517.404 215.116C517.514 215.116 517.829 214.895 518.112 214.644C518.38 214.376 518.663 214.172 518.742 214.172C518.915 214.172 520.598 212.488 520.598 212.315C520.598 212.236 520.818 211.953 521.07 211.686C521.338 211.402 521.542 211.088 521.542 210.978C521.542 210.867 521.684 210.679 521.857 210.553C522.03 210.427 522.172 210.207 522.172 210.049C522.172 209.892 522.25 209.766 522.329 209.766C522.423 209.766 522.486 209.624 522.486 209.451C522.486 209.278 522.565 209.137 522.644 209.137C522.738 209.137 522.801 208.995 522.801 208.822C522.801 208.649 522.88 208.507 522.958 208.507C523.053 208.507 523.116 208.366 523.116 208.193C523.116 208.02 523.194 207.878 523.273 207.878C523.367 207.878 523.43 207.658 523.43 207.406C523.43 207.138 523.509 206.934 523.588 206.934C523.698 206.934 523.745 204.7 523.745 200.546C523.745 195.338 523.698 194.126 523.525 193.953C523.179 193.591 522.187 193.088 521.857 193.088C521.684 193.088 521.542 193.009 521.542 192.931C521.542 192.836 521.369 192.773 521.165 192.773C520.944 192.773 520.724 192.695 520.677 192.616C520.63 192.521 520.378 192.459 520.11 192.459C519.859 192.459 519.654 192.38 519.654 192.301C519.654 192.207 519.371 192.144 519.025 192.144C518.679 192.144 518.395 192.065 518.395 191.987C518.395 191.892 518.049 191.829 517.624 191.829C517.184 191.829 516.791 191.751 516.743 191.672C516.68 191.577 515.013 191.514 512.259 191.514C509.506 191.514 507.838 191.577 507.775 191.672ZM507.618 195.133C507.665 195.212 507.995 195.291 508.341 195.291C508.672 195.291 508.955 195.354 508.955 195.448C508.955 195.527 509.097 195.605 509.27 195.605C509.443 195.605 509.584 195.668 509.584 195.763C509.584 195.841 509.694 195.92 509.836 195.92C510.182 195.92 510.528 196.313 510.528 196.707C510.528 197.541 509.631 197.745 508.986 197.053C508.75 196.817 508.373 196.534 508.137 196.408C507.885 196.282 507.696 196.125 507.696 196.046C507.696 195.983 507.492 195.92 507.224 195.92C506.972 195.92 506.752 195.841 506.752 195.763C506.752 195.668 506.548 195.605 506.28 195.605C506.028 195.605 505.808 195.527 505.808 195.448C505.808 195.354 506.028 195.291 506.28 195.291C506.548 195.291 506.752 195.212 506.752 195.133C506.752 195.039 506.925 194.976 507.13 194.976C507.35 194.976 507.57 195.039 507.618 195.133ZM517.766 195.133C517.766 195.212 517.986 195.291 518.238 195.291C518.506 195.291 518.71 195.354 518.71 195.448C518.71 195.527 518.506 195.605 518.238 195.605C517.986 195.605 517.766 195.668 517.766 195.763C517.766 195.841 517.561 195.92 517.294 195.92C517.042 195.92 516.822 195.983 516.822 196.046C516.822 196.125 516.633 196.282 516.397 196.408C516.145 196.534 515.768 196.817 515.532 197.053C515.075 197.541 514.556 197.619 514.21 197.273C513.77 196.817 514.084 195.92 514.682 195.92C514.824 195.92 514.934 195.841 514.934 195.763C514.934 195.668 515.075 195.605 515.249 195.605C515.422 195.605 515.563 195.527 515.563 195.448C515.563 195.354 515.846 195.291 516.177 195.291C516.523 195.291 516.853 195.212 516.901 195.133C516.948 195.039 517.168 194.976 517.388 194.976C517.593 194.976 517.766 195.039 517.766 195.133ZM509.27 199.854C509.27 199.932 509.38 200.011 509.521 200.011C509.647 200.011 509.868 200.121 509.993 200.247C510.214 200.451 510.214 200.514 509.993 200.719C509.868 200.845 509.647 200.955 509.521 200.955C509.38 200.955 509.27 201.018 509.27 201.112C509.27 201.207 508.687 201.27 507.854 201.27C507.02 201.27 506.437 201.207 506.437 201.112C506.437 201.018 506.327 200.955 506.186 200.955C506.06 200.955 505.84 200.845 505.714 200.719C505.493 200.514 505.493 200.451 505.714 200.247C505.84 200.121 506.06 200.011 506.186 200.011C506.327 200.011 506.437 199.932 506.437 199.854C506.437 199.759 507.02 199.696 507.854 199.696C508.687 199.696 509.27 199.759 509.27 199.854ZM518.081 199.854C518.081 199.932 518.191 200.011 518.332 200.011C518.458 200.011 518.679 200.121 518.804 200.247C519.025 200.451 519.025 200.514 518.804 200.719C518.679 200.845 518.458 200.955 518.332 200.955C518.191 200.955 518.081 201.018 518.081 201.112C518.081 201.207 517.499 201.27 516.665 201.27C515.831 201.27 515.249 201.207 515.249 201.112C515.249 201.018 515.138 200.955 514.997 200.955C514.871 200.955 514.651 200.845 514.525 200.719C514.305 200.514 514.305 200.451 514.525 200.247C514.651 200.121 514.871 200.011 514.997 200.011C515.138 200.011 515.249 199.932 515.249 199.854C515.249 199.759 515.831 199.696 516.665 199.696C517.499 199.696 518.081 199.759 518.081 199.854ZM506.123 205.518C506.123 205.597 506.217 205.675 506.343 205.675C506.453 205.675 506.768 205.88 507.035 206.147C507.319 206.399 507.649 206.619 507.775 206.619C507.901 206.619 508.011 206.682 508.011 206.777C508.011 206.855 508.152 206.934 508.326 206.934C508.499 206.934 508.64 206.997 508.64 207.091C508.64 207.17 508.986 207.249 509.427 207.249C510.308 207.249 511.11 206.871 511.819 206.116L512.259 205.644L512.7 206.116C513.408 206.871 514.21 207.249 515.091 207.249C515.532 207.249 515.878 207.17 515.878 207.091C515.878 206.997 516.02 206.934 516.193 206.934C516.366 206.934 516.507 206.855 516.507 206.777C516.507 206.682 516.633 206.619 516.791 206.619C516.948 206.619 517.168 206.478 517.294 206.305C517.42 206.131 517.593 205.99 517.687 205.99C517.782 205.99 518.018 205.848 518.222 205.659C518.679 205.235 518.836 205.392 518.411 205.848C518.222 206.053 518.081 206.289 518.081 206.383C518.081 206.478 517.939 206.651 517.766 206.777C517.593 206.902 517.451 207.091 517.451 207.217C517.451 207.5 516.728 208.193 516.429 208.193C516.303 208.193 516.193 208.256 516.193 208.35C516.193 208.429 516.051 208.507 515.878 208.507C515.705 208.507 515.563 208.57 515.563 208.665C515.563 208.759 515.154 208.822 514.635 208.822C514.116 208.822 513.644 208.743 513.596 208.665C513.549 208.57 513.329 208.507 513.109 208.507C512.904 208.507 512.731 208.429 512.731 208.35C512.731 208.256 512.527 208.193 512.259 208.193C512.007 208.193 511.787 208.256 511.787 208.35C511.787 208.429 511.614 208.507 511.409 208.507C511.189 208.507 510.969 208.57 510.922 208.665C510.874 208.743 510.402 208.822 509.883 208.822C509.364 208.822 508.955 208.759 508.955 208.665C508.955 208.57 508.813 208.507 508.64 208.507C508.467 208.507 508.326 208.429 508.326 208.35C508.326 208.256 508.215 208.193 508.09 208.193C507.791 208.193 507.067 207.5 507.067 207.233C507.067 207.138 506.941 206.934 506.784 206.792C506.642 206.651 506.422 206.352 506.296 206.1C506.17 205.864 506.013 205.675 505.934 205.675C505.871 205.675 505.808 205.597 505.808 205.518C505.808 205.423 505.887 205.36 505.965 205.36C506.06 205.36 506.123 205.423 506.123 205.518ZM513.36 212.992C513.36 213.967 513.329 214.061 512.81 214.581L512.259 215.131L511.708 214.581C511.189 214.061 511.158 213.967 511.158 212.992V211.969H512.259H513.36V212.992Z" fill="url(#paint37_linear_1388_9303)"/>
<path d="M515.542 85.2097C515.481 85.31 514.98 85.4103 514.418 85.4103C513.876 85.4103 513.435 85.4906 513.435 85.6109C513.435 85.7112 513.074 85.8115 512.633 85.8115C512.191 85.8115 511.83 85.8918 511.83 86.0122C511.83 86.1125 511.569 86.2128 511.248 86.2128C510.907 86.2128 510.586 86.293 510.526 86.4134C510.466 86.5137 510.185 86.614 509.904 86.614C509.643 86.614 509.423 86.6943 509.423 86.8146C509.423 86.9149 509.242 87.0152 509.042 87.0152C508.821 87.0152 508.58 87.0955 508.52 87.2159C508.46 87.3162 508.239 87.4165 508.059 87.4165C507.878 87.4165 507.477 87.6371 507.176 87.8979L506.614 88.3594V96.5244C506.614 101.821 506.674 104.669 506.815 104.669C506.935 104.669 507.015 104.93 507.015 105.271C507.015 105.592 507.116 105.873 507.216 105.873C507.336 105.873 507.417 106.054 507.417 106.274C507.417 106.495 507.517 106.675 507.617 106.675C507.738 106.675 507.818 106.856 507.818 107.077C507.818 107.297 507.918 107.478 508.018 107.478C508.139 107.478 508.219 107.659 508.219 107.879C508.219 108.1 508.319 108.28 508.42 108.28C508.54 108.28 508.62 108.441 508.62 108.642C508.62 108.842 508.801 109.123 509.022 109.283C509.242 109.444 509.423 109.685 509.423 109.825C509.423 109.966 509.704 110.367 510.025 110.728C510.366 111.069 510.626 111.43 510.626 111.53C510.626 111.751 512.773 113.898 512.994 113.898C513.094 113.898 513.455 114.178 513.796 114.499C514.157 114.841 514.558 115.101 514.699 115.101C514.839 115.101 515.08 115.282 515.241 115.503C515.401 115.723 515.682 115.904 515.883 115.904C516.083 115.904 516.244 115.984 516.244 116.104C516.244 116.205 516.424 116.305 516.645 116.305C516.866 116.305 517.046 116.385 517.046 116.506C517.046 116.606 517.327 116.706 517.648 116.706C517.989 116.706 518.25 116.786 518.25 116.907C518.25 117.007 518.531 117.107 518.852 117.107C519.193 117.107 519.453 117.188 519.453 117.308C519.453 117.408 519.674 117.509 519.955 117.509C520.236 117.509 520.637 117.629 520.858 117.749C521.179 117.95 521.339 117.95 521.66 117.749C521.881 117.629 522.282 117.509 522.563 117.509C522.844 117.509 523.065 117.408 523.065 117.308C523.065 117.188 523.345 117.107 523.666 117.107C524.007 117.107 524.268 117.007 524.268 116.907C524.268 116.786 524.549 116.706 524.87 116.706C525.211 116.706 525.472 116.606 525.472 116.506C525.472 116.385 525.652 116.305 525.873 116.305C526.094 116.305 526.274 116.205 526.274 116.104C526.274 115.984 526.435 115.904 526.636 115.904C526.836 115.904 527.117 115.723 527.277 115.503C527.438 115.282 527.679 115.101 527.819 115.101C527.96 115.101 528.361 114.82 528.722 114.499C529.063 114.158 529.424 113.898 529.524 113.898C529.745 113.898 531.892 111.751 531.892 111.53C531.892 111.43 532.172 111.069 532.493 110.728C532.835 110.367 533.095 109.966 533.095 109.825C533.095 109.685 533.276 109.444 533.497 109.283C533.717 109.123 533.898 108.842 533.898 108.642C533.898 108.441 533.998 108.28 534.098 108.28C534.219 108.28 534.299 108.1 534.299 107.879C534.299 107.659 534.399 107.478 534.5 107.478C534.62 107.478 534.7 107.297 534.7 107.077C534.7 106.856 534.801 106.675 534.901 106.675C535.021 106.675 535.101 106.495 535.101 106.274C535.101 106.054 535.202 105.873 535.302 105.873C535.422 105.873 535.503 105.592 535.503 105.271C535.503 104.93 535.603 104.669 535.703 104.669C535.844 104.669 535.904 101.821 535.904 96.5244C535.904 89.884 535.844 88.3393 535.623 88.1186C535.182 87.6572 533.918 87.0152 533.497 87.0152C533.276 87.0152 533.095 86.9149 533.095 86.8146C533.095 86.6943 532.875 86.614 532.614 86.614C532.333 86.614 532.052 86.5137 531.992 86.4134C531.932 86.293 531.611 86.2128 531.27 86.2128C530.949 86.2128 530.688 86.1125 530.688 86.0122C530.688 85.8918 530.327 85.8115 529.885 85.8115C529.444 85.8115 529.083 85.7112 529.083 85.6109C529.083 85.4906 528.642 85.4103 528.1 85.4103C527.538 85.4103 527.037 85.31 526.977 85.2097C526.896 85.0893 524.77 85.0091 521.259 85.0091C517.748 85.0091 515.622 85.0893 515.542 85.2097ZM515.341 89.6232C515.401 89.7235 515.822 89.8238 516.264 89.8238C516.685 89.8238 517.046 89.9041 517.046 90.0245C517.046 90.1248 517.227 90.2251 517.447 90.2251C517.668 90.2251 517.849 90.3053 517.849 90.4257C517.849 90.526 517.989 90.6263 518.17 90.6263C518.611 90.6263 519.052 91.1278 519.052 91.6294C519.052 92.6926 517.909 92.9534 517.086 92.0707C516.785 91.7698 516.304 91.4087 516.003 91.2482C515.682 91.0877 515.441 90.8871 515.441 90.7868C515.441 90.7065 515.18 90.6263 514.839 90.6263C514.518 90.6263 514.238 90.526 514.238 90.4257C514.238 90.3053 513.977 90.2251 513.636 90.2251C513.315 90.2251 513.034 90.1248 513.034 90.0245C513.034 89.9041 513.315 89.8238 513.636 89.8238C513.977 89.8238 514.238 89.7235 514.238 89.6232C514.238 89.5029 514.458 89.4226 514.719 89.4226C515 89.4226 515.281 89.5029 515.341 89.6232ZM528.281 89.6232C528.281 89.7235 528.561 89.8238 528.882 89.8238C529.223 89.8238 529.484 89.9041 529.484 90.0245C529.484 90.1248 529.223 90.2251 528.882 90.2251C528.561 90.2251 528.281 90.3053 528.281 90.4257C528.281 90.526 528.02 90.6263 527.679 90.6263C527.358 90.6263 527.077 90.7065 527.077 90.7868C527.077 90.8871 526.836 91.0877 526.535 91.2482C526.214 91.4087 525.733 91.7698 525.432 92.0707C524.85 92.6926 524.188 92.7929 523.747 92.3516C523.185 91.7698 523.586 90.6263 524.348 90.6263C524.529 90.6263 524.669 90.526 524.669 90.4257C524.669 90.3053 524.85 90.2251 525.071 90.2251C525.291 90.2251 525.472 90.1248 525.472 90.0245C525.472 89.9041 525.833 89.8238 526.254 89.8238C526.696 89.8238 527.117 89.7235 527.177 89.6232C527.237 89.5029 527.518 89.4226 527.799 89.4226C528.06 89.4226 528.281 89.5029 528.281 89.6232ZM517.447 95.6417C517.447 95.742 517.588 95.8423 517.768 95.8423C517.929 95.8423 518.21 95.9827 518.37 96.1432C518.651 96.404 518.651 96.4843 518.37 96.7451C518.21 96.9056 517.929 97.046 517.768 97.046C517.588 97.046 517.447 97.1262 517.447 97.2466C517.447 97.367 516.705 97.4472 515.642 97.4472C514.579 97.4472 513.836 97.367 513.836 97.2466C513.836 97.1262 513.696 97.046 513.515 97.046C513.355 97.046 513.074 96.9056 512.913 96.7451C512.633 96.4843 512.633 96.404 512.913 96.1432C513.074 95.9827 513.355 95.8423 513.515 95.8423C513.696 95.8423 513.836 95.742 513.836 95.6417C513.836 95.5213 514.579 95.4411 515.642 95.4411C516.705 95.4411 517.447 95.5213 517.447 95.6417ZM528.682 95.6417C528.682 95.742 528.822 95.8423 529.003 95.8423C529.163 95.8423 529.444 95.9827 529.605 96.1432C529.885 96.404 529.885 96.4843 529.605 96.7451C529.444 96.9056 529.163 97.046 529.003 97.046C528.822 97.046 528.682 97.1262 528.682 97.2466C528.682 97.367 527.94 97.4472 526.876 97.4472C525.813 97.4472 525.071 97.367 525.071 97.2466C525.071 97.1262 524.93 97.046 524.75 97.046C524.589 97.046 524.308 96.9056 524.148 96.7451C523.867 96.4843 523.867 96.404 524.148 96.1432C524.308 95.9827 524.589 95.8423 524.75 95.8423C524.93 95.8423 525.071 95.742 525.071 95.6417C525.071 95.5213 525.813 95.4411 526.876 95.4411C527.94 95.4411 528.682 95.5213 528.682 95.6417ZM513.435 102.864C513.435 102.964 513.555 103.064 513.716 103.064C513.856 103.064 514.258 103.325 514.599 103.666C514.96 103.987 515.381 104.268 515.542 104.268C515.702 104.268 515.842 104.348 515.842 104.469C515.842 104.569 516.023 104.669 516.244 104.669C516.464 104.669 516.645 104.75 516.645 104.87C516.645 104.97 517.086 105.071 517.648 105.071C518.771 105.071 519.795 104.589 520.697 103.626L521.259 103.024L521.821 103.626C522.724 104.589 523.747 105.071 524.87 105.071C525.432 105.071 525.873 104.97 525.873 104.87C525.873 104.75 526.054 104.669 526.274 104.669C526.495 104.669 526.676 104.569 526.676 104.469C526.676 104.348 526.836 104.268 527.037 104.268C527.237 104.268 527.518 104.088 527.679 103.867C527.839 103.646 528.06 103.466 528.18 103.466C528.301 103.466 528.602 103.285 528.862 103.044C529.444 102.503 529.645 102.703 529.103 103.285C528.862 103.546 528.682 103.847 528.682 103.967C528.682 104.088 528.501 104.308 528.281 104.469C528.06 104.629 527.879 104.87 527.879 105.03C527.879 105.392 526.956 106.274 526.575 106.274C526.415 106.274 526.274 106.355 526.274 106.475C526.274 106.575 526.094 106.675 525.873 106.675C525.652 106.675 525.472 106.756 525.472 106.876C525.472 106.996 524.95 107.077 524.288 107.077C523.626 107.077 523.024 106.976 522.964 106.876C522.904 106.756 522.623 106.675 522.342 106.675C522.082 106.675 521.861 106.575 521.861 106.475C521.861 106.355 521.6 106.274 521.259 106.274C520.938 106.274 520.657 106.355 520.657 106.475C520.657 106.575 520.437 106.675 520.176 106.675C519.895 106.675 519.614 106.756 519.554 106.876C519.494 106.976 518.892 107.077 518.23 107.077C517.568 107.077 517.046 106.996 517.046 106.876C517.046 106.756 516.866 106.675 516.645 106.675C516.424 106.675 516.244 106.575 516.244 106.475C516.244 106.355 516.103 106.274 515.943 106.274C515.562 106.274 514.639 105.392 514.639 105.051C514.639 104.93 514.478 104.669 514.278 104.489C514.097 104.308 513.816 103.927 513.656 103.606C513.495 103.305 513.295 103.064 513.194 103.064C513.114 103.064 513.034 102.964 513.034 102.864C513.034 102.743 513.134 102.663 513.234 102.663C513.355 102.663 513.435 102.743 513.435 102.864ZM522.663 112.393C522.663 113.637 522.623 113.757 521.961 114.419L521.259 115.121L520.557 114.419C519.895 113.757 519.855 113.637 519.855 112.393V111.089H521.259H522.663V112.393Z" fill="url(#paint38_linear_1388_9303)"/>
<path d="M241.979 -26.6847C241.929 -26.6018 241.515 -26.5188 241.05 -26.5188C240.602 -26.5188 240.238 -26.4525 240.238 -26.353C240.238 -26.27 239.939 -26.1871 239.574 -26.1871C239.209 -26.1871 238.911 -26.1208 238.911 -26.0212C238.911 -25.9383 238.695 -25.8554 238.43 -25.8554C238.148 -25.8554 237.882 -25.789 237.833 -25.6895C237.783 -25.6066 237.551 -25.5237 237.318 -25.5237C237.103 -25.5237 236.92 -25.4573 236.92 -25.3578C236.92 -25.2749 236.771 -25.1919 236.605 -25.1919C236.423 -25.1919 236.224 -25.1256 236.174 -25.0261C236.124 -24.9431 235.942 -24.8602 235.793 -24.8602C235.643 -24.8602 235.312 -24.6778 235.063 -24.4622L234.598 -24.0807V-17.3302C234.598 -12.9514 234.648 -10.5962 234.764 -10.5962C234.864 -10.5962 234.93 -10.3806 234.93 -10.0986C234.93 -9.83326 235.013 -9.60105 235.096 -9.60105C235.195 -9.60105 235.262 -9.45178 235.262 -9.26933C235.262 -9.08688 235.345 -8.93761 235.428 -8.93761C235.527 -8.93761 235.593 -8.78833 235.593 -8.60589C235.593 -8.42344 235.676 -8.27417 235.759 -8.27417C235.859 -8.27417 235.925 -8.12489 235.925 -7.94245C235.925 -7.76 236.008 -7.61073 236.091 -7.61073C236.191 -7.61073 236.257 -7.47804 236.257 -7.31218C236.257 -7.14632 236.406 -6.91411 236.589 -6.78142C236.771 -6.64873 236.92 -6.4497 236.92 -6.3336C236.92 -6.2175 237.153 -5.88578 237.418 -5.58723C237.7 -5.30526 237.916 -5.00672 237.916 -4.92379C237.916 -4.74134 239.69 -2.96663 239.873 -2.96663C239.956 -2.96663 240.254 -2.73443 240.536 -2.46905C240.835 -2.18709 241.166 -1.97147 241.283 -1.97147C241.399 -1.97147 241.598 -1.82219 241.73 -1.63975C241.863 -1.4573 242.095 -1.30803 242.261 -1.30803C242.427 -1.30803 242.56 -1.24168 242.56 -1.14217C242.56 -1.05924 242.709 -0.976306 242.891 -0.976306C243.074 -0.976306 243.223 -0.909962 243.223 -0.810445C243.223 -0.727515 243.455 -0.644585 243.721 -0.644585C244.003 -0.644585 244.218 -0.578241 244.218 -0.478724C244.218 -0.395794 244.45 -0.312864 244.716 -0.312864C244.998 -0.312864 245.213 -0.24652 245.213 -0.147003C245.213 -0.0640731 245.396 0.0188572 245.628 0.0188572C245.86 0.0188572 246.192 0.118373 246.374 0.21789C246.64 0.38375 246.772 0.38375 247.038 0.21789C247.22 0.118373 247.552 0.0188572 247.784 0.0188572C248.016 0.0188572 248.199 -0.0640731 248.199 -0.147003C248.199 -0.24652 248.431 -0.312864 248.696 -0.312864C248.978 -0.312864 249.194 -0.395794 249.194 -0.478724C249.194 -0.578241 249.426 -0.644585 249.692 -0.644585C249.974 -0.644585 250.189 -0.727515 250.189 -0.810445C250.189 -0.909962 250.338 -0.976306 250.521 -0.976306C250.703 -0.976306 250.853 -1.05924 250.853 -1.14217C250.853 -1.24168 250.985 -1.30803 251.151 -1.30803C251.317 -1.30803 251.549 -1.4573 251.682 -1.63975C251.815 -1.82219 252.014 -1.97147 252.13 -1.97147C252.246 -1.97147 252.578 -2.20367 252.876 -2.46905C253.158 -2.75101 253.457 -2.96663 253.54 -2.96663C253.722 -2.96663 255.497 -4.74134 255.497 -4.92379C255.497 -5.00672 255.729 -5.30526 255.994 -5.58723C256.276 -5.88578 256.492 -6.2175 256.492 -6.3336C256.492 -6.4497 256.641 -6.64873 256.824 -6.78142C257.006 -6.91411 257.155 -7.14632 257.155 -7.31218C257.155 -7.47804 257.238 -7.61073 257.321 -7.61073C257.421 -7.61073 257.487 -7.76 257.487 -7.94245C257.487 -8.12489 257.57 -8.27417 257.653 -8.27417C257.752 -8.27417 257.819 -8.42344 257.819 -8.60589C257.819 -8.78833 257.902 -8.93761 257.985 -8.93761C258.084 -8.93761 258.151 -9.08688 258.151 -9.26933C258.151 -9.45178 258.233 -9.60105 258.316 -9.60105C258.416 -9.60105 258.482 -9.83326 258.482 -10.0986C258.482 -10.3806 258.565 -10.5962 258.648 -10.5962C258.764 -10.5962 258.814 -12.9514 258.814 -17.3302C258.814 -22.8201 258.764 -24.0973 258.582 -24.2797C258.217 -24.6612 257.172 -25.1919 256.824 -25.1919C256.641 -25.1919 256.492 -25.2749 256.492 -25.3578C256.492 -25.4573 256.309 -25.5237 256.094 -25.5237C255.862 -25.5237 255.629 -25.6066 255.58 -25.6895C255.53 -25.789 255.265 -25.8554 254.983 -25.8554C254.717 -25.8554 254.502 -25.9383 254.502 -26.0212C254.502 -26.1208 254.203 -26.1871 253.838 -26.1871C253.473 -26.1871 253.175 -26.27 253.175 -26.353C253.175 -26.4525 252.81 -26.5188 252.362 -26.5188C251.898 -26.5188 251.483 -26.6018 251.433 -26.6847C251.367 -26.7842 249.609 -26.8505 246.706 -26.8505C243.804 -26.8505 242.045 -26.7842 241.979 -26.6847ZM241.813 -23.0357C241.863 -22.9528 242.211 -22.8699 242.576 -22.8699C242.925 -22.8699 243.223 -22.8035 243.223 -22.704C243.223 -22.6211 243.372 -22.5382 243.555 -22.5382C243.737 -22.5382 243.887 -22.4718 243.887 -22.3723C243.887 -22.2894 244.003 -22.2064 244.152 -22.2064C244.517 -22.2064 244.882 -21.7918 244.882 -21.3771C244.882 -20.4981 243.936 -20.2825 243.256 -21.0123C243.007 -21.261 242.609 -21.5596 242.361 -21.6923C242.095 -21.825 241.896 -21.9908 241.896 -22.0738C241.896 -22.1401 241.681 -22.2064 241.399 -22.2064C241.133 -22.2064 240.901 -22.2894 240.901 -22.3723C240.901 -22.4718 240.685 -22.5382 240.403 -22.5382C240.138 -22.5382 239.906 -22.6211 239.906 -22.704C239.906 -22.8035 240.138 -22.8699 240.403 -22.8699C240.685 -22.8699 240.901 -22.9528 240.901 -23.0357C240.901 -23.1353 241.083 -23.2016 241.299 -23.2016C241.531 -23.2016 241.764 -23.1353 241.813 -23.0357ZM252.511 -23.0357C252.511 -22.9528 252.743 -22.8699 253.009 -22.8699C253.291 -22.8699 253.506 -22.8035 253.506 -22.704C253.506 -22.6211 253.291 -22.5382 253.009 -22.5382C252.743 -22.5382 252.511 -22.4718 252.511 -22.3723C252.511 -22.2894 252.296 -22.2064 252.014 -22.2064C251.748 -22.2064 251.516 -22.1401 251.516 -22.0738C251.516 -21.9908 251.317 -21.825 251.068 -21.6923C250.803 -21.5596 250.405 -21.261 250.156 -21.0123C249.675 -20.4981 249.128 -20.4152 248.763 -20.78C248.298 -21.261 248.63 -22.2064 249.26 -22.2064C249.41 -22.2064 249.526 -22.2894 249.526 -22.3723C249.526 -22.4718 249.675 -22.5382 249.857 -22.5382C250.04 -22.5382 250.189 -22.6211 250.189 -22.704C250.189 -22.8035 250.488 -22.8699 250.836 -22.8699C251.201 -22.8699 251.549 -22.9528 251.599 -23.0357C251.649 -23.1353 251.881 -23.2016 252.113 -23.2016C252.329 -23.2016 252.511 -23.1353 252.511 -23.0357ZM243.555 -18.0599C243.555 -17.977 243.671 -17.8941 243.82 -17.8941C243.953 -17.8941 244.185 -17.778 244.318 -17.6453C244.55 -17.4297 244.55 -17.3633 244.318 -17.1477C244.185 -17.015 243.953 -16.8989 243.82 -16.8989C243.671 -16.8989 243.555 -16.8326 243.555 -16.7331C243.555 -16.6335 242.941 -16.5672 242.062 -16.5672C241.183 -16.5672 240.569 -16.6335 240.569 -16.7331C240.569 -16.8326 240.453 -16.8989 240.304 -16.8989C240.171 -16.8989 239.939 -17.015 239.806 -17.1477C239.574 -17.3633 239.574 -17.4297 239.806 -17.6453C239.939 -17.778 240.171 -17.8941 240.304 -17.8941C240.453 -17.8941 240.569 -17.977 240.569 -18.0599C240.569 -18.1595 241.183 -18.2258 242.062 -18.2258C242.941 -18.2258 243.555 -18.1595 243.555 -18.0599ZM252.843 -18.0599C252.843 -17.977 252.959 -17.8941 253.108 -17.8941C253.241 -17.8941 253.473 -17.778 253.606 -17.6453C253.838 -17.4297 253.838 -17.3633 253.606 -17.1477C253.473 -17.015 253.241 -16.8989 253.108 -16.8989C252.959 -16.8989 252.843 -16.8326 252.843 -16.7331C252.843 -16.6335 252.229 -16.5672 251.35 -16.5672C250.471 -16.5672 249.857 -16.6335 249.857 -16.7331C249.857 -16.8326 249.741 -16.8989 249.592 -16.8989C249.459 -16.8989 249.227 -17.015 249.095 -17.1477C248.862 -17.3633 248.862 -17.4297 249.095 -17.6453C249.227 -17.778 249.459 -17.8941 249.592 -17.8941C249.741 -17.8941 249.857 -17.977 249.857 -18.0599C249.857 -18.1595 250.471 -18.2258 251.35 -18.2258C252.229 -18.2258 252.843 -18.1595 252.843 -18.0599ZM240.238 -12.089C240.238 -12.006 240.337 -11.9231 240.47 -11.9231C240.586 -11.9231 240.918 -11.7075 241.2 -11.4255C241.498 -11.1601 241.846 -10.9279 241.979 -10.9279C242.112 -10.9279 242.228 -10.8616 242.228 -10.7621C242.228 -10.6791 242.377 -10.5962 242.56 -10.5962C242.742 -10.5962 242.891 -10.5299 242.891 -10.4304C242.891 -10.3474 243.256 -10.2645 243.721 -10.2645C244.649 -10.2645 245.495 -10.6626 246.242 -11.4587L246.706 -11.9563L247.171 -11.4587C247.917 -10.6626 248.763 -10.2645 249.692 -10.2645C250.156 -10.2645 250.521 -10.3474 250.521 -10.4304C250.521 -10.5299 250.67 -10.5962 250.853 -10.5962C251.035 -10.5962 251.184 -10.6791 251.184 -10.7621C251.184 -10.8616 251.317 -10.9279 251.483 -10.9279C251.649 -10.9279 251.881 -11.0772 252.014 -11.2597C252.146 -11.4421 252.329 -11.5914 252.428 -11.5914C252.528 -11.5914 252.777 -11.7407 252.992 -11.9397C253.473 -12.3875 253.639 -12.2216 253.191 -11.7407C252.992 -11.525 252.843 -11.2762 252.843 -11.1767C252.843 -11.0772 252.694 -10.8948 252.511 -10.7621C252.329 -10.6294 252.18 -10.4304 252.18 -10.2977C252.18 -9.99912 251.417 -9.26933 251.101 -9.26933C250.969 -9.26933 250.853 -9.20299 250.853 -9.10347C250.853 -9.02054 250.703 -8.93761 250.521 -8.93761C250.338 -8.93761 250.189 -8.87127 250.189 -8.77175C250.189 -8.67223 249.758 -8.60589 249.211 -8.60589C248.663 -8.60589 248.166 -8.68882 248.116 -8.77175C248.066 -8.87127 247.834 -8.93761 247.602 -8.93761C247.386 -8.93761 247.204 -9.02054 247.204 -9.10347C247.204 -9.20299 246.988 -9.26933 246.706 -9.26933C246.441 -9.26933 246.209 -9.20299 246.209 -9.10347C246.209 -9.02054 246.026 -8.93761 245.81 -8.93761C245.578 -8.93761 245.346 -8.87127 245.296 -8.77175C245.247 -8.68882 244.749 -8.60589 244.202 -8.60589C243.654 -8.60589 243.223 -8.67223 243.223 -8.77175C243.223 -8.87127 243.074 -8.93761 242.891 -8.93761C242.709 -8.93761 242.56 -9.02054 242.56 -9.10347C242.56 -9.20299 242.444 -9.26933 242.311 -9.26933C241.996 -9.26933 241.233 -9.99912 241.233 -10.2811C241.233 -10.3806 241.1 -10.5962 240.934 -10.7455C240.785 -10.8948 240.553 -11.2099 240.42 -11.4753C240.287 -11.7241 240.121 -11.9231 240.039 -11.9231C239.972 -11.9231 239.906 -12.006 239.906 -12.089C239.906 -12.1885 239.989 -12.2548 240.072 -12.2548C240.171 -12.2548 240.238 -12.1885 240.238 -12.089ZM247.867 -4.21059C247.867 -3.18225 247.834 -3.08273 247.287 -2.53539L246.706 -1.95488L246.126 -2.53539C245.578 -3.08273 245.545 -3.18225 245.545 -4.21059V-5.28868H246.706H247.867V-4.21059Z" fill="url(#paint39_linear_1388_9303)"/>
</g>
</g>
<defs>
<filter id="filter0_b_1388_9303" x="-28" y="-28" width="691" height="355" filterUnits="userSpaceOnUse" color-interpolation-filters="sRGB">
<feFlood flood-opacity="0" result="BackgroundImageFix"/>
<feGaussianBlur in="BackgroundImageFix" stdDeviation="14"/>
<feComposite in2="SourceAlpha" operator="in" result="effect1_backgroundBlur_1388_9303"/>
<feBlend mode="normal" in="SourceGraphic" in2="effect1_backgroundBlur_1388_9303" result="shape"/>
</filter>
<filter id="filter1_b_1388_9303" x="49.34" y="28.144" width="119.66" height="119.66" filterUnits="userSpaceOnUse" color-interpolation-filters="sRGB">
<feFlood flood-opacity="0" result="BackgroundImageFix"/>
<feGaussianBlur in="BackgroundImageFix" stdDeviation="14"/>
<feComposite in2="SourceAlpha" operator="in" result="effect1_backgroundBlur_1388_9303"/>
<feBlend mode="normal" in="SourceGraphic" in2="effect1_backgroundBlur_1388_9303" result="shape"/>
</filter>
<filter id="filter2_b_1388_9303" x="372.276" y="-47.1826" width="134.403" height="134.403" filterUnits="userSpaceOnUse" color-interpolation-filters="sRGB">
<feFlood flood-opacity="0" result="BackgroundImageFix"/>
<feGaussianBlur in="BackgroundImageFix" stdDeviation="17.6008"/>
<feComposite in2="SourceAlpha" operator="in" result="effect1_backgroundBlur_1388_9303"/>
<feBlend mode="normal" in="SourceGraphic" in2="effect1_backgroundBlur_1388_9303" result="shape"/>
</filter>
<filter id="filter3_b_1388_9303" x="239.256" y="-18.6299" width="120" height="120" filterUnits="userSpaceOnUse" color-interpolation-filters="sRGB">
<feFlood flood-opacity="0" result="BackgroundImageFix"/>
<feGaussianBlur in="BackgroundImageFix" stdDeviation="14"/>
<feComposite in2="SourceAlpha" operator="in" result="effect1_backgroundBlur_1388_9303"/>
<feBlend mode="normal" in="SourceGraphic" in2="effect1_backgroundBlur_1388_9303" result="shape"/>
</filter>
<filter id="filter4_b_1388_9303" x="144" y="75.5361" width="120" height="120" filterUnits="userSpaceOnUse" color-interpolation-filters="sRGB">
<feFlood flood-opacity="0" result="BackgroundImageFix"/>
<feGaussianBlur in="BackgroundImageFix" stdDeviation="14"/>
<feComposite in2="SourceAlpha" operator="in" result="effect1_backgroundBlur_1388_9303"/>
<feBlend mode="normal" in="SourceGraphic" in2="effect1_backgroundBlur_1388_9303" result="shape"/>
</filter>
<filter id="filter5_b_1388_9303" x="60.6073" y="162.271" width="106.907" height="106.907" filterUnits="userSpaceOnUse" color-interpolation-filters="sRGB">
<feFlood flood-opacity="0" result="BackgroundImageFix"/>
<feGaussianBlur in="BackgroundImageFix" stdDeviation="14"/>
<feComposite in2="SourceAlpha" operator="in" result="effect1_backgroundBlur_1388_9303"/>
<feBlend mode="normal" in="SourceGraphic" in2="effect1_backgroundBlur_1388_9303" result="shape"/>
</filter>
<filter id="filter6_b_1388_9303" x="54.1164" y="201.014" width="106.907" height="106.907" filterUnits="userSpaceOnUse" color-interpolation-filters="sRGB">
<feFlood flood-opacity="0" result="BackgroundImageFix"/>
<feGaussianBlur in="BackgroundImageFix" stdDeviation="14"/>
<feComposite in2="SourceAlpha" operator="in" result="effect1_backgroundBlur_1388_9303"/>
<feBlend mode="normal" in="SourceGraphic" in2="effect1_backgroundBlur_1388_9303" result="shape"/>
</filter>
<filter id="filter7_b_1388_9303" x="457.932" y="150.408" width="106.907" height="106.907" filterUnits="userSpaceOnUse" color-interpolation-filters="sRGB">
<feFlood flood-opacity="0" result="BackgroundImageFix"/>
<feGaussianBlur in="BackgroundImageFix" stdDeviation="14"/>
<feComposite in2="SourceAlpha" operator="in" result="effect1_backgroundBlur_1388_9303"/>
<feBlend mode="normal" in="SourceGraphic" in2="effect1_backgroundBlur_1388_9303" result="shape"/>
</filter>
<filter id="filter8_b_1388_9303" x="462.786" y="39.5615" width="117.784" height="117.784" filterUnits="userSpaceOnUse" color-interpolation-filters="sRGB">
<feFlood flood-opacity="0" result="BackgroundImageFix"/>
<feGaussianBlur in="BackgroundImageFix" stdDeviation="14"/>
<feComposite in2="SourceAlpha" operator="in" result="effect1_backgroundBlur_1388_9303"/>
<feBlend mode="normal" in="SourceGraphic" in2="effect1_backgroundBlur_1388_9303" result="shape"/>
</filter>
<filter id="filter9_b_1388_9303" x="193.542" y="-66.3765" width="106.907" height="106.907" filterUnits="userSpaceOnUse" color-interpolation-filters="sRGB">
<feFlood flood-opacity="0" result="BackgroundImageFix"/>
<feGaussianBlur in="BackgroundImageFix" stdDeviation="14"/>
<feComposite in2="SourceAlpha" operator="in" result="effect1_backgroundBlur_1388_9303"/>
<feBlend mode="normal" in="SourceGraphic" in2="effect1_backgroundBlur_1388_9303" result="shape"/>
</filter>
<filter id="filter10_b_1388_9303" x="191.495" y="110.074" width="253.314" height="253.314" filterUnits="userSpaceOnUse" color-interpolation-filters="sRGB">
<feFlood flood-opacity="0" result="BackgroundImageFix"/>
<feGaussianBlur in="BackgroundImageFix" stdDeviation="14"/>
<feComposite in2="SourceAlpha" operator="in" result="effect1_backgroundBlur_1388_9303"/>
<feBlend mode="normal" in="SourceGraphic" in2="effect1_backgroundBlur_1388_9303" result="shape"/>
</filter>
<filter id="filter11_f_1388_9303" x="191.495" y="110.074" width="253.314" height="253.314" filterUnits="userSpaceOnUse" color-interpolation-filters="sRGB">
<feFlood flood-opacity="0" result="BackgroundImageFix"/>
<feBlend mode="normal" in="SourceGraphic" in2="BackgroundImageFix" result="shape"/>
<feGaussianBlur stdDeviation="14" result="effect1_foregroundBlur_1388_9303"/>
</filter>
<filter id="filter12_b_1388_9303" x="227.202" y="145.781" width="181.901" height="181.901" filterUnits="userSpaceOnUse" color-interpolation-filters="sRGB">
<feFlood flood-opacity="0" result="BackgroundImageFix"/>
<feGaussianBlur in="BackgroundImageFix" stdDeviation="14"/>
<feComposite in2="SourceAlpha" operator="in" result="effect1_backgroundBlur_1388_9303"/>
<feBlend mode="normal" in="SourceGraphic" in2="effect1_backgroundBlur_1388_9303" result="shape"/>
</filter>
<filter id="filter13_b_1388_9303" x="227.202" y="145.781" width="181.901" height="181.901" filterUnits="userSpaceOnUse" color-interpolation-filters="sRGB">
<feFlood flood-opacity="0" result="BackgroundImageFix"/>
<feGaussianBlur in="BackgroundImageFix" stdDeviation="14"/>
<feComposite in2="SourceAlpha" operator="in" result="effect1_backgroundBlur_1388_9303"/>
<feBlend mode="normal" in="SourceGraphic" in2="effect1_backgroundBlur_1388_9303" result="shape"/>
</filter>
<linearGradient id="paint0_linear_1388_9303" x1="299.358" y1="-5.55982e-05" x2="296.474" y2="299.098" gradientUnits="userSpaceOnUse">
<stop stop-color="white" stop-opacity="0.01"/>
<stop offset="1" stop-color="white" stop-opacity="0.04"/>
</linearGradient>
<radialGradient id="paint1_radial_1388_9303" cx="0" cy="0" r="1" gradientUnits="userSpaceOnUse" gradientTransform="translate(317.5 10.9696) rotate(86.817) scale(182.601 387.798)">
<stop offset="0.0655707" stop-color="#7976FF"/>
<stop offset="0.585" stop-color="#4340FF"/>
<stop offset="1" stop-color="#6355FF" stop-opacity="0"/>
</radialGradient>
<linearGradient id="paint2_linear_1388_9303" x1="317.5" y1="0" x2="317.5" y2="299" gradientUnits="userSpaceOnUse">
<stop stop-color="#EFF6FF" stop-opacity="0.11"/>
<stop offset="1" stop-color="white" stop-opacity="0"/>
</linearGradient>
<radialGradient id="paint3_radial_1388_9303" cx="0" cy="0" r="1" gradientUnits="userSpaceOnUse" gradientTransform="translate(315.67) rotate(88.5669) scale(73.1867 155.43)">
<stop stop-color="white"/>
<stop offset="1" stop-color="white" stop-opacity="0"/>
</radialGradient>
<radialGradient id="paint4_radial_1388_9303" cx="0" cy="0" r="1" gradientUnits="userSpaceOnUse" gradientTransform="translate(317.5 149.5) rotate(90) scale(149.5 317.5)">
<stop stop-color="white"/>
<stop offset="0.629055" stop-color="white"/>
<stop offset="1" stop-color="white" stop-opacity="0"/>
</radialGradient>
<linearGradient id="paint5_linear_1388_9303" x1="317.5" y1="0" x2="317.5" y2="299" gradientUnits="userSpaceOnUse">
<stop stop-color="#EFF6FF" stop-opacity="0.11"/>
<stop offset="1" stop-color="white" stop-opacity="0"/>
</linearGradient>
<linearGradient id="paint6_linear_1388_9303" x1="317.5" y1="-8" x2="317.5" y2="492" gradientUnits="userSpaceOnUse">
<stop stop-color="white" stop-opacity="0"/>
<stop offset="0.365" stop-color="white" stop-opacity="0.2"/>
<stop offset="0.615" stop-color="white" stop-opacity="0.2"/>
<stop offset="0.9" stop-color="white" stop-opacity="0"/>
</linearGradient>
<linearGradient id="paint7_linear_1388_9303" x1="107.351" y1="56.144" x2="106.048" y2="119.804" gradientUnits="userSpaceOnUse">
<stop stop-color="white" stop-opacity="0.06"/>
<stop offset="1" stop-color="white" stop-opacity="0.07"/>
</linearGradient>
<linearGradient id="paint8_linear_1388_9303" x1="109.17" y1="56.144" x2="109.17" y2="119.804" gradientUnits="userSpaceOnUse">
<stop stop-color="#EFF6FF" stop-opacity="0.15"/>
<stop offset="1" stop-color="white" stop-opacity="0"/>
</linearGradient>
<linearGradient id="paint9_linear_1388_9303" x1="437.65" y1="-11.981" x2="436.339" y2="52.019" gradientUnits="userSpaceOnUse">
<stop stop-color="white" stop-opacity="0.06"/>
<stop offset="1" stop-color="white" stop-opacity="0.07"/>
</linearGradient>
<linearGradient id="paint10_linear_1388_9303" x1="439.478" y1="-11.981" x2="439.478" y2="52.019" gradientUnits="userSpaceOnUse">
<stop stop-color="#EFF6FF" stop-opacity="0.15"/>
<stop offset="1" stop-color="white" stop-opacity="0"/>
</linearGradient>
<linearGradient id="paint11_linear_1388_9303" x1="297.428" y1="9.37011" x2="296.117" y2="73.3701" gradientUnits="userSpaceOnUse">
<stop stop-color="white" stop-opacity="0.06"/>
<stop offset="1" stop-color="white" stop-opacity="0.07"/>
</linearGradient>
<linearGradient id="paint12_linear_1388_9303" x1="299.256" y1="9.37012" x2="299.256" y2="73.3701" gradientUnits="userSpaceOnUse">
<stop stop-color="#EFF6FF" stop-opacity="0.15"/>
<stop offset="1" stop-color="white" stop-opacity="0"/>
</linearGradient>
<linearGradient id="paint13_linear_1388_9303" x1="202.172" y1="103.536" x2="200.861" y2="167.536" gradientUnits="userSpaceOnUse">
<stop stop-color="white" stop-opacity="0.06"/>
<stop offset="1" stop-color="white" stop-opacity="0.07"/>
</linearGradient>
<linearGradient id="paint14_linear_1388_9303" x1="204" y1="103.536" x2="204" y2="167.536" gradientUnits="userSpaceOnUse">
<stop stop-color="#EFF6FF" stop-opacity="0.15"/>
<stop offset="1" stop-color="white" stop-opacity="0"/>
</linearGradient>
<linearGradient id="paint15_linear_1388_9303" x1="112.606" y1="190.271" x2="111.564" y2="241.178" gradientUnits="userSpaceOnUse">
<stop stop-color="white" stop-opacity="0.06"/>
<stop offset="1" stop-color="white" stop-opacity="0.07"/>
</linearGradient>
<linearGradient id="paint16_linear_1388_9303" x1="114.061" y1="190.271" x2="114.061" y2="241.178" gradientUnits="userSpaceOnUse">
<stop stop-color="#EFF6FF" stop-opacity="0.15"/>
<stop offset="1" stop-color="white" stop-opacity="0"/>
</linearGradient>
<linearGradient id="paint17_linear_1388_9303" x1="106.115" y1="229.014" x2="105.073" y2="279.92" gradientUnits="userSpaceOnUse">
<stop stop-color="white" stop-opacity="0.06"/>
<stop offset="1" stop-color="white" stop-opacity="0.07"/>
</linearGradient>
<linearGradient id="paint18_linear_1388_9303" x1="107.57" y1="229.014" x2="107.57" y2="279.92" gradientUnits="userSpaceOnUse">
<stop stop-color="#EFF6FF" stop-opacity="0.15"/>
<stop offset="1" stop-color="white" stop-opacity="0"/>
</linearGradient>
<linearGradient id="paint19_linear_1388_9303" x1="509.931" y1="178.408" x2="508.889" y2="229.315" gradientUnits="userSpaceOnUse">
<stop stop-color="white" stop-opacity="0.06"/>
<stop offset="1" stop-color="white" stop-opacity="0.07"/>
</linearGradient>
<linearGradient id="paint20_linear_1388_9303" x1="511.385" y1="178.408" x2="511.385" y2="229.315" gradientUnits="userSpaceOnUse">
<stop stop-color="#EFF6FF" stop-opacity="0.15"/>
<stop offset="1" stop-color="white" stop-opacity="0"/>
</linearGradient>
<linearGradient id="paint21_linear_1388_9303" x1="519.913" y1="67.5615" x2="518.648" y2="129.345" gradientUnits="userSpaceOnUse">
<stop stop-color="white" stop-opacity="0.06"/>
<stop offset="1" stop-color="white" stop-opacity="0.07"/>
</linearGradient>
<linearGradient id="paint22_linear_1388_9303" x1="521.678" y1="67.5615" x2="521.678" y2="129.345" gradientUnits="userSpaceOnUse">
<stop stop-color="#EFF6FF" stop-opacity="0.15"/>
<stop offset="1" stop-color="white" stop-opacity="0"/>
</linearGradient>
<linearGradient id="paint23_linear_1388_9303" x1="246.995" y1="-38.3765" x2="246.995" y2="12.5303" gradientUnits="userSpaceOnUse">
<stop stop-color="#EFF6FF" stop-opacity="0.15"/>
<stop offset="1" stop-color="white" stop-opacity="0"/>
</linearGradient>
<linearGradient id="paint24_linear_1388_9303" x1="312.515" y1="138.074" x2="308.475" y2="335.388" gradientUnits="userSpaceOnUse">
<stop stop-color="white" stop-opacity="0.06"/>
<stop offset="1" stop-color="white" stop-opacity="0.07"/>
</linearGradient>
<radialGradient id="paint25_radial_1388_9303" cx="0" cy="0" r="1" gradientUnits="userSpaceOnUse" gradientTransform="translate(318.152 236.731) rotate(90) scale(80.495 166.349)">
<stop stop-color="#9E00FF"/>
<stop offset="1" stop-color="#FF4646" stop-opacity="0"/>
</radialGradient>
<linearGradient id="paint26_linear_1388_9303" x1="318.152" y1="138.074" x2="318.152" y2="335.388" gradientUnits="userSpaceOnUse">
<stop stop-color="#FFE3E3" stop-opacity="0"/>
<stop offset="0.605" stop-color="#3757FF"/>
<stop offset="1" stop-color="white" stop-opacity="0"/>
</linearGradient>
<radialGradient id="paint27_radial_1388_9303" cx="0" cy="0" r="1" gradientUnits="userSpaceOnUse" gradientTransform="translate(318.152 236.731) rotate(90) scale(80.495 166.349)">
<stop stop-color="#1400FF"/>
<stop offset="1" stop-color="#0045F6" stop-opacity="0"/>
</radialGradient>
<linearGradient id="paint28_linear_1388_9303" x1="318.152" y1="138.074" x2="318.152" y2="335.388" gradientUnits="userSpaceOnUse">
<stop stop-color="#FFE3E3" stop-opacity="0"/>
<stop offset="0.51" stop-color="#1620FF"/>
<stop offset="1" stop-color="white" stop-opacity="0"/>
</linearGradient>
<radialGradient id="paint29_radial_1388_9303" cx="0" cy="0" r="1" gradientUnits="userSpaceOnUse" gradientTransform="translate(313.266 236.731) rotate(91.173) scale(62.9636 3411.82)">
<stop stop-color="white" stop-opacity="0"/>
<stop offset="1" stop-color="#F2FBFD" stop-opacity="0.59"/>
</radialGradient>
<linearGradient id="paint30_linear_1388_9303" x1="318.152" y1="173.781" x2="318.152" y2="299.682" gradientUnits="userSpaceOnUse">
<stop stop-color="#EFF6FF" stop-opacity="0.15"/>
<stop offset="1" stop-color="white" stop-opacity="0"/>
</linearGradient>
<radialGradient id="paint31_radial_1388_9303" cx="0" cy="0" r="1" gradientUnits="userSpaceOnUse" gradientTransform="translate(313.266 236.731) rotate(91.173) scale(62.9636 3411.82)">
<stop stop-color="#385AD1"/>
<stop offset="1" stop-color="#291794" stop-opacity="0"/>
</radialGradient>
<linearGradient id="paint32_linear_1388_9303" x1="108.917" y1="107.327" x2="108.917" y2="74.4363" gradientUnits="userSpaceOnUse">
<stop stop-color="#96A6CE" stop-opacity="0.2"/>
<stop offset="0.78" stop-color="#6678A7"/>
</linearGradient>
<linearGradient id="paint33_linear_1388_9303" x1="202.963" y1="152.974" x2="202.963" y2="120.083" gradientUnits="userSpaceOnUse">
<stop stop-color="#96A6CE" stop-opacity="0.2"/>
<stop offset="0.78" stop-color="#6678A7"/>
</linearGradient>
<linearGradient id="paint34_linear_1388_9303" x1="114.259" y1="230.324" x2="114.259" y2="204.501" gradientUnits="userSpaceOnUse">
<stop stop-color="#96A6CE" stop-opacity="0.2"/>
<stop offset="0.78" stop-color="#6678A7"/>
</linearGradient>
<linearGradient id="paint35_linear_1388_9303" x1="299.256" y1="59.1328" x2="299.256" y2="26.242" gradientUnits="userSpaceOnUse">
<stop stop-color="#96A6CE" stop-opacity="0.2"/>
<stop offset="0.78" stop-color="#6678A7"/>
</linearGradient>
<linearGradient id="paint36_linear_1388_9303" x1="438.985" y1="37.854" x2="438.985" y2="4.96319" gradientUnits="userSpaceOnUse">
<stop stop-color="#96A6CE" stop-opacity="0.2"/>
<stop offset="0.78" stop-color="#6678A7"/>
</linearGradient>
<linearGradient id="paint37_linear_1388_9303" x1="512.259" y1="217.311" x2="512.259" y2="191.514" gradientUnits="userSpaceOnUse">
<stop stop-color="#96A6CE" stop-opacity="0.2"/>
<stop offset="0.78" stop-color="#6678A7"/>
</linearGradient>
<linearGradient id="paint38_linear_1388_9303" x1="521.259" y1="117.9" x2="521.259" y2="85.0091" gradientUnits="userSpaceOnUse">
<stop stop-color="#96A6CE" stop-opacity="0.2"/>
<stop offset="0.78" stop-color="#6678A7"/>
</linearGradient>
<linearGradient id="paint39_linear_1388_9303" x1="246.706" y1="0.342285" x2="246.706" y2="-26.8505" gradientUnits="userSpaceOnUse">
<stop stop-color="#747474"/>
<stop offset="1" stop-color="#747474" stop-opacity="0"/>
</linearGradient>
</defs>
</svg>
