<svg width="48" height="601" viewBox="0 0 48 601" fill="none" xmlns="http://www.w3.org/2000/svg">
<circle cx="24" cy="5" r="4.5" stroke="white" stroke-opacity="0.2"/>
<rect x="22" y="17" width="4" height="310" fill="url(#paint0_linear_604_765)"/>
<rect x="22" y="367" width="4" height="234" fill="url(#paint1_linear_604_765)"/>
<g filter="url(#filter0_f_604_765)">
<circle cx="24" cy="347" r="12" fill="#7A24BF" fill-opacity="0.4"/>
</g>
<path d="M24 355.333C28.6024 355.333 32.3333 351.602 32.3333 347C32.3333 342.398 28.6024 338.667 24 338.667C19.3976 338.667 15.6667 342.398 15.6667 347C15.6667 351.602 19.3976 355.333 24 355.333Z" stroke="white" stroke-opacity="0.8" stroke-width="0.833333" stroke-linecap="round" stroke-linejoin="round"/>
<path d="M19.4167 349.083V344.917L21.9167 346.167L24 343.25L26.0833 346.167L28.5833 344.917V349.083H19.4167Z" stroke="white" stroke-opacity="0.8" stroke-width="0.833333" stroke-linecap="round" stroke-linejoin="round"/>
<defs>
<filter id="filter0_f_604_765" x="0" y="323" width="48" height="48" filterUnits="userSpaceOnUse" color-interpolation-filters="sRGB">
<feFlood flood-opacity="0" result="BackgroundImageFix"/>
<feBlend mode="normal" in="SourceGraphic" in2="BackgroundImageFix" result="shape"/>
<feGaussianBlur stdDeviation="6" result="effect1_foregroundBlur_604_765"/>
</filter>
<linearGradient id="paint0_linear_604_765" x1="24" y1="17" x2="24" y2="327" gradientUnits="userSpaceOnUse">
<stop stop-color="#8B3FC6" stop-opacity="0"/>
<stop offset="0.985" stop-color="#5A2485"/>
</linearGradient>
<linearGradient id="paint1_linear_604_765" x1="24" y1="367" x2="24" y2="601" gradientUnits="userSpaceOnUse">
<stop offset="0.215" stop-color="#6C29A0"/>
<stop offset="0.965" stop-color="#00AA51"/>
</linearGradient>
</defs>
</svg>
