<svg width="108" height="2344" viewBox="0 0 108 2344" fill="none" xmlns="http://www.w3.org/2000/svg">
<rect x="22" y="44" width="4" height="2300" fill="url(#paint0_linear_604_765)"/>
<g filter="url(#filter0_f_604_765)">
<circle cx="24" cy="24" r="12" fill="#00AA51" fill-opacity="0.2"/>
</g>
<path d="M21.5 16.5H17.3333C16.8731 16.5 16.5 16.8731 16.5 17.3333V21.5C16.5 21.9602 16.8731 22.3333 17.3333 22.3333H21.5C21.9602 22.3333 22.3333 21.9602 22.3333 21.5V17.3333C22.3333 16.8731 21.9602 16.5 21.5 16.5Z" stroke="white" stroke-opacity="0.85" stroke-width="0.833333" stroke-linejoin="round"/>
<path d="M21.5 25.6666H17.3333C16.8731 25.6666 16.5 26.0397 16.5 26.5V30.6666C16.5 31.1269 16.8731 31.5 17.3333 31.5H21.5C21.9602 31.5 22.3333 31.1269 22.3333 30.6666V26.5C22.3333 26.0397 21.9602 25.6666 21.5 25.6666Z" stroke="white" stroke-opacity="0.85" stroke-width="0.833333" stroke-linejoin="round"/>
<path d="M30.6667 16.5H26.5C26.0398 16.5 25.6667 16.8731 25.6667 17.3333V21.5C25.6667 21.9602 26.0398 22.3333 26.5 22.3333H30.6667C31.1269 22.3333 31.5 21.9602 31.5 21.5V17.3333C31.5 16.8731 31.1269 16.5 30.6667 16.5Z" stroke="white" stroke-opacity="0.85" stroke-width="0.833333" stroke-linejoin="round"/>
<path d="M30.6667 25.6666H26.5C26.0398 25.6666 25.6667 26.0397 25.6667 26.5V30.6666C25.6667 31.1269 26.0398 31.5 26.5 31.5H30.6667C31.1269 31.5 31.5 31.1269 31.5 30.6666V26.5C31.5 26.0397 31.1269 25.6666 30.6667 25.6666Z" stroke="white" stroke-opacity="0.85" stroke-width="0.833333" stroke-linejoin="round"/>
<path d="M25 462C41 522.5 69.5 521 79.5 568.5C79.5 622 79.5 665.5 79.5 709C79.5 752.5 44 760 25 823" stroke="url(#paint1_linear_604_765)" stroke-width="4"/>
<g filter="url(#filter1_d_604_765)">
<circle cx="80" cy="641" r="8" fill="#0D1116"/>
<circle cx="80" cy="641" r="6" stroke="white" stroke-width="4"/>
</g>
<defs>
<filter id="filter0_f_604_765" x="0" y="0" width="48" height="48" filterUnits="userSpaceOnUse" color-interpolation-filters="sRGB">
<feFlood flood-opacity="0" result="BackgroundImageFix"/>
<feBlend mode="normal" in="SourceGraphic" in2="BackgroundImageFix" result="shape"/>
<feGaussianBlur stdDeviation="6" result="effect1_foregroundBlur_604_765"/>
</filter>
<filter id="filter1_d_604_765" x="52" y="613" width="56" height="56" filterUnits="userSpaceOnUse" color-interpolation-filters="sRGB">
<feFlood flood-opacity="0" result="BackgroundImageFix"/>
<feColorMatrix in="SourceAlpha" type="matrix" values="0 0 0 0 0 0 0 0 0 0 0 0 0 0 0 0 0 0 127 0" result="hardAlpha"/>
<feOffset/>
<feGaussianBlur stdDeviation="10"/>
<feComposite in2="hardAlpha" operator="out"/>
<feColorMatrix type="matrix" values="0 0 0 0 1 0 0 0 0 1 0 0 0 0 1 0 0 0 0.85 0"/>
<feBlend mode="normal" in2="BackgroundImageFix" result="effect1_dropShadow_604_765"/>
<feBlend mode="normal" in="SourceGraphic" in2="effect1_dropShadow_604_765" result="shape"/>
</filter>
<linearGradient id="paint0_linear_604_765" x1="24" y1="44" x2="24" y2="2344" gradientUnits="userSpaceOnUse">
<stop stop-color="#33B3AE"/>
<stop offset="0.375" stop-color="#33B3AE"/>
<stop offset="1" stop-color="#F838AB"/>
</linearGradient>
<linearGradient id="paint1_linear_604_765" x1="100" y1="643" x2="25" y2="643" gradientUnits="userSpaceOnUse">
<stop stop-color="#33B3AE"/>
<stop offset="1" stop-color="#33B3AE" stop-opacity="0"/>
</linearGradient>
</defs>
</svg>
