<svg width="48" height="48" viewBox="0 0 48 48" fill="none" xmlns="http://www.w3.org/2000/svg">
<g filter="url(#filter0_f_803_1111)">
<circle cx="24" cy="24" r="12" fill="#00AA51" fill-opacity="0.2"/>
</g>
<path d="M21.5 16.5H17.3333C16.8731 16.5 16.5 16.8731 16.5 17.3333V21.5C16.5 21.9602 16.8731 22.3333 17.3333 22.3333H21.5C21.9602 22.3333 22.3333 21.9602 22.3333 21.5V17.3333C22.3333 16.8731 21.9602 16.5 21.5 16.5Z" stroke="white" stroke-opacity="0.85" stroke-width="0.833333" stroke-linejoin="round"/>
<path d="M21.5 25.6666H17.3333C16.8731 25.6666 16.5 26.0397 16.5 26.5V30.6666C16.5 31.1269 16.8731 31.5 17.3333 31.5H21.5C21.9602 31.5 22.3333 31.1269 22.3333 30.6666V26.5C22.3333 26.0397 21.9602 25.6666 21.5 25.6666Z" stroke="white" stroke-opacity="0.85" stroke-width="0.833333" stroke-linejoin="round"/>
<path d="M30.6667 16.5H26.5C26.0398 16.5 25.6667 16.8731 25.6667 17.3333V21.5C25.6667 21.9602 26.0398 22.3333 26.5 22.3333H30.6667C31.1269 22.3333 31.5 21.9602 31.5 21.5V17.3333C31.5 16.8731 31.1269 16.5 30.6667 16.5Z" stroke="white" stroke-opacity="0.85" stroke-width="0.833333" stroke-linejoin="round"/>
<path d="M30.6667 25.6666H26.5C26.0398 25.6666 25.6667 26.0397 25.6667 26.5V30.6666C25.6667 31.1269 26.0398 31.5 26.5 31.5H30.6667C31.1269 31.5 31.5 31.1269 31.5 30.6666V26.5C31.5 26.0397 31.1269 25.6666 30.6667 25.6666Z" stroke="white" stroke-opacity="0.85" stroke-width="0.833333" stroke-linejoin="round"/>
<defs>
<filter id="filter0_f_803_1111" x="0" y="0" width="48" height="48" filterUnits="userSpaceOnUse" color-interpolation-filters="sRGB">
<feFlood flood-opacity="0" result="BackgroundImageFix"/>
<feBlend mode="normal" in="SourceGraphic" in2="BackgroundImageFix" result="shape"/>
<feGaussianBlur stdDeviation="6" result="effect1_foregroundBlur_803_1111"/>
</filter>
</defs>
</svg>
