<svg width="48" height="1095" viewBox="0 0 48 1095" fill="none" xmlns="http://www.w3.org/2000/svg">
<rect x="22" y="44" width="4" height="1051" fill="url(#paint0_linear_604_765)"/>
<g filter="url(#filter0_f_604_765)">
<circle cx="24" cy="24" r="12" fill="#00AA51" fill-opacity="0.2"/>
</g>
<path d="M24 23.1667C26.0711 23.1667 27.75 21.4877 27.75 19.4167C27.75 17.3456 26.0711 15.6667 24 15.6667C21.9289 15.6667 20.25 17.3456 20.25 19.4167C20.25 21.4877 21.9289 23.1667 24 23.1667Z" stroke="white" stroke-width="0.833333" stroke-linejoin="round"/>
<path d="M16.0833 32.3333C16.0833 28.8177 18.6563 25.5365 20.8333 24.8333C20.8333 24.8333 22.8125 26.9427 24 28.349L27.1667 24.8333C28.9479 25.0677 31.9167 28.8177 31.9167 32.3333" stroke="white" stroke-width="0.833333" stroke-linejoin="round"/>
<path d="M14.8333 32.3333H33.1667" stroke="white" stroke-width="0.833333" stroke-linecap="round" stroke-linejoin="round"/>
<defs>
<filter id="filter0_f_604_765" x="0" y="0" width="48" height="48" filterUnits="userSpaceOnUse" color-interpolation-filters="sRGB">
<feFlood flood-opacity="0" result="BackgroundImageFix"/>
<feBlend mode="normal" in="SourceGraphic" in2="BackgroundImageFix" result="shape"/>
<feGaussianBlur stdDeviation="6" result="effect1_foregroundBlur_604_765"/>
</filter>
<linearGradient id="paint0_linear_604_765" x1="24" y1="44" x2="24" y2="1095" gradientUnits="userSpaceOnUse">
<stop stop-color="#00AA51"/>
<stop offset="0.98" stop-color="#33B3AE"/>
</linearGradient>
</defs>
</svg>
