<svg width="109" height="1989" viewBox="0 0 109 1989" fill="none" xmlns="http://www.w3.org/2000/svg">
<path d="M26 1560C42 1620.5 70.5 1619 80.5 1666.5C80.5 1720 80.5 1763.5 80.5 1807C80.5 1850.5 45 1858 26 1921" stroke="url(#paint0_linear_604_765)" stroke-width="4"/>
<g filter="url(#filter0_d_604_765)">
<circle cx="81" cy="1739" r="8" fill="#0D1116"/>
<circle cx="81" cy="1739" r="6" stroke="white" stroke-width="4"/>
</g>
<rect x="22" y="44" width="4" height="1945" fill="url(#paint1_linear_604_765)"/>
<g filter="url(#filter1_f_604_765)">
<circle cx="24" cy="24" r="12" fill="#F838AB" fill-opacity="0.2"/>
</g>
<path d="M15 16.6278L24.0043 14L33 16.6278V22.0169C33 27.6811 29.3751 32.2097 24.0013 34.0002C18.626 32.2097 15 27.68 15 22.0143V16.6278Z" stroke="white" stroke-opacity="0.85" stroke-width="1.5" stroke-linejoin="round"/>
<path d="M24 23.5C25.3807 23.5 26.5 22.3807 26.5 21C26.5 19.6193 25.3807 18.5 24 18.5C22.6193 18.5 21.5 19.6193 21.5 21C21.5 22.3807 22.6193 23.5 24 23.5Z" stroke="white" stroke-opacity="0.85" stroke-width="1.5" stroke-linecap="round" stroke-linejoin="round"/>
<path d="M28 27.5C28 25.2908 26.2092 23.5 24 23.5C21.7908 23.5 20 25.2908 20 27.5" stroke="white" stroke-opacity="0.85" stroke-width="1.5" stroke-linecap="round" stroke-linejoin="round"/>
<defs>
<filter id="filter0_d_604_765" x="53" y="1711" width="56" height="56" filterUnits="userSpaceOnUse" color-interpolation-filters="sRGB">
<feFlood flood-opacity="0" result="BackgroundImageFix"/>
<feColorMatrix in="SourceAlpha" type="matrix" values="0 0 0 0 0 0 0 0 0 0 0 0 0 0 0 0 0 0 127 0" result="hardAlpha"/>
<feOffset/>
<feGaussianBlur stdDeviation="10"/>
<feComposite in2="hardAlpha" operator="out"/>
<feColorMatrix type="matrix" values="0 0 0 0 1 0 0 0 0 1 0 0 0 0 1 0 0 0 0.85 0"/>
<feBlend mode="normal" in2="BackgroundImageFix" result="effect1_dropShadow_604_765"/>
<feBlend mode="normal" in="SourceGraphic" in2="effect1_dropShadow_604_765" result="shape"/>
</filter>
<filter id="filter1_f_604_765" x="0" y="0" width="48" height="48" filterUnits="userSpaceOnUse" color-interpolation-filters="sRGB">
<feFlood flood-opacity="0" result="BackgroundImageFix"/>
<feBlend mode="normal" in="SourceGraphic" in2="BackgroundImageFix" result="shape"/>
<feGaussianBlur stdDeviation="6" result="effect1_foregroundBlur_604_765"/>
</filter>
<linearGradient id="paint0_linear_604_765" x1="101" y1="1741" x2="26" y2="1741" gradientUnits="userSpaceOnUse">
<stop stop-color="#F838AB"/>
<stop offset="1" stop-color="#F838AB" stop-opacity="0"/>
</linearGradient>
<linearGradient id="paint1_linear_604_765" x1="24" y1="44" x2="24" y2="1989" gradientUnits="userSpaceOnUse">
<stop offset="0.94" stop-color="#F838AB"/>
<stop offset="1" stop-color="#3857F8"/>
</linearGradient>
</defs>
</svg>
