<svg width="48" height="48" viewBox="0 0 48 48" fill="none" xmlns="http://www.w3.org/2000/svg">
<g filter="url(#filter0_f_790_748)">
<circle cx="24" cy="24" r="12" fill="#00AA51" fill-opacity="0.2"/>
</g>
<path d="M24 23.1667C26.0711 23.1667 27.75 21.4877 27.75 19.4167C27.75 17.3456 26.0711 15.6667 24 15.6667C21.9289 15.6667 20.25 17.3456 20.25 19.4167C20.25 21.4877 21.9289 23.1667 24 23.1667Z" stroke="white" stroke-width="0.833333" stroke-linejoin="round"/>
<path d="M16.0833 32.3333C16.0833 28.8177 18.6563 25.5365 20.8333 24.8333C20.8333 24.8333 22.8125 26.9427 24 28.349L27.1667 24.8333C28.9479 25.0677 31.9167 28.8177 31.9167 32.3333" stroke="white" stroke-width="0.833333" stroke-linejoin="round"/>
<path d="M14.8333 32.3333H33.1667" stroke="white" stroke-width="0.833333" stroke-linecap="round" stroke-linejoin="round"/>
<defs>
<filter id="filter0_f_790_748" x="0" y="0" width="48" height="48" filterUnits="userSpaceOnUse" color-interpolation-filters="sRGB">
<feFlood flood-opacity="0" result="BackgroundImageFix"/>
<feBlend mode="normal" in="SourceGraphic" in2="BackgroundImageFix" result="shape"/>
<feGaussianBlur stdDeviation="6" result="effect1_foregroundBlur_790_748"/>
</filter>
</defs>
</svg>
