<svg width="603" height="289" viewBox="0 0 603 289" fill="none" xmlns="http://www.w3.org/2000/svg">
<rect x="0.5" y="0.5" width="602" height="288" rx="15.5" stroke="url(#paint0_linear_1315_2172)"/>
<path d="M51.2074 52.3438C51.1278 51.5994 50.7926 51.0199 50.2017 50.6051C49.6165 50.1903 48.8551 49.983 47.9176 49.983C47.2585 49.983 46.6932 50.0824 46.2216 50.2812C45.75 50.4801 45.3892 50.75 45.1392 51.0909C44.8892 51.4318 44.7614 51.821 44.7557 52.2585C44.7557 52.6222 44.8381 52.9375 45.0028 53.2045C45.1733 53.4716 45.4034 53.6989 45.6932 53.8864C45.983 54.0682 46.304 54.2216 46.6562 54.3466C47.0085 54.4716 47.3636 54.5767 47.7216 54.6619L49.358 55.071C50.017 55.2244 50.6506 55.4318 51.2585 55.6932C51.8722 55.9545 52.4205 56.2841 52.9034 56.6818C53.392 57.0795 53.7784 57.5597 54.0625 58.1222C54.3466 58.6847 54.4886 59.3437 54.4886 60.0994C54.4886 61.1222 54.2273 62.0227 53.7045 62.8011C53.1818 63.5739 52.4261 64.179 51.4375 64.6165C50.4545 65.0483 49.2642 65.2642 47.8665 65.2642C46.5085 65.2642 45.3295 65.054 44.3295 64.6335C43.3352 64.2131 42.5568 63.5994 41.9943 62.7926C41.4375 61.9858 41.1364 61.0028 41.0909 59.8438H44.2017C44.2472 60.4517 44.4347 60.9574 44.7642 61.3608C45.0938 61.7642 45.5227 62.0653 46.0511 62.2642C46.5852 62.4631 47.1818 62.5625 47.8409 62.5625C48.5284 62.5625 49.1307 62.4602 49.6477 62.2557C50.1705 62.0455 50.5795 61.7557 50.875 61.3864C51.1705 61.0114 51.321 60.5739 51.3267 60.0739C51.321 59.6193 51.1875 59.2443 50.9261 58.9489C50.6648 58.6477 50.2983 58.3977 49.8267 58.1989C49.3608 57.9943 48.8153 57.8125 48.1903 57.6534L46.2045 57.142C44.767 56.7727 43.6307 56.2131 42.7955 55.4631C41.9659 54.7074 41.5511 53.7045 41.5511 52.4545C41.5511 51.4261 41.8295 50.5256 42.3864 49.7528C42.9489 48.9801 43.7131 48.3807 44.679 47.9545C45.6449 47.5227 46.7386 47.3068 47.9602 47.3068C49.1989 47.3068 50.2841 47.5227 51.2159 47.9545C52.1534 48.3807 52.8892 48.9744 53.4233 49.7358C53.9574 50.4915 54.233 51.3608 54.25 52.3438H51.2074ZM63.2281 51.9091V54.2955H55.7025V51.9091H63.2281ZM57.5605 48.7727H60.6457V61.0625C60.6457 61.4773 60.7082 61.7955 60.8332 62.017C60.9639 62.233 61.1343 62.3807 61.3446 62.4602C61.5548 62.5398 61.7878 62.5795 62.0434 62.5795C62.2366 62.5795 62.4128 62.5653 62.5718 62.5369C62.7366 62.5085 62.8616 62.483 62.9468 62.4602L63.4667 64.8722C63.302 64.929 63.0662 64.9915 62.7593 65.0597C62.4582 65.1278 62.0889 65.1676 61.6514 65.179C60.8787 65.2017 60.1826 65.0852 59.5633 64.8295C58.944 64.5682 58.4525 64.1648 58.0889 63.6193C57.7309 63.0739 57.5548 62.392 57.5605 61.5739V48.7727ZM69.0954 65.2642C68.2659 65.2642 67.5187 65.1165 66.8539 64.821C66.1948 64.5199 65.6721 64.0767 65.2857 63.4915C64.9051 62.9062 64.7147 62.1847 64.7147 61.3267C64.7147 60.5881 64.8511 59.9773 65.1238 59.4943C65.3965 59.0114 65.7687 58.625 66.2403 58.3352C66.7119 58.0455 67.2431 57.8267 67.834 57.679C68.4306 57.5256 69.0471 57.4148 69.6835 57.3466C70.4505 57.267 71.0727 57.196 71.5499 57.1335C72.0272 57.0653 72.3738 56.9631 72.5897 56.8267C72.8113 56.6847 72.9221 56.4659 72.9221 56.1705V56.1193C72.9221 55.4773 72.7318 54.9801 72.3511 54.6278C71.9704 54.2756 71.4221 54.0994 70.7062 54.0994C69.9505 54.0994 69.3511 54.2642 68.9079 54.5938C68.4704 54.9233 68.1749 55.3125 68.0215 55.7614L65.1409 55.3523C65.3681 54.5568 65.7431 53.892 66.2659 53.358C66.7886 52.8182 67.4278 52.4148 68.1835 52.1477C68.9391 51.875 69.7744 51.7386 70.6891 51.7386C71.3198 51.7386 71.9477 51.8125 72.5727 51.9602C73.1977 52.108 73.7687 52.3523 74.2857 52.6932C74.8028 53.0284 75.2176 53.4858 75.5301 54.0653C75.8482 54.6449 76.0073 55.3693 76.0073 56.2386V65H73.0414V63.2017H72.9391C72.7516 63.5653 72.4874 63.9062 72.1465 64.2244C71.8113 64.5369 71.388 64.7898 70.8766 64.983C70.371 65.1705 69.7772 65.2642 69.0954 65.2642ZM69.8965 62.9972C70.5159 62.9972 71.0528 62.875 71.5073 62.6307C71.9619 62.3807 72.3113 62.0511 72.5556 61.642C72.8056 61.233 72.9306 60.7869 72.9306 60.304V58.7614C72.834 58.8409 72.6693 58.9148 72.4363 58.983C72.209 59.0511 71.9534 59.1108 71.6693 59.1619C71.3852 59.2131 71.1039 59.2585 70.8255 59.2983C70.5471 59.3381 70.3056 59.3722 70.1011 59.4006C69.6409 59.4631 69.2289 59.5653 68.8653 59.7074C68.5016 59.8494 68.2147 60.0483 68.0045 60.304C67.7943 60.554 67.6891 60.8778 67.6891 61.2756C67.6891 61.8438 67.8965 62.2727 68.3113 62.5625C68.7261 62.8523 69.2545 62.9972 69.8965 62.9972ZM84.3228 70.1818C83.2148 70.1818 82.2631 70.0313 81.4677 69.7301C80.6722 69.4347 80.033 69.0369 79.5501 68.5369C79.0671 68.0369 78.7319 67.483 78.5444 66.875L81.3228 66.2017C81.4478 66.4574 81.6296 66.7102 81.8682 66.9602C82.1069 67.2159 82.4279 67.4261 82.8313 67.5909C83.2404 67.7614 83.7546 67.8466 84.3739 67.8466C85.2489 67.8466 85.9734 67.6335 86.5472 67.2074C87.1211 66.7869 87.408 66.0938 87.408 65.1278V62.6477H87.2546C87.0955 62.9659 86.8626 63.2926 86.5557 63.6278C86.2546 63.9631 85.854 64.2443 85.354 64.4716C84.8597 64.6989 84.2376 64.8125 83.4876 64.8125C82.4819 64.8125 81.5699 64.5767 80.7518 64.1051C79.9393 63.6278 79.2915 62.9176 78.8086 61.9744C78.3313 61.0256 78.0927 59.8381 78.0927 58.4119C78.0927 56.9744 78.3313 55.7614 78.8086 54.7727C79.2915 53.7784 79.9421 53.0256 80.7603 52.5142C81.5785 51.9972 82.4904 51.7386 83.4961 51.7386C84.2631 51.7386 84.8938 51.8693 85.3881 52.1307C85.8881 52.3864 86.2859 52.696 86.5813 53.0597C86.8768 53.4176 87.1012 53.7557 87.2546 54.0739H87.4251V51.9091H90.4677V65.2131C90.4677 66.3324 90.2006 67.2585 89.6665 67.9915C89.1324 68.7244 88.4023 69.2727 87.4762 69.6364C86.5501 70 85.4989 70.1818 84.3228 70.1818ZM84.3484 62.392C85.0018 62.392 85.5586 62.233 86.0188 61.9148C86.479 61.5966 86.8285 61.1392 87.0671 60.5426C87.3057 59.946 87.4251 59.2301 87.4251 58.3949C87.4251 57.571 87.3057 56.8494 87.0671 56.2301C86.8341 55.6108 86.4876 55.1307 86.0273 54.7898C85.5728 54.4432 85.0131 54.2699 84.3484 54.2699C83.6609 54.2699 83.087 54.4489 82.6268 54.8068C82.1665 55.1648 81.8199 55.6562 81.587 56.2812C81.354 56.9006 81.2376 57.6051 81.2376 58.3949C81.2376 59.196 81.354 59.8977 81.587 60.5C81.8256 61.0966 82.1751 61.5625 82.6353 61.8977C83.1012 62.2273 83.6722 62.392 84.3484 62.392ZM98.9451 65.2557C97.6326 65.2557 96.499 64.983 95.5445 64.4375C94.5956 63.8864 93.8655 63.108 93.3541 62.1023C92.8428 61.0909 92.5871 59.9006 92.5871 58.5312C92.5871 57.1847 92.8428 56.0028 93.3541 54.9858C93.8712 53.9631 94.5928 53.1676 95.5189 52.5994C96.4451 52.0256 97.5331 51.7386 98.7831 51.7386C99.5899 51.7386 100.351 51.8693 101.067 52.1307C101.789 52.3864 102.425 52.7841 102.976 53.3239C103.533 53.8636 103.971 54.5511 104.289 55.3864C104.607 56.2159 104.766 57.2045 104.766 58.3523V59.2983H94.036V57.2188H101.809C101.803 56.6278 101.675 56.1023 101.425 55.642C101.175 55.1761 100.826 54.8097 100.377 54.5426C99.9337 54.2756 99.4166 54.142 98.8257 54.142C98.1951 54.142 97.6411 54.2955 97.1638 54.6023C96.6865 54.9034 96.3144 55.3011 96.0473 55.7955C95.786 56.2841 95.6524 56.821 95.6468 57.4062V59.2216C95.6468 59.983 95.786 60.6364 96.0644 61.1818C96.3428 61.7216 96.732 62.1364 97.232 62.4261C97.732 62.7102 98.3172 62.8523 98.9877 62.8523C99.4365 62.8523 99.8428 62.7898 100.206 62.6648C100.57 62.5341 100.885 62.3438 101.152 62.0938C101.419 61.8438 101.621 61.5341 101.758 61.1648L104.638 61.4886C104.456 62.25 104.11 62.9148 103.598 63.483C103.093 64.0455 102.445 64.483 101.655 64.7955C100.866 65.1023 99.9621 65.2557 98.9451 65.2557ZM120.304 55.0028V57.5426H112.446V55.0028H120.304ZM135.607 47.5455V65H132.446V50.6222H132.343L128.261 53.2301V50.3324L132.599 47.5455H135.607ZM146.967 62.9034C146.45 62.9034 146.007 62.7216 145.637 62.358C145.268 61.9886 145.086 61.5455 145.092 61.0284C145.086 60.517 145.268 60.0795 145.637 59.7159C146.007 59.3523 146.45 59.1705 146.967 59.1705C147.467 59.1705 147.902 59.3523 148.271 59.7159C148.646 60.0795 148.836 60.517 148.842 61.0284C148.836 61.375 148.745 61.6903 148.569 61.9744C148.399 62.2585 148.172 62.4858 147.887 62.6562C147.609 62.821 147.302 62.9034 146.967 62.9034ZM146.967 54.2528C146.45 54.2528 146.007 54.071 145.637 53.7074C145.268 53.3381 145.086 52.8949 145.092 52.3778C145.086 51.8665 145.268 51.429 145.637 51.0653C146.007 50.696 146.45 50.5114 146.967 50.5114C147.467 50.5114 147.902 50.696 148.271 51.0653C148.646 51.429 148.836 51.8665 148.842 52.3778C148.836 52.7187 148.745 53.0312 148.569 53.3153C148.399 53.5994 148.172 53.8267 147.887 53.9972C147.609 54.1676 147.302 54.2528 146.967 54.2528ZM154.019 47.5455L158.562 61.2841H158.741L163.275 47.5455H166.752L160.599 65H156.695L150.55 47.5455H154.019ZM170.842 65.2642C170.013 65.2642 169.266 65.1165 168.601 64.821C167.942 64.5199 167.419 64.0767 167.033 63.4915C166.652 62.9062 166.462 62.1847 166.462 61.3267C166.462 60.5881 166.598 59.9773 166.871 59.4943C167.143 59.0114 167.516 58.625 167.987 58.3352C168.459 58.0455 168.99 57.8267 169.581 57.679C170.177 57.5256 170.794 57.4148 171.43 57.3466C172.197 57.267 172.82 57.196 173.297 57.1335C173.774 57.0653 174.121 56.9631 174.337 56.8267C174.558 56.6847 174.669 56.4659 174.669 56.1705V56.1193C174.669 55.4773 174.479 54.9801 174.098 54.6278C173.717 54.2756 173.169 54.0994 172.453 54.0994C171.697 54.0994 171.098 54.2642 170.655 54.5938C170.217 54.9233 169.922 55.3125 169.768 55.7614L166.888 55.3523C167.115 54.5568 167.49 53.892 168.013 53.358C168.535 52.8182 169.175 52.4148 169.93 52.1477C170.686 51.875 171.521 51.7386 172.436 51.7386C173.067 51.7386 173.695 51.8125 174.32 51.9602C174.945 52.108 175.516 52.3523 176.033 52.6932C176.55 53.0284 176.964 53.4858 177.277 54.0653C177.595 54.6449 177.754 55.3693 177.754 56.2386V65H174.788V63.2017H174.686C174.499 63.5653 174.234 63.9062 173.893 64.2244C173.558 64.5369 173.135 64.7898 172.624 64.983C172.118 65.1705 171.524 65.2642 170.842 65.2642ZM171.643 62.9972C172.263 62.9972 172.8 62.875 173.254 62.6307C173.709 62.3807 174.058 62.0511 174.302 61.642C174.552 61.233 174.677 60.7869 174.677 60.304V58.7614C174.581 58.8409 174.416 58.9148 174.183 58.983C173.956 59.0511 173.7 59.1108 173.416 59.1619C173.132 59.2131 172.851 59.2585 172.572 59.2983C172.294 59.3381 172.052 59.3722 171.848 59.4006C171.388 59.4631 170.976 59.5653 170.612 59.7074C170.249 59.8494 169.962 60.0483 169.751 60.304C169.541 60.554 169.436 60.8778 169.436 61.2756C169.436 61.8438 169.643 62.2727 170.058 62.5625C170.473 62.8523 171.001 62.9972 171.643 62.9972ZM183.462 47.5455V65H180.376V47.5455H183.462ZM186.154 65V51.9091H189.24V65H186.154ZM187.705 50.0511C187.217 50.0511 186.796 49.8892 186.444 49.5653C186.092 49.2358 185.916 48.8409 185.916 48.3807C185.916 47.9148 186.092 47.5199 186.444 47.196C186.796 46.8665 187.217 46.7017 187.705 46.7017C188.2 46.7017 188.62 46.8665 188.967 47.196C189.319 47.5199 189.495 47.9148 189.495 48.3807C189.495 48.8409 189.319 49.2358 188.967 49.5653C188.62 49.8892 188.2 50.0511 187.705 50.0511ZM196.79 65.2301C195.762 65.2301 194.841 64.9659 194.029 64.4375C193.216 63.9091 192.574 63.142 192.103 62.1364C191.631 61.1307 191.395 59.9091 191.395 58.4716C191.395 57.017 191.634 55.7898 192.111 54.7898C192.594 53.7841 193.245 53.0256 194.063 52.5142C194.881 51.9972 195.793 51.7386 196.799 51.7386C197.566 51.7386 198.196 51.8693 198.691 52.1307C199.185 52.3864 199.577 52.696 199.867 53.0597C200.157 53.4176 200.381 53.7557 200.54 54.0739H200.668V47.5455H203.762V65H200.728V62.9375H200.54C200.381 63.2557 200.151 63.5937 199.85 63.9517C199.549 64.304 199.151 64.6051 198.657 64.8551C198.162 65.1051 197.54 65.2301 196.79 65.2301ZM197.651 62.6989C198.304 62.6989 198.861 62.5227 199.321 62.1705C199.782 61.8125 200.131 61.3153 200.37 60.679C200.608 60.0426 200.728 59.3011 200.728 58.4545C200.728 57.608 200.608 56.8722 200.37 56.2472C200.137 55.6222 199.79 55.1364 199.33 54.7898C198.875 54.4432 198.316 54.2699 197.651 54.2699C196.963 54.2699 196.389 54.4489 195.929 54.8068C195.469 55.1648 195.122 55.6591 194.889 56.2898C194.657 56.9205 194.54 57.642 194.54 58.4545C194.54 59.2727 194.657 60.0028 194.889 60.6449C195.128 61.2812 195.478 61.7841 195.938 62.1534C196.404 62.517 196.975 62.6989 197.651 62.6989ZM210.336 65.2642C209.507 65.2642 208.76 65.1165 208.095 64.821C207.436 64.5199 206.913 64.0767 206.527 63.4915C206.146 62.9062 205.956 62.1847 205.956 61.3267C205.956 60.5881 206.092 59.9773 206.365 59.4943C206.637 59.0114 207.01 58.625 207.481 58.3352C207.953 58.0455 208.484 57.8267 209.075 57.679C209.672 57.5256 210.288 57.4148 210.924 57.3466C211.691 57.267 212.314 57.196 212.791 57.1335C213.268 57.0653 213.615 56.9631 213.831 56.8267C214.052 56.6847 214.163 56.4659 214.163 56.1705V56.1193C214.163 55.4773 213.973 54.9801 213.592 54.6278C213.211 54.2756 212.663 54.0994 211.947 54.0994C211.191 54.0994 210.592 54.2642 210.149 54.5938C209.711 54.9233 209.416 55.3125 209.262 55.7614L206.382 55.3523C206.609 54.5568 206.984 53.892 207.507 53.358C208.03 52.8182 208.669 52.4148 209.424 52.1477C210.18 51.875 211.015 51.7386 211.93 51.7386C212.561 51.7386 213.189 51.8125 213.814 51.9602C214.439 52.108 215.01 52.3523 215.527 52.6932C216.044 53.0284 216.459 53.4858 216.771 54.0653C217.089 54.6449 217.248 55.3693 217.248 56.2386V65H214.282V63.2017H214.18C213.993 63.5653 213.728 63.9062 213.387 64.2244C213.052 64.5369 212.629 64.7898 212.118 64.983C211.612 65.1705 211.018 65.2642 210.336 65.2642ZM211.137 62.9972C211.757 62.9972 212.294 62.875 212.748 62.6307C213.203 62.3807 213.552 62.0511 213.797 61.642C214.047 61.233 214.172 60.7869 214.172 60.304V58.7614C214.075 58.8409 213.91 58.9148 213.677 58.983C213.45 59.0511 213.194 59.1108 212.91 59.1619C212.626 59.2131 212.345 59.2585 212.066 59.2983C211.788 59.3381 211.547 59.3722 211.342 59.4006C210.882 59.4631 210.47 59.5653 210.106 59.7074C209.743 59.8494 209.456 60.0483 209.245 60.304C209.035 60.554 208.93 60.8778 208.93 61.2756C208.93 61.8438 209.137 62.2727 209.552 62.5625C209.967 62.8523 210.495 62.9972 211.137 62.9972ZM226.407 51.9091V54.2955H218.882V51.9091H226.407ZM220.74 48.7727H223.825V61.0625C223.825 61.4773 223.888 61.7955 224.013 62.017C224.143 62.233 224.314 62.3807 224.524 62.4602C224.734 62.5398 224.967 62.5795 225.223 62.5795C225.416 62.5795 225.592 62.5653 225.751 62.5369C225.916 62.5085 226.041 62.483 226.126 62.4602L226.646 64.8722C226.481 64.929 226.246 64.9915 225.939 65.0597C225.638 65.1278 225.268 65.1676 224.831 65.179C224.058 65.2017 223.362 65.0852 222.743 64.8295C222.123 64.5682 221.632 64.1648 221.268 63.6193C220.91 63.0739 220.734 62.392 220.74 61.5739V48.7727ZM228.508 65V51.9091H231.593V65H228.508ZM230.059 50.0511C229.57 50.0511 229.15 49.8892 228.798 49.5653C228.445 49.2358 228.269 48.8409 228.269 48.3807C228.269 47.9148 228.445 47.5199 228.798 47.196C229.15 46.8665 229.57 46.7017 230.059 46.7017C230.553 46.7017 230.974 46.8665 231.32 47.196C231.673 47.5199 231.849 47.9148 231.849 48.3807C231.849 48.8409 231.673 49.2358 231.32 49.5653C230.974 49.8892 230.553 50.0511 230.059 50.0511ZM239.996 65.2557C238.717 65.2557 237.609 64.9744 236.672 64.4119C235.734 63.8494 235.007 63.0625 234.49 62.0511C233.979 61.0398 233.723 59.858 233.723 58.5057C233.723 57.1534 233.979 55.9687 234.49 54.9517C235.007 53.9347 235.734 53.1449 236.672 52.5824C237.609 52.0199 238.717 51.7386 239.996 51.7386C241.274 51.7386 242.382 52.0199 243.32 52.5824C244.257 53.1449 244.982 53.9347 245.493 54.9517C246.01 55.9687 246.268 57.1534 246.268 58.5057C246.268 59.858 246.01 61.0398 245.493 62.0511C244.982 63.0625 244.257 63.8494 243.32 64.4119C242.382 64.9744 241.274 65.2557 239.996 65.2557ZM240.013 62.7841C240.706 62.7841 241.286 62.5937 241.751 62.2131C242.217 61.8267 242.564 61.3097 242.791 60.6619C243.024 60.0142 243.141 59.2926 243.141 58.4972C243.141 57.696 243.024 56.9716 242.791 56.3239C242.564 55.6705 242.217 55.1506 241.751 54.7642C241.286 54.3778 240.706 54.1847 240.013 54.1847C239.303 54.1847 238.712 54.3778 238.24 54.7642C237.774 55.1506 237.425 55.6705 237.192 56.3239C236.965 56.9716 236.851 57.696 236.851 58.4972C236.851 59.2926 236.965 60.0142 237.192 60.6619C237.425 61.3097 237.774 61.8267 238.24 62.2131C238.712 62.5937 239.303 62.7841 240.013 62.7841ZM251.492 57.3295V65H248.407V51.9091H251.356V54.1335H251.509C251.811 53.4006 252.291 52.8182 252.95 52.3864C253.614 51.9545 254.436 51.7386 255.413 51.7386C256.316 51.7386 257.103 51.9318 257.774 52.3182C258.45 52.7045 258.972 53.2642 259.342 53.9972C259.717 54.7301 259.901 55.6193 259.896 56.6648V65H256.811V57.142C256.811 56.267 256.583 55.5824 256.129 55.0881C255.68 54.5937 255.058 54.3466 254.262 54.3466C253.722 54.3466 253.242 54.4659 252.822 54.7045C252.407 54.9375 252.08 55.2756 251.842 55.7188C251.609 56.1619 251.492 56.6989 251.492 57.3295ZM268.008 59.1818C268.008 57.7614 268.196 56.4564 268.571 55.267C268.949 54.0739 269.512 52.9716 270.258 51.9602H272.196C271.908 52.3352 271.639 52.7955 271.389 53.3409C271.139 53.8826 270.921 54.4773 270.735 55.125C270.554 55.7689 270.41 56.4375 270.304 57.1307C270.201 57.8239 270.15 58.5076 270.15 59.1818C270.15 60.0795 270.239 60.9886 270.417 61.9091C270.599 62.8295 270.843 63.6837 271.15 64.4716C271.461 65.2557 271.809 65.8977 272.196 66.3977H270.258C269.512 65.3864 268.949 64.286 268.571 63.0966C268.196 61.9034 268.008 60.5985 268.008 59.1818ZM275.059 65H272.809L276.906 53.3636H279.508L283.61 65H281.36L278.252 55.75H278.161L275.059 65ZM275.133 60.4375H281.269V62.1307H275.133V60.4375ZM286.931 53.3636V65H284.823V53.3636H286.931ZM294.092 59.3068V61H288.854V59.3068H294.092ZM295.936 68.2727V56.2727H297.958V57.7159H298.078C298.184 57.5038 298.333 57.2784 298.526 57.0398C298.72 56.7973 298.981 56.5909 299.311 56.4205C299.64 56.2462 300.061 56.1591 300.572 56.1591C301.246 56.1591 301.854 56.3314 302.396 56.6761C302.941 57.017 303.373 57.5227 303.691 58.1932C304.013 58.8598 304.174 59.678 304.174 60.6477C304.174 61.6061 304.017 62.4205 303.703 63.0909C303.388 63.7614 302.96 64.2727 302.419 64.625C301.877 64.9773 301.263 65.1534 300.578 65.1534C300.078 65.1534 299.663 65.0701 299.333 64.9034C299.004 64.7367 298.739 64.536 298.538 64.3011C298.341 64.0625 298.187 63.8371 298.078 63.625H297.992V68.2727H295.936ZM297.953 60.6364C297.953 61.2008 298.032 61.6951 298.191 62.1193C298.354 62.5436 298.587 62.875 298.89 63.1136C299.197 63.3485 299.568 63.4659 300.004 63.4659C300.458 63.4659 300.839 63.3447 301.146 63.1023C301.453 62.8561 301.684 62.5208 301.839 62.0966C301.998 61.6686 302.078 61.1818 302.078 60.6364C302.078 60.0947 302 59.6136 301.845 59.1932C301.689 58.7727 301.458 58.4432 301.151 58.2045C300.845 57.9659 300.462 57.8466 300.004 57.8466C299.564 57.8466 299.191 57.9621 298.884 58.1932C298.578 58.4242 298.345 58.7481 298.186 59.1648C298.03 59.5814 297.953 60.072 297.953 60.6364ZM309.422 65.1705C308.57 65.1705 307.831 64.983 307.206 64.608C306.581 64.233 306.097 63.7083 305.752 63.0341C305.411 62.3598 305.241 61.572 305.241 60.6705C305.241 59.7689 305.411 58.9792 305.752 58.3011C306.097 57.6231 306.581 57.0966 307.206 56.7216C307.831 56.3466 308.57 56.1591 309.422 56.1591C310.275 56.1591 311.013 56.3466 311.638 56.7216C312.263 57.0966 312.746 57.6231 313.087 58.3011C313.432 58.9792 313.604 59.7689 313.604 60.6705C313.604 61.572 313.432 62.3598 313.087 63.0341C312.746 63.7083 312.263 64.233 311.638 64.608C311.013 64.983 310.275 65.1705 309.422 65.1705ZM309.434 63.5227C309.896 63.5227 310.282 63.3958 310.593 63.142C310.903 62.8845 311.135 62.5398 311.286 62.108C311.441 61.6761 311.519 61.1951 311.519 60.6648C311.519 60.1307 311.441 59.6477 311.286 59.2159C311.135 58.7803 310.903 58.4337 310.593 58.1761C310.282 57.9186 309.896 57.7898 309.434 57.7898C308.96 57.7898 308.566 57.9186 308.252 58.1761C307.941 58.4337 307.708 58.7803 307.553 59.2159C307.402 59.6477 307.326 60.1307 307.326 60.6648C307.326 61.1951 307.402 61.6761 307.553 62.108C307.708 62.5398 307.941 62.8845 308.252 63.142C308.566 63.3958 308.96 63.5227 309.434 63.5227ZM316.581 65L314.115 56.2727H316.212L317.746 62.4091H317.825L319.394 56.2727H321.467L323.036 62.375H323.121L324.632 56.2727H326.734L324.263 65H322.121L320.484 59.1023H320.365L318.729 65H316.581ZM331.464 65.1705C330.589 65.1705 329.834 64.9886 329.197 64.625C328.565 64.2576 328.078 63.7386 327.737 63.0682C327.396 62.3939 327.226 61.6004 327.226 60.6875C327.226 59.7898 327.396 59.0019 327.737 58.3239C328.082 57.642 328.563 57.1117 329.18 56.733C329.798 56.3504 330.523 56.1591 331.356 56.1591C331.894 56.1591 332.402 56.2462 332.879 56.4205C333.36 56.5909 333.784 56.8561 334.152 57.2159C334.523 57.5758 334.815 58.0341 335.027 58.5909C335.239 59.1439 335.345 59.803 335.345 60.5682V61.1989H328.191V59.8125H333.373C333.37 59.4186 333.284 59.0682 333.118 58.7614C332.951 58.4508 332.718 58.2064 332.419 58.0284C332.123 57.8504 331.779 57.7614 331.385 57.7614C330.964 57.7614 330.595 57.8636 330.277 58.0682C329.959 58.2689 329.71 58.5341 329.532 58.8636C329.358 59.1894 329.269 59.5473 329.265 59.9375V61.1477C329.265 61.6553 329.358 62.0909 329.544 62.4545C329.729 62.8144 329.989 63.0909 330.322 63.2841C330.656 63.4735 331.046 63.5682 331.493 63.5682C331.792 63.5682 332.063 63.5265 332.305 63.4432C332.548 63.3561 332.758 63.2292 332.936 63.0625C333.114 62.8958 333.248 62.6894 333.339 62.4432L335.26 62.6591C335.138 63.1667 334.907 63.6098 334.566 63.9886C334.229 64.3636 333.798 64.6553 333.271 64.8636C332.745 65.0682 332.142 65.1705 331.464 65.1705ZM336.765 65V56.2727H338.759V57.7273H338.85C339.009 57.2235 339.282 56.8352 339.668 56.5625C340.059 56.286 340.504 56.1477 341.004 56.1477C341.117 56.1477 341.244 56.1534 341.384 56.1648C341.528 56.1723 341.648 56.1856 341.742 56.2045V58.0966C341.655 58.0663 341.517 58.0398 341.327 58.017C341.142 57.9905 340.962 57.9773 340.788 57.9773C340.413 57.9773 340.076 58.0587 339.776 58.2216C339.481 58.3807 339.248 58.6023 339.077 58.8864C338.907 59.1705 338.822 59.4981 338.822 59.8693V65H336.765ZM346.293 65.1705C345.418 65.1705 344.662 64.9886 344.026 64.625C343.393 64.2576 342.907 63.7386 342.566 63.0682C342.225 62.3939 342.054 61.6004 342.054 60.6875C342.054 59.7898 342.225 59.0019 342.566 58.3239C342.91 57.642 343.391 57.1117 344.009 56.733C344.626 56.3504 345.352 56.1591 346.185 56.1591C346.723 56.1591 347.23 56.2462 347.708 56.4205C348.189 56.5909 348.613 56.8561 348.98 57.2159C349.352 57.5758 349.643 58.0341 349.855 58.5909C350.068 59.1439 350.174 59.803 350.174 60.5682V61.1989H343.02V59.8125H348.202C348.198 59.4186 348.113 59.0682 347.946 58.7614C347.78 58.4508 347.547 58.2064 347.247 58.0284C346.952 57.8504 346.607 57.7614 346.213 57.7614C345.793 57.7614 345.424 57.8636 345.105 58.0682C344.787 58.2689 344.539 58.5341 344.361 58.8636C344.187 59.1894 344.098 59.5473 344.094 59.9375V61.1477C344.094 61.6553 344.187 62.0909 344.372 62.4545C344.558 62.8144 344.818 63.0909 345.151 63.2841C345.484 63.4735 345.874 63.5682 346.321 63.5682C346.621 63.5682 346.891 63.5265 347.134 63.4432C347.376 63.3561 347.587 63.2292 347.765 63.0625C347.943 62.8958 348.077 62.6894 348.168 62.4432L350.088 62.6591C349.967 63.1667 349.736 63.6098 349.395 63.9886C349.058 64.3636 348.626 64.6553 348.1 64.8636C347.573 65.0682 346.971 65.1705 346.293 65.1705ZM354.832 65.1534C354.147 65.1534 353.533 64.9773 352.991 64.625C352.45 64.2727 352.022 63.7614 351.707 63.0909C351.393 62.4205 351.236 61.6061 351.236 60.6477C351.236 59.678 351.395 58.8598 351.713 58.1932C352.035 57.5227 352.469 57.017 353.014 56.6761C353.56 56.3314 354.168 56.1591 354.838 56.1591C355.349 56.1591 355.77 56.2462 356.099 56.4205C356.429 56.5909 356.69 56.7973 356.883 57.0398C357.077 57.2784 357.226 57.5038 357.332 57.7159H357.418V53.3636H359.48V65H357.457V63.625H357.332C357.226 63.8371 357.073 64.0625 356.872 64.3011C356.671 64.536 356.406 64.7367 356.077 64.9034C355.747 65.0701 355.332 65.1534 354.832 65.1534ZM355.406 63.4659C355.842 63.4659 356.213 63.3485 356.52 63.1136C356.827 62.875 357.06 62.5436 357.219 62.1193C357.378 61.6951 357.457 61.2008 357.457 60.6364C357.457 60.072 357.378 59.5814 357.219 59.1648C357.063 58.7481 356.832 58.4242 356.526 58.1932C356.222 57.9621 355.849 57.8466 355.406 57.8466C354.948 57.8466 354.565 57.9659 354.258 58.2045C353.952 58.4432 353.721 58.7727 353.565 59.1932C353.41 59.6136 353.332 60.0947 353.332 60.6364C353.332 61.1818 353.41 61.6686 353.565 62.0966C353.724 62.5208 353.957 62.8561 354.264 63.1023C354.575 63.3447 354.955 63.4659 355.406 63.4659ZM365.022 60.2557C365.022 61.6723 364.833 62.9773 364.454 64.1705C364.079 65.3598 363.518 66.4602 362.772 67.4716H360.835C361.126 67.0966 361.395 66.6383 361.642 66.0966C361.892 65.5549 362.108 64.9602 362.289 64.3125C362.475 63.6648 362.619 62.9943 362.721 62.3011C362.827 61.608 362.88 60.9261 362.88 60.2557C362.88 59.358 362.789 58.4489 362.608 57.5284C362.429 56.608 362.185 55.7538 361.875 54.9659C361.568 54.178 361.221 53.5341 360.835 53.0341H362.772C363.518 54.0455 364.079 55.1477 364.454 56.3409C364.833 57.5303 365.022 58.8352 365.022 60.2557Z" fill="white"/>
<path d="M41.2273 105.273V93.2727H42.5227V94.6591H42.6818C42.7803 94.5076 42.9167 94.3144 43.0909 94.0795C43.2689 93.8409 43.5227 93.6288 43.8523 93.4432C44.1856 93.2538 44.6364 93.1591 45.2045 93.1591C45.9394 93.1591 46.5871 93.3428 47.1477 93.7102C47.7083 94.0777 48.1458 94.5985 48.4602 95.2727C48.7746 95.947 48.9318 96.7424 48.9318 97.6591C48.9318 98.5833 48.7746 99.3845 48.4602 100.062C48.1458 100.737 47.7102 101.259 47.1534 101.631C46.5966 101.998 45.9545 102.182 45.2273 102.182C44.6667 102.182 44.2178 102.089 43.8807 101.903C43.5436 101.714 43.2841 101.5 43.1023 101.261C42.9205 101.019 42.7803 100.818 42.6818 100.659H42.5682V105.273H41.2273ZM42.5455 97.6364C42.5455 98.2955 42.642 98.8769 42.8352 99.3807C43.0284 99.8807 43.3106 100.273 43.6818 100.557C44.053 100.837 44.5076 100.977 45.0455 100.977C45.6061 100.977 46.0739 100.83 46.4489 100.534C46.8277 100.235 47.1117 99.8333 47.3011 99.3295C47.4943 98.822 47.5909 98.2576 47.5909 97.6364C47.5909 97.0227 47.4962 96.4697 47.3068 95.9773C47.1212 95.4811 46.839 95.089 46.4602 94.8011C46.0852 94.5095 45.6136 94.3636 45.0455 94.3636C44.5 94.3636 44.0417 94.5019 43.6705 94.7784C43.2992 95.0511 43.0189 95.4337 42.8295 95.9261C42.6402 96.4148 42.5455 96.9848 42.5455 97.6364ZM54.2027 102.182C53.4148 102.182 52.7236 101.994 52.1289 101.619C51.538 101.244 51.0758 100.72 50.7425 100.045C50.413 99.3712 50.2482 98.5833 50.2482 97.6818C50.2482 96.7727 50.413 95.9792 50.7425 95.3011C51.0758 94.6231 51.538 94.0966 52.1289 93.7216C52.7236 93.3466 53.4148 93.1591 54.2027 93.1591C54.9906 93.1591 55.68 93.3466 56.2709 93.7216C56.8656 94.0966 57.3277 94.6231 57.6573 95.3011C57.9906 95.9792 58.1573 96.7727 58.1573 97.6818C58.1573 98.5833 57.9906 99.3712 57.6573 100.045C57.3277 100.72 56.8656 101.244 56.2709 101.619C55.68 101.994 54.9906 102.182 54.2027 102.182ZM54.2027 100.977C54.8012 100.977 55.2936 100.824 55.68 100.517C56.0664 100.21 56.3523 99.8068 56.538 99.3068C56.7236 98.8068 56.8164 98.2652 56.8164 97.6818C56.8164 97.0985 56.7236 96.5549 56.538 96.0511C56.3523 95.5473 56.0664 95.1402 55.68 94.8295C55.2936 94.5189 54.8012 94.3636 54.2027 94.3636C53.6042 94.3636 53.1118 94.5189 52.7255 94.8295C52.3391 95.1402 52.0531 95.5473 51.8675 96.0511C51.6819 96.5549 51.5891 97.0985 51.5891 97.6818C51.5891 98.2652 51.6819 98.8068 51.8675 99.3068C52.0531 99.8068 52.3391 100.21 52.7255 100.517C53.1118 100.824 53.6042 100.977 54.2027 100.977ZM66.066 95.2273L64.8614 95.5682C64.7857 95.3674 64.6739 95.1723 64.5262 94.983C64.3823 94.7898 64.1853 94.6307 63.9353 94.5057C63.6853 94.3807 63.3652 94.3182 62.9751 94.3182C62.441 94.3182 61.9959 94.4413 61.6398 94.6875C61.2876 94.9299 61.1114 95.2386 61.1114 95.6136C61.1114 95.947 61.2326 96.2102 61.4751 96.4034C61.7175 96.5966 62.0963 96.7576 62.6114 96.8864L63.9069 97.2045C64.6872 97.3939 65.2686 97.6837 65.6512 98.0739C66.0338 98.4602 66.2251 98.9583 66.2251 99.5682C66.2251 100.068 66.0811 100.515 65.7932 100.909C65.5091 101.303 65.1114 101.614 64.6001 101.841C64.0887 102.068 63.494 102.182 62.816 102.182C61.9258 102.182 61.1891 101.989 60.6057 101.602C60.0224 101.216 59.6531 100.652 59.4978 99.9091L60.7705 99.5909C60.8917 100.061 61.1209 100.413 61.458 100.648C61.7989 100.883 62.244 101 62.7932 101C63.4182 101 63.9145 100.867 64.2819 100.602C64.6531 100.333 64.8387 100.011 64.8387 99.6364C64.8387 99.3333 64.7326 99.0795 64.5205 98.875C64.3084 98.6667 63.9826 98.5114 63.5432 98.4091L62.0887 98.0682C61.2895 97.8788 60.7023 97.5852 60.3273 97.1875C59.9561 96.786 59.7705 96.2841 59.7705 95.6818C59.7705 95.1894 59.9088 94.7538 60.1853 94.375C60.4656 93.9962 60.8463 93.6989 61.3273 93.483C61.8122 93.267 62.3614 93.1591 62.9751 93.1591C63.8387 93.1591 64.5167 93.3485 65.0091 93.7273C65.5054 94.1061 65.8576 94.6061 66.066 95.2273ZM71.719 93.2727V94.4091H67.1963V93.2727H71.719ZM68.5144 91.1818H69.8553V99.5C69.8553 99.8788 69.9103 100.163 70.0201 100.352C70.1338 100.538 70.2777 100.663 70.4519 100.727C70.63 100.788 70.8175 100.818 71.0144 100.818C71.1622 100.818 71.2834 100.811 71.3781 100.795C71.4728 100.777 71.5485 100.761 71.6053 100.75L71.8781 101.955C71.7872 101.989 71.6603 102.023 71.4974 102.057C71.3345 102.095 71.1281 102.114 70.8781 102.114C70.4993 102.114 70.1281 102.032 69.7644 101.869C69.4046 101.706 69.1053 101.458 68.8667 101.125C68.6319 100.792 68.5144 100.371 68.5144 99.8636V91.1818ZM78.1035 96.3864V97.6364H73.0126V96.3864H78.1035ZM86.3247 95.2273L85.1202 95.5682C85.0444 95.3674 84.9327 95.1723 84.7849 94.983C84.641 94.7898 84.444 94.6307 84.194 94.5057C83.944 94.3807 83.624 94.3182 83.2338 94.3182C82.6997 94.3182 82.2546 94.4413 81.8986 94.6875C81.5463 94.9299 81.3702 95.2386 81.3702 95.6136C81.3702 95.947 81.4914 96.2102 81.7338 96.4034C81.9762 96.5966 82.355 96.7576 82.8702 96.8864L84.1656 97.2045C84.9459 97.3939 85.5274 97.6837 85.9099 98.0739C86.2925 98.4602 86.4838 98.9583 86.4838 99.5682C86.4838 100.068 86.3399 100.515 86.052 100.909C85.7679 101.303 85.3702 101.614 84.8588 101.841C84.3474 102.068 83.7527 102.182 83.0747 102.182C82.1846 102.182 81.4478 101.989 80.8645 101.602C80.2812 101.216 79.9118 100.652 79.7565 99.9091L81.0293 99.5909C81.1505 100.061 81.3796 100.413 81.7168 100.648C82.0577 100.883 82.5027 101 83.052 101C83.677 101 84.1732 100.867 84.5406 100.602C84.9118 100.333 85.0974 100.011 85.0974 99.6364C85.0974 99.3333 84.9914 99.0795 84.7793 98.875C84.5671 98.6667 84.2414 98.5114 83.802 98.4091L82.3474 98.0682C81.5482 97.8788 80.9611 97.5852 80.5861 97.1875C80.2149 96.786 80.0293 96.2841 80.0293 95.6818C80.0293 95.1894 80.1675 94.7538 80.444 94.375C80.7243 93.9962 81.105 93.6989 81.5861 93.483C82.0709 93.267 82.6202 93.1591 83.2338 93.1591C84.0974 93.1591 84.7755 93.3485 85.2679 93.7273C85.7641 94.1061 86.1164 94.6061 86.3247 95.2273ZM91.9777 93.2727V94.4091H87.455V93.2727H91.9777ZM88.7732 91.1818H90.1141V99.5C90.1141 99.8788 90.169 100.163 90.2789 100.352C90.3925 100.538 90.5364 100.663 90.7107 100.727C90.8887 100.788 91.0762 100.818 91.2732 100.818C91.4209 100.818 91.5421 100.811 91.6368 100.795C91.7315 100.777 91.8073 100.761 91.8641 100.75L92.1368 101.955C92.0459 101.989 91.919 102.023 91.7561 102.057C91.5933 102.095 91.3868 102.114 91.1368 102.114C90.758 102.114 90.3868 102.032 90.0232 101.869C89.6633 101.706 89.3641 101.458 89.1255 101.125C88.8906 100.792 88.7732 100.371 88.7732 99.8636V91.1818ZM96.243 102.205C95.6899 102.205 95.188 102.1 94.7373 101.892C94.2865 101.68 93.9286 101.375 93.6634 100.977C93.3983 100.576 93.2657 100.091 93.2657 99.5227C93.2657 99.0227 93.3642 98.6174 93.5611 98.3068C93.7581 97.9924 94.0214 97.7462 94.3509 97.5682C94.6805 97.3902 95.0441 97.2576 95.4418 97.1705C95.8433 97.0795 96.2467 97.0076 96.652 96.9545C97.1823 96.8864 97.6123 96.8352 97.9418 96.8011C98.2752 96.7633 98.5176 96.7008 98.6691 96.6136C98.8244 96.5265 98.902 96.375 98.902 96.1591V96.1136C98.902 95.553 98.7486 95.1174 98.4418 94.8068C98.1388 94.4962 97.6786 94.3409 97.0611 94.3409C96.421 94.3409 95.9191 94.4811 95.5555 94.7614C95.1918 95.0417 94.9361 95.3409 94.7884 95.6591L93.5157 95.2045C93.743 94.6742 94.046 94.2614 94.4248 93.9659C94.8073 93.6667 95.224 93.4583 95.6748 93.3409C96.1293 93.2197 96.5763 93.1591 97.0157 93.1591C97.296 93.1591 97.618 93.1932 97.9816 93.2614C98.349 93.3258 98.7032 93.4602 99.0441 93.6648C99.3888 93.8693 99.6748 94.178 99.902 94.5909C100.129 95.0038 100.243 95.5568 100.243 96.25V102H98.902V100.818H98.8339C98.743 101.008 98.5914 101.21 98.3793 101.426C98.1672 101.642 97.885 101.826 97.5327 101.977C97.1805 102.129 96.7505 102.205 96.243 102.205ZM96.4475 101C96.9778 101 97.4248 100.896 97.7884 100.688C98.1558 100.479 98.4323 100.21 98.618 99.8807C98.8073 99.5511 98.902 99.2045 98.902 98.8409V97.6136C98.8452 97.6818 98.7202 97.7443 98.527 97.8011C98.3376 97.8542 98.118 97.9015 97.868 97.9432C97.6217 97.9811 97.3812 98.0152 97.1464 98.0455C96.9153 98.072 96.7278 98.0947 96.5839 98.1136C96.2354 98.1591 95.9096 98.233 95.6066 98.3352C95.3073 98.4337 95.0649 98.5833 94.8793 98.7841C94.6975 98.9811 94.6066 99.25 94.6066 99.5909C94.6066 100.057 94.7789 100.409 95.1236 100.648C95.4721 100.883 95.9134 101 96.4475 101ZM106.166 93.2727V94.4091H101.643V93.2727H106.166ZM102.961 91.1818H104.302V99.5C104.302 99.8788 104.357 100.163 104.467 100.352C104.581 100.538 104.725 100.663 104.899 100.727C105.077 100.788 105.264 100.818 105.461 100.818C105.609 100.818 105.73 100.811 105.825 100.795C105.92 100.777 105.995 100.761 106.052 100.75L106.325 101.955C106.234 101.989 106.107 102.023 105.944 102.057C105.781 102.095 105.575 102.114 105.325 102.114C104.946 102.114 104.575 102.032 104.211 101.869C103.851 101.706 103.552 101.458 103.314 101.125C103.079 100.792 102.961 100.371 102.961 99.8636V91.1818ZM111.428 102.182C110.587 102.182 109.862 101.996 109.252 101.625C108.646 101.25 108.178 100.727 107.849 100.057C107.523 99.3826 107.36 98.5985 107.36 97.7045C107.36 96.8106 107.523 96.0227 107.849 95.3409C108.178 94.6553 108.637 94.1212 109.224 93.7386C109.815 93.3523 110.504 93.1591 111.292 93.1591C111.746 93.1591 112.195 93.2348 112.638 93.3864C113.082 93.5379 113.485 93.7841 113.849 94.125C114.212 94.4621 114.502 94.9091 114.718 95.4659C114.934 96.0227 115.042 96.7083 115.042 97.5227V98.0909H108.315V96.9318H113.678C113.678 96.4394 113.58 96 113.383 95.6136C113.19 95.2273 112.913 94.9223 112.553 94.6989C112.197 94.4754 111.777 94.3636 111.292 94.3636C110.758 94.3636 110.296 94.4962 109.906 94.7614C109.519 95.0227 109.222 95.3636 109.013 95.7841C108.805 96.2045 108.701 96.6553 108.701 97.1364V97.9091C108.701 98.5682 108.815 99.1269 109.042 99.5852C109.273 100.04 109.593 100.386 110.002 100.625C110.411 100.86 110.887 100.977 111.428 100.977C111.781 100.977 112.099 100.928 112.383 100.83C112.671 100.727 112.919 100.576 113.127 100.375C113.335 100.17 113.496 99.9167 113.61 99.6136L114.906 99.9773C114.769 100.417 114.54 100.803 114.218 101.136C113.896 101.466 113.498 101.723 113.025 101.909C112.551 102.091 112.019 102.182 111.428 102.182ZM117.739 102.091C117.459 102.091 117.218 101.991 117.017 101.79C116.817 101.589 116.716 101.348 116.716 101.068C116.716 100.788 116.817 100.547 117.017 100.347C117.218 100.146 117.459 100.045 117.739 100.045C118.019 100.045 118.26 100.146 118.461 100.347C118.661 100.547 118.762 100.788 118.762 101.068C118.762 101.254 118.714 101.424 118.62 101.58C118.529 101.735 118.406 101.86 118.25 101.955C118.099 102.045 117.928 102.091 117.739 102.091ZM117.739 95.6136C117.459 95.6136 117.218 95.5133 117.017 95.3125C116.817 95.1117 116.716 94.8712 116.716 94.5909C116.716 94.3106 116.817 94.0701 117.017 93.8693C117.218 93.6686 117.459 93.5682 117.739 93.5682C118.019 93.5682 118.26 93.6686 118.461 93.8693C118.661 94.0701 118.762 94.3106 118.762 94.5909C118.762 94.7765 118.714 94.947 118.62 95.1023C118.529 95.2576 118.406 95.3826 118.25 95.4773C118.099 95.5682 117.928 95.6136 117.739 95.6136ZM128.573 102.182C127.755 102.182 127.051 101.989 126.46 101.602C125.869 101.216 125.414 100.684 125.096 100.006C124.778 99.3277 124.619 98.553 124.619 97.6818C124.619 96.7955 124.782 96.0133 125.107 95.3352C125.437 94.6534 125.895 94.1212 126.482 93.7386C127.073 93.3523 127.763 93.1591 128.551 93.1591C129.164 93.1591 129.717 93.2727 130.21 93.5C130.702 93.7273 131.106 94.0455 131.42 94.4545C131.734 94.8636 131.929 95.3409 132.005 95.8864H130.664C130.562 95.4886 130.335 95.1364 129.982 94.8295C129.634 94.5189 129.164 94.3636 128.573 94.3636C128.051 94.3636 127.592 94.5 127.198 94.7727C126.808 95.0417 126.503 95.4223 126.284 95.9148C126.068 96.4034 125.96 96.9773 125.96 97.6364C125.96 98.3106 126.066 98.8977 126.278 99.3977C126.494 99.8977 126.797 100.286 127.187 100.562C127.581 100.839 128.043 100.977 128.573 100.977C128.922 100.977 129.238 100.917 129.522 100.795C129.806 100.674 130.047 100.5 130.244 100.273C130.441 100.045 130.581 99.7727 130.664 99.4545H132.005C131.929 99.9697 131.742 100.434 131.443 100.847C131.147 101.256 130.755 101.581 130.267 101.824C129.782 102.062 129.217 102.182 128.573 102.182ZM137.191 102.182C136.403 102.182 135.712 101.994 135.117 101.619C134.526 101.244 134.064 100.72 133.731 100.045C133.401 99.3712 133.236 98.5833 133.236 97.6818C133.236 96.7727 133.401 95.9792 133.731 95.3011C134.064 94.6231 134.526 94.0966 135.117 93.7216C135.712 93.3466 136.403 93.1591 137.191 93.1591C137.979 93.1591 138.668 93.3466 139.259 93.7216C139.854 94.0966 140.316 94.6231 140.645 95.3011C140.979 95.9792 141.145 96.7727 141.145 97.6818C141.145 98.5833 140.979 99.3712 140.645 100.045C140.316 100.72 139.854 101.244 139.259 101.619C138.668 101.994 137.979 102.182 137.191 102.182ZM137.191 100.977C137.789 100.977 138.282 100.824 138.668 100.517C139.054 100.21 139.34 99.8068 139.526 99.3068C139.712 98.8068 139.804 98.2652 139.804 97.6818C139.804 97.0985 139.712 96.5549 139.526 96.0511C139.34 95.5473 139.054 95.1402 138.668 94.8295C138.282 94.5189 137.789 94.3636 137.191 94.3636C136.592 94.3636 136.1 94.5189 135.714 94.8295C135.327 95.1402 135.041 95.5473 134.856 96.0511C134.67 96.5549 134.577 97.0985 134.577 97.6818C134.577 98.2652 134.67 98.8068 134.856 99.3068C135.041 99.8068 135.327 100.21 135.714 100.517C136.1 100.824 136.592 100.977 137.191 100.977ZM144.213 96.75V102H142.872V93.2727H144.168V94.6364H144.281C144.486 94.1932 144.797 93.8371 145.213 93.5682C145.63 93.2955 146.168 93.1591 146.827 93.1591C147.418 93.1591 147.935 93.2803 148.378 93.5227C148.821 93.7614 149.166 94.125 149.412 94.6136C149.658 95.0985 149.781 95.7121 149.781 96.4545V102H148.44V96.5455C148.44 95.8598 148.262 95.3258 147.906 94.9432C147.55 94.5568 147.062 94.3636 146.44 94.3636C146.012 94.3636 145.63 94.4564 145.293 94.642C144.959 94.8277 144.696 95.0985 144.503 95.4545C144.31 95.8106 144.213 96.2424 144.213 96.75ZM155.207 102.182C154.48 102.182 153.838 101.998 153.281 101.631C152.724 101.259 152.289 100.737 151.974 100.062C151.66 99.3845 151.503 98.5833 151.503 97.6591C151.503 96.7424 151.66 95.947 151.974 95.2727C152.289 94.5985 152.726 94.0777 153.287 93.7102C153.847 93.3428 154.495 93.1591 155.23 93.1591C155.798 93.1591 156.247 93.2538 156.576 93.4432C156.91 93.6288 157.164 93.8409 157.338 94.0795C157.516 94.3144 157.654 94.5076 157.753 94.6591H157.866V90.3636H159.207V102H157.912V100.659H157.753C157.654 100.818 157.514 101.019 157.332 101.261C157.15 101.5 156.891 101.714 156.554 101.903C156.217 102.089 155.768 102.182 155.207 102.182ZM155.389 100.977C155.927 100.977 156.381 100.837 156.753 100.557C157.124 100.273 157.406 99.8807 157.599 99.3807C157.792 98.8769 157.889 98.2955 157.889 97.6364C157.889 96.9848 157.794 96.4148 157.605 95.9261C157.415 95.4337 157.135 95.0511 156.764 94.7784C156.393 94.5019 155.934 94.3636 155.389 94.3636C154.821 94.3636 154.347 94.5095 153.968 94.8011C153.593 95.089 153.311 95.4811 153.122 95.9773C152.936 96.4697 152.843 97.0227 152.843 97.6364C152.843 98.2576 152.938 98.822 153.128 99.3295C153.321 99.8333 153.605 100.235 153.98 100.534C154.359 100.83 154.828 100.977 155.389 100.977ZM161.529 102V93.2727H162.87V102H161.529ZM162.211 91.8182C161.95 91.8182 161.724 91.7292 161.535 91.5511C161.349 91.3731 161.256 91.1591 161.256 90.9091C161.256 90.6591 161.349 90.4451 161.535 90.267C161.724 90.089 161.95 90 162.211 90C162.472 90 162.696 90.089 162.881 90.267C163.071 90.4451 163.166 90.6591 163.166 90.9091C163.166 91.1591 163.071 91.3731 162.881 91.5511C162.696 91.7292 162.472 91.8182 162.211 91.8182ZM168.801 93.2727V94.4091H164.279V93.2727H168.801ZM165.597 91.1818H166.938V99.5C166.938 99.8788 166.993 100.163 167.103 100.352C167.216 100.538 167.36 100.663 167.534 100.727C167.712 100.788 167.9 100.818 168.097 100.818C168.245 100.818 168.366 100.811 168.461 100.795C168.555 100.777 168.631 100.761 168.688 100.75L168.961 101.955C168.87 101.989 168.743 102.023 168.58 102.057C168.417 102.095 168.211 102.114 167.961 102.114C167.582 102.114 167.211 102.032 166.847 101.869C166.487 101.706 166.188 101.458 165.949 101.125C165.714 100.792 165.597 100.371 165.597 99.8636V91.1818ZM170.499 102V93.2727H171.839V102H170.499ZM171.18 91.8182C170.919 91.8182 170.694 91.7292 170.504 91.5511C170.319 91.3731 170.226 91.1591 170.226 90.9091C170.226 90.6591 170.319 90.4451 170.504 90.267C170.694 90.089 170.919 90 171.18 90C171.442 90 171.665 90.089 171.851 90.267C172.04 90.4451 172.135 90.6591 172.135 90.9091C172.135 91.1591 172.04 91.3731 171.851 91.5511C171.665 91.7292 171.442 91.8182 171.18 91.8182ZM177.521 102.182C176.733 102.182 176.042 101.994 175.447 101.619C174.856 101.244 174.394 100.72 174.061 100.045C173.731 99.3712 173.566 98.5833 173.566 97.6818C173.566 96.7727 173.731 95.9792 174.061 95.3011C174.394 94.6231 174.856 94.0966 175.447 93.7216C176.042 93.3466 176.733 93.1591 177.521 93.1591C178.309 93.1591 178.998 93.3466 179.589 93.7216C180.184 94.0966 180.646 94.6231 180.975 95.3011C181.309 95.9792 181.475 96.7727 181.475 97.6818C181.475 98.5833 181.309 99.3712 180.975 100.045C180.646 100.72 180.184 101.244 179.589 101.619C178.998 101.994 178.309 102.182 177.521 102.182ZM177.521 100.977C178.119 100.977 178.612 100.824 178.998 100.517C179.384 100.21 179.67 99.8068 179.856 99.3068C180.042 98.8068 180.134 98.2652 180.134 97.6818C180.134 97.0985 180.042 96.5549 179.856 96.0511C179.67 95.5473 179.384 95.1402 178.998 94.8295C178.612 94.5189 178.119 94.3636 177.521 94.3636C176.922 94.3636 176.43 94.5189 176.044 94.8295C175.657 95.1402 175.371 95.5473 175.186 96.0511C175 96.5549 174.907 97.0985 174.907 97.6818C174.907 98.2652 175 98.8068 175.186 99.3068C175.371 99.8068 175.657 100.21 176.044 100.517C176.43 100.824 176.922 100.977 177.521 100.977ZM184.543 96.75V102H183.202V93.2727H184.498V94.6364H184.611C184.816 94.1932 185.127 93.8371 185.543 93.5682C185.96 93.2955 186.498 93.1591 187.157 93.1591C187.748 93.1591 188.265 93.2803 188.708 93.5227C189.151 93.7614 189.496 94.125 189.742 94.6136C189.988 95.0985 190.111 95.7121 190.111 96.4545V102H188.77V96.5455C188.77 95.8598 188.592 95.3258 188.236 94.9432C187.88 94.5568 187.392 94.3636 186.77 94.3636C186.342 94.3636 185.96 94.4564 185.623 94.642C185.289 94.8277 185.026 95.0985 184.833 95.4545C184.64 95.8106 184.543 96.2424 184.543 96.75ZM194.81 102.205C194.257 102.205 193.755 102.1 193.304 101.892C192.853 101.68 192.495 101.375 192.23 100.977C191.965 100.576 191.833 100.091 191.833 99.5227C191.833 99.0227 191.931 98.6174 192.128 98.3068C192.325 97.9924 192.588 97.7462 192.918 97.5682C193.247 97.3902 193.611 97.2576 194.009 97.1705C194.41 97.0795 194.814 97.0076 195.219 96.9545C195.749 96.8864 196.179 96.8352 196.509 96.8011C196.842 96.7633 197.084 96.7008 197.236 96.6136C197.391 96.5265 197.469 96.375 197.469 96.1591V96.1136C197.469 95.553 197.316 95.1174 197.009 94.8068C196.706 94.4962 196.245 94.3409 195.628 94.3409C194.988 94.3409 194.486 94.4811 194.122 94.7614C193.759 95.0417 193.503 95.3409 193.355 95.6591L192.083 95.2045C192.31 94.6742 192.613 94.2614 192.992 93.9659C193.374 93.6667 193.791 93.4583 194.242 93.3409C194.696 93.2197 195.143 93.1591 195.583 93.1591C195.863 93.1591 196.185 93.1932 196.548 93.2614C196.916 93.3258 197.27 93.4602 197.611 93.6648C197.956 93.8693 198.242 94.178 198.469 94.5909C198.696 95.0038 198.81 95.5568 198.81 96.25V102H197.469V100.818H197.401C197.31 101.008 197.158 101.21 196.946 101.426C196.734 101.642 196.452 101.826 196.1 101.977C195.747 102.129 195.317 102.205 194.81 102.205ZM195.014 101C195.545 101 195.992 100.896 196.355 100.688C196.723 100.479 196.999 100.21 197.185 99.8807C197.374 99.5511 197.469 99.2045 197.469 98.8409V97.6136C197.412 97.6818 197.287 97.7443 197.094 97.8011C196.905 97.8542 196.685 97.9015 196.435 97.9432C196.189 97.9811 195.948 98.0152 195.713 98.0455C195.482 98.072 195.295 98.0947 195.151 98.1136C194.802 98.1591 194.476 98.233 194.173 98.3352C193.874 98.4337 193.632 98.5833 193.446 98.7841C193.264 98.9811 193.173 99.25 193.173 99.5909C193.173 100.057 193.346 100.409 193.691 100.648C194.039 100.883 194.48 101 195.014 101ZM202.278 90.3636V102H200.937V90.3636H202.278ZM211.162 102.205C210.609 102.205 210.107 102.1 209.657 101.892C209.206 101.68 208.848 101.375 208.583 100.977C208.318 100.576 208.185 100.091 208.185 99.5227C208.185 99.0227 208.284 98.6174 208.481 98.3068C208.677 97.9924 208.941 97.7462 209.27 97.5682C209.6 97.3902 209.963 97.2576 210.361 97.1705C210.763 97.0795 211.166 97.0076 211.571 96.9545C212.102 96.8864 212.532 96.8352 212.861 96.8011C213.195 96.7633 213.437 96.7008 213.588 96.6136C213.744 96.5265 213.821 96.375 213.821 96.1591V96.1136C213.821 95.553 213.668 95.1174 213.361 94.8068C213.058 94.4962 212.598 94.3409 211.981 94.3409C211.34 94.3409 210.838 94.4811 210.475 94.7614C210.111 95.0417 209.856 95.3409 209.708 95.6591L208.435 95.2045C208.662 94.6742 208.965 94.2614 209.344 93.9659C209.727 93.6667 210.143 93.4583 210.594 93.3409C211.049 93.2197 211.496 93.1591 211.935 93.1591C212.215 93.1591 212.537 93.1932 212.901 93.2614C213.268 93.3258 213.623 93.4602 213.963 93.6648C214.308 93.8693 214.594 94.178 214.821 94.5909C215.049 95.0038 215.162 95.5568 215.162 96.25V102H213.821V100.818H213.753C213.662 101.008 213.511 101.21 213.299 101.426C213.087 101.642 212.804 101.826 212.452 101.977C212.1 102.129 211.67 102.205 211.162 102.205ZM211.367 101C211.897 101 212.344 100.896 212.708 100.688C213.075 100.479 213.352 100.21 213.537 99.8807C213.727 99.5511 213.821 99.2045 213.821 98.8409V97.6136C213.765 97.6818 213.64 97.7443 213.446 97.8011C213.257 97.8542 213.037 97.9015 212.787 97.9432C212.541 97.9811 212.301 98.0152 212.066 98.0455C211.835 98.072 211.647 98.0947 211.503 98.1136C211.155 98.1591 210.829 98.233 210.526 98.3352C210.227 98.4337 209.984 98.5833 209.799 98.7841C209.617 98.9811 209.526 99.25 209.526 99.5909C209.526 100.057 209.698 100.409 210.043 100.648C210.392 100.883 210.833 101 211.367 101ZM220.835 102.182C220.017 102.182 219.313 101.989 218.722 101.602C218.131 101.216 217.676 100.684 217.358 100.006C217.04 99.3277 216.881 98.553 216.881 97.6818C216.881 96.7955 217.044 96.0133 217.369 95.3352C217.699 94.6534 218.157 94.1212 218.744 93.7386C219.335 93.3523 220.025 93.1591 220.812 93.1591C221.426 93.1591 221.979 93.2727 222.472 93.5C222.964 93.7273 223.367 94.0455 223.682 94.4545C223.996 94.8636 224.191 95.3409 224.267 95.8864H222.926C222.824 95.4886 222.597 95.1364 222.244 94.8295C221.896 94.5189 221.426 94.3636 220.835 94.3636C220.313 94.3636 219.854 94.5 219.46 94.7727C219.07 95.0417 218.765 95.4223 218.545 95.9148C218.33 96.4034 218.222 96.9773 218.222 97.6364C218.222 98.3106 218.328 98.8977 218.54 99.3977C218.756 99.8977 219.059 100.286 219.449 100.562C219.843 100.839 220.305 100.977 220.835 100.977C221.184 100.977 221.5 100.917 221.784 100.795C222.068 100.674 222.309 100.5 222.506 100.273C222.703 100.045 222.843 99.7727 222.926 99.4545H224.267C224.191 99.9697 224.004 100.434 223.705 100.847C223.409 101.256 223.017 101.581 222.528 101.824C222.044 102.062 221.479 102.182 220.835 102.182ZM229.453 102.182C228.635 102.182 227.93 101.989 227.339 101.602C226.748 101.216 226.294 100.684 225.975 100.006C225.657 99.3277 225.498 98.553 225.498 97.6818C225.498 96.7955 225.661 96.0133 225.987 95.3352C226.316 94.6534 226.775 94.1212 227.362 93.7386C227.953 93.3523 228.642 93.1591 229.43 93.1591C230.044 93.1591 230.597 93.2727 231.089 93.5C231.582 93.7273 231.985 94.0455 232.299 94.4545C232.614 94.8636 232.809 95.3409 232.885 95.8864H231.544C231.441 95.4886 231.214 95.1364 230.862 94.8295C230.513 94.5189 230.044 94.3636 229.453 94.3636C228.93 94.3636 228.472 94.5 228.078 94.7727C227.688 95.0417 227.383 95.4223 227.163 95.9148C226.947 96.4034 226.839 96.9773 226.839 97.6364C226.839 98.3106 226.945 98.8977 227.157 99.3977C227.373 99.8977 227.676 100.286 228.066 100.562C228.46 100.839 228.922 100.977 229.453 100.977C229.801 100.977 230.117 100.917 230.402 100.795C230.686 100.674 230.926 100.5 231.123 100.273C231.32 100.045 231.46 99.7727 231.544 99.4545H232.885C232.809 99.9697 232.621 100.434 232.322 100.847C232.027 101.256 231.635 101.581 231.146 101.824C230.661 102.062 230.097 102.182 229.453 102.182ZM238.184 102.182C237.343 102.182 236.618 101.996 236.008 101.625C235.402 101.25 234.934 100.727 234.604 100.057C234.279 99.3826 234.116 98.5985 234.116 97.7045C234.116 96.8106 234.279 96.0227 234.604 95.3409C234.934 94.6553 235.392 94.1212 235.979 93.7386C236.57 93.3523 237.26 93.1591 238.048 93.1591C238.502 93.1591 238.951 93.2348 239.394 93.3864C239.837 93.5379 240.241 93.7841 240.604 94.125C240.968 94.4621 241.258 94.9091 241.474 95.4659C241.69 96.0227 241.798 96.7083 241.798 97.5227V98.0909H235.07V96.9318H240.434C240.434 96.4394 240.335 96 240.138 95.6136C239.945 95.2273 239.669 94.9223 239.309 94.6989C238.953 94.4754 238.532 94.3636 238.048 94.3636C237.513 94.3636 237.051 94.4962 236.661 94.7614C236.275 95.0227 235.977 95.3636 235.769 95.7841C235.561 96.2045 235.457 96.6553 235.457 97.1364V97.9091C235.457 98.5682 235.57 99.1269 235.798 99.5852C236.029 100.04 236.349 100.386 236.758 100.625C237.167 100.86 237.642 100.977 238.184 100.977C238.536 100.977 238.854 100.928 239.138 100.83C239.426 100.727 239.674 100.576 239.883 100.375C240.091 100.17 240.252 99.9167 240.366 99.6136L241.661 99.9773C241.525 100.417 241.296 100.803 240.974 101.136C240.652 101.466 240.254 101.723 239.78 101.909C239.307 102.091 238.775 102.182 238.184 102.182ZM249.699 95.2273L248.495 95.5682C248.419 95.3674 248.307 95.1723 248.159 94.983C248.015 94.7898 247.818 94.6307 247.568 94.5057C247.318 94.3807 246.998 94.3182 246.608 94.3182C246.074 94.3182 245.629 94.4413 245.273 94.6875C244.921 94.9299 244.745 95.2386 244.745 95.6136C244.745 95.947 244.866 96.2102 245.108 96.4034C245.351 96.5966 245.729 96.7576 246.245 96.8864L247.54 97.2045C248.32 97.3939 248.902 97.6837 249.284 98.0739C249.667 98.4602 249.858 98.9583 249.858 99.5682C249.858 100.068 249.714 100.515 249.426 100.909C249.142 101.303 248.745 101.614 248.233 101.841C247.722 102.068 247.127 102.182 246.449 102.182C245.559 102.182 244.822 101.989 244.239 101.602C243.656 101.216 243.286 100.652 243.131 99.9091L244.404 99.5909C244.525 100.061 244.754 100.413 245.091 100.648C245.432 100.883 245.877 101 246.426 101C247.051 101 247.548 100.867 247.915 100.602C248.286 100.333 248.472 100.011 248.472 99.6364C248.472 99.3333 248.366 99.0795 248.154 98.875C247.942 98.6667 247.616 98.5114 247.176 98.4091L245.722 98.0682C244.923 97.8788 244.335 97.5852 243.96 97.1875C243.589 96.786 243.404 96.2841 243.404 95.6818C243.404 95.1894 243.542 94.7538 243.818 94.375C244.099 93.9962 244.479 93.6989 244.96 93.483C245.445 93.267 245.995 93.1591 246.608 93.1591C247.472 93.1591 248.15 93.3485 248.642 93.7273C249.138 94.1061 249.491 94.6061 249.699 95.2273ZM257.738 95.2273L256.534 95.5682C256.458 95.3674 256.346 95.1723 256.199 94.983C256.055 94.7898 255.858 94.6307 255.608 94.5057C255.358 94.3807 255.038 94.3182 254.648 94.3182C254.113 94.3182 253.668 94.4413 253.312 94.6875C252.96 94.9299 252.784 95.2386 252.784 95.6136C252.784 95.947 252.905 96.2102 253.148 96.4034C253.39 96.5966 253.769 96.7576 254.284 96.8864L255.579 97.2045C256.36 97.3939 256.941 97.6837 257.324 98.0739C257.706 98.4602 257.898 98.9583 257.898 99.5682C257.898 100.068 257.754 100.515 257.466 100.909C257.182 101.303 256.784 101.614 256.273 101.841C255.761 102.068 255.166 102.182 254.488 102.182C253.598 102.182 252.862 101.989 252.278 101.602C251.695 101.216 251.326 100.652 251.17 99.9091L252.443 99.5909C252.564 100.061 252.793 100.413 253.131 100.648C253.471 100.883 253.916 101 254.466 101C255.091 101 255.587 100.867 255.954 100.602C256.326 100.333 256.511 100.011 256.511 99.6364C256.511 99.3333 256.405 99.0795 256.193 98.875C255.981 98.6667 255.655 98.5114 255.216 98.4091L253.761 98.0682C252.962 97.8788 252.375 97.5852 252 97.1875C251.629 96.786 251.443 96.2841 251.443 95.6818C251.443 95.1894 251.581 94.7538 251.858 94.375C252.138 93.9962 252.519 93.6989 253 93.483C253.485 93.267 254.034 93.1591 254.648 93.1591C255.511 93.1591 256.189 93.3485 256.682 93.7273C257.178 94.1061 257.53 94.6061 257.738 95.2273ZM259.596 102V93.2727H260.937V102H259.596ZM260.278 91.8182C260.016 91.8182 259.791 91.7292 259.602 91.5511C259.416 91.3731 259.323 91.1591 259.323 90.9091C259.323 90.6591 259.416 90.4451 259.602 90.267C259.791 90.089 260.016 90 260.278 90C260.539 90 260.763 90.089 260.948 90.267C261.138 90.4451 261.232 90.6591 261.232 90.9091C261.232 91.1591 261.138 91.3731 260.948 91.5511C260.763 91.7292 260.539 91.8182 260.278 91.8182ZM263.255 102V90.3636H264.596V94.6591H264.709C264.808 94.5076 264.944 94.3144 265.118 94.0795C265.296 93.8409 265.55 93.6288 265.88 93.4432C266.213 93.2538 266.664 93.1591 267.232 93.1591C267.967 93.1591 268.615 93.3428 269.175 93.7102C269.736 94.0777 270.173 94.5985 270.488 95.2727C270.802 95.947 270.959 96.7424 270.959 97.6591C270.959 98.5833 270.802 99.3845 270.488 100.062C270.173 100.737 269.738 101.259 269.181 101.631C268.624 101.998 267.982 102.182 267.255 102.182C266.694 102.182 266.245 102.089 265.908 101.903C265.571 101.714 265.312 101.5 265.13 101.261C264.948 101.019 264.808 100.818 264.709 100.659H264.55V102H263.255ZM264.573 97.6364C264.573 98.2955 264.669 98.8769 264.863 99.3807C265.056 99.8807 265.338 100.273 265.709 100.557C266.08 100.837 266.535 100.977 267.073 100.977C267.634 100.977 268.101 100.83 268.476 100.534C268.855 100.235 269.139 99.8333 269.329 99.3295C269.522 98.822 269.618 98.2576 269.618 97.6364C269.618 97.0227 269.524 96.4697 269.334 95.9773C269.149 95.4811 268.866 95.089 268.488 94.8011C268.113 94.5095 267.641 94.3636 267.073 94.3636C266.527 94.3636 266.069 94.5019 265.698 94.7784C265.327 95.0511 265.046 95.4337 264.857 95.9261C264.668 96.4148 264.573 96.9848 264.573 97.6364ZM272.69 102V93.2727H274.031V102H272.69ZM273.372 91.8182C273.111 91.8182 272.885 91.7292 272.696 91.5511C272.51 91.3731 272.418 91.1591 272.418 90.9091C272.418 90.6591 272.51 90.4451 272.696 90.267C272.885 90.089 273.111 90 273.372 90C273.634 90 273.857 90.089 274.043 90.267C274.232 90.4451 274.327 90.6591 274.327 90.9091C274.327 91.1591 274.232 91.3731 274.043 91.5511C273.857 91.7292 273.634 91.8182 273.372 91.8182ZM277.508 90.3636V102H276.167V90.3636H277.508ZM279.644 102V93.2727H280.985V102H279.644ZM280.326 91.8182C280.065 91.8182 279.839 91.7292 279.65 91.5511C279.464 91.3731 279.371 91.1591 279.371 90.9091C279.371 90.6591 279.464 90.4451 279.65 90.267C279.839 90.089 280.065 90 280.326 90C280.587 90 280.811 90.089 280.996 90.267C281.186 90.4451 281.281 90.6591 281.281 90.9091C281.281 91.1591 281.186 91.3731 280.996 91.5511C280.811 91.7292 280.587 91.8182 280.326 91.8182ZM286.916 93.2727V94.4091H282.394V93.2727H286.916ZM283.712 91.1818H285.053V99.5C285.053 99.8788 285.108 100.163 285.218 100.352C285.331 100.538 285.475 100.663 285.649 100.727C285.827 100.788 286.015 100.818 286.212 100.818C286.36 100.818 286.481 100.811 286.576 100.795C286.67 100.777 286.746 100.761 286.803 100.75L287.076 101.955C286.985 101.989 286.858 102.023 286.695 102.057C286.532 102.095 286.326 102.114 286.076 102.114C285.697 102.114 285.326 102.032 284.962 101.869C284.602 101.706 284.303 101.458 284.064 101.125C283.829 100.792 283.712 100.371 283.712 99.8636V91.1818ZM289.477 105.273C289.25 105.273 289.047 105.254 288.869 105.216C288.691 105.182 288.568 105.148 288.5 105.114L288.841 103.932C289.167 104.015 289.454 104.045 289.704 104.023C289.954 104 290.176 103.888 290.369 103.688C290.566 103.491 290.746 103.17 290.909 102.727L291.159 102.045L287.932 93.2727H289.386L291.795 100.227H291.886L294.295 93.2727H295.75L292.045 103.273C291.879 103.723 291.672 104.097 291.426 104.392C291.18 104.691 290.894 104.913 290.568 105.057C290.246 105.201 289.882 105.273 289.477 105.273ZM303.357 102L300.698 93.2727H302.107L303.993 99.9545H304.084L305.948 93.2727H307.38L309.221 99.9318H309.312L311.198 93.2727H312.607L309.948 102H308.63L306.721 95.2955H306.584L304.675 102H303.357ZM314.06 102V93.2727H315.401V102H314.06ZM314.742 91.8182C314.48 91.8182 314.255 91.7292 314.065 91.5511C313.88 91.3731 313.787 91.1591 313.787 90.9091C313.787 90.6591 313.88 90.4451 314.065 90.267C314.255 90.089 314.48 90 314.742 90C315.003 90 315.226 90.089 315.412 90.267C315.601 90.4451 315.696 90.6591 315.696 90.9091C315.696 91.1591 315.601 91.3731 315.412 91.5511C315.226 91.7292 315.003 91.8182 314.742 91.8182ZM321.332 93.2727V94.4091H316.809V93.2727H321.332ZM318.128 91.1818H319.468V99.5C319.468 99.8788 319.523 100.163 319.633 100.352C319.747 100.538 319.891 100.663 320.065 100.727C320.243 100.788 320.431 100.818 320.628 100.818C320.775 100.818 320.897 100.811 320.991 100.795C321.086 100.777 321.162 100.761 321.218 100.75L321.491 101.955C321.4 101.989 321.273 102.023 321.111 102.057C320.948 102.095 320.741 102.114 320.491 102.114C320.112 102.114 319.741 102.032 319.378 101.869C319.018 101.706 318.718 101.458 318.48 101.125C318.245 100.792 318.128 100.371 318.128 99.8636V91.1818ZM324.558 96.75V102H323.217V90.3636H324.558V94.6364H324.671C324.876 94.1856 325.183 93.8277 325.592 93.5625C326.005 93.2936 326.554 93.1591 327.239 93.1591C327.834 93.1591 328.355 93.2784 328.802 93.517C329.249 93.7519 329.595 94.1136 329.842 94.6023C330.092 95.0871 330.217 95.7045 330.217 96.4545V102H328.876V96.5455C328.876 95.8523 328.696 95.3163 328.336 94.9375C327.98 94.5549 327.486 94.3636 326.853 94.3636C326.414 94.3636 326.02 94.4564 325.671 94.642C325.327 94.8277 325.054 95.0985 324.853 95.4545C324.656 95.8106 324.558 96.2424 324.558 96.75ZM342.484 105.273V100.659H342.371C342.272 100.818 342.132 101.019 341.95 101.261C341.768 101.5 341.509 101.714 341.172 101.903C340.835 102.089 340.386 102.182 339.825 102.182C339.098 102.182 338.456 101.998 337.899 101.631C337.342 101.259 336.907 100.737 336.592 100.062C336.278 99.3845 336.121 98.5833 336.121 97.6591C336.121 96.7424 336.278 95.947 336.592 95.2727C336.907 94.5985 337.344 94.0777 337.905 93.7102C338.465 93.3428 339.113 93.1591 339.848 93.1591C340.416 93.1591 340.865 93.2538 341.195 93.4432C341.528 93.6288 341.782 93.8409 341.956 94.0795C342.134 94.3144 342.272 94.5076 342.371 94.6591H342.53V93.2727H343.825V105.273H342.484ZM340.007 100.977C340.545 100.977 340.999 100.837 341.371 100.557C341.742 100.273 342.024 99.8807 342.217 99.3807C342.41 98.8769 342.507 98.2955 342.507 97.6364C342.507 96.9848 342.412 96.4148 342.223 95.9261C342.034 95.4337 341.753 95.0511 341.382 94.7784C341.011 94.5019 340.552 94.3636 340.007 94.3636C339.439 94.3636 338.965 94.5095 338.587 94.8011C338.212 95.089 337.929 95.4811 337.74 95.9773C337.554 96.4697 337.462 97.0227 337.462 97.6364C337.462 98.2576 337.556 98.822 337.746 99.3295C337.939 99.8333 338.223 100.235 338.598 100.534C338.977 100.83 339.446 100.977 340.007 100.977ZM351.46 98.4318V93.2727H352.801V102H351.46V100.523H351.369C351.164 100.966 350.846 101.343 350.414 101.653C349.983 101.96 349.437 102.114 348.778 102.114C348.233 102.114 347.748 101.994 347.323 101.756C346.899 101.513 346.566 101.15 346.323 100.665C346.081 100.176 345.96 99.5606 345.96 98.8182V93.2727H347.301V98.7273C347.301 99.3636 347.479 99.8712 347.835 100.25C348.195 100.629 348.653 100.818 349.21 100.818C349.543 100.818 349.882 100.733 350.227 100.562C350.575 100.392 350.867 100.131 351.102 99.7784C351.34 99.4261 351.46 98.9773 351.46 98.4318ZM357.505 102.205C356.952 102.205 356.45 102.1 355.999 101.892C355.548 101.68 355.19 101.375 354.925 100.977C354.66 100.576 354.528 100.091 354.528 99.5227C354.528 99.0227 354.626 98.6174 354.823 98.3068C355.02 97.9924 355.283 97.7462 355.613 97.5682C355.942 97.3902 356.306 97.2576 356.704 97.1705C357.105 97.0795 357.509 97.0076 357.914 96.9545C358.444 96.8864 358.874 96.8352 359.204 96.8011C359.537 96.7633 359.779 96.7008 359.931 96.6136C360.086 96.5265 360.164 96.375 360.164 96.1591V96.1136C360.164 95.553 360.011 95.1174 359.704 94.8068C359.401 94.4962 358.94 94.3409 358.323 94.3409C357.683 94.3409 357.181 94.4811 356.817 94.7614C356.454 95.0417 356.198 95.3409 356.05 95.6591L354.778 95.2045C355.005 94.6742 355.308 94.2614 355.687 93.9659C356.069 93.6667 356.486 93.4583 356.937 93.3409C357.391 93.2197 357.838 93.1591 358.278 93.1591C358.558 93.1591 358.88 93.1932 359.243 93.2614C359.611 93.3258 359.965 93.4602 360.306 93.6648C360.651 93.8693 360.937 94.178 361.164 94.5909C361.391 95.0038 361.505 95.5568 361.505 96.25V102H360.164V100.818H360.096C360.005 101.008 359.853 101.21 359.641 101.426C359.429 101.642 359.147 101.826 358.795 101.977C358.442 102.129 358.012 102.205 357.505 102.205ZM357.709 101C358.24 101 358.687 100.896 359.05 100.688C359.418 100.479 359.694 100.21 359.88 99.8807C360.069 99.5511 360.164 99.2045 360.164 98.8409V97.6136C360.107 97.6818 359.982 97.7443 359.789 97.8011C359.6 97.8542 359.38 97.9015 359.13 97.9432C358.884 97.9811 358.643 98.0152 358.408 98.0455C358.177 98.072 357.99 98.0947 357.846 98.1136C357.497 98.1591 357.172 98.233 356.868 98.3352C356.569 98.4337 356.327 98.5833 356.141 98.7841C355.959 98.9811 355.868 99.25 355.868 99.5909C355.868 100.057 356.041 100.409 356.386 100.648C356.734 100.883 357.175 101 357.709 101ZM364.973 90.3636V102H363.632V90.3636H364.973ZM367.109 102V93.2727H368.45V102H367.109ZM367.791 91.8182C367.53 91.8182 367.304 91.7292 367.115 91.5511C366.929 91.3731 366.836 91.1591 366.836 90.9091C366.836 90.6591 366.929 90.4451 367.115 90.267C367.304 90.089 367.53 90 367.791 90C368.052 90 368.276 90.089 368.461 90.267C368.651 90.4451 368.746 90.6591 368.746 90.9091C368.746 91.1591 368.651 91.3731 368.461 91.5511C368.276 91.7292 368.052 91.8182 367.791 91.8182ZM374.381 93.2727V94.4091H369.859V93.2727H374.381ZM371.177 91.1818H372.518V99.5C372.518 99.8788 372.573 100.163 372.683 100.352C372.796 100.538 372.94 100.663 373.114 100.727C373.292 100.788 373.48 100.818 373.677 100.818C373.825 100.818 373.946 100.811 374.041 100.795C374.135 100.777 374.211 100.761 374.268 100.75L374.541 101.955C374.45 101.989 374.323 102.023 374.16 102.057C373.997 102.095 373.791 102.114 373.541 102.114C373.162 102.114 372.791 102.032 372.427 101.869C372.067 101.706 371.768 101.458 371.529 101.125C371.294 100.792 371.177 100.371 371.177 99.8636V91.1818ZM376.942 105.273C376.715 105.273 376.512 105.254 376.334 105.216C376.156 105.182 376.033 105.148 375.965 105.114L376.306 103.932C376.632 104.015 376.919 104.045 377.169 104.023C377.419 104 377.641 103.888 377.834 103.688C378.031 103.491 378.211 103.17 378.374 102.727L378.624 102.045L375.397 93.2727H376.851L379.26 100.227H379.351L381.76 93.2727H383.215L379.51 103.273C379.344 103.723 379.137 104.097 378.891 104.392C378.645 104.691 378.359 104.913 378.033 105.057C377.711 105.201 377.347 105.273 376.942 105.273ZM390.822 102L388.163 93.2727H389.572L391.458 99.9545H391.549L393.413 93.2727H394.845L396.686 99.9318H396.777L398.663 93.2727H400.072L397.413 102H396.095L394.186 95.2955H394.049L392.14 102H390.822ZM404.093 102.205C403.54 102.205 403.038 102.1 402.587 101.892C402.137 101.68 401.779 101.375 401.513 100.977C401.248 100.576 401.116 100.091 401.116 99.5227C401.116 99.0227 401.214 98.6174 401.411 98.3068C401.608 97.9924 401.871 97.7462 402.201 97.5682C402.53 97.3902 402.894 97.2576 403.292 97.1705C403.693 97.0795 404.097 97.0076 404.502 96.9545C405.032 96.8864 405.462 96.8352 405.792 96.8011C406.125 96.7633 406.368 96.7008 406.519 96.6136C406.674 96.5265 406.752 96.375 406.752 96.1591V96.1136C406.752 95.553 406.599 95.1174 406.292 94.8068C405.989 94.4962 405.529 94.3409 404.911 94.3409C404.271 94.3409 403.769 94.4811 403.405 94.7614C403.042 95.0417 402.786 95.3409 402.638 95.6591L401.366 95.2045C401.593 94.6742 401.896 94.2614 402.275 93.9659C402.657 93.6667 403.074 93.4583 403.525 93.3409C403.979 93.2197 404.426 93.1591 404.866 93.1591C405.146 93.1591 405.468 93.1932 405.832 93.2614C406.199 93.3258 406.553 93.4602 406.894 93.6648C407.239 93.8693 407.525 94.178 407.752 94.5909C407.979 95.0038 408.093 95.5568 408.093 96.25V102H406.752V100.818H406.684C406.593 101.008 406.441 101.21 406.229 101.426C406.017 101.642 405.735 101.826 405.383 101.977C405.03 102.129 404.601 102.205 404.093 102.205ZM404.297 101C404.828 101 405.275 100.896 405.638 100.688C406.006 100.479 406.282 100.21 406.468 99.8807C406.657 99.5511 406.752 99.2045 406.752 98.8409V97.6136C406.695 97.6818 406.57 97.7443 406.377 97.8011C406.188 97.8542 405.968 97.9015 405.718 97.9432C405.472 97.9811 405.231 98.0152 404.996 98.0455C404.765 98.072 404.578 98.0947 404.434 98.1136C404.085 98.1591 403.76 98.233 403.457 98.3352C403.157 98.4337 402.915 98.5833 402.729 98.7841C402.547 98.9811 402.457 99.25 402.457 99.5909C402.457 100.057 402.629 100.409 402.974 100.648C403.322 100.883 403.763 101 404.297 101ZM410.22 102V93.2727H411.516V94.5909H411.607C411.766 94.1591 412.054 93.8087 412.47 93.5398C412.887 93.2708 413.357 93.1364 413.879 93.1364C413.978 93.1364 414.101 93.1383 414.249 93.142C414.397 93.1458 414.508 93.1515 414.584 93.1591V94.5227C414.539 94.5114 414.434 94.4943 414.272 94.4716C414.112 94.4451 413.944 94.4318 413.766 94.4318C413.342 94.4318 412.963 94.5208 412.629 94.6989C412.3 94.8731 412.039 95.1155 411.845 95.4261C411.656 95.733 411.561 96.0833 411.561 96.4773V102H410.22ZM417.194 96.75V102H415.854V93.2727H417.149V94.6364H417.263C417.467 94.1932 417.778 93.8371 418.194 93.5682C418.611 93.2955 419.149 93.1591 419.808 93.1591C420.399 93.1591 420.916 93.2803 421.359 93.5227C421.802 93.7614 422.147 94.125 422.393 94.6136C422.64 95.0985 422.763 95.7121 422.763 96.4545V102H421.422V96.5455C421.422 95.8598 421.244 95.3258 420.888 94.9432C420.532 94.5568 420.043 94.3636 419.422 94.3636C418.994 94.3636 418.611 94.4564 418.274 94.642C417.941 94.8277 417.677 95.0985 417.484 95.4545C417.291 95.8106 417.194 96.2424 417.194 96.75ZM424.893 102V93.2727H426.234V102H424.893ZM425.575 91.8182C425.313 91.8182 425.088 91.7292 424.899 91.5511C424.713 91.3731 424.62 91.1591 424.62 90.9091C424.62 90.6591 424.713 90.4451 424.899 90.267C425.088 90.089 425.313 90 425.575 90C425.836 90 426.06 90.089 426.245 90.267C426.435 90.4451 426.529 90.6591 426.529 90.9091C426.529 91.1591 426.435 91.3731 426.245 91.5511C426.06 91.7292 425.836 91.8182 425.575 91.8182ZM429.711 96.75V102H428.37V93.2727H429.665V94.6364H429.779C429.983 94.1932 430.294 93.8371 430.711 93.5682C431.127 93.2955 431.665 93.1591 432.324 93.1591C432.915 93.1591 433.432 93.2803 433.875 93.5227C434.319 93.7614 434.663 94.125 434.91 94.6136C435.156 95.0985 435.279 95.7121 435.279 96.4545V102H433.938V96.5455C433.938 95.8598 433.76 95.3258 433.404 94.9432C433.048 94.5568 432.559 94.3636 431.938 94.3636C431.51 94.3636 431.127 94.4564 430.79 94.642C430.457 94.8277 430.194 95.0985 430 95.4545C429.807 95.8106 429.711 96.2424 429.711 96.75ZM440.932 105.455C440.284 105.455 439.727 105.371 439.261 105.205C438.796 105.042 438.407 104.826 438.097 104.557C437.79 104.292 437.546 104.008 437.364 103.705L438.432 102.955C438.553 103.114 438.707 103.295 438.892 103.5C439.078 103.708 439.332 103.888 439.653 104.04C439.979 104.195 440.405 104.273 440.932 104.273C441.636 104.273 442.218 104.102 442.676 103.761C443.135 103.42 443.364 102.886 443.364 102.159V100.386H443.25C443.152 100.545 443.011 100.742 442.83 100.977C442.652 101.208 442.394 101.415 442.057 101.597C441.724 101.775 441.273 101.864 440.705 101.864C440 101.864 439.367 101.697 438.807 101.364C438.25 101.03 437.809 100.545 437.483 99.9091C437.161 99.2727 437 98.5 437 97.5909C437 96.697 437.157 95.9186 437.472 95.2557C437.786 94.589 438.224 94.0739 438.784 93.7102C439.345 93.3428 439.992 93.1591 440.727 93.1591C441.296 93.1591 441.746 93.2538 442.08 93.4432C442.417 93.6288 442.674 93.8409 442.852 94.0795C443.034 94.3144 443.174 94.5076 443.273 94.6591H443.409V93.2727H444.705V102.25C444.705 103 444.534 103.61 444.193 104.08C443.856 104.553 443.402 104.9 442.83 105.119C442.261 105.343 441.629 105.455 440.932 105.455ZM440.886 100.659C441.424 100.659 441.879 100.536 442.25 100.29C442.621 100.044 442.903 99.6894 443.097 99.2273C443.29 98.7652 443.386 98.2121 443.386 97.5682C443.386 96.9394 443.292 96.3845 443.102 95.9034C442.913 95.4223 442.633 95.0455 442.261 94.7727C441.89 94.5 441.432 94.3636 440.886 94.3636C440.318 94.3636 439.845 94.5076 439.466 94.7955C439.091 95.0833 438.809 95.4697 438.619 95.9545C438.434 96.4394 438.341 96.9773 438.341 97.5682C438.341 98.1742 438.436 98.7102 438.625 99.1761C438.818 99.6383 439.102 100.002 439.477 100.267C439.856 100.528 440.326 100.659 440.886 100.659Z" fill="white" fill-opacity="0.65"/>
<path d="M54.8807 240.477C52.7443 240.477 50.8239 240.068 49.1193 239.25C47.4261 238.42 46.0739 237.284 45.0625 235.841C44.0511 234.398 43.5114 232.75 43.4432 230.898H48.5568C48.6818 232.398 49.3466 233.631 50.5511 234.597C51.7557 235.562 53.1989 236.045 54.8807 236.045C56.2216 236.045 57.4091 235.739 58.4432 235.125C59.4886 234.5 60.3068 233.642 60.8977 232.551C61.5 231.46 61.8011 230.216 61.8011 228.818C61.8011 227.398 61.4943 226.131 60.8807 225.017C60.267 223.903 59.4205 223.028 58.3409 222.392C57.2727 221.756 56.0455 221.432 54.6591 221.42C53.6023 221.42 52.5398 221.602 51.4716 221.966C50.4034 222.33 49.5398 222.807 48.8807 223.398L44.0568 222.682L46.017 205.091H65.2102V209.608H50.3977L49.2898 219.375H49.4943C50.1761 218.716 51.0795 218.165 52.2045 217.722C53.3409 217.278 54.5568 217.057 55.8523 217.057C57.9773 217.057 59.8693 217.562 61.5284 218.574C63.1989 219.585 64.5114 220.966 65.4659 222.716C66.4318 224.455 66.9091 226.455 66.8977 228.716C66.9091 230.977 66.3977 232.994 65.3636 234.767C64.3409 236.54 62.9205 237.937 61.1023 238.96C59.2955 239.972 57.2216 240.477 54.8807 240.477ZM79.5954 236.727V235.807C79.5954 235.148 79.7318 234.545 80.0045 234C80.2829 233.449 80.6863 233.009 81.2147 232.679C81.7488 232.344 82.3937 232.176 83.1494 232.176C83.9221 232.176 84.5698 232.341 85.0926 232.67C85.6153 233 86.0102 233.44 86.2772 233.991C86.5499 234.543 86.6863 235.148 86.6863 235.807V236.727C86.6863 237.386 86.5499 237.991 86.2772 238.543C86.0045 239.088 85.6039 239.528 85.0755 239.864C84.5528 240.193 83.9107 240.358 83.1494 240.358C82.3823 240.358 81.7346 240.193 81.2062 239.864C80.6778 239.528 80.2772 239.088 80.0045 238.543C79.7318 237.991 79.5954 237.386 79.5954 236.727ZM81.5812 235.807V236.727C81.5812 237.216 81.6977 237.659 81.9306 238.057C82.1636 238.455 82.5698 238.653 83.1494 238.653C83.7232 238.653 84.1238 238.455 84.3511 238.057C84.5784 237.659 84.692 237.216 84.692 236.727V235.807C84.692 235.318 84.5812 234.875 84.3596 234.477C84.1437 234.08 83.7403 233.881 83.1494 233.881C82.5812 233.881 82.1778 234.08 81.9391 234.477C81.7005 234.875 81.5812 235.318 81.5812 235.807ZM70.817 226.739V225.818C70.817 225.159 70.9534 224.554 71.2261 224.003C71.5045 223.452 71.9079 223.011 72.4363 222.682C72.9704 222.352 73.6153 222.188 74.371 222.188C75.1437 222.188 75.7914 222.352 76.3141 222.682C76.8369 223.011 77.2318 223.452 77.4988 224.003C77.7659 224.554 77.8994 225.159 77.8994 225.818V226.739C77.8994 227.398 77.763 228.003 77.4903 228.554C77.2232 229.099 76.8255 229.54 76.2971 229.875C75.7744 230.205 75.1323 230.369 74.371 230.369C73.5982 230.369 72.9477 230.205 72.4193 229.875C71.8965 229.54 71.4988 229.099 71.2261 228.554C70.9534 228.003 70.817 227.398 70.817 226.739ZM72.8113 225.818V226.739C72.8113 227.227 72.9249 227.67 73.1522 228.068C73.3852 228.466 73.7914 228.665 74.371 228.665C74.9391 228.665 75.3369 228.466 75.5641 228.068C75.7971 227.67 75.9136 227.227 75.9136 226.739V225.818C75.9136 225.33 75.8028 224.886 75.5812 224.489C75.3596 224.091 74.9562 223.892 74.371 223.892C73.8028 223.892 73.3994 224.091 73.1607 224.489C72.9278 224.886 72.8113 225.33 72.8113 225.818ZM71.6266 240L83.6266 222.545H85.6636L73.6636 240H71.6266ZM96.3882 240V222.545H107.331V224.812H99.0218V230.131H106.76V232.389H99.0218V237.733H107.434V240H96.3882ZM115.807 240.264C114.517 240.264 113.406 239.989 112.474 239.438C111.548 238.881 110.832 238.099 110.327 237.094C109.827 236.082 109.577 234.898 109.577 233.54C109.577 232.199 109.827 231.017 110.327 229.994C110.832 228.972 111.537 228.173 112.44 227.599C113.349 227.026 114.412 226.739 115.628 226.739C116.366 226.739 117.082 226.861 117.775 227.105C118.469 227.349 119.091 227.733 119.642 228.256C120.193 228.778 120.628 229.457 120.946 230.293C121.264 231.122 121.423 232.131 121.423 233.318V234.222H111.017V232.312H118.926C118.926 231.642 118.79 231.048 118.517 230.531C118.244 230.009 117.861 229.597 117.366 229.295C116.878 228.994 116.304 228.844 115.645 228.844C114.929 228.844 114.304 229.02 113.77 229.372C113.241 229.719 112.832 230.173 112.542 230.736C112.258 231.293 112.116 231.898 112.116 232.551V234.043C112.116 234.918 112.27 235.662 112.577 236.276C112.889 236.889 113.324 237.358 113.881 237.682C114.437 238 115.088 238.159 115.832 238.159C116.315 238.159 116.756 238.091 117.153 237.955C117.551 237.812 117.895 237.602 118.185 237.324C118.474 237.045 118.696 236.702 118.849 236.293L121.261 236.727C121.068 237.437 120.721 238.06 120.221 238.594C119.727 239.122 119.105 239.534 118.355 239.83C117.611 240.119 116.761 240.264 115.807 240.264ZM127.58 240.29C126.751 240.29 126.001 240.136 125.33 239.83C124.66 239.517 124.129 239.065 123.736 238.474C123.35 237.884 123.157 237.159 123.157 236.301C123.157 235.562 123.299 234.955 123.583 234.477C123.867 234 124.251 233.622 124.734 233.344C125.217 233.065 125.756 232.855 126.353 232.713C126.95 232.571 127.558 232.463 128.177 232.389C128.961 232.298 129.597 232.224 130.086 232.168C130.575 232.105 130.93 232.006 131.151 231.869C131.373 231.733 131.484 231.511 131.484 231.205V231.145C131.484 230.401 131.273 229.824 130.853 229.415C130.438 229.006 129.819 228.801 128.995 228.801C128.137 228.801 127.461 228.991 126.967 229.372C126.478 229.747 126.14 230.165 125.952 230.625L123.558 230.08C123.842 229.284 124.256 228.642 124.802 228.153C125.353 227.659 125.986 227.301 126.702 227.08C127.418 226.852 128.171 226.739 128.961 226.739C129.484 226.739 130.038 226.801 130.623 226.926C131.214 227.045 131.765 227.267 132.276 227.591C132.793 227.915 133.217 228.378 133.546 228.98C133.876 229.577 134.04 230.352 134.04 231.307V240H131.552V238.21H131.45C131.285 238.54 131.038 238.864 130.708 239.182C130.379 239.5 129.955 239.764 129.438 239.974C128.921 240.185 128.302 240.29 127.58 240.29ZM128.134 238.244C128.839 238.244 129.441 238.105 129.941 237.827C130.447 237.548 130.83 237.185 131.092 236.736C131.359 236.281 131.492 235.795 131.492 235.278V233.591C131.401 233.682 131.225 233.767 130.964 233.847C130.708 233.92 130.415 233.986 130.086 234.043C129.756 234.094 129.435 234.142 129.123 234.188C128.81 234.227 128.549 234.261 128.339 234.29C127.844 234.352 127.393 234.457 126.984 234.605C126.58 234.753 126.256 234.966 126.012 235.244C125.773 235.517 125.654 235.881 125.654 236.335C125.654 236.966 125.887 237.443 126.353 237.767C126.819 238.085 127.413 238.244 128.134 238.244ZM136.955 240V226.909H139.418V228.989H139.554C139.793 228.284 140.213 227.73 140.815 227.327C141.423 226.918 142.111 226.713 142.878 226.713C143.037 226.713 143.225 226.719 143.44 226.73C143.662 226.741 143.835 226.756 143.96 226.773V229.21C143.858 229.182 143.676 229.151 143.415 229.116C143.153 229.077 142.892 229.057 142.631 229.057C142.028 229.057 141.492 229.185 141.02 229.44C140.554 229.69 140.185 230.04 139.912 230.489C139.639 230.932 139.503 231.437 139.503 232.006V240H136.955ZM148.234 232.227V240H145.686V226.909H148.132V229.04H148.294C148.595 228.347 149.066 227.79 149.708 227.369C150.356 226.949 151.171 226.739 152.154 226.739C153.046 226.739 153.828 226.926 154.498 227.301C155.169 227.67 155.688 228.222 156.058 228.955C156.427 229.687 156.612 230.594 156.612 231.673V240H154.063V231.98C154.063 231.031 153.816 230.29 153.322 229.756C152.828 229.216 152.149 228.946 151.285 228.946C150.694 228.946 150.169 229.074 149.708 229.33C149.254 229.585 148.893 229.96 148.626 230.455C148.365 230.943 148.234 231.534 148.234 232.227ZM165.191 240.264C163.902 240.264 162.791 239.989 161.859 239.438C160.933 238.881 160.217 238.099 159.711 237.094C159.211 236.082 158.961 234.898 158.961 233.54C158.961 232.199 159.211 231.017 159.711 229.994C160.217 228.972 160.921 228.173 161.825 227.599C162.734 227.026 163.796 226.739 165.012 226.739C165.751 226.739 166.467 226.861 167.16 227.105C167.853 227.349 168.475 227.733 169.027 228.256C169.578 228.778 170.012 229.457 170.331 230.293C170.649 231.122 170.808 232.131 170.808 233.318V234.222H160.402V232.312H168.311C168.311 231.642 168.174 231.048 167.902 230.531C167.629 230.009 167.245 229.597 166.751 229.295C166.262 228.994 165.689 228.844 165.029 228.844C164.314 228.844 163.689 229.02 163.154 229.372C162.626 229.719 162.217 230.173 161.927 230.736C161.643 231.293 161.501 231.898 161.501 232.551V234.043C161.501 234.918 161.654 235.662 161.961 236.276C162.274 236.889 162.708 237.358 163.265 237.682C163.822 238 164.473 238.159 165.217 238.159C165.7 238.159 166.14 238.091 166.538 237.955C166.936 237.812 167.279 237.602 167.569 237.324C167.859 237.045 168.081 236.702 168.234 236.293L170.646 236.727C170.453 237.437 170.106 238.06 169.606 238.594C169.112 239.122 168.49 239.534 167.74 239.83C166.995 240.119 166.146 240.264 165.191 240.264ZM178.056 240.256C176.999 240.256 176.056 239.986 175.226 239.446C174.402 238.901 173.755 238.125 173.283 237.119C172.817 236.108 172.584 234.895 172.584 233.48C172.584 232.065 172.82 230.855 173.292 229.849C173.769 228.844 174.422 228.074 175.252 227.54C176.081 227.006 177.022 226.739 178.073 226.739C178.885 226.739 179.539 226.875 180.033 227.148C180.533 227.415 180.919 227.727 181.192 228.085C181.471 228.443 181.687 228.759 181.84 229.031H181.993V222.545H184.542V240H182.053V237.963H181.84C181.687 238.241 181.465 238.56 181.175 238.918C180.891 239.276 180.499 239.588 179.999 239.855C179.499 240.122 178.851 240.256 178.056 240.256ZM178.618 238.082C179.351 238.082 179.971 237.889 180.476 237.503C180.988 237.111 181.374 236.568 181.635 235.875C181.902 235.182 182.036 234.375 182.036 233.455C182.036 232.545 181.905 231.75 181.644 231.068C181.383 230.386 180.999 229.855 180.493 229.474C179.988 229.094 179.363 228.903 178.618 228.903C177.851 228.903 177.212 229.102 176.701 229.5C176.189 229.898 175.803 230.44 175.542 231.128C175.286 231.815 175.158 232.591 175.158 233.455C175.158 234.33 175.289 235.116 175.55 235.815C175.812 236.514 176.198 237.068 176.709 237.477C177.226 237.881 177.863 238.082 178.618 238.082ZM193.494 234.182C193.494 232.758 193.681 231.447 194.056 230.25C194.431 229.053 194.978 227.949 195.698 226.938H197.255C196.975 227.312 196.713 227.773 196.471 228.318C196.228 228.864 196.016 229.462 195.834 230.114C195.653 230.761 195.511 231.434 195.408 232.131C195.306 232.824 195.255 233.508 195.255 234.182C195.255 235.083 195.344 235.996 195.522 236.92C195.7 237.845 195.941 238.703 196.244 239.494C196.547 240.286 196.884 240.932 197.255 241.432H195.698C194.978 240.42 194.431 239.316 194.056 238.119C193.681 236.922 193.494 235.61 193.494 234.182ZM202.147 238.045V230.364H203.675V238.045H202.147ZM199.073 234.966V233.443H206.755V234.966H199.073ZM212.881 240.159C212.168 240.159 211.528 240.023 210.96 239.75C210.396 239.473 209.945 239.095 209.608 238.614C209.271 238.133 209.091 237.583 209.068 236.966H210.773C210.814 237.466 211.036 237.877 211.437 238.199C211.839 238.521 212.32 238.682 212.881 238.682C213.328 238.682 213.723 238.58 214.068 238.375C214.417 238.167 214.689 237.881 214.886 237.517C215.087 237.153 215.187 236.739 215.187 236.273C215.187 235.799 215.085 235.377 214.881 235.006C214.676 234.634 214.394 234.343 214.034 234.131C213.678 233.919 213.269 233.811 212.807 233.807C212.454 233.807 212.1 233.867 211.744 233.989C211.388 234.11 211.1 234.269 210.881 234.466L209.273 234.227L209.926 228.364H216.324V229.869H211.386L211.017 233.125H211.085C211.312 232.905 211.614 232.722 211.989 232.574C212.367 232.426 212.773 232.352 213.204 232.352C213.913 232.352 214.543 232.521 215.096 232.858C215.653 233.195 216.091 233.655 216.409 234.239C216.731 234.818 216.89 235.485 216.886 236.239C216.89 236.992 216.72 237.665 216.375 238.256C216.034 238.847 215.56 239.312 214.954 239.653C214.352 239.991 213.661 240.159 212.881 240.159ZM224.715 237.818V237.205C224.715 236.765 224.806 236.364 224.988 236C225.174 235.633 225.443 235.339 225.795 235.119C226.151 234.896 226.581 234.784 227.085 234.784C227.6 234.784 228.032 234.894 228.38 235.114C228.729 235.333 228.992 235.627 229.17 235.994C229.352 236.362 229.443 236.765 229.443 237.205V237.818C229.443 238.258 229.352 238.661 229.17 239.028C228.988 239.392 228.721 239.686 228.369 239.909C228.02 240.129 227.592 240.239 227.085 240.239C226.573 240.239 226.142 240.129 225.789 239.909C225.437 239.686 225.17 239.392 224.988 239.028C224.806 238.661 224.715 238.258 224.715 237.818ZM226.039 237.205V237.818C226.039 238.144 226.117 238.439 226.272 238.705C226.427 238.97 226.698 239.102 227.085 239.102C227.467 239.102 227.734 238.97 227.886 238.705C228.037 238.439 228.113 238.144 228.113 237.818V237.205C228.113 236.879 228.039 236.583 227.892 236.318C227.748 236.053 227.479 235.92 227.085 235.92C226.706 235.92 226.437 236.053 226.278 236.318C226.119 236.583 226.039 236.879 226.039 237.205ZM218.863 231.159V230.545C218.863 230.106 218.954 229.703 219.136 229.335C219.321 228.968 219.59 228.674 219.943 228.455C220.299 228.235 220.729 228.125 221.232 228.125C221.748 228.125 222.179 228.235 222.528 228.455C222.876 228.674 223.14 228.968 223.318 229.335C223.496 229.703 223.585 230.106 223.585 230.545V231.159C223.585 231.598 223.494 232.002 223.312 232.369C223.134 232.733 222.869 233.027 222.517 233.25C222.168 233.47 221.74 233.58 221.232 233.58C220.717 233.58 220.284 233.47 219.931 233.25C219.583 233.027 219.318 232.733 219.136 232.369C218.954 232.002 218.863 231.598 218.863 231.159ZM220.193 230.545V231.159C220.193 231.485 220.268 231.78 220.42 232.045C220.575 232.311 220.846 232.443 221.232 232.443C221.611 232.443 221.876 232.311 222.028 232.045C222.183 231.78 222.261 231.485 222.261 231.159V230.545C222.261 230.22 222.187 229.924 222.039 229.659C221.892 229.394 221.623 229.261 221.232 229.261C220.854 229.261 220.585 229.394 220.426 229.659C220.27 229.924 220.193 230.22 220.193 230.545ZM219.403 240L227.403 228.364H228.761L220.761 240H219.403ZM234.861 234.182C234.861 235.61 234.674 236.922 234.299 238.119C233.924 239.316 233.376 240.42 232.657 241.432H231.1C231.38 241.057 231.642 240.597 231.884 240.051C232.126 239.506 232.339 238.909 232.52 238.261C232.702 237.61 232.844 236.936 232.947 236.239C233.049 235.542 233.1 234.856 233.1 234.182C233.1 233.284 233.011 232.373 232.833 231.449C232.655 230.525 232.414 229.667 232.111 228.875C231.808 228.083 231.471 227.438 231.1 226.938H232.657C233.376 227.949 233.924 229.053 234.299 230.25C234.674 231.447 234.861 232.758 234.861 234.182Z" fill="url(#paint1_linear_1315_2172)"/>
<rect x="40.5" y="140.5" width="522" height="23" rx="11.5" fill="url(#paint2_linear_1315_2172)" fill-opacity="0.1" stroke="url(#paint3_linear_1315_2172)"/>
<g filter="url(#filter0_d_1315_2172)">
<circle cx="52" cy="152" r="12" fill="#F838AB"/>
<circle cx="52" cy="152" r="16" stroke="white" stroke-width="8"/>
</g>
<defs>
<filter id="filter0_d_1315_2172" x="24" y="124" width="56" height="56" filterUnits="userSpaceOnUse" color-interpolation-filters="sRGB">
<feFlood flood-opacity="0" result="BackgroundImageFix"/>
<feColorMatrix in="SourceAlpha" type="matrix" values="0 0 0 0 0 0 0 0 0 0 0 0 0 0 0 0 0 0 127 0" result="hardAlpha"/>
<feOffset/>
<feGaussianBlur stdDeviation="4"/>
<feComposite in2="hardAlpha" operator="out"/>
<feColorMatrix type="matrix" values="0 0 0 0 1 0 0 0 0 1 0 0 0 0 1 0 0 0 0.55 0"/>
<feBlend mode="normal" in2="BackgroundImageFix" result="effect1_dropShadow_1315_2172"/>
<feBlend mode="normal" in="SourceGraphic" in2="effect1_dropShadow_1315_2172" result="shape"/>
</filter>
<linearGradient id="paint0_linear_1315_2172" x1="301.5" y1="0" x2="301.5" y2="289" gradientUnits="userSpaceOnUse">
<stop stop-color="#70767C"/>
<stop offset="1" stop-color="#4B525A" stop-opacity="0.72"/>
</linearGradient>
<linearGradient id="paint1_linear_1315_2172" x1="47.2579" y1="227" x2="384.281" y2="227" gradientUnits="userSpaceOnUse">
<stop stop-color="#F838AB"/>
<stop offset="1" stop-color="white"/>
</linearGradient>
<linearGradient id="paint2_linear_1315_2172" x1="555.5" y1="160.25" x2="58.0391" y2="166.916" gradientUnits="userSpaceOnUse">
<stop stop-color="white" stop-opacity="0.7"/>
<stop offset="1" stop-color="white" stop-opacity="0.1"/>
</linearGradient>
<linearGradient id="paint3_linear_1315_2172" x1="301.5" y1="140" x2="301.5" y2="164" gradientUnits="userSpaceOnUse">
<stop stop-color="white" stop-opacity="0.3"/>
<stop offset="1" stop-color="white" stop-opacity="0.2"/>
</linearGradient>
</defs>
</svg>
