<svg width="1140" height="192" viewBox="0 0 1140 192" fill="none" xmlns="http://www.w3.org/2000/svg">
<g filter="url(#filter0_b_966_223)">
<rect width="1140" height="192" rx="16" fill="url(#paint0_linear_966_223)"/>
<rect x="0.5" y="0.5" width="1139" height="191" rx="15.5" stroke="url(#paint1_linear_966_223)"/>
</g>
<path d="M77.4148 58.1193C77.2727 57.6591 77.0767 57.2472 76.8267 56.8835C76.5824 56.5142 76.2869 56.1989 75.9403 55.9375C75.5994 55.6761 75.2074 55.4801 74.7642 55.3494C74.321 55.2131 73.8381 55.1449 73.3153 55.1449C72.3778 55.1449 71.5426 55.3807 70.8097 55.8523C70.0767 56.3239 69.5 57.017 69.0795 57.9318C68.6648 58.8409 68.4574 59.9489 68.4574 61.2557C68.4574 62.5739 68.6648 63.6903 69.0795 64.6051C69.4943 65.5199 70.071 66.2159 70.8097 66.6932C71.5483 67.1648 72.4063 67.4006 73.3835 67.4006C74.2699 67.4006 75.0369 67.2301 75.6847 66.8892C76.3381 66.5483 76.8409 66.0653 77.1932 65.4403C77.5455 64.8097 77.7216 64.071 77.7216 63.2244L78.4375 63.3352H73.6989V60.8636H80.7812V62.9602C80.7812 64.4545 80.4631 65.7472 79.8267 66.8381C79.1903 67.929 78.3153 68.7699 77.2017 69.3608C76.0881 69.946 74.8097 70.2386 73.3665 70.2386C71.7585 70.2386 70.3466 69.8778 69.1307 69.1562C67.9205 68.429 66.9744 67.3977 66.2926 66.0625C65.6165 64.7216 65.2784 63.1307 65.2784 61.2898C65.2784 59.8807 65.4773 58.6222 65.875 57.5142C66.2784 56.4062 66.8409 55.4659 67.5625 54.6932C68.2841 53.9148 69.1307 53.3239 70.1023 52.9205C71.0739 52.5114 72.1307 52.3068 73.2727 52.3068C74.2386 52.3068 75.1392 52.4489 75.9744 52.733C76.8097 53.0114 77.5511 53.4091 78.1989 53.9261C78.8523 54.4432 79.3892 55.0568 79.8097 55.767C80.2301 56.4773 80.5057 57.2614 80.6364 58.1193H77.4148ZM83.2224 70V56.9091H86.2139V59.0909H86.3503C86.5889 58.3352 86.998 57.7528 87.5775 57.3438C88.1628 56.929 88.8304 56.7216 89.5804 56.7216C89.7508 56.7216 89.9412 56.7301 90.1514 56.7472C90.3673 56.7585 90.5463 56.7784 90.6883 56.8068V59.6449C90.5576 59.5994 90.3503 59.5597 90.0662 59.5256C89.7878 59.4858 89.5179 59.4659 89.2565 59.4659C88.694 59.4659 88.1883 59.5881 87.7395 59.8324C87.2963 60.071 86.9468 60.4034 86.6912 60.8295C86.4355 61.2557 86.3076 61.7472 86.3076 62.304V70H83.2224ZM97.4292 70.2557C96.1508 70.2557 95.0428 69.9744 94.1053 69.4119C93.1678 68.8494 92.4406 68.0625 91.9235 67.0511C91.4122 66.0398 91.1565 64.858 91.1565 63.5057C91.1565 62.1534 91.4122 60.9687 91.9235 59.9517C92.4406 58.9347 93.1678 58.1449 94.1053 57.5824C95.0428 57.0199 96.1508 56.7386 97.4292 56.7386C98.7076 56.7386 99.8156 57.0199 100.753 57.5824C101.691 58.1449 102.415 58.9347 102.926 59.9517C103.443 60.9687 103.702 62.1534 103.702 63.5057C103.702 64.858 103.443 66.0398 102.926 67.0511C102.415 68.0625 101.691 68.8494 100.753 69.4119C99.8156 69.9744 98.7076 70.2557 97.4292 70.2557ZM97.4463 67.7841C98.1394 67.7841 98.719 67.5937 99.1849 67.2131C99.6508 66.8267 99.9974 66.3097 100.225 65.6619C100.458 65.0142 100.574 64.2926 100.574 63.4972C100.574 62.696 100.458 61.9716 100.225 61.3239C99.9974 60.6705 99.6508 60.1506 99.1849 59.7642C98.719 59.3778 98.1394 59.1847 97.4463 59.1847C96.736 59.1847 96.1451 59.3778 95.6735 59.7642C95.2076 60.1506 94.8582 60.6705 94.6252 61.3239C94.398 61.9716 94.2843 62.696 94.2843 63.4972C94.2843 64.2926 94.398 65.0142 94.6252 65.6619C94.8582 66.3097 95.2076 66.8267 95.6735 67.2131C96.1451 67.5937 96.736 67.7841 97.4463 67.7841ZM114.184 64.4943V56.9091H117.27V70H114.278V67.6733H114.142C113.846 68.4062 113.36 69.0057 112.684 69.4716C112.014 69.9375 111.187 70.1705 110.204 70.1705C109.346 70.1705 108.588 69.9801 107.929 69.5994C107.275 69.2131 106.764 68.6534 106.395 67.9205C106.025 67.1818 105.841 66.2898 105.841 65.2443V56.9091H108.926V64.767C108.926 65.5966 109.153 66.2557 109.608 66.7443C110.062 67.233 110.659 67.4773 111.397 67.4773C111.852 67.4773 112.292 67.3665 112.718 67.1449C113.145 66.9233 113.494 66.5938 113.767 66.1562C114.045 65.7131 114.184 65.1591 114.184 64.4943ZM123.047 62.3295V70H119.962V56.9091H122.911V59.1335H123.064C123.366 58.4006 123.846 57.8182 124.505 57.3864C125.169 56.9545 125.991 56.7386 126.968 56.7386C127.871 56.7386 128.658 56.9318 129.329 57.3182C130.005 57.7045 130.527 58.2642 130.897 58.9972C131.272 59.7301 131.456 60.6193 131.451 61.6648V70H128.366V62.142C128.366 61.267 128.138 60.5824 127.684 60.0881C127.235 59.5937 126.613 59.3466 125.817 59.3466C125.277 59.3466 124.797 59.4659 124.377 59.7045C123.962 59.9375 123.635 60.2756 123.397 60.7188C123.164 61.1619 123.047 61.6989 123.047 62.3295ZM138.965 70.2301C137.937 70.2301 137.016 69.9659 136.204 69.4375C135.391 68.9091 134.749 68.142 134.278 67.1364C133.806 66.1307 133.57 64.9091 133.57 63.4716C133.57 62.017 133.809 60.7898 134.286 59.7898C134.769 58.7841 135.42 58.0256 136.238 57.5142C137.056 56.9972 137.968 56.7386 138.974 56.7386C139.741 56.7386 140.371 56.8693 140.866 57.1307C141.36 57.3864 141.752 57.696 142.042 58.0597C142.332 58.4176 142.556 58.7557 142.715 59.0739H142.843V52.5455H145.937V70H142.903V67.9375H142.715C142.556 68.2557 142.326 68.5937 142.025 68.9517C141.724 69.304 141.326 69.6051 140.832 69.8551C140.337 70.1051 139.715 70.2301 138.965 70.2301ZM139.826 67.6989C140.479 67.6989 141.036 67.5227 141.496 67.1705C141.957 66.8125 142.306 66.3153 142.545 65.679C142.783 65.0426 142.903 64.3011 142.903 63.4545C142.903 62.608 142.783 61.8722 142.545 61.2472C142.312 60.6222 141.965 60.1364 141.505 59.7898C141.05 59.4432 140.491 59.2699 139.826 59.2699C139.138 59.2699 138.564 59.4489 138.104 59.8068C137.644 60.1648 137.297 60.6591 137.064 61.2898C136.832 61.9205 136.715 62.642 136.715 63.4545C136.715 64.2727 136.832 65.0028 137.064 65.6449C137.303 66.2812 137.653 66.7841 138.113 67.1534C138.579 67.517 139.15 67.6989 139.826 67.6989ZM153.587 55.196V52.5455H167.513V55.196H162.118V70H158.982V55.196H153.587ZM168.222 70V56.9091H171.213V59.0909H171.35C171.588 58.3352 171.997 57.7528 172.577 57.3438C173.162 56.929 173.83 56.7216 174.58 56.7216C174.75 56.7216 174.941 56.7301 175.151 56.7472C175.367 56.7585 175.546 56.7784 175.688 56.8068V59.6449C175.557 59.5994 175.35 59.5597 175.066 59.5256C174.787 59.4858 174.517 59.4659 174.256 59.4659C173.693 59.4659 173.188 59.5881 172.739 59.8324C172.296 60.071 171.946 60.4034 171.691 60.8295C171.435 61.2557 171.307 61.7472 171.307 62.304V70H168.222ZM185.601 64.4943V56.9091H188.686V70H185.695V67.6733H185.559C185.263 68.4062 184.777 69.0057 184.101 69.4716C183.431 69.9375 182.604 70.1705 181.621 70.1705C180.763 70.1705 180.005 69.9801 179.345 69.5994C178.692 69.2131 178.181 68.6534 177.811 67.9205C177.442 67.1818 177.257 66.2898 177.257 65.2443V56.9091H180.343V64.767C180.343 65.5966 180.57 66.2557 181.024 66.7443C181.479 67.233 182.076 67.4773 182.814 67.4773C183.269 67.4773 183.709 67.3665 184.135 67.1449C184.561 66.9233 184.911 66.5938 185.184 66.1562C185.462 65.7131 185.601 65.1591 185.601 64.4943ZM197.916 56.9091V59.2955H190.39V56.9091H197.916ZM192.248 53.7727H195.334V66.0625C195.334 66.4773 195.396 66.7955 195.521 67.017C195.652 67.233 195.822 67.3807 196.032 67.4602C196.243 67.5398 196.476 67.5795 196.731 67.5795C196.924 67.5795 197.101 67.5653 197.26 67.5369C197.424 67.5085 197.549 67.483 197.635 67.4602L198.155 69.8722C197.99 69.929 197.754 69.9915 197.447 70.0597C197.146 70.1278 196.777 70.1676 196.339 70.179C195.566 70.2017 194.87 70.0852 194.251 69.8295C193.632 69.5682 193.14 69.1648 192.777 68.6193C192.419 68.0739 192.243 67.392 192.248 66.5739V53.7727ZM203.383 62.3295V70H200.297V52.5455H203.314V59.1335H203.468C203.775 58.3949 204.249 57.8125 204.891 57.3864C205.539 56.9545 206.363 56.7386 207.363 56.7386C208.272 56.7386 209.064 56.929 209.741 57.3097C210.417 57.6903 210.939 58.2472 211.309 58.9801C211.684 59.7131 211.871 60.608 211.871 61.6648V70H208.786V62.142C208.786 61.2614 208.559 60.5767 208.104 60.0881C207.655 59.5937 207.025 59.3466 206.212 59.3466C205.667 59.3466 205.178 59.4659 204.746 59.7045C204.32 59.9375 203.985 60.2756 203.741 60.7188C203.502 61.1619 203.383 61.6989 203.383 62.3295Z" fill="white"/>
<path d="M82.017 104.091V139H74.6364V111.097H74.4318L66.4375 116.108V109.562L75.0795 104.091H82.017ZM103.041 139.767C100.11 139.756 97.5869 139.034 95.4732 137.602C93.371 136.17 91.7516 134.097 90.6153 131.381C89.4903 128.665 88.9335 125.398 88.9448 121.58C88.9448 117.773 89.5073 114.528 90.6323 111.847C91.7687 109.165 93.388 107.125 95.4903 105.727C97.6039 104.318 100.121 103.614 103.041 103.614C105.962 103.614 108.473 104.318 110.576 105.727C112.689 107.136 114.314 109.182 115.451 111.864C116.587 114.534 117.149 117.773 117.138 121.58C117.138 125.409 116.57 128.682 115.433 131.398C114.308 134.114 112.695 136.187 110.593 137.619C108.49 139.051 105.973 139.767 103.041 139.767ZM103.041 133.648C105.041 133.648 106.638 132.642 107.831 130.631C109.024 128.619 109.615 125.602 109.604 121.58C109.604 118.932 109.331 116.727 108.786 114.966C108.252 113.205 107.49 111.881 106.502 110.994C105.524 110.108 104.371 109.665 103.041 109.665C101.053 109.665 99.4619 110.659 98.2687 112.648C97.0755 114.636 96.4732 117.614 96.4619 121.58C96.4619 124.261 96.7289 126.5 97.263 128.295C97.8085 130.08 98.5755 131.42 99.5641 132.318C100.553 133.205 101.712 133.648 103.041 133.648ZM139.729 135.727V134.807C139.729 134.108 139.877 133.466 140.173 132.881C140.474 132.29 140.908 131.818 141.477 131.466C142.05 131.108 142.749 130.929 143.573 130.929C144.408 130.929 145.11 131.105 145.678 131.457C146.252 131.81 146.684 132.281 146.974 132.872C147.269 133.457 147.417 134.102 147.417 134.807V135.727C147.417 136.426 147.269 137.071 146.974 137.662C146.678 138.247 146.244 138.716 145.67 139.068C145.096 139.426 144.397 139.605 143.573 139.605C142.738 139.605 142.036 139.426 141.468 139.068C140.9 138.716 140.468 138.247 140.173 137.662C139.877 137.071 139.729 136.426 139.729 135.727ZM142.209 134.807V135.727C142.209 136.131 142.306 136.511 142.499 136.869C142.698 137.227 143.056 137.406 143.573 137.406C144.09 137.406 144.442 137.23 144.63 136.878C144.823 136.526 144.92 136.142 144.92 135.727V134.807C144.92 134.392 144.829 134.006 144.647 133.648C144.465 133.29 144.107 133.111 143.573 133.111C143.062 133.111 142.707 133.29 142.508 133.648C142.309 134.006 142.209 134.392 142.209 134.807ZM130.772 125.739V124.818C130.772 124.114 130.923 123.469 131.224 122.884C131.525 122.293 131.959 121.821 132.528 121.469C133.102 121.116 133.795 120.94 134.607 120.94C135.448 120.94 136.153 121.116 136.721 121.469C137.289 121.821 137.721 122.293 138.016 122.884C138.312 123.469 138.459 124.114 138.459 124.818V125.739C138.459 126.443 138.309 127.088 138.008 127.673C137.712 128.259 137.278 128.727 136.704 129.08C136.136 129.426 135.437 129.599 134.607 129.599C133.778 129.599 133.076 129.423 132.502 129.071C131.934 128.713 131.502 128.244 131.207 127.665C130.917 127.08 130.772 126.437 130.772 125.739ZM133.269 124.818V125.739C133.269 126.153 133.366 126.537 133.559 126.889C133.758 127.241 134.107 127.418 134.607 127.418C135.13 127.418 135.485 127.241 135.673 126.889C135.866 126.537 135.962 126.153 135.962 125.739V124.818C135.962 124.403 135.871 124.017 135.69 123.659C135.508 123.301 135.147 123.122 134.607 123.122C134.102 123.122 133.752 123.304 133.559 123.668C133.366 124.031 133.269 124.415 133.269 124.818ZM131.897 139L143.897 121.545H146.13L134.13 139H131.897Z" fill="#F838AB"/>
<path d="M448.884 50.5455V68H445.722V50.5455H448.884ZM454.776 60.3295V68H451.691V54.9091H454.64V57.1335H454.793C455.095 56.4006 455.575 55.8182 456.234 55.3864C456.899 54.9545 457.72 54.7386 458.697 54.7386C459.6 54.7386 460.387 54.9318 461.058 55.3182C461.734 55.7045 462.257 56.2642 462.626 56.9972C463.001 57.7301 463.185 58.6193 463.18 59.6648V68H460.095V60.142C460.095 59.267 459.867 58.5824 459.413 58.0881C458.964 57.5937 458.342 57.3466 457.546 57.3466C457.007 57.3466 456.526 57.4659 456.106 57.7045C455.691 57.9375 455.364 58.2756 455.126 58.7188C454.893 59.1619 454.776 59.6989 454.776 60.3295ZM472.467 54.9091V57.2955H464.728V54.9091H472.467ZM466.663 68V53.6733C466.663 52.7926 466.845 52.0597 467.208 51.4744C467.578 50.8892 468.072 50.4517 468.691 50.1619C469.311 49.8722 469.998 49.7273 470.754 49.7273C471.288 49.7273 471.762 49.7699 472.177 49.8551C472.592 49.9403 472.899 50.017 473.098 50.0852L472.484 52.4716C472.353 52.4318 472.188 52.392 471.99 52.3523C471.791 52.3068 471.569 52.2841 471.325 52.2841C470.751 52.2841 470.345 52.4233 470.106 52.7017C469.873 52.9744 469.757 53.3665 469.757 53.8778V68H466.663ZM479.706 68.2557C478.394 68.2557 477.26 67.983 476.306 67.4375C475.357 66.8864 474.627 66.108 474.115 65.1023C473.604 64.0909 473.348 62.9006 473.348 61.5312C473.348 60.1847 473.604 59.0028 474.115 57.9858C474.632 56.9631 475.354 56.1676 476.28 55.5994C477.206 55.0256 478.294 54.7386 479.544 54.7386C480.351 54.7386 481.113 54.8693 481.828 55.1307C482.55 55.3864 483.186 55.7841 483.738 56.3239C484.294 56.8636 484.732 57.5511 485.05 58.3864C485.368 59.2159 485.527 60.2045 485.527 61.3523V62.2983H474.797V60.2188H482.57C482.564 59.6278 482.436 59.1023 482.186 58.642C481.936 58.1761 481.587 57.8097 481.138 57.5426C480.695 57.2756 480.178 57.142 479.587 57.142C478.956 57.142 478.402 57.2955 477.925 57.6023C477.448 57.9034 477.076 58.3011 476.809 58.7955C476.547 59.2841 476.414 59.821 476.408 60.4062V62.2216C476.408 62.983 476.547 63.6364 476.826 64.1818C477.104 64.7216 477.493 65.1364 477.993 65.4261C478.493 65.7102 479.078 65.8523 479.749 65.8523C480.198 65.8523 480.604 65.7898 480.968 65.6648C481.331 65.5341 481.647 65.3438 481.914 65.0938C482.181 64.8438 482.382 64.5341 482.519 64.1648L485.399 64.4886C485.218 65.25 484.871 65.9148 484.36 66.483C483.854 67.0455 483.206 67.483 482.417 67.7955C481.627 68.1023 480.723 68.2557 479.706 68.2557ZM487.657 68V54.9091H490.649V57.0909H490.785C491.024 56.3352 491.433 55.7528 492.013 55.3438C492.598 54.929 493.265 54.7216 494.015 54.7216C494.186 54.7216 494.376 54.7301 494.586 54.7472C494.802 54.7585 494.981 54.7784 495.123 54.8068V57.6449C494.993 57.5994 494.785 57.5597 494.501 57.5256C494.223 57.4858 493.953 57.4659 493.692 57.4659C493.129 57.4659 492.623 57.5881 492.174 57.8324C491.731 58.071 491.382 58.4034 491.126 58.8295C490.87 59.2557 490.743 59.7472 490.743 60.304V68H487.657ZM501.949 68.2557C500.637 68.2557 499.503 67.983 498.549 67.4375C497.6 66.8864 496.87 66.108 496.359 65.1023C495.847 64.0909 495.591 62.9006 495.591 61.5312C495.591 60.1847 495.847 59.0028 496.359 57.9858C496.876 56.9631 497.597 56.1676 498.523 55.5994C499.449 55.0256 500.537 54.7386 501.787 54.7386C502.594 54.7386 503.356 54.8693 504.072 55.1307C504.793 55.3864 505.43 55.7841 505.981 56.3239C506.537 56.8636 506.975 57.5511 507.293 58.3864C507.611 59.2159 507.77 60.2045 507.77 61.3523V62.2983H497.04V60.2188H504.813C504.807 59.6278 504.68 59.1023 504.43 58.642C504.18 58.1761 503.83 57.8097 503.381 57.5426C502.938 57.2756 502.421 57.142 501.83 57.142C501.199 57.142 500.645 57.2955 500.168 57.6023C499.691 57.9034 499.319 58.3011 499.052 58.7955C498.79 59.2841 498.657 59.821 498.651 60.4062V62.2216C498.651 62.983 498.79 63.6364 499.069 64.1818C499.347 64.7216 499.736 65.1364 500.236 65.4261C500.736 65.7102 501.322 65.8523 501.992 65.8523C502.441 65.8523 502.847 65.7898 503.211 65.6648C503.574 65.5341 503.89 65.3438 504.157 65.0938C504.424 64.8438 504.626 64.5341 504.762 64.1648L507.643 64.4886C507.461 65.25 507.114 65.9148 506.603 66.483C506.097 67.0455 505.449 67.483 504.66 67.7955C503.87 68.1023 502.966 68.2557 501.949 68.2557ZM512.986 60.3295V68H509.901V54.9091H512.849V57.1335H513.003C513.304 56.4006 513.784 55.8182 514.443 55.3864C515.108 54.9545 515.929 54.7386 516.906 54.7386C517.81 54.7386 518.597 54.9318 519.267 55.3182C519.943 55.7045 520.466 56.2642 520.835 56.9972C521.21 57.7301 521.395 58.6193 521.389 59.6648V68H518.304V60.142C518.304 59.267 518.077 58.5824 517.622 58.0881C517.173 57.5937 516.551 57.3466 515.756 57.3466C515.216 57.3466 514.736 57.4659 514.315 57.7045C513.901 57.9375 513.574 58.2756 513.335 58.7188C513.102 59.1619 512.986 59.6989 512.986 60.3295ZM529.756 68.2557C528.449 68.2557 527.327 67.9688 526.389 67.3949C525.457 66.821 524.739 66.0284 524.233 65.017C523.733 64 523.483 62.8295 523.483 61.5057C523.483 60.1761 523.739 59.0028 524.25 57.9858C524.761 56.9631 525.483 56.1676 526.415 55.5994C527.352 55.0256 528.46 54.7386 529.739 54.7386C530.801 54.7386 531.742 54.9347 532.56 55.3267C533.384 55.7131 534.04 56.2614 534.528 56.9716C535.017 57.6761 535.296 58.5 535.364 59.4432H532.415C532.296 58.8125 532.011 58.2869 531.563 57.8665C531.119 57.4403 530.526 57.2273 529.781 57.2273C529.151 57.2273 528.597 57.3977 528.119 57.7386C527.642 58.0739 527.27 58.5568 527.003 59.1875C526.742 59.8182 526.611 60.5739 526.611 61.4545C526.611 62.3466 526.742 63.1136 527.003 63.7557C527.264 64.392 527.631 64.8835 528.102 65.2301C528.58 65.571 529.139 65.7415 529.781 65.7415C530.236 65.7415 530.642 65.6562 531 65.4858C531.364 65.3097 531.668 65.0568 531.912 64.7273C532.156 64.3977 532.324 63.9972 532.415 63.5256H535.364C535.29 64.4517 535.017 65.2727 534.546 65.9886C534.074 66.6989 533.432 67.2557 532.619 67.6591C531.807 68.0568 530.852 68.2557 529.756 68.2557ZM543.213 68.2557C541.9 68.2557 540.767 67.983 539.812 67.4375C538.863 66.8864 538.133 66.108 537.622 65.1023C537.11 64.0909 536.855 62.9006 536.855 61.5312C536.855 60.1847 537.11 59.0028 537.622 57.9858C538.139 56.9631 538.86 56.1676 539.786 55.5994C540.713 55.0256 541.801 54.7386 543.051 54.7386C543.857 54.7386 544.619 54.8693 545.335 55.1307C546.056 55.3864 546.693 55.7841 547.244 56.3239C547.801 56.8636 548.238 57.5511 548.556 58.3864C548.874 59.2159 549.034 60.2045 549.034 61.3523V62.2983H538.303V60.2188H546.076C546.071 59.6278 545.943 59.1023 545.693 58.642C545.443 58.1761 545.093 57.8097 544.644 57.5426C544.201 57.2756 543.684 57.142 543.093 57.142C542.463 57.142 541.909 57.2955 541.431 57.6023C540.954 57.9034 540.582 58.3011 540.315 58.7955C540.053 59.2841 539.92 59.821 539.914 60.4062V62.2216C539.914 62.983 540.053 63.6364 540.332 64.1818C540.61 64.7216 540.999 65.1364 541.499 65.4261C541.999 65.7102 542.585 65.8523 543.255 65.8523C543.704 65.8523 544.11 65.7898 544.474 65.6648C544.838 65.5341 545.153 65.3438 545.42 65.0938C545.687 64.8438 545.889 64.5341 546.025 64.1648L548.906 64.4886C548.724 65.25 548.377 65.9148 547.866 66.483C547.36 67.0455 546.713 67.483 545.923 67.7955C545.133 68.1023 544.23 68.2557 543.213 68.2557ZM556.756 62.1818C556.756 60.75 556.942 59.4337 557.313 58.233C557.688 57.0284 558.222 55.9205 558.915 54.9091H560.097C559.824 55.2841 559.569 55.7462 559.33 56.2955C559.095 56.8409 558.889 57.4413 558.711 58.0966C558.533 58.7481 558.392 59.4223 558.29 60.1193C558.192 60.8163 558.142 61.5038 558.142 62.1818C558.142 63.0833 558.23 63.9981 558.404 64.9261C558.578 65.8542 558.813 66.7159 559.108 67.5114C559.404 68.3068 559.733 68.9545 560.097 69.4545H558.915C558.222 68.4432 557.688 67.3371 557.313 66.1364C556.942 64.9318 556.756 63.6136 556.756 62.1818ZM561.938 68V56.3636H563.347V61.5455H569.551V56.3636H570.96V68H569.551V62.7955H563.347V68H561.938ZM576.939 68.1818C576.098 68.1818 575.372 67.9962 574.762 67.625C574.156 67.25 573.689 66.7273 573.359 66.0568C573.033 65.3826 572.87 64.5985 572.87 63.7045C572.87 62.8106 573.033 62.0227 573.359 61.3409C573.689 60.6553 574.147 60.1212 574.734 59.7386C575.325 59.3523 576.014 59.1591 576.802 59.1591C577.257 59.1591 577.706 59.2348 578.149 59.3864C578.592 59.5379 578.995 59.7841 579.359 60.125C579.723 60.4621 580.012 60.9091 580.228 61.4659C580.444 62.0227 580.552 62.7083 580.552 63.5227V64.0909H573.825V62.9318H579.189C579.189 62.4394 579.09 62 578.893 61.6136C578.7 61.2273 578.423 60.9223 578.064 60.6989C577.707 60.4754 577.287 60.3636 576.802 60.3636C576.268 60.3636 575.806 60.4962 575.416 60.7614C575.029 61.0227 574.732 61.3636 574.524 61.7841C574.315 62.2045 574.211 62.6553 574.211 63.1364V63.9091C574.211 64.5682 574.325 65.1269 574.552 65.5852C574.783 66.0398 575.103 66.3864 575.512 66.625C575.922 66.8598 576.397 66.9773 576.939 66.9773C577.291 66.9773 577.609 66.928 577.893 66.8295C578.181 66.7273 578.429 66.5758 578.637 66.375C578.846 66.1705 579.007 65.9167 579.12 65.6136L580.416 65.9773C580.279 66.4167 580.05 66.803 579.728 67.1364C579.406 67.4659 579.009 67.7235 578.535 67.9091C578.062 68.0909 577.529 68.1818 576.939 68.1818ZM587.772 64.4318V59.2727H589.113V68H587.772V66.5227H587.681C587.477 66.9659 587.158 67.3428 586.727 67.6534C586.295 67.9602 585.749 68.1136 585.09 68.1136C584.545 68.1136 584.06 67.9943 583.636 67.7557C583.211 67.5133 582.878 67.1496 582.636 66.6648C582.393 66.1761 582.272 65.5606 582.272 64.8182V59.2727H583.613V64.7273C583.613 65.3636 583.791 65.8712 584.147 66.25C584.507 66.6288 584.965 66.8182 585.522 66.8182C585.855 66.8182 586.194 66.733 586.539 66.5625C586.887 66.392 587.179 66.1307 587.414 65.7784C587.653 65.4261 587.772 64.9773 587.772 64.4318ZM591.249 68V59.2727H592.544V60.5909H592.635C592.794 60.1591 593.082 59.8087 593.499 59.5398C593.916 59.2708 594.385 59.1364 594.908 59.1364C595.006 59.1364 595.13 59.1383 595.277 59.142C595.425 59.1458 595.537 59.1515 595.612 59.1591V60.5227C595.567 60.5114 595.463 60.4943 595.3 60.4716C595.141 60.4451 594.972 60.4318 594.794 60.4318C594.37 60.4318 593.991 60.5208 593.658 60.6989C593.328 60.8731 593.067 61.1155 592.874 61.4261C592.684 61.733 592.59 62.0833 592.59 62.4773V68H591.249ZM596.882 68V59.2727H598.223V68H596.882ZM597.564 57.8182C597.302 57.8182 597.077 57.7292 596.888 57.5511C596.702 57.3731 596.609 57.1591 596.609 56.9091C596.609 56.6591 596.702 56.4451 596.888 56.267C597.077 56.089 597.302 56 597.564 56C597.825 56 598.049 56.089 598.234 56.267C598.424 56.4451 598.518 56.6591 598.518 56.9091C598.518 57.1591 598.424 57.3731 598.234 57.5511C598.049 57.7292 597.825 57.8182 597.564 57.8182ZM606.541 61.2273L605.336 61.5682C605.26 61.3674 605.149 61.1723 605.001 60.983C604.857 60.7898 604.66 60.6307 604.41 60.5057C604.16 60.3807 603.84 60.3182 603.45 60.3182C602.916 60.3182 602.471 60.4413 602.115 60.6875C601.762 60.9299 601.586 61.2386 601.586 61.6136C601.586 61.947 601.707 62.2102 601.95 62.4034C602.192 62.5966 602.571 62.7576 603.086 62.8864L604.382 63.2045C605.162 63.3939 605.743 63.6837 606.126 64.0739C606.508 64.4602 606.7 64.9583 606.7 65.5682C606.7 66.0682 606.556 66.5152 606.268 66.9091C605.984 67.303 605.586 67.6136 605.075 67.8409C604.563 68.0682 603.969 68.1818 603.291 68.1818C602.401 68.1818 601.664 67.9886 601.08 67.6023C600.497 67.2159 600.128 66.6515 599.972 65.9091L601.245 65.5909C601.366 66.0606 601.596 66.4129 601.933 66.6477C602.274 66.8826 602.719 67 603.268 67C603.893 67 604.389 66.8674 604.757 66.6023C605.128 66.3333 605.313 66.0114 605.313 65.6364C605.313 65.3333 605.207 65.0795 604.995 64.875C604.783 64.6667 604.457 64.5114 604.018 64.4091L602.563 64.0682C601.764 63.8788 601.177 63.5852 600.802 63.1875C600.431 62.786 600.245 62.2841 600.245 61.6818C600.245 61.1894 600.383 60.7538 600.66 60.375C600.94 59.9962 601.321 59.6989 601.802 59.483C602.287 59.267 602.836 59.1591 603.45 59.1591C604.313 59.1591 604.991 59.3485 605.484 59.7273C605.98 60.1061 606.332 60.6061 606.541 61.2273ZM612.194 59.2727V60.4091H607.671V59.2727H612.194ZM608.989 57.1818H610.33V65.5C610.33 65.8788 610.385 66.1629 610.495 66.3523C610.608 66.5379 610.752 66.6629 610.927 66.7273C611.105 66.7879 611.292 66.8182 611.489 66.8182C611.637 66.8182 611.758 66.8106 611.853 66.7955C611.947 66.7765 612.023 66.7614 612.08 66.75L612.353 67.9545C612.262 67.9886 612.135 68.0227 611.972 68.0568C611.809 68.0947 611.603 68.1136 611.353 68.1136C610.974 68.1136 610.603 68.0322 610.239 67.8693C609.879 67.7064 609.58 67.4583 609.341 67.125C609.107 66.7917 608.989 66.3712 608.989 65.8636V57.1818ZM613.891 68V59.2727H615.232V68H613.891ZM614.573 57.8182C614.311 57.8182 614.086 57.7292 613.896 57.5511C613.711 57.3731 613.618 57.1591 613.618 56.9091C613.618 56.6591 613.711 56.4451 613.896 56.267C614.086 56.089 614.311 56 614.573 56C614.834 56 615.057 56.089 615.243 56.267C615.432 56.4451 615.527 56.6591 615.527 56.9091C615.527 57.1591 615.432 57.3731 615.243 57.5511C615.057 57.7292 614.834 57.8182 614.573 57.8182ZM620.913 68.1818C620.095 68.1818 619.39 67.9886 618.799 67.6023C618.209 67.2159 617.754 66.6837 617.436 66.0057C617.118 65.3277 616.959 64.553 616.959 63.6818C616.959 62.7955 617.121 62.0133 617.447 61.3352C617.777 60.6534 618.235 60.1212 618.822 59.7386C619.413 59.3523 620.102 59.1591 620.89 59.1591C621.504 59.1591 622.057 59.2727 622.549 59.5C623.042 59.7273 623.445 60.0455 623.76 60.4545C624.074 60.8636 624.269 61.3409 624.345 61.8864H623.004C622.902 61.4886 622.674 61.1364 622.322 60.8295C621.974 60.5189 621.504 60.3636 620.913 60.3636C620.39 60.3636 619.932 60.5 619.538 60.7727C619.148 61.0417 618.843 61.4223 618.623 61.9148C618.407 62.4034 618.299 62.9773 618.299 63.6364C618.299 64.3106 618.405 64.8977 618.618 65.3977C618.834 65.8977 619.137 66.286 619.527 66.5625C619.921 66.839 620.383 66.9773 620.913 66.9773C621.262 66.9773 621.578 66.9167 621.862 66.7955C622.146 66.6742 622.387 66.5 622.584 66.2727C622.78 66.0455 622.921 65.7727 623.004 65.4545H624.345C624.269 65.9697 624.082 66.4337 623.782 66.8466C623.487 67.2557 623.095 67.5814 622.606 67.8239C622.121 68.0625 621.557 68.1818 620.913 68.1818ZM632.167 61.2273L630.962 61.5682C630.887 61.3674 630.775 61.1723 630.627 60.983C630.483 60.7898 630.286 60.6307 630.036 60.5057C629.786 60.3807 629.466 60.3182 629.076 60.3182C628.542 60.3182 628.097 60.4413 627.741 60.6875C627.388 60.9299 627.212 61.2386 627.212 61.6136C627.212 61.947 627.334 62.2102 627.576 62.4034C627.818 62.5966 628.197 62.7576 628.712 62.8864L630.008 63.2045C630.788 63.3939 631.37 63.6837 631.752 64.0739C632.135 64.4602 632.326 64.9583 632.326 65.5682C632.326 66.0682 632.182 66.5152 631.894 66.9091C631.61 67.303 631.212 67.6136 630.701 67.8409C630.19 68.0682 629.595 68.1818 628.917 68.1818C628.027 68.1818 627.29 67.9886 626.707 67.6023C626.123 67.2159 625.754 66.6515 625.599 65.9091L626.871 65.5909C626.993 66.0606 627.222 66.4129 627.559 66.6477C627.9 66.8826 628.345 67 628.894 67C629.519 67 630.015 66.8674 630.383 66.6023C630.754 66.3333 630.94 66.0114 630.94 65.6364C630.94 65.3333 630.834 65.0795 630.621 64.875C630.409 64.6667 630.084 64.5114 629.644 64.4091L628.19 64.0682C627.39 63.8788 626.803 63.5852 626.428 63.1875C626.057 62.786 625.871 62.2841 625.871 61.6818C625.871 61.1894 626.01 60.7538 626.286 60.375C626.567 59.9962 626.947 59.6989 627.428 59.483C627.913 59.267 628.462 59.1591 629.076 59.1591C629.94 59.1591 630.618 59.3485 631.11 59.7273C631.606 60.1061 631.959 60.6061 632.167 61.2273ZM641.614 65.9545V58.4545H642.886V65.9545H641.614ZM638.5 62.8409V61.5682H646V62.8409H638.5ZM653.27 68H651.793L656.066 56.3636H657.52L661.793 68H660.316L656.839 58.2045H656.748L653.27 68ZM653.816 63.4545H659.77V64.7045H653.816V63.4545ZM664.695 56.3636V68H663.286V56.3636H664.695ZM669.882 62.1818C669.882 63.6136 669.694 64.9318 669.319 66.1364C668.948 67.3371 668.416 68.4432 667.723 69.4545H666.541C666.814 69.0795 667.067 68.6174 667.302 68.0682C667.541 67.5227 667.749 66.9242 667.927 66.2727C668.105 65.6174 668.244 64.9413 668.342 64.2443C668.444 63.5436 668.495 62.8561 668.495 62.1818C668.495 61.2803 668.408 60.3655 668.234 59.4375C668.06 58.5095 667.825 57.6477 667.53 56.8523C667.234 56.0568 666.905 55.4091 666.541 54.9091H667.723C668.416 55.9205 668.948 57.0284 669.319 58.233C669.694 59.4337 669.882 60.75 669.882 62.1818Z" fill="white"/>
<path d="M462.017 102.091V137H454.636V109.097H454.432L446.438 114.108V107.562L455.08 102.091H462.017ZM483.041 137.767C480.11 137.756 477.587 137.034 475.473 135.602C473.371 134.17 471.752 132.097 470.615 129.381C469.49 126.665 468.933 123.398 468.945 119.58C468.945 115.773 469.507 112.528 470.632 109.847C471.769 107.165 473.388 105.125 475.49 103.727C477.604 102.318 480.121 101.614 483.041 101.614C485.962 101.614 488.473 102.318 490.576 103.727C492.689 105.136 494.314 107.182 495.451 109.864C496.587 112.534 497.149 115.773 497.138 119.58C497.138 123.409 496.57 126.682 495.433 129.398C494.308 132.114 492.695 134.187 490.593 135.619C488.49 137.051 485.973 137.767 483.041 137.767ZM483.041 131.648C485.041 131.648 486.638 130.642 487.831 128.631C489.024 126.619 489.615 123.602 489.604 119.58C489.604 116.932 489.331 114.727 488.786 112.966C488.252 111.205 487.49 109.881 486.502 108.994C485.524 108.108 484.371 107.665 483.041 107.665C481.053 107.665 479.462 108.659 478.269 110.648C477.076 112.636 476.473 115.614 476.462 119.58C476.462 122.261 476.729 124.5 477.263 126.295C477.808 128.08 478.576 129.42 479.564 130.318C480.553 131.205 481.712 131.648 483.041 131.648ZM519.729 133.727V132.807C519.729 132.108 519.877 131.466 520.173 130.881C520.474 130.29 520.908 129.818 521.477 129.466C522.05 129.108 522.749 128.929 523.573 128.929C524.408 128.929 525.11 129.105 525.678 129.457C526.252 129.81 526.684 130.281 526.974 130.872C527.269 131.457 527.417 132.102 527.417 132.807V133.727C527.417 134.426 527.269 135.071 526.974 135.662C526.678 136.247 526.244 136.716 525.67 137.068C525.096 137.426 524.397 137.605 523.573 137.605C522.738 137.605 522.036 137.426 521.468 137.068C520.9 136.716 520.468 136.247 520.173 135.662C519.877 135.071 519.729 134.426 519.729 133.727ZM522.209 132.807V133.727C522.209 134.131 522.306 134.511 522.499 134.869C522.698 135.227 523.056 135.406 523.573 135.406C524.09 135.406 524.442 135.23 524.63 134.878C524.823 134.526 524.92 134.142 524.92 133.727V132.807C524.92 132.392 524.829 132.006 524.647 131.648C524.465 131.29 524.107 131.111 523.573 131.111C523.062 131.111 522.707 131.29 522.508 131.648C522.309 132.006 522.209 132.392 522.209 132.807ZM510.772 123.739V122.818C510.772 122.114 510.923 121.469 511.224 120.884C511.525 120.293 511.959 119.821 512.528 119.469C513.102 119.116 513.795 118.94 514.607 118.94C515.448 118.94 516.153 119.116 516.721 119.469C517.289 119.821 517.721 120.293 518.016 120.884C518.312 121.469 518.459 122.114 518.459 122.818V123.739C518.459 124.443 518.309 125.088 518.008 125.673C517.712 126.259 517.278 126.727 516.704 127.08C516.136 127.426 515.437 127.599 514.607 127.599C513.778 127.599 513.076 127.423 512.502 127.071C511.934 126.713 511.502 126.244 511.207 125.665C510.917 125.08 510.772 124.437 510.772 123.739ZM513.269 122.818V123.739C513.269 124.153 513.366 124.537 513.559 124.889C513.758 125.241 514.107 125.418 514.607 125.418C515.13 125.418 515.485 125.241 515.673 124.889C515.866 124.537 515.962 124.153 515.962 123.739V122.818C515.962 122.403 515.871 122.017 515.69 121.659C515.508 121.301 515.147 121.122 514.607 121.122C514.102 121.122 513.752 121.304 513.559 121.668C513.366 122.031 513.269 122.415 513.269 122.818ZM511.897 137L523.897 119.545H526.13L514.13 137H511.897Z" fill="#F838AB"/>
<path d="M825.722 70V52.5455H837.074V55.196H828.884V59.9347H836.486V62.5852H828.884V67.3494H837.142V70H825.722ZM842.206 56.9091L844.848 61.7415L847.533 56.9091H850.797L846.851 63.4545L850.865 70H847.618L844.848 65.2869L842.104 70H838.831L842.82 63.4545L838.933 56.9091H842.206ZM859.24 56.9091V59.2955H851.715V56.9091H859.24ZM853.573 53.7727H856.658V66.0625C856.658 66.4773 856.72 66.7955 856.845 67.017C856.976 67.233 857.147 67.3807 857.357 67.4602C857.567 67.5398 857.8 67.5795 858.056 67.5795C858.249 67.5795 858.425 67.5653 858.584 67.5369C858.749 67.5085 858.874 67.483 858.959 67.4602L859.479 69.8722C859.314 69.929 859.078 69.9915 858.772 70.0597C858.47 70.1278 858.101 70.1676 857.664 70.179C856.891 70.2017 856.195 70.0852 855.576 69.8295C854.956 69.5682 854.465 69.1648 854.101 68.6193C853.743 68.0739 853.567 67.392 853.573 66.5739V53.7727ZM866.995 70.2557C865.683 70.2557 864.549 69.983 863.595 69.4375C862.646 68.8864 861.916 68.108 861.404 67.1023C860.893 66.0909 860.637 64.9006 860.637 63.5312C860.637 62.1847 860.893 61.0028 861.404 59.9858C861.922 58.9631 862.643 58.1676 863.569 57.5994C864.495 57.0256 865.583 56.7386 866.833 56.7386C867.64 56.7386 868.402 56.8693 869.118 57.1307C869.839 57.3864 870.475 57.7841 871.027 58.3239C871.583 58.8636 872.021 59.5511 872.339 60.3864C872.657 61.2159 872.816 62.2045 872.816 63.3523V64.2983H862.086V62.2188H869.859C869.853 61.6278 869.725 61.1023 869.475 60.642C869.225 60.1761 868.876 59.8097 868.427 59.5426C867.984 59.2756 867.467 59.142 866.876 59.142C866.245 59.142 865.691 59.2955 865.214 59.6023C864.737 59.9034 864.365 60.3011 864.098 60.7955C863.836 61.2841 863.703 61.821 863.697 62.4062V64.2216C863.697 64.983 863.836 65.6364 864.115 66.1818C864.393 66.7216 864.782 67.1364 865.282 67.4261C865.782 67.7102 866.368 67.8523 867.038 67.8523C867.487 67.8523 867.893 67.7898 868.257 67.6648C868.62 67.5341 868.936 67.3438 869.203 67.0938C869.47 66.8438 869.672 66.5341 869.808 66.1648L872.689 66.4886C872.507 67.25 872.16 67.9148 871.649 68.483C871.143 69.0455 870.495 69.483 869.706 69.7955C868.916 70.1023 868.012 70.2557 866.995 70.2557ZM874.946 70V56.9091H877.938V59.0909H878.074C878.313 58.3352 878.722 57.7528 879.302 57.3438C879.887 56.929 880.554 56.7216 881.304 56.7216C881.475 56.7216 881.665 56.7301 881.875 56.7472C882.091 56.7585 882.27 56.7784 882.412 56.8068V59.6449C882.282 59.5994 882.074 59.5597 881.79 59.5256C881.512 59.4858 881.242 59.4659 880.981 59.4659C880.418 59.4659 879.912 59.5881 879.464 59.8324C879.02 60.071 878.671 60.4034 878.415 60.8295C878.16 61.2557 878.032 61.7472 878.032 62.304V70H874.946ZM887.067 62.3295V70H883.982V56.9091H886.931V59.1335H887.084C887.386 58.4006 887.866 57.8182 888.525 57.3864C889.189 56.9545 890.011 56.7386 890.988 56.7386C891.891 56.7386 892.678 56.9318 893.349 57.3182C894.025 57.7045 894.547 58.2642 894.917 58.9972C895.292 59.7301 895.476 60.6193 895.471 61.6648V70H892.386V62.142C892.386 61.267 892.158 60.5824 891.704 60.0881C891.255 59.5937 890.633 59.3466 889.837 59.3466C889.297 59.3466 888.817 59.4659 888.397 59.7045C887.982 59.9375 887.655 60.2756 887.417 60.7188C887.184 61.1619 887.067 61.6989 887.067 62.3295ZM901.894 70.2642C901.065 70.2642 900.317 70.1165 899.653 69.821C898.994 69.5199 898.471 69.0767 898.084 68.4915C897.704 67.9062 897.513 67.1847 897.513 66.3267C897.513 65.5881 897.65 64.9773 897.923 64.4943C898.195 64.0114 898.567 63.625 899.039 63.3352C899.511 63.0455 900.042 62.8267 900.633 62.679C901.229 62.5256 901.846 62.4148 902.482 62.3466C903.249 62.267 903.871 62.196 904.349 62.1335C904.826 62.0653 905.173 61.9631 905.388 61.8267C905.61 61.6847 905.721 61.4659 905.721 61.1705V61.1193C905.721 60.4773 905.531 59.9801 905.15 59.6278C904.769 59.2756 904.221 59.0994 903.505 59.0994C902.749 59.0994 902.15 59.2642 901.707 59.5938C901.269 59.9233 900.974 60.3125 900.82 60.7614L897.94 60.3523C898.167 59.5568 898.542 58.892 899.065 58.358C899.587 57.8182 900.227 57.4148 900.982 57.1477C901.738 56.875 902.573 56.7386 903.488 56.7386C904.119 56.7386 904.746 56.8125 905.371 56.9602C905.996 57.108 906.567 57.3523 907.084 57.6932C907.602 58.0284 908.016 58.4858 908.329 59.0653C908.647 59.6449 908.806 60.3693 908.806 61.2386V70H905.84V68.2017H905.738C905.55 68.5653 905.286 68.9062 904.945 69.2244C904.61 69.5369 904.187 69.7898 903.675 69.983C903.17 70.1705 902.576 70.2642 901.894 70.2642ZM902.695 67.9972C903.315 67.9972 903.852 67.875 904.306 67.6307C904.761 67.3807 905.11 67.0511 905.354 66.642C905.604 66.233 905.729 65.7869 905.729 65.304V63.7614C905.633 63.8409 905.468 63.9148 905.235 63.983C905.008 64.0511 904.752 64.1108 904.468 64.1619C904.184 64.2131 903.903 64.2585 903.624 64.2983C903.346 64.3381 903.104 64.3722 902.9 64.4006C902.44 64.4631 902.028 64.5653 901.664 64.7074C901.3 64.8494 901.013 65.0483 900.803 65.304C900.593 65.554 900.488 65.8778 900.488 66.2756C900.488 66.8438 900.695 67.2727 901.11 67.5625C901.525 67.8523 902.053 67.9972 902.695 67.9972ZM914.514 52.5455V70H911.428V52.5455H914.514Z" fill="white"/>
<path d="M842.017 104.091V139H834.636V111.097H834.432L826.438 116.108V109.562L835.08 104.091H842.017ZM863.041 139.767C860.11 139.756 857.587 139.034 855.473 137.602C853.371 136.17 851.752 134.097 850.615 131.381C849.49 128.665 848.933 125.398 848.945 121.58C848.945 117.773 849.507 114.528 850.632 111.847C851.769 109.165 853.388 107.125 855.49 105.727C857.604 104.318 860.121 103.614 863.041 103.614C865.962 103.614 868.473 104.318 870.576 105.727C872.689 107.136 874.314 109.182 875.451 111.864C876.587 114.534 877.149 117.773 877.138 121.58C877.138 125.409 876.57 128.682 875.433 131.398C874.308 134.114 872.695 136.187 870.593 137.619C868.49 139.051 865.973 139.767 863.041 139.767ZM863.041 133.648C865.041 133.648 866.638 132.642 867.831 130.631C869.024 128.619 869.615 125.602 869.604 121.58C869.604 118.932 869.331 116.727 868.786 114.966C868.252 113.205 867.49 111.881 866.502 110.994C865.524 110.108 864.371 109.665 863.041 109.665C861.053 109.665 859.462 110.659 858.269 112.648C857.076 114.636 856.473 117.614 856.462 121.58C856.462 124.261 856.729 126.5 857.263 128.295C857.808 130.08 858.576 131.42 859.564 132.318C860.553 133.205 861.712 133.648 863.041 133.648ZM899.729 135.727V134.807C899.729 134.108 899.877 133.466 900.173 132.881C900.474 132.29 900.908 131.818 901.477 131.466C902.05 131.108 902.749 130.929 903.573 130.929C904.408 130.929 905.11 131.105 905.678 131.457C906.252 131.81 906.684 132.281 906.974 132.872C907.269 133.457 907.417 134.102 907.417 134.807V135.727C907.417 136.426 907.269 137.071 906.974 137.662C906.678 138.247 906.244 138.716 905.67 139.068C905.096 139.426 904.397 139.605 903.573 139.605C902.738 139.605 902.036 139.426 901.468 139.068C900.9 138.716 900.468 138.247 900.173 137.662C899.877 137.071 899.729 136.426 899.729 135.727ZM902.209 134.807V135.727C902.209 136.131 902.306 136.511 902.499 136.869C902.698 137.227 903.056 137.406 903.573 137.406C904.09 137.406 904.442 137.23 904.63 136.878C904.823 136.526 904.92 136.142 904.92 135.727V134.807C904.92 134.392 904.829 134.006 904.647 133.648C904.465 133.29 904.107 133.111 903.573 133.111C903.062 133.111 902.707 133.29 902.508 133.648C902.309 134.006 902.209 134.392 902.209 134.807ZM890.772 125.739V124.818C890.772 124.114 890.923 123.469 891.224 122.884C891.525 122.293 891.959 121.821 892.528 121.469C893.102 121.116 893.795 120.94 894.607 120.94C895.448 120.94 896.153 121.116 896.721 121.469C897.289 121.821 897.721 122.293 898.016 122.884C898.312 123.469 898.459 124.114 898.459 124.818V125.739C898.459 126.443 898.309 127.088 898.008 127.673C897.712 128.259 897.278 128.727 896.704 129.08C896.136 129.426 895.437 129.599 894.607 129.599C893.778 129.599 893.076 129.423 892.502 129.071C891.934 128.713 891.502 128.244 891.207 127.665C890.917 127.08 890.772 126.437 890.772 125.739ZM893.269 124.818V125.739C893.269 126.153 893.366 126.537 893.559 126.889C893.758 127.241 894.107 127.418 894.607 127.418C895.13 127.418 895.485 127.241 895.673 126.889C895.866 126.537 895.962 126.153 895.962 125.739V124.818C895.962 124.403 895.871 124.017 895.69 123.659C895.508 123.301 895.147 123.122 894.607 123.122C894.102 123.122 893.752 123.304 893.559 123.668C893.366 124.031 893.269 124.415 893.269 124.818ZM891.897 139L903.897 121.545H906.13L894.13 139H891.897Z" fill="#F838AB"/>
<path d="M380 46L380 150" stroke="url(#paint2_linear_966_223)"/>
<path d="M760 46L760 150" stroke="url(#paint3_linear_966_223)"/>
<defs>
<filter id="filter0_b_966_223" x="-28" y="-28" width="1196" height="248" filterUnits="userSpaceOnUse" color-interpolation-filters="sRGB">
<feFlood flood-opacity="0" result="BackgroundImageFix"/>
<feGaussianBlur in="BackgroundImageFix" stdDeviation="14"/>
<feComposite in2="SourceAlpha" operator="in" result="effect1_backgroundBlur_966_223"/>
<feBlend mode="normal" in="SourceGraphic" in2="effect1_backgroundBlur_966_223" result="shape"/>
</filter>
<linearGradient id="paint0_linear_966_223" x1="537.43" y1="-3.57019e-05" x2="536.768" y2="192.078" gradientUnits="userSpaceOnUse">
<stop stop-color="white" stop-opacity="0.01"/>
<stop offset="1" stop-color="white" stop-opacity="0.04"/>
</linearGradient>
<linearGradient id="paint1_linear_966_223" x1="570" y1="0" x2="570" y2="192" gradientUnits="userSpaceOnUse">
<stop stop-color="#EFF6FF" stop-opacity="0.11"/>
<stop offset="1" stop-color="white" stop-opacity="0"/>
</linearGradient>
<linearGradient id="paint2_linear_966_223" x1="380.5" y1="46" x2="380.5" y2="150" gradientUnits="userSpaceOnUse">
<stop stop-color="white" stop-opacity="0.1"/>
<stop offset="0.46" stop-color="white" stop-opacity="0.4"/>
<stop offset="0.95" stop-color="white" stop-opacity="0.1"/>
</linearGradient>
<linearGradient id="paint3_linear_966_223" x1="760.5" y1="46" x2="760.5" y2="150" gradientUnits="userSpaceOnUse">
<stop stop-color="white" stop-opacity="0.1"/>
<stop offset="0.46" stop-color="white" stop-opacity="0.4"/>
<stop offset="0.95" stop-color="white" stop-opacity="0.1"/>
</linearGradient>
</defs>
</svg>
