<svg xmlns="http://www.w3.org/2000/svg" width="78" height="78" fill="none" viewBox="0 0 78 78">
  <path fill="url(#a)" fill-rule="evenodd" d="M35.765 4.183a2.415 2.415 0 0 1 1.271 0L62.8 11.21a2.415 2.415 0 0 1 1.78 2.33v9.076a2.415 2.415 0 0 1-2.415 2.415h-.805v33.814h2.415a2.415 2.415 0 0 1 2.415 2.415v7.246h2.416a2.415 2.415 0 1 1 0 4.83H4.197a2.415 2.415 0 0 1 0-4.83h2.415V61.26a2.415 2.415 0 0 1 2.415-2.415h2.415V25.031h-.805a2.415 2.415 0 0 1-2.415-2.415V13.54c0-1.09.73-2.044 1.78-2.33l25.763-7.027ZM13.862 63.676h-2.419v4.83h49.916v-4.83H13.862Zm8.852-4.831h-6.441V25.031h6.44v33.814Zm4.83 0h6.441V25.031h-6.44v33.814Zm11.272 0h6.44V25.031h-6.44v33.814Zm11.271 0h6.441V25.031h-6.44v33.814Z" clip-rule="evenodd"/>
  <defs>
    <linearGradient id="a" x1="11.768" x2="41.167" y1="12.011" y2="70.96" gradientUnits="userSpaceOnUse">
      <stop stop-color="#33B394"/>
      <stop offset="1" stop-color="#02C98D" stop-opacity=".61"/>
    </linearGradient>
  </defs>
</svg>
