<svg xmlns="http://www.w3.org/2000/svg" width="59" height="59" fill="none" viewBox="0 0 59 59">
  <path fill="url(#a)" fill-rule="evenodd" d="M9.303 10.12c-1.993.997-2.536 2.039-2.536 2.65 0 .612.543 1.653 2.536 2.65 1.884.942 4.615 1.577 7.73 1.577 3.114 0 5.844-.635 7.729-1.577 1.992-.997 2.535-2.038 2.535-2.65 0-.611-.543-1.653-2.535-2.65-1.885-.941-4.615-1.576-7.73-1.576-3.114 0-5.845.635-7.729 1.577Zm-1.62-3.24c-2.378 1.19-4.539 3.167-4.539 5.89v33.814c0 2.724 2.16 4.701 4.539 5.89 2.486 1.244 5.794 1.96 9.35 1.96 3.554 0 6.862-.716 9.349-1.96.994-.497 1.95-1.132 2.727-1.902.776.77 1.732 1.405 2.727 1.902 2.486 1.244 5.794 1.96 9.35 1.96 3.554 0 6.862-.716 9.349-1.96 2.378-1.189 4.538-3.166 4.538-5.89V29.677c0-2.723-2.16-4.7-4.538-5.89-2.487-1.243-5.795-1.96-9.35-1.96-3.555 0-6.863.717-9.35 1.96-.31.156-.616.324-.915.506V12.77c0-2.723-2.16-4.7-4.538-5.89-2.487-1.243-5.795-1.96-9.35-1.96-3.555 0-6.863.717-9.35 1.96ZM30.92 35.062v3.069c0 .612.543 1.653 2.536 2.65 1.884.942 4.615 1.577 7.73 1.577 3.114 0 5.844-.635 7.728-1.578 1.993-.996 2.536-2.037 2.536-2.649v-3.07c-.298.183-.605.351-.915.506-2.487 1.243-5.795 1.96-9.35 1.96-3.555 0-6.863-.717-9.35-1.96a12.58 12.58 0 0 1-.915-.505Zm0 8.453v3.07c0 .611.543 1.652 2.536 2.649 1.884.942 4.615 1.577 7.73 1.577 3.114 0 5.844-.635 7.728-1.577 1.993-.997 2.536-2.038 2.536-2.65v-3.069c-.298.182-.605.35-.915.506-2.487 1.243-5.795 1.96-9.35 1.96-3.555 0-6.863-.717-9.35-1.96-.31-.155-.616-.324-.915-.506Zm-3.623-13.838v-3.069c-.298.182-.605.35-.915.506-2.487 1.243-5.795 1.96-9.35 1.96-3.555 0-6.863-.717-9.35-1.96a12.56 12.56 0 0 1-.915-.506v3.07c0 .611.543 1.652 2.536 2.649 1.884.942 4.615 1.577 7.73 1.577 3.114 0 5.844-.635 7.729-1.577 1.992-.997 2.535-2.038 2.535-2.65Zm0 16.907v-3.069c-.298.182-.605.35-.915.506-2.487 1.243-5.795 1.96-9.35 1.96-3.555 0-6.863-.717-9.35-1.96a12.56 12.56 0 0 1-.915-.506v3.07c0 .611.543 1.652 2.536 2.649 1.884.942 4.615 1.577 7.73 1.577 3.114 0 5.844-.635 7.729-1.577 1.992-.997 2.535-2.038 2.535-2.65Zm0-8.453v-3.07c-.298.183-.605.351-.915.506-2.487 1.243-5.795 1.96-9.35 1.96-3.555 0-6.863-.717-9.35-1.96a12.58 12.58 0 0 1-.915-.505v3.069c0 .612.543 1.653 2.536 2.65 1.884.942 4.615 1.577 7.73 1.577 3.114 0 5.844-.635 7.729-1.578 1.992-.996 2.535-2.037 2.535-2.649ZM6.767 21.224c0 .611.543 1.653 2.536 2.65 1.884.942 4.615 1.577 7.73 1.577 3.114 0 5.844-.635 7.729-1.578 1.992-.996 2.535-2.038 2.535-2.65v-3.068c-.298.181-.605.35-.915.505-2.487 1.243-5.795 1.96-9.35 1.96-3.555 0-6.863-.717-9.35-1.96a12.58 12.58 0 0 1-.915-.505v3.069Zm26.689 5.804c-1.993.996-2.536 2.038-2.536 2.65 0 .611.543 1.652 2.536 2.649 1.884.942 4.615 1.577 7.73 1.577 3.114 0 5.844-.635 7.728-1.577 1.993-.997 2.536-2.038 2.536-2.65 0-.611-.543-1.653-2.536-2.649-1.884-.942-4.614-1.577-7.729-1.577-3.114 0-5.845.635-7.729 1.577Z" clip-rule="evenodd"/>
  <defs>
    <linearGradient id="a" x1="10.634" x2="31.05" y1="10.579" y2="53.511" gradientUnits="userSpaceOnUse">
      <stop stop-color="#33B394"/>
      <stop offset="1" stop-color="#02C98D" stop-opacity=".61"/>
    </linearGradient>
  </defs>
</svg>
