<svg width="448" height="434" viewBox="0 0 448 434" fill="none" xmlns="http://www.w3.org/2000/svg">
<path d="M0.5 93.374C0.5 84.8136 7.43959 77.874 16 77.874H400C408.56 77.874 415.5 84.8136 415.5 93.374V343.276C415.5 351.837 408.56 358.776 400 358.776H16C7.4396 358.776 0.5 351.837 0.5 343.276V93.374Z" fill="#0D1116" stroke="url(#paint0_linear_3100_10204)"/>
<path d="M32.5 69.374C32.5 60.8136 39.4396 53.874 48 53.874H432C440.56 53.874 447.5 60.8136 447.5 69.374V319.276C447.5 327.837 440.56 334.776 432 334.776H48C39.4396 334.776 32.5 327.837 32.5 319.276V69.374Z" fill="url(#paint1_linear_3100_10204)" fill-opacity="0.37" stroke="url(#paint2_linear_3100_10204)"/>
<mask id="mask0_3100_10204" style="mask-type:alpha" maskUnits="userSpaceOnUse" x="0" y="0" width="416" height="416">
<path d="M0 8.00001C0 3.58173 3.58172 0 8 0H408C412.418 0 416 3.58172 416 8V408C416 412.418 412.418 416 408 416H8.00001C3.58173 416 0 412.418 0 408V8.00001Z" fill="url(#paint3_radial_3100_10204)"/>
</mask>
<g mask="url(#mask0_3100_10204)">
<path d="M0 8.00001C0 3.58173 3.58172 0 8 0H408C412.418 0 416 3.58172 416 8V408C416 412.418 412.418 416 408 416H8.00001C3.58173 416 0 412.418 0 408V8.00001Z" fill="url(#paint4_radial_3100_10204)" fill-opacity="0.08"/>
<g opacity="0.2">
<path fill-rule="evenodd" clip-rule="evenodd" d="M37.6226 92.6559L16.1793 71.2126C14.6635 69.6968 12.4543 69.1048 10.3837 69.6597L-18.9083 77.5084C-19.7476 77.7333 -20.5123 78.1327 -21.162 78.6661L2.16712 101C3.93709 102.695 6.46422 103.34 8.83005 102.702L38.9182 94.5902C38.6215 93.8782 38.1858 93.2191 37.6226 92.6559ZM-23.151 81.7511C-23.0003 81.1888 -22.7713 80.66 -22.4762 80.1768L0.784056 102.445C1.70054 103.322 2.77491 103.981 3.93004 104.401L-5.54639 139.768C-6.45849 139.483 -7.30473 138.981 -8.00357 138.282L-29.4469 116.839C-30.9626 115.323 -31.5546 113.114 -30.9998 111.043L-23.151 81.7511ZM-3.54769 140.036C-3.10021 140.02 -2.65094 139.954 -2.20801 139.835L27.0841 131.986C29.1546 131.431 30.7719 129.814 31.3267 127.744L39.1755 98.4514C39.3449 97.8193 39.4074 97.1743 39.3693 96.54L9.35068 104.633C8.20029 104.944 7.02023 105.018 5.87439 104.872L-3.54769 140.036ZM17.5935 69.7984C15.5725 67.7773 12.6268 66.9881 9.8661 67.7278L-19.426 75.5766C-22.1867 76.3163 -24.3431 78.4727 -25.0828 81.2335L-32.9316 110.526C-33.6714 113.286 -32.8821 116.232 -30.8611 118.253L-9.41778 139.696C-7.39678 141.717 -4.45111 142.507 -1.69037 141.767L27.6017 133.918C30.3625 133.178 32.5188 131.022 33.2586 128.261L41.1074 98.9691C41.8471 96.2083 41.0578 93.2627 39.0368 91.2417L17.5935 69.7984Z" fill="white"/>
<path fill-rule="evenodd" clip-rule="evenodd" d="M134.722 118.674L113.279 97.2304C111.763 95.7146 109.554 95.1227 107.483 95.6775L78.1913 103.526C77.3521 103.751 76.5875 104.15 75.9378 104.684L99.2663 127.017C101.036 128.712 103.563 129.357 105.929 128.719L136.018 120.607C135.721 119.896 135.285 119.237 134.722 118.674ZM73.9486 107.769C74.0993 107.207 74.3284 106.678 74.6236 106.194L97.8833 128.462C98.7999 129.339 99.8745 129.998 101.03 130.418L91.5532 165.785C90.6411 165.501 89.7949 164.999 89.096 164.3L67.6528 142.857C66.137 141.341 65.545 139.132 66.0998 137.061L73.9486 107.769ZM93.5519 166.054C93.9994 166.038 94.4487 165.971 94.8916 165.853L124.184 158.004C126.254 157.449 127.872 155.832 128.426 153.761L136.275 124.469C136.445 123.837 136.507 123.192 136.469 122.557L106.45 130.65C105.3 130.961 104.12 131.035 102.974 130.889L93.5519 166.054ZM114.693 95.8162C112.672 93.7952 109.726 93.0059 106.966 93.7456L77.6736 101.594C74.9129 102.334 72.7565 104.491 72.0168 107.251L64.168 136.543C63.4282 139.304 64.2175 142.25 66.2385 144.271L87.6818 165.714C89.7028 167.735 92.6485 168.524 95.4092 167.785L124.701 159.936C127.462 159.196 129.618 157.04 130.358 154.279L138.207 124.987C138.947 122.226 138.157 119.28 136.136 117.259L114.693 95.8162Z" fill="white"/>
<path fill-rule="evenodd" clip-rule="evenodd" d="M231.822 144.692L210.379 123.248C208.863 121.732 206.654 121.14 204.583 121.695L175.291 129.544C174.452 129.769 173.687 130.168 173.038 130.701L196.367 153.035C198.137 154.73 200.664 155.375 203.03 154.737L233.117 146.626C232.821 145.914 232.385 145.255 231.822 144.692ZM171.048 133.787C171.199 133.224 171.428 132.695 171.724 132.212L194.984 154.48C195.901 155.357 196.975 156.016 198.13 156.436L188.654 191.803C187.741 191.519 186.895 191.017 186.196 190.318L164.752 168.874C163.237 167.359 162.645 165.149 163.199 163.079L171.048 133.787ZM190.652 192.071C191.1 192.055 191.549 191.989 191.991 191.871L221.283 184.022C223.354 183.467 224.971 181.85 225.526 179.779L233.375 150.487C233.544 149.855 233.607 149.21 233.569 148.575L203.551 156.669C202.4 156.979 201.22 157.053 200.075 156.907L190.652 192.071ZM211.793 121.834C209.772 119.813 206.826 119.024 204.065 119.763L174.773 127.612C172.013 128.352 169.856 130.508 169.116 133.269L161.268 162.561C160.528 165.322 161.317 168.268 163.338 170.289L184.781 191.732C186.802 193.753 189.748 194.542 192.509 193.802L221.801 185.954C224.562 185.214 226.718 183.058 227.458 180.297L235.307 151.005C236.046 148.244 235.257 145.298 233.236 143.277L211.793 121.834Z" fill="white"/>
<path fill-rule="evenodd" clip-rule="evenodd" d="M328.922 170.709L307.479 149.266C305.963 147.75 303.754 147.158 301.684 147.713L272.391 155.562C271.553 155.787 270.788 156.186 270.138 156.719L293.468 179.053C295.238 180.748 297.765 181.393 300.131 180.755L330.218 172.643C329.921 171.931 329.486 171.273 328.922 170.709ZM268.149 159.805C268.3 159.242 268.529 158.713 268.824 158.229L292.085 180.498C293.001 181.375 294.076 182.034 295.231 182.454L285.754 217.821C284.842 217.537 283.995 217.035 283.296 216.336L261.853 194.892C260.337 193.376 259.745 191.167 260.3 189.097L268.149 159.805ZM287.753 218.089C288.2 218.073 288.649 218.007 289.092 217.888L318.384 210.04C320.454 209.485 322.072 207.868 322.627 205.797L330.475 176.505C330.645 175.873 330.707 175.228 330.669 174.593L300.651 182.686C299.501 182.997 298.321 183.071 297.175 182.925L287.753 218.089ZM308.893 147.852C306.872 145.831 303.927 145.042 301.166 145.781L271.874 153.63C269.113 154.37 266.957 156.526 266.217 159.287L258.368 188.579C257.628 191.34 258.418 194.285 260.439 196.306L281.882 217.75C283.903 219.771 286.849 220.56 289.609 219.82L318.902 211.972C321.662 211.232 323.819 209.075 324.558 206.315L332.407 177.023C333.147 174.262 332.358 171.316 330.337 169.295L308.893 147.852Z" fill="white"/>
<path fill-rule="evenodd" clip-rule="evenodd" d="M426.022 196.727L404.579 175.284C403.063 173.768 400.854 173.176 398.783 173.731L369.491 181.58C368.652 181.805 367.888 182.204 367.238 182.737L390.567 205.071C392.337 206.765 394.864 207.411 397.23 206.773L427.318 198.661C427.021 197.949 426.585 197.29 426.022 196.727ZM365.248 185.823C365.399 185.26 365.628 184.731 365.924 184.247L389.184 206.516C390.101 207.393 391.175 208.052 392.33 208.472L382.854 243.839C381.941 243.555 381.095 243.053 380.396 242.353L358.953 220.91C357.437 219.394 356.845 217.185 357.4 215.115L365.248 185.823ZM384.853 244.107C385.3 244.091 385.749 244.025 386.191 243.906L415.483 236.058C417.554 235.503 419.171 233.886 419.726 231.815L427.575 202.523C427.744 201.891 427.807 201.246 427.769 200.611L397.751 208.704C396.601 209.014 395.421 209.089 394.275 208.943L384.853 244.107ZM405.993 173.87C403.972 171.849 401.026 171.059 398.266 171.799L368.973 179.648C366.213 180.388 364.056 182.544 363.317 185.305L355.468 214.597C354.728 217.358 355.517 220.303 357.538 222.324L378.982 243.768C381.003 245.789 383.948 246.578 386.709 245.838L416.001 237.989C418.762 237.25 420.918 235.093 421.658 232.333L429.507 203.04C430.247 200.28 429.457 197.334 427.436 195.313L405.993 173.87Z" fill="white"/>
<path fill-rule="evenodd" clip-rule="evenodd" d="M86.7632 297.66L65.3199 276.217C63.8042 274.701 61.5949 274.109 59.5244 274.664L30.2323 282.512C29.3931 282.737 28.6283 283.137 27.9786 283.67L51.3078 306.004C53.0777 307.699 55.6049 308.344 57.9707 307.706L88.0589 299.594C87.7622 298.882 87.3265 298.223 86.7632 297.66ZM25.9896 286.755C26.1403 286.193 26.3693 285.664 26.6645 285.181L49.9247 307.449C50.8412 308.326 51.9155 308.985 53.0707 309.405L43.5943 344.772C42.6822 344.487 41.8359 343.985 41.1371 343.286L19.6938 321.843C18.178 320.327 17.586 318.118 18.1409 316.047L25.9896 286.755ZM45.593 345.04C46.0404 345.024 46.4897 344.958 46.9326 344.839L76.2247 336.99C78.2953 336.435 79.9125 334.818 80.4673 332.748L88.3161 303.455C88.4855 302.823 88.548 302.178 88.51 301.544L58.4913 309.637C57.3409 309.948 56.1609 310.022 55.015 309.876L45.593 345.04ZM66.7341 274.802C64.7131 272.781 61.7675 271.992 59.0067 272.732L29.7146 280.581C26.9539 281.32 24.7975 283.477 24.0578 286.237L16.209 315.53C15.4693 318.29 16.2586 321.236 18.2796 323.257L39.7228 344.7C41.7438 346.721 44.6895 347.511 47.4503 346.771L76.7423 338.922C79.5031 338.182 81.6595 336.026 82.3992 333.265L90.248 303.973C90.9877 301.212 90.1984 298.267 88.1774 296.246L66.7341 274.802Z" fill="white"/>
<path fill-rule="evenodd" clip-rule="evenodd" d="M183.863 323.678L162.42 302.234C160.904 300.719 158.695 300.127 156.624 300.682L127.332 308.53C126.493 308.755 125.728 309.155 125.078 309.688L148.407 332.022C150.177 333.716 152.704 334.362 155.07 333.724L185.158 325.612C184.862 324.9 184.426 324.241 183.863 323.678ZM123.089 312.773C123.24 312.211 123.469 311.682 123.764 311.199L147.024 333.467C147.941 334.344 149.016 335.003 150.171 335.423L140.695 370.79C139.782 370.505 138.936 370.003 138.237 369.304L116.793 347.861C115.278 346.345 114.686 344.136 115.24 342.065L123.089 312.773ZM142.693 371.058C143.141 371.042 143.59 370.975 144.032 370.857L173.324 363.008C175.395 362.453 177.012 360.836 177.567 358.765L185.416 329.473C185.585 328.841 185.648 328.196 185.61 327.562L155.591 335.655C154.441 335.965 153.261 336.039 152.115 335.894L142.693 371.058ZM163.834 300.82C161.813 298.799 158.867 298.01 156.106 298.75L126.814 306.598C124.054 307.338 121.897 309.495 121.157 312.255L113.309 341.547C112.569 344.308 113.358 347.254 115.379 349.275L136.822 370.718C138.843 372.739 141.789 373.528 144.55 372.789L173.842 364.94C176.603 364.2 178.759 362.044 179.499 359.283L187.348 329.991C188.087 327.23 187.298 324.285 185.277 322.264L163.834 300.82Z" fill="white"/>
<path fill-rule="evenodd" clip-rule="evenodd" d="M280.963 349.695L259.52 328.252C258.004 326.736 255.795 326.144 253.725 326.699L224.432 334.548C223.594 334.773 222.829 335.172 222.179 335.705L245.509 358.039C247.279 359.734 249.806 360.379 252.172 359.741L282.259 351.63C281.962 350.918 281.527 350.259 280.963 349.695ZM220.19 338.791C220.341 338.228 220.57 337.699 220.865 337.216L244.126 359.484C245.042 360.361 246.117 361.02 247.272 361.44L237.795 396.807C236.883 396.523 236.036 396.021 235.337 395.322L213.894 373.878C212.378 372.363 211.786 370.153 212.341 368.083L220.19 338.791ZM239.794 397.075C240.241 397.059 240.69 396.993 241.133 396.875L270.425 389.026C272.495 388.471 274.113 386.854 274.668 384.783L282.516 355.491C282.686 354.859 282.748 354.214 282.71 353.579L252.692 361.672C251.542 361.983 250.362 362.057 249.216 361.911L239.794 397.075ZM260.934 326.838C258.913 324.817 255.968 324.028 253.207 324.767L223.915 332.616C221.154 333.356 218.998 335.512 218.258 338.273L210.409 367.565C209.669 370.326 210.459 373.272 212.48 375.293L233.923 396.736C235.944 398.757 238.89 399.546 241.65 398.806L270.943 390.958C273.703 390.218 275.86 388.061 276.599 385.301L284.448 356.009C285.188 353.248 284.399 350.302 282.378 348.281L260.934 326.838Z" fill="white"/>
<path fill-rule="evenodd" clip-rule="evenodd" d="M378.063 375.713L356.62 354.27C355.104 352.754 352.895 352.162 350.824 352.717L321.532 360.566C320.693 360.791 319.929 361.19 319.279 361.723L342.608 384.057C344.378 385.752 346.905 386.397 349.271 385.759L379.359 377.648C379.062 376.936 378.626 376.277 378.063 375.713ZM317.289 364.809C317.44 364.246 317.669 363.717 317.965 363.234L341.225 385.502C342.142 386.379 343.216 387.038 344.371 387.458L334.895 422.825C333.982 422.541 333.136 422.039 332.437 421.34L310.994 399.896C309.478 398.381 308.886 396.171 309.441 394.101L317.289 364.809ZM336.894 423.093C337.341 423.077 337.79 423.011 338.232 422.893L367.525 415.044C369.595 414.489 371.212 412.872 371.767 410.801L379.616 381.509C379.785 380.877 379.848 380.232 379.81 379.597L349.792 387.691C348.642 388.001 347.462 388.075 346.316 387.929L336.894 423.093ZM358.034 352.856C356.013 350.835 353.067 350.046 350.307 350.785L321.014 358.634C318.254 359.374 316.097 361.53 315.358 364.291L307.509 393.583C306.769 396.344 307.558 399.29 309.579 401.311L331.023 422.754C333.044 424.775 335.989 425.564 338.75 424.824L368.042 416.976C370.803 416.236 372.959 414.08 373.699 411.319L381.548 382.027C382.288 379.266 381.498 376.32 379.477 374.299L358.034 352.856Z" fill="white"/>
<path fill-rule="evenodd" clip-rule="evenodd" d="M61.939 195.09L40.4957 173.646C38.9799 172.131 36.7707 171.539 34.7001 172.093L5.40806 179.942C4.56886 180.167 3.80411 180.566 3.15438 181.1L26.4835 203.434C28.2535 205.128 30.7806 205.774 33.1465 205.136L63.2346 197.024C62.938 196.312 62.5023 195.653 61.939 195.09ZM1.16542 184.185C1.31608 183.623 1.54509 183.094 1.84024 182.61L25.1005 204.878C26.0169 205.756 27.0913 206.415 28.2464 206.835L18.77 242.201C17.8579 241.917 17.0117 241.415 16.3128 240.716L-5.13045 219.272C-6.6462 217.757 -7.23817 215.547 -6.68337 213.477L1.16542 184.185ZM20.7687 242.469C21.2162 242.454 21.6655 242.387 22.1084 242.269L51.4005 234.42C53.471 233.865 55.0883 232.248 55.6431 230.177L63.4919 200.885C63.6613 200.253 63.7238 199.608 63.6857 198.974L33.6671 207.067C32.5167 207.377 31.3366 207.451 30.1908 207.306L20.7687 242.469ZM41.9099 172.232C39.8889 170.211 36.9432 169.422 34.1825 170.162L4.89042 178.01C2.12969 178.75 -0.0266938 180.906 -0.766432 183.667L-8.61522 212.959C-9.35496 215.72 -8.56567 218.666 -6.54467 220.687L14.8986 242.13C16.9196 244.151 19.8653 244.94 22.626 244.201L51.9181 236.352C54.6789 235.612 56.8352 233.456 57.575 230.695L65.4238 201.403C66.1635 198.642 65.3742 195.696 63.3532 193.675L41.9099 172.232Z" fill="white"/>
<path fill-rule="evenodd" clip-rule="evenodd" d="M159.039 221.107L137.595 199.664C136.08 198.148 133.87 197.556 131.8 198.111L102.508 205.96C101.669 206.185 100.904 206.584 100.254 207.117L123.583 229.451C125.353 231.145 127.88 231.791 130.246 231.153L160.334 223.041C160.037 222.329 159.602 221.67 159.039 221.107ZM98.265 210.203C98.4157 209.64 98.6448 209.111 98.94 208.628L122.2 230.896C123.116 231.773 124.191 232.432 125.346 232.852L115.87 268.219C114.958 267.935 114.111 267.432 113.412 266.734L91.9692 245.29C90.4534 243.775 89.8614 241.565 90.4162 239.495L98.265 210.203ZM117.868 268.487C118.316 268.471 118.765 268.405 119.208 268.287L148.5 260.438C150.571 259.883 152.188 258.266 152.743 256.195L160.592 226.903C160.761 226.271 160.823 225.625 160.785 224.991L130.766 233.084C129.616 233.394 128.436 233.468 127.291 233.323L117.868 268.487ZM139.01 198.25C136.989 196.229 134.043 195.44 131.282 196.179L101.99 204.028C99.2293 204.768 97.0729 206.924 96.3332 209.685L88.4844 238.977C87.7447 241.738 88.5339 244.684 90.5549 246.705L111.998 268.148C114.019 270.169 116.965 270.958 119.726 270.218L149.018 262.37C151.778 261.63 153.935 259.473 154.675 256.713L162.523 227.421C163.263 224.66 162.474 221.714 160.453 219.693L139.01 198.25Z" fill="white"/>
<path fill-rule="evenodd" clip-rule="evenodd" d="M256.138 247.125L234.695 225.682C233.179 224.166 230.97 223.574 228.899 224.129L199.607 231.978C198.768 232.203 198.004 232.602 197.354 233.135L220.684 255.469C222.453 257.163 224.981 257.809 227.346 257.171L257.434 249.059C257.137 248.347 256.701 247.688 256.138 247.125ZM195.365 236.22C195.515 235.658 195.745 235.129 196.04 234.645L219.3 256.914C220.217 257.791 221.291 258.45 222.447 258.87L212.97 294.237C212.058 293.953 211.211 293.45 210.512 292.751L189.069 271.308C187.553 269.792 186.961 267.583 187.516 265.513L195.365 236.22ZM214.969 294.505C215.416 294.489 215.865 294.423 216.308 294.304L245.6 286.456C247.67 285.901 249.288 284.283 249.842 282.213L257.691 252.921C257.861 252.289 257.923 251.643 257.885 251.009L227.867 259.102C226.717 259.412 225.537 259.487 224.391 259.341L214.969 294.505ZM236.109 224.268C234.088 222.247 231.142 221.457 228.382 222.197L199.09 230.046C196.329 230.786 194.173 232.942 193.433 235.703L185.584 264.995C184.844 267.756 185.634 270.701 187.655 272.722L209.098 294.166C211.119 296.187 214.065 296.976 216.825 296.236L246.117 288.387C248.878 287.648 251.034 285.491 251.774 282.731L259.623 253.438C260.363 250.678 259.573 247.732 257.552 245.711L236.109 224.268Z" fill="white"/>
<path fill-rule="evenodd" clip-rule="evenodd" d="M353.239 273.143L331.796 251.7C330.28 250.184 328.071 249.592 326 250.147L296.708 257.996C295.869 258.221 295.104 258.62 294.455 259.153L317.784 281.487C319.554 283.181 322.081 283.827 324.447 283.189L354.534 275.077C354.238 274.365 353.802 273.706 353.239 273.143ZM292.465 262.238C292.616 261.676 292.845 261.147 293.141 260.663L316.401 282.932C317.318 283.809 318.392 284.468 319.547 284.888L310.071 320.255C309.158 319.971 308.312 319.468 307.613 318.769L286.169 297.326C284.654 295.81 284.062 293.601 284.616 291.53L292.465 262.238ZM312.069 320.523C312.517 320.507 312.966 320.441 313.408 320.322L342.7 312.473C344.771 311.919 346.388 310.301 346.943 308.231L354.792 278.939C354.961 278.307 355.024 277.661 354.986 277.027L324.968 285.12C323.817 285.43 322.637 285.504 321.492 285.359L312.069 320.523ZM333.21 250.286C331.189 248.265 328.243 247.475 325.482 248.215L296.19 256.064C293.429 256.804 291.273 258.96 290.533 261.721L282.685 291.013C281.945 293.774 282.734 296.719 284.755 298.74L306.198 320.184C308.219 322.205 311.165 322.994 313.926 322.254L343.218 314.405C345.979 313.666 348.135 311.509 348.875 308.748L356.724 279.456C357.463 276.696 356.674 273.75 354.653 271.729L333.21 250.286Z" fill="white"/>
<path fill-rule="evenodd" clip-rule="evenodd" d="M450.338 299.161L428.895 277.718C427.379 276.202 425.17 275.61 423.1 276.165L393.807 284.014C392.969 284.238 392.204 284.638 391.554 285.171L414.884 307.505C416.654 309.199 419.181 309.845 421.547 309.207L451.634 301.095C451.337 300.383 450.902 299.724 450.338 299.161ZM389.565 288.256C389.716 287.694 389.945 287.165 390.24 286.681L413.501 308.949C414.417 309.827 415.492 310.486 416.647 310.906L407.17 346.273C406.258 345.989 405.411 345.486 404.712 344.787L383.269 323.344C381.753 321.828 381.161 319.619 381.716 317.548L389.565 288.256ZM409.169 346.541C409.616 346.525 410.065 346.459 410.508 346.34L439.8 338.491C441.87 337.937 443.488 336.319 444.043 334.249L451.891 304.957C452.061 304.324 452.123 303.679 452.085 303.045L422.067 311.138C420.917 311.448 419.737 311.522 418.591 311.377L409.169 346.541ZM430.309 276.303C428.288 274.282 425.343 273.493 422.582 274.233L393.29 282.082C390.529 282.821 388.373 284.978 387.633 287.739L379.784 317.031C379.044 319.791 379.834 322.737 381.855 324.758L403.298 346.201C405.319 348.222 408.265 349.012 411.025 348.272L440.318 340.423C443.078 339.683 445.235 337.527 445.974 334.766L453.823 305.474C454.563 302.713 453.774 299.768 451.753 297.747L430.309 276.303Z" fill="white"/>
<path fill-rule="evenodd" clip-rule="evenodd" d="M109.898 16.103L88.4547 -5.34029C86.9389 -6.85604 84.7297 -7.44801 82.6591 -6.89321L53.367 0.955587C52.5278 1.18045 51.7631 1.57986 51.1134 2.11324L74.4425 24.4472C76.2125 26.1417 78.7396 26.7873 81.1054 26.1495L111.194 18.0374C110.897 17.3253 110.461 16.6663 109.898 16.103ZM49.1244 5.19823C49.2751 4.63597 49.5041 4.10713 49.7992 3.62392L73.0594 25.8919C73.9759 26.7693 75.0503 27.428 76.2054 27.8482L66.729 63.2148C65.8169 62.9305 64.9707 62.428 64.2718 61.7292L42.8285 40.2859C41.3128 38.7701 40.7208 36.5609 41.2756 34.4903L49.1244 5.19823ZM68.7277 63.4829C69.1752 63.467 69.6245 63.4008 70.0674 63.2821L99.3595 55.4333C101.43 54.8785 103.047 53.2612 103.602 51.1907L111.451 21.8986C111.62 21.2665 111.683 20.6215 111.645 19.9872L81.6261 28.0805C80.4757 28.3907 79.2956 28.4648 78.1498 28.3192L68.7277 63.4829ZM89.8689 -6.7545C87.8479 -8.77551 84.9022 -9.5648 82.1415 -8.82506L52.8494 -0.976266C50.0887 -0.236528 47.9323 1.91985 47.1926 4.6806L39.3438 33.9727C38.604 36.7334 39.3933 39.6791 41.4143 41.7001L62.8576 63.1434C64.8786 65.1644 67.8243 65.9537 70.585 65.214L99.8771 57.3652C102.638 56.6254 104.794 54.4691 105.534 51.7083L113.383 22.4162C114.122 19.6555 113.333 16.7098 111.312 14.6888L89.8689 -6.7545Z" fill="white"/>
<path fill-rule="evenodd" clip-rule="evenodd" d="M206.998 42.1208L185.554 20.6775C184.039 19.1618 181.829 18.5698 179.759 19.1246L150.467 26.9734C149.628 27.1982 148.863 27.5974 148.214 28.1305L171.543 50.4646C173.313 52.159 175.84 52.8047 178.206 52.1668L208.293 44.055C207.996 43.343 207.561 42.684 206.998 42.1208ZM146.224 31.2161C146.375 30.6535 146.604 30.1244 146.899 29.641L170.16 51.9093C171.076 52.7867 172.151 53.4454 173.306 53.8656L163.829 89.2328C162.917 88.9486 162.07 88.4461 161.371 87.747L139.928 66.3037C138.412 64.788 137.82 62.5787 138.375 60.5082L146.224 31.2161ZM165.828 89.5007C166.275 89.4847 166.724 89.4186 167.167 89.2999L196.459 81.4511C198.53 80.8963 200.147 79.2791 200.702 77.2085L208.551 47.9164C208.72 47.2842 208.782 46.6391 208.744 46.0047L178.726 54.0979C177.576 54.408 176.396 54.4822 175.25 54.3366L165.828 89.5007ZM186.969 19.2633C184.948 17.2423 182.002 16.453 179.241 17.1928L149.949 25.0416C147.188 25.7813 145.032 27.9377 144.292 30.6984L136.443 59.9905C135.704 62.7513 136.493 65.6969 138.514 67.7179L159.957 89.1612C161.978 91.1822 164.924 91.9715 167.685 91.2318L196.977 83.383C199.737 82.6433 201.894 80.4869 202.634 77.7261L210.482 48.434C211.222 45.6733 210.433 42.7276 208.412 40.7066L186.969 19.2633Z" fill="white"/>
<path fill-rule="evenodd" clip-rule="evenodd" d="M304.097 68.1387L282.654 46.6954C281.138 45.1796 278.929 44.5876 276.858 45.1424L247.566 52.9912C246.727 53.216 245.963 53.6152 245.313 54.1483L268.642 76.4824C270.412 78.1769 272.94 78.8225 275.305 78.1846L305.393 70.0728C305.096 69.3608 304.66 68.7019 304.097 68.1387ZM243.324 57.2339C243.474 56.6713 243.704 56.1422 243.999 55.6588L267.259 77.9271C268.176 78.8045 269.25 79.4632 270.406 79.8835L260.929 115.251C260.017 114.966 259.17 114.464 258.471 113.765L237.028 92.3215C235.512 90.8058 234.92 88.5965 235.475 86.526L243.324 57.2339ZM262.928 115.519C263.375 115.503 263.824 115.436 264.267 115.318L293.559 107.469C295.629 106.914 297.247 105.297 297.801 103.226L305.65 73.9342C305.82 73.302 305.882 72.6569 305.844 72.0225L275.826 80.1157C274.676 80.4258 273.496 80.5 272.35 80.3544L262.928 115.519ZM284.068 45.2811C282.047 43.2601 279.101 42.4708 276.341 43.2106L247.049 51.0594C244.288 51.7991 242.132 53.9555 241.392 56.7162L233.543 86.0083C232.803 88.7691 233.593 91.7148 235.614 93.7358L257.057 115.179C259.078 117.2 262.023 117.989 264.784 117.25L294.076 109.401C296.837 108.661 298.993 106.505 299.733 103.744L307.582 74.4519C308.322 71.6911 307.532 68.7455 305.511 66.7244L284.068 45.2811Z" fill="white"/>
<path fill-rule="evenodd" clip-rule="evenodd" d="M401.198 94.1565L379.754 72.7132C378.239 71.1974 376.029 70.6055 373.959 71.1603L344.667 79.0091C343.828 79.2338 343.063 79.633 342.414 80.1661L365.743 102.5C367.513 104.195 370.04 104.84 372.406 104.202L402.493 96.0906C402.197 95.3786 401.761 94.7197 401.198 94.1565ZM340.424 83.2517C340.575 82.6891 340.804 82.16 341.1 81.6766L364.36 103.945C365.277 104.822 366.351 105.481 367.506 105.901L358.03 141.268C357.117 140.984 356.271 140.482 355.572 139.783L334.128 118.339C332.613 116.824 332.021 114.614 332.575 112.544L340.424 83.2517ZM360.028 141.536C360.476 141.52 360.925 141.454 361.367 141.336L390.659 133.487C392.73 132.932 394.347 131.315 394.902 129.244L402.751 99.952C402.92 99.3199 402.983 98.6747 402.945 98.0404L372.927 106.134C371.776 106.444 370.596 106.518 369.451 106.372L360.028 141.536ZM381.169 71.299C379.148 69.278 376.202 68.4887 373.441 69.2284L344.149 77.0772C341.388 77.8169 339.232 79.9733 338.492 82.7341L330.644 112.026C329.904 114.787 330.693 117.733 332.714 119.754L354.157 141.197C356.178 143.218 359.124 144.007 361.885 143.267L391.177 135.419C393.938 134.679 396.094 132.523 396.834 129.762L404.683 100.47C405.422 97.7089 404.633 94.7633 402.612 92.7423L381.169 71.299Z" fill="white"/>
</g>
</g>
<path fill-rule="evenodd" clip-rule="evenodd" d="M231.883 144.497L210.44 123.054C208.924 121.538 206.715 120.946 204.644 121.501L175.352 129.35C173.282 129.904 171.665 131.522 171.11 133.592L163.261 162.884C162.706 164.955 163.298 167.164 164.814 168.68L186.257 190.123C187.773 191.639 189.982 192.231 192.053 191.676L221.345 183.827C223.415 183.273 225.033 181.655 225.587 179.585L233.436 150.293C233.991 148.222 233.399 146.013 231.883 144.497ZM211.854 121.64C209.833 119.619 206.888 118.829 204.127 119.569L174.835 127.418C172.074 128.158 169.918 130.314 169.178 133.075L161.329 162.367C160.589 165.127 161.379 168.073 163.4 170.094L184.843 191.537C186.864 193.558 189.81 194.348 192.57 193.608L221.862 185.759C224.623 185.019 226.78 182.863 227.519 180.102L235.368 150.81C236.108 148.05 235.319 145.104 233.298 143.083L211.854 121.64Z" fill="#33B3AE"/>
<path fill-rule="evenodd" clip-rule="evenodd" d="M195.046 154.285L170.678 130.957L172.061 129.513L196.429 152.841C198.199 154.535 200.726 155.181 203.092 154.543L234.165 146.165L234.686 148.096L203.612 156.474C200.57 157.294 197.321 156.464 195.046 154.285Z" fill="#33B3AE"/>
<path d="M209.732 180.458L201.379 173.718L204.294 170.404L209.622 174.703L222.644 157.816L225.66 159.802L209.732 180.458Z" fill="#33B3AE"/>
<path fill-rule="evenodd" clip-rule="evenodd" d="M188.458 192.568L198.52 155.016L200.452 155.533L190.39 193.085L188.458 192.568Z" fill="#33B3AE"/>
<path d="M301.124 146.305C303.713 145.612 306.474 146.352 308.369 148.247L329.812 169.69C331.707 171.585 332.447 174.346 331.753 176.934L323.905 206.226C323.211 208.815 321.189 210.836 318.601 211.53L289.309 219.379C286.721 220.072 283.959 219.332 282.065 217.437L260.621 195.994C258.727 194.099 257.987 191.338 258.68 188.75L266.529 159.458C267.223 156.869 269.244 154.848 271.832 154.154L301.124 146.305Z" fill="#18F0E7" fill-opacity="0.3" stroke="url(#paint5_linear_3100_10204)"/>
<path fill-rule="evenodd" clip-rule="evenodd" d="M256.418 247.366L234.975 225.923C233.459 224.407 231.25 223.815 229.18 224.37L199.888 232.219C197.817 232.774 196.2 234.391 195.645 236.461L187.796 265.754C187.241 267.824 187.833 270.033 189.349 271.549L210.792 292.992C212.308 294.508 214.517 295.1 216.588 294.545L245.88 286.697C247.951 286.142 249.568 284.524 250.123 282.454L257.971 253.162C258.526 251.091 257.934 248.882 256.418 247.366ZM236.389 224.509C234.368 222.488 231.423 221.698 228.662 222.438L199.37 230.287C196.609 231.027 194.453 233.183 193.713 235.944L185.864 265.236C185.125 267.997 185.914 270.942 187.935 272.963L209.378 294.407C211.399 296.428 214.345 297.217 217.106 296.477L246.398 288.628C249.158 287.889 251.315 285.732 252.054 282.972L259.903 253.679C260.643 250.919 259.854 247.973 257.833 245.952L236.389 224.509Z" fill="#33B3AE"/>
<path fill-rule="evenodd" clip-rule="evenodd" d="M219.581 257.155L195.213 233.826L196.596 232.382L220.964 255.71C222.734 257.404 225.261 258.05 227.627 257.412L258.7 249.034L259.221 250.965L228.147 259.343C225.106 260.163 221.856 259.333 219.581 257.155Z" fill="#33B3AE"/>
<path fill-rule="evenodd" clip-rule="evenodd" d="M212.993 295.437L223.055 257.885L224.987 258.402L214.925 295.955L212.993 295.437Z" fill="#33B3AE"/>
<path d="M234.267 283.792L225.914 277.053L228.829 273.738L234.157 278.037L247.179 261.151L250.195 263.136L234.267 283.792Z" fill="#33B3AE"/>
<path fill-rule="evenodd" clip-rule="evenodd" d="M378.282 375.337L356.838 353.893C355.323 352.378 353.113 351.786 351.043 352.34L321.751 360.189C319.68 360.744 318.063 362.361 317.508 364.432L309.659 393.724C309.105 395.795 309.697 398.004 311.212 399.52L332.656 420.963C334.171 422.479 336.381 423.071 338.451 422.516L367.743 414.667C369.814 414.112 371.431 412.495 371.986 410.424L379.835 381.132C380.389 379.062 379.798 376.852 378.282 375.337ZM358.253 352.479C356.232 350.458 353.286 349.669 350.525 350.409L321.233 358.257C318.472 358.997 316.316 361.153 315.576 363.914L307.728 393.206C306.988 395.967 307.777 398.913 309.798 400.934L331.241 422.377C333.262 424.398 336.208 425.187 338.969 424.448L368.261 416.599C371.022 415.859 373.178 413.703 373.918 410.942L381.767 381.65C382.506 378.889 381.717 375.943 379.696 373.922L358.253 352.479Z" fill="#33B3AE"/>
<path fill-rule="evenodd" clip-rule="evenodd" d="M341.444 385.125L317.076 361.797L318.46 360.352L342.827 383.68C344.597 385.375 347.124 386.02 349.49 385.383L380.564 377.005L381.084 378.936L350.011 387.314C346.969 388.134 343.72 387.304 341.444 385.125Z" fill="#33B3AE"/>
<path d="M356.342 412.813L347.99 406.074L350.904 402.759L356.233 407.058L369.255 390.172L372.27 392.157L356.342 412.813Z" fill="#33B3AE"/>
<path fill-rule="evenodd" clip-rule="evenodd" d="M334.857 423.407L344.919 385.855L346.851 386.373L336.788 423.925L334.857 423.407Z" fill="#33B3AE"/>
<path fill-rule="evenodd" clip-rule="evenodd" d="M158.946 221.224L137.503 199.78C135.987 198.265 133.778 197.673 131.707 198.227L102.415 206.076C100.344 206.631 98.7271 208.248 98.1723 210.319L90.3235 239.611C89.7687 241.681 90.3606 243.891 91.8764 245.406L113.32 266.85C114.835 268.366 117.045 268.958 119.115 268.403L148.407 260.554C150.478 259.999 152.095 258.382 152.65 256.311L160.499 227.019C161.054 224.949 160.462 222.739 158.946 221.224ZM138.917 198.366C136.896 196.345 133.95 195.556 131.189 196.296L101.897 204.144C99.1365 204.884 96.9801 207.04 96.2404 209.801L88.3916 239.093C87.6519 241.854 88.4412 244.8 90.4622 246.821L111.905 268.264C113.926 270.285 116.872 271.074 119.633 270.335L148.925 262.486C151.686 261.746 153.842 259.59 154.582 256.829L162.431 227.537C163.17 224.776 162.381 221.83 160.36 219.809L138.917 198.366Z" fill="#33B3AE"/>
<path fill-rule="evenodd" clip-rule="evenodd" d="M122.108 231.012L97.7405 207.684L99.1236 206.239L123.491 229.567C125.261 231.262 127.788 231.907 130.154 231.27L161.228 222.892L161.748 224.823L130.675 233.201C127.633 234.021 124.384 233.191 122.108 231.012Z" fill="#33B3AE"/>
<path fill-rule="evenodd" clip-rule="evenodd" d="M115.521 269.294L125.583 231.742L127.515 232.26L117.453 269.812L115.521 269.294Z" fill="#33B3AE"/>
<path d="M136.794 257.073L128.442 250.334L131.357 247.019L136.685 251.318L149.707 234.432L152.723 236.417L136.794 257.073Z" fill="#33B3AE"/>
<path fill-rule="evenodd" clip-rule="evenodd" d="M207.101 41.9703L185.658 20.527C184.142 19.0113 181.933 18.4193 179.862 18.9741L150.57 26.8229C148.5 27.3777 146.882 28.995 146.328 31.0655L138.479 60.3576C137.924 62.4282 138.516 64.6375 140.032 66.1532L161.475 87.5965C162.991 89.1123 165.2 89.7042 167.271 89.1494L196.563 81.3006C198.633 80.7458 200.25 79.1285 200.805 77.058L208.654 47.7659C209.209 45.6953 208.617 43.4861 207.101 41.9703ZM187.072 19.1128C185.051 17.0918 182.105 16.3025 179.345 17.0423L150.053 24.891C147.292 25.6308 145.135 27.7872 144.396 30.5479L136.547 59.84C135.807 62.6007 136.596 65.5464 138.617 67.5674L160.061 89.0107C162.082 91.0317 165.027 91.821 167.788 91.0813L197.08 83.2325C199.841 82.4927 201.997 80.3364 202.737 77.5756L210.586 48.2835C211.326 45.5228 210.536 42.5771 208.515 40.5561L187.072 19.1128Z" fill="#33B3AE"/>
<path fill-rule="evenodd" clip-rule="evenodd" d="M170.263 51.7587L145.896 28.4306L147.279 26.9859L171.646 50.314C173.416 52.0085 175.944 52.6541 178.309 52.0163L209.383 43.6385L209.904 45.5696L178.83 53.9473C175.788 54.7674 172.539 53.9373 170.263 51.7587Z" fill="#33B3AE"/>
<path d="M184.456 78.5583L176.104 71.8189L179.019 68.5044L184.347 72.8035L197.369 55.917L200.385 57.9024L184.456 78.5583Z" fill="#33B3AE"/>
<path fill-rule="evenodd" clip-rule="evenodd" d="M163.676 90.0411L173.738 52.4888L175.67 53.0065L165.608 90.5588L163.676 90.0411Z" fill="#33B3AE"/>
<path fill-rule="evenodd" clip-rule="evenodd" d="M328.751 170.751L307.308 149.308C305.792 147.792 303.583 147.2 301.513 147.755L272.221 155.604C270.15 156.158 268.533 157.776 267.978 159.846L260.129 189.138C259.574 191.209 260.166 193.418 261.682 194.934L283.125 216.377C284.641 217.893 286.85 218.485 288.921 217.93L318.213 210.081C320.284 209.526 321.901 207.909 322.456 205.839L330.304 176.547C330.859 174.476 330.267 172.267 328.751 170.751ZM308.722 147.893C306.701 145.872 303.756 145.083 300.995 145.823L271.703 153.672C268.942 154.411 266.786 156.568 266.046 159.329L258.197 188.621C257.458 191.381 258.247 194.327 260.268 196.348L281.711 217.791C283.732 219.812 286.678 220.602 289.439 219.862L318.731 212.013C321.491 211.273 323.648 209.117 324.387 206.356L332.236 177.064C332.976 174.303 332.187 171.358 330.166 169.337L308.722 147.893Z" fill="#33B3AE"/>
<path fill-rule="evenodd" clip-rule="evenodd" d="M291.914 180.539L267.546 157.211L268.929 155.767L293.297 179.095C295.067 180.789 297.594 181.435 299.96 180.797L331.033 172.419L331.554 174.35L300.48 182.728C297.439 183.548 294.189 182.718 291.914 180.539Z" fill="#33B3AE"/>
<path d="M307.534 204.835C307.145 205.34 306.465 205.492 306.06 205.165L299.154 199.593C298.77 199.283 298.784 198.664 299.184 198.209L300.65 196.542C301.05 196.087 301.685 195.969 302.069 196.278L305.951 199.411C306.356 199.738 307.035 199.585 307.425 199.08L319.057 183.996C319.426 183.518 320.06 183.352 320.474 183.624L321.991 184.623C322.404 184.895 322.441 185.504 322.073 185.982L307.534 204.835Z" fill="#33B3AE"/>
<path fill-rule="evenodd" clip-rule="evenodd" d="M285.326 218.822L295.388 181.269L297.32 181.787L287.258 219.339L285.326 218.822Z" fill="#33B3AE"/>
<defs>
<linearGradient id="paint0_linear_3100_10204" x1="208" y1="77.374" x2="208" y2="359.276" gradientUnits="userSpaceOnUse">
<stop stop-color="#70767C"/>
<stop offset="1" stop-color="#4B525A" stop-opacity="0.72"/>
</linearGradient>
<linearGradient id="paint1_linear_3100_10204" x1="240" y1="-93.1654" x2="240" y2="202.475" gradientUnits="userSpaceOnUse">
<stop stop-color="#7CFFEF"/>
<stop offset="1" stop-color="#0B0B0B"/>
</linearGradient>
<linearGradient id="paint2_linear_3100_10204" x1="240" y1="53.374" x2="240" y2="335.276" gradientUnits="userSpaceOnUse">
<stop stop-color="#33B3AE"/>
<stop offset="1" stop-color="#4B525A" stop-opacity="0.72"/>
</linearGradient>
<radialGradient id="paint3_radial_3100_10204" cx="0" cy="0" r="1" gradientUnits="userSpaceOnUse" gradientTransform="translate(208 208) rotate(90) scale(208)">
<stop stop-color="#D9D9D9"/>
<stop offset="1" stop-color="#737373" stop-opacity="0.07"/>
</radialGradient>
<radialGradient id="paint4_radial_3100_10204" cx="0" cy="0" r="1" gradientUnits="userSpaceOnUse" gradientTransform="translate(208 208) rotate(90) scale(208)">
<stop stop-color="#008BAA"/>
<stop offset="1" stop-color="#0D1116"/>
</radialGradient>
<linearGradient id="paint5_linear_3100_10204" x1="305.136" y1="145.823" x2="285.297" y2="219.862" gradientUnits="userSpaceOnUse">
<stop stop-color="#7EF7FF" stop-opacity="0.55"/>
<stop offset="1" stop-color="#22FF7B" stop-opacity="0"/>
</linearGradient>
</defs>
</svg>
