<svg width="120" height="120" viewBox="0 0 120 120" fill="none" xmlns="http://www.w3.org/2000/svg">
<circle opacity="0.6" cx="60" cy="60" r="60" fill="#875DFF" fill-opacity="0.12"/>
<circle cx="60" cy="60" r="40" fill="#875DFF" fill-opacity="0.12"/>
<path d="M60 26.6641C41.6 26.6641 26.6666 41.5974 26.6666 59.9974C26.6666 78.3974 41.6 93.3307 60 93.3307C78.4 93.3307 93.3333 78.3974 93.3333 59.9974C93.3333 41.5974 78.4 26.6641 60 26.6641ZM73.4333 53.9974L57.8666 69.5307C57.3999 70.0307 56.7666 70.2641 56.0999 70.2641C55.4666 70.2641 54.8333 70.0307 54.3333 69.5307L46.5666 61.7642C45.6 60.7975 45.6 59.1973 46.5666 58.2306C47.5333 57.264 49.1333 57.264 50.1 58.2306L56.0999 64.2308L69.9 50.4641C70.8666 49.4641 72.4666 49.4641 73.4333 50.4641C74.4 51.4308 74.4 52.9974 73.4333 53.9974Z" fill="white"/>
</svg>
