<svg width="120" height="120" viewBox="0 0 120 120" fill="none" xmlns="http://www.w3.org/2000/svg">
<path d="M19.0424 31.3212C24.7913 23.1109 32.875 16.8179 42.2447 13.2587C51.6143 9.69952 61.8374 9.03842 71.5874 11.3612C81.3374 13.684 90.1643 18.8834 96.9228 26.2849C103.681 33.6864 108.059 42.9482 109.489 52.8686C110.918 62.789 109.333 72.9101 104.94 81.9186C100.546 90.9271 93.5462 98.4072 84.8487 103.388C76.1512 108.369 66.1574 110.622 56.164 109.853C46.1707 109.084 36.6391 105.329 28.806 99.076L30.6776 96.7314C38.0407 102.609 47.0004 106.139 56.3942 106.861C65.7879 107.584 75.1821 105.467 83.3577 100.785C91.5334 96.1027 98.1132 89.0715 102.243 80.6035C106.373 72.1355 107.863 62.6217 106.519 53.2965C105.176 43.9713 101.06 35.2652 94.7074 28.3078C88.3545 21.3504 80.0572 16.463 70.8922 14.2795C61.7271 12.0961 52.1175 12.7175 43.31 16.0632C34.5025 19.4088 26.9038 25.3242 21.4999 33.0419L19.0424 31.3212Z" fill="white" fill-opacity="0.32"/>
<path d="M93.3333 59.9974C93.3333 66.9291 91.1723 73.6883 87.1512 79.3345C83.13 84.9806 77.4487 89.2326 70.898 91.4989C64.3472 93.7651 57.2529 93.9328 50.6024 91.9786C43.9519 90.0244 38.076 86.0454 33.7926 80.5956C29.5092 75.1458 27.0313 68.4961 26.7038 61.5722C26.3764 54.6482 28.2156 47.7944 31.9655 41.9647C35.7154 36.1349 41.1895 31.6191 47.6259 29.0459C54.0622 26.4727 61.1407 25.9701 67.8761 27.6079L67.0885 30.8469C61.0266 29.3728 54.656 29.8252 48.8633 32.1411C43.0705 34.457 38.1439 38.5211 34.7689 43.7679C31.394 49.0147 29.7387 55.1832 30.0335 61.4147C30.3282 67.6463 32.5583 73.6309 36.4133 78.5358C40.2684 83.4406 45.5567 87.0217 51.5421 88.7805C57.5276 90.5393 63.9125 90.3884 69.8082 88.3487C75.7038 86.3091 80.817 82.4823 84.4361 77.4008C88.0551 72.3193 90 66.2359 90 59.9974H93.3333Z" fill="#875DFF"/>
</svg>
