<svg width="24" height="24" viewBox="0 0 24 24" fill="none" xmlns="http://www.w3.org/2000/svg">
<path fill-rule="evenodd" clip-rule="evenodd" d="M12.7071 2.79289C12.3166 2.40237 11.6834 2.40237 11.2929 2.79289L7.58579 6.5H3C1.89543 6.5 1 7.39543 1 8.5V19.5C1 20.6046 1.89543 21.5 3 21.5H21C22.1046 21.5 23 20.6046 23 19.5V8.5C23 7.39543 22.1046 6.5 21 6.5H16.4142L12.7071 2.79289ZM13.5858 6.5L12 4.91421L10.4142 6.5H13.5858ZM8 8.5H3V19.5H21V8.5H16H8Z" fill="white" fill-opacity="0.65"/>
<path d="M6 12H15" stroke="white" stroke-opacity="0.65" stroke-width="2" stroke-linecap="round" stroke-linejoin="round"/>
<path d="M6 16H10" stroke="white" stroke-opacity="0.65" stroke-width="2" stroke-linecap="round" stroke-linejoin="round"/>
</svg>
