<svg width="24" height="24" viewBox="0 0 24 24" fill="none" xmlns="http://www.w3.org/2000/svg">
<g clip-path="url(#clip0_2097_1960)">
<path fill-rule="evenodd" clip-rule="evenodd" d="M12 24C18.6274 24 24 18.6274 24 12C24 5.37259 18.6274 0 12 0C5.37259 0 0 5.37259 0 12C0 18.6274 5.37259 24 12 24ZM11.8539 5.50386C11.4073 5.05726 10.0117 4.05855 8.75563 3.87097C8.35788 4.3524 8.52534 6.86454 9.02775 7.55539L9.03414 7.55396C8.76867 7.81622 8.50405 8.04643 8.21133 8.20401H8.6719L7.35302 9.54406C7.45769 9.55099 7.85547 9.4603 7.85547 9.4603L7.7508 9.69058C7.7508 9.69058 8.06528 10.4053 10.4896 11.7048C9.70943 12.9327 9.2177 14.0056 8.9551 14.9374C8.00752 15.1637 8.0016 16.6815 8.18961 17.8545C8.48675 17.9903 8.7943 18.1082 9.10951 18.2047C9.87023 19.6365 11.6139 20.2258 13.2472 20.2258C16.073 20.2258 19.295 16.8968 15.5402 11.6516L15.535 11.6517C17.7254 10.3838 18.0124 9.68745 18.0124 9.68745L17.9143 9.45697C17.9143 9.45697 18.2871 9.54774 18.3853 9.54077L17.1489 8.19941H17.5807C17.304 8.04046 17.0542 7.80759 16.8033 7.5425C17.2986 6.83392 17.4616 4.34942 17.0663 3.87097C15.8499 4.05259 14.5026 4.99506 14.0133 5.46C13.7225 5.39125 13.4025 5.35401 13.0471 5.35742L13.0469 5.36477C12.6003 5.36071 12.2062 5.41312 11.8539 5.50684V5.50386ZM7.40373 17.4411C6.91815 17.1504 6.47253 16.8152 6.08191 16.4554C6.09066 16.4136 6.09925 16.3704 6.10769 16.3262C6.44795 14.5428 7.60003 13.9057 8.38572 13.754C8.52677 13.9531 8.66655 14.1577 8.80583 14.3621C8.16201 14.5341 7.25907 15.6013 7.39068 17.2929C7.39467 17.3439 7.39901 17.3933 7.40373 17.4411ZM4.69649 14.6368C4.8821 15.0394 5.15307 15.4501 5.49259 15.8463C5.96361 14.802 6.86342 13.4392 7.93548 13.1498C7.69378 12.8459 7.44646 12.5734 7.19017 12.3578C6.57294 12.5593 5.40914 13.225 4.69649 14.6368ZM4.45386 13.903C4.31357 13.1676 4.52605 12.5146 5.21044 12.1049C5.71606 11.8022 6.17865 11.7976 6.61188 11.9865C5.79228 12.2207 4.92643 13.1008 4.45386 13.903Z" fill="white"/>
</g>
<defs>
<clipPath id="clip0_2097_1960">
<rect width="24" height="24" fill="white"/>
</clipPath>
</defs>
</svg>
