<svg width="60" height="60" viewBox="0 0 60 60" fill="none" xmlns="http://www.w3.org/2000/svg">
<rect width="60" height="60" rx="30" fill="black"/>
<path d="M24.4561 15C20.7286 15 17.1736 18.0225 16.5136 21.75L13.6036 38.25C12.9436 41.9775 15.4336 45 19.1611 45C22.8886 45 26.4436 41.9775 27.1036 38.25L30.0136 21.75C30.6736 18.0225 28.1836 15 24.4561 15Z" fill="#50EF8A"/>
<path d="M40.2064 15C44.3464 15 47.1139 18.36 46.3864 22.5C45.6589 26.64 41.7064 30 37.5664 30C33.4264 30 30.6589 26.64 31.3864 22.5C32.1139 18.36 36.0589 15 40.2064 15Z" fill="#FF7965"/>
<path d="M37.5586 30C41.6986 30 44.4661 33.36 43.7386 37.5C43.0111 41.64 39.0586 45 34.9186 45C30.7786 45 28.0111 41.64 28.7386 37.5C29.4661 33.36 33.4186 30 37.5586 30Z" fill="#88C2F8"/>
</svg>
