<svg width="20" height="21" viewBox="0 0 20 21" fill="none" xmlns="http://www.w3.org/2000/svg">
<path fill-rule="evenodd" clip-rule="evenodd" d="M4.69623 14.5628C4.37079 14.8882 4.37079 15.4159 4.69623 15.7413C5.02166 16.0667 5.5493 16.0667 5.87474 15.7413L9.99958 11.6165L14.1248 15.7417C14.4502 16.0671 14.9779 16.0671 15.3033 15.7417C15.6287 15.4162 15.6287 14.8886 15.3033 14.5632L11.1781 10.438L15.3028 6.31321C15.6283 5.98778 15.6283 5.46014 15.3028 5.1347C14.9774 4.80927 14.4498 4.80927 14.1243 5.1347L9.99958 9.25944L5.87521 5.13508C5.54977 4.80964 5.02214 4.80964 4.6967 5.13508C4.37126 5.46051 4.37126 5.98815 4.6967 6.31359L8.82107 10.438L4.69623 14.5628Z" fill="white" fill-opacity="0.65"/>
</svg>
