<svg width="288" height="219" viewBox="0 0 288 219" fill="none" xmlns="http://www.w3.org/2000/svg">
<rect x="0.5" y="0.5" width="287" height="218" rx="15.5" stroke="url(#paint0_linear_1874_8766)"/>
<path d="M34.0682 163.727V187H30.5455V167.25H30.4091L24.8409 170.886V167.523L30.6477 163.727H34.0682ZM48.4659 187.386C46.6705 187.379 45.1364 186.905 43.8636 185.966C42.5909 185.027 41.6174 183.659 40.9432 181.864C40.2689 180.068 39.9318 177.905 39.9318 175.375C39.9318 172.852 40.2689 170.697 40.9432 168.909C41.625 167.121 42.6023 165.758 43.875 164.818C45.1553 163.879 46.6856 163.409 48.4659 163.409C50.2462 163.409 51.7727 163.883 53.0455 164.83C54.3182 165.769 55.2917 167.133 55.9659 168.92C56.6477 170.701 56.9886 172.852 56.9886 175.375C56.9886 177.913 56.6515 180.08 55.9773 181.875C55.303 183.663 54.3295 185.03 53.0568 185.977C51.7841 186.917 50.2538 187.386 48.4659 187.386ZM48.4659 184.352C50.0417 184.352 51.2727 183.583 52.1591 182.045C53.053 180.508 53.5 178.284 53.5 175.375C53.5 173.443 53.2955 171.811 52.8864 170.477C52.4848 169.136 51.9053 168.121 51.1477 167.432C50.3977 166.735 49.5038 166.386 48.4659 166.386C46.8977 166.386 45.6667 167.159 44.7727 168.705C43.8788 170.25 43.428 172.473 43.4205 175.375C43.4205 177.314 43.6212 178.955 44.0227 180.295C44.4318 181.629 45.0114 182.64 45.7614 183.33C46.5114 184.011 47.4129 184.352 48.4659 184.352ZM69.1222 187.386C67.3267 187.379 65.7926 186.905 64.5199 185.966C63.2472 185.027 62.2737 183.659 61.5994 181.864C60.9252 180.068 60.5881 177.905 60.5881 175.375C60.5881 172.852 60.9252 170.697 61.5994 168.909C62.2813 167.121 63.2585 165.758 64.5312 164.818C65.8116 163.879 67.3419 163.409 69.1222 163.409C70.9025 163.409 72.429 163.883 73.7017 164.83C74.9744 165.769 75.9479 167.133 76.6222 168.92C77.304 170.701 77.6449 172.852 77.6449 175.375C77.6449 177.913 77.3078 180.08 76.6335 181.875C75.9593 183.663 74.9858 185.03 73.7131 185.977C72.4403 186.917 70.91 187.386 69.1222 187.386ZM69.1222 184.352C70.6979 184.352 71.929 183.583 72.8153 182.045C73.7093 180.508 74.1562 178.284 74.1562 175.375C74.1562 173.443 73.9517 171.811 73.5426 170.477C73.1411 169.136 72.5616 168.121 71.804 167.432C71.054 166.735 70.16 166.386 69.1222 166.386C67.554 166.386 66.3229 167.159 65.429 168.705C64.535 170.25 64.0843 172.473 64.0767 175.375C64.0767 177.314 64.2775 178.955 64.679 180.295C65.0881 181.629 65.6676 182.64 66.4176 183.33C67.1676 184.011 68.0691 184.352 69.1222 184.352ZM90.2273 183.727V182.807C90.2273 182.148 90.3636 181.545 90.6364 181C90.9148 180.449 91.3182 180.009 91.8466 179.679C92.3807 179.344 93.0256 179.176 93.7812 179.176C94.554 179.176 95.2017 179.341 95.7244 179.67C96.2472 180 96.642 180.44 96.9091 180.991C97.1818 181.543 97.3182 182.148 97.3182 182.807V183.727C97.3182 184.386 97.1818 184.991 96.9091 185.543C96.6364 186.088 96.2358 186.528 95.7074 186.864C95.1847 187.193 94.5426 187.358 93.7812 187.358C93.0142 187.358 92.3665 187.193 91.8381 186.864C91.3097 186.528 90.9091 186.088 90.6364 185.543C90.3636 184.991 90.2273 184.386 90.2273 183.727ZM92.2131 182.807V183.727C92.2131 184.216 92.3295 184.659 92.5625 185.057C92.7955 185.455 93.2017 185.653 93.7812 185.653C94.3551 185.653 94.7557 185.455 94.983 185.057C95.2102 184.659 95.3239 184.216 95.3239 183.727V182.807C95.3239 182.318 95.2131 181.875 94.9915 181.477C94.7756 181.08 94.3722 180.881 93.7812 180.881C93.2131 180.881 92.8097 181.08 92.571 181.477C92.3324 181.875 92.2131 182.318 92.2131 182.807ZM81.4489 173.739V172.818C81.4489 172.159 81.5852 171.554 81.858 171.003C82.1364 170.452 82.5398 170.011 83.0682 169.682C83.6023 169.352 84.2472 169.188 85.0028 169.188C85.7756 169.188 86.4233 169.352 86.946 169.682C87.4688 170.011 87.8636 170.452 88.1307 171.003C88.3977 171.554 88.5312 172.159 88.5312 172.818V173.739C88.5312 174.398 88.3949 175.003 88.1222 175.554C87.8551 176.099 87.4574 176.54 86.929 176.875C86.4063 177.205 85.7642 177.369 85.0028 177.369C84.2301 177.369 83.5795 177.205 83.0511 176.875C82.5284 176.54 82.1307 176.099 81.858 175.554C81.5852 175.003 81.4489 174.398 81.4489 173.739ZM83.4432 172.818V173.739C83.4432 174.227 83.5568 174.67 83.7841 175.068C84.017 175.466 84.4233 175.665 85.0028 175.665C85.571 175.665 85.9688 175.466 86.196 175.068C86.429 174.67 86.5455 174.227 86.5455 173.739V172.818C86.5455 172.33 86.4347 171.886 86.2131 171.489C85.9915 171.091 85.5881 170.892 85.0028 170.892C84.4347 170.892 84.0313 171.091 83.7926 171.489C83.5597 171.886 83.4432 172.33 83.4432 172.818ZM82.2585 187L94.2585 169.545H96.2955L84.2955 187H82.2585ZM105.091 187V175.364H112.386V176.875H106.847V180.42H112.006V181.926H106.847V185.489H112.455V187H105.091ZM118.357 187.176C117.497 187.176 116.756 186.992 116.135 186.625C115.518 186.254 115.04 185.733 114.703 185.062C114.37 184.388 114.203 183.598 114.203 182.693C114.203 181.799 114.37 181.011 114.703 180.33C115.04 179.648 115.51 179.116 116.112 178.733C116.718 178.35 117.427 178.159 118.237 178.159C118.73 178.159 119.207 178.241 119.669 178.403C120.131 178.566 120.546 178.822 120.913 179.17C121.281 179.519 121.571 179.972 121.783 180.528C121.995 181.081 122.101 181.754 122.101 182.545V183.148H115.163V181.875H120.436C120.436 181.428 120.345 181.032 120.163 180.688C119.982 180.339 119.726 180.064 119.396 179.864C119.071 179.663 118.688 179.562 118.249 179.562C117.771 179.562 117.355 179.68 116.999 179.915C116.646 180.146 116.374 180.449 116.18 180.824C115.991 181.195 115.896 181.598 115.896 182.034V183.028C115.896 183.612 115.999 184.108 116.203 184.517C116.411 184.926 116.701 185.239 117.072 185.455C117.444 185.667 117.877 185.773 118.374 185.773C118.696 185.773 118.989 185.727 119.254 185.636C119.519 185.542 119.749 185.402 119.942 185.216C120.135 185.03 120.283 184.801 120.385 184.528L121.993 184.818C121.864 185.292 121.633 185.706 121.3 186.062C120.97 186.415 120.555 186.689 120.055 186.886C119.559 187.08 118.993 187.176 118.357 187.176ZM126.526 187.193C125.973 187.193 125.473 187.091 125.026 186.886C124.579 186.678 124.224 186.377 123.963 185.983C123.705 185.589 123.577 185.106 123.577 184.534C123.577 184.042 123.671 183.636 123.861 183.318C124.05 183 124.306 182.748 124.628 182.562C124.95 182.377 125.31 182.237 125.707 182.142C126.105 182.047 126.51 181.975 126.923 181.926C127.446 181.866 127.87 181.816 128.196 181.778C128.522 181.737 128.759 181.67 128.906 181.58C129.054 181.489 129.128 181.341 129.128 181.136V181.097C129.128 180.6 128.988 180.216 128.707 179.943C128.431 179.67 128.018 179.534 127.469 179.534C126.897 179.534 126.446 179.661 126.116 179.915C125.791 180.165 125.565 180.443 125.44 180.75L123.844 180.386C124.033 179.856 124.31 179.428 124.673 179.102C125.041 178.773 125.463 178.534 125.94 178.386C126.418 178.235 126.92 178.159 127.446 178.159C127.795 178.159 128.164 178.201 128.554 178.284C128.948 178.364 129.315 178.511 129.656 178.727C130.001 178.943 130.283 179.252 130.503 179.653C130.723 180.051 130.832 180.568 130.832 181.205V187H129.173V185.807H129.105C128.995 186.027 128.83 186.242 128.611 186.455C128.391 186.667 128.109 186.843 127.764 186.983C127.42 187.123 127.007 187.193 126.526 187.193ZM126.895 185.83C127.365 185.83 127.766 185.737 128.099 185.551C128.437 185.366 128.692 185.123 128.866 184.824C129.045 184.521 129.134 184.197 129.134 183.852V182.727C129.073 182.788 128.955 182.845 128.781 182.898C128.611 182.947 128.416 182.991 128.196 183.028C127.976 183.062 127.762 183.095 127.554 183.125C127.346 183.152 127.171 183.174 127.031 183.193C126.702 183.235 126.401 183.305 126.128 183.403C125.859 183.502 125.643 183.644 125.48 183.83C125.321 184.011 125.241 184.254 125.241 184.557C125.241 184.977 125.397 185.295 125.707 185.511C126.018 185.723 126.414 185.83 126.895 185.83ZM133.095 187V178.273H134.737V179.659H134.828C134.987 179.189 135.268 178.82 135.669 178.551C136.074 178.278 136.533 178.142 137.044 178.142C137.15 178.142 137.275 178.146 137.419 178.153C137.567 178.161 137.682 178.17 137.766 178.182V179.807C137.697 179.788 137.576 179.767 137.402 179.744C137.228 179.718 137.054 179.705 136.879 179.705C136.478 179.705 136.12 179.79 135.805 179.96C135.495 180.127 135.249 180.36 135.067 180.659C134.885 180.955 134.794 181.292 134.794 181.67V187H133.095ZM140.935 181.818V187H139.236V178.273H140.866V179.693H140.974C141.175 179.231 141.49 178.86 141.918 178.58C142.349 178.299 142.893 178.159 143.548 178.159C144.143 178.159 144.664 178.284 145.111 178.534C145.558 178.78 145.904 179.148 146.151 179.636C146.397 180.125 146.52 180.729 146.52 181.449V187H144.821V181.653C144.821 181.021 144.656 180.527 144.327 180.17C143.997 179.811 143.545 179.631 142.969 179.631C142.575 179.631 142.224 179.716 141.918 179.886C141.615 180.057 141.374 180.307 141.196 180.636C141.022 180.962 140.935 181.356 140.935 181.818ZM152.56 187.176C151.7 187.176 150.959 186.992 150.338 186.625C149.721 186.254 149.243 185.733 148.906 185.062C148.573 184.388 148.406 183.598 148.406 182.693C148.406 181.799 148.573 181.011 148.906 180.33C149.243 179.648 149.713 179.116 150.315 178.733C150.921 178.35 151.63 178.159 152.44 178.159C152.933 178.159 153.41 178.241 153.872 178.403C154.334 178.566 154.749 178.822 155.116 179.17C155.484 179.519 155.774 179.972 155.986 180.528C156.198 181.081 156.304 181.754 156.304 182.545V183.148H149.366V181.875H154.639C154.639 181.428 154.548 181.032 154.366 180.688C154.185 180.339 153.929 180.064 153.599 179.864C153.274 179.663 152.891 179.562 152.452 179.562C151.974 179.562 151.558 179.68 151.202 179.915C150.849 180.146 150.577 180.449 150.384 180.824C150.194 181.195 150.099 181.598 150.099 182.034V183.028C150.099 183.612 150.202 184.108 150.406 184.517C150.615 184.926 150.904 185.239 151.276 185.455C151.647 185.667 152.08 185.773 152.577 185.773C152.899 185.773 153.192 185.727 153.457 185.636C153.723 185.542 153.952 185.402 154.145 185.216C154.338 185.03 154.486 184.801 154.588 184.528L156.196 184.818C156.067 185.292 155.836 185.706 155.503 186.062C155.173 186.415 154.759 186.689 154.259 186.886C153.762 187.08 153.196 187.176 152.56 187.176ZM161.456 187.17C160.751 187.17 160.123 186.991 159.57 186.631C159.02 186.267 158.589 185.75 158.274 185.08C157.964 184.405 157.808 183.597 157.808 182.653C157.808 181.71 157.965 180.903 158.28 180.233C158.598 179.562 159.034 179.049 159.587 178.693C160.14 178.337 160.767 178.159 161.467 178.159C162.009 178.159 162.445 178.25 162.774 178.432C163.107 178.61 163.365 178.818 163.547 179.057C163.732 179.295 163.876 179.506 163.979 179.688H164.081V175.364H165.78V187H164.121V185.642H163.979C163.876 185.828 163.729 186.04 163.536 186.278C163.346 186.517 163.085 186.725 162.751 186.903C162.418 187.081 161.986 187.17 161.456 187.17ZM161.831 185.722C162.32 185.722 162.732 185.593 163.07 185.335C163.411 185.074 163.668 184.712 163.842 184.25C164.02 183.788 164.109 183.25 164.109 182.636C164.109 182.03 164.022 181.5 163.848 181.045C163.674 180.591 163.418 180.237 163.081 179.983C162.744 179.729 162.327 179.602 161.831 179.602C161.32 179.602 160.893 179.735 160.553 180C160.212 180.265 159.954 180.627 159.78 181.085C159.609 181.544 159.524 182.061 159.524 182.636C159.524 183.22 159.611 183.744 159.786 184.21C159.96 184.676 160.217 185.045 160.558 185.318C160.903 185.587 161.327 185.722 161.831 185.722ZM172.933 181.182C172.933 179.758 173.121 178.447 173.496 177.25C173.871 176.053 174.418 174.949 175.138 173.938H176.695C176.414 174.312 176.153 174.773 175.911 175.318C175.668 175.864 175.456 176.462 175.274 177.114C175.092 177.761 174.95 178.434 174.848 179.131C174.746 179.824 174.695 180.508 174.695 181.182C174.695 182.083 174.784 182.996 174.962 183.92C175.14 184.845 175.38 185.703 175.683 186.494C175.986 187.286 176.323 187.932 176.695 188.432H175.138C174.418 187.42 173.871 186.316 173.496 185.119C173.121 183.922 172.933 182.61 172.933 181.182ZM181.906 185.045V177.364H183.435V185.045H181.906ZM178.832 181.966V180.443H186.514V181.966H178.832ZM193.051 187.159C192.237 187.159 191.517 187.019 190.892 186.739C190.271 186.458 189.784 186.072 189.432 185.58C189.08 185.087 188.905 184.527 188.909 183.898C188.905 183.405 189.006 182.953 189.21 182.54C189.419 182.123 189.701 181.777 190.057 181.5C190.413 181.22 190.811 181.042 191.25 180.966V180.898C190.67 180.758 190.206 180.447 189.858 179.966C189.509 179.485 189.337 178.932 189.341 178.307C189.337 177.712 189.494 177.182 189.812 176.716C190.134 176.246 190.576 175.877 191.136 175.608C191.697 175.339 192.335 175.205 193.051 175.205C193.759 175.205 194.392 175.341 194.949 175.614C195.509 175.883 195.951 176.252 196.273 176.722C196.595 177.187 196.758 177.716 196.761 178.307C196.758 178.932 196.58 179.485 196.227 179.966C195.875 180.447 195.417 180.758 194.852 180.898V180.966C195.288 181.042 195.68 181.22 196.028 181.5C196.381 181.777 196.661 182.123 196.869 182.54C197.081 182.953 197.189 183.405 197.193 183.898C197.189 184.527 197.011 185.087 196.659 185.58C196.307 186.072 195.818 186.458 195.193 186.739C194.572 187.019 193.858 187.159 193.051 187.159ZM193.051 185.722C193.532 185.722 193.949 185.642 194.301 185.483C194.653 185.32 194.926 185.095 195.119 184.807C195.313 184.515 195.411 184.174 195.415 183.784C195.411 183.379 195.305 183.021 195.097 182.71C194.892 182.4 194.614 182.155 194.261 181.977C193.909 181.799 193.506 181.71 193.051 181.71C192.593 181.71 192.186 181.799 191.83 181.977C191.473 182.155 191.193 182.4 190.989 182.71C190.784 183.021 190.684 183.379 190.688 183.784C190.684 184.174 190.777 184.515 190.966 184.807C191.159 185.095 191.434 185.32 191.79 185.483C192.146 185.642 192.566 185.722 193.051 185.722ZM193.051 180.307C193.438 180.307 193.78 180.229 194.08 180.074C194.379 179.919 194.614 179.703 194.784 179.426C194.958 179.15 195.047 178.826 195.051 178.455C195.047 178.091 194.96 177.773 194.79 177.5C194.623 177.227 194.39 177.017 194.091 176.869C193.792 176.718 193.445 176.642 193.051 176.642C192.65 176.642 192.297 176.718 191.994 176.869C191.695 177.017 191.462 177.227 191.295 177.5C191.129 177.773 191.047 178.091 191.051 178.455C191.047 178.826 191.131 179.15 191.301 179.426C191.472 179.703 191.706 179.919 192.006 180.074C192.309 180.229 192.657 180.307 193.051 180.307ZM203.28 187.193C202.382 187.189 201.615 186.953 200.979 186.483C200.342 186.013 199.856 185.33 199.518 184.432C199.181 183.534 199.013 182.453 199.013 181.188C199.013 179.926 199.181 178.848 199.518 177.955C199.859 177.061 200.348 176.379 200.984 175.909C201.625 175.439 202.39 175.205 203.28 175.205C204.17 175.205 204.933 175.441 205.57 175.915C206.206 176.384 206.693 177.066 207.03 177.96C207.371 178.85 207.541 179.926 207.541 181.188C207.541 182.456 207.373 183.54 207.036 184.438C206.698 185.331 206.212 186.015 205.575 186.489C204.939 186.958 204.174 187.193 203.28 187.193ZM203.28 185.676C204.068 185.676 204.683 185.292 205.126 184.523C205.573 183.754 205.797 182.642 205.797 181.188C205.797 180.222 205.695 179.405 205.49 178.739C205.289 178.068 205 177.561 204.621 177.216C204.246 176.867 203.799 176.693 203.28 176.693C202.496 176.693 201.88 177.08 201.433 177.852C200.986 178.625 200.761 179.737 200.757 181.188C200.757 182.157 200.857 182.977 201.058 183.648C201.263 184.314 201.553 184.82 201.928 185.165C202.303 185.506 202.753 185.676 203.28 185.676ZM215.631 184.818V184.205C215.631 183.765 215.722 183.364 215.903 183C216.089 182.633 216.358 182.339 216.71 182.119C217.066 181.896 217.496 181.784 218 181.784C218.515 181.784 218.947 181.894 219.295 182.114C219.644 182.333 219.907 182.627 220.085 182.994C220.267 183.362 220.358 183.765 220.358 184.205V184.818C220.358 185.258 220.267 185.661 220.085 186.028C219.903 186.392 219.636 186.686 219.284 186.909C218.936 187.129 218.508 187.239 218 187.239C217.489 187.239 217.057 187.129 216.705 186.909C216.352 186.686 216.085 186.392 215.903 186.028C215.722 185.661 215.631 185.258 215.631 184.818ZM216.955 184.205V184.818C216.955 185.144 217.032 185.439 217.188 185.705C217.343 185.97 217.614 186.102 218 186.102C218.383 186.102 218.65 185.97 218.801 185.705C218.953 185.439 219.028 185.144 219.028 184.818V184.205C219.028 183.879 218.955 183.583 218.807 183.318C218.663 183.053 218.394 182.92 218 182.92C217.621 182.92 217.352 183.053 217.193 183.318C217.034 183.583 216.955 183.879 216.955 184.205ZM209.778 178.159V177.545C209.778 177.106 209.869 176.703 210.051 176.335C210.237 175.968 210.506 175.674 210.858 175.455C211.214 175.235 211.644 175.125 212.148 175.125C212.663 175.125 213.095 175.235 213.443 175.455C213.792 175.674 214.055 175.968 214.233 176.335C214.411 176.703 214.5 177.106 214.5 177.545V178.159C214.5 178.598 214.409 179.002 214.227 179.369C214.049 179.733 213.784 180.027 213.432 180.25C213.083 180.47 212.655 180.58 212.148 180.58C211.633 180.58 211.199 180.47 210.847 180.25C210.498 180.027 210.233 179.733 210.051 179.369C209.869 179.002 209.778 178.598 209.778 178.159ZM211.108 177.545V178.159C211.108 178.485 211.184 178.78 211.335 179.045C211.491 179.311 211.761 179.443 212.148 179.443C212.527 179.443 212.792 179.311 212.943 179.045C213.098 178.78 213.176 178.485 213.176 178.159V177.545C213.176 177.22 213.102 176.924 212.955 176.659C212.807 176.394 212.538 176.261 212.148 176.261C211.769 176.261 211.5 176.394 211.341 176.659C211.186 176.924 211.108 177.22 211.108 177.545ZM210.318 187L218.318 175.364H219.676L211.676 187H210.318ZM226.097 181.182C226.097 182.61 225.909 183.922 225.534 185.119C225.159 186.316 224.612 187.42 223.892 188.432H222.335C222.616 188.057 222.877 187.597 223.119 187.051C223.362 186.506 223.574 185.909 223.756 185.261C223.938 184.61 224.08 183.936 224.182 183.239C224.284 182.542 224.335 181.856 224.335 181.182C224.335 180.284 224.246 179.373 224.068 178.449C223.89 177.525 223.65 176.667 223.347 175.875C223.044 175.083 222.706 174.438 222.335 173.938H223.892C224.612 174.949 225.159 176.053 225.534 177.25C225.909 178.447 226.097 179.758 226.097 181.182Z" fill="url(#paint1_linear_1874_8766)"/>
<rect x="23.5" y="115.5" width="232" height="15" rx="7.5" fill="url(#paint2_linear_1874_8766)" fill-opacity="0.1" stroke="url(#paint3_linear_1874_8766)"/>
<path d="M24 123C24 119.134 27.134 116 31 116H238V130H31C27.134 130 24 126.866 24 123Z" fill="url(#paint4_linear_1874_8766)"/>
<g filter="url(#filter0_d_1874_8766)">
<circle cx="246" cy="123" r="8" fill="#F838AB"/>
<circle cx="246" cy="123" r="12" stroke="white" stroke-width="8"/>
</g>
<path d="M29.4084 30.7464C29.3686 30.3454 29.1979 30.0339 28.8963 29.8118C28.5947 29.5897 28.1854 29.4787 27.6683 29.4787C27.317 29.4787 27.0204 29.5284 26.7784 29.6278C26.5365 29.724 26.3509 29.8582 26.2216 30.0305C26.0956 30.2029 26.0327 30.3984 26.0327 30.6172C26.026 30.7995 26.0642 30.9586 26.147 31.0945C26.2332 31.2304 26.3509 31.348 26.5 31.4474C26.6491 31.5436 26.8215 31.6281 27.017 31.701C27.2126 31.7706 27.4214 31.8303 27.6435 31.88L28.5582 32.0987C29.0024 32.1982 29.41 32.3307 29.7812 32.4964C30.1525 32.6622 30.474 32.866 30.7457 33.108C31.0175 33.3499 31.228 33.6349 31.3771 33.9631C31.5296 34.2912 31.6075 34.6674 31.6108 35.0916C31.6075 35.7147 31.4484 36.255 31.1335 36.7124C30.822 37.1664 30.3712 37.5194 29.7812 37.7713C29.1946 38.0199 28.487 38.1442 27.6584 38.1442C26.8364 38.1442 26.1205 38.0182 25.5107 37.7663C24.9041 37.5144 24.4302 37.1416 24.0888 36.6477C23.7507 36.1506 23.5734 35.5357 23.5568 34.8033H25.6399C25.6631 35.1446 25.7609 35.4297 25.9332 35.6584C26.1089 35.8838 26.3426 36.0545 26.6342 36.1705C26.9292 36.2831 27.2623 36.3395 27.6335 36.3395C27.9981 36.3395 28.3146 36.2865 28.5831 36.1804C28.8549 36.0743 29.0653 35.9268 29.2145 35.7379C29.3636 35.549 29.4382 35.3319 29.4382 35.0866C29.4382 34.858 29.3703 34.6657 29.2344 34.5099C29.1018 34.3542 28.9063 34.2216 28.6477 34.1122C28.3925 34.0028 28.0793 33.9034 27.7081 33.8139L26.5994 33.5355C25.741 33.3267 25.0632 33.0002 24.5661 32.5561C24.0689 32.112 23.822 31.5137 23.8253 30.7614C23.822 30.1449 23.986 29.6063 24.3175 29.1456C24.6522 28.6849 25.1113 28.3253 25.6946 28.0668C26.2779 27.8082 26.9408 27.679 27.6832 27.679C28.4389 27.679 29.0985 27.8082 29.6619 28.0668C30.2287 28.3253 30.6695 28.6849 30.9844 29.1456C31.2992 29.6063 31.4616 30.1399 31.4716 30.7464H29.4084ZM36.9408 30.3636V31.9545H32.3421V30.3636H36.9408ZM33.3861 28.5341H35.504V35.6534C35.504 35.849 35.5338 36.0014 35.5935 36.1108C35.6531 36.2169 35.736 36.2914 35.8421 36.3345C35.9514 36.3776 36.0774 36.3991 36.2199 36.3991C36.3193 36.3991 36.4188 36.3909 36.5182 36.3743C36.6176 36.3544 36.6939 36.3395 36.7469 36.3295L37.08 37.9055C36.9739 37.9387 36.8248 37.9768 36.6325 38.0199C36.4403 38.0663 36.2066 38.0945 35.9316 38.1044C35.4211 38.1243 34.9737 38.0563 34.5892 37.9006C34.2081 37.7448 33.9114 37.5028 33.6993 37.1747C33.4872 36.8466 33.3828 36.4323 33.3861 35.9318V28.5341ZM40.358 38.1442C39.8707 38.1442 39.4366 38.0597 39.0554 37.8906C38.6742 37.7183 38.3726 37.4647 38.1506 37.13C37.9318 36.7919 37.8225 36.371 37.8225 35.8672C37.8225 35.4429 37.9003 35.0866 38.0561 34.7983C38.2119 34.5099 38.424 34.2779 38.6925 34.1023C38.9609 33.9266 39.2659 33.794 39.6073 33.7045C39.9519 33.6151 40.3132 33.5521 40.6911 33.5156C41.1352 33.4692 41.4931 33.4261 41.7649 33.3864C42.0367 33.3433 42.2339 33.2803 42.3565 33.1974C42.4792 33.1146 42.5405 32.992 42.5405 32.8295V32.7997C42.5405 32.4848 42.4411 32.2412 42.2422 32.0689C42.0466 31.8965 41.7682 31.8104 41.407 31.8104C41.0258 31.8104 40.7225 31.8949 40.4972 32.0639C40.2718 32.2296 40.1226 32.4384 40.0497 32.6903L38.0909 32.5312C38.1903 32.0672 38.3859 31.6662 38.6776 31.3281C38.9692 30.9867 39.3454 30.7249 39.8061 30.5426C40.2701 30.357 40.8071 30.2642 41.4169 30.2642C41.8412 30.2642 42.2472 30.3139 42.635 30.4134C43.026 30.5128 43.3724 30.6669 43.674 30.8757C43.9789 31.0845 44.2192 31.353 44.3949 31.6811C44.5706 32.0059 44.6584 32.3954 44.6584 32.8494V38H42.6499V36.9411H42.5902C42.4676 37.1797 42.3035 37.3902 42.098 37.5724C41.8925 37.7514 41.6456 37.8923 41.3573 37.995C41.0689 38.0945 40.7358 38.1442 40.358 38.1442ZM40.9645 36.6825C41.276 36.6825 41.5511 36.6212 41.7898 36.4986C42.0284 36.3726 42.2157 36.2036 42.3516 35.9915C42.4875 35.7794 42.5554 35.5391 42.5554 35.2706V34.4602C42.4891 34.5033 42.398 34.5431 42.282 34.5795C42.1693 34.6127 42.0417 34.6442 41.8992 34.674C41.7566 34.7005 41.6141 34.7254 41.4716 34.7486C41.3291 34.7685 41.1998 34.7867 41.0838 34.8033C40.8352 34.8397 40.6181 34.8977 40.4325 34.9773C40.2469 35.0568 40.1028 35.1645 40 35.3004C39.8973 35.433 39.8459 35.5987 39.8459 35.7976C39.8459 36.0859 39.9503 36.3063 40.1591 36.4588C40.3712 36.608 40.6397 36.6825 40.9645 36.6825ZM49.6018 41.0227C48.9158 41.0227 48.3275 40.9283 47.8369 40.7393C47.3497 40.5537 46.9619 40.3002 46.6736 39.9787C46.3852 39.6572 46.198 39.2959 46.1118 38.8949L48.0706 38.6314C48.1302 38.7839 48.2247 38.9264 48.354 39.0589C48.4832 39.1915 48.6539 39.2976 48.866 39.3771C49.0815 39.46 49.3433 39.5014 49.6516 39.5014C50.1123 39.5014 50.4918 39.3887 50.79 39.1634C51.0917 38.9413 51.2425 38.5684 51.2425 38.0447V36.6477H51.153C51.0602 36.8598 50.921 37.0604 50.7354 37.2493C50.5498 37.4382 50.3111 37.5923 50.0195 37.7116C49.7278 37.831 49.3798 37.8906 48.9754 37.8906C48.402 37.8906 47.88 37.758 47.4094 37.4929C46.942 37.2244 46.5692 36.8151 46.2908 36.2649C46.0157 35.7114 45.8781 35.0121 45.8781 34.1669C45.8781 33.3018 46.019 32.5793 46.3007 31.9993C46.5824 31.4193 46.957 30.9851 47.4243 30.6967C47.8949 30.4084 48.4103 30.2642 48.9704 30.2642C49.398 30.2642 49.756 30.3371 50.0443 30.483C50.3327 30.6255 50.5647 30.8045 50.7403 31.0199C50.9193 31.232 51.0569 31.4408 51.153 31.6463H51.2325V30.3636H53.3355V38.0746C53.3355 38.7242 53.1764 39.2678 52.8582 39.7053C52.54 40.1428 52.0992 40.4709 51.5358 40.6896C50.9757 40.9117 50.331 41.0227 49.6018 41.0227ZM49.6466 36.2997C49.988 36.2997 50.2763 36.2152 50.5116 36.0462C50.7503 35.8738 50.9326 35.6286 51.0585 35.3104C51.1878 34.9889 51.2524 34.6044 51.2524 34.157C51.2524 33.7095 51.1894 33.3217 51.0635 32.9936C50.9375 32.6622 50.7552 32.4053 50.5166 32.223C50.278 32.0407 49.988 31.9496 49.6466 31.9496C49.2986 31.9496 49.0052 32.044 48.7666 32.233C48.528 32.4186 48.3473 32.6771 48.2247 33.0085C48.1021 33.34 48.0408 33.7228 48.0408 34.157C48.0408 34.5978 48.1021 34.9789 48.2247 35.3004C48.3507 35.6186 48.5313 35.8655 48.7666 36.0412C49.0052 36.2135 49.2986 36.2997 49.6466 36.2997ZM58.361 38.1491C57.5755 38.1491 56.8993 37.9901 56.3326 37.6719C55.7691 37.3504 55.3349 36.8963 55.03 36.3097C54.7251 35.7197 54.5726 35.022 54.5726 34.2166C54.5726 33.4311 54.7251 32.7417 55.03 32.1484C55.3349 31.5552 55.7642 31.0928 56.3177 30.7614C56.8745 30.4299 57.5274 30.2642 58.2765 30.2642C58.7803 30.2642 59.2492 30.3454 59.6834 30.5078C60.1209 30.6669 60.5021 30.9072 60.8269 31.2287C61.155 31.5502 61.4102 31.9545 61.5925 32.4418C61.7748 32.9257 61.866 33.4924 61.866 34.142V34.7237H55.4178V33.4112H59.8724C59.8724 33.1063 59.8061 32.8362 59.6735 32.6009C59.5409 32.3655 59.357 32.1816 59.1216 32.049C58.8896 31.9131 58.6195 31.8452 58.3113 31.8452C57.9898 31.8452 57.7047 31.9197 57.4562 32.0689C57.2109 32.2147 57.0187 32.4119 56.8795 32.6605C56.7402 32.9058 56.669 33.1792 56.6657 33.4808V34.7287C56.6657 35.1065 56.7353 35.433 56.8745 35.7081C57.017 35.9832 57.2175 36.1953 57.476 36.3445C57.7346 36.4936 58.0411 36.5682 58.3958 36.5682C58.6311 36.5682 58.8465 36.535 59.0421 36.4688C59.2376 36.4025 59.405 36.303 59.5442 36.1705C59.6834 36.0379 59.7895 35.8755 59.8624 35.6832L61.8212 35.8125C61.7218 36.2831 61.5179 36.6941 61.2097 37.0455C60.9048 37.3935 60.5104 37.6652 60.0265 37.8608C59.5459 38.053 58.9907 38.1491 58.361 38.1491ZM69.9519 38.1392C69.2095 38.1392 68.5483 38.0116 67.9682 37.7564C67.3915 37.4979 66.9358 37.1432 66.6011 36.6925C66.2696 36.2384 66.0989 35.7147 66.089 35.1214H68.2566C68.2698 35.37 68.3511 35.5888 68.5002 35.7777C68.6527 35.9633 68.8548 36.1075 69.1067 36.2102C69.3586 36.313 69.642 36.3643 69.9569 36.3643C70.285 36.3643 70.575 36.3063 70.8269 36.1903C71.0788 36.0743 71.276 35.9136 71.4185 35.7081C71.561 35.5026 71.6323 35.2656 71.6323 34.9972C71.6323 34.7254 71.5561 34.4851 71.4036 34.2763C71.2545 34.0642 71.039 33.8984 70.7573 33.7791C70.4789 33.6598 70.1475 33.6001 69.763 33.6001H68.8134V32.0192H69.763C70.0878 32.0192 70.3745 31.9628 70.6231 31.8501C70.875 31.7375 71.0705 31.5817 71.2097 31.3828C71.3489 31.1806 71.4185 30.9453 71.4185 30.6768C71.4185 30.4216 71.3572 30.1979 71.2346 30.0057C71.1153 29.8101 70.9462 29.6577 70.7275 29.5483C70.512 29.4389 70.2601 29.3842 69.9718 29.3842C69.6801 29.3842 69.4133 29.4373 69.1714 29.5433C68.9294 29.6461 68.7355 29.7936 68.5897 29.9858C68.4439 30.178 68.366 30.4034 68.356 30.6619H66.2928C66.3028 30.0753 66.4701 29.5582 66.7949 29.1108C67.1198 28.6634 67.5573 28.3137 68.1074 28.0618C68.6609 27.8066 69.2857 27.679 69.9817 27.679C70.6844 27.679 71.2992 27.8066 71.8262 28.0618C72.3532 28.317 72.7625 28.6617 73.0542 29.0959C73.3492 29.5268 73.495 30.0107 73.4917 30.5476C73.495 31.1177 73.3177 31.5933 72.9597 31.9744C72.6051 32.3556 72.1427 32.5975 71.5726 32.7003V32.7798C72.3217 32.8759 72.8918 33.1361 73.2829 33.5604C73.6773 33.9813 73.8728 34.5083 73.8695 35.1413C73.8728 35.7214 73.7055 36.2367 73.3674 36.6875C73.0326 37.1383 72.5703 37.4929 71.9803 37.7514C71.3904 38.0099 70.7142 38.1392 69.9519 38.1392ZM76.5347 36.8168C76.2066 36.8168 75.9249 36.7008 75.6896 36.4688C75.4576 36.2367 75.3416 35.955 75.3416 35.6236C75.3416 35.2988 75.4576 35.0204 75.6896 34.7884C75.9249 34.5563 76.2066 34.4403 76.5347 34.4403C76.8529 34.4403 77.1313 34.5563 77.37 34.7884C77.6086 35.0204 77.7279 35.2988 77.7279 35.6236C77.7279 35.8423 77.6716 36.0429 77.5589 36.2251C77.4495 36.4041 77.3053 36.5483 77.1264 36.6577C76.9474 36.7637 76.7502 36.8168 76.5347 36.8168ZM76.5347 31.8203C76.2066 31.8203 75.9249 31.7043 75.6896 31.4723C75.4576 31.2403 75.3416 30.9586 75.3416 30.6271C75.3416 30.3023 75.4576 30.0256 75.6896 29.7969C75.9249 29.5649 76.2066 29.4489 76.5347 29.4489C76.8529 29.4489 77.1313 29.5649 77.37 29.7969C77.6086 30.0256 77.7279 30.3023 77.7279 30.6271C77.7279 30.8492 77.6716 31.0514 77.5589 31.2337C77.4495 31.4126 77.3053 31.5552 77.1264 31.6612C76.9474 31.7673 76.7502 31.8203 76.5347 31.8203ZM84.3062 27.8182L86.7672 35.554H86.8616L89.3275 27.8182H91.7139L88.204 38H85.4298L81.9149 27.8182H84.3062ZM94.0895 38.1442C93.6023 38.1442 93.1681 38.0597 92.787 37.8906C92.4058 37.7183 92.1042 37.4647 91.8821 37.13C91.6634 36.7919 91.554 36.371 91.554 35.8672C91.554 35.4429 91.6319 35.0866 91.7877 34.7983C91.9435 34.5099 92.1556 34.2779 92.424 34.1023C92.6925 33.9266 92.9974 33.794 93.3388 33.7045C93.6835 33.6151 94.0448 33.5521 94.4226 33.5156C94.8667 33.4692 95.2247 33.4261 95.4965 33.3864C95.7683 33.3433 95.9655 33.2803 96.0881 33.1974C96.2107 33.1146 96.2721 32.992 96.2721 32.8295V32.7997C96.2721 32.4848 96.1726 32.2412 95.9738 32.0689C95.7782 31.8965 95.4998 31.8104 95.1385 31.8104C94.7574 31.8104 94.4541 31.8949 94.2287 32.0639C94.0033 32.2296 93.8542 32.4384 93.7813 32.6903L91.8225 32.5312C91.9219 32.0672 92.1175 31.6662 92.4091 31.3281C92.7008 30.9867 93.077 30.7249 93.5377 30.5426C94.0017 30.357 94.5386 30.2642 95.1485 30.2642C95.5727 30.2642 95.9787 30.3139 96.3665 30.4134C96.7576 30.5128 97.104 30.6669 97.4056 30.8757C97.7105 31.0845 97.9508 31.353 98.1265 31.6811C98.3021 32.0059 98.3899 32.3954 98.3899 32.8494V38H96.3814V36.9411H96.3218C96.1991 37.1797 96.0351 37.3902 95.8296 37.5724C95.6241 37.7514 95.3772 37.8923 95.0888 37.995C94.8005 38.0945 94.4674 38.1442 94.0895 38.1442ZM94.6961 36.6825C95.0076 36.6825 95.2827 36.6212 95.5213 36.4986C95.76 36.3726 95.9472 36.2036 96.0831 35.9915C96.219 35.7794 96.287 35.5391 96.287 35.2706V34.4602C96.2207 34.5033 96.1295 34.5431 96.0135 34.5795C95.9008 34.6127 95.7732 34.6442 95.6307 34.674C95.4882 34.7005 95.3457 34.7254 95.2032 34.7486C95.0606 34.7685 94.9314 34.7867 94.8154 34.8033C94.5668 34.8397 94.3497 34.8977 94.1641 34.9773C93.9785 35.0568 93.8343 35.1645 93.7316 35.3004C93.6288 35.433 93.5774 35.5987 93.5774 35.7976C93.5774 36.0859 93.6819 36.3063 93.8907 36.4588C94.1028 36.608 94.3712 36.6825 94.6961 36.6825ZM102.011 27.8182V38H99.8931V27.8182H102.011ZM103.568 38V30.3636H105.685V38H103.568ZM104.631 29.3793C104.317 29.3793 104.046 29.2749 103.821 29.0661C103.599 28.8539 103.488 28.6004 103.488 28.3054C103.488 28.0137 103.599 27.7635 103.821 27.5547C104.046 27.3426 104.317 27.2365 104.631 27.2365C104.946 27.2365 105.215 27.3426 105.437 27.5547C105.662 27.7635 105.775 28.0137 105.775 28.3054C105.775 28.6004 105.662 28.8539 105.437 29.0661C105.215 29.2749 104.946 29.3793 104.631 29.3793ZM110.056 38.1243C109.476 38.1243 108.951 37.9751 108.48 37.6768C108.013 37.3752 107.641 36.9328 107.366 36.3494C107.094 35.7628 106.959 35.0436 106.959 34.1918C106.959 33.3168 107.099 32.5893 107.381 32.0092C107.663 31.4259 108.037 30.9901 108.505 30.7017C108.975 30.41 109.491 30.2642 110.051 30.2642C110.478 30.2642 110.835 30.3371 111.12 30.483C111.408 30.6255 111.64 30.8045 111.816 31.0199C111.995 31.232 112.131 31.4408 112.224 31.6463H112.288V27.8182H114.401V38H112.313V36.777H112.224C112.124 36.9891 111.983 37.1996 111.801 37.4084C111.622 37.6139 111.388 37.7846 111.1 37.9205C110.815 38.0563 110.467 38.1243 110.056 38.1243ZM110.727 36.4389C111.068 36.4389 111.357 36.3461 111.592 36.1605C111.831 35.9716 112.013 35.7081 112.139 35.37C112.268 35.032 112.333 34.6359 112.333 34.1818C112.333 33.7277 112.27 33.3333 112.144 32.9986C112.018 32.6638 111.836 32.4053 111.597 32.223C111.358 32.0407 111.068 31.9496 110.727 31.9496C110.379 31.9496 110.086 32.044 109.847 32.233C109.608 32.4219 109.428 32.6837 109.305 33.0185C109.183 33.3532 109.121 33.741 109.121 34.1818C109.121 34.6259 109.183 35.0187 109.305 35.3601C109.431 35.6982 109.612 35.9633 109.847 36.1555C110.086 36.3445 110.379 36.4389 110.727 36.4389ZM118.18 38.1442C117.693 38.1442 117.259 38.0597 116.877 37.8906C116.496 37.7183 116.195 37.4647 115.973 37.13C115.754 36.7919 115.644 36.371 115.644 35.8672C115.644 35.4429 115.722 35.0866 115.878 34.7983C116.034 34.5099 116.246 34.2779 116.514 34.1023C116.783 33.9266 117.088 33.794 117.429 33.7045C117.774 33.6151 118.135 33.5521 118.513 33.5156C118.957 33.4692 119.315 33.4261 119.587 33.3864C119.859 33.3433 120.056 33.2803 120.178 33.1974C120.301 33.1146 120.362 32.992 120.362 32.8295V32.7997C120.362 32.4848 120.263 32.2412 120.064 32.0689C119.869 31.8965 119.59 31.8104 119.229 31.8104C118.848 31.8104 118.544 31.8949 118.319 32.0639C118.094 32.2296 117.945 32.4384 117.872 32.6903L115.913 32.5312C116.012 32.0672 116.208 31.6662 116.5 31.3281C116.791 30.9867 117.167 30.7249 117.628 30.5426C118.092 30.357 118.629 30.2642 119.239 30.2642C119.663 30.2642 120.069 30.3139 120.457 30.4134C120.848 30.5128 121.194 30.6669 121.496 30.8757C121.801 31.0845 122.041 31.353 122.217 31.6811C122.393 32.0059 122.48 32.3954 122.48 32.8494V38H120.472V36.9411H120.412C120.29 37.1797 120.125 37.3902 119.92 37.5724C119.714 37.7514 119.468 37.8923 119.179 37.995C118.891 38.0945 118.558 38.1442 118.18 38.1442ZM118.786 36.6825C119.098 36.6825 119.373 36.6212 119.612 36.4986C119.85 36.3726 120.038 36.2036 120.174 35.9915C120.309 35.7794 120.377 35.5391 120.377 35.2706V34.4602C120.311 34.5033 120.22 34.5431 120.104 34.5795C119.991 34.6127 119.864 34.6442 119.721 34.674C119.579 34.7005 119.436 34.7254 119.294 34.7486C119.151 34.7685 119.022 34.7867 118.906 34.8033C118.657 34.8397 118.44 34.8977 118.254 34.9773C118.069 35.0568 117.925 35.1645 117.822 35.3004C117.719 35.433 117.668 35.5987 117.668 35.7976C117.668 36.0859 117.772 36.3063 117.981 36.4588C118.193 36.608 118.462 36.6825 118.786 36.6825ZM128.045 30.3636V31.9545H123.447V30.3636H128.045ZM124.491 28.5341H126.608V35.6534C126.608 35.849 126.638 36.0014 126.698 36.1108C126.758 36.2169 126.84 36.2914 126.947 36.3345C127.056 36.3776 127.182 36.3991 127.324 36.3991C127.424 36.3991 127.523 36.3909 127.623 36.3743C127.722 36.3544 127.798 36.3395 127.851 36.3295L128.184 37.9055C128.078 37.9387 127.929 37.9768 127.737 38.0199C127.545 38.0663 127.311 38.0945 127.036 38.1044C126.526 38.1243 126.078 38.0563 125.694 37.9006C125.313 37.7448 125.016 37.5028 124.804 37.1747C124.592 36.8466 124.487 36.4323 124.491 35.9318V28.5341ZM129.285 38V30.3636H131.403V38H129.285ZM130.349 29.3793C130.034 29.3793 129.764 29.2749 129.538 29.0661C129.316 28.8539 129.205 28.6004 129.205 28.3054C129.205 28.0137 129.316 27.7635 129.538 27.5547C129.764 27.3426 130.034 27.2365 130.349 27.2365C130.664 27.2365 130.932 27.3426 131.154 27.5547C131.38 27.7635 131.492 28.0137 131.492 28.3054C131.492 28.6004 131.38 28.8539 131.154 29.0661C130.932 29.2749 130.664 29.3793 130.349 29.3793ZM136.41 38.1491C135.637 38.1491 134.969 37.9851 134.406 37.657C133.846 37.3255 133.413 36.8648 133.108 36.2749C132.804 35.6816 132.651 34.9938 132.651 34.2116C132.651 33.4228 132.804 32.7334 133.108 32.1435C133.413 31.5502 133.846 31.0895 134.406 30.7614C134.969 30.4299 135.637 30.2642 136.41 30.2642C137.182 30.2642 137.848 30.4299 138.408 30.7614C138.972 31.0895 139.406 31.5502 139.711 32.1435C140.016 32.7334 140.168 33.4228 140.168 34.2116C140.168 34.9938 140.016 35.6816 139.711 36.2749C139.406 36.8648 138.972 37.3255 138.408 37.657C137.848 37.9851 137.182 38.1491 136.41 38.1491ZM136.42 36.5085C136.771 36.5085 137.064 36.4091 137.3 36.2102C137.535 36.008 137.712 35.733 137.831 35.3849C137.954 35.0369 138.015 34.6409 138.015 34.1967C138.015 33.7526 137.954 33.3565 137.831 33.0085C137.712 32.6605 137.535 32.3854 137.3 32.1832C137.064 31.9811 136.771 31.88 136.42 31.88C136.065 31.88 135.767 31.9811 135.525 32.1832C135.286 32.3854 135.105 32.6605 134.983 33.0085C134.863 33.3565 134.804 33.7526 134.804 34.1967C134.804 34.6409 134.863 35.0369 134.983 35.3849C135.105 35.733 135.286 36.008 135.525 36.2102C135.767 36.4091 136.065 36.5085 136.42 36.5085ZM143.523 33.5852V38H141.405V30.3636H143.424V31.7109H143.513C143.682 31.2668 143.966 30.9155 144.363 30.657C144.761 30.3951 145.243 30.2642 145.81 30.2642C146.34 30.2642 146.803 30.3802 147.197 30.6122C147.592 30.8442 147.898 31.1757 148.117 31.6065C148.336 32.0341 148.445 32.5445 148.445 33.1378V38H146.327V33.5156C146.33 33.0483 146.211 32.6837 145.969 32.4219C145.727 32.1567 145.394 32.0241 144.97 32.0241C144.685 32.0241 144.433 32.0855 144.214 32.2081C143.999 32.3307 143.83 32.5097 143.707 32.745C143.588 32.977 143.526 33.2571 143.523 33.5852ZM153.354 33.6364C153.354 32.5795 153.495 31.6065 153.776 30.7173C154.06 29.8281 154.493 29.0043 155.076 28.2457H156.81C156.589 28.527 156.383 28.8707 156.192 29.277C156.002 29.6804 155.836 30.1236 155.694 30.6065C155.552 31.0895 155.441 31.5895 155.361 32.1065C155.282 32.6207 155.242 33.1307 155.242 33.6364C155.242 34.3097 155.31 34.9901 155.447 35.6776C155.586 36.3622 155.773 36.9986 156.009 37.5866C156.248 38.1747 156.515 38.6562 156.81 39.0312H155.076C154.493 38.2727 154.06 37.4489 153.776 36.5597C153.495 35.6705 153.354 34.696 153.354 33.6364ZM157.778 38V29.2727H161.221C161.883 29.2727 162.447 29.3991 162.913 29.652C163.379 29.902 163.734 30.25 163.978 30.696C164.225 31.1392 164.349 31.6506 164.349 32.2301C164.349 32.8097 164.224 33.321 163.974 33.7642C163.724 34.2074 163.362 34.5526 162.887 34.7997C162.416 35.0469 161.845 35.1705 161.174 35.1705H158.98V33.6918H160.876C161.231 33.6918 161.524 33.6307 161.754 33.5085C161.987 33.3835 162.16 33.2116 162.274 32.9929C162.39 32.7713 162.448 32.517 162.448 32.2301C162.448 31.9403 162.39 31.6875 162.274 31.4716C162.16 31.2528 161.987 31.0838 161.754 30.9645C161.521 30.8423 161.225 30.7812 160.867 30.7812H159.623V38H157.778ZM169.591 35.2131V31.4545H171.406V38H169.663V36.8111H169.595C169.447 37.1946 169.202 37.5028 168.858 37.7358C168.517 37.9687 168.101 38.0852 167.609 38.0852C167.172 38.0852 166.787 37.9858 166.455 37.7869C166.122 37.5881 165.862 37.3054 165.675 36.9389C165.49 36.5724 165.396 36.1335 165.393 35.6222V31.4545H167.209V35.2983C167.212 35.6847 167.315 35.9901 167.52 36.2145C167.724 36.4389 167.999 36.5511 168.342 36.5511C168.561 36.5511 168.766 36.5014 168.956 36.402C169.146 36.2997 169.3 36.1491 169.416 35.9503C169.535 35.7514 169.594 35.5057 169.591 35.2131ZM172.772 38V29.2727H174.588V32.554H174.643C174.723 32.3778 174.838 32.1989 174.988 32.017C175.142 31.8324 175.341 31.679 175.585 31.5568C175.832 31.4318 176.139 31.3693 176.505 31.3693C176.983 31.3693 177.423 31.4943 177.826 31.7443C178.23 31.9915 178.552 32.3651 178.794 32.8651C179.035 33.3622 179.156 33.9858 179.156 34.7358C179.156 35.4659 179.038 36.0824 178.802 36.5852C178.569 37.0852 178.251 37.4645 177.848 37.723C177.447 37.9787 176.998 38.1065 176.501 38.1065C176.149 38.1065 175.849 38.0483 175.602 37.9318C175.358 37.8153 175.157 37.669 175.001 37.4929C174.845 37.3139 174.725 37.1335 174.643 36.9517H174.562V38H172.772ZM174.549 34.7273C174.549 35.1165 174.603 35.456 174.711 35.7457C174.819 36.0355 174.975 36.2614 175.18 36.4233C175.385 36.5824 175.633 36.6619 175.926 36.6619C176.221 36.6619 176.471 36.581 176.676 36.419C176.88 36.2543 177.035 36.027 177.14 35.7372C177.248 35.4446 177.302 35.108 177.302 34.7273C177.302 34.3494 177.25 34.017 177.145 33.7301C177.039 33.4432 176.885 33.2187 176.68 33.0568C176.475 32.8949 176.224 32.8139 175.926 32.8139C175.63 32.8139 175.38 32.892 175.176 33.0483C174.974 33.2045 174.819 33.4261 174.711 33.7131C174.603 34 174.549 34.3381 174.549 34.7273ZM182.063 29.2727V38H180.247V29.2727H182.063ZM183.397 38V31.4545H185.212V38H183.397ZM184.309 30.6108C184.039 30.6108 183.807 30.5213 183.614 30.3423C183.424 30.1605 183.329 29.9432 183.329 29.6903C183.329 29.4403 183.424 29.2259 183.614 29.0469C183.807 28.8651 184.039 28.7741 184.309 28.7741C184.579 28.7741 184.809 28.8651 184.999 29.0469C185.192 29.2259 185.289 29.4403 185.289 29.6903C185.289 29.9432 185.192 30.1605 184.999 30.3423C184.809 30.5213 184.579 30.6108 184.309 30.6108ZM189.504 38.1278C188.833 38.1278 188.256 37.9858 187.773 37.7017C187.293 37.4148 186.924 37.017 186.666 36.5085C186.41 36 186.282 35.4148 186.282 34.7528C186.282 34.0824 186.411 33.4943 186.67 32.9886C186.931 32.4801 187.302 32.0838 187.782 31.7997C188.262 31.5128 188.833 31.3693 189.495 31.3693C190.066 31.3693 190.566 31.473 190.995 31.6804C191.424 31.8878 191.764 32.179 192.014 32.554C192.264 32.929 192.401 33.3693 192.427 33.875H190.714C190.666 33.5483 190.538 33.2855 190.33 33.0866C190.126 32.8849 189.857 32.7841 189.525 32.7841C189.244 32.7841 188.998 32.8608 188.788 33.0142C188.58 33.1648 188.418 33.3849 188.302 33.6747C188.185 33.9645 188.127 34.3153 188.127 34.7273C188.127 35.1449 188.184 35.5 188.298 35.7926C188.414 36.0852 188.577 36.3082 188.788 36.4616C188.998 36.6151 189.244 36.6918 189.525 36.6918C189.732 36.6918 189.918 36.6491 190.083 36.5639C190.251 36.4787 190.389 36.3551 190.497 36.1932C190.607 36.0284 190.68 35.831 190.714 35.6009H192.427C192.398 36.1009 192.262 36.5412 192.018 36.9219C191.776 37.2997 191.443 37.5952 191.016 37.8082C190.59 38.0213 190.086 38.1278 189.504 38.1278ZM196.161 38V29.2727H202.041V30.794H198.006V32.8736H201.739V34.3949H198.006V36.4787H202.058V38H196.161ZM204.871 31.4545L206.073 33.7429L207.304 31.4545H209.167L207.27 34.7273L209.218 38H207.364L206.073 35.7372L204.803 38H202.928L204.871 34.7273L202.996 31.4545H204.871ZM210.125 40.4545V31.4545H211.915V32.554H211.996C212.075 32.3778 212.19 32.1989 212.341 32.017C212.494 31.8324 212.693 31.679 212.937 31.5568C213.184 31.4318 213.491 31.3693 213.858 31.3693C214.335 31.3693 214.775 31.4943 215.179 31.7443C215.582 31.9915 215.905 32.3651 216.146 32.8651C216.388 33.3622 216.508 33.9858 216.508 34.7358C216.508 35.4659 216.39 36.0824 216.155 36.5852C215.922 37.0852 215.604 37.4645 215.2 37.723C214.8 37.9787 214.351 38.1065 213.854 38.1065C213.501 38.1065 213.202 38.0483 212.954 37.9318C212.71 37.8153 212.51 37.669 212.354 37.4929C212.197 37.3139 212.078 37.1335 211.996 36.9517H211.94V40.4545H210.125ZM211.902 34.7273C211.902 35.1165 211.956 35.456 212.064 35.7457C212.172 36.0355 212.328 36.2614 212.532 36.4233C212.737 36.5824 212.986 36.6619 213.278 36.6619C213.574 36.6619 213.824 36.581 214.028 36.419C214.233 36.2543 214.388 36.027 214.493 35.7372C214.601 35.4446 214.655 35.108 214.655 34.7273C214.655 34.3494 214.602 34.017 214.497 33.7301C214.392 33.4432 214.237 33.2187 214.032 33.0568C213.828 32.8949 213.577 32.8139 213.278 32.8139C212.983 32.8139 212.733 32.892 212.528 33.0483C212.327 33.2045 212.172 33.4261 212.064 33.7131C211.956 34 211.902 34.3381 211.902 34.7273ZM220.556 38.1278C219.894 38.1278 219.322 37.9872 218.839 37.706C218.359 37.4219 217.988 37.027 217.726 36.5213C217.465 36.0128 217.334 35.4233 217.334 34.7528C217.334 34.0767 217.465 33.4858 217.726 32.9801C217.988 32.4716 218.359 32.0767 218.839 31.7955C219.322 31.5114 219.894 31.3693 220.556 31.3693C221.218 31.3693 221.789 31.5114 222.269 31.7955C222.752 32.0767 223.124 32.4716 223.386 32.9801C223.647 33.4858 223.778 34.0767 223.778 34.7528C223.778 35.4233 223.647 36.0128 223.386 36.5213C223.124 37.027 222.752 37.4219 222.269 37.706C221.789 37.9872 221.218 38.1278 220.556 38.1278ZM220.564 36.7216C220.866 36.7216 221.117 36.6364 221.319 36.4659C221.52 36.2926 221.672 36.0568 221.775 35.7585C221.88 35.4602 221.932 35.1207 221.932 34.7401C221.932 34.3594 221.88 34.0199 221.775 33.7216C221.672 33.4233 221.52 33.1875 221.319 33.0142C221.117 32.8409 220.866 32.7543 220.564 32.7543C220.261 32.7543 220.005 32.8409 219.797 33.0142C219.593 33.1875 219.438 33.4233 219.333 33.7216C219.231 34.0199 219.18 34.3594 219.18 34.7401C219.18 35.1207 219.231 35.4602 219.333 35.7585C219.438 36.0568 219.593 36.2926 219.797 36.4659C220.005 36.6364 220.261 36.7216 220.564 36.7216ZM230.284 33.321L228.622 33.4233C228.594 33.2812 228.533 33.1534 228.439 33.0398C228.345 32.9233 228.221 32.831 228.068 32.7628C227.917 32.6918 227.737 32.6562 227.527 32.6562C227.246 32.6562 227.008 32.7159 226.815 32.8352C226.622 32.9517 226.525 33.108 226.525 33.304C226.525 33.4602 226.588 33.5923 226.713 33.7003C226.838 33.8082 227.052 33.8949 227.356 33.9602L228.541 34.1989C229.177 34.3295 229.652 34.5398 229.964 34.8295C230.277 35.1193 230.433 35.5 230.433 35.9716C230.433 36.4006 230.307 36.777 230.054 37.1009C229.804 37.4247 229.46 37.6776 229.023 37.8594C228.588 38.0384 228.087 38.1278 227.518 38.1278C226.652 38.1278 225.962 37.9474 225.447 37.5866C224.936 37.223 224.636 36.7287 224.548 36.1037L226.334 36.0099C226.388 36.2741 226.518 36.4759 226.726 36.6151C226.933 36.7514 227.199 36.8196 227.523 36.8196C227.841 36.8196 228.096 36.7585 228.29 36.6364C228.486 36.5114 228.585 36.3509 228.588 36.1548C228.585 35.9901 228.515 35.8551 228.379 35.75C228.243 35.642 228.033 35.5597 227.748 35.5028L226.615 35.277C225.976 35.1491 225.5 34.9276 225.187 34.6122C224.878 34.2969 224.723 33.8949 224.723 33.4062C224.723 32.9858 224.837 32.6236 225.064 32.3196C225.294 32.0156 225.616 31.7812 226.031 31.6165C226.449 31.4517 226.937 31.3693 227.497 31.3693C228.324 31.3693 228.974 31.544 229.449 31.8935C229.926 32.2429 230.204 32.7187 230.284 33.321ZM235.654 35.2131V31.4545H237.469V38H235.726V36.8111H235.658C235.51 37.1946 235.264 37.5028 234.921 37.7358C234.58 37.9687 234.164 38.0852 233.672 38.0852C233.235 38.0852 232.85 37.9858 232.517 37.7869C232.185 37.5881 231.925 37.3054 231.737 36.9389C231.553 36.5724 231.459 36.1335 231.456 35.6222V31.4545H233.272V35.2983C233.274 35.6847 233.378 35.9901 233.583 36.2145C233.787 36.4389 234.061 36.5511 234.405 36.5511C234.624 36.5511 234.828 36.5014 235.019 36.402C235.209 36.2997 235.362 36.1491 235.479 35.9503C235.598 35.7514 235.657 35.5057 235.654 35.2131ZM238.801 38V31.4545H240.561V32.5966H240.629C240.749 32.1903 240.949 31.8835 241.23 31.6761C241.511 31.4659 241.835 31.3608 242.202 31.3608C242.293 31.3608 242.391 31.3665 242.496 31.3778C242.601 31.3892 242.693 31.4048 242.773 31.4247V33.0355C242.687 33.0099 242.57 32.9872 242.419 32.9673C242.268 32.9474 242.131 32.9375 242.006 32.9375C241.739 32.9375 241.5 32.9957 241.29 33.1122C241.082 33.2259 240.918 33.3849 240.795 33.5895C240.676 33.794 240.616 34.0298 240.616 34.2969V38H238.801ZM246.269 38.1278C245.596 38.1278 245.017 37.9915 244.531 37.7188C244.048 37.4432 243.676 37.054 243.414 36.5511C243.153 36.0455 243.022 35.4474 243.022 34.7571C243.022 34.0838 243.153 33.4929 243.414 32.9844C243.676 32.4759 244.044 32.0795 244.518 31.7955C244.995 31.5114 245.555 31.3693 246.197 31.3693C246.629 31.3693 247.031 31.4389 247.403 31.5781C247.778 31.7145 248.105 31.9205 248.383 32.196C248.664 32.4716 248.883 32.8182 249.039 33.2358C249.196 33.6506 249.274 34.1364 249.274 34.6932V35.1918H243.747V34.0668H247.565C247.565 33.8054 247.508 33.5739 247.394 33.3722C247.281 33.1705 247.123 33.0128 246.921 32.8991C246.723 32.7827 246.491 32.7244 246.227 32.7244C245.951 32.7244 245.707 32.7884 245.494 32.9162C245.284 33.0412 245.119 33.2102 245 33.4233C244.88 33.6335 244.819 33.8679 244.816 34.1264V35.196C244.816 35.5199 244.876 35.7997 244.995 36.0355C245.118 36.2713 245.289 36.4531 245.511 36.581C245.733 36.7088 245.995 36.7727 246.299 36.7727C246.501 36.7727 246.686 36.7443 246.853 36.6875C247.021 36.6307 247.164 36.5455 247.284 36.4318C247.403 36.3182 247.494 36.179 247.556 36.0142L249.235 36.125C249.15 36.5284 248.975 36.8807 248.711 37.1818C248.45 37.4801 248.112 37.7131 247.697 37.8807C247.285 38.0455 246.809 38.1278 246.269 38.1278ZM253.398 34.5014C253.398 35.5611 253.256 36.5355 252.972 37.4247C252.691 38.3139 252.259 39.1378 251.676 39.8963H249.942C250.164 39.6151 250.37 39.2713 250.56 38.8651C250.75 38.4588 250.917 38.0156 251.059 37.5355C251.201 37.0526 251.311 36.5526 251.391 36.0355C251.471 35.5185 251.51 35.0071 251.51 34.5014C251.51 33.8281 251.441 33.1491 251.301 32.4645C251.165 31.777 250.978 31.1406 250.739 30.5554C250.503 29.9673 250.238 29.4858 249.942 29.1108H251.676C252.259 29.8693 252.691 30.6932 252.972 31.5824C253.256 32.4716 253.398 33.4446 253.398 34.5014Z" fill="white"/>
<path d="M24.4148 65H23.3068L26.5114 56.2727H27.6023L30.8068 65H29.6989L27.0909 57.6534H27.0227L24.4148 65ZM24.8239 61.5909H29.2898V62.5284H24.8239V61.5909ZM34.5689 65.1364C33.9553 65.1364 33.4269 64.9915 32.9837 64.7017C32.5405 64.4119 32.1996 64.0128 31.961 63.5043C31.7223 62.9957 31.603 62.4148 31.603 61.7614C31.603 61.0966 31.7252 60.5099 31.9695 60.0014C32.2166 59.4901 32.5604 59.0909 33.0007 58.804C33.4439 58.5142 33.961 58.3693 34.5519 58.3693C35.0121 58.3693 35.4269 58.4545 35.7962 58.625C36.1655 58.7955 36.4681 59.0341 36.7039 59.3409C36.9397 59.6477 37.086 60.0057 37.1428 60.4148H36.1371C36.0604 60.1165 35.8899 59.8523 35.6257 59.6222C35.3644 59.3892 35.0121 59.2727 34.5689 59.2727C34.1769 59.2727 33.8331 59.375 33.5377 59.5795C33.2451 59.7812 33.0164 60.0668 32.8516 60.4361C32.6897 60.8026 32.6087 61.233 32.6087 61.7273C32.6087 62.233 32.6882 62.6733 32.8473 63.0483C33.0093 63.4233 33.2365 63.7145 33.5291 63.9219C33.8246 64.1293 34.1712 64.233 34.5689 64.233C34.8303 64.233 35.0675 64.1875 35.2806 64.0966C35.4936 64.0057 35.674 63.875 35.8218 63.7045C35.9695 63.5341 36.0746 63.3295 36.1371 63.0909H37.1428C37.086 63.4773 36.9453 63.8253 36.7209 64.1349C36.4993 64.4418 36.2053 64.6861 35.8388 64.8679C35.4752 65.0469 35.0519 65.1364 34.5689 65.1364ZM41.152 65.1364C40.5384 65.1364 40.01 64.9915 39.5668 64.7017C39.1236 64.4119 38.7827 64.0128 38.5441 63.5043C38.3055 62.9957 38.1861 62.4148 38.1861 61.7614C38.1861 61.0966 38.3083 60.5099 38.5526 60.0014C38.7998 59.4901 39.1435 59.0909 39.5839 58.804C40.027 58.5142 40.5441 58.3693 41.135 58.3693C41.5952 58.3693 42.01 58.4545 42.3793 58.625C42.7486 58.7955 43.0512 59.0341 43.287 59.3409C43.5228 59.6477 43.6691 60.0057 43.7259 60.4148H42.7202C42.6435 60.1165 42.4731 59.8523 42.2089 59.6222C41.9475 59.3892 41.5952 59.2727 41.152 59.2727C40.76 59.2727 40.4163 59.375 40.1208 59.5795C39.8282 59.7812 39.5995 60.0668 39.4347 60.4361C39.2728 60.8026 39.1918 61.233 39.1918 61.7273C39.1918 62.233 39.2714 62.6733 39.4305 63.0483C39.5924 63.4233 39.8197 63.7145 40.1123 63.9219C40.4077 64.1293 40.7543 64.233 41.152 64.233C41.4134 64.233 41.6506 64.1875 41.8637 64.0966C42.0768 64.0057 42.2572 63.875 42.4049 63.7045C42.5526 63.5341 42.6577 63.3295 42.7202 63.0909H43.7259C43.6691 63.4773 43.5285 63.8253 43.304 64.1349C43.0824 64.4418 42.7884 64.6861 42.4219 64.8679C42.0583 65.0469 41.635 65.1364 41.152 65.1364ZM47.8204 65.1364C47.1897 65.1364 46.6457 64.9972 46.1883 64.7188C45.7337 64.4375 45.3829 64.0455 45.1357 63.5426C44.8914 63.0369 44.7693 62.4489 44.7693 61.7784C44.7693 61.108 44.8914 60.517 45.1357 60.0057C45.3829 59.4915 45.7266 59.0909 46.167 58.804C46.6102 58.5142 47.1272 58.3693 47.7181 58.3693C48.059 58.3693 48.3957 58.4261 48.7281 58.5398C49.0605 58.6534 49.363 58.8381 49.6357 59.0938C49.9085 59.3466 50.1258 59.6818 50.2877 60.0994C50.4497 60.517 50.5306 61.0312 50.5306 61.642V62.0682H45.4852V61.1989H49.5079C49.5079 60.8295 49.434 60.5 49.2863 60.2102C49.1414 59.9205 48.934 59.6918 48.6641 59.5241C48.3971 59.3565 48.0818 59.2727 47.7181 59.2727C47.3176 59.2727 46.971 59.3722 46.6784 59.571C46.3886 59.767 46.1656 60.0227 46.0093 60.3381C45.8531 60.6534 45.7749 60.9915 45.7749 61.3523V61.9318C45.7749 62.4261 45.8602 62.8452 46.0306 63.1889C46.2039 63.5298 46.444 63.7898 46.7508 63.9688C47.0576 64.1449 47.4141 64.233 47.8204 64.233C48.0846 64.233 48.3232 64.196 48.5363 64.1222C48.7522 64.0455 48.9383 63.9318 49.0945 63.7812C49.2508 63.6278 49.3715 63.4375 49.4568 63.2102L50.4284 63.483C50.3261 63.8125 50.1542 64.1023 49.9127 64.3523C49.6712 64.5994 49.373 64.7926 49.0178 64.9318C48.6627 65.0682 48.2636 65.1364 47.8204 65.1364ZM56.5768 59.9205L55.6734 60.1761C55.6166 60.0256 55.5328 59.8793 55.422 59.7372C55.314 59.5923 55.1663 59.473 54.9788 59.3793C54.7913 59.2855 54.5513 59.2386 54.2586 59.2386C53.8581 59.2386 53.5243 59.331 53.2572 59.5156C52.993 59.6974 52.8609 59.929 52.8609 60.2102C52.8609 60.4602 52.9518 60.6577 53.1336 60.8026C53.3155 60.9474 53.5995 61.0682 53.9859 61.1648L54.9575 61.4034C55.5427 61.5455 55.9788 61.7628 56.2657 62.0554C56.5527 62.3452 56.6961 62.7187 56.6961 63.1761C56.6961 63.5511 56.5882 63.8864 56.3723 64.1818C56.1592 64.4773 55.8609 64.7102 55.4774 64.8807C55.0939 65.0511 54.6478 65.1364 54.1393 65.1364C53.4717 65.1364 52.9191 64.9915 52.4816 64.7017C52.0441 64.4119 51.7672 63.9886 51.6507 63.4318L52.6052 63.1932C52.6961 63.5455 52.868 63.8097 53.1209 63.9858C53.3765 64.1619 53.7103 64.25 54.1223 64.25C54.591 64.25 54.9632 64.1506 55.2388 63.9517C55.5172 63.75 55.6564 63.5085 55.6564 63.2273C55.6564 63 55.5768 62.8097 55.4177 62.6562C55.2586 62.5 55.0143 62.3835 54.6848 62.3068L53.5939 62.0511C52.9944 61.9091 52.5541 61.6889 52.2728 61.3906C51.9944 61.0895 51.8552 60.7131 51.8552 60.2614C51.8552 59.892 51.9589 59.5653 52.1663 59.2812C52.3765 58.9972 52.662 58.7741 53.0228 58.6122C53.3865 58.4503 53.7984 58.3693 54.2586 58.3693C54.9064 58.3693 55.4149 58.5114 55.7842 58.7955C56.1564 59.0795 56.4206 59.4545 56.5768 59.9205ZM62.7264 59.9205L61.8229 60.1761C61.7661 60.0256 61.6823 59.8793 61.5715 59.7372C61.4636 59.5923 61.3158 59.473 61.1283 59.3793C60.9408 59.2855 60.7008 59.2386 60.4082 59.2386C60.0076 59.2386 59.6738 59.331 59.4067 59.5156C59.1425 59.6974 59.0104 59.929 59.0104 60.2102C59.0104 60.4602 59.1014 60.6577 59.2832 60.8026C59.465 60.9474 59.7491 61.0682 60.1354 61.1648L61.107 61.4034C61.6923 61.5455 62.1283 61.7628 62.4153 62.0554C62.7022 62.3452 62.8457 62.7187 62.8457 63.1761C62.8457 63.5511 62.7377 63.8864 62.5218 64.1818C62.3087 64.4773 62.0104 64.7102 61.6269 64.8807C61.2434 65.0511 60.7974 65.1364 60.2889 65.1364C59.6212 65.1364 59.0687 64.9915 58.6312 64.7017C58.1937 64.4119 57.9167 63.9886 57.8002 63.4318L58.7548 63.1932C58.8457 63.5455 59.0175 63.8097 59.2704 63.9858C59.5261 64.1619 59.8599 64.25 60.2718 64.25C60.7406 64.25 61.1127 64.1506 61.3883 63.9517C61.6667 63.75 61.8059 63.5085 61.8059 63.2273C61.8059 63 61.7264 62.8097 61.5673 62.6562C61.4082 62.5 61.1639 62.3835 60.8343 62.3068L59.7434 62.0511C59.144 61.9091 58.7036 61.6889 58.4224 61.3906C58.144 61.0895 58.0048 60.7131 58.0048 60.2614C58.0048 59.892 58.1085 59.5653 58.3158 59.2812C58.5261 58.9972 58.8116 58.7741 59.1724 58.6122C59.536 58.4503 59.9479 58.3693 60.4082 58.3693C61.0559 58.3693 61.5644 58.5114 61.9337 58.7955C62.3059 59.0795 62.5701 59.4545 62.7264 59.9205ZM64.2395 65V58.4545H65.2452V65H64.2395ZM64.7509 57.3636C64.5549 57.3636 64.3858 57.2969 64.2438 57.1634C64.1046 57.0298 64.035 56.8693 64.035 56.6818C64.035 56.4943 64.1046 56.3338 64.2438 56.2003C64.3858 56.0668 64.5549 56 64.7509 56C64.9469 56 65.1145 56.0668 65.2537 56.2003C65.3958 56.3338 65.4668 56.4943 65.4668 56.6818C65.4668 56.8693 65.3958 57.0298 65.2537 57.1634C65.1145 57.2969 64.9469 57.3636 64.7509 57.3636ZM67.1035 65V56.2727H68.1092V59.4943H68.1944C68.2683 59.3807 68.3706 59.2358 68.5013 59.0597C68.6348 58.8807 68.8251 58.7216 69.0723 58.5824C69.3223 58.4403 69.6604 58.3693 70.0865 58.3693C70.6376 58.3693 71.1234 58.5071 71.5439 58.7827C71.9643 59.0582 72.2925 59.4489 72.5283 59.9545C72.764 60.4602 72.8819 61.0568 72.8819 61.7443C72.8819 62.4375 72.764 63.0384 72.5283 63.5469C72.2925 64.0526 71.9658 64.4446 71.5481 64.723C71.1305 64.9986 70.649 65.1364 70.1035 65.1364C69.6831 65.1364 69.3464 65.0668 69.0936 64.9276C68.8408 64.7855 68.6462 64.625 68.5098 64.446C68.3734 64.2642 68.2683 64.1136 68.1944 63.9943H68.0751V65H67.1035ZM68.0922 61.7273C68.0922 62.2216 68.1646 62.6577 68.3095 63.0355C68.4544 63.4105 68.666 63.7045 68.9444 63.9176C69.2229 64.1278 69.5638 64.233 69.9672 64.233C70.3876 64.233 70.7385 64.1222 71.0197 63.9006C71.3038 63.6761 71.5169 63.375 71.6589 62.9972C71.8038 62.6165 71.8763 62.1932 71.8763 61.7273C71.8763 61.267 71.8052 60.8523 71.6632 60.483C71.524 60.1108 71.3123 59.8168 71.0283 59.6009C70.747 59.3821 70.3933 59.2727 69.9672 59.2727C69.5581 59.2727 69.2143 59.3764 68.9359 59.5838C68.6575 59.7884 68.4473 60.0753 68.3052 60.4446C68.1632 60.8111 68.0922 61.2386 68.0922 61.7273ZM74.3003 65V58.4545H75.306V65H74.3003ZM74.8117 57.3636C74.6156 57.3636 74.4466 57.2969 74.3046 57.1634C74.1654 57.0298 74.0958 56.8693 74.0958 56.6818C74.0958 56.4943 74.1654 56.3338 74.3046 56.2003C74.4466 56.0668 74.6156 56 74.8117 56C75.0077 56 75.1753 56.0668 75.3145 56.2003C75.4565 56.3338 75.5276 56.4943 75.5276 56.6818C75.5276 56.8693 75.4565 57.0298 75.3145 57.1634C75.1753 57.2969 75.0077 57.3636 74.8117 57.3636ZM78.0336 56.2727V65H77.028V56.2727H78.0336ZM79.7556 65V58.4545H80.7613V65H79.7556ZM80.267 57.3636C80.071 57.3636 79.9019 57.2969 79.7599 57.1634C79.6207 57.0298 79.5511 56.8693 79.5511 56.6818C79.5511 56.4943 79.6207 56.3338 79.7599 56.2003C79.9019 56.0668 80.071 56 80.267 56C80.463 56 80.6306 56.0668 80.7698 56.2003C80.9119 56.3338 80.9829 56.4943 80.9829 56.6818C80.9829 56.8693 80.9119 57.0298 80.7698 57.1634C80.6306 57.2969 80.463 57.3636 80.267 57.3636ZM85.3299 58.4545V59.3068H81.9378V58.4545H85.3299ZM82.9264 56.8864H83.9321V63.125C83.9321 63.4091 83.9733 63.6222 84.0557 63.7642C84.1409 63.9034 84.2489 63.9972 84.3796 64.0455C84.5131 64.0909 84.6537 64.1136 84.8014 64.1136C84.9122 64.1136 85.0032 64.108 85.0742 64.0966C85.1452 64.0824 85.202 64.071 85.2446 64.0625L85.4492 64.9659C85.381 64.9915 85.2858 65.017 85.1637 65.0426C85.0415 65.071 84.8867 65.0852 84.6992 65.0852C84.4151 65.0852 84.1367 65.0241 83.8639 64.902C83.5941 64.7798 83.3696 64.5938 83.1907 64.3438C83.0145 64.0938 82.9264 63.7784 82.9264 63.3977V56.8864ZM87.3704 67.4545C87.1999 67.4545 87.0479 67.4403 86.9144 67.4119C86.7809 67.3864 86.6886 67.3608 86.6374 67.3352L86.8931 66.4489C87.1374 66.5114 87.3533 66.5341 87.5408 66.517C87.7283 66.5 87.8945 66.4162 88.0394 66.2656C88.1871 66.1179 88.3221 65.8778 88.4442 65.5455L88.6317 65.0341L86.2113 58.4545H87.3022L89.109 63.6705H89.1772L90.984 58.4545H92.0749L89.2965 65.9545C89.1715 66.2926 89.0167 66.5724 88.832 66.794C88.6474 67.0185 88.4329 67.1847 88.1886 67.2926C87.9471 67.4006 87.6743 67.4545 87.3704 67.4545ZM98.0203 65L96.026 58.4545H97.0828L98.4976 63.4659H98.5657L99.9635 58.4545H101.037L102.418 63.4489H102.486L103.901 58.4545H104.958L102.963 65H101.975L100.543 59.9716H100.441L99.0089 65H98.0203ZM106.167 65V58.4545H107.173V65H106.167ZM106.679 57.3636C106.483 57.3636 106.314 57.2969 106.172 57.1634C106.032 57.0298 105.963 56.8693 105.963 56.6818C105.963 56.4943 106.032 56.3338 106.172 56.2003C106.314 56.0668 106.483 56 106.679 56C106.875 56 107.042 56.0668 107.182 56.2003C107.324 56.3338 107.395 56.4943 107.395 56.6818C107.395 56.8693 107.324 57.0298 107.182 57.1634C107.042 57.2969 106.875 57.3636 106.679 57.3636ZM111.742 58.4545V59.3068H108.35V58.4545H111.742ZM109.338 56.8864H110.344V63.125C110.344 63.4091 110.385 63.6222 110.467 63.7642C110.553 63.9034 110.661 63.9972 110.791 64.0455C110.925 64.0909 111.065 64.1136 111.213 64.1136C111.324 64.1136 111.415 64.108 111.486 64.0966C111.557 64.0824 111.614 64.071 111.656 64.0625L111.861 64.9659C111.793 64.9915 111.698 65.017 111.575 65.0426C111.453 65.071 111.298 65.0852 111.111 65.0852C110.827 65.0852 110.548 65.0241 110.276 64.902C110.006 64.7798 109.781 64.5938 109.602 64.3438C109.426 64.0938 109.338 63.7784 109.338 63.3977V56.8864ZM114.281 61.0625V65H113.275V56.2727H114.281V59.4773H114.366C114.519 59.1392 114.749 58.8707 115.056 58.6719C115.366 58.4702 115.778 58.3693 116.292 58.3693C116.738 58.3693 117.129 58.4588 117.464 58.6378C117.799 58.8139 118.059 59.0852 118.244 59.4517C118.431 59.8153 118.525 60.2784 118.525 60.8409V65H117.519V60.9091C117.519 60.3892 117.384 59.9872 117.114 59.7031C116.847 59.4162 116.477 59.2727 116.002 59.2727C115.673 59.2727 115.377 59.3423 115.116 59.4815C114.857 59.6207 114.653 59.8239 114.502 60.0909C114.355 60.358 114.281 60.6818 114.281 61.0625ZM126.346 58.4545V59.3068H122.954V58.4545H126.346ZM123.943 56.8864H124.949V63.125C124.949 63.4091 124.99 63.6222 125.072 63.7642C125.158 63.9034 125.265 63.9972 125.396 64.0455C125.53 64.0909 125.67 64.1136 125.818 64.1136C125.929 64.1136 126.02 64.108 126.091 64.0966C126.162 64.0824 126.219 64.071 126.261 64.0625L126.466 64.9659C126.398 64.9915 126.302 65.017 126.18 65.0426C126.058 65.071 125.903 65.0852 125.716 65.0852C125.432 65.0852 125.153 65.0241 124.881 64.902C124.611 64.7798 124.386 64.5938 124.207 64.3438C124.031 64.0938 123.943 63.7784 123.943 63.3977V56.8864ZM127.739 65V58.4545H128.711V59.4432H128.779C128.898 59.1193 129.114 58.8565 129.427 58.6548C129.739 58.4531 130.091 58.3523 130.484 58.3523C130.557 58.3523 130.65 58.3537 130.761 58.3565C130.871 58.3594 130.955 58.3636 131.012 58.3693V59.392C130.978 59.3835 130.9 59.3707 130.778 59.3537C130.658 59.3338 130.532 59.3239 130.398 59.3239C130.08 59.3239 129.796 59.3906 129.546 59.5241C129.299 59.6548 129.103 59.8366 128.958 60.0696C128.816 60.2997 128.745 60.5625 128.745 60.858V65H127.739ZM136.209 62.3239V58.4545H137.215V65H136.209V63.892H136.141C135.987 64.2244 135.749 64.5071 135.425 64.7401C135.101 64.9702 134.692 65.0852 134.198 65.0852C133.789 65.0852 133.425 64.9957 133.107 64.8168C132.789 64.6349 132.539 64.3622 132.357 63.9986C132.175 63.6321 132.084 63.1705 132.084 62.6136V58.4545H133.09V62.5455C133.09 63.0227 133.223 63.4034 133.49 63.6875C133.76 63.9716 134.104 64.1136 134.522 64.1136C134.772 64.1136 135.026 64.0497 135.284 63.9219C135.546 63.794 135.764 63.598 135.941 63.3338C136.12 63.0696 136.209 62.733 136.209 62.3239ZM143.573 59.9205L142.67 60.1761C142.613 60.0256 142.529 59.8793 142.418 59.7372C142.31 59.5923 142.163 59.473 141.975 59.3793C141.788 59.2855 141.548 59.2386 141.255 59.2386C140.854 59.2386 140.521 59.331 140.253 59.5156C139.989 59.6974 139.857 59.929 139.857 60.2102C139.857 60.4602 139.948 60.6577 140.13 60.8026C140.312 60.9474 140.596 61.0682 140.982 61.1648L141.954 61.4034C142.539 61.5455 142.975 61.7628 143.262 62.0554C143.549 62.3452 143.692 62.7187 143.692 63.1761C143.692 63.5511 143.584 63.8864 143.369 64.1818C143.155 64.4773 142.857 64.7102 142.474 64.8807C142.09 65.0511 141.644 65.1364 141.136 65.1364C140.468 65.1364 139.915 64.9915 139.478 64.7017C139.04 64.4119 138.763 63.9886 138.647 63.4318L139.601 63.1932C139.692 63.5455 139.864 63.8097 140.117 63.9858C140.373 64.1619 140.707 64.25 141.119 64.25C141.587 64.25 141.959 64.1506 142.235 63.9517C142.513 63.75 142.653 63.5085 142.653 63.2273C142.653 63 142.573 62.8097 142.414 62.6562C142.255 62.5 142.011 62.3835 141.681 62.3068L140.59 62.0511C139.991 61.9091 139.55 61.6889 139.269 61.3906C138.991 61.0895 138.851 60.7131 138.851 60.2614C138.851 59.892 138.955 59.5653 139.163 59.2812C139.373 58.9972 139.658 58.7741 140.019 58.6122C140.383 58.4503 140.795 58.3693 141.255 58.3693C141.903 58.3693 142.411 58.5114 142.78 58.7955C143.153 59.0795 143.417 59.4545 143.573 59.9205ZM147.933 58.4545V59.3068H144.541V58.4545H147.933ZM145.529 56.8864H146.535V63.125C146.535 63.4091 146.576 63.6222 146.659 63.7642C146.744 63.9034 146.852 63.9972 146.983 64.0455C147.116 64.0909 147.257 64.1136 147.404 64.1136C147.515 64.1136 147.606 64.108 147.677 64.0966C147.748 64.0824 147.805 64.071 147.848 64.0625L148.052 64.9659C147.984 64.9915 147.889 65.017 147.767 65.0426C147.644 65.071 147.49 65.0852 147.302 65.0852C147.018 65.0852 146.74 65.0241 146.467 64.902C146.197 64.7798 145.973 64.5938 145.794 64.3438C145.617 64.0938 145.529 63.7784 145.529 63.3977V56.8864Z" fill="white" fill-opacity="0.65"/>
<defs>
<filter id="filter0_d_1874_8766" x="222" y="99" width="48" height="48" filterUnits="userSpaceOnUse" color-interpolation-filters="sRGB">
<feFlood flood-opacity="0" result="BackgroundImageFix"/>
<feColorMatrix in="SourceAlpha" type="matrix" values="0 0 0 0 0 0 0 0 0 0 0 0 0 0 0 0 0 0 127 0" result="hardAlpha"/>
<feOffset/>
<feGaussianBlur stdDeviation="4"/>
<feComposite in2="hardAlpha" operator="out"/>
<feColorMatrix type="matrix" values="0 0 0 0 1 0 0 0 0 1 0 0 0 0 1 0 0 0 0.55 0"/>
<feBlend mode="normal" in2="BackgroundImageFix" result="effect1_dropShadow_1874_8766"/>
<feBlend mode="normal" in="SourceGraphic" in2="effect1_dropShadow_1874_8766" result="shape"/>
</filter>
<linearGradient id="paint0_linear_1874_8766" x1="144" y1="0" x2="144" y2="219" gradientUnits="userSpaceOnUse">
<stop stop-color="#70767C"/>
<stop offset="1" stop-color="#4B525A" stop-opacity="0.72"/>
</linearGradient>
<linearGradient id="paint1_linear_1874_8766" x1="30.5526" y1="178.396" x2="381.262" y2="178.396" gradientUnits="userSpaceOnUse">
<stop stop-color="#F838AB"/>
<stop offset="1" stop-color="white"/>
</linearGradient>
<linearGradient id="paint2_linear_1874_8766" x1="252.659" y1="128.5" x2="31.0145" y2="130.485" gradientUnits="userSpaceOnUse">
<stop stop-color="white" stop-opacity="0.7"/>
<stop offset="1" stop-color="white" stop-opacity="0.1"/>
</linearGradient>
<linearGradient id="paint3_linear_1874_8766" x1="139.5" y1="115" x2="139.5" y2="131" gradientUnits="userSpaceOnUse">
<stop stop-color="white" stop-opacity="0.3"/>
<stop offset="1" stop-color="white" stop-opacity="0.2"/>
</linearGradient>
<linearGradient id="paint4_linear_1874_8766" x1="238" y1="123" x2="24" y2="123" gradientUnits="userSpaceOnUse">
<stop stop-color="#F838AB"/>
<stop offset="1" stop-color="#F8385B"/>
</linearGradient>
</defs>
</svg>
