<svg width="16" height="17" viewBox="0 0 16 17" fill="none" xmlns="http://www.w3.org/2000/svg">
<path d="M8.00004 15.3255C4.31814 15.3255 1.33337 12.3407 1.33337 8.65885C1.33337 4.97695 4.31814 1.99219 8.00004 1.99219C11.6819 1.99219 14.6667 4.97695 14.6667 8.65885C14.6667 12.3407 11.6819 15.3255 8.00004 15.3255ZM8.00004 13.9922C10.9456 13.9922 13.3334 11.6044 13.3334 8.65885C13.3334 5.71333 10.9456 3.32552 8.00004 3.32552C5.05452 3.32552 2.66671 5.71333 2.66671 8.65885C2.66671 11.6044 5.05452 13.9922 8.00004 13.9922ZM7.33337 5.32552H8.66671V6.65885H7.33337V5.32552ZM7.33337 7.99219H8.66671V11.9922H7.33337V7.99219Z" fill="#BBBBBE"/>
</svg>
