<svg width="24" height="25" viewBox="0 0 24 25" fill="none" xmlns="http://www.w3.org/2000/svg">
<path d="M9.97308 18.1406H11V13.1406H13V18.1406H14.0269C14.1589 16.939 14.7721 15.9471 15.7676 14.8632C15.8797 14.7412 16.5988 13.997 16.6841 13.8907C17.5318 12.8337 18 11.5256 18 10.1406C18 6.82691 15.3137 4.14062 12 4.14062C8.68629 4.14062 6 6.82691 6 10.1406C6 11.5249 6.46774 12.8323 7.31462 13.889C7.40004 13.9956 8.12081 14.7418 8.23154 14.8624C9.22766 15.947 9.84103 16.939 9.97308 18.1406ZM10 20.1406V21.1406H14V20.1406H10ZM5.75395 15.1398C4.65645 13.7703 4 12.0321 4 10.1406C4 5.72234 7.58172 2.14062 12 2.14062C16.4183 2.14062 20 5.72234 20 10.1406C20 12.0331 19.3428 13.7721 18.2443 15.142C17.624 15.9154 16 17.1406 16 18.6406V21.1406C16 22.2452 15.1046 23.1406 14 23.1406H10C8.89543 23.1406 8 22.2452 8 21.1406V18.6406C8 17.1406 6.37458 15.9142 5.75395 15.1398Z" fill="white"/>
</svg>
