<svg width="24" height="24" viewBox="0 0 24 24" fill="none" xmlns="http://www.w3.org/2000/svg">
<path d="M11.9998 3.0415C7.05984 3.0415 3.0415 7.06067 3.0415 11.9998C3.0415 16.939 7.05984 20.9582 11.9998 20.9582C16.9398 20.9582 20.9582 16.939 20.9582 11.9998C20.9582 7.06067 16.9398 3.0415 11.9998 3.0415ZM19.6765 11.3748H16.3015C16.1923 9.089 15.489 6.75985 14.2723 4.63401C17.2248 5.54735 19.419 8.1915 19.6765 11.3748ZM12.6082 4.32233C14.0715 6.49816 14.924 8.9665 15.0515 11.3748H8.94818C9.07485 8.9665 9.92816 6.49816 11.3915 4.32233C11.5932 4.30649 11.7948 4.2915 11.9998 4.2915C12.2048 4.2915 12.4073 4.30649 12.6082 4.32233ZM9.72735 4.63401C8.51068 6.75985 7.80735 9.089 7.69818 11.3748H4.32317C4.58067 8.1915 6.77485 5.54735 9.72735 4.63401ZM4.32317 12.6248H7.69818C7.80735 14.9107 8.51068 17.2398 9.72735 19.3657C6.77485 18.4523 4.58067 15.8082 4.32317 12.6248ZM11.3915 19.6773C9.92816 17.5015 9.07568 15.0332 8.94818 12.6248H15.0515C14.9248 15.0332 14.0715 17.5015 12.6082 19.6773C12.4065 19.6932 12.2048 19.7082 11.9998 19.7082C11.7948 19.7082 11.5923 19.6932 11.3915 19.6773ZM14.2723 19.3657C15.489 17.2398 16.1923 14.9107 16.3015 12.6248H19.6765C19.419 15.8082 17.2248 18.4523 14.2723 19.3657Z" fill="white"/>
</svg>
