<svg width="16" height="16" viewBox="0 0 16 16" fill="none" xmlns="http://www.w3.org/2000/svg">
<path d="M11.6597 5.90674L8.01302 8L4.34635 5.90674C3.71969 5.55341 3.33301 5.33334 3.33301 4.17334V3C3.33301 2.44667 3.77967 2 4.33301 2H11.6663C12.2197 2 12.6663 2.44667 12.6663 3V4.17334C12.6663 5.33334 12.2797 5.55341 11.6597 5.90674ZM3.33301 11.8267V13C3.33301 13.5533 3.77967 14 4.33301 14H11.6663C12.2197 14 12.6663 13.5533 12.6663 13V11.8267C12.6663 10.6667 12.2797 10.4466 11.6597 10.0933L8.01302 8L4.34635 10.0933C3.71969 10.4466 3.33301 10.6667 3.33301 11.8267Z" fill="white"/>
</svg>
