<svg width="394" height="136" viewBox="0 0 394 136" fill="none" xmlns="http://www.w3.org/2000/svg">
<g opacity="0.06">
<path d="M-261.267 221.315C-262.048 220.534 -263.314 220.534 -264.096 221.315L-265.707 222.926C-266.488 223.707 -266.488 224.974 -265.707 225.755L-264.095 227.366C-263.314 228.147 -262.048 228.147 -261.267 227.366L-259.656 225.755C-258.875 224.974 -258.875 223.707 -259.656 222.926L-261.267 221.315Z" fill="white"/>
<path d="M-222.932 259.106C-223.713 258.325 -224.979 258.325 -225.76 259.106L-227.915 261.262C-228.697 262.043 -228.697 263.309 -227.915 264.09L-225.76 266.245C-224.979 267.026 -223.713 267.026 -222.932 266.245L-220.777 264.09C-219.996 263.309 -219.996 262.043 -220.777 261.262L-222.932 259.106Z" fill="white"/>
<path d="M-184.597 296.943C-185.378 296.162 -186.644 296.162 -187.425 296.943L-190.079 299.597C-190.86 300.378 -190.86 301.644 -190.079 302.425L-187.425 305.079C-186.644 305.86 -185.378 305.86 -184.597 305.079L-181.943 302.425C-181.162 301.644 -181.162 300.378 -181.943 299.597L-184.597 296.943Z" fill="white"/>
<path d="M-146.262 335.777C-147.043 334.996 -148.309 334.996 -149.09 335.777L-151.245 337.932C-152.026 338.713 -152.026 339.979 -151.245 340.76L-149.09 342.915C-148.309 343.696 -147.043 343.696 -146.262 342.915L-144.106 340.76C-143.325 339.979 -143.325 338.713 -144.106 337.932L-146.262 335.777Z" fill="white"/>
<path d="M-107.926 374.656C-108.707 373.874 -109.974 373.874 -110.755 374.656L-112.366 376.267C-113.147 377.048 -113.147 378.314 -112.366 379.095L-110.755 380.707C-109.974 381.488 -108.707 381.488 -107.926 380.707L-106.315 379.095C-105.534 378.314 -105.534 377.048 -106.315 376.267L-107.926 374.656Z" fill="white"/>
<path d="M-299.602 105.766C-300.383 104.985 -301.65 104.985 -302.431 105.766L-304.586 107.921C-305.367 108.702 -305.367 109.968 -304.586 110.749L-302.431 112.905C-301.65 113.686 -300.383 113.686 -299.602 112.905L-297.447 110.749C-296.666 109.968 -296.666 108.702 -297.447 107.921L-299.602 105.766Z" fill="white"/>
<path d="M-261.267 143.059C-262.048 142.278 -263.314 142.278 -264.095 143.059L-267.293 146.256C-268.074 147.037 -268.074 148.303 -267.293 149.085L-264.095 152.282C-263.314 153.063 -262.048 153.063 -261.267 152.282L-258.07 149.085C-257.289 148.303 -257.289 147.037 -258.07 146.256L-261.267 143.059Z" fill="white"/>
<path d="M-222.932 180.352C-223.713 179.571 -224.979 179.571 -225.76 180.352L-229.999 184.591C-230.781 185.372 -230.781 186.639 -230 187.42L-225.76 191.659C-224.979 192.44 -223.713 192.44 -222.932 191.659L-218.693 187.42C-217.912 186.639 -217.912 185.372 -218.693 184.591L-222.932 180.352Z" fill="white"/>
<path d="M-184.597 217.6C-185.378 216.819 -186.644 216.819 -187.425 217.6L-192.752 222.926C-193.533 223.707 -193.533 224.974 -192.752 225.755L-187.425 231.081C-186.644 231.862 -185.378 231.862 -184.597 231.081L-179.27 225.755C-178.489 224.974 -178.489 223.707 -179.27 222.926L-184.597 217.6Z" fill="white"/>
<path d="M-146.262 254.893C-147.043 254.112 -148.309 254.112 -149.09 254.893L-155.459 261.262C-156.24 262.043 -156.24 263.309 -155.459 264.09L-149.09 270.458C-148.309 271.24 -147.043 271.24 -146.262 270.458L-139.893 264.09C-139.112 263.309 -139.112 262.043 -139.893 261.262L-146.262 254.893Z" fill="white"/>
<path d="M-107.926 294.27C-108.707 293.489 -109.974 293.489 -110.755 294.27L-116.081 299.597C-116.862 300.378 -116.862 301.644 -116.081 302.425L-110.755 307.752C-109.974 308.533 -108.707 308.533 -107.926 307.752L-102.6 302.425C-101.819 301.644 -101.819 300.378 -102.6 299.597L-107.926 294.27Z" fill="white"/>
<path d="M-69.5913 333.693C-70.3723 332.912 -71.6387 332.912 -72.4197 333.693L-76.6589 337.932C-77.4399 338.713 -77.4399 339.979 -76.6589 340.76L-72.4197 344.999C-71.6386 345.781 -70.3723 345.781 -69.5912 344.999L-65.3521 340.76C-64.571 339.979 -64.571 338.713 -65.3521 337.932L-69.5913 333.693Z" fill="white"/>
<path d="M-31.2561 373.07C-32.0372 372.289 -33.3035 372.289 -34.0845 373.07L-37.2817 376.267C-38.0627 377.048 -38.0627 378.314 -37.2817 379.095L-34.0845 382.293C-33.3035 383.074 -32.0372 383.074 -31.2561 382.293L-28.059 379.095C-27.2779 378.314 -27.2779 377.048 -28.059 376.267L-31.2561 373.07Z" fill="white"/>
<path d="M7.07904 412.447C6.298 411.666 5.03168 411.666 4.25061 412.447L2.09546 414.602C1.31442 415.383 1.31442 416.65 2.09546 417.431L4.25064 419.586C5.03168 420.367 6.29803 420.367 7.07907 419.586L9.23422 417.431C10.0153 416.65 10.0153 415.383 9.23422 414.602L7.07904 412.447Z" fill="white"/>
<path d="M-299.602 29.0955C-300.383 28.3144 -301.65 28.3144 -302.431 29.0955L-304.586 31.2506C-305.367 32.0317 -305.367 33.298 -304.586 34.079L-302.431 36.2342C-301.65 37.0152 -300.383 37.0152 -299.602 36.2342L-297.447 34.079C-296.666 33.298 -296.666 32.0317 -297.447 31.2506L-299.602 29.0955Z" fill="white"/>
<path d="M-261.267 65.8449C-262.048 65.0639 -263.314 65.0639 -264.095 65.8449L-267.836 69.5858C-268.617 70.3668 -268.617 71.6331 -267.836 72.4142L-264.095 76.155C-263.314 76.9361 -262.048 76.9361 -261.267 76.155L-257.526 72.4142C-256.745 71.6331 -256.745 70.3668 -257.526 69.5858L-261.267 65.8449Z" fill="white"/>
<path d="M-222.932 102.594C-223.713 101.813 -224.979 101.813 -225.76 102.594L-231.087 107.921C-231.868 108.702 -231.868 109.968 -231.087 110.749L-225.76 116.076C-224.979 116.857 -223.713 116.857 -222.932 116.076L-217.605 110.749C-216.824 109.968 -216.824 108.702 -217.605 107.921L-222.932 102.594Z" fill="white"/>
<path d="M-184.597 139.389C-185.378 138.608 -186.644 138.608 -187.425 139.389L-194.292 146.256C-195.073 147.037 -195.073 148.303 -194.292 149.085L-187.425 155.951C-186.644 156.732 -185.378 156.732 -184.597 155.951L-177.73 149.085C-176.949 148.303 -176.949 147.037 -177.73 146.256L-184.597 139.389Z" fill="white"/>
<path d="M-146.262 176.139C-147.043 175.358 -148.309 175.358 -149.09 176.139L-157.543 184.591C-158.324 185.372 -158.324 186.639 -157.543 187.42L-149.09 195.872C-148.309 196.653 -147.043 196.653 -146.262 195.872L-137.809 187.42C-137.028 186.639 -137.028 185.372 -137.809 184.591L-146.262 176.139Z" fill="white"/>
<path d="M-107.926 212.888C-108.707 212.107 -109.974 212.107 -110.755 212.888L-120.793 222.926C-121.574 223.707 -121.574 224.974 -120.793 225.755L-110.755 235.793C-109.974 236.574 -108.707 236.574 -107.926 235.793L-97.8882 225.755C-97.1071 224.974 -97.1071 223.707 -97.8882 222.926L-107.926 212.888Z" fill="white"/>
<path d="M-69.5913 252.809C-70.3723 252.028 -71.6387 252.028 -72.4197 252.809L-80.8723 261.262C-81.6533 262.043 -81.6533 263.309 -80.8723 264.09L-72.4197 272.543C-71.6387 273.324 -70.3723 273.324 -69.5913 272.543L-61.1387 264.09C-60.3577 263.309 -60.3577 262.043 -61.1387 261.262L-69.5913 252.809Z" fill="white"/>
<path d="M-31.2561 292.73C-32.0372 291.949 -33.3035 291.949 -34.0845 292.73L-40.9514 299.597C-41.7325 300.378 -41.7325 301.644 -40.9514 302.425L-34.0845 309.292C-33.3035 310.073 -32.0371 310.073 -31.2561 309.292L-24.3892 302.425C-23.6082 301.644 -23.6082 300.378 -24.3892 299.597L-31.2561 292.73Z" fill="white"/>
<path d="M7.07907 332.605C6.29803 331.824 5.03168 331.824 4.25064 332.605L-1.07587 337.932C-1.8569 338.713 -1.8569 339.979 -1.07587 340.76L4.25061 346.087C5.03168 346.868 6.298 346.868 7.07904 346.087L12.4055 340.76C13.1866 339.979 13.1866 338.713 12.4055 337.932L7.07907 332.605Z" fill="white"/>
<path d="M45.4142 372.526C44.6331 371.745 43.3668 371.745 42.5858 372.526L38.845 376.267C38.0639 377.048 38.0639 378.314 38.845 379.095L42.5858 382.836C43.3668 383.617 44.6331 383.617 45.4142 382.836L49.155 379.095C49.9361 378.314 49.9361 377.048 49.155 376.267L45.4142 372.526Z" fill="white"/>
<path d="M83.7494 412.447C82.9683 411.666 81.702 411.666 80.9209 412.447L78.7658 414.602C77.9847 415.383 77.9847 416.65 78.7658 417.431L80.9209 419.586C81.702 420.367 82.9683 420.367 83.7494 419.586L85.9045 417.431C86.6855 416.65 86.6855 415.383 85.9045 414.602L83.7494 412.447Z" fill="white"/>
<path d="M-261.267 -10.2817C-262.048 -11.0627 -263.314 -11.0627 -264.095 -10.2817L-267.293 -7.08453C-268.074 -6.3035 -268.074 -5.03717 -267.293 -4.2561L-264.095 -1.05896C-263.314 -0.277924 -262.048 -0.277924 -261.267 -1.05896L-258.07 -4.2561C-257.289 -5.03717 -257.289 -6.3035 -258.07 -7.08453L-261.267 -10.2817Z" fill="white"/>
<path d="M-222.932 25.9241C-223.713 25.1431 -224.979 25.1431 -225.76 25.9241L-231.087 31.2506C-231.868 32.0316 -231.868 33.298 -231.087 34.079L-225.76 39.4055C-224.979 40.1866 -223.713 40.1866 -222.932 39.4055L-217.605 34.079C-216.824 33.298 -216.824 32.0317 -217.605 31.2506L-222.932 25.9241Z" fill="white"/>
<path d="M-184.597 62.1752C-185.378 61.3942 -186.644 61.3942 -187.425 62.1752L-194.836 69.5858C-195.617 70.3668 -195.617 71.6331 -194.836 72.4142L-187.425 79.8247C-186.644 80.6058 -185.378 80.6058 -184.597 79.8247L-177.186 72.4142C-176.405 71.6331 -176.405 70.3668 -177.186 69.5858L-184.597 62.1752Z" fill="white"/>
<path d="M-146.262 98.381C-147.043 97.6 -148.309 97.6 -149.09 98.381L-158.63 107.921C-159.411 108.702 -159.411 109.968 -158.63 110.749L-149.09 120.289C-148.309 121.07 -147.043 121.07 -146.262 120.289L-136.722 110.749C-135.941 109.968 -135.941 108.702 -136.722 107.921L-146.262 98.381Z" fill="white"/>
<path d="M-107.926 134.632C-108.707 133.851 -109.974 133.851 -110.755 134.632L-122.379 146.256C-123.16 147.037 -123.16 148.303 -122.379 149.085L-110.755 160.708C-109.974 161.489 -108.707 161.489 -107.926 160.708L-96.3025 149.085C-95.5214 148.303 -95.5214 147.037 -96.3025 146.256L-107.926 134.632Z" fill="white"/>
<path d="M-69.5913 170.838C-70.3723 170.057 -71.6386 170.057 -72.4197 170.838L-86.173 184.591C-86.954 185.372 -86.954 186.639 -86.173 187.42L-72.4197 201.173C-71.6386 201.954 -70.3723 201.954 -69.5912 201.173L-55.838 187.42C-55.0569 186.639 -55.0569 185.372 -55.838 184.591L-69.5913 170.838Z" fill="white"/>
<path d="M-31.2561 211.302C-32.0372 210.521 -33.3035 210.521 -34.0845 211.302L-45.7085 222.926C-46.4895 223.707 -46.4895 224.974 -45.7085 225.755L-34.0845 237.379C-33.3035 238.16 -32.0371 238.16 -31.2561 237.379L-19.6322 225.755C-18.8511 224.974 -18.8511 223.707 -19.6322 222.926L-31.2561 211.302Z" fill="white"/>
<path d="M7.07904 251.722C6.298 250.941 5.03168 250.941 4.25061 251.722L-5.28928 261.262C-6.07031 262.043 -6.07031 263.309 -5.28928 264.09L4.25064 273.63C5.03168 274.411 6.29803 274.411 7.07907 273.63L16.619 264.09C17.4 263.309 17.4 262.043 16.619 261.262L7.07904 251.722Z" fill="white"/>
<path d="M45.4142 292.186C44.6331 291.405 43.3668 291.405 42.5858 292.186L35.1752 299.597C34.3942 300.378 34.3942 301.644 35.1752 302.425L42.5858 309.836C43.3669 310.617 44.6332 310.617 45.4142 309.836L52.8248 302.425C53.6058 301.644 53.6058 300.378 52.8248 299.597L45.4142 292.186Z" fill="white"/>
<path d="M83.7494 332.605C82.9683 331.824 81.702 331.824 80.9209 332.605L75.5944 337.932C74.8134 338.713 74.8134 339.979 75.5944 340.76L80.921 346.087C81.702 346.868 82.9683 346.868 83.7494 346.087L89.0759 340.76C89.8569 339.979 89.8569 338.713 89.0759 337.932L83.7494 332.605Z" fill="white"/>
<path d="M122.085 373.07C121.303 372.289 120.037 372.289 119.256 373.07L116.059 376.267C115.278 377.048 115.278 378.314 116.059 379.095L119.256 382.293C120.037 383.074 121.303 383.074 122.085 382.293L125.282 379.095C126.063 378.314 126.063 377.048 125.282 376.267L122.085 373.07Z" fill="white"/>
<path d="M-261.267 -85.3663C-262.048 -86.1474 -263.314 -86.1474 -264.095 -85.3663L-265.707 -83.7549C-266.488 -82.9738 -266.488 -81.7075 -265.707 -80.9264L-264.095 -79.3149C-263.314 -78.5339 -262.048 -78.5339 -261.267 -79.3149L-259.656 -80.9264C-258.875 -81.7075 -258.875 -82.9738 -259.656 -83.7549L-261.267 -85.3663Z" fill="white"/>
<path d="M-222.932 -49.6589C-223.713 -50.4399 -224.979 -50.4399 -225.76 -49.6589L-230 -45.4197C-230.781 -44.6386 -230.781 -43.3723 -230 -42.5913L-225.76 -38.3521C-224.979 -37.571 -223.713 -37.571 -222.932 -38.3521L-218.693 -42.5913C-217.912 -43.3723 -217.912 -44.6386 -218.693 -45.4197L-222.932 -49.6589Z" fill="white"/>
<path d="M-184.597 -13.9514C-185.378 -14.7325 -186.644 -14.7325 -187.425 -13.9514L-194.292 -7.08453C-195.073 -6.3035 -195.073 -5.03717 -194.292 -4.2561L-187.425 2.61075C-186.644 3.39182 -185.378 3.39182 -184.597 2.61075L-177.73 -4.2561C-176.949 -5.03717 -176.949 -6.3035 -177.73 -7.08453L-184.597 -13.9514Z" fill="white"/>
<path d="M-146.262 21.7107C-147.043 20.9297 -148.309 20.9297 -149.09 21.7107L-158.63 31.2506C-159.411 32.0317 -159.411 33.298 -158.63 34.079L-149.09 43.6189C-148.309 44.4 -147.043 44.4 -146.262 43.6189L-136.722 34.079C-135.941 33.298 -135.941 32.0317 -136.722 31.2506L-146.262 21.7107Z" fill="white"/>
<path d="M-107.926 57.4182C-108.707 56.6371 -109.974 56.6371 -110.755 57.4182L-122.922 69.5858C-123.703 70.3668 -123.703 71.6331 -122.922 72.4142L-110.755 84.5818C-109.974 85.3628 -108.707 85.3628 -107.926 84.5818L-95.7589 72.4142C-94.9778 71.6331 -94.9778 70.3668 -95.7589 69.5858L-107.926 57.4182Z" fill="white"/>
<path d="M-69.5913 93.1256C-70.3723 92.3446 -71.6387 92.3446 -72.4197 93.1256L-87.215 107.921C-87.996 108.702 -87.996 109.968 -87.215 110.749L-72.4197 125.545C-71.6386 126.326 -70.3723 126.326 -69.5913 125.545L-54.796 110.749C-54.0149 109.968 -54.0149 108.702 -54.796 107.921L-69.5913 93.1256Z" fill="white"/>
<path d="M-31.2561 128.833C-32.0372 128.052 -33.3035 128.052 -34.0845 128.833L-51.5076 146.256C-52.2886 147.037 -52.2886 148.303 -51.5076 149.085L-34.0845 166.508C-33.3035 167.289 -32.0372 167.289 -31.2561 166.508L-13.8331 149.085C-13.0521 148.303 -13.0521 147.037 -13.8331 146.256L-31.2561 128.833Z" fill="white"/>
<path d="M7.07904 169.796C6.298 169.015 5.03168 169.015 4.25061 169.796L-10.5447 184.591C-11.3257 185.372 -11.3257 186.639 -10.5447 187.42L4.25061 202.215C5.03168 202.996 6.298 202.996 7.07904 202.215L21.8743 187.42C22.6554 186.639 22.6554 185.372 21.8743 184.591L7.07904 169.796Z" fill="white"/>
<path d="M45.4142 210.759C44.6331 209.978 43.3668 209.978 42.5858 210.759L30.4182 222.926C29.6371 223.707 29.6371 224.974 30.4182 225.755L42.5858 237.922C43.3669 238.703 44.6332 238.703 45.4142 237.922L57.5818 225.755C58.3629 224.974 58.3628 223.707 57.5818 222.926L45.4142 210.759Z" fill="white"/>
<path d="M83.7494 251.722C82.9683 250.941 81.702 250.941 80.9209 251.722L71.381 261.262C70.6 262.043 70.6 263.309 71.381 264.09L80.9209 273.63C81.702 274.411 82.9683 274.411 83.7494 273.63L93.2892 264.09C94.0703 263.309 94.0703 262.043 93.2892 261.262L83.7494 251.722Z" fill="white"/>
<path d="M122.085 292.73C121.303 291.949 120.037 291.949 119.256 292.73L112.389 299.597C111.608 300.378 111.608 301.644 112.389 302.425L119.256 309.292C120.037 310.073 121.303 310.073 122.085 309.292L128.951 302.425C129.732 301.644 129.732 300.378 128.951 299.597L122.085 292.73Z" fill="white"/>
<path d="M160.42 333.693C159.639 332.912 158.372 332.912 157.591 333.693L153.352 337.932C152.571 338.713 152.571 339.979 153.352 340.76L157.591 344.999C158.372 345.781 159.639 345.781 160.42 344.999L164.659 340.76C165.44 339.979 165.44 338.713 164.659 337.932L160.42 333.693Z" fill="white"/>
<path d="M198.755 374.656C197.974 373.875 196.707 373.875 195.926 374.656L194.315 376.267C193.534 377.048 193.534 378.314 194.315 379.095L195.926 380.707C196.707 381.488 197.974 381.488 198.755 380.707L200.366 379.095C201.147 378.314 201.147 377.048 200.366 376.267L198.755 374.656Z" fill="white"/>
<path d="M-222.932 -124.245C-223.713 -125.026 -224.979 -125.026 -225.76 -124.245L-227.915 -122.09C-228.697 -121.309 -228.697 -120.043 -227.915 -119.262L-225.76 -117.106C-224.979 -116.325 -223.713 -116.325 -222.932 -117.106L-220.777 -119.262C-219.996 -120.043 -219.996 -121.309 -220.777 -122.09L-222.932 -124.245Z" fill="white"/>
<path d="M-184.597 -89.0814C-185.378 -89.8624 -186.644 -89.8624 -187.425 -89.0814L-192.752 -83.7549C-193.533 -82.9738 -193.533 -81.7075 -192.752 -80.9264L-187.425 -75.5999C-186.644 -74.8189 -185.378 -74.8189 -184.597 -75.5999L-179.27 -80.9264C-178.489 -81.7075 -178.489 -82.9738 -179.27 -83.7549L-184.597 -89.0814Z" fill="white"/>
<path d="M-146.262 -53.8723C-147.043 -54.6533 -148.309 -54.6533 -149.09 -53.8723L-157.543 -45.4197C-158.324 -44.6386 -158.324 -43.3723 -157.543 -42.5913L-149.09 -34.1387C-148.309 -33.3577 -147.043 -33.3577 -146.262 -34.1387L-137.809 -42.5913C-137.028 -43.3723 -137.028 -44.6386 -137.809 -45.4197L-146.262 -53.8723Z" fill="white"/>
<path d="M-107.926 -18.7085C-108.707 -19.4895 -109.974 -19.4895 -110.755 -18.7085L-122.379 -7.08453C-123.16 -6.3035 -123.16 -5.03717 -122.379 -4.2561L-110.755 7.3678C-109.974 8.14886 -108.707 8.14886 -107.926 7.3678L-96.3025 -4.2561C-95.5214 -5.03717 -95.5214 -6.3035 -96.3025 -7.08453L-107.926 -18.7085Z" fill="white"/>
<path d="M-69.5913 16.4553C-70.3723 15.6743 -71.6387 15.6743 -72.4197 16.4553L-87.215 31.2506C-87.996 32.0317 -87.996 33.298 -87.215 34.079L-72.4197 48.8743C-71.6387 49.6554 -70.3723 49.6554 -69.5913 48.8743L-54.796 34.079C-54.0149 33.298 -54.0149 32.0316 -54.796 31.2506L-69.5913 16.4553Z" fill="white"/>
<path d="M-31.2561 51.6191C-32.0372 50.8381 -33.3035 50.8381 -34.0845 51.6191L-52.0512 69.5858C-52.8322 70.3668 -52.8322 71.6331 -52.0512 72.4142L-34.0845 90.3809C-33.3035 91.1619 -32.0372 91.1619 -31.2561 90.3809L-13.2895 72.4142C-12.5084 71.6331 -12.5084 70.3668 -13.2895 69.5858L-31.2561 51.6191Z" fill="white"/>
<path d="M7.07904 86.8282C6.298 86.0472 5.03168 86.0472 4.25061 86.8282L-16.8421 107.921C-17.6231 108.702 -17.6231 109.968 -16.8421 110.749L4.25061 131.842C5.03168 132.623 6.298 132.623 7.07904 131.842L28.1718 110.749C28.9528 109.968 28.9528 108.702 28.1718 107.921L7.07904 86.8282Z" fill="white"/>
<path d="M45.4142 128.289C44.6331 127.508 43.3668 127.508 42.5858 128.289L24.6191 146.256C23.8381 147.037 23.8381 148.303 24.6191 149.085L42.5858 167.051C43.3668 167.832 44.6331 167.832 45.4142 167.051L63.3809 149.085C64.1619 148.303 64.1619 147.037 63.3809 146.256L45.4142 128.289Z" fill="white"/>
<path d="M83.7494 169.796C82.9683 169.015 81.702 169.015 80.9209 169.796L66.1256 184.591C65.3446 185.372 65.3446 186.639 66.1256 187.42L80.9209 202.215C81.702 202.996 82.9683 202.996 83.7494 202.215L98.5447 187.42C99.3257 186.639 99.3257 185.372 98.5447 184.591L83.7494 169.796Z" fill="white"/>
<path d="M122.085 211.302C121.303 210.521 120.037 210.521 119.256 211.302L107.632 222.926C106.851 223.707 106.851 224.974 107.632 225.755L119.256 237.379C120.037 238.16 121.303 238.16 122.085 237.379L133.708 225.755C134.49 224.974 134.49 223.707 133.708 222.926L122.085 211.302Z" fill="white"/>
<path d="M160.42 252.809C159.639 252.028 158.372 252.028 157.591 252.809L149.139 261.262C148.358 262.043 148.358 263.309 149.139 264.09L157.591 272.543C158.372 273.324 159.639 273.324 160.42 272.543L168.872 264.09C169.653 263.309 169.653 262.043 168.872 261.262L160.42 252.809Z" fill="white"/>
<path d="M198.755 294.27C197.974 293.489 196.707 293.489 195.926 294.27L190.6 299.597C189.819 300.378 189.819 301.644 190.6 302.425L195.926 307.752C196.707 308.533 197.974 308.533 198.755 307.752L204.081 302.425C204.862 301.644 204.862 300.378 204.081 299.597L198.755 294.27Z" fill="white"/>
<path d="M237.09 335.777C236.309 334.996 235.043 334.996 234.262 335.777L232.106 337.932C231.325 338.713 231.325 339.979 232.106 340.76L234.262 342.915C235.043 343.696 236.309 343.696 237.09 342.915L239.245 340.76C240.026 339.979 240.026 338.713 239.245 337.932L237.09 335.777Z" fill="white"/>
<path d="M-184.597 -163.079C-185.378 -163.86 -186.644 -163.86 -187.425 -163.079L-190.079 -160.425C-190.86 -159.644 -190.86 -158.378 -190.079 -157.597L-187.425 -154.943C-186.644 -154.162 -185.378 -154.162 -184.597 -154.943L-181.943 -157.597C-181.162 -158.378 -181.162 -159.644 -181.943 -160.425L-184.597 -163.079Z" fill="white"/>
<path d="M-146.262 -128.459C-147.043 -129.24 -148.309 -129.24 -149.09 -128.459L-155.459 -122.09C-156.24 -121.309 -156.24 -120.043 -155.459 -119.262L-149.09 -112.893C-148.309 -112.112 -147.043 -112.112 -146.262 -112.893L-139.893 -119.262C-139.112 -120.043 -139.112 -121.309 -139.893 -122.09L-146.262 -128.459Z" fill="white"/>
<path d="M-107.926 -93.7931C-108.707 -94.5741 -109.974 -94.5741 -110.755 -93.7931L-120.793 -83.7549C-121.574 -82.9738 -121.574 -81.7075 -120.793 -80.9264L-110.755 -70.8882C-109.974 -70.1071 -108.707 -70.1071 -107.926 -70.8882L-97.8882 -80.9264C-97.1071 -81.7075 -97.1071 -82.9738 -97.8882 -83.7548L-107.926 -93.7931Z" fill="white"/>
<path d="M-69.5912 -59.173C-70.3723 -59.954 -71.6386 -59.954 -72.4197 -59.173L-86.173 -45.4197C-86.954 -44.6386 -86.954 -43.3723 -86.173 -42.5913L-72.4197 -28.838C-71.6386 -28.0569 -70.3723 -28.0569 -69.5913 -28.838L-55.838 -42.5913C-55.0569 -43.3723 -55.0569 -44.6386 -55.838 -45.4197L-69.5912 -59.173Z" fill="white"/>
<path d="M-31.2561 -24.5075C-32.0372 -25.2886 -33.3035 -25.2886 -34.0845 -24.5075L-51.5076 -7.08453C-52.2886 -6.3035 -52.2886 -5.03717 -51.5076 -4.2561L-34.0845 13.1669C-33.3035 13.9479 -32.0372 13.9479 -31.2561 13.1669L-13.8331 -4.2561C-13.0521 -5.03717 -13.0521 -6.3035 -13.8331 -7.08453L-31.2561 -24.5075Z" fill="white"/>
<path d="M7.07904 10.1579C6.298 9.37686 5.03168 9.37686 4.25061 10.1579L-16.8421 31.2506C-17.6231 32.0316 -17.6231 33.298 -16.8421 34.079L4.25061 55.1718C5.03168 55.9528 6.298 55.9528 7.07904 55.1718L28.1718 34.079C28.9528 33.298 28.9528 32.0317 28.1718 31.2506L7.07904 10.1579Z" fill="white"/>
<path d="M45.4142 44.778C44.6331 43.997 43.3668 43.997 42.5858 44.778L17.778 69.5858C16.997 70.3668 16.997 71.6331 17.778 72.4142L42.5858 97.2219C43.3668 98.003 44.6331 98.003 45.4142 97.2219L70.2219 72.4142C71.003 71.6331 71.003 70.3668 70.2219 69.5858L45.4142 44.778Z" fill="white"/>
<path d="M83.7494 86.8282C82.9683 86.0472 81.702 86.0472 80.9209 86.8282L59.8282 107.921C59.0472 108.702 59.0472 109.968 59.8282 110.749L80.9209 131.842C81.702 132.623 82.9683 132.623 83.7494 131.842L104.842 110.749C105.623 109.968 105.623 108.702 104.842 107.921L83.7494 86.8282Z" fill="white"/>
<path d="M122.085 128.833C121.303 128.052 120.037 128.052 119.256 128.833L101.833 146.256C101.052 147.037 101.052 148.303 101.833 149.085L119.256 166.508C120.037 167.289 121.303 167.289 122.085 166.508L139.507 149.084C140.289 148.303 140.289 147.037 139.507 146.256L122.085 128.833Z" fill="white"/>
<path d="M160.42 170.838C159.639 170.057 158.372 170.057 157.591 170.838L143.838 184.591C143.057 185.372 143.057 186.639 143.838 187.42L157.591 201.173C158.372 201.954 159.639 201.954 160.42 201.173L174.173 187.42C174.954 186.639 174.954 185.372 174.173 184.591L160.42 170.838Z" fill="white"/>
<path d="M198.755 212.888C197.974 212.107 196.707 212.107 195.926 212.888L185.888 222.926C185.107 223.707 185.107 224.974 185.888 225.755L195.926 235.793C196.707 236.574 197.974 236.574 198.755 235.793L208.793 225.755C209.574 224.974 209.574 223.707 208.793 222.926L198.755 212.888Z" fill="white"/>
<path d="M237.09 254.893C236.309 254.112 235.043 254.112 234.262 254.893L227.893 261.262C227.112 262.043 227.112 263.309 227.893 264.09L234.262 270.458C235.043 271.24 236.309 271.24 237.09 270.458L243.458 264.09C244.24 263.309 244.24 262.043 243.458 261.262L237.09 254.893Z" fill="white"/>
<path d="M275.425 296.943C274.644 296.162 273.378 296.162 272.597 296.943L269.943 299.597C269.162 300.378 269.162 301.644 269.943 302.425L272.597 305.079C273.378 305.86 274.644 305.86 275.425 305.079L278.079 302.425C278.86 301.644 278.86 300.378 278.079 299.597L275.425 296.943Z" fill="white"/>
<path d="M-146.262 -200.915C-147.043 -201.696 -148.309 -201.696 -149.09 -200.915L-151.245 -198.76C-152.026 -197.979 -152.026 -196.713 -151.245 -195.932L-149.09 -193.777C-148.309 -192.996 -147.043 -192.996 -146.262 -193.777L-144.106 -195.932C-143.325 -196.713 -143.325 -197.979 -144.106 -198.76L-146.262 -200.915Z" fill="white"/>
<path d="M-107.926 -165.752C-108.707 -166.533 -109.974 -166.533 -110.755 -165.752L-116.081 -160.425C-116.862 -159.644 -116.862 -158.378 -116.081 -157.597L-110.755 -152.27C-109.974 -151.489 -108.707 -151.489 -107.926 -152.27L-102.6 -157.597C-101.819 -158.378 -101.819 -159.644 -102.6 -160.425L-107.926 -165.752Z" fill="white"/>
<path d="M-69.5913 -130.543C-70.3723 -131.324 -71.6386 -131.324 -72.4197 -130.543L-80.8723 -122.09C-81.6533 -121.309 -81.6533 -120.043 -80.8723 -119.262L-72.4197 -110.809C-71.6387 -110.028 -70.3723 -110.028 -69.5913 -110.809L-61.1387 -119.262C-60.3577 -120.043 -60.3577 -121.309 -61.1387 -122.09L-69.5913 -130.543Z" fill="white"/>
<path d="M-31.2561 -95.3788C-32.0371 -96.1598 -33.3035 -96.1598 -34.0845 -95.3788L-45.7085 -83.7549C-46.4895 -82.9738 -46.4895 -81.7075 -45.7085 -80.9264L-34.0845 -69.3025C-33.3035 -68.5215 -32.0372 -68.5215 -31.2561 -69.3025L-19.6322 -80.9264C-18.8511 -81.7075 -18.8511 -82.9738 -19.6322 -83.7549L-31.2561 -95.3788Z" fill="white"/>
<path d="M7.07904 -60.215C6.298 -60.996 5.03168 -60.996 4.25061 -60.215L-10.5447 -45.4197C-11.3257 -44.6386 -11.3257 -43.3723 -10.5447 -42.5913L4.25061 -27.796C5.03168 -27.0149 6.298 -27.0149 7.07904 -27.796L21.8743 -42.5913C22.6554 -43.3723 22.6554 -44.6387 21.8743 -45.4197L7.07904 -60.215Z" fill="white"/>
<path d="M45.4142 -25.0512C44.6331 -25.8322 43.3668 -25.8322 42.5858 -25.0512L24.6191 -7.08453C23.8381 -6.3035 23.8381 -5.03717 24.6191 -4.2561L42.5858 13.7105C43.3668 14.4916 44.6331 14.4916 45.4142 13.7105L63.3809 -4.2561C64.1619 -5.03717 64.1619 -6.3035 63.3809 -7.08453L45.4142 -25.0512Z" fill="white"/>
<path d="M83.7494 10.1579C82.9683 9.37686 81.702 9.37686 80.9209 10.1579L59.8282 31.2506C59.0472 32.0317 59.0472 33.298 59.8282 34.079L80.9209 55.1718C81.702 55.9528 82.9683 55.9528 83.7494 55.1718L104.842 34.079C105.623 33.298 105.623 32.0316 104.842 31.2506L83.7494 10.1579Z" fill="white"/>
<path d="M122.085 51.6191C121.303 50.8381 120.037 50.8381 119.256 51.6191L101.289 69.5858C100.508 70.3668 100.508 71.6331 101.289 72.4142L119.256 90.3809C120.037 91.1619 121.303 91.1619 122.085 90.3809L140.051 72.4142C140.832 71.6331 140.832 70.3668 140.051 69.5858L122.085 51.6191Z" fill="white"/>
<path d="M160.42 93.1256C159.639 92.3445 158.372 92.3445 157.591 93.1256L142.796 107.921C142.015 108.702 142.015 109.968 142.796 110.749L157.591 125.545C158.372 126.326 159.639 126.326 160.42 125.545L175.215 110.749C175.996 109.968 175.996 108.702 175.215 107.921L160.42 93.1256Z" fill="white"/>
<path d="M198.755 134.632C197.974 133.851 196.707 133.851 195.926 134.632L184.302 146.256C183.521 147.037 183.521 148.303 184.302 149.084L195.926 160.708C196.707 161.489 197.974 161.489 198.755 160.708L210.379 149.084C211.16 148.303 211.16 147.037 210.379 146.256L198.755 134.632Z" fill="white"/>
<path d="M237.09 176.139C236.309 175.358 235.043 175.358 234.262 176.139L225.809 184.591C225.028 185.372 225.028 186.639 225.809 187.42L234.262 195.872C235.043 196.653 236.309 196.653 237.09 195.872L245.543 187.42C246.324 186.639 246.324 185.372 245.543 184.591L237.09 176.139Z" fill="white"/>
<path d="M275.425 217.6C274.644 216.819 273.378 216.819 272.597 217.6L267.27 222.926C266.489 223.707 266.489 224.974 267.27 225.755L272.597 231.081C273.378 231.862 274.644 231.862 275.425 231.081L280.752 225.755C281.533 224.974 281.533 223.707 280.752 222.926L275.425 217.6Z" fill="white"/>
<path d="M313.76 259.106C312.979 258.325 311.713 258.325 310.932 259.106L308.777 261.262C307.996 262.043 307.996 263.309 308.777 264.09L310.932 266.245C311.713 267.026 312.979 267.026 313.76 266.245L315.915 264.09C316.696 263.309 316.696 262.043 315.915 261.262L313.76 259.106Z" fill="white"/>
<path d="M-107.926 -238.707C-108.707 -239.488 -109.974 -239.488 -110.755 -238.707L-112.366 -237.095C-113.147 -236.314 -113.147 -235.048 -112.366 -234.267L-110.755 -232.656C-109.974 -231.875 -108.707 -231.875 -107.926 -232.656L-106.315 -234.267C-105.534 -235.048 -105.534 -236.314 -106.315 -237.095L-107.926 -238.707Z" fill="white"/>
<path d="M-69.5912 -203C-70.3723 -203.781 -71.6386 -203.781 -72.4197 -203L-76.6589 -198.76C-77.4399 -197.979 -77.4399 -196.713 -76.6589 -195.932L-72.4197 -191.693C-71.6387 -190.912 -70.3723 -190.912 -69.5913 -191.693L-65.3521 -195.932C-64.571 -196.713 -64.571 -197.979 -65.3521 -198.76L-69.5912 -203Z" fill="white"/>
<path d="M-31.2561 -167.292C-32.0371 -168.073 -33.3035 -168.073 -34.0845 -167.292L-40.9514 -160.425C-41.7325 -159.644 -41.7325 -158.378 -40.9514 -157.597L-34.0845 -150.73C-33.3035 -149.949 -32.0372 -149.949 -31.2561 -150.73L-24.3892 -157.597C-23.6082 -158.378 -23.6082 -159.644 -24.3892 -160.425L-31.2561 -167.292Z" fill="white"/>
<path d="M7.07907 -131.63C6.29803 -132.411 5.03168 -132.411 4.25064 -131.63L-5.28928 -122.09C-6.07031 -121.309 -6.07031 -120.043 -5.28928 -119.262L4.25061 -109.722C5.03168 -108.941 6.298 -108.941 7.07904 -109.722L16.619 -119.262C17.4 -120.043 17.4 -121.309 16.619 -122.09L7.07907 -131.63Z" fill="white"/>
<path d="M45.4142 -95.9225C44.6332 -96.7035 43.3669 -96.7035 42.5858 -95.9225L30.4182 -83.7548C29.6371 -82.9738 29.6371 -81.7075 30.4182 -80.9264L42.5858 -68.7588C43.3668 -67.9778 44.6331 -67.9778 45.4142 -68.7588L57.5818 -80.9264C58.3629 -81.7075 58.3628 -82.9738 57.5818 -83.7549L45.4142 -95.9225Z" fill="white"/>
<path d="M83.7494 -60.215C82.9683 -60.9961 81.702 -60.9961 80.9209 -60.215L66.1256 -45.4197C65.3446 -44.6386 65.3446 -43.3723 66.1256 -42.5913L80.9209 -27.796C81.702 -27.0149 82.9683 -27.0149 83.7494 -27.796L98.5447 -42.5913C99.3257 -43.3723 99.3257 -44.6387 98.5447 -45.4197L83.7494 -60.215Z" fill="white"/>
<path d="M122.085 -24.5075C121.303 -25.2886 120.037 -25.2886 119.256 -24.5075L101.833 -7.08456C101.052 -6.3035 101.052 -5.03717 101.833 -4.25613L119.256 13.1668C120.037 13.9479 121.303 13.9479 122.085 13.1668L139.507 -4.2561C140.289 -5.03717 140.289 -6.3035 139.507 -7.08453L122.085 -24.5075Z" fill="white"/>
<path d="M160.42 16.4553C159.639 15.6742 158.372 15.6742 157.591 16.4553L142.796 31.2506C142.015 32.0317 142.015 33.298 142.796 34.079L157.591 48.8744C158.372 49.6554 159.639 49.6554 160.42 48.8744L175.215 34.079C175.996 33.298 175.996 32.0316 175.215 31.2506L160.42 16.4553Z" fill="white"/>
<path d="M198.755 57.4182C197.974 56.6371 196.707 56.6371 195.926 57.4182L183.759 69.5858C182.978 70.3668 182.978 71.6331 183.759 72.4142L195.926 84.5818C196.707 85.3629 197.974 85.3629 198.755 84.5818L210.922 72.4142C211.703 71.6331 211.703 70.3668 210.922 69.5858L198.755 57.4182Z" fill="white"/>
<path d="M237.09 98.381C236.309 97.6 235.043 97.6 234.262 98.381L224.722 107.921C223.941 108.702 223.941 109.968 224.722 110.749L234.262 120.289C235.043 121.07 236.309 121.07 237.09 120.289L246.63 110.749C247.411 109.968 247.411 108.702 246.63 107.921L237.09 98.381Z" fill="white"/>
<path d="M275.425 139.389C274.644 138.608 273.378 138.608 272.597 139.389L265.73 146.256C264.949 147.037 264.949 148.303 265.73 149.085L272.597 155.951C273.378 156.732 274.644 156.732 275.425 155.951L282.292 149.084C283.073 148.303 283.073 147.037 282.292 146.256L275.425 139.389Z" fill="white"/>
<path d="M313.76 180.352C312.979 179.571 311.713 179.571 310.932 180.352L306.693 184.591C305.912 185.372 305.912 186.639 306.693 187.42L310.932 191.659C311.713 192.44 312.979 192.44 313.76 191.659L318 187.42C318.781 186.639 318.781 185.372 318 184.591L313.76 180.352Z" fill="white"/>
<path d="M352.095 221.315C351.314 220.534 350.048 220.534 349.267 221.315L347.656 222.926C346.875 223.707 346.875 224.974 347.656 225.755L349.267 227.366C350.048 228.147 351.314 228.147 352.095 227.366L353.707 225.755C354.488 224.974 354.488 223.707 353.707 222.926L352.095 221.315Z" fill="white"/>
<path d="M-31.2561 -240.293C-32.0372 -241.074 -33.3035 -241.074 -34.0845 -240.293L-37.2817 -237.095C-38.0627 -236.314 -38.0627 -235.048 -37.2817 -234.267L-34.0845 -231.07C-33.3035 -230.289 -32.0372 -230.289 -31.2561 -231.07L-28.059 -234.267C-27.2779 -235.048 -27.2779 -236.314 -28.059 -237.095L-31.2561 -240.293Z" fill="white"/>
<path d="M7.07904 -204.087C6.298 -204.868 5.03168 -204.868 4.25061 -204.087L-1.07587 -198.76C-1.8569 -197.979 -1.8569 -196.713 -1.07587 -195.932L4.25064 -190.605C5.03171 -189.824 6.29803 -189.824 7.07907 -190.605L12.4055 -195.932C13.1866 -196.713 13.1866 -197.979 12.4055 -198.76L7.07904 -204.087Z" fill="white"/>
<path d="M45.4142 -167.836C44.6332 -168.617 43.3669 -168.617 42.5858 -167.836L35.1752 -160.425C34.3942 -159.644 34.3942 -158.378 35.1752 -157.597L42.5858 -150.186C43.3668 -149.405 44.6331 -149.405 45.4142 -150.186L52.8248 -157.597C53.6058 -158.378 53.6058 -159.644 52.8248 -160.425L45.4142 -167.836Z" fill="white"/>
<path d="M83.7494 -131.63C82.9683 -132.411 81.702 -132.411 80.9209 -131.63L71.381 -122.09C70.6 -121.309 70.6 -120.043 71.381 -119.262L80.9209 -109.722C81.702 -108.941 82.9683 -108.941 83.7494 -109.722L93.2892 -119.262C94.0703 -120.043 94.0703 -121.309 93.2892 -122.09L83.7494 -131.63Z" fill="white"/>
<path d="M122.085 -95.3788C121.303 -96.1598 120.037 -96.1598 119.256 -95.3788L107.632 -83.7548C106.851 -82.9738 106.851 -81.7075 107.632 -80.9264L119.256 -69.3025C120.037 -68.5214 121.303 -68.5214 122.085 -69.3025L133.708 -80.9264C134.49 -81.7075 134.49 -82.9738 133.708 -83.7549L122.085 -95.3788Z" fill="white"/>
<path d="M160.42 -59.173C159.639 -59.954 158.372 -59.954 157.591 -59.173L143.838 -45.4197C143.057 -44.6387 143.057 -43.3723 143.838 -42.5913L157.591 -28.838C158.372 -28.057 159.639 -28.057 160.42 -28.838L174.173 -42.5913C174.954 -43.3723 174.954 -44.6386 174.173 -45.4197L160.42 -59.173Z" fill="white"/>
<path d="M198.755 -18.7085C197.974 -19.4895 196.707 -19.4895 195.926 -18.7085L184.302 -7.08453C183.521 -6.3035 183.521 -5.03717 184.302 -4.2561L195.926 7.36783C196.707 8.14886 197.974 8.14886 198.755 7.36783L210.379 -4.2561C211.16 -5.03717 211.16 -6.3035 210.379 -7.08453L198.755 -18.7085Z" fill="white"/>
<path d="M237.09 21.7107C236.309 20.9296 235.043 20.9296 234.262 21.7107L224.722 31.2506C223.941 32.0316 223.941 33.298 224.722 34.079L234.262 43.6189C235.043 44.4 236.309 44.4 237.09 43.6189L246.63 34.079C247.411 33.298 247.411 32.0316 246.63 31.2506L237.09 21.7107Z" fill="white"/>
<path d="M275.425 62.1752C274.644 61.3942 273.378 61.3942 272.597 62.1752L265.186 69.5858C264.405 70.3668 264.405 71.6331 265.186 72.4142L272.597 79.8247C273.378 80.6058 274.644 80.6058 275.425 79.8247L282.836 72.4142C283.617 71.6331 283.617 70.3668 282.836 69.5858L275.425 62.1752Z" fill="white"/>
<path d="M313.76 102.594C312.979 101.813 311.713 101.813 310.932 102.594L305.605 107.921C304.824 108.702 304.824 109.968 305.605 110.749L310.932 116.076C311.713 116.857 312.979 116.857 313.76 116.076L319.087 110.749C319.868 109.968 319.868 108.702 319.087 107.921L313.76 102.594Z" fill="white"/>
<path d="M352.095 143.059C351.314 142.278 350.048 142.278 349.267 143.059L346.07 146.256C345.289 147.037 345.289 148.303 346.07 149.085L349.267 152.282C350.048 153.063 351.314 153.063 352.095 152.282L355.293 149.085C356.074 148.303 356.074 147.037 355.293 146.256L352.095 143.059Z" fill="white"/>
<path d="M7.07907 -277.586C6.29803 -278.367 5.03168 -278.367 4.25064 -277.586L2.09546 -275.431C1.31442 -274.65 1.31442 -273.383 2.09546 -272.602L4.25061 -270.447C5.03168 -269.666 6.298 -269.666 7.07904 -270.447L9.23422 -272.602C10.0153 -273.383 10.0153 -274.65 9.23422 -275.431L7.07907 -277.586Z" fill="white"/>
<path d="M45.4142 -240.836C44.6331 -241.617 43.3668 -241.617 42.5858 -240.836L38.845 -237.095C38.0639 -236.314 38.0639 -235.048 38.845 -234.267L42.5858 -230.526C43.3668 -229.745 44.6331 -229.745 45.4142 -230.526L49.155 -234.267C49.9361 -235.048 49.9361 -236.314 49.155 -237.095L45.4142 -240.836Z" fill="white"/>
<path d="M83.7494 -204.087C82.9684 -204.868 81.702 -204.868 80.921 -204.087L75.5944 -198.76C74.8134 -197.979 74.8134 -196.713 75.5944 -195.932L80.9209 -190.605C81.702 -189.824 82.9683 -189.824 83.7494 -190.605L89.0759 -195.932C89.8569 -196.713 89.8569 -197.979 89.0759 -198.76L83.7494 -204.087Z" fill="white"/>
<path d="M122.085 -167.292C121.303 -168.073 120.037 -168.073 119.256 -167.292L112.389 -160.425C111.608 -159.644 111.608 -158.378 112.389 -157.597L119.256 -150.73C120.037 -149.949 121.303 -149.949 122.085 -150.73L128.951 -157.597C129.732 -158.378 129.732 -159.644 128.951 -160.425L122.085 -167.292Z" fill="white"/>
<path d="M160.42 -130.543C159.639 -131.324 158.372 -131.324 157.591 -130.543L149.139 -122.09C148.358 -121.309 148.358 -120.043 149.139 -119.262L157.591 -110.809C158.372 -110.028 159.639 -110.028 160.42 -110.809L168.872 -119.262C169.653 -120.043 169.653 -121.309 168.872 -122.09L160.42 -130.543Z" fill="white"/>
<path d="M198.755 -93.7931C197.974 -94.5741 196.707 -94.5741 195.926 -93.7931L185.888 -83.7549C185.107 -82.9738 185.107 -81.7075 185.888 -80.9264L195.926 -70.8882C196.707 -70.1071 197.974 -70.1071 198.755 -70.8882L208.793 -80.9264C209.574 -81.7075 209.574 -82.9738 208.793 -83.7549L198.755 -93.7931Z" fill="white"/>
<path d="M237.09 -53.8723C236.309 -54.6533 235.043 -54.6533 234.262 -53.8723L225.809 -45.4197C225.028 -44.6386 225.028 -43.3723 225.809 -42.5913L234.262 -34.1387C235.043 -33.3577 236.309 -33.3577 237.09 -34.1387L245.543 -42.5913C246.324 -43.3723 246.324 -44.6387 245.543 -45.4197L237.09 -53.8723Z" fill="white"/>
<path d="M275.425 -13.9514C274.644 -14.7325 273.378 -14.7325 272.597 -13.9514L265.73 -7.08456C264.949 -6.3035 264.949 -5.03717 265.73 -4.25613L272.597 2.61078C273.378 3.39185 274.644 3.39185 275.425 2.61078L282.292 -4.2561C283.073 -5.03717 283.073 -6.3035 282.292 -7.08453L275.425 -13.9514Z" fill="white"/>
<path d="M313.76 25.9241C312.979 25.1431 311.713 25.1431 310.932 25.9241L305.605 31.2506C304.824 32.0317 304.824 33.298 305.605 34.0791L310.932 39.4055C311.713 40.1866 312.979 40.1866 313.76 39.4055L319.087 34.079C319.868 33.298 319.868 32.0316 319.087 31.2506L313.76 25.9241Z" fill="white"/>
<path d="M352.095 65.845C351.314 65.0639 350.048 65.0639 349.267 65.845L345.526 69.5858C344.745 70.3668 344.745 71.6331 345.526 72.4142L349.267 76.155C350.048 76.9361 351.314 76.9361 352.095 76.155L355.836 72.4142C356.617 71.6331 356.617 70.3668 355.836 69.5858L352.095 65.845Z" fill="white"/>
<path d="M390.431 105.766C389.65 104.985 388.383 104.985 387.602 105.766L385.447 107.921C384.666 108.702 384.666 109.968 385.447 110.749L387.602 112.905C388.383 113.686 389.65 113.686 390.431 112.905L392.586 110.749C393.367 109.968 393.367 108.702 392.586 107.921L390.431 105.766Z" fill="white"/>
<path d="M83.7494 -277.586C82.9683 -278.367 81.702 -278.367 80.9209 -277.586L78.7658 -275.431C77.9847 -274.65 77.9847 -273.383 78.7658 -272.602L80.9209 -270.447C81.702 -269.666 82.9683 -269.666 83.7494 -270.447L85.9045 -272.602C86.6855 -273.383 86.6855 -274.65 85.9045 -275.431L83.7494 -277.586Z" fill="white"/>
<path d="M122.085 -240.293C121.303 -241.074 120.037 -241.074 119.256 -240.293L116.059 -237.095C115.278 -236.314 115.278 -235.048 116.059 -234.267L119.256 -231.07C120.037 -230.289 121.303 -230.289 122.085 -231.07L125.282 -234.267C126.063 -235.048 126.063 -236.314 125.282 -237.095L122.085 -240.293Z" fill="white"/>
<path d="M160.42 -203C159.639 -203.781 158.372 -203.781 157.591 -202.999L153.352 -198.76C152.571 -197.979 152.571 -196.713 153.352 -195.932L157.591 -191.693C158.372 -190.912 159.639 -190.912 160.42 -191.693L164.659 -195.932C165.44 -196.713 165.44 -197.979 164.659 -198.76L160.42 -203Z" fill="white"/>
<path d="M198.755 -165.752C197.974 -166.533 196.707 -166.533 195.926 -165.752L190.6 -160.425C189.819 -159.644 189.819 -158.378 190.6 -157.597L195.926 -152.27C196.707 -151.489 197.974 -151.489 198.755 -152.27L204.081 -157.597C204.862 -158.378 204.862 -159.644 204.081 -160.425L198.755 -165.752Z" fill="white"/>
<path d="M237.09 -128.459C236.309 -129.24 235.043 -129.24 234.262 -128.459L227.893 -122.09C227.112 -121.309 227.112 -120.043 227.893 -119.262L234.262 -112.893C235.043 -112.112 236.309 -112.112 237.09 -112.893L243.458 -119.262C244.24 -120.043 244.24 -121.309 243.458 -122.09L237.09 -128.459Z" fill="white"/>
<path d="M275.425 -89.0814C274.644 -89.8624 273.378 -89.8624 272.597 -89.0814L267.27 -83.7549C266.489 -82.9738 266.489 -81.7075 267.27 -80.9264L272.597 -75.5999C273.378 -74.8189 274.644 -74.8189 275.425 -75.5999L280.752 -80.9264C281.533 -81.7075 281.533 -82.9738 280.752 -83.7549L275.425 -89.0814Z" fill="white"/>
<path d="M313.76 -49.6589C312.979 -50.44 311.713 -50.44 310.932 -49.6589L306.693 -45.4197C305.912 -44.6387 305.912 -43.3723 306.693 -42.5913L310.932 -38.3521C311.713 -37.571 312.979 -37.571 313.76 -38.3521L318 -42.5913C318.781 -43.3723 318.781 -44.6386 318 -45.4197L313.76 -49.6589Z" fill="white"/>
<path d="M352.095 -10.2817C351.314 -11.0628 350.048 -11.0628 349.267 -10.2817L346.07 -7.08456C345.289 -6.3035 345.289 -5.03717 346.07 -4.25613L349.267 -1.05896C350.048 -0.277924 351.314 -0.277924 352.095 -1.05896L355.293 -4.25613C356.074 -5.03717 356.074 -6.30353 355.293 -7.08456L352.095 -10.2817Z" fill="white"/>
<path d="M390.431 29.0955C389.65 28.3144 388.383 28.3144 387.602 29.0955L385.447 31.2506C384.666 32.0316 384.666 33.298 385.447 34.079L387.602 36.2342C388.383 37.0153 389.65 37.0153 390.431 36.2342L392.586 34.0791C393.367 33.298 393.367 32.0317 392.586 31.2506L390.431 29.0955Z" fill="white"/>
<path d="M198.755 -238.707C197.974 -239.488 196.707 -239.488 195.926 -238.707L194.315 -237.095C193.534 -236.314 193.534 -235.048 194.315 -234.267L195.926 -232.656C196.707 -231.875 197.974 -231.875 198.755 -232.656L200.366 -234.267C201.147 -235.048 201.147 -236.314 200.366 -237.095L198.755 -238.707Z" fill="white"/>
<path d="M237.09 -200.915C236.309 -201.697 235.043 -201.697 234.262 -200.915L232.106 -198.76C231.325 -197.979 231.325 -196.713 232.106 -195.932L234.262 -193.777C235.043 -192.996 236.309 -192.996 237.09 -193.777L239.245 -195.932C240.026 -196.713 240.026 -197.979 239.245 -198.76L237.09 -200.915Z" fill="white"/>
<path d="M275.425 -163.079C274.644 -163.86 273.378 -163.86 272.597 -163.079L269.943 -160.425C269.162 -159.644 269.162 -158.378 269.943 -157.597L272.597 -154.943C273.378 -154.162 274.644 -154.162 275.425 -154.943L278.079 -157.597C278.86 -158.378 278.86 -159.644 278.079 -160.425L275.425 -163.079Z" fill="white"/>
<path d="M313.76 -124.245C312.979 -125.026 311.713 -125.026 310.932 -124.245L308.777 -122.09C307.996 -121.309 307.996 -120.043 308.777 -119.262L310.932 -117.106C311.713 -116.325 312.979 -116.325 313.76 -117.106L315.915 -119.262C316.696 -120.043 316.696 -121.309 315.915 -122.09L313.76 -124.245Z" fill="white"/>
<path d="M352.095 -85.3663C351.314 -86.1474 350.048 -86.1474 349.267 -85.3663L347.656 -83.7549C346.875 -82.9738 346.875 -81.7075 347.656 -80.9264L349.267 -79.3149C350.048 -78.5339 351.314 -78.5339 352.095 -79.3149L353.707 -80.9264C354.488 -81.7075 354.488 -82.9738 353.707 -83.7549L352.095 -85.3663Z" fill="white"/>
</g>
</svg>
