 <svg width="18" height="18" viewBox="0 0 18 18" fill="none" xmlns="http://www.w3.org/2000/svg">
    <path
    d="M0.332031 16.7847C0.199219 16.6519 0.110677 16.4941 0.0664062 16.3115C0.0221354 16.1344 0.0221354 15.9546 0.0664062 15.772C0.110677 15.5949 0.196452 15.4455 0.32373 15.3237L7.08887 8.55859L0.32373 1.79346C0.196452 1.67171 0.110677 1.5223 0.0664062 1.34521C0.0221354 1.16813 0.0221354 0.988281 0.0664062 0.805664C0.110677 0.623047 0.199219 0.465332 0.332031 0.33252C0.464844 0.199707 0.619792 0.111165 0.796875 0.0668945C0.979492 0.0226237 1.15934 0.0226237 1.33643 0.0668945C1.51351 0.111165 1.66846 0.19694 1.80127 0.324219L8.55811 7.08936L15.3149 0.33252C15.4478 0.199707 15.6027 0.111165 15.7798 0.0668945C15.9569 0.0226237 16.134 0.0226237 16.311 0.0668945C16.4881 0.111165 16.6431 0.199707 16.7759 0.33252C16.9142 0.465332 17.0055 0.623047 17.0498 0.805664C17.0941 0.982747 17.0941 1.15983 17.0498 1.33691C17.0055 1.514 16.917 1.66895 16.7842 1.80176L10.0273 8.55859L16.7842 15.3154C16.917 15.4482 17.0028 15.6004 17.0415 15.772C17.0858 15.9491 17.0858 16.1261 17.0415 16.3032C17.0028 16.4858 16.9142 16.6463 16.7759 16.7847C16.6431 16.9175 16.4881 17.006 16.311 17.0503C16.134 17.0946 15.9569 17.0946 15.7798 17.0503C15.6027 17.006 15.4478 16.9175 15.3149 16.7847L8.55811 10.0278L1.80127 16.793C1.66846 16.9202 1.51351 17.006 1.33643 17.0503C1.15934 17.0946 0.982259 17.0946 0.805176 17.0503C0.628092 17.006 0.470378 16.9175 0.332031 16.7847Z"
    fill="#404040"
    />
</svg>