<svg width="15" height="15" viewBox="0 0 15 15" fill="none" xmlns="http://www.w3.org/2000/svg">
<path d="M14.5 1V11C14.5 11.276 14.276 11.5 14 11.5C13.724 11.5 13.5 11.276 13.5 11V2.20703L1.35401 14.353C1.25601 14.451 1.12801 14.499 1.00001 14.499C0.87201 14.499 0.744006 14.45 0.646006 14.353C0.451006 14.158 0.451006 13.841 0.646006 13.646L12.792 1.5H4.00001C3.72401 1.5 3.50001 1.276 3.50001 1C3.50001 0.724 3.72401 0.5 4.00001 0.5H14C14.065 0.5 14.1299 0.513062 14.1909 0.539062C14.3139 0.590062 14.4109 0.687059 14.4619 0.810059C14.4869 0.870059 14.5 0.935 14.5 1Z" fill="currentColor"/>
</svg>
