<svg width="15" height="14" viewBox="0 0 15 14" fill="none" xmlns="http://www.w3.org/2000/svg">
<path d="M12.956 7.20551L8.87264 11.2888C8.81547 11.346 8.7408 11.374 8.66614 11.374C8.59147 11.374 8.5168 11.3454 8.45964 11.2888C8.34589 11.1751 8.34589 10.9902 8.45964 10.8764L12.0448 7.29125H2.25004C2.08904 7.29125 1.95837 7.16058 1.95837 6.99958C1.95837 6.83858 2.08904 6.70791 2.25004 6.70791H12.0459L8.46078 3.12275C8.34703 3.009 8.34703 2.82406 8.46078 2.71031C8.57453 2.59656 8.75946 2.59656 8.87321 2.71031L12.9565 6.79365C12.9834 6.82048 13.0049 6.8532 13.0195 6.88878C13.0492 6.95995 13.0492 7.04049 13.0195 7.11166C13.0043 7.14608 12.9828 7.17868 12.956 7.20551Z" fill="currentColor"/>
</svg>
