<svg width="72" height="72" viewBox="0 0 72 72" fill="none" xmlns="http://www.w3.org/2000/svg">
<path d="M36 6C19.431 6 6 19.431 6 36C6 52.569 19.431 66 36 66C52.569 66 66 52.569 66 36C66 19.431 52.569 6 36 6ZM33.75 22.5C33.75 21.258 34.758 20.25 36 20.25C37.242 20.25 38.25 21.258 38.25 22.5V36.2131C38.25 37.4551 37.242 38.4631 36 38.4631C34.758 38.4631 33.75 37.4551 33.75 36.2131V22.5ZM36.0601 49.5C34.4041 49.5 33.0447 48.156 33.0447 46.5C33.0447 44.844 34.374 43.5 36.03 43.5H36.0601C37.7191 43.5 39.0601 44.844 39.0601 46.5C39.0601 48.156 37.7161 49.5 36.0601 49.5Z" fill="#FFA800"/>
</svg>
