
<svg width="32" height="32" viewBox="0 0 32 32" fill="none" xmlns="http://www.w3.org/2000/svg">
<path d="M28 13.6667C27.448 13.6667 27 14.1147 27 14.6667V17.5853L21.6533 12.2399C20.7733 11.3586 19.2267 11.3586 18.3467 12.2399L12 18.5853L10.9867 17.5732C10.1067 16.6919 8.56001 16.6919 7.68001 17.5732L5 20.2533V9.33333C5 7.23067 5.89733 6.33333 8 6.33333H17.3333C17.8853 6.33333 18.3333 5.88533 18.3333 5.33333C18.3333 4.78133 17.8853 4.33333 17.3333 4.33333H8C4.776 4.33333 3 6.10933 3 9.33333V22.6667C3 25.8907 4.776 27.6667 8 27.6667H24C27.224 27.6667 29 25.8907 29 22.6667V14.6667C29 14.1147 28.552 13.6667 28 13.6667ZM24 25.6667H8C6.03733 25.6667 5.13596 24.872 5.02262 23.0573L9.09326 18.9867C9.2626 18.8187 9.40261 18.8187 9.57194 18.9867L10.8241 20.2386C11.4467 20.8626 12.552 20.8613 13.172 20.2386L19.7586 13.652C19.928 13.484 20.068 13.484 20.2373 13.652L26.9974 20.4121V22.6667C27.0001 24.7693 26.1027 25.6667 24 25.6667ZM10.6667 10.3333C11.5867 10.3333 12.3333 11.08 12.3333 12C12.3333 12.92 11.5867 13.6667 10.6667 13.6667C9.74667 13.6667 9 12.92 9 12C9 11.08 9.74667 10.3333 10.6667 10.3333ZM21.6667 6.66667C21.6667 6.11467 22.1147 5.66667 22.6667 5.66667H24.3333V4C24.3333 3.448 24.7813 3 25.3333 3C25.8853 3 26.3333 3.448 26.3333 4V5.66667H28C28.552 5.66667 29 6.11467 29 6.66667C29 7.21867 28.552 7.66667 28 7.66667H26.3333V9.33333C26.3333 9.88533 25.8853 10.3333 25.3333 10.3333C24.7813 10.3333 24.3333 9.88533 24.3333 9.33333V7.66667H22.6667C22.1147 7.66667 21.6667 7.21867 21.6667 6.66667Z" fill="white"/>
</svg>
