<svg width="32" height="33" viewBox="0 0 32 33" fill="none" xmlns="http://www.w3.org/2000/svg">
<path d="M22.0937 7H9.90625C7.46875 7 6.25 8.21875 6.25 10.6562V22.8437C6.25 25.2812 7.46875 26.5 9.90625 26.5H22.0937C24.5312 26.5 25.75 25.2812 25.75 22.8437V10.6562C25.75 8.21875 24.5312 7 22.0937 7ZM11.6667 20.2719C11.2182 20.2719 10.8542 19.9079 10.8542 19.4594C10.8542 19.0109 11.2182 18.6469 11.6667 18.6469C12.1152 18.6469 12.4792 19.0109 12.4792 19.4594C12.4792 19.909 12.1152 20.2719 11.6667 20.2719ZM11.6667 14.8542C11.2182 14.8542 10.8542 14.4902 10.8542 14.0417C10.8542 13.5932 11.2182 13.2292 11.6667 13.2292C12.1152 13.2292 12.4792 13.5932 12.4792 14.0417C12.4792 14.4902 12.1152 14.8542 11.6667 14.8542ZM20.3333 20.2708H14.9167C14.4682 20.2708 14.1042 19.9068 14.1042 19.4583C14.1042 19.0098 14.4682 18.6458 14.9167 18.6458H20.3333C20.7818 18.6458 21.1458 19.0098 21.1458 19.4583C21.1458 19.9068 20.7818 20.2708 20.3333 20.2708ZM20.3333 14.8542H14.9167C14.4682 14.8542 14.1042 14.4902 14.1042 14.0417C14.1042 13.5932 14.4682 13.2292 14.9167 13.2292H20.3333C20.7818 13.2292 21.1458 13.5932 21.1458 14.0417C21.1458 14.4902 20.7818 14.8542 20.3333 14.8542Z" fill="#25314C"/>
</svg>
