<svg width="32" height="33" viewBox="0 0 32 33" fill="none" xmlns="http://www.w3.org/2000/svg">
<path d="M10.7687 9.93457C14.5072 9.93457 17.5375 12.986 17.5375 16.7498C17.5375 20.5137 14.5069 23.5649 10.7687 23.5649C7.03075 23.5649 4 20.5137 4 16.7498C4 12.9861 7.03047 9.93457 10.7687 9.93457ZM21.5781 10.3338C23.4473 10.3338 24.9626 13.2061 24.9626 16.7498H24.9629C24.9629 20.2927 23.4476 23.1659 21.5785 23.1659C19.7094 23.1659 18.194 20.2927 18.194 16.7498C18.194 13.207 19.709 10.3338 21.5782 10.3338H21.5781ZM26.8097 11.0021C27.4669 11.0021 28 13.5754 28 16.7499C28 19.9234 27.4671 22.4977 26.8097 22.4977C26.1522 22.4977 25.6196 19.9241 25.6196 16.7499C25.6196 13.5756 26.1525 11.0021 26.8097 11.0021Z" fill="black"/>
</svg>
