<svg width="32" height="33" viewBox="0 0 32 33" fill="none" xmlns="http://www.w3.org/2000/svg">
<path fill-rule="evenodd" clip-rule="evenodd" d="M16 5.0459C9.37 5.0459 4 10.4159 4 17.0459C4 22.3559 7.435 26.8409 12.205 28.4309C12.805 28.5359 13.03 28.1759 13.03 27.8609C13.03 27.5759 13.015 26.6309 13.015 25.6259C10 26.1809 9.22 24.8909 8.98 24.2159C8.845 23.8709 8.26 22.8059 7.75 22.5209C7.33 22.2959 6.73 21.7409 7.735 21.7259C8.68 21.7109 9.355 22.5959 9.58 22.9559C10.66 24.7709 12.385 24.2609 13.075 23.9459C13.18 23.1659 13.495 22.6409 13.84 22.3409C11.17 22.0409 8.38 21.0059 8.38 16.4159C8.38 15.1109 8.845 14.0309 9.61 13.1909C9.49 12.8909 9.07 11.6609 9.73 10.0109C9.73 10.0109 10.735 9.6959 13.03 11.2409C13.99 10.9709 15.01 10.8359 16.03 10.8359C17.05 10.8359 18.07 10.9709 19.03 11.2409C21.325 9.6809 22.33 10.0109 22.33 10.0109C22.99 11.6609 22.57 12.8909 22.45 13.1909C23.215 14.0309 23.68 15.0959 23.68 16.4159C23.68 21.0209 20.875 22.0409 18.205 22.3409C18.64 22.7159 19.015 23.4359 19.015 24.5609C19.015 26.1659 19 27.4559 19 27.8609C19 28.1759 19.225 28.5509 19.825 28.4309C24.565 26.8409 28 22.3409 28 17.0459C28 10.4159 22.63 5.0459 16 5.0459Z" fill="black"/>
</svg>
