<svg width="32" height="33" viewBox="0 0 32 33" fill="none" xmlns="http://www.w3.org/2000/svg">
<path d="M16 28.75C22.6274 28.75 28 23.3774 28 16.75C28 10.1226 22.6274 4.75 16 4.75C9.37258 4.75 4 10.1226 4 16.75C4 23.3774 9.37258 28.75 16 28.75ZM14.0043 19.1907L19.5685 14.1695C19.8127 13.9528 19.5151 13.8471 19.1909 14.0437L12.3236 18.3762L9.35734 17.4503C8.71675 17.2542 8.71215 16.814 9.50116 16.4975L21.0602 12.0404C21.5881 11.8008 22.0976 12.1672 21.8961 12.9753L19.9276 22.2515C19.7901 22.9107 19.3919 23.0684 18.84 22.7639L15.8414 20.5485L14.4 21.95C14.2325 22.1128 14.1 22.25 13.8 22.25L14.0043 19.1907Z" fill="currentColor"/>
</svg>
