<svg width="32" height="33" viewBox="0 0 32 33" fill="none" xmlns="http://www.w3.org/2000/svg">
<path d="M24.3303 9.01687C22.7767 8.29 21.1156 7.76173 19.3789 7.46094C19.1656 7.84655 18.9164 8.3652 18.7446 8.77779C16.8985 8.50016 15.0693 8.50016 13.2572 8.77779C13.0854 8.3652 12.8306 7.84655 12.6154 7.46094C10.8768 7.76173 9.21376 8.29194 7.66019 9.02072C4.52664 13.7559 3.67719 18.3735 4.10192 22.9255C6.18025 24.4776 8.19441 25.4204 10.1746 26.0374C10.6635 25.3645 11.0995 24.6492 11.4752 23.8953C10.7598 23.6235 10.0745 23.288 9.42707 22.8986C9.59884 22.7713 9.76686 22.6383 9.92918 22.5014C13.8782 24.3484 18.1689 24.3484 22.0707 22.5014C22.235 22.6383 22.403 22.7713 22.5728 22.8986C21.9235 23.2899 21.2364 23.6254 20.521 23.8973C20.8966 24.6492 21.3308 25.3664 21.8216 26.0393C23.8036 25.4223 25.8197 24.4795 27.898 22.9255C28.3964 17.6486 27.0467 13.0734 24.3303 9.01687ZM12.0132 20.1261C10.8277 20.1261 9.85555 19.0194 9.85555 17.6717C9.85555 16.324 10.807 15.2154 12.0132 15.2154C13.2194 15.2154 14.1916 16.3221 14.1708 17.6717C14.1727 19.0194 13.2194 20.1261 12.0132 20.1261ZM19.9867 20.1261C18.8013 20.1261 17.8291 19.0194 17.8291 17.6717C17.8291 16.324 18.7805 15.2154 19.9867 15.2154C21.193 15.2154 22.1651 16.3221 22.1444 17.6717C22.1444 19.0194 21.193 20.1261 19.9867 20.1261Z" fill="currentColor"/>
</svg>
