<svg width="32" height="33" viewBox="0 0 32 33" fill="none" xmlns="http://www.w3.org/2000/svg">
<path d="M14.8027 22.5288C15.1776 22.5288 15.5151 22.8287 15.5151 23.2412C15.5151 23.6161 15.2151 23.9535 14.8027 23.9535C14.4278 23.9535 14.0904 23.6536 14.0904 23.2412C14.0904 22.8287 14.4278 22.5288 14.8027 22.5288ZM25.8254 18.1797C25.4505 18.1797 25.1131 17.8798 25.1131 17.4673C25.1131 17.0924 25.413 16.755 25.8254 16.755C26.2004 16.755 26.5378 17.0549 26.5378 17.4673C26.5378 17.8423 26.2004 18.1797 25.8254 18.1797ZM25.8254 15.2928C24.6257 15.2928 23.6509 16.2676 23.6509 17.4673C23.6509 17.6923 23.6884 17.9173 23.7634 18.1422L16.6023 21.9664C16.1899 21.3665 15.5151 21.0291 14.8027 21.0291C13.9779 21.0291 13.228 21.5165 12.8531 22.2289L6.40444 18.8546C5.72958 18.4796 5.20469 17.3924 5.27967 16.3426C5.31716 15.8177 5.50463 15.4053 5.76707 15.2553C5.95453 15.1428 6.14199 15.1803 6.40444 15.2928L6.44193 15.3303C8.16658 16.2301 13.7529 19.1545 13.9779 19.267C14.3528 19.4169 14.5403 19.4919 15.1776 19.192L26.7253 13.1932C26.9127 13.1182 27.1002 12.9683 27.1002 12.7058C27.1002 12.3684 26.7628 12.2184 26.7628 12.2184C26.0879 11.9185 25.0756 11.4311 24.1008 10.9812C22.0012 10.0064 19.6017 8.88161 18.5519 8.31923C17.6521 7.83183 16.9023 8.24424 16.7898 8.31923L16.5274 8.43171C11.7658 10.8312 5.46713 13.9431 5.09221 14.168C4.45484 14.543 4.04243 15.3303 4.00493 16.3051C3.92995 17.8423 4.71729 19.4544 5.84206 20.0168L12.6657 23.5411C12.8156 24.5909 13.7529 25.4157 14.8027 25.4157C16.0025 25.4157 16.9398 24.4784 16.9773 23.2787L24.4757 19.2295C24.8506 19.5294 25.338 19.6794 25.8254 19.6794C27.0252 19.6794 28 18.7046 28 17.5048C28 16.2676 27.0252 15.2928 25.8254 15.2928Z" fill="black"/>
</svg>
