<svg width="28" height="29" viewBox="0 0 28 29" fill="none" xmlns="http://www.w3.org/2000/svg">
<path d="M24.5 10.9583C24.017 10.9583 23.625 10.5663 23.625 10.0833V6C23.625 5.31283 23.4372 5.125 22.75 5.125H18.6667C18.1837 5.125 17.7917 4.733 17.7917 4.25C17.7917 3.767 18.1837 3.375 18.6667 3.375H22.75C24.3938 3.375 25.375 4.35617 25.375 6V10.0833C25.375 10.5663 24.983 10.9583 24.5 10.9583ZM4.375 10.0833V6C4.375 5.31283 4.56283 5.125 5.25 5.125H9.33333C9.81633 5.125 10.2083 4.733 10.2083 4.25C10.2083 3.767 9.81633 3.375 9.33333 3.375H5.25C3.60617 3.375 2.625 4.35617 2.625 6V10.0833C2.625 10.5663 3.017 10.9583 3.5 10.9583C3.983 10.9583 4.375 10.5663 4.375 10.0833ZM10.2083 25.25C10.2083 24.767 9.81633 24.375 9.33333 24.375H5.25C4.56283 24.375 4.375 24.1872 4.375 23.5V19.4167C4.375 18.9337 3.983 18.5417 3.5 18.5417C3.017 18.5417 2.625 18.9337 2.625 19.4167V23.5C2.625 25.1438 3.60617 26.125 5.25 26.125H9.33333C9.81633 26.125 10.2083 25.733 10.2083 25.25ZM25.375 23.5V19.4167C25.375 18.9337 24.983 18.5417 24.5 18.5417C24.017 18.5417 23.625 18.9337 23.625 19.4167V23.5C23.625 24.1872 23.4372 24.375 22.75 24.375H18.6667C18.1837 24.375 17.7917 24.767 17.7917 25.25C17.7917 25.733 18.1837 26.125 18.6667 26.125H22.75C24.3938 26.125 25.375 25.1438 25.375 23.5ZM17.9865 12.1378V10.8604C17.9865 8.66235 16.198 6.87386 14 6.87386C11.802 6.87386 10.0135 8.66235 10.0135 10.8604V12.1378C8.78501 12.3408 8.16667 13.1528 8.16667 14.5831V19.5836C8.16667 21.2507 8.99974 22.0835 10.6669 22.0835H17.3331C18.9991 22.0835 19.8333 21.2507 19.8333 19.5836V14.5831C19.8333 13.1528 19.215 12.3408 17.9865 12.1378ZM14.875 17.4579V18.6396C14.875 19.1226 14.483 19.5147 14 19.5147C13.517 19.5147 13.125 19.1226 13.125 18.6396V17.4285C12.789 17.1614 12.559 16.7671 12.559 16.3063C12.559 15.5013 13.2067 14.848 14.0117 14.848H14.0234C14.8284 14.848 15.4817 15.5013 15.4817 16.3063C15.4817 16.7858 15.2332 17.1919 14.875 17.4579ZM11.7635 12.0831V10.8604C11.7635 9.62719 12.7668 8.62386 14 8.62386C15.2332 8.62386 16.2365 9.62719 16.2365 10.8604V12.0831H11.7635Z" fill="#25314C"/>
</svg>
