<svg width="74" height="74" viewBox="0 0 74 74" fill="none" xmlns="http://www.w3.org/2000/svg">
<path d="M37.3334 53C46.1699 53 53.3334 45.8366 53.3334 37C53.3334 28.1634 46.1699 21 37.3334 21C28.4968 21 21.3334 28.1634 21.3334 37C21.3334 45.8366 28.4968 53 37.3334 53Z" stroke="black" stroke-width="2" stroke-linejoin="round"/>
<path d="M21.6537 33.7998C23.1362 41.103 29.593 46.5998 37.3336 46.5998C45.0742 46.5998 51.531 41.103 53.0135 33.7998" stroke="black" stroke-width="2" stroke-linecap="round" stroke-linejoin="round"/>
<path d="M22.6654 30.5996C25.1344 36.2505 30.773 40.1996 37.3341 40.1996C43.8951 40.1996 49.5338 36.2505 52.0027 30.5996" stroke="black" stroke-width="2" stroke-linecap="round" stroke-linejoin="round"/>
<path d="M24.5326 27.4004C27.4517 31.2866 32.0991 33.8004 37.3338 33.8004C42.5684 33.8004 47.2158 31.2866 50.1458 27.4004" stroke="black" stroke-width="2" stroke-linecap="round" stroke-linejoin="round"/>
<path d="M27.7318 24.2002C30.4062 26.2095 33.7308 27.4002 37.3334 27.4002C40.9361 27.4002 44.2606 26.2095 46.9349 24.2002" stroke="black" stroke-width="2" stroke-linecap="round" stroke-linejoin="round"/>
<path d="M0.99939 19V9C0.99939 4.58172 4.58111 1 8.99939 1H18.9994" stroke="black" stroke-width="2" stroke-linecap="round"/>
<path d="M72.9994 19V9C72.9994 4.58172 69.4177 1 64.9994 1H54.9994" stroke="black" stroke-width="2" stroke-linecap="round"/>
<path d="M0.99939 55V65C0.99939 69.4183 4.58111 73 8.99939 73H18.9994" stroke="black" stroke-width="2" stroke-linecap="round"/>
<path d="M72.9994 55V65C72.9994 69.4183 69.4177 73 64.9994 73H54.9994" stroke="black" stroke-width="2" stroke-linecap="round"/>
</svg>
