<svg width="74" height="74" viewBox="0 0 74 74" fill="none" xmlns="http://www.w3.org/2000/svg">
<path d="M32.1994 36.9495V25.7999C32.1994 23.149 34.3484 21 36.9993 21C39.6502 21 41.7992 23.149 41.7992 25.7999V27.4044" stroke="black" stroke-width="2" stroke-linecap="round"/>
<path d="M41.7992 37.0029V48.1999C41.7992 50.8508 39.6502 52.9998 36.9993 52.9998C34.3484 52.9998 32.1994 50.8508 32.1994 48.1999V46.5759" stroke="black" stroke-width="2" stroke-linecap="round"/>
<path d="M36.9999 41.8H25.7874C23.1435 41.8 21.0002 39.651 21.0002 37.0001C21.0002 34.3492 23.1435 32.2002 25.7874 32.2002H27.391" stroke="black" stroke-width="2" stroke-linecap="round"/>
<path d="M37.0002 32.2002H48.191C50.8469 32.2002 52.9999 34.3492 52.9999 37.0001C52.9999 39.651 50.8469 41.8 48.191 41.8H46.6531" stroke="black" stroke-width="2" stroke-linecap="round"/>
<path d="M1 19V9C1 4.58172 4.58172 1 9 1H19" stroke="black" stroke-width="2" stroke-linecap="round"/>
<path d="M73 19V9C73 4.58172 69.4183 1 65 1H55" stroke="black" stroke-width="2" stroke-linecap="round"/>
<path d="M1 55V65C1 69.4183 4.58172 73 9 73H19" stroke="black" stroke-width="2" stroke-linecap="round"/>
<path d="M73 55V65C73 69.4183 69.4183 73 65 73H55" stroke="black" stroke-width="2" stroke-linecap="round"/>
</svg>
