<svg width="14" height="14" viewBox="0 0 14 14" fill="none" xmlns="http://www.w3.org/2000/svg">
<path d="M13.3725 8.7C12.675 8.295 12.2475 7.5525 12.2475 6.75C12.2475 5.9475 12.675 5.205 13.3725 4.8C13.4925 4.725 13.5375 4.575 13.4625 4.455L12.21 2.295C12.165 2.2125 12.0825 2.16751 12 2.16751C11.955 2.16751 11.91 2.1825 11.8725 2.205C11.5275 2.4 11.1375 2.505 10.7475 2.505C10.35 2.505 9.96 2.39999 9.6075 2.19749C8.91 1.79249 8.4825 1.0575 8.4825 0.254997C8.4825 0.112497 8.37001 0 8.23501 0H5.26499C5.12999 0 5.0175 0.112497 5.0175 0.254997C5.0175 1.0575 4.59 1.79249 3.8925 2.19749C3.54 2.39999 3.15001 2.505 2.75251 2.505C2.36251 2.505 1.97251 2.4 1.62751 2.205C1.50751 2.13 1.3575 2.175 1.29 2.295L0.0300064 4.455C0.00750641 4.4925 0 4.5375 0 4.575C0 4.665 0.0450101 4.7475 0.12751 4.8C0.82501 5.205 1.25251 5.93999 1.25251 6.74249C1.25251 7.55249 0.824995 8.295 0.134995 8.7H0.12751C0.00751007 8.775 -0.0375092 8.925 0.0374908 9.045L1.29 11.205C1.335 11.2875 1.4175 11.3325 1.5 11.3325C1.545 11.3325 1.59001 11.3175 1.62751 11.295C2.33251 10.8975 3.195 10.8975 3.8925 11.3025C4.5825 11.7075 5.00999 12.4425 5.00999 13.245C5.00999 13.3875 5.12249 13.5 5.26499 13.5H8.23501C8.37001 13.5 8.4825 13.3875 8.4825 13.245C8.4825 12.4425 8.91 11.7075 9.6075 11.3025C9.96 11.1 10.35 10.995 10.7475 10.995C11.1375 10.995 11.5275 11.1 11.8725 11.295C11.9925 11.37 12.1425 11.325 12.21 11.205L13.47 9.045C13.4925 9.0075 13.5 8.9625 13.5 8.925C13.5 8.835 13.455 8.7525 13.3725 8.7ZM6.75 9C5.505 9 4.5 7.995 4.5 6.75C4.5 5.505 5.505 4.5 6.75 4.5C7.995 4.5 9 5.505 9 6.75C9 7.995 7.995 9 6.75 9Z" fill="white"/>
</svg>
