<svg width="24" height="24" viewBox="0 0 24 24" fill="none" xmlns="http://www.w3.org/2000/svg">
<path d="M13.8229 10.125C14.0312 9.98611 14.1701 9.96875 14.2396 10.0729C14.309 10.1771 14.2569 10.316 14.0833 10.4896C12.4688 12.1562 11.2708 13.0938 10.5938 13.875C10.2812 14.2222 10.3681 14.5694 10.8542 14.9167L14.0833 17.1042C15.3854 17.9896 15.8021 17.2604 15.9583 16.375C16.5486 13.2153 16.9653 10.5938 17.2083 8.51042C17.3125 7.72917 17.0521 7.3125 16.0625 7.625C15.125 7.90278 11.7569 9.30903 5.95833 11.8438C4.86458 12.2604 5.07292 12.7292 5.69792 12.9375C6.32292 13.1458 6.79167 13.3021 7.41667 13.4583C8.04167 13.6146 8.45833 13.6667 9.1875 13.1979M12.0521 2C14.6997 2.01379 17.2338 3.077 19.0986 4.95647C20.9635 6.83594 22.0069 9.37826 22 12.0259C21.9931 14.6736 20.9365 17.2104 19.0619 19.0801C17.1872 20.9499 14.6477 21.9999 12 21.9999C9.35235 21.9999 6.81276 20.9499 4.93815 19.0801C3.06354 17.2104 2.00693 14.6736 2.00003 12.0259C1.99314 9.37826 3.03652 6.83594 4.90136 4.95647C6.76621 3.077 9.3003 2.01379 11.9479 2" fill="white"/>
</svg>
