<svg width="120" height="120" viewBox="0 0 120 120" fill="none" xmlns="http://www.w3.org/2000/svg">
<circle opacity="0.6" cx="60" cy="60" r="60" fill="#5DDD22" fill-opacity="0.12"/>
<circle cx="60" cy="60" r="40" fill="#5DDD22" fill-opacity="0.12"/>
<path d="M79.8184 40.2031C80.9985 40.2033 82 41.1818 82 42.3887V63.8652C80.5314 63.1835 78.8956 62.8008 77.1699 62.8008C70.8262 62.8008 65.6836 67.9434 65.6836 74.2871C65.6836 76.2863 66.1956 78.1655 67.0938 79.8027H40.1816C39.0015 79.8026 38 78.824 38 77.6172V42.3887C38 41.1822 38.9766 40.2033 40.1816 40.2031H79.8184ZM42.4004 44.6035V75.4033H60V44.6035H42.4004ZM57.7998 55.6035V60.0029H44.5996V55.6035H57.7998ZM57.7998 49.0029V53.4033H44.5996V49.0029H57.7998Z" fill="white"/>
<path d="M85.9788 69.8261L83.7934 67.6406L76.0002 75.4338L71.6842 71.1177L69.4987 73.3032L76.0002 79.8047L85.9788 69.8261Z" fill="white"/>
</svg>
