<svg width="20" height="16" viewBox="0 0 20 16" fill="none" xmlns="http://www.w3.org/2000/svg">
<path d="M1.86617 6.91635C6.92911 4.71054 10.3052 3.25632 11.9944 2.5537C16.8175 0.547609 17.8197 0.199133 18.4729 0.187622C18.6166 0.185095 18.9379 0.220698 19.1459 0.389547C19.3216 0.532114 19.3699 0.724708 19.3931 0.859874C19.4162 0.99505 19.445 1.30297 19.4221 1.54357C19.1607 4.28976 18.0298 10.9541 17.4545 14.0298C17.2111 15.3313 16.7317 15.7676 16.2676 15.8104C15.2591 15.9032 14.4932 15.1438 13.5164 14.5036C11.9878 13.5016 11.1243 12.8778 9.64054 11.9C7.92585 10.7701 9.03742 10.149 10.0146 9.13407C10.2704 8.86844 14.7141 4.82655 14.8001 4.45989C14.8108 4.41403 14.8208 4.24309 14.7192 4.15283C14.6177 4.06257 14.4679 4.09343 14.3597 4.11799C14.2064 4.15278 11.7645 5.76673 7.03404 8.96001C6.34091 9.43587 5.71311 9.66782 5.15062 9.65567C4.53051 9.64226 3.33768 9.30504 2.45094 9.01684C1.36331 8.66322 0.498876 8.47633 0.574149 7.8759C0.613355 7.56319 1.04403 7.24334 1.86617 6.91635Z" fill="white"/>
</svg>
