<svg width="60" height="60" viewBox="0 0 60 60" fill="none" xmlns="http://www.w3.org/2000/svg">
<path fill-rule="evenodd" clip-rule="evenodd" d="M30 60C46.5685 60 60 46.5685 60 30C60 13.4315 46.5685 0 30 0C13.4315 0 0 13.4315 0 30C0 46.5685 13.4315 60 30 60ZM16.016 21.75C16.676 18.0225 20.231 15 23.9585 15C27.686 15 30.176 18.0225 29.516 21.75L26.606 38.25C25.946 41.9775 22.391 45 18.6635 45C14.936 45 12.446 41.9775 13.106 38.25L16.016 21.75ZM45.8885 22.5C46.616 18.36 43.8485 15 39.7085 15C35.5611 15 31.616 18.36 30.8885 22.5C30.161 26.64 32.9285 30 37.0686 30C41.2085 30 45.161 26.64 45.8885 22.5ZM37.0611 30C41.2011 30 43.9686 33.36 43.2411 37.5C42.5136 41.64 38.5611 45 34.4211 45C30.2811 45 27.5136 41.64 28.2411 37.5C28.9686 33.36 32.9211 30 37.0611 30Z" fill="white"/>
</svg>
