<svg xmlns="http://www.w3.org/2000/svg" width="27" height="24" fill="none" viewBox="0 0 27 24">
  <path fill="#AAACAD" d="M2.604 2.656c.152.2 2.026 2.655 4.17 5.455 2.14 2.8 3.893 5.104 3.893 5.119 0 .014-1.397 1.622-3.1 3.574A3249.313 3249.313 0 0 1 2.84 22.21l-.074.085h3.382l3.037-3.474c1.67-1.907 3.052-3.474 3.07-3.481.02-.008 1.23 1.555 2.697 3.47l2.66 3.482 3.414.003h3.415l-3.215-4.252c-1.767-2.337-3.726-4.922-4.348-5.748-.626-.825-1.13-1.518-1.122-1.544.01-.022 1.655-1.915 3.659-4.204a780.653 780.653 0 0 0 3.67-4.207c.026-.034-.318-.045-1.652-.045h-1.685l-.589.674c-.326.375-1.581 1.815-2.796 3.2l-2.207 2.526-2.419-3.2-2.422-3.2H2.33l.274.36Zm11.759 9.585 6.052 8-.919.01c-.837.008-.926.005-.981-.055-.063-.066-12.14-15.84-12.196-15.93-.023-.036.174-.044.985-.036l1.01.01 6.049 8Z"/>
</svg>
