<svg width="16" height="16" viewBox="0 0 16 16" fill="none" xmlns="http://www.w3.org/2000/svg">
<path d="M8.00004 1.33594C4.31804 1.33594 1.33337 4.3206 1.33337 8.0026C1.33337 11.6846 4.31804 14.6693 8.00004 14.6693C11.682 14.6693 14.6667 11.6846 14.6667 8.0026C14.6667 4.3206 11.682 1.33594 8.00004 1.33594ZM9.46871 10.582C9.19871 10.8519 8.85537 11.0166 8.48537 11.0699V11.3359C8.48537 11.6119 8.26137 11.8359 7.98537 11.8359C7.70937 11.8359 7.48537 11.6119 7.48537 11.3359V11.0686C6.72337 10.9446 6.11871 10.3306 6.02938 9.53996C5.99871 9.26529 6.19604 9.01797 6.4707 8.9873C6.74137 8.9533 6.99271 9.15396 7.02338 9.42863C7.06604 9.80863 7.38604 10.0953 7.76737 10.0953H8.23405C8.43272 10.0953 8.62004 10.0172 8.76204 9.87524C8.90404 9.73324 8.98204 9.54592 8.98204 9.34725C8.98204 9.00392 8.74871 8.70592 8.41471 8.62126L7.34271 8.35531C6.96271 8.25864 6.62403 8.03793 6.3867 7.73193C6.1507 7.43327 6.01872 7.05059 6.01872 6.65926C6.01872 5.79193 6.65537 5.07527 7.48537 4.93994V4.66927C7.48537 4.39327 7.70937 4.16927 7.98537 4.16927C8.26137 4.16927 8.48537 4.39327 8.48537 4.66927V4.93327C9.26137 5.04593 9.88137 5.66392 9.97137 6.46525C10.002 6.73992 9.80472 6.98724 9.53005 7.0179C9.25272 7.0499 9.00804 6.85125 8.97738 6.57658C8.93471 6.19658 8.61471 5.90991 8.23338 5.90991H7.7667C7.35404 5.90991 7.01872 6.24529 7.01872 6.65796C7.01872 6.82529 7.07403 6.98792 7.17403 7.11458C7.27937 7.25058 7.42071 7.34262 7.58604 7.38395L8.65804 7.6499C9.43804 7.84724 9.98204 8.54461 9.98204 9.34595C9.98137 9.81261 9.79938 10.2513 9.46871 10.582Z" fill="white"/>
</svg>
