<svg width="296" height="281" viewBox="0 0 296 281" fill="none" xmlns="http://www.w3.org/2000/svg">
<g clip-path="url(#clip0_13540_8040)">
<g opacity="0.7">
<path d="M-144 -75H156V-74H-144V-75Z" fill="url(#paint0_linear_13540_8040)"/>
<path d="M-144 -50H156V-49H-144V-50Z" fill="url(#paint1_linear_13540_8040)"/>
<path d="M-144 -25H156V-24H-144V-25Z" fill="url(#paint2_linear_13540_8040)"/>
<path d="M-144 0H156V1H-144V0Z" fill="url(#paint3_linear_13540_8040)"/>
<path d="M-144 25H156V26H-144V25Z" fill="url(#paint4_linear_13540_8040)"/>
<path d="M-144 50H156V51H-144V50Z" fill="url(#paint5_linear_13540_8040)"/>
<path d="M-144 75H156V76H-144V75Z" fill="url(#paint6_linear_13540_8040)"/>
<path d="M-124 -119H-123V121H-124V-119Z" fill="url(#paint7_linear_13540_8040)"/>
<path d="M-102 -119H-101V121H-102V-119Z" fill="url(#paint8_linear_13540_8040)"/>
<path d="M-80 -119H-79V121H-80V-119Z" fill="url(#paint9_linear_13540_8040)"/>
<path d="M-58 -119H-57V121H-58V-119Z" fill="url(#paint10_linear_13540_8040)"/>
<path d="M-36 -119H-35V121H-36V-119Z" fill="url(#paint11_linear_13540_8040)"/>
<path d="M-14 -119H-13V121H-14V-119Z" fill="url(#paint12_linear_13540_8040)"/>
<path d="M8 -119H9V121H8V-119Z" fill="url(#paint13_linear_13540_8040)"/>
<path d="M30 -119H31V121H30V-119Z" fill="url(#paint14_linear_13540_8040)"/>
<path d="M52 -119H53V121H52V-119Z" fill="url(#paint15_linear_13540_8040)"/>
<path d="M74 -119H75V121H74V-119Z" fill="url(#paint16_linear_13540_8040)"/>
<path d="M96 -119H97V121H96V-119Z" fill="url(#paint17_linear_13540_8040)"/>
<path d="M118 -119H119V121H118V-119Z" fill="url(#paint18_linear_13540_8040)"/>
<path d="M140 -120H141V120H140V-120Z" fill="url(#paint19_linear_13540_8040)"/>
</g>
</g>
<defs>
<linearGradient id="paint0_linear_13540_8040" x1="60" y1="-85" x2="-125" y2="121" gradientUnits="userSpaceOnUse">
<stop stop-color="#D9D9D9" stop-opacity="0"/>
<stop offset="0.255964" stop-color="#D9D9D9" stop-opacity="0.12"/>
<stop offset="0.545223" stop-color="#737373" stop-opacity="0"/>
</linearGradient>
<linearGradient id="paint1_linear_13540_8040" x1="60" y1="-85" x2="-125" y2="121" gradientUnits="userSpaceOnUse">
<stop stop-color="#D9D9D9" stop-opacity="0"/>
<stop offset="0.255964" stop-color="#D9D9D9" stop-opacity="0.12"/>
<stop offset="0.545223" stop-color="#737373" stop-opacity="0"/>
</linearGradient>
<linearGradient id="paint2_linear_13540_8040" x1="60" y1="-85" x2="-125" y2="121" gradientUnits="userSpaceOnUse">
<stop stop-color="#D9D9D9" stop-opacity="0"/>
<stop offset="0.255964" stop-color="#D9D9D9" stop-opacity="0.12"/>
<stop offset="0.545223" stop-color="#737373" stop-opacity="0"/>
</linearGradient>
<linearGradient id="paint3_linear_13540_8040" x1="60" y1="-85" x2="-125" y2="121" gradientUnits="userSpaceOnUse">
<stop stop-color="#D9D9D9" stop-opacity="0"/>
<stop offset="0.255964" stop-color="#D9D9D9" stop-opacity="0.12"/>
<stop offset="0.545223" stop-color="#737373" stop-opacity="0"/>
</linearGradient>
<linearGradient id="paint4_linear_13540_8040" x1="60" y1="-85" x2="-125" y2="121" gradientUnits="userSpaceOnUse">
<stop stop-color="#D9D9D9" stop-opacity="0"/>
<stop offset="0.255964" stop-color="#D9D9D9" stop-opacity="0.12"/>
<stop offset="0.545223" stop-color="#737373" stop-opacity="0"/>
</linearGradient>
<linearGradient id="paint5_linear_13540_8040" x1="60" y1="-85" x2="-125" y2="121" gradientUnits="userSpaceOnUse">
<stop stop-color="#D9D9D9" stop-opacity="0"/>
<stop offset="0.255964" stop-color="#D9D9D9" stop-opacity="0.12"/>
<stop offset="0.545223" stop-color="#737373" stop-opacity="0"/>
</linearGradient>
<linearGradient id="paint6_linear_13540_8040" x1="60" y1="-85" x2="-125" y2="121" gradientUnits="userSpaceOnUse">
<stop stop-color="#D9D9D9" stop-opacity="0"/>
<stop offset="0.255964" stop-color="#D9D9D9" stop-opacity="0.12"/>
<stop offset="0.545223" stop-color="#737373" stop-opacity="0"/>
</linearGradient>
<linearGradient id="paint7_linear_13540_8040" x1="60" y1="-85" x2="-125" y2="121" gradientUnits="userSpaceOnUse">
<stop stop-color="#D9D9D9" stop-opacity="0"/>
<stop offset="0.255964" stop-color="#D9D9D9" stop-opacity="0.12"/>
<stop offset="0.545223" stop-color="#737373" stop-opacity="0"/>
</linearGradient>
<linearGradient id="paint8_linear_13540_8040" x1="60" y1="-85" x2="-125" y2="121" gradientUnits="userSpaceOnUse">
<stop stop-color="#D9D9D9" stop-opacity="0"/>
<stop offset="0.255964" stop-color="#D9D9D9" stop-opacity="0.12"/>
<stop offset="0.545223" stop-color="#737373" stop-opacity="0"/>
</linearGradient>
<linearGradient id="paint9_linear_13540_8040" x1="60" y1="-85" x2="-125" y2="121" gradientUnits="userSpaceOnUse">
<stop stop-color="#D9D9D9" stop-opacity="0"/>
<stop offset="0.255964" stop-color="#D9D9D9" stop-opacity="0.12"/>
<stop offset="0.545223" stop-color="#737373" stop-opacity="0"/>
</linearGradient>
<linearGradient id="paint10_linear_13540_8040" x1="60" y1="-85" x2="-125" y2="121" gradientUnits="userSpaceOnUse">
<stop stop-color="#D9D9D9" stop-opacity="0"/>
<stop offset="0.255964" stop-color="#D9D9D9" stop-opacity="0.12"/>
<stop offset="0.545223" stop-color="#737373" stop-opacity="0"/>
</linearGradient>
<linearGradient id="paint11_linear_13540_8040" x1="60" y1="-85" x2="-125" y2="121" gradientUnits="userSpaceOnUse">
<stop stop-color="#D9D9D9" stop-opacity="0"/>
<stop offset="0.255964" stop-color="#D9D9D9" stop-opacity="0.12"/>
<stop offset="0.545223" stop-color="#737373" stop-opacity="0"/>
</linearGradient>
<linearGradient id="paint12_linear_13540_8040" x1="60" y1="-85" x2="-125" y2="121" gradientUnits="userSpaceOnUse">
<stop stop-color="#D9D9D9" stop-opacity="0"/>
<stop offset="0.255964" stop-color="#D9D9D9" stop-opacity="0.12"/>
<stop offset="0.545223" stop-color="#737373" stop-opacity="0"/>
</linearGradient>
<linearGradient id="paint13_linear_13540_8040" x1="60" y1="-85" x2="-125" y2="121" gradientUnits="userSpaceOnUse">
<stop stop-color="#D9D9D9" stop-opacity="0"/>
<stop offset="0.255964" stop-color="#D9D9D9" stop-opacity="0.12"/>
<stop offset="0.545223" stop-color="#737373" stop-opacity="0"/>
</linearGradient>
<linearGradient id="paint14_linear_13540_8040" x1="60" y1="-85" x2="-125" y2="121" gradientUnits="userSpaceOnUse">
<stop stop-color="#D9D9D9" stop-opacity="0"/>
<stop offset="0.255964" stop-color="#D9D9D9" stop-opacity="0.12"/>
<stop offset="0.545223" stop-color="#737373" stop-opacity="0"/>
</linearGradient>
<linearGradient id="paint15_linear_13540_8040" x1="60" y1="-85" x2="-125" y2="121" gradientUnits="userSpaceOnUse">
<stop stop-color="#D9D9D9" stop-opacity="0"/>
<stop offset="0.255964" stop-color="#D9D9D9" stop-opacity="0.12"/>
<stop offset="0.545223" stop-color="#737373" stop-opacity="0"/>
</linearGradient>
<linearGradient id="paint16_linear_13540_8040" x1="60" y1="-85" x2="-125" y2="121" gradientUnits="userSpaceOnUse">
<stop stop-color="#D9D9D9" stop-opacity="0"/>
<stop offset="0.255964" stop-color="#D9D9D9" stop-opacity="0.12"/>
<stop offset="0.545223" stop-color="#737373" stop-opacity="0"/>
</linearGradient>
<linearGradient id="paint17_linear_13540_8040" x1="60" y1="-85" x2="-125" y2="121" gradientUnits="userSpaceOnUse">
<stop stop-color="#D9D9D9" stop-opacity="0"/>
<stop offset="0.255964" stop-color="#D9D9D9" stop-opacity="0.12"/>
<stop offset="0.545223" stop-color="#737373" stop-opacity="0"/>
</linearGradient>
<linearGradient id="paint18_linear_13540_8040" x1="60" y1="-85" x2="-125" y2="121" gradientUnits="userSpaceOnUse">
<stop stop-color="#D9D9D9" stop-opacity="0"/>
<stop offset="0.255964" stop-color="#D9D9D9" stop-opacity="0.12"/>
<stop offset="0.545223" stop-color="#737373" stop-opacity="0"/>
</linearGradient>
<linearGradient id="paint19_linear_13540_8040" x1="60" y1="-85" x2="-125" y2="121" gradientUnits="userSpaceOnUse">
<stop stop-color="#D9D9D9" stop-opacity="0"/>
<stop offset="0.255964" stop-color="#D9D9D9" stop-opacity="0.12"/>
<stop offset="0.545223" stop-color="#737373" stop-opacity="0"/>
</linearGradient>
<clipPath id="clip0_13540_8040">
<rect width="296" height="281" fill="white"/>
</clipPath>
</defs>
</svg>
