<svg width="16" height="16" viewBox="0 0 16 16" fill="none" xmlns="http://www.w3.org/2000/svg">
<path d="M11.66 5.90674L8.01339 8L4.34672 5.90674C3.72005 5.55341 3.33337 5.33334 3.33337 4.17334V3C3.33337 2.44667 3.78004 2 4.33337 2H11.6667C12.22 2 12.6667 2.44667 12.6667 3V4.17334C12.6667 5.33334 12.28 5.55341 11.66 5.90674ZM3.33337 11.8267V13C3.33337 13.5533 3.78004 14 4.33337 14H11.6667C12.22 14 12.6667 13.5533 12.6667 13V11.8267C12.6667 10.6667 12.28 10.4466 11.66 10.0933L8.01339 8L4.34672 10.0933C3.72005 10.4466 3.33337 10.6667 3.33337 11.8267Z" fill="white"/>
</svg>
