<svg width="73" height="40" viewBox="0 0 73 40" fill="none" xmlns="http://www.w3.org/2000/svg">
<path fill-rule="evenodd" clip-rule="evenodd" d="M19.9775 4.64225C15.9162 4.64225 12.0232 6.25349 9.15089 9.12592C6.27845 11.9983 4.66721 15.8913 4.66721 19.9525C4.66721 24.0138 6.27845 27.9068 9.15089 30.7791C12.0232 33.6515 15.9162 35.2628 19.9775 35.2628H21.8359C17.2981 31.7028 14.3832 26.1686 14.3832 19.9525C14.3832 13.7364 17.2981 8.20227 21.8359 4.64225H19.9775ZM34.0464 0.505497V0.504333H33.8314H19.9775C14.8195 0.504333 9.87388 2.55101 6.22491 6.19994C2.57597 9.84891 0.529297 14.7945 0.529297 19.9525C0.529297 25.1105 2.57597 30.0561 6.22491 33.7051C9.87388 37.354 14.8195 39.4007 19.9775 39.4007H33.8314H34.0464V39.3995C36.5308 39.3727 38.9033 38.8802 41.0809 38.0052V39.4007H53.0808C58.2388 39.4007 63.1844 37.354 66.8334 33.7051C70.4824 30.0561 72.5293 25.1105 72.5293 19.9525C72.5293 14.7945 70.4824 9.84891 66.8334 6.19994C63.1844 2.55101 58.2388 0.504333 53.0808 0.504333H41.0809V1.89991C38.9033 1.02491 36.5308 0.532391 34.0464 0.505497ZM41.0809 6.46322C38.9231 5.30143 36.4544 4.64225 33.8314 4.64225C25.3741 4.64225 18.5211 11.4952 18.5211 19.9525C18.5211 28.4098 25.3741 35.2628 33.8314 35.2628C36.4544 35.2628 38.9231 34.6036 41.0809 33.4418V6.46322ZM45.2188 30.188V9.71708C47.6578 12.4289 49.1417 16.017 49.1417 19.9525C49.1417 23.888 47.6578 27.4761 45.2188 30.188ZM45.827 35.2628C50.3647 31.7028 53.2796 26.1686 53.2796 19.9525C53.2796 13.7364 50.3647 8.20227 45.827 4.64225H53.0808C57.1421 4.64225 61.0351 6.25349 63.9074 9.12592C66.7799 11.9983 68.3911 15.8913 68.3911 19.9525C68.3911 24.0138 66.7799 27.9068 63.9074 30.7791C61.0351 33.6515 57.1421 35.2628 53.0808 35.2628H45.827Z" fill="#606067"/>
</svg>
