<svg width="28" height="28" viewBox="0 0 28 28" fill="none" xmlns="http://www.w3.org/2000/svg">
<g clip-path="url(#clip0_37997_29913)">
<path d="M14 0C21.7316 0 28 6.26836 28 14C28 21.7316 21.7314 28 14 28C6.26864 28 0 21.7333 0 14C0 6.26668 6.26752 0 14 0Z" fill="#53AE94"/>
<path d="M15.7277 12.1387V10.0561H20.4902V6.88281H7.52169V10.0561H12.2848V12.137C8.41377 12.3148 5.50317 13.0815 5.50317 13.9999C5.50317 14.9183 8.41517 15.6849 12.2848 15.8638V22.5348H15.7288V15.8633C19.5928 15.6849 22.4975 14.9188 22.4975 14.0013C22.4975 13.0837 19.5928 12.3176 15.7288 12.1393M15.7288 15.2982V15.2965C15.6316 15.3027 15.1324 15.3327 14.0208 15.3327C13.1321 15.3327 12.5068 15.3075 12.2865 15.296V15.2988C8.86653 15.1473 6.31377 14.5517 6.31377 13.8391C6.31377 13.1265 8.86681 12.5318 12.2865 12.3801V14.7055C12.5105 14.7209 13.1511 14.7587 14.0353 14.7587C15.0974 14.7587 15.6313 14.7144 15.7293 14.7055V12.3801C19.1425 12.5321 21.6894 13.1282 21.6894 13.8383C21.6894 14.5484 19.1414 15.1448 15.7293 15.2968" fill="white"/>
</g>
<defs>
<clipPath id="clip0_37997_29913">
<rect width="28" height="28" fill="white"/>
</clipPath>
</defs>
</svg>
