<svg width="48" height="48" viewBox="0 0 48 48" fill="none" xmlns="http://www.w3.org/2000/svg">
<g clip-path="url(#clip0_37822_26483)">
<path d="M43.4016 28.8381C40.7301 39.5525 29.877 46.0731 19.1601 43.4012C8.44772 40.7301 1.92642 29.8775 4.59904 19.1639C7.26931 8.44838 18.1225 1.92732 28.836 4.59847C39.5521 7.26961 46.073 18.1234 43.4013 28.8383L43.4015 28.8381H43.4016Z" fill="white"/>
<g clip-path="url(#clip1_37822_26483)">
<path d="M28.3708 9.88281C33.75 9.88281 38.1148 14.2473 38.115 19.6289V28.375C38.1149 33.7542 33.7506 38.1181 28.3689 38.1182H19.6257C14.244 38.1182 9.87964 33.7538 9.87964 28.3721V19.6289C9.87983 14.2473 14.2441 9.88281 19.6257 9.88281H28.3708ZM16.8289 18.71C16.605 19.1967 16.4832 19.7392 16.4832 20.3086V27.6113C16.4832 28.1832 16.605 28.7238 16.8289 29.2129C17.2159 30.0769 17.9121 30.7732 18.7761 31.1602C19.2653 31.384 19.8057 31.5059 20.3777 31.5059H27.6804C28.2522 31.5058 28.7929 31.384 29.282 31.1602L22.0818 23.96L16.8289 18.71ZM20.3425 16.4502C19.7706 16.4502 19.2302 16.572 18.741 16.7959L25.9412 23.9961L31.1941 29.2461C31.4179 28.7595 31.5388 28.2168 31.5388 27.6475V20.3447C31.5388 19.7728 31.418 19.2323 31.1941 18.7432C30.8071 17.8792 30.1108 17.1829 29.2468 16.7959C28.7576 16.572 28.2163 16.4502 27.6443 16.4502H20.3425Z" fill="black"/>
</g>
</g>
<defs>
<clipPath id="clip0_37822_26483">
<rect width="40" height="40" fill="white" transform="translate(4 4)"/>
</clipPath>
<clipPath id="clip1_37822_26483">
<rect width="28.2353" height="28.2353" fill="white" transform="translate(9.88232 9.88281)"/>
</clipPath>
</defs>
</svg>
