<svg width="68" height="68" viewBox="0 0 68 68" fill="none" xmlns="http://www.w3.org/2000/svg">
<path d="M66.9827 42.2248C62.4412 60.4392 43.9908 71.5242 25.7722 66.9821C7.56112 62.4411 -3.52508 43.9917 1.01836 25.7787C5.55783 7.56225 24.0082 -3.52355 42.2212 1.0174C60.4386 5.55834 71.5241 24.0098 66.9822 42.2251L66.9825 42.2248H66.9827Z" fill="white"/>
<g clip-path="url(#clip0_37225_29595)">
<path d="M40.1926 14C47.8132 14 53.9962 20.1826 53.9963 27.8066V40.1963C53.9963 47.817 47.8129 54 40.1887 54H27.803C20.1789 54 13.9965 47.8174 13.9963 40.1934V27.8066C13.9965 20.1826 20.1789 14 27.803 14H40.1926ZM23.8411 26.5088C23.524 27.1982 23.3519 27.9668 23.3518 28.7734V39.1191C23.3519 39.9293 23.5239 40.6947 23.8411 41.3877C24.3893 42.6118 25.3757 43.5982 26.5999 44.1465C27.2928 44.4636 28.0582 44.6357 28.8684 44.6357H39.2131C40.0235 44.6357 40.7896 44.4637 41.4827 44.1465L31.2825 33.9463L23.8411 26.5088ZM28.8186 23.3086C28.0084 23.3086 27.243 23.4807 26.55 23.7979L36.7502 33.998L44.1907 41.4355C44.5078 40.7461 44.6808 39.9776 44.6809 39.1709V28.8252C44.6809 28.015 44.5079 27.2496 44.1907 26.5566C43.6424 25.3327 42.6568 24.3461 41.4329 23.7979C40.7398 23.4806 39.9737 23.3086 39.1633 23.3086H28.8186Z" fill="black"/>
</g>
<defs>
<clipPath id="clip0_37225_29595">
<rect width="40" height="40" fill="white" transform="translate(14 14)"/>
</clipPath>
</defs>
</svg>
