<svg width="120" height="121" viewBox="0 0 120 121" fill="none" xmlns="http://www.w3.org/2000/svg">
<circle opacity="0.6" cx="60" cy="60.5938" r="60" fill="#5DDD22" fill-opacity="0.12"/>
<circle cx="60" cy="60.5938" r="40" fill="#5DDD22" fill-opacity="0.12"/>
<path d="M79.8184 40.7969C80.9985 40.7971 82 41.7755 82 42.9824V64.459C80.5314 63.7772 78.8956 63.3945 77.1699 63.3945C70.8262 63.3945 65.6836 68.5371 65.6836 74.8809C65.6836 76.8801 66.1956 78.7592 67.0938 80.3965H40.1816C39.0015 80.3963 38 79.4177 38 78.2109V42.9824C38 41.7759 38.9766 40.797 40.1816 40.7969H79.8184ZM42.4004 45.1973V75.9971H60V45.1973H42.4004ZM57.7998 56.1973V60.5967H44.5996V56.1973H57.7998ZM57.7998 49.5967V53.9971H44.5996V49.5967H57.7998Z" fill="white"/>
<path d="M85.9789 70.4199L83.7934 68.2344L76.0003 76.0275L71.6843 71.7115L69.4988 73.8969L76.0003 80.3984L85.9789 70.4199Z" fill="white"/>
</svg>
