<svg width="72" height="73" viewBox="0 0 72 73" fill="none" xmlns="http://www.w3.org/2000/svg">
<path d="M36 6.79688C19.44 6.79688 6 20.2369 6 36.7969C6 53.3569 19.44 66.7969 36 66.7969C52.56 66.7969 66 53.3569 66 36.7969C66 20.2369 52.56 6.79688 36 6.79688ZM48.09 31.3969L34.08 45.3768C33.66 45.8268 33.09 46.0369 32.49 46.0369C31.92 46.0369 31.35 45.8268 30.9 45.3768L23.91 38.387C23.04 37.517 23.04 36.0768 23.91 35.2068C24.78 34.3368 26.22 34.3368 27.09 35.2068L32.49 40.6069L44.91 28.2169C45.78 27.3169 47.22 27.3169 48.09 28.2169C48.96 29.0869 48.96 30.4969 48.09 31.3969Z" fill="#5DDD22"/>
</svg>
