<svg width="72" height="73" viewBox="0 0 72 73" fill="none" xmlns="http://www.w3.org/2000/svg">
<path d="M36 6.59375C19.431 6.59375 6 20.0248 6 36.5938C6 53.1628 19.431 66.5938 36 66.5938C52.569 66.5938 66 53.1628 66 36.5938C66 20.0248 52.569 6.59375 36 6.59375ZM33.75 23.0938C33.75 21.8518 34.758 20.8438 36 20.8438C37.242 20.8438 38.25 21.8518 38.25 23.0938V36.8069C38.25 38.0489 37.242 39.0569 36 39.0569C34.758 39.0569 33.75 38.0489 33.75 36.8069V23.0938ZM36.0601 50.0938C34.4041 50.0938 33.0447 48.7497 33.0447 47.0938C33.0447 45.4378 34.374 44.0938 36.03 44.0938H36.0601C37.7191 44.0938 39.0601 45.4378 39.0601 47.0938C39.0601 48.7497 37.7161 50.0938 36.0601 50.0938Z" fill="#FFA800"/>
</svg>
