<svg width="72" height="72" viewBox="0 0 72 72" fill="none" xmlns="http://www.w3.org/2000/svg">
<path d="M36 6C19.44 6 6 19.44 6 36C6 52.56 19.44 66 36 66C52.56 66 66 52.56 66 36C66 19.44 52.56 6 36 6ZM46.59 43.4099C47.46 44.2799 47.46 45.7201 46.59 46.5901C46.14 47.0401 45.57 47.25 45 47.25C44.43 47.25 43.86 47.0401 43.41 46.5901L36 39.18L28.59 46.5901C28.14 47.0401 27.57 47.25 27 47.25C26.43 47.25 25.86 47.0401 25.41 46.5901C24.54 45.7201 24.54 44.2799 25.41 43.4099L32.82 36L25.41 28.5901C24.54 27.7201 24.54 26.2799 25.41 25.4099C26.28 24.5399 27.72 24.5399 28.59 25.4099L36 32.82L43.41 25.4099C44.28 24.5399 45.72 24.5399 46.59 25.4099C47.46 26.2799 47.46 27.7201 46.59 28.5901L39.18 36L46.59 43.4099Z" fill="#D92B2B"/>
</svg>
