<svg width="48" height="48" viewBox="0 0 48 48" fill="none" xmlns="http://www.w3.org/2000/svg">
<g filter="url(#filter0_f_842_1220)">
<circle cx="24" cy="24" r="12" fill="#F838AB" fill-opacity="0.2"/>
</g>
<path d="M15 16.6278L24.0043 14L33 16.6278V22.0169C33 27.6811 29.3751 32.2097 24.0013 34.0002C18.626 32.2097 15 27.68 15 22.0143V16.6278Z" stroke="white" stroke-opacity="0.85" stroke-width="1.5" stroke-linejoin="round"/>
<path d="M24 23.5C25.3807 23.5 26.5 22.3807 26.5 21C26.5 19.6193 25.3807 18.5 24 18.5C22.6193 18.5 21.5 19.6193 21.5 21C21.5 22.3807 22.6193 23.5 24 23.5Z" stroke="white" stroke-opacity="0.85" stroke-width="1.5" stroke-linecap="round" stroke-linejoin="round"/>
<path d="M28 27.5C28 25.2908 26.2092 23.5 24 23.5C21.7908 23.5 20 25.2908 20 27.5" stroke="white" stroke-opacity="0.85" stroke-width="1.5" stroke-linecap="round" stroke-linejoin="round"/>
<defs>
<filter id="filter0_f_842_1220" x="0" y="0" width="48" height="48" filterUnits="userSpaceOnUse" color-interpolation-filters="sRGB">
<feFlood flood-opacity="0" result="BackgroundImageFix"/>
<feBlend mode="normal" in="SourceGraphic" in2="BackgroundImageFix" result="shape"/>
<feGaussianBlur stdDeviation="6" result="effect1_foregroundBlur_842_1220"/>
</filter>
</defs>
</svg>
