<svg xmlns="http://www.w3.org/2000/svg" width="13" height="12" fill="none" viewBox="0 0 13 12">
  <path fill="#FFA800" fill-opacity=".878" d="M5.757.473c.2-.614 1.069-.614 1.268 0L8.038 3.59c.089.275.345.46.634.46h3.276c.646 0 .914.827.392 1.207L9.69 7.182a.667.667 0 0 0-.243.745l1.013 3.116c.2.614-.504 1.125-1.026.745l-2.65-1.926a.667.667 0 0 0-.785 0l-2.65 1.926c-.523.38-1.226-.131-1.026-.745l1.012-3.116a.667.667 0 0 0-.242-.745L.443 5.256C-.08 4.876.189 4.05.835 4.05H4.11a.667.667 0 0 0 .634-.46L5.757.472Z"/>
</svg>
