<svg width="288" height="219" viewBox="0 0 288 219" fill="none" xmlns="http://www.w3.org/2000/svg">
<rect x="0.5" y="0.5" width="287" height="218" rx="15.5" stroke="url(#paint0_linear_1874_8776)"/>
<path d="M49.7614 182V167.455H54.6761C55.8125 167.455 56.7453 167.649 57.4744 168.037C58.2036 168.42 58.7434 168.948 59.0938 169.621C59.4441 170.293 59.6193 171.058 59.6193 171.915C59.6193 172.772 59.4441 173.532 59.0938 174.195C58.7434 174.857 58.206 175.378 57.4815 175.757C56.7571 176.131 55.8314 176.318 54.7045 176.318H50.7273V174.727H54.6477C55.4242 174.727 56.0492 174.614 56.5227 174.386C57.0009 174.159 57.3466 173.837 57.5597 173.42C57.7775 172.999 57.8864 172.497 57.8864 171.915C57.8864 171.332 57.7775 170.823 57.5597 170.388C57.3419 169.952 56.9938 169.616 56.5156 169.379C56.0374 169.138 55.4053 169.017 54.6193 169.017H51.5227V182H49.7614ZM56.608 175.466L60.1875 182H58.142L54.6193 175.466H56.608ZM66.7837 182.227C65.7326 182.227 64.8259 181.995 64.0636 181.531C63.306 181.062 62.7212 180.409 62.3093 179.571C61.9021 178.728 61.6985 177.748 61.6985 176.631C61.6985 175.513 61.9021 174.528 62.3093 173.676C62.7212 172.819 63.2942 172.152 64.0281 171.673C64.7667 171.19 65.6284 170.949 66.6133 170.949C67.1815 170.949 67.7425 171.044 68.2965 171.233C68.8505 171.422 69.3548 171.73 69.8093 172.156C70.2638 172.578 70.6261 173.136 70.896 173.832C71.1658 174.528 71.3008 175.385 71.3008 176.403V177.114H62.8917V175.665H69.5962C69.5962 175.049 69.4731 174.5 69.2269 174.017C68.9854 173.534 68.6398 173.153 68.19 172.874C67.7449 172.594 67.2193 172.455 66.6133 172.455C65.9457 172.455 65.368 172.62 64.8803 172.952C64.3974 173.278 64.0257 173.705 63.7653 174.23C63.5049 174.756 63.3746 175.319 63.3746 175.92V176.886C63.3746 177.71 63.5167 178.409 63.8008 178.982C64.0896 179.55 64.4897 179.983 65.0011 180.281C65.5124 180.575 66.1067 180.722 66.7837 180.722C67.2241 180.722 67.6218 180.66 67.9769 180.537C68.3368 180.409 68.6469 180.22 68.9073 179.969C69.1677 179.713 69.369 179.396 69.511 179.017L71.1303 179.472C70.9599 180.021 70.6734 180.504 70.271 180.92C69.8685 181.332 69.3713 181.654 68.7795 181.886C68.1876 182.114 67.5224 182.227 66.7837 182.227ZM73.8505 186.091V171.091H75.4698V172.824H75.6687C75.7918 172.634 75.9622 172.393 76.18 172.099C76.4026 171.801 76.7198 171.536 77.1317 171.304C77.5484 171.067 78.1119 170.949 78.8221 170.949C79.7406 170.949 80.5503 171.179 81.2511 171.638C81.9518 172.097 82.4987 172.748 82.8917 173.591C83.2847 174.434 83.4812 175.428 83.4812 176.574C83.4812 177.729 83.2847 178.731 82.8917 179.578C82.4987 180.421 81.9542 181.074 81.2582 181.538C80.5621 181.998 79.7596 182.227 78.8505 182.227C78.1497 182.227 77.5887 182.111 77.1673 181.879C76.7459 181.643 76.4215 181.375 76.1942 181.077C75.967 180.774 75.7918 180.523 75.6687 180.324H75.5266V186.091H73.8505ZM75.4982 176.545C75.4982 177.369 75.619 178.096 75.8604 178.726C76.1019 179.351 76.4547 179.841 76.9187 180.196C77.3827 180.546 77.9509 180.722 78.6232 180.722C79.324 180.722 79.9087 180.537 80.3775 180.168C80.851 179.794 81.2061 179.292 81.4428 178.662C81.6843 178.027 81.805 177.322 81.805 176.545C81.805 175.778 81.6867 175.087 81.4499 174.472C81.2179 173.851 80.8652 173.361 80.3917 173.001C79.9229 172.637 79.3335 172.455 78.6232 172.455C77.9414 172.455 77.3685 172.627 76.9045 172.973C76.4405 173.314 76.0901 173.792 75.8533 174.408C75.6166 175.018 75.4982 175.731 75.4982 176.545ZM92.913 177.54V171.091H94.5891V182H92.913V180.153H92.7994C92.5437 180.707 92.146 181.179 91.6062 181.567C91.0664 181.95 90.3846 182.142 89.5607 182.142C88.8789 182.142 88.2728 181.993 87.7425 181.695C87.2122 181.392 86.7956 180.937 86.4925 180.331C86.1895 179.72 86.038 178.951 86.038 178.023V171.091H87.7141V177.909C87.7141 178.705 87.9367 179.339 88.3817 179.812C88.8316 180.286 89.4045 180.523 90.1005 180.523C90.5172 180.523 90.9409 180.416 91.3718 180.203C91.8074 179.99 92.172 179.663 92.4656 179.223C92.7638 178.783 92.913 178.222 92.913 177.54ZM102.403 171.091V172.511H96.75V171.091H102.403ZM98.3977 168.477H100.074V178.875C100.074 179.348 100.143 179.704 100.28 179.94C100.422 180.172 100.602 180.329 100.82 180.409C101.042 180.485 101.277 180.523 101.523 180.523C101.707 180.523 101.859 180.513 101.977 180.494C102.096 180.471 102.19 180.452 102.261 180.438L102.602 181.943C102.489 181.986 102.33 182.028 102.126 182.071C101.923 182.118 101.665 182.142 101.352 182.142C100.879 182.142 100.415 182.04 99.9602 181.837C99.5104 181.633 99.1364 181.323 98.8381 180.906C98.5445 180.49 98.3977 179.964 98.3977 179.33V168.477ZM108.135 182.256C107.444 182.256 106.816 182.125 106.253 181.865C105.689 181.6 105.242 181.219 104.911 180.722C104.579 180.22 104.413 179.614 104.413 178.903C104.413 178.278 104.536 177.772 104.783 177.384C105.029 176.991 105.358 176.683 105.77 176.46C106.182 176.238 106.636 176.072 107.134 175.963C107.635 175.849 108.14 175.759 108.646 175.693C109.309 175.608 109.847 175.544 110.259 175.501C110.675 175.454 110.978 175.376 111.168 175.267C111.362 175.158 111.459 174.969 111.459 174.699V174.642C111.459 173.941 111.267 173.397 110.884 173.009C110.505 172.62 109.929 172.426 109.158 172.426C108.357 172.426 107.73 172.601 107.276 172.952C106.821 173.302 106.501 173.676 106.317 174.074L104.726 173.506C105.01 172.843 105.389 172.327 105.862 171.957C106.34 171.583 106.861 171.323 107.425 171.176C107.993 171.025 108.552 170.949 109.101 170.949C109.451 170.949 109.854 170.991 110.308 171.077C110.768 171.157 111.21 171.325 111.636 171.581C112.067 171.837 112.425 172.223 112.709 172.739C112.993 173.255 113.135 173.946 113.135 174.812V182H111.459V180.523H111.374C111.26 180.759 111.071 181.013 110.805 181.283C110.54 181.553 110.188 181.782 109.747 181.972C109.307 182.161 108.769 182.256 108.135 182.256ZM108.391 180.75C109.054 180.75 109.612 180.62 110.067 180.359C110.526 180.099 110.872 179.763 111.104 179.351C111.34 178.939 111.459 178.506 111.459 178.051V176.517C111.388 176.602 111.232 176.68 110.99 176.751C110.753 176.818 110.479 176.877 110.166 176.929C109.858 176.976 109.558 177.019 109.264 177.057C108.975 177.09 108.741 177.118 108.561 177.142C108.125 177.199 107.718 177.291 107.339 177.419C106.965 177.542 106.662 177.729 106.43 177.98C106.203 178.226 106.089 178.562 106.089 178.989C106.089 179.571 106.305 180.011 106.736 180.31C107.171 180.603 107.723 180.75 108.391 180.75ZM120.939 171.091V172.511H115.285V171.091H120.939ZM116.933 168.477H118.609V178.875C118.609 179.348 118.678 179.704 118.815 179.94C118.957 180.172 119.137 180.329 119.355 180.409C119.577 180.485 119.812 180.523 120.058 180.523C120.243 180.523 120.394 180.513 120.512 180.494C120.631 180.471 120.725 180.452 120.797 180.438L121.137 181.943C121.024 181.986 120.865 182.028 120.662 182.071C120.458 182.118 120.2 182.142 119.887 182.142C119.414 182.142 118.95 182.04 118.495 181.837C118.046 181.633 117.672 181.323 117.373 180.906C117.08 180.49 116.933 179.964 116.933 179.33V168.477ZM123.46 182V171.091H125.136V182H123.46ZM124.312 169.273C123.985 169.273 123.704 169.161 123.467 168.939C123.235 168.716 123.119 168.449 123.119 168.136C123.119 167.824 123.235 167.556 123.467 167.334C123.704 167.111 123.985 167 124.312 167C124.639 167 124.918 167.111 125.15 167.334C125.387 167.556 125.505 167.824 125.505 168.136C125.505 168.449 125.387 168.716 125.15 168.939C124.918 169.161 124.639 169.273 124.312 169.273ZM132.638 182.227C131.653 182.227 130.789 181.993 130.045 181.524C129.307 181.055 128.729 180.4 128.312 179.557C127.901 178.714 127.695 177.729 127.695 176.602C127.695 175.466 127.901 174.474 128.312 173.626C128.729 172.779 129.307 172.121 130.045 171.652C130.789 171.183 131.653 170.949 132.638 170.949C133.623 170.949 134.484 171.183 135.223 171.652C135.966 172.121 136.544 172.779 136.956 173.626C137.373 174.474 137.581 175.466 137.581 176.602C137.581 177.729 137.373 178.714 136.956 179.557C136.544 180.4 135.966 181.055 135.223 181.524C134.484 181.993 133.623 182.227 132.638 182.227ZM132.638 180.722C133.386 180.722 134.001 180.53 134.484 180.146C134.967 179.763 135.325 179.259 135.557 178.634C135.789 178.009 135.905 177.331 135.905 176.602C135.905 175.873 135.789 175.194 135.557 174.564C135.325 173.934 134.967 173.425 134.484 173.037C134.001 172.649 133.386 172.455 132.638 172.455C131.89 172.455 131.274 172.649 130.791 173.037C130.308 173.425 129.951 173.934 129.719 174.564C129.487 175.194 129.371 175.873 129.371 176.602C129.371 177.331 129.487 178.009 129.719 178.634C129.951 179.259 130.308 179.763 130.791 180.146C131.274 180.53 131.89 180.722 132.638 180.722ZM141.816 175.438V182H140.14V171.091H141.759V172.795H141.901C142.157 172.241 142.545 171.796 143.066 171.46C143.587 171.119 144.259 170.949 145.083 170.949C145.821 170.949 146.468 171.1 147.022 171.403C147.576 171.702 148.007 172.156 148.314 172.767C148.622 173.373 148.776 174.14 148.776 175.068V182H147.1V175.182C147.1 174.325 146.877 173.657 146.432 173.179C145.987 172.696 145.376 172.455 144.6 172.455C144.065 172.455 143.587 172.571 143.165 172.803C142.748 173.035 142.419 173.373 142.178 173.818C141.936 174.263 141.816 174.803 141.816 175.438Z" fill="url(#paint1_linear_1874_8776)"/>
<rect x="23.5" y="115.5" width="232" height="15" rx="7.5" fill="url(#paint2_linear_1874_8776)" fill-opacity="0.1" stroke="url(#paint3_linear_1874_8776)"/>
<path d="M24 123C24 119.134 27.134 116 31 116H238V130H31C27.134 130 24 126.866 24 123Z" fill="url(#paint4_linear_1874_8776)"/>
<g filter="url(#filter0_d_1874_8776)">
<circle cx="246" cy="123" r="8" fill="#F838AB"/>
<circle cx="246" cy="123" r="12" stroke="white" stroke-width="8"/>
</g>
<path d="M29.4084 30.7464C29.3686 30.3454 29.1979 30.0339 28.8963 29.8118C28.5947 29.5897 28.1854 29.4787 27.6683 29.4787C27.317 29.4787 27.0204 29.5284 26.7784 29.6278C26.5365 29.724 26.3509 29.8582 26.2216 30.0305C26.0956 30.2029 26.0327 30.3984 26.0327 30.6172C26.026 30.7995 26.0642 30.9586 26.147 31.0945C26.2332 31.2304 26.3509 31.348 26.5 31.4474C26.6491 31.5436 26.8215 31.6281 27.017 31.701C27.2126 31.7706 27.4214 31.8303 27.6435 31.88L28.5582 32.0987C29.0024 32.1982 29.41 32.3307 29.7812 32.4964C30.1525 32.6622 30.474 32.866 30.7457 33.108C31.0175 33.3499 31.228 33.6349 31.3771 33.9631C31.5296 34.2912 31.6075 34.6674 31.6108 35.0916C31.6075 35.7147 31.4484 36.255 31.1335 36.7124C30.822 37.1664 30.3712 37.5194 29.7812 37.7713C29.1946 38.0199 28.487 38.1442 27.6584 38.1442C26.8364 38.1442 26.1205 38.0182 25.5107 37.7663C24.9041 37.5144 24.4302 37.1416 24.0888 36.6477C23.7507 36.1506 23.5734 35.5357 23.5568 34.8033H25.6399C25.6631 35.1446 25.7609 35.4297 25.9332 35.6584C26.1089 35.8838 26.3426 36.0545 26.6342 36.1705C26.9292 36.2831 27.2623 36.3395 27.6335 36.3395C27.9981 36.3395 28.3146 36.2865 28.5831 36.1804C28.8549 36.0743 29.0653 35.9268 29.2145 35.7379C29.3636 35.549 29.4382 35.3319 29.4382 35.0866C29.4382 34.858 29.3703 34.6657 29.2344 34.5099C29.1018 34.3542 28.9063 34.2216 28.6477 34.1122C28.3925 34.0028 28.0793 33.9034 27.7081 33.8139L26.5994 33.5355C25.741 33.3267 25.0632 33.0002 24.5661 32.5561C24.0689 32.112 23.822 31.5137 23.8253 30.7614C23.822 30.1449 23.986 29.6063 24.3175 29.1456C24.6522 28.6849 25.1113 28.3253 25.6946 28.0668C26.2779 27.8082 26.9408 27.679 27.6832 27.679C28.4389 27.679 29.0985 27.8082 29.6619 28.0668C30.2287 28.3253 30.6695 28.6849 30.9844 29.1456C31.2992 29.6063 31.4616 30.1399 31.4716 30.7464H29.4084ZM36.9408 30.3636V31.9545H32.3421V30.3636H36.9408ZM33.3861 28.5341H35.504V35.6534C35.504 35.849 35.5338 36.0014 35.5935 36.1108C35.6531 36.2169 35.736 36.2914 35.8421 36.3345C35.9514 36.3776 36.0774 36.3991 36.2199 36.3991C36.3193 36.3991 36.4188 36.3909 36.5182 36.3743C36.6176 36.3544 36.6939 36.3395 36.7469 36.3295L37.08 37.9055C36.9739 37.9387 36.8248 37.9768 36.6325 38.0199C36.4403 38.0663 36.2066 38.0945 35.9316 38.1044C35.4211 38.1243 34.9737 38.0563 34.5892 37.9006C34.2081 37.7448 33.9114 37.5028 33.6993 37.1747C33.4872 36.8466 33.3828 36.4323 33.3861 35.9318V28.5341ZM40.358 38.1442C39.8707 38.1442 39.4366 38.0597 39.0554 37.8906C38.6742 37.7183 38.3726 37.4647 38.1506 37.13C37.9318 36.7919 37.8225 36.371 37.8225 35.8672C37.8225 35.4429 37.9003 35.0866 38.0561 34.7983C38.2119 34.5099 38.424 34.2779 38.6925 34.1023C38.9609 33.9266 39.2659 33.794 39.6073 33.7045C39.9519 33.6151 40.3132 33.5521 40.6911 33.5156C41.1352 33.4692 41.4931 33.4261 41.7649 33.3864C42.0367 33.3433 42.2339 33.2803 42.3565 33.1974C42.4792 33.1146 42.5405 32.992 42.5405 32.8295V32.7997C42.5405 32.4848 42.4411 32.2412 42.2422 32.0689C42.0466 31.8965 41.7682 31.8104 41.407 31.8104C41.0258 31.8104 40.7225 31.8949 40.4972 32.0639C40.2718 32.2296 40.1226 32.4384 40.0497 32.6903L38.0909 32.5312C38.1903 32.0672 38.3859 31.6662 38.6776 31.3281C38.9692 30.9867 39.3454 30.7249 39.8061 30.5426C40.2701 30.357 40.8071 30.2642 41.4169 30.2642C41.8412 30.2642 42.2472 30.3139 42.635 30.4134C43.026 30.5128 43.3724 30.6669 43.674 30.8757C43.9789 31.0845 44.2192 31.353 44.3949 31.6811C44.5706 32.0059 44.6584 32.3954 44.6584 32.8494V38H42.6499V36.9411H42.5902C42.4676 37.1797 42.3035 37.3902 42.098 37.5724C41.8925 37.7514 41.6456 37.8923 41.3573 37.995C41.0689 38.0945 40.7358 38.1442 40.358 38.1442ZM40.9645 36.6825C41.276 36.6825 41.5511 36.6212 41.7898 36.4986C42.0284 36.3726 42.2157 36.2036 42.3516 35.9915C42.4875 35.7794 42.5554 35.5391 42.5554 35.2706V34.4602C42.4891 34.5033 42.398 34.5431 42.282 34.5795C42.1693 34.6127 42.0417 34.6442 41.8992 34.674C41.7566 34.7005 41.6141 34.7254 41.4716 34.7486C41.3291 34.7685 41.1998 34.7867 41.0838 34.8033C40.8352 34.8397 40.6181 34.8977 40.4325 34.9773C40.2469 35.0568 40.1028 35.1645 40 35.3004C39.8973 35.433 39.8459 35.5987 39.8459 35.7976C39.8459 36.0859 39.9503 36.3063 40.1591 36.4588C40.3712 36.608 40.6397 36.6825 40.9645 36.6825ZM49.6018 41.0227C48.9158 41.0227 48.3275 40.9283 47.8369 40.7393C47.3497 40.5537 46.9619 40.3002 46.6736 39.9787C46.3852 39.6572 46.198 39.2959 46.1118 38.8949L48.0706 38.6314C48.1302 38.7839 48.2247 38.9264 48.354 39.0589C48.4832 39.1915 48.6539 39.2976 48.866 39.3771C49.0815 39.46 49.3433 39.5014 49.6516 39.5014C50.1123 39.5014 50.4918 39.3887 50.79 39.1634C51.0917 38.9413 51.2425 38.5684 51.2425 38.0447V36.6477H51.153C51.0602 36.8598 50.921 37.0604 50.7354 37.2493C50.5498 37.4382 50.3111 37.5923 50.0195 37.7116C49.7278 37.831 49.3798 37.8906 48.9754 37.8906C48.402 37.8906 47.88 37.758 47.4094 37.4929C46.942 37.2244 46.5692 36.8151 46.2908 36.2649C46.0157 35.7114 45.8781 35.0121 45.8781 34.1669C45.8781 33.3018 46.019 32.5793 46.3007 31.9993C46.5824 31.4193 46.957 30.9851 47.4243 30.6967C47.8949 30.4084 48.4103 30.2642 48.9704 30.2642C49.398 30.2642 49.756 30.3371 50.0443 30.483C50.3327 30.6255 50.5647 30.8045 50.7403 31.0199C50.9193 31.232 51.0569 31.4408 51.153 31.6463H51.2325V30.3636H53.3355V38.0746C53.3355 38.7242 53.1764 39.2678 52.8582 39.7053C52.54 40.1428 52.0992 40.4709 51.5358 40.6896C50.9757 40.9117 50.331 41.0227 49.6018 41.0227ZM49.6466 36.2997C49.988 36.2997 50.2763 36.2152 50.5116 36.0462C50.7503 35.8738 50.9326 35.6286 51.0585 35.3104C51.1878 34.9889 51.2524 34.6044 51.2524 34.157C51.2524 33.7095 51.1894 33.3217 51.0635 32.9936C50.9375 32.6622 50.7552 32.4053 50.5166 32.223C50.278 32.0407 49.988 31.9496 49.6466 31.9496C49.2986 31.9496 49.0052 32.044 48.7666 32.233C48.528 32.4186 48.3473 32.6771 48.2247 33.0085C48.1021 33.34 48.0408 33.7228 48.0408 34.157C48.0408 34.5978 48.1021 34.9789 48.2247 35.3004C48.3507 35.6186 48.5313 35.8655 48.7666 36.0412C49.0052 36.2135 49.2986 36.2997 49.6466 36.2997ZM58.361 38.1491C57.5755 38.1491 56.8993 37.9901 56.3326 37.6719C55.7691 37.3504 55.3349 36.8963 55.03 36.3097C54.7251 35.7197 54.5726 35.022 54.5726 34.2166C54.5726 33.4311 54.7251 32.7417 55.03 32.1484C55.3349 31.5552 55.7642 31.0928 56.3177 30.7614C56.8745 30.4299 57.5274 30.2642 58.2765 30.2642C58.7803 30.2642 59.2492 30.3454 59.6834 30.5078C60.1209 30.6669 60.5021 30.9072 60.8269 31.2287C61.155 31.5502 61.4102 31.9545 61.5925 32.4418C61.7748 32.9257 61.866 33.4924 61.866 34.142V34.7237H55.4178V33.4112H59.8724C59.8724 33.1063 59.8061 32.8362 59.6735 32.6009C59.5409 32.3655 59.357 32.1816 59.1216 32.049C58.8896 31.9131 58.6195 31.8452 58.3113 31.8452C57.9898 31.8452 57.7047 31.9197 57.4562 32.0689C57.2109 32.2147 57.0187 32.4119 56.8795 32.6605C56.7402 32.9058 56.669 33.1792 56.6657 33.4808V34.7287C56.6657 35.1065 56.7353 35.433 56.8745 35.7081C57.017 35.9832 57.2175 36.1953 57.476 36.3445C57.7346 36.4936 58.0411 36.5682 58.3958 36.5682C58.6311 36.5682 58.8465 36.535 59.0421 36.4688C59.2376 36.4025 59.405 36.303 59.5442 36.1705C59.6834 36.0379 59.7895 35.8755 59.8624 35.6832L61.8212 35.8125C61.7218 36.2831 61.5179 36.6941 61.2097 37.0455C60.9048 37.3935 60.5104 37.6652 60.0265 37.8608C59.5459 38.053 58.9907 38.1491 58.361 38.1491ZM66.0343 36.2102V34.5149L70.285 27.8182H71.7466V30.1648H70.8816L68.2019 34.4055V34.4851H74.2424V36.2102H66.0343ZM70.9214 38V35.6932L70.9611 34.9425V27.8182H72.9796V38H70.9214ZM76.7945 36.8168C76.4664 36.8168 76.1847 36.7008 75.9493 36.4688C75.7173 36.2367 75.6013 35.955 75.6013 35.6236C75.6013 35.2988 75.7173 35.0204 75.9493 34.7884C76.1847 34.5563 76.4664 34.4403 76.7945 34.4403C77.1127 34.4403 77.3911 34.5563 77.6297 34.7884C77.8684 35.0204 77.9877 35.2988 77.9877 35.6236C77.9877 35.8423 77.9313 36.0429 77.8187 36.2251C77.7093 36.4041 77.5651 36.5483 77.3861 36.6577C77.2071 36.7637 77.0099 36.8168 76.7945 36.8168ZM76.7945 31.8203C76.4664 31.8203 76.1847 31.7043 75.9493 31.4723C75.7173 31.2403 75.6013 30.9586 75.6013 30.6271C75.6013 30.3023 75.7173 30.0256 75.9493 29.7969C76.1847 29.5649 76.4664 29.4489 76.7945 29.4489C77.1127 29.4489 77.3911 29.5649 77.6297 29.7969C77.8684 30.0256 77.9877 30.3023 77.9877 30.6271C77.9877 30.8492 77.9313 31.0514 77.8187 31.2337C77.7093 31.4126 77.5651 31.5552 77.3861 31.6612C77.2071 31.7673 77.0099 31.8203 76.7945 31.8203ZM82.7265 38V27.8182H84.8792V36.2251H89.2443V38H82.7265ZM90.4901 38V30.3636H92.608V38H90.4901ZM91.554 29.3793C91.2391 29.3793 90.969 29.2749 90.7436 29.0661C90.5216 28.8539 90.4105 28.6004 90.4105 28.3054C90.4105 28.0137 90.5216 27.7635 90.7436 27.5547C90.969 27.3426 91.2391 27.2365 91.554 27.2365C91.8689 27.2365 92.1373 27.3426 92.3594 27.5547C92.5848 27.7635 92.6975 28.0137 92.6975 28.3054C92.6975 28.6004 92.5848 28.8539 92.3594 29.0661C92.1373 29.2749 91.8689 29.3793 91.554 29.3793ZM98.2711 30.3636V31.9545H93.558V30.3636H98.2711ZM94.6368 38V29.8118C94.6368 29.2583 94.7446 28.7992 94.96 28.4347C95.1787 28.0701 95.477 27.7966 95.8549 27.6143C96.2327 27.4321 96.6619 27.3409 97.1425 27.3409C97.4673 27.3409 97.764 27.3658 98.0324 27.4155C98.3042 27.4652 98.5064 27.5099 98.639 27.5497L98.2611 29.1406C98.1783 29.1141 98.0755 29.0893 97.9529 29.0661C97.8336 29.0429 97.7109 29.0312 97.585 29.0312C97.2734 29.0312 97.0564 29.1042 96.9337 29.25C96.8111 29.3925 96.7498 29.593 96.7498 29.8516V38H94.6368ZM102.632 38.1491C101.846 38.1491 101.17 37.9901 100.603 37.6719C100.04 37.3504 99.6056 36.8963 99.3006 36.3097C98.9957 35.7197 98.8433 35.022 98.8433 34.2166C98.8433 33.4311 98.9957 32.7417 99.3006 32.1484C99.6056 31.5552 100.035 31.0928 100.588 30.7614C101.145 30.4299 101.798 30.2642 102.547 30.2642C103.051 30.2642 103.52 30.3454 103.954 30.5078C104.392 30.6669 104.773 30.9072 105.098 31.2287C105.426 31.5502 105.681 31.9545 105.863 32.4418C106.045 32.9257 106.137 33.4924 106.137 34.142V34.7237H99.6884V33.4112H104.143C104.143 33.1063 104.077 32.8362 103.944 32.6009C103.812 32.3655 103.628 32.1816 103.392 32.049C103.16 31.9131 102.89 31.8452 102.582 31.8452C102.26 31.8452 101.975 31.9197 101.727 32.0689C101.482 32.2147 101.289 32.4119 101.15 32.6605C101.011 32.9058 100.94 33.1792 100.936 33.4808V34.7287C100.936 35.1065 101.006 35.433 101.145 35.7081C101.288 35.9832 101.488 36.1953 101.747 36.3445C102.005 36.4936 102.312 36.5682 102.666 36.5682C102.902 36.5682 103.117 36.535 103.313 36.4688C103.508 36.4025 103.676 36.303 103.815 36.1705C103.954 36.0379 104.06 35.8755 104.133 35.6832L106.092 35.8125C105.992 36.2831 105.789 36.6941 105.48 37.0455C105.175 37.3935 104.781 37.6652 104.297 37.8608C103.817 38.053 103.261 38.1491 102.632 38.1491ZM111.44 30.3636V31.9545H106.842V30.3636H111.44ZM107.886 28.5341H110.004V35.6534C110.004 35.849 110.034 36.0014 110.093 36.1108C110.153 36.2169 110.236 36.2914 110.342 36.3345C110.451 36.3776 110.577 36.3991 110.72 36.3991C110.819 36.3991 110.918 36.3909 111.018 36.3743C111.117 36.3544 111.194 36.3395 111.247 36.3295L111.58 37.9055C111.474 37.9387 111.324 37.9768 111.132 38.0199C110.94 38.0663 110.706 38.0945 110.431 38.1044C109.921 38.1243 109.473 38.0563 109.089 37.9006C108.708 37.7448 108.411 37.5028 108.199 37.1747C107.987 36.8466 107.882 36.4323 107.886 35.9318V28.5341ZM112.68 38V30.3636H114.798V38H112.68ZM113.744 29.3793C113.429 29.3793 113.159 29.2749 112.934 29.0661C112.712 28.8539 112.601 28.6004 112.601 28.3054C112.601 28.0137 112.712 27.7635 112.934 27.5547C113.159 27.3426 113.429 27.2365 113.744 27.2365C114.059 27.2365 114.327 27.3426 114.549 27.5547C114.775 27.7635 114.887 28.0137 114.887 28.3054C114.887 28.6004 114.775 28.8539 114.549 29.0661C114.327 29.2749 114.059 29.3793 113.744 29.3793ZM116.355 38V30.3636H118.373V31.7109H118.463C118.622 31.2635 118.887 30.9105 119.258 30.652C119.629 30.3935 120.073 30.2642 120.59 30.2642C121.114 30.2642 121.56 30.3951 121.928 30.657C122.296 30.9155 122.541 31.2668 122.663 31.7109H122.743C122.899 31.2734 123.181 30.9238 123.588 30.6619C123.999 30.3968 124.485 30.2642 125.045 30.2642C125.757 30.2642 126.336 30.4912 126.78 30.9453C127.227 31.3961 127.451 32.0357 127.451 32.8643V38H125.338V33.282C125.338 32.8577 125.226 32.5395 125 32.3274C124.775 32.1153 124.493 32.0092 124.155 32.0092C123.771 32.0092 123.471 32.1319 123.255 32.3771C123.04 32.6191 122.932 32.9389 122.932 33.3366V38H120.879V33.2372C120.879 32.8627 120.771 32.5644 120.556 32.3423C120.343 32.1203 120.063 32.0092 119.715 32.0092C119.48 32.0092 119.268 32.0689 119.079 32.1882C118.893 32.3042 118.746 32.4683 118.637 32.6804C118.527 32.8892 118.472 33.1345 118.472 33.4162V38H116.355ZM132.464 38.1491C131.679 38.1491 131.003 37.9901 130.436 37.6719C129.872 37.3504 129.438 36.8963 129.133 36.3097C128.828 35.7197 128.676 35.022 128.676 34.2166C128.676 33.4311 128.828 32.7417 129.133 32.1484C129.438 31.5552 129.867 31.0928 130.421 30.7614C130.978 30.4299 131.631 30.2642 132.38 30.2642C132.883 30.2642 133.352 30.3454 133.787 30.5078C134.224 30.6669 134.605 30.9072 134.93 31.2287C135.258 31.5502 135.513 31.9545 135.696 32.4418C135.878 32.9257 135.969 33.4924 135.969 34.142V34.7237H129.521V33.4112H133.976C133.976 33.1063 133.909 32.8362 133.777 32.6009C133.644 32.3655 133.46 32.1816 133.225 32.049C132.993 31.9131 132.723 31.8452 132.414 31.8452C132.093 31.8452 131.808 31.9197 131.559 32.0689C131.314 32.2147 131.122 32.4119 130.983 32.6605C130.843 32.9058 130.772 33.1792 130.769 33.4808V34.7287C130.769 35.1065 130.838 35.433 130.978 35.7081C131.12 35.9832 131.321 36.1953 131.579 36.3445C131.838 36.4936 132.144 36.5682 132.499 36.5682C132.734 36.5682 132.95 36.535 133.145 36.4688C133.341 36.4025 133.508 36.303 133.647 36.1705C133.787 36.0379 133.893 35.8755 133.966 35.6832L135.924 35.8125C135.825 36.2831 135.621 36.6941 135.313 37.0455C135.008 37.3935 134.614 37.6652 134.13 37.8608C133.649 38.053 133.094 38.1491 132.464 38.1491ZM149.335 31.3828H147.157C147.118 31.1011 147.036 30.8509 146.914 30.6321C146.791 30.41 146.634 30.2211 146.441 30.0653C146.249 29.9096 146.027 29.7902 145.775 29.7074C145.527 29.6245 145.257 29.5831 144.965 29.5831C144.438 29.5831 143.979 29.714 143.588 29.9759C143.197 30.2344 142.893 30.6122 142.678 31.1094C142.463 31.6032 142.355 32.2031 142.355 32.9091C142.355 33.6349 142.463 34.2448 142.678 34.7386C142.897 35.2325 143.202 35.6054 143.593 35.8572C143.984 36.1091 144.436 36.2351 144.95 36.2351C145.238 36.2351 145.505 36.197 145.75 36.1207C145.999 36.0445 146.219 35.9335 146.412 35.7876C146.604 35.6385 146.763 35.4579 146.889 35.2457C147.018 35.0336 147.108 34.7917 147.157 34.5199L149.335 34.5298C149.279 34.9972 149.138 35.4479 148.912 35.8821C148.69 36.313 148.39 36.6991 148.012 37.0405C147.638 37.3786 147.191 37.647 146.67 37.8459C146.153 38.0414 145.568 38.1392 144.915 38.1392C144.007 38.1392 143.195 37.9337 142.479 37.5227C141.767 37.1117 141.203 36.5168 140.789 35.7379C140.378 34.959 140.172 34.0161 140.172 32.9091C140.172 31.7988 140.381 30.8542 140.799 30.0753C141.216 29.2964 141.783 28.7031 142.499 28.2955C143.215 27.8845 144.02 27.679 144.915 27.679C145.505 27.679 146.052 27.7618 146.556 27.9276C147.063 28.0933 147.512 28.3352 147.903 28.6534C148.294 28.9683 148.612 29.3544 148.858 29.8118C149.106 30.2692 149.265 30.7929 149.335 31.3828ZM154.149 38.1491C153.377 38.1491 152.709 37.9851 152.146 37.657C151.585 37.3255 151.153 36.8648 150.848 36.2749C150.543 35.6816 150.391 34.9938 150.391 34.2116C150.391 33.4228 150.543 32.7334 150.848 32.1435C151.153 31.5502 151.585 31.0895 152.146 30.7614C152.709 30.4299 153.377 30.2642 154.149 30.2642C154.921 30.2642 155.588 30.4299 156.148 30.7614C156.711 31.0895 157.145 31.5502 157.45 32.1435C157.755 32.7334 157.908 33.4228 157.908 34.2116C157.908 34.9938 157.755 35.6816 157.45 36.2749C157.145 36.8648 156.711 37.3255 156.148 37.657C155.588 37.9851 154.921 38.1491 154.149 38.1491ZM154.159 36.5085C154.51 36.5085 154.804 36.4091 155.039 36.2102C155.274 36.008 155.452 35.733 155.571 35.3849C155.694 35.0369 155.755 34.6409 155.755 34.1967C155.755 33.7526 155.694 33.3565 155.571 33.0085C155.452 32.6605 155.274 32.3854 155.039 32.1832C154.804 31.9811 154.51 31.88 154.159 31.88C153.804 31.88 153.506 31.9811 153.264 32.1832C153.026 32.3854 152.845 32.6605 152.722 33.0085C152.603 33.3565 152.543 33.7526 152.543 34.1967C152.543 34.6409 152.603 35.0369 152.722 35.3849C152.845 35.733 153.026 36.008 153.264 36.2102C153.506 36.4091 153.804 36.5085 154.159 36.5085ZM159.145 38V30.3636H161.163V31.7109H161.253C161.412 31.2635 161.677 30.9105 162.048 30.652C162.419 30.3935 162.864 30.2642 163.381 30.2642C163.904 30.2642 164.35 30.3951 164.718 30.657C165.086 30.9155 165.331 31.2668 165.454 31.7109H165.533C165.689 31.2734 165.971 30.9238 166.378 30.6619C166.789 30.3968 167.275 30.2642 167.835 30.2642C168.548 30.2642 169.126 30.4912 169.57 30.9453C170.018 31.3961 170.241 32.0357 170.241 32.8643V38H168.128V33.282C168.128 32.8577 168.016 32.5395 167.79 32.3274C167.565 32.1153 167.283 32.0092 166.945 32.0092C166.561 32.0092 166.261 32.1319 166.045 32.3771C165.83 32.6191 165.722 32.9389 165.722 33.3366V38H163.669V33.2372C163.669 32.8627 163.561 32.5644 163.346 32.3423C163.134 32.1203 162.854 32.0092 162.506 32.0092C162.27 32.0092 162.058 32.0689 161.869 32.1882C161.684 32.3042 161.536 32.4683 161.427 32.6804C161.317 32.8892 161.263 33.1345 161.263 33.4162V38H159.145ZM171.774 38V30.3636H173.793V31.7109H173.882C174.041 31.2635 174.307 30.9105 174.678 30.652C175.049 30.3935 175.493 30.2642 176.01 30.2642C176.534 30.2642 176.98 30.3951 177.347 30.657C177.715 30.9155 177.961 31.2668 178.083 31.7109H178.163C178.319 31.2734 178.6 30.9238 179.008 30.6619C179.419 30.3968 179.905 30.2642 180.465 30.2642C181.177 30.2642 181.756 30.4912 182.2 30.9453C182.647 31.3961 182.871 32.0357 182.871 32.8643V38H180.758V33.282C180.758 32.8577 180.645 32.5395 180.42 32.3274C180.195 32.1153 179.913 32.0092 179.575 32.0092C179.19 32.0092 178.89 32.1319 178.675 32.3771C178.459 32.6191 178.352 32.9389 178.352 33.3366V38H176.298V33.2372C176.298 32.8627 176.191 32.5644 175.975 32.3423C175.763 32.1203 175.483 32.0092 175.135 32.0092C174.9 32.0092 174.688 32.0689 174.499 32.1882C174.313 32.3042 174.166 32.4683 174.056 32.6804C173.947 32.8892 173.892 33.1345 173.892 33.4162V38H171.774ZM189.301 34.7486V30.3636H191.419V38H189.385V36.6129H189.306C189.133 37.0604 188.847 37.42 188.446 37.6918C188.048 37.9635 187.562 38.0994 186.989 38.0994C186.479 38.0994 186.03 37.9834 185.642 37.7514C185.254 37.5194 184.951 37.1896 184.732 36.7621C184.517 36.3345 184.407 35.8224 184.404 35.2259V30.3636H186.522V34.848C186.525 35.2988 186.646 35.6551 186.885 35.9169C187.123 36.1787 187.443 36.3097 187.844 36.3097C188.099 36.3097 188.338 36.2517 188.56 36.1357C188.782 36.0163 188.961 35.8407 189.097 35.6087C189.236 35.3767 189.304 35.09 189.301 34.7486ZM195.091 33.5852V38H192.973V30.3636H194.991V31.7109H195.081C195.25 31.2668 195.533 30.9155 195.931 30.657C196.329 30.3951 196.811 30.2642 197.378 30.2642C197.908 30.2642 198.37 30.3802 198.765 30.6122C199.159 30.8442 199.466 31.1757 199.684 31.6065C199.903 32.0341 200.013 32.5445 200.013 33.1378V38H197.895V33.5156C197.898 33.0483 197.779 32.6837 197.537 32.4219C197.295 32.1567 196.962 32.0241 196.537 32.0241C196.252 32.0241 196.001 32.0855 195.782 32.2081C195.566 32.3307 195.397 32.5097 195.275 32.745C195.155 32.977 195.094 33.2571 195.091 33.5852ZM201.542 38V30.3636H203.66V38H201.542ZM202.606 29.3793C202.291 29.3793 202.021 29.2749 201.795 29.0661C201.573 28.8539 201.462 28.6004 201.462 28.3054C201.462 28.0137 201.573 27.7635 201.795 27.5547C202.021 27.3426 202.291 27.2365 202.606 27.2365C202.921 27.2365 203.189 27.3426 203.411 27.5547C203.637 27.7635 203.749 28.0137 203.749 28.3054C203.749 28.6004 203.637 28.8539 203.411 29.0661C203.189 29.2749 202.921 29.3793 202.606 29.3793ZM209.278 30.3636V31.9545H204.679V30.3636H209.278ZM205.723 28.5341H207.841V35.6534C207.841 35.849 207.871 36.0014 207.931 36.1108C207.99 36.2169 208.073 36.2914 208.179 36.3345C208.289 36.3776 208.415 36.3991 208.557 36.3991C208.657 36.3991 208.756 36.3909 208.855 36.3743C208.955 36.3544 209.031 36.3395 209.084 36.3295L209.417 37.9055C209.311 37.9387 209.162 37.9768 208.97 38.0199C208.778 38.0663 208.544 38.0945 208.269 38.1044C207.758 38.1243 207.311 38.0563 206.926 37.9006C206.545 37.7448 206.249 37.5028 206.037 37.1747C205.824 36.8466 205.72 36.4323 205.723 35.9318V28.5341ZM211.825 40.8636C211.557 40.8636 211.305 40.8421 211.07 40.799C210.838 40.7592 210.645 40.7079 210.493 40.6449L210.97 39.0639C211.219 39.1402 211.442 39.1816 211.641 39.1882C211.843 39.1948 212.017 39.1484 212.163 39.049C212.312 38.9496 212.433 38.7805 212.526 38.5419L212.65 38.2188L209.911 30.3636H212.138L213.719 35.9716H213.799L215.395 30.3636H217.637L214.669 38.8253C214.526 39.2363 214.333 39.5942 214.087 39.8991C213.845 40.2074 213.539 40.4444 213.168 40.6101C212.796 40.7791 212.349 40.8636 211.825 40.8636ZM32.8686 48.3828H30.6911C30.6513 48.1011 30.5701 47.8509 30.4474 47.6321C30.3248 47.41 30.1674 47.2211 29.9751 47.0653C29.7829 46.9096 29.5608 46.7902 29.3089 46.7074C29.0604 46.6245 28.7902 46.5831 28.4986 46.5831C27.9716 46.5831 27.5125 46.714 27.1214 46.9759C26.7304 47.2344 26.4271 47.6122 26.2116 48.1094C25.9962 48.6032 25.8885 49.2031 25.8885 49.9091C25.8885 50.6349 25.9962 51.2448 26.2116 51.7386C26.4304 52.2325 26.7353 52.6054 27.1264 52.8572C27.5175 53.1091 27.9699 53.2351 28.4837 53.2351C28.772 53.2351 29.0388 53.197 29.2841 53.1207C29.5327 53.0445 29.7531 52.9335 29.9453 52.7876C30.1375 52.6385 30.2966 52.4579 30.4226 52.2457C30.5518 52.0336 30.6413 51.7917 30.6911 51.5199L32.8686 51.5298C32.8123 51.9972 32.6714 52.4479 32.446 52.8821C32.224 53.313 31.924 53.6991 31.5462 54.0405C31.1716 54.3786 30.7242 54.647 30.2038 54.8459C29.6868 55.0414 29.1018 55.1392 28.4489 55.1392C27.5407 55.1392 26.7287 54.9337 26.0128 54.5227C25.3002 54.1117 24.7367 53.5168 24.3224 52.7379C23.9115 51.959 23.706 51.0161 23.706 49.9091C23.706 48.7988 23.9148 47.8542 24.3324 47.0753C24.75 46.2964 25.3168 45.7031 26.0327 45.2955C26.7486 44.8845 27.554 44.679 28.4489 44.679C29.0388 44.679 29.5857 44.7618 30.0895 44.9276C30.5966 45.0933 31.0457 45.3352 31.4368 45.6534C31.8279 45.9683 32.1461 46.3544 32.3913 46.8118C32.6399 47.2692 32.799 47.7929 32.8686 48.3828ZM37.6828 55.1491C36.9105 55.1491 36.2427 54.9851 35.6792 54.657C35.1191 54.3255 34.6866 53.8648 34.3817 53.2749C34.0767 52.6816 33.9243 51.9938 33.9243 51.2116C33.9243 50.4228 34.0767 49.7334 34.3817 49.1435C34.6866 48.5502 35.1191 48.0895 35.6792 47.7614C36.2427 47.4299 36.9105 47.2642 37.6828 47.2642C38.4551 47.2642 39.1212 47.4299 39.6814 47.7614C40.2448 48.0895 40.679 48.5502 40.9839 49.1435C41.2889 49.7334 41.4413 50.4228 41.4413 51.2116C41.4413 51.9938 41.2889 52.6816 40.9839 53.2749C40.679 53.8648 40.2448 54.3255 39.6814 54.657C39.1212 54.9851 38.4551 55.1491 37.6828 55.1491ZM37.6927 53.5085C38.0441 53.5085 38.3374 53.4091 38.5727 53.2102C38.808 53.008 38.9854 52.733 39.1047 52.3849C39.2273 52.0369 39.2886 51.6409 39.2886 51.1967C39.2886 50.7526 39.2273 50.3565 39.1047 50.0085C38.9854 49.6605 38.808 49.3854 38.5727 49.1832C38.3374 48.9811 38.0441 48.88 37.6927 48.88C37.3381 48.88 37.0398 48.9811 36.7979 49.1832C36.5592 49.3854 36.3786 49.6605 36.256 50.0085C36.1366 50.3565 36.077 50.7526 36.077 51.1967C36.077 51.6409 36.1366 52.0369 36.256 52.3849C36.3786 52.733 36.5592 53.008 36.7979 53.2102C37.0398 53.4091 37.3381 53.5085 37.6927 53.5085ZM42.6785 55V47.3636H44.7317V48.696H44.8113C44.9505 48.2221 45.1841 47.8641 45.5123 47.6222C45.8404 47.3769 46.2182 47.2543 46.6458 47.2543C46.7518 47.2543 46.8662 47.2609 46.9888 47.2741C47.1115 47.2874 47.2192 47.3056 47.312 47.3288V49.2081C47.2125 49.1783 47.075 49.1518 46.8993 49.1286C46.7237 49.1054 46.5629 49.0938 46.4171 49.0938C46.1055 49.0938 45.8271 49.1617 45.5819 49.2976C45.3399 49.4302 45.1477 49.6158 45.0052 49.8544C44.866 50.093 44.7963 50.3681 44.7963 50.6797V55H42.6785ZM48.267 55V47.3636H50.3202V48.696H50.3998C50.539 48.2221 50.7726 47.8641 51.1008 47.6222C51.4289 47.3769 51.8067 47.2543 52.2343 47.2543C52.3404 47.2543 52.4547 47.2609 52.5773 47.2741C52.7 47.2874 52.8077 47.3056 52.9005 47.3288V49.2081C52.8011 49.1783 52.6635 49.1518 52.4878 49.1286C52.3122 49.1054 52.1514 49.0938 52.0056 49.0938C51.6941 49.0938 51.4156 49.1617 51.1704 49.2976C50.9284 49.4302 50.7362 49.6158 50.5937 49.8544C50.4545 50.093 50.3849 50.3681 50.3849 50.6797V55H48.267ZM56.9801 55.1491C56.1946 55.1491 55.5185 54.9901 54.9517 54.6719C54.3883 54.3504 53.9541 53.8963 53.6492 53.3097C53.3442 52.7197 53.1918 52.022 53.1918 51.2166C53.1918 50.4311 53.3442 49.7417 53.6492 49.1484C53.9541 48.5552 54.3833 48.0928 54.9368 47.7614C55.4936 47.4299 56.1466 47.2642 56.8956 47.2642C57.3994 47.2642 57.8684 47.3454 58.3026 47.5078C58.7401 47.6669 59.1212 47.9072 59.446 48.2287C59.7742 48.5502 60.0294 48.9545 60.2117 49.4418C60.394 49.9257 60.4851 50.4924 60.4851 51.142V51.7237H54.0369V50.4112H58.4915C58.4915 50.1063 58.4252 49.8362 58.2926 49.6009C58.1601 49.3655 57.9761 49.1816 57.7408 49.049C57.5088 48.9131 57.2387 48.8452 56.9304 48.8452C56.6089 48.8452 56.3239 48.9197 56.0753 49.0689C55.83 49.2147 55.6378 49.4119 55.4986 49.6605C55.3594 49.9058 55.2881 50.1792 55.2848 50.4808V51.7287C55.2848 52.1065 55.3544 52.433 55.4936 52.7081C55.6361 52.9832 55.8367 53.1953 56.0952 53.3445C56.3537 53.4936 56.6603 53.5682 57.0149 53.5682C57.2503 53.5682 57.4657 53.535 57.6612 53.4688C57.8568 53.4025 58.0242 53.303 58.1634 53.1705C58.3026 53.0379 58.4086 52.8755 58.4815 52.6832L60.4404 52.8125C60.3409 53.2831 60.1371 53.6941 59.8289 54.0455C59.5239 54.3935 59.1295 54.6652 58.6456 54.8608C58.165 55.053 57.6099 55.1491 56.9801 55.1491ZM65.1775 55.1491C64.3953 55.1491 63.7225 54.9834 63.159 54.652C62.5989 54.3172 62.168 53.8532 61.8664 53.2599C61.5681 52.6667 61.419 51.9839 61.419 51.2116C61.419 50.4295 61.5698 49.7434 61.8714 49.1534C62.1763 48.5601 62.6088 48.0978 63.169 47.7663C63.7291 47.4316 64.3953 47.2642 65.1675 47.2642C65.8337 47.2642 66.4171 47.3852 66.9175 47.6271C67.418 47.8691 67.8141 48.2088 68.1058 48.6463C68.3974 49.0838 68.5582 49.5975 68.588 50.1875H66.5894C66.5331 49.8063 66.3839 49.4998 66.142 49.2678C65.9033 49.0324 65.5901 48.9148 65.2023 48.9148C64.8742 48.9148 64.5875 49.0043 64.3423 49.1832C64.1003 49.3589 63.9114 49.6158 63.7755 49.9538C63.6396 50.2919 63.5717 50.7012 63.5717 51.1818C63.5717 51.669 63.6379 52.0833 63.7705 52.4247C63.9064 52.7661 64.097 53.0263 64.3423 53.2053C64.5875 53.3842 64.8742 53.4737 65.2023 53.4737C65.4443 53.4737 65.6614 53.424 65.8536 53.3246C66.0492 53.2251 66.2099 53.081 66.3359 52.892C66.4651 52.6998 66.5496 52.4695 66.5894 52.201H68.588C68.5549 52.7843 68.3958 53.2981 68.1107 53.7422C67.829 54.183 67.4396 54.5277 66.9424 54.7763C66.4452 55.0249 65.8569 55.1491 65.1775 55.1491ZM73.8658 47.3636V48.9545H69.2671V47.3636H73.8658ZM70.3111 45.5341H72.429V52.6534C72.429 52.849 72.4588 53.0014 72.5185 53.1108C72.5781 53.2169 72.661 53.2914 72.7671 53.3345C72.8764 53.3776 73.0024 53.3991 73.1449 53.3991C73.2443 53.3991 73.3438 53.3909 73.4432 53.3743C73.5426 53.3544 73.6189 53.3395 73.6719 53.3295L74.005 54.9055C73.8989 54.9387 73.7498 54.9768 73.5575 55.0199C73.3653 55.0663 73.1317 55.0945 72.8566 55.1044C72.3461 55.1243 71.8987 55.0563 71.5142 54.9006C71.1331 54.7448 70.8364 54.5028 70.6243 54.1747C70.4122 53.8466 70.3078 53.4323 70.3111 52.9318V45.5341ZM75.1054 55V47.3636H77.2233V55H75.1054ZM76.1693 46.3793C75.8545 46.3793 75.5843 46.2749 75.359 46.0661C75.1369 45.8539 75.0259 45.6004 75.0259 45.3054C75.0259 45.0137 75.1369 44.7635 75.359 44.5547C75.5843 44.3426 75.8545 44.2365 76.1693 44.2365C76.4842 44.2365 76.7527 44.3426 76.9747 44.5547C77.2001 44.7635 77.3128 45.0137 77.3128 45.3054C77.3128 45.6004 77.2001 45.8539 76.9747 46.0661C76.7527 46.2749 76.4842 46.3793 76.1693 46.3793ZM82.2301 55.1491C81.4579 55.1491 80.79 54.9851 80.2266 54.657C79.6665 54.3255 79.2339 53.8648 78.929 53.2749C78.6241 52.6816 78.4716 51.9938 78.4716 51.2116C78.4716 50.4228 78.6241 49.7334 78.929 49.1435C79.2339 48.5502 79.6665 48.0895 80.2266 47.7614C80.79 47.4299 81.4579 47.2642 82.2301 47.2642C83.0024 47.2642 83.6686 47.4299 84.2287 47.7614C84.7922 48.0895 85.2264 48.5502 85.5313 49.1435C85.8362 49.7334 85.9887 50.4228 85.9887 51.2116C85.9887 51.9938 85.8362 52.6816 85.5313 53.2749C85.2264 53.8648 84.7922 54.3255 84.2287 54.657C83.6686 54.9851 83.0024 55.1491 82.2301 55.1491ZM82.2401 53.5085C82.5914 53.5085 82.8847 53.4091 83.1201 53.2102C83.3554 53.008 83.5327 52.733 83.652 52.3849C83.7747 52.0369 83.836 51.6409 83.836 51.1967C83.836 50.7526 83.7747 50.3565 83.652 50.0085C83.5327 49.6605 83.3554 49.3854 83.1201 49.1832C82.8847 48.9811 82.5914 48.88 82.2401 48.88C81.8854 48.88 81.5872 48.9811 81.3452 49.1832C81.1066 49.3854 80.9259 49.6605 80.8033 50.0085C80.684 50.3565 80.6243 50.7526 80.6243 51.1967C80.6243 51.6409 80.684 52.0369 80.8033 52.3849C80.9259 52.733 81.1066 53.008 81.3452 53.2102C81.5872 53.4091 81.8854 53.5085 82.2401 53.5085ZM89.3437 50.5852V55H87.2258V47.3636H89.2443V48.7109H89.3338C89.5028 48.2668 89.7862 47.9155 90.1839 47.657C90.5816 47.3951 91.0639 47.2642 91.6306 47.2642C92.1609 47.2642 92.6233 47.3802 93.0177 47.6122C93.4121 47.8442 93.7187 48.1757 93.9374 48.6065C94.1562 49.0341 94.2656 49.5445 94.2656 50.1378V55H92.1477V50.5156C92.151 50.0483 92.0317 49.6837 91.7897 49.4219C91.5478 49.1567 91.2147 49.0241 90.7904 49.0241C90.5054 49.0241 90.2535 49.0855 90.0347 49.2081C89.8193 49.3307 89.6503 49.5097 89.5276 49.745C89.4083 49.977 89.347 50.2571 89.3437 50.5852Z" fill="white"/>
<path d="M31.0795 76H30.0227C29.9602 75.696 29.8509 75.429 29.6946 75.1989C29.5412 74.9688 29.3537 74.7756 29.1321 74.6193C28.9134 74.4602 28.6705 74.3409 28.4034 74.2614C28.1364 74.1818 27.858 74.142 27.5682 74.142C27.0398 74.142 26.5611 74.2756 26.1321 74.5426C25.706 74.8097 25.3665 75.2031 25.1136 75.723C24.8636 76.2429 24.7386 76.8807 24.7386 77.6364C24.7386 78.392 24.8636 79.0298 25.1136 79.5497C25.3665 80.0696 25.706 80.4631 26.1321 80.7301C26.5611 80.9972 27.0398 81.1307 27.5682 81.1307C27.858 81.1307 28.1364 81.0909 28.4034 81.0114C28.6705 80.9318 28.9134 80.8139 29.1321 80.6577C29.3537 80.4986 29.5412 80.304 29.6946 80.0739C29.8509 79.8409 29.9602 79.5739 30.0227 79.2727H31.0795C31 79.7187 30.8551 80.1179 30.6449 80.4702C30.4347 80.8224 30.1733 81.1222 29.8608 81.3693C29.5483 81.6136 29.1974 81.7997 28.8082 81.9276C28.4219 82.0554 28.0085 82.1193 27.5682 82.1193C26.8239 82.1193 26.1619 81.9375 25.5824 81.5739C25.0028 81.2102 24.5469 80.6932 24.2145 80.0227C23.8821 79.3523 23.7159 78.5568 23.7159 77.6364C23.7159 76.7159 23.8821 75.9205 24.2145 75.25C24.5469 74.5795 25.0028 74.0625 25.5824 73.6989C26.1619 73.3352 26.8239 73.1534 27.5682 73.1534C28.0085 73.1534 28.4219 73.2173 28.8082 73.3452C29.1974 73.473 29.5483 73.6605 29.8608 73.9077C30.1733 74.152 30.4347 74.4503 30.6449 74.8026C30.8551 75.152 31 75.5511 31.0795 76ZM35.19 82.1364C34.5991 82.1364 34.0806 81.9957 33.6346 81.7145C33.1914 81.4332 32.8448 81.0398 32.5948 80.5341C32.3477 80.0284 32.2241 79.4375 32.2241 78.7614C32.2241 78.0795 32.3477 77.4844 32.5948 76.9759C32.8448 76.4673 33.1914 76.0724 33.6346 75.7912C34.0806 75.5099 34.5991 75.3693 35.19 75.3693C35.7809 75.3693 36.298 75.5099 36.7412 75.7912C37.1872 76.0724 37.5338 76.4673 37.7809 76.9759C38.0309 77.4844 38.1559 78.0795 38.1559 78.7614C38.1559 79.4375 38.0309 80.0284 37.7809 80.5341C37.5338 81.0398 37.1872 81.4332 36.7412 81.7145C36.298 81.9957 35.7809 82.1364 35.19 82.1364ZM35.19 81.233C35.6389 81.233 36.0082 81.1179 36.298 80.8878C36.5877 80.6577 36.8022 80.3551 36.9414 79.9801C37.0806 79.6051 37.1502 79.1989 37.1502 78.7614C37.1502 78.3239 37.0806 77.9162 36.9414 77.5384C36.8022 77.1605 36.5877 76.8551 36.298 76.6222C36.0082 76.3892 35.6389 76.2727 35.19 76.2727C34.7412 76.2727 34.3718 76.3892 34.0821 76.6222C33.7923 76.8551 33.5778 77.1605 33.4386 77.5384C33.2994 77.9162 33.2298 78.3239 33.2298 78.7614C33.2298 79.1989 33.2994 79.6051 33.4386 79.9801C33.5778 80.3551 33.7923 80.6577 34.0821 80.8878C34.3718 81.1179 34.7412 81.233 35.19 81.233ZM40.5768 78.0625V82H39.5711V75.4545H40.5427V76.4773H40.6279C40.7813 76.1449 41.0143 75.8778 41.3268 75.6761C41.6393 75.4716 42.0427 75.3693 42.537 75.3693C42.9802 75.3693 43.368 75.4602 43.7003 75.642C44.0327 75.821 44.2913 76.0938 44.4759 76.4602C44.6606 76.8239 44.7529 77.2841 44.7529 77.8409V82H43.7472V77.9091C43.7472 77.3949 43.6137 76.9943 43.3466 76.7074C43.0796 76.4176 42.7131 76.2727 42.2472 76.2727C41.9262 76.2727 41.6393 76.3423 41.3864 76.4815C41.1364 76.6207 40.939 76.8239 40.7941 77.0909C40.6492 77.358 40.5768 77.6818 40.5768 78.0625ZM49.3172 75.4545V76.3068H45.9252V75.4545H49.3172ZM46.9138 73.8864H47.9195V80.125C47.9195 80.4091 47.9607 80.6222 48.0431 80.7642C48.1283 80.9034 48.2362 80.9972 48.3669 81.0455C48.5004 81.0909 48.6411 81.1136 48.7888 81.1136C48.8996 81.1136 48.9905 81.108 49.0615 81.0966C49.1325 81.0824 49.1894 81.071 49.232 81.0625L49.4365 81.9659C49.3683 81.9915 49.2732 82.017 49.151 82.0426C49.0288 82.071 48.874 82.0852 48.6865 82.0852C48.4024 82.0852 48.124 82.0241 47.8513 81.902C47.5814 81.7798 47.357 81.5938 47.178 81.3438C47.0019 81.0938 46.9138 80.7784 46.9138 80.3977V73.8864ZM50.71 82V75.4545H51.7157V82H50.71ZM51.2213 74.3636C51.0253 74.3636 50.8563 74.2969 50.7142 74.1634C50.575 74.0298 50.5054 73.8693 50.5054 73.6818C50.5054 73.4943 50.575 73.3338 50.7142 73.2003C50.8563 73.0668 51.0253 73 51.2213 73C51.4174 73 51.585 73.0668 51.7242 73.2003C51.8662 73.3338 51.9373 73.4943 51.9373 73.6818C51.9373 73.8693 51.8662 74.0298 51.7242 74.1634C51.585 74.2969 51.4174 74.3636 51.2213 74.3636ZM54.4433 78.0625V82H53.4376V75.4545H54.4092V76.4773H54.4945C54.6479 76.1449 54.8808 75.8778 55.1933 75.6761C55.5058 75.4716 55.9092 75.3693 56.4036 75.3693C56.8467 75.3693 57.2345 75.4602 57.5669 75.642C57.8993 75.821 58.1578 76.0938 58.3425 76.4602C58.5271 76.8239 58.6195 77.2841 58.6195 77.8409V82H57.6138V77.9091C57.6138 77.3949 57.4803 76.9943 57.2132 76.7074C56.9462 76.4176 56.5797 76.2727 56.1138 76.2727C55.7928 76.2727 55.5058 76.3423 55.253 76.4815C55.003 76.6207 54.8055 76.8239 54.6607 77.0909C54.5158 77.358 54.4433 77.6818 54.4433 78.0625ZM64.4622 79.3239V75.4545H65.4679V82H64.4622V80.892H64.394C64.2406 81.2244 64.0019 81.5071 63.6781 81.7401C63.3542 81.9702 62.9451 82.0852 62.4508 82.0852C62.0417 82.0852 61.6781 81.9957 61.3599 81.8168C61.0417 81.6349 60.7917 81.3622 60.6099 80.9986C60.4281 80.6321 60.3372 80.1705 60.3372 79.6136V75.4545H61.3429V79.5455C61.3429 80.0227 61.4764 80.4034 61.7434 80.6875C62.0133 80.9716 62.3571 81.1136 62.7747 81.1136C63.0247 81.1136 63.2789 81.0497 63.5375 80.9219C63.7988 80.794 64.0176 80.598 64.1937 80.3338C64.3727 80.0696 64.4622 79.733 64.4622 79.3239ZM69.8489 82.1364C69.258 82.1364 68.7395 81.9957 68.2935 81.7145C67.8503 81.4332 67.5037 81.0398 67.2537 80.5341C67.0066 80.0284 66.883 79.4375 66.883 78.7614C66.883 78.0795 67.0066 77.4844 67.2537 76.9759C67.5037 76.4673 67.8503 76.0724 68.2935 75.7912C68.7395 75.5099 69.258 75.3693 69.8489 75.3693C70.4398 75.3693 70.9569 75.5099 71.4001 75.7912C71.8461 76.0724 72.1927 76.4673 72.4398 76.9759C72.6898 77.4844 72.8148 78.0795 72.8148 78.7614C72.8148 79.4375 72.6898 80.0284 72.4398 80.5341C72.1927 81.0398 71.8461 81.4332 71.4001 81.7145C70.9569 81.9957 70.4398 82.1364 69.8489 82.1364ZM69.8489 81.233C70.2978 81.233 70.6671 81.1179 70.9569 80.8878C71.2466 80.6577 71.4611 80.3551 71.6003 79.9801C71.7395 79.6051 71.8091 79.1989 71.8091 78.7614C71.8091 78.3239 71.7395 77.9162 71.6003 77.5384C71.4611 77.1605 71.2466 76.8551 70.9569 76.6222C70.6671 76.3892 70.2978 76.2727 69.8489 76.2727C69.4001 76.2727 69.0307 76.3892 68.741 76.6222C68.4512 76.8551 68.2367 77.1605 68.0975 77.5384C67.9583 77.9162 67.8887 78.3239 67.8887 78.7614C67.8887 79.1989 67.9583 79.6051 68.0975 79.9801C68.2367 80.3551 68.4512 80.6577 68.741 80.8878C69.0307 81.1179 69.4001 81.233 69.8489 81.233ZM78.355 79.3239V75.4545H79.3607V82H78.355V80.892H78.2868C78.1334 81.2244 77.8948 81.5071 77.5709 81.7401C77.247 81.9702 76.8379 82.0852 76.3436 82.0852C75.9345 82.0852 75.5709 81.9957 75.2527 81.8168C74.9345 81.6349 74.6845 81.3622 74.5027 80.9986C74.3209 80.6321 74.23 80.1705 74.23 79.6136V75.4545H75.2357V79.5455C75.2357 80.0227 75.3692 80.4034 75.6362 80.6875C75.9061 80.9716 76.2499 81.1136 76.6675 81.1136C76.9175 81.1136 77.1717 81.0497 77.4303 80.9219C77.6916 80.794 77.9104 80.598 78.0865 80.3338C78.2655 80.0696 78.355 79.733 78.355 79.3239ZM85.719 76.9205L84.8156 77.1761C84.7588 77.0256 84.675 76.8793 84.5642 76.7372C84.4562 76.5923 84.3085 76.473 84.121 76.3793C83.9335 76.2855 83.6934 76.2386 83.4008 76.2386C83.0003 76.2386 82.6664 76.331 82.3994 76.5156C82.1352 76.6974 82.0031 76.929 82.0031 77.2102C82.0031 77.4602 82.094 77.6577 82.2758 77.8026C82.4576 77.9474 82.7417 78.0682 83.1281 78.1648L84.0997 78.4034C84.6849 78.5455 85.121 78.7628 85.4079 79.0554C85.6949 79.3452 85.8383 79.7187 85.8383 80.1761C85.8383 80.5511 85.7304 80.8864 85.5145 81.1818C85.3014 81.4773 85.0031 81.7102 84.6196 81.8807C84.236 82.0511 83.79 82.1364 83.2815 82.1364C82.6139 82.1364 82.0613 81.9915 81.6238 81.7017C81.1863 81.4119 80.9093 80.9886 80.7929 80.4318L81.7474 80.1932C81.8383 80.5455 82.0102 80.8097 82.263 80.9858C82.5187 81.1619 82.8525 81.25 83.2645 81.25C83.7332 81.25 84.1054 81.1506 84.3809 80.9517C84.6593 80.75 84.7985 80.5085 84.7985 80.2273C84.7985 80 84.719 79.8097 84.5599 79.6562C84.4008 79.5 84.1565 79.3835 83.827 79.3068L82.736 79.0511C82.1366 78.9091 81.6963 78.6889 81.415 78.3906C81.1366 78.0895 80.9974 77.7131 80.9974 77.2614C80.9974 76.892 81.1011 76.5653 81.3085 76.2812C81.5187 75.9972 81.8042 75.7741 82.165 75.6122C82.5287 75.4503 82.9406 75.3693 83.4008 75.3693C84.0485 75.3693 84.5571 75.5114 84.9264 75.7955C85.2985 76.0795 85.5628 76.4545 85.719 76.9205ZM91.6804 73.2727V82H90.6235V73.2727H91.6804ZM93.543 82V75.4545H94.5145V76.4773H94.5998C94.7361 76.1278 94.9563 75.8565 95.2603 75.6634C95.5643 75.4673 95.9293 75.3693 96.3555 75.3693C96.7873 75.3693 97.1466 75.4673 97.4336 75.6634C97.7234 75.8565 97.9492 76.1278 98.1111 76.4773H98.1793C98.3469 76.1392 98.5984 75.8707 98.9336 75.6719C99.2688 75.4702 99.6708 75.3693 100.14 75.3693C100.725 75.3693 101.203 75.5526 101.576 75.919C101.948 76.2827 102.134 76.8494 102.134 77.6193V82H101.128V77.6193C101.128 77.1364 100.996 76.7912 100.732 76.5838C100.468 76.3764 100.157 76.2727 99.7986 76.2727C99.3384 76.2727 98.9819 76.4119 98.729 76.6903C98.4762 76.9659 98.3498 77.3153 98.3498 77.7386V82H97.327V77.517C97.327 77.1449 97.2063 76.8452 96.9648 76.6179C96.7234 76.3878 96.4123 76.2727 96.0316 76.2727C95.7702 76.2727 95.5259 76.3423 95.2986 76.4815C95.0742 76.6207 94.8924 76.8139 94.7532 77.0611C94.6168 77.3054 94.5486 77.5881 94.5486 77.9091V82H93.543ZM103.853 84.4545V75.4545H104.824V76.4943H104.944C105.017 76.3807 105.12 76.2358 105.25 76.0597C105.384 75.8807 105.574 75.7216 105.821 75.5824C106.071 75.4403 106.409 75.3693 106.836 75.3693C107.387 75.3693 107.873 75.5071 108.293 75.7827C108.713 76.0582 109.042 76.4489 109.277 76.9545C109.513 77.4602 109.631 78.0568 109.631 78.7443C109.631 79.4375 109.513 80.0384 109.277 80.5469C109.042 81.0526 108.715 81.4446 108.297 81.723C107.88 81.9986 107.398 82.1364 106.853 82.1364C106.432 82.1364 106.096 82.0668 105.843 81.9276C105.59 81.7855 105.395 81.625 105.259 81.446C105.123 81.2642 105.017 81.1136 104.944 80.9943H104.858V84.4545H103.853ZM104.841 78.7273C104.841 79.2216 104.914 79.6577 105.059 80.0355C105.203 80.4105 105.415 80.7045 105.694 80.9176C105.972 81.1278 106.313 81.233 106.716 81.233C107.137 81.233 107.488 81.1222 107.769 80.9006C108.053 80.6761 108.266 80.375 108.408 79.9972C108.553 79.6165 108.625 79.1932 108.625 78.7273C108.625 78.267 108.554 77.8523 108.412 77.483C108.273 77.1108 108.061 76.8168 107.777 76.6009C107.496 76.3821 107.142 76.2727 106.716 76.2727C106.307 76.2727 105.963 76.3764 105.685 76.5838C105.407 76.7884 105.196 77.0753 105.054 77.4446C104.912 77.8111 104.841 78.2386 104.841 78.7273ZM111.045 82V75.4545H112.017V76.4432H112.085C112.204 76.1193 112.42 75.8565 112.733 75.6548C113.045 75.4531 113.397 75.3523 113.789 75.3523C113.863 75.3523 113.956 75.3537 114.066 75.3565C114.177 75.3594 114.261 75.3636 114.318 75.3693V76.392C114.284 76.3835 114.206 76.3707 114.083 76.3537C113.964 76.3338 113.838 76.3239 113.704 76.3239C113.386 76.3239 113.102 76.3906 112.852 76.5241C112.605 76.6548 112.409 76.8366 112.264 77.0696C112.122 77.2997 112.051 77.5625 112.051 77.858V82H111.045ZM117.85 82.1364C117.259 82.1364 116.74 81.9957 116.294 81.7145C115.851 81.4332 115.505 81.0398 115.255 80.5341C115.008 80.0284 114.884 79.4375 114.884 78.7614C114.884 78.0795 115.008 77.4844 115.255 76.9759C115.505 76.4673 115.851 76.0724 116.294 75.7912C116.74 75.5099 117.259 75.3693 117.85 75.3693C118.441 75.3693 118.958 75.5099 119.401 75.7912C119.847 76.0724 120.194 76.4673 120.441 76.9759C120.691 77.4844 120.816 78.0795 120.816 78.7614C120.816 79.4375 120.691 80.0284 120.441 80.5341C120.194 81.0398 119.847 81.4332 119.401 81.7145C118.958 81.9957 118.441 82.1364 117.85 82.1364ZM117.85 81.233C118.299 81.233 118.668 81.1179 118.958 80.8878C119.248 80.6577 119.462 80.3551 119.601 79.9801C119.74 79.6051 119.81 79.1989 119.81 78.7614C119.81 78.3239 119.74 77.9162 119.601 77.5384C119.462 77.1605 119.248 76.8551 118.958 76.6222C118.668 76.3892 118.299 76.2727 117.85 76.2727C117.401 76.2727 117.032 76.3892 116.742 76.6222C116.452 76.8551 116.238 77.1605 116.098 77.5384C115.959 77.9162 115.89 78.3239 115.89 78.7614C115.89 79.1989 115.959 79.6051 116.098 79.9801C116.238 80.3551 116.452 80.6577 116.742 80.8878C117.032 81.1179 117.401 81.233 117.85 81.233ZM127.349 75.4545L124.928 82H123.906L121.485 75.4545H122.576L124.383 80.6705H124.451L126.258 75.4545H127.349ZM131.066 82.1364C130.435 82.1364 129.891 81.9972 129.434 81.7188C128.98 81.4375 128.629 81.0455 128.382 80.5426C128.137 80.0369 128.015 79.4489 128.015 78.7784C128.015 78.108 128.137 77.517 128.382 77.0057C128.629 76.4915 128.972 76.0909 129.413 75.804C129.856 75.5142 130.373 75.3693 130.964 75.3693C131.305 75.3693 131.641 75.4261 131.974 75.5398C132.306 75.6534 132.609 75.8381 132.882 76.0938C133.154 76.3466 133.372 76.6818 133.534 77.0994C133.695 77.517 133.776 78.0312 133.776 78.642V79.0682H128.731V78.1989H132.754C132.754 77.8295 132.68 77.5 132.532 77.2102C132.387 76.9205 132.18 76.6918 131.91 76.5241C131.643 76.3565 131.328 76.2727 130.964 76.2727C130.563 76.2727 130.217 76.3722 129.924 76.571C129.634 76.767 129.411 77.0227 129.255 77.3381C129.099 77.6534 129.021 77.9915 129.021 78.3523V78.9318C129.021 79.4261 129.106 79.8452 129.276 80.1889C129.45 80.5298 129.69 80.7898 129.997 80.9688C130.303 81.1449 130.66 81.233 131.066 81.233C131.33 81.233 131.569 81.196 131.782 81.1222C131.998 81.0455 132.184 80.9318 132.34 80.7812C132.497 80.6278 132.617 80.4375 132.703 80.2102L133.674 80.483C133.572 80.8125 133.4 81.1023 133.159 81.3523C132.917 81.5994 132.619 81.7926 132.264 81.9318C131.909 82.0682 131.509 82.1364 131.066 82.1364ZM135.186 82V75.4545H136.158V76.4773H136.243C136.379 76.1278 136.6 75.8565 136.904 75.6634C137.208 75.4673 137.573 75.3693 137.999 75.3693C138.431 75.3693 138.79 75.4673 139.077 75.6634C139.367 75.8565 139.592 76.1278 139.754 76.4773H139.823C139.99 76.1392 140.242 75.8707 140.577 75.6719C140.912 75.4702 141.314 75.3693 141.783 75.3693C142.368 75.3693 142.847 75.5526 143.219 75.919C143.591 76.2827 143.777 76.8494 143.777 77.6193V82H142.771V77.6193C142.771 77.1364 142.639 76.7912 142.375 76.5838C142.111 76.3764 141.8 76.2727 141.442 76.2727C140.982 76.2727 140.625 76.4119 140.372 76.6903C140.119 76.9659 139.993 77.3153 139.993 77.7386V82H138.97V77.517C138.97 77.1449 138.85 76.8452 138.608 76.6179C138.367 76.3878 138.056 76.2727 137.675 76.2727C137.414 76.2727 137.169 76.3423 136.942 76.4815C136.717 76.6207 136.536 76.8139 136.396 77.0611C136.26 77.3054 136.192 77.5881 136.192 77.9091V82H135.186ZM148.24 82.1364C147.61 82.1364 147.066 81.9972 146.608 81.7188C146.154 81.4375 145.803 81.0455 145.556 80.5426C145.311 80.0369 145.189 79.4489 145.189 78.7784C145.189 78.108 145.311 77.517 145.556 77.0057C145.803 76.4915 146.146 76.0909 146.587 75.804C147.03 75.5142 147.547 75.3693 148.138 75.3693C148.479 75.3693 148.816 75.4261 149.148 75.5398C149.48 75.6534 149.783 75.8381 150.056 76.0938C150.328 76.3466 150.546 76.6818 150.708 77.0994C150.87 77.517 150.95 78.0312 150.95 78.642V79.0682H145.905V78.1989H149.928C149.928 77.8295 149.854 77.5 149.706 77.2102C149.561 76.9205 149.354 76.6918 149.084 76.5241C148.817 76.3565 148.502 76.2727 148.138 76.2727C147.737 76.2727 147.391 76.3722 147.098 76.571C146.808 76.767 146.585 77.0227 146.429 77.3381C146.273 77.6534 146.195 77.9915 146.195 78.3523V78.9318C146.195 79.4261 146.28 79.8452 146.45 80.1889C146.624 80.5298 146.864 80.7898 147.171 80.9688C147.477 81.1449 147.834 81.233 148.24 81.233C148.504 81.233 148.743 81.196 148.956 81.1222C149.172 81.0455 149.358 80.9318 149.514 80.7812C149.671 80.6278 149.791 80.4375 149.877 80.2102L150.848 80.483C150.746 80.8125 150.574 81.1023 150.333 81.3523C150.091 81.5994 149.793 81.7926 149.438 81.9318C149.083 82.0682 148.683 82.1364 148.24 82.1364ZM153.366 78.0625V82H152.36V75.4545H153.332V76.4773H153.417C153.571 76.1449 153.803 75.8778 154.116 75.6761C154.428 75.4716 154.832 75.3693 155.326 75.3693C155.769 75.3693 156.157 75.4602 156.49 75.642C156.822 75.821 157.08 76.0938 157.265 76.4602C157.45 76.8239 157.542 77.2841 157.542 77.8409V82H156.536V77.9091C156.536 77.3949 156.403 76.9943 156.136 76.7074C155.869 76.4176 155.502 76.2727 155.036 76.2727C154.715 76.2727 154.428 76.3423 154.176 76.4815C153.926 76.6207 153.728 76.8239 153.583 77.0909C153.438 77.358 153.366 77.6818 153.366 78.0625ZM162.106 75.4545V76.3068H158.714V75.4545H162.106ZM159.703 73.8864H160.709V80.125C160.709 80.4091 160.75 80.6222 160.832 80.7642C160.917 80.9034 161.025 80.9972 161.156 81.0455C161.29 81.0909 161.43 81.1136 161.578 81.1136C161.689 81.1136 161.78 81.108 161.851 81.0966C161.922 81.0824 161.979 81.071 162.021 81.0625L162.226 81.9659C162.158 81.9915 162.062 82.017 161.94 82.0426C161.818 82.071 161.663 82.0852 161.476 82.0852C161.192 82.0852 160.913 82.0241 160.641 81.902C160.371 81.7798 160.146 81.5938 159.967 81.3438C159.791 81.0938 159.703 80.7784 159.703 80.3977V73.8864Z" fill="white" fill-opacity="0.65"/>
<defs>
<filter id="filter0_d_1874_8776" x="222" y="99" width="48" height="48" filterUnits="userSpaceOnUse" color-interpolation-filters="sRGB">
<feFlood flood-opacity="0" result="BackgroundImageFix"/>
<feColorMatrix in="SourceAlpha" type="matrix" values="0 0 0 0 0 0 0 0 0 0 0 0 0 0 0 0 0 0 127 0" result="hardAlpha"/>
<feOffset/>
<feGaussianBlur stdDeviation="4"/>
<feComposite in2="hardAlpha" operator="out"/>
<feColorMatrix type="matrix" values="0 0 0 0 1 0 0 0 0 1 0 0 0 0 1 0 0 0 0.55 0"/>
<feBlend mode="normal" in2="BackgroundImageFix" result="effect1_dropShadow_1874_8776"/>
<feBlend mode="normal" in="SourceGraphic" in2="effect1_dropShadow_1874_8776" result="shape"/>
</filter>
<linearGradient id="paint0_linear_1874_8776" x1="144" y1="0" x2="144" y2="219" gradientUnits="userSpaceOnUse">
<stop stop-color="#70767C"/>
<stop offset="1" stop-color="#4B525A" stop-opacity="0.72"/>
</linearGradient>
<linearGradient id="paint1_linear_1874_8776" x1="51.7947" y1="178.396" x2="228.005" y2="178.396" gradientUnits="userSpaceOnUse">
<stop stop-color="#F838AB"/>
<stop offset="1" stop-color="white"/>
</linearGradient>
<linearGradient id="paint2_linear_1874_8776" x1="252.659" y1="128.5" x2="31.0145" y2="130.485" gradientUnits="userSpaceOnUse">
<stop stop-color="white" stop-opacity="0.7"/>
<stop offset="1" stop-color="white" stop-opacity="0.1"/>
</linearGradient>
<linearGradient id="paint3_linear_1874_8776" x1="139.5" y1="115" x2="139.5" y2="131" gradientUnits="userSpaceOnUse">
<stop stop-color="white" stop-opacity="0.3"/>
<stop offset="1" stop-color="white" stop-opacity="0.2"/>
</linearGradient>
<linearGradient id="paint4_linear_1874_8776" x1="238" y1="123" x2="24" y2="123" gradientUnits="userSpaceOnUse">
<stop stop-color="#F838AB"/>
<stop offset="1" stop-color="#F8385B"/>
</linearGradient>
</defs>
</svg>
