<svg width="18" height="18" viewBox="0 0 18 18" fill="none" xmlns="http://www.w3.org/2000/svg">
<path d="M16.1249 9.00092C16.1249 9.20792 15.9569 9.37592 15.7499 9.37592H3.15521L7.76471 13.9854C7.91096 14.1317 7.91096 14.3694 7.76471 14.5157C7.69121 14.5892 7.59521 14.6252 7.49921 14.6252C7.40321 14.6252 7.3072 14.5884 7.2337 14.5157L1.9837 9.26569C1.9492 9.23119 1.92152 9.18913 1.90277 9.14338C1.86452 9.05188 1.86452 8.9485 1.90277 8.857C1.92152 8.8105 1.9492 8.76919 1.9837 8.73469L7.2337 3.48469C7.37995 3.33844 7.61773 3.33844 7.76398 3.48469C7.91023 3.63094 7.91023 3.86871 7.76398 4.01496L3.15448 8.62446H15.7499C15.9569 8.62596 16.1249 8.79392 16.1249 9.00092Z" fill="white"/>
</svg>
