<svg width="48" height="48" viewBox="0 0 48 48" fill="none" xmlns="http://www.w3.org/2000/svg">
<rect width="48" height="48" rx="8" fill="#404049"/>
<rect x="0.5" y="0.5" width="47" height="47" rx="7.5" stroke="url(#paint0_linear_37199_30361)" stroke-opacity="0.14"/>
<path d="M27.2601 32.3928C26.9161 32.5568 26.5141 32.6788 26.0591 32.7608L19.4891 33.9109C17.2991 34.3009 16.009 33.4009 15.629 31.2108L14.0892 22.4608C13.6992 20.2708 14.5991 18.9809 16.7891 18.5909L18.587 18.2748C18.792 18.2388 18.9711 18.4178 18.9341 18.6228L17.7581 25.2809C17.2281 28.3109 18.658 30.3508 21.678 30.8808C21.678 30.8808 26.8971 31.7978 27.1661 31.8498C27.4981 31.9098 27.5511 32.2638 27.2601 32.3928ZM33.9131 19.1068L32.3689 27.8608C31.997 29.9688 30.7811 30.8698 28.7361 30.5898C28.6581 30.5788 28.5881 30.5789 28.5071 30.5649L21.9419 29.4068C19.7529 29.0208 18.8521 27.7338 19.2381 25.5448L20.5811 17.9288L20.782 16.7908C21.168 14.6018 22.4551 13.7008 24.6441 14.0868L31.21 15.2448C33.398 15.6308 34.2991 16.9188 33.9131 19.1068ZM27.554 25.8968C27.626 25.4888 27.3541 25.0998 26.9461 25.0278L22.8421 24.3038C22.4361 24.2308 22.0452 24.5048 21.9742 24.9118C21.9022 25.3198 22.1741 25.7089 22.5821 25.7809L26.6861 26.5049C26.7301 26.5129 26.7739 26.5158 26.8169 26.5158C27.1739 26.5168 27.49 26.2608 27.554 25.8968ZM30.597 23.0358C30.669 22.6278 30.3971 22.2388 29.9891 22.1668L23.4241 21.0088C23.0201 20.9378 22.627 21.2099 22.556 21.6169C22.484 22.0249 22.7561 22.4138 23.1641 22.4858L29.7291 23.6438C29.7731 23.6518 29.8172 23.6548 29.8602 23.6548C30.2172 23.6548 30.533 23.3988 30.597 23.0358ZM31.2972 19.7738C31.3692 19.3658 31.097 18.9768 30.689 18.9048L24.1241 17.7468C23.7201 17.6748 23.3272 17.9478 23.2562 18.3548C23.1842 18.7628 23.4561 19.1518 23.8641 19.2238L30.429 20.3818C30.473 20.3898 30.5171 20.3929 30.5601 20.3929C30.9171 20.3939 31.2332 20.1378 31.2972 19.7738Z" fill="white"/>
<defs>
<linearGradient id="paint0_linear_37199_30361" x1="2" y1="3.22858e-07" x2="48" y2="48" gradientUnits="userSpaceOnUse">
<stop stop-color="white"/>
<stop offset="0.265" stop-color="#CCCCCC" stop-opacity="0"/>
<stop offset="0.6325" stop-color="#B3B3B3" stop-opacity="0"/>
<stop offset="1" stop-color="white"/>
</linearGradient>
</defs>
</svg>
