<svg width="61" height="60" viewBox="0 0 61 60" fill="none" xmlns="http://www.w3.org/2000/svg">
<g clip-path="url(#clip0_37179_26807)">
<path d="M59.769 37.2571C55.7618 53.3287 39.4821 63.1096 23.4068 59.1018C7.33821 55.0951 -2.44374 38.8162 1.56518 22.7459C5.57059 6.67257 21.8503 -3.10901 37.9206 0.897702C53.9948 4.90442 63.7761 21.1851 59.7685 37.2574L59.7688 37.2571H59.769Z" fill="#F7931A"/>
<path d="M43.8968 25.7273C44.494 21.735 41.4542 19.5889 37.2974 18.1573L38.6459 12.7493L35.3535 11.929L34.0408 17.1946C33.1753 16.9788 32.2864 16.7754 31.403 16.5738L32.7252 11.2734L29.4349 10.4531L28.0857 15.8593C27.3694 15.6963 26.6659 15.5351 25.9834 15.3653L25.9872 15.3483L21.4469 14.2147L20.5711 17.7307C20.5711 17.7307 23.0138 18.2906 22.9623 18.3251C24.2955 18.6578 24.5366 19.5402 24.4966 20.2397L22.9605 26.4007C23.0524 26.424 23.1714 26.4577 23.3028 26.5105C23.193 26.4832 23.0761 26.4534 22.9548 26.4244L20.8018 35.055C20.6389 35.4601 20.2253 36.0679 19.2932 35.8371C19.3262 35.8849 16.9002 35.24 16.9002 35.24L15.2656 39.0082L19.5501 40.0762C20.3472 40.2761 21.1283 40.4852 21.8975 40.6818L20.535 46.1518L23.8236 46.9721L25.1728 41.5602C26.0712 41.804 26.9431 42.029 27.7966 42.241L26.4519 47.6274L29.7445 48.4477L31.1067 42.988C36.7209 44.0504 40.9423 43.622 42.7192 38.5446C44.151 34.4566 42.6479 32.0987 39.6943 30.5611C41.8456 30.065 43.466 28.6502 43.898 25.7277L43.897 25.727L43.8968 25.7273ZM36.3745 36.2743C35.357 40.3623 28.4734 38.1525 26.2416 37.5983L28.0496 30.3515C30.2812 30.9086 37.4379 32.011 36.3747 36.2743H36.3745ZM37.3927 25.6681C36.4646 29.3865 30.7352 27.4974 28.8767 27.0341L30.5159 20.4617C32.3744 20.9249 38.3596 21.7895 37.393 25.6681H37.3927Z" fill="white"/>
</g>
<defs>
<clipPath id="clip0_37179_26807">
<rect width="60" height="60" fill="white" transform="translate(0.666626)"/>
</clipPath>
</defs>
</svg>
