<svg width="23" height="22" viewBox="0 0 23 22" fill="none" xmlns="http://www.w3.org/2000/svg">
<path d="M18.5 3.78906H16.7967L16.2296 2.08464C15.8714 1.0113 14.8704 0.289062 13.7388 0.289062H9.26123C8.12956 0.289062 7.12855 1.0113 6.77039 2.08464L6.20329 3.78906H4.5C1.679 3.78906 0.125 5.34306 0.125 8.16406V17.4974C0.125 20.3184 1.679 21.8724 4.5 21.8724H18.5C21.321 21.8724 22.875 20.3184 22.875 17.4974V8.16406C22.875 5.34306 21.321 3.78906 18.5 3.78906ZM21.125 17.4974C21.125 19.3372 20.3398 20.1224 18.5 20.1224H4.5C2.66017 20.1224 1.875 19.3372 1.875 17.4974V8.16406C1.875 6.32423 2.66017 5.53906 4.5 5.53906H6.83333C7.21017 5.53906 7.54373 5.29763 7.6639 4.94063L8.4318 2.63635C8.5508 2.27819 8.8844 2.03792 9.26123 2.03792H13.7388C14.1156 2.03792 14.4492 2.27819 14.5682 2.63635L15.3361 4.93949C15.4563 5.29649 15.7898 5.53792 16.1667 5.53792H18.5C20.3398 5.53792 21.125 6.32309 21.125 8.16292V17.4974ZM11.5 8.45573C9.0885 8.45573 7.125 10.4181 7.125 12.8307C7.125 15.2434 9.0885 17.2057 11.5 17.2057C13.9115 17.2057 15.875 15.2434 15.875 12.8307C15.875 10.4181 13.9115 8.45573 11.5 8.45573ZM11.5 15.4557C10.0533 15.4557 8.875 14.2786 8.875 12.8307C8.875 11.3829 10.0533 10.2057 11.5 10.2057C12.9467 10.2057 14.125 11.3829 14.125 12.8307C14.125 14.2786 12.9467 15.4557 11.5 15.4557ZM19.0833 8.7474C19.0833 9.3914 18.5607 9.91406 17.9167 9.91406C17.2727 9.91406 16.75 9.3914 16.75 8.7474C16.75 8.1034 17.2727 7.58073 17.9167 7.58073C18.5607 7.58073 19.0833 8.1034 19.0833 8.7474Z" fill="white"/>
</svg>
