<svg width="24" height="24" viewBox="0 0 24 24" fill="none" xmlns="http://www.w3.org/2000/svg">
<path d="M10.6144 17.7985L11.492 15.7883C12.2731 13.9995 13.6789 12.5755 15.4325 11.7971L17.8482 10.7248C18.6162 10.3839 18.6162 9.26661 17.8482 8.9257L15.5079 7.88687C13.7092 7.08845 12.2782 5.61174 11.5105 3.76187L10.6215 1.61966C10.2916 0.824695 9.19319 0.824697 8.8633 1.61966L7.97427 3.76185C7.20657 5.61174 5.77553 7.08845 3.97685 7.88687L1.63658 8.9257C0.868537 9.26661 0.868536 10.3839 1.63658 10.7248L4.0523 11.7971C5.80589 12.5755 7.21171 13.9995 7.99275 15.7883L8.8704 17.7985C9.20776 18.5711 10.277 18.5711 10.6144 17.7985ZM19.4014 22.6928L19.6482 22.1271C20.0882 21.1185 20.8807 20.3154 21.8695 19.8761L22.6299 19.5382C23.0412 19.3555 23.0412 18.7578 22.6299 18.5751L21.9121 18.2561C20.8978 17.8055 20.0911 16.9727 19.6586 15.9298L19.4052 15.3185C19.2285 14.8925 18.6395 14.8925 18.4628 15.3185L18.2094 15.9298C17.777 16.9727 16.9703 17.8055 15.956 18.2561L15.2381 18.5751C14.8269 18.7578 14.8269 19.3555 15.2381 19.5382L15.9985 19.8761C16.9874 20.3154 17.7798 21.1185 18.2198 22.1271L18.4667 22.6928C18.6473 23.1069 19.2207 23.1069 19.4014 22.6928Z" fill="white"/>
</svg>
