<svg width="40" height="32" viewBox="0 0 40 32" fill="none" xmlns="http://www.w3.org/2000/svg">
<rect x="4" width="32" height="32" rx="16" fill="#F0A254"/>
<path d="M24.5173 14.2536H22.6579C22.6049 13.9486 22.5071 13.6785 22.3646 13.4432C22.2221 13.2045 22.0448 13.0024 21.8327 12.8366C21.6205 12.6709 21.3786 12.5466 21.1068 12.4638C20.8383 12.3776 20.5483 12.3345 20.2368 12.3345C19.6833 12.3345 19.1927 12.4737 18.7652 12.7521C18.3376 13.0272 18.0029 13.4316 17.7609 13.9652C17.519 14.4955 17.398 15.1435 17.398 15.9091C17.398 16.688 17.519 17.3442 17.7609 17.8778C18.0062 18.4081 18.3409 18.8092 18.7652 19.081C19.1927 19.3494 19.6816 19.4837 20.2318 19.4837C20.5367 19.4837 20.8218 19.4439 21.0869 19.3643C21.3554 19.2815 21.5957 19.1605 21.8078 19.0014C22.0232 18.8423 22.2039 18.6468 22.3497 18.4148C22.4988 18.1828 22.6016 17.9176 22.6579 17.6193L24.5173 17.6293C24.4477 18.1132 24.2969 18.5672 24.0649 18.9915C23.8362 19.4157 23.5363 19.7902 23.165 20.1151C22.7938 20.4366 22.3596 20.6884 21.8625 20.8707C21.3653 21.0497 20.8135 21.1392 20.2069 21.1392C19.3121 21.1392 18.5133 20.9321 17.8106 20.5178C17.108 20.1035 16.5545 19.5052 16.1501 18.723C15.7458 17.9408 15.5436 17.0028 15.5436 15.9091C15.5436 14.812 15.7474 13.8741 16.1551 13.0952C16.5628 12.313 17.1179 11.7147 17.8206 11.3004C18.5232 10.8861 19.3187 10.679 20.2069 10.679C20.7737 10.679 21.3007 10.7585 21.7879 10.9176C22.2751 11.0767 22.7093 11.3104 23.0905 11.6186C23.4716 11.9235 23.7848 12.2981 24.0301 12.7422C24.2787 13.183 24.4411 13.6868 24.5173 14.2536Z" fill="#1C1C26"/>
</svg>
