<svg width="32" height="32" viewBox="0 0 32 32" fill="none" xmlns="http://www.w3.org/2000/svg">
<rect width="32" height="32" rx="16" fill="#5CB0FF"/>
<path d="M12.4037 21V10.8182H16.3014C17.0372 10.8182 17.6487 10.9342 18.1359 11.1662C18.6265 11.3949 18.9927 11.7081 19.2346 12.1058C19.4799 12.5036 19.6025 12.9543 19.6025 13.4581C19.6025 13.8724 19.523 14.227 19.3639 14.522C19.2048 14.8137 18.991 15.0507 18.7226 15.233C18.4541 15.4152 18.1541 15.5462 17.8227 15.6257V15.7251C18.184 15.745 18.5303 15.8561 18.8618 16.0582C19.1965 16.2571 19.47 16.5388 19.6821 16.9034C19.8942 17.268 20.0003 17.7088 20.0003 18.2259C20.0003 18.7528 19.8727 19.2268 19.6175 19.6477C19.3622 20.0653 18.9778 20.3951 18.464 20.6371C17.9503 20.879 17.304 21 16.5251 21H12.4037ZM14.2481 19.4588H16.2318C16.9013 19.4588 17.3836 19.3312 17.6785 19.076C17.9768 18.8175 18.126 18.486 18.126 18.0817C18.126 17.7801 18.0514 17.5083 17.9023 17.2663C17.7531 17.0211 17.541 16.8288 17.2659 16.6896C16.9908 16.5471 16.6627 16.4759 16.2815 16.4759H14.2481V19.4588ZM14.2481 15.1484H16.0727C16.3909 15.1484 16.6776 15.0904 16.9328 14.9744C17.188 14.8551 17.3885 14.6877 17.5344 14.4723C17.6835 14.2536 17.7581 13.995 17.7581 13.6967C17.7581 13.3023 17.6189 12.9775 17.3405 12.7223C17.0654 12.4671 16.656 12.3395 16.1125 12.3395H14.2481V15.1484Z" fill="#1C1C26"/>
</svg>
