<svg width="40" height="32" viewBox="0 0 40 32" fill="none" xmlns="http://www.w3.org/2000/svg">
<rect x="4" width="32" height="32" rx="16" fill="#F07354"/>
<path d="M19.3823 21H15.932V10.8182H19.4519C20.4628 10.8182 21.3311 11.022 22.057 11.4297C22.7862 11.834 23.3463 12.4157 23.7374 13.1747C24.1285 13.9337 24.324 14.8419 24.324 15.8991C24.324 16.9598 24.1268 17.8712 23.7324 18.6335C23.3413 19.3958 22.7762 19.9808 22.0371 20.3885C21.3013 20.7962 20.4164 21 19.3823 21ZM17.7765 19.4041H19.2928C20.0021 19.4041 20.5937 19.2749 21.0676 19.0163C21.5416 18.7545 21.8979 18.3651 22.1365 17.848C22.3752 17.3277 22.4945 16.678 22.4945 15.8991C22.4945 15.1203 22.3752 14.474 22.1365 13.9602C21.8979 13.4432 21.5449 13.0571 21.0776 12.8018C20.6136 12.5433 20.0369 12.4141 19.3475 12.4141H17.7765V19.4041Z" fill="#1C1C26"/>
</svg>
