<svg width="40" height="32" viewBox="0 0 40 32" fill="none" xmlns="http://www.w3.org/2000/svg">
<rect x="4" width="32" height="32" rx="16" fill="url(#paint0_linear_37199_27025)"/>
<path d="M21.9917 13.6172C21.9453 13.183 21.7498 12.8449 21.4051 12.603C21.0637 12.361 20.6196 12.2401 20.0727 12.2401C19.6882 12.2401 19.3585 12.2981 19.0834 12.4141C18.8083 12.5301 18.5978 12.6875 18.452 12.8864C18.3061 13.0852 18.2316 13.3123 18.2282 13.5675C18.2282 13.7796 18.2763 13.9635 18.3724 14.1193C18.4719 14.2751 18.6061 14.4077 18.7751 14.517C18.9442 14.6231 19.1314 14.7126 19.3369 14.7855C19.5424 14.8584 19.7496 14.9197 19.9584 14.9695L20.9129 15.2081C21.2974 15.2976 21.6669 15.4186 22.0216 15.571C22.3795 15.7235 22.6994 15.9157 22.9811 16.1477C23.2661 16.3797 23.4915 16.6598 23.6572 16.9879C23.8229 17.3161 23.9058 17.7005 23.9058 18.1413C23.9058 18.7379 23.7533 19.2633 23.4484 19.7173C23.1435 20.1681 22.7027 20.5211 22.126 20.7763C21.5526 21.0282 20.8582 21.1541 20.0429 21.1541C19.2507 21.1541 18.563 21.0315 17.9797 20.7862C17.3997 20.541 16.9456 20.183 16.6175 19.7124C16.2926 19.2417 16.117 18.6683 16.0905 17.9922H17.9051C17.9316 18.3468 18.041 18.6418 18.2332 18.8771C18.4255 19.1125 18.6757 19.2881 18.9839 19.4041C19.2955 19.5201 19.6435 19.5781 20.028 19.5781C20.429 19.5781 20.7803 19.5185 21.0819 19.3991C21.3869 19.2765 21.6255 19.1075 21.7979 18.892C21.9702 18.6733 22.058 18.4181 22.0613 18.1264C22.058 17.8613 21.9801 17.6425 21.8277 17.4702C21.6752 17.2945 21.4614 17.1487 21.1863 17.0327C20.9146 16.9134 20.5964 16.8073 20.2318 16.7145L19.0734 16.4162C18.2349 16.2008 17.572 15.8743 17.0848 15.4368C16.6009 14.996 16.3589 14.411 16.3589 13.6818C16.3589 13.0819 16.5213 12.5566 16.8461 12.1058C17.1743 11.6551 17.6201 11.3054 18.1835 11.0568C18.747 10.8049 19.385 10.679 20.0976 10.679C20.8201 10.679 21.4532 10.8049 21.9967 11.0568C22.5436 11.3054 22.9728 11.6518 23.2844 12.0959C23.5959 12.5367 23.7567 13.0438 23.7666 13.6172H21.9917Z" fill="#1C1C26"/>
<defs>
<linearGradient id="paint0_linear_37199_27025" x1="20" y1="0" x2="20" y2="32" gradientUnits="userSpaceOnUse">
<stop stop-color="#FEC53C"/>
<stop offset="1" stop-color="#E7B231"/>
</linearGradient>
</defs>
</svg>
