<svg width="18" height="21" viewBox="0 0 18 21" fill="none" xmlns="http://www.w3.org/2000/svg">
<path d="M2.00979 15.9651C2.00979 16.1321 2.13969 16.2659 2.30569 16.2649C4.09269 16.2509 13.4059 16.2509 15.1929 16.2649C15.3599 16.2659 15.4888 16.1321 15.4888 15.9651V12.45C15.4888 7.63995 12.5988 4.75 8.7488 4.75C4.8988 4.75 2.00881 7.63995 2.00881 12.45V15.9651H2.00979ZM8.74978 7.41992C9.15978 7.41992 9.49978 7.74992 9.49978 8.16992C9.49978 8.57992 9.15978 8.91992 8.74978 8.91992C7.40978 8.91992 6.31975 9.92 6.21975 11.25C6.18975 11.65 5.85975 11.9399 5.46975 11.9399H5.40969C4.99969 11.9099 4.68975 11.5499 4.71975 11.1399C4.88975 9.04989 6.64978 7.41992 8.74978 7.41992ZM16.7498 19.249V20.75H0.749779V19.25C0.749779 18.422 1.42178 17.75 2.24978 17.75H15.2508C16.0788 17.75 16.7498 18.421 16.7498 19.249ZM7.99978 2.25V0.75C7.99978 0.336 8.33578 0 8.74978 0C9.16378 0 9.49978 0.336 9.49978 0.75V2.25C9.49978 2.664 9.16378 3 8.74978 3C8.33578 3 7.99978 2.664 7.99978 2.25ZM17.2798 3.28003L15.7798 4.78003C15.6338 4.92603 15.4418 5 15.2498 5C15.0578 5 14.8658 4.92703 14.7198 4.78003C14.4268 4.48703 14.4268 4.01199 14.7198 3.71899L16.2197 2.21899C16.5127 1.92599 16.9878 1.92599 17.2808 2.21899C17.5738 2.51199 17.5728 2.98703 17.2798 3.28003ZM1.71975 4.78003L0.21975 3.28003C-0.07325 2.98703 -0.07325 2.51199 0.21975 2.21899C0.51275 1.92599 0.987785 1.92599 1.28079 2.21899L2.78079 3.71899C3.07379 4.01199 3.07379 4.48703 2.78079 4.78003C2.63479 4.92603 2.44276 5 2.25076 5C2.05876 5 1.86575 4.92703 1.71975 4.78003Z" fill="#FFA800"/>
</svg>
