<svg width="16" height="16" viewBox="0 0 16 16" fill="none" xmlns="http://www.w3.org/2000/svg">
<path d="M7.99967 1.33594C8.36787 1.33594 8.66633 1.63442 8.66633 2.0026V4.0026C8.66633 4.37079 8.36787 4.66927 7.99967 4.66927C7.63147 4.66927 7.333 4.37079 7.333 4.0026V2.0026C7.333 1.63442 7.63147 1.33594 7.99967 1.33594ZM7.99967 11.3359C8.36787 11.3359 8.66633 11.6344 8.66633 12.0026V14.0026C8.66633 14.3708 8.36787 14.6693 7.99967 14.6693C7.63147 14.6693 7.333 14.3708 7.333 14.0026V12.0026C7.333 11.6344 7.63147 11.3359 7.99967 11.3359ZM13.7731 4.66927C13.9573 4.98813 13.848 5.39586 13.5291 5.57995L11.7971 6.57995C11.4782 6.76407 11.0705 6.6548 10.8864 6.33594C10.7023 6.01708 10.8115 5.60935 11.1304 5.42526L12.8625 4.42525C13.1813 4.24116 13.5891 4.35041 13.7731 4.66927ZM5.1129 9.66927C5.29699 9.98814 5.18774 10.3959 4.86888 10.5799L3.13683 11.5799C2.81797 11.7641 2.41024 11.6548 2.22615 11.3359C2.04205 11.0171 2.1513 10.6093 2.47017 10.4253L4.20221 9.42527C4.52107 9.24114 4.9288 9.3504 5.1129 9.66927ZM13.7731 11.3359C13.5891 11.6548 13.1813 11.7641 12.8625 11.5799L11.1304 10.5799C10.8115 10.3959 10.7023 9.98814 10.8864 9.66927C11.0705 9.3504 11.4782 9.24114 11.7971 9.42527L13.5291 10.4253C13.848 10.6093 13.9573 11.0171 13.7731 11.3359ZM5.1129 6.33594C4.9288 6.6548 4.52107 6.76407 4.20221 6.57995L2.47017 5.57995C2.1513 5.39586 2.04205 4.98813 2.22615 4.66927C2.41024 4.35041 2.81797 4.24116 3.13683 4.42525L4.86888 5.42526C5.18774 5.60935 5.29699 6.01708 5.1129 6.33594Z" fill="#77777D"/>
</svg>
