<svg width="16" height="28" viewBox="0 0 16 28" fill="none" xmlns="http://www.w3.org/2000/svg">
<path d="M7.99967 7.33594C8.36787 7.33594 8.66633 7.63442 8.66633 8.0026V10.0026C8.66633 10.3708 8.36787 10.6693 7.99967 10.6693C7.63147 10.6693 7.333 10.3708 7.333 10.0026V8.0026C7.333 7.63442 7.63147 7.33594 7.99967 7.33594ZM7.99967 17.3359C8.36787 17.3359 8.66633 17.6344 8.66633 18.0026V20.0026C8.66633 20.3708 8.36787 20.6693 7.99967 20.6693C7.63147 20.6693 7.333 20.3708 7.333 20.0026V18.0026C7.333 17.6344 7.63147 17.3359 7.99967 17.3359ZM13.7731 10.6693C13.9573 10.9881 13.848 11.3959 13.5291 11.58L11.7971 12.58C11.4782 12.7641 11.0705 12.6548 10.8864 12.3359C10.7023 12.0171 10.8115 11.6094 11.1304 11.4253L12.8625 10.4253C13.1813 10.2412 13.5891 10.3504 13.7731 10.6693ZM5.1129 15.6693C5.29699 15.9881 5.18774 16.3959 4.86888 16.5799L3.13683 17.5799C2.81797 17.7641 2.41024 17.6548 2.22615 17.3359C2.04205 17.0171 2.1513 16.6093 2.47017 16.4253L4.20221 15.4253C4.52107 15.2411 4.9288 15.3504 5.1129 15.6693ZM13.7731 17.3359C13.5891 17.6548 13.1813 17.7641 12.8625 17.5799L11.1304 16.5799C10.8115 16.3959 10.7023 15.9881 10.8864 15.6693C11.0705 15.3504 11.4782 15.2411 11.7971 15.4253L13.5291 16.4253C13.848 16.6093 13.9573 17.0171 13.7731 17.3359ZM5.1129 12.3359C4.9288 12.6548 4.52107 12.7641 4.20221 12.58L2.47017 11.58C2.1513 11.3959 2.04205 10.9881 2.22615 10.6693C2.41024 10.3504 2.81797 10.2412 3.13683 10.4253L4.86888 11.4253C5.18774 11.6094 5.29699 12.0171 5.1129 12.3359Z" fill="#FFA800"/>
</svg>
