<svg width="16" height="16" viewBox="0 0 16 16" fill="none" xmlns="http://www.w3.org/2000/svg">
<path d="M11 5.68995V4.66667C11 3.01267 9.654 1.66667 8 1.66667C6.346 1.66667 5 3.01267 5 4.66667V5.68995C3.69467 5.80461 3 6.59201 3 8.00001V12C3 13.5267 3.80667 14.3333 5.33333 14.3333H10.6667C12.1933 14.3333 13 13.5267 13 12V8.00001C13 6.59201 12.3053 5.80461 11 5.68995ZM8 2.33334C9.28667 2.33334 10.3333 3.38001 10.3333 4.66667V5.66667H5.66667V4.66667C5.66667 3.38001 6.71333 2.33334 8 2.33334ZM12.3333 12C12.3333 13.1527 11.8193 13.6667 10.6667 13.6667H5.33333C4.18067 13.6667 3.66667 13.1527 3.66667 12V8.00001C3.66667 6.84734 4.18067 6.33334 5.33333 6.33334H10.6667C11.8193 6.33334 12.3333 6.84734 12.3333 8.00001V12ZM8.66667 9.33334C8.66667 9.57867 8.52933 9.78342 8.33333 9.89942V11.3333C8.33333 11.5173 8.184 11.6667 8 11.6667C7.816 11.6667 7.66667 11.5173 7.66667 11.3333V9.89535C7.472 9.77868 7.33333 9.57601 7.33333 9.33334C7.33333 8.96467 7.6234 8.66667 7.99007 8.66667H8.00326C8.36992 8.66667 8.66667 8.96467 8.66667 9.33334Z" fill="#BBBBBE"/>
</svg>
