<svg width="48" height="48" viewBox="0 0 48 48" fill="none" xmlns="http://www.w3.org/2000/svg">
<rect width="48" height="48" rx="8" fill="#404049"/>
<rect x="0.5" y="0.5" width="47" height="47" rx="7.5" stroke="url(#paint0_linear_37226_22855)" stroke-opacity="0.14"/>
<path d="M22.8905 13.8257C23.1241 13.6787 23.3862 13.6016 23.6526 13.6016C23.919 13.6016 24.1811 13.6787 24.4147 13.8257L31.5445 18.3147C31.7937 18.4716 32.0015 18.7024 32.1461 18.9831C32.2908 19.2638 32.367 19.584 32.3668 19.9101V27.3891C32.3668 27.7177 32.2891 28.0402 32.1421 28.3223C31.9951 28.6044 31.7842 28.8354 31.5318 28.9909L24.402 33.3853C24.1716 33.5273 23.9141 33.6016 23.6526 33.6016C23.391 33.6016 23.1336 33.5273 22.9032 33.3853L15.7733 28.9909C15.5209 28.8353 15.3099 28.6041 15.1629 28.3219C15.0158 28.0397 14.9382 27.717 14.9384 27.3882V19.9092C14.9383 19.5833 15.0146 19.2633 15.1592 18.9827C15.3039 18.7022 15.5116 18.4715 15.7607 18.3147L22.8905 13.8257ZM17.7882 20.4561H16.6315V26.7053H18.0084V23.496L20.202 26.7062H21.3586V20.457H19.9826V23.986L17.7882 20.4561ZM26.2489 20.4561H22.3528V26.7053H23.7582V24.9133H25.951V23.2824H23.7582V21.6433H26.2489V20.4561ZM30.8912 20.4561H26.4406V21.686H27.9672V26.7053H29.3725V21.686H30.8912V20.4561Z" fill="white"/>
<path d="M22.8905 13.8257C23.1241 13.6787 23.3862 13.6016 23.6526 13.6016C23.919 13.6016 24.1811 13.6787 24.4147 13.8257L31.5445 18.3147C31.7937 18.4716 32.0015 18.7024 32.1461 18.9831C32.2908 19.2638 32.367 19.584 32.3668 19.9101V27.3891C32.3668 27.7177 32.2891 28.0402 32.1421 28.3223C31.9951 28.6044 31.7842 28.8354 31.5318 28.9909L24.402 33.3853C24.1716 33.5273 23.9141 33.6016 23.6526 33.6016C23.391 33.6016 23.1336 33.5273 22.9032 33.3853L15.7733 28.9909C15.5209 28.8353 15.3099 28.6041 15.1629 28.3219C15.0158 28.0397 14.9382 27.717 14.9384 27.3882V19.9092C14.9383 19.5833 15.0146 19.2633 15.1592 18.9827C15.3039 18.7022 15.5116 18.4715 15.7607 18.3147L22.8905 13.8257ZM17.7882 20.4561H16.6315V26.7053H18.0084V23.496L20.202 26.7062H21.3586V20.457H19.9826V23.986L17.7882 20.4561ZM26.2489 20.4561H22.3528V26.7053H23.7582V24.9133H25.951V23.2824H23.7582V21.6433H26.2489V20.4561ZM30.8912 20.4561H26.4406V21.686H27.9672V26.7053H29.3725V21.686H30.8912V20.4561Z" fill="url(#paint1_linear_37226_22855)"/>
<defs>
<linearGradient id="paint0_linear_37226_22855" x1="2" y1="3.22858e-07" x2="48" y2="48" gradientUnits="userSpaceOnUse">
<stop stop-color="white"/>
<stop offset="0.265" stop-color="#CCCCCC" stop-opacity="0"/>
<stop offset="0.6325" stop-color="#B3B3B3" stop-opacity="0"/>
<stop offset="1" stop-color="white"/>
</linearGradient>
<linearGradient id="paint1_linear_37226_22855" x1="14.9384" y1="18.1849" x2="33.0195" y2="28.2639" gradientUnits="userSpaceOnUse">
<stop offset="0.323137" stop-color="#09B8EF"/>
<stop offset="1" stop-color="#5DFF94"/>
</linearGradient>
</defs>
</svg>
