<svg width="80" height="80" viewBox="0 0 80 80" fill="none" xmlns="http://www.w3.org/2000/svg">
<path d="M51.6127 23.1271C37.7143 13.073 19.7395 15.1321 12.0106 25.8165C4.41016 36.3238 9.00549 52.7323 23.122 62.9445C37.1614 73.1008 53.745 71.9263 61.3897 61.3582C69.1189 50.6729 65.5099 33.1806 51.6127 23.1271Z" stroke="url(#paint0_linear_43268_31003)" stroke-width="5.13687"/>
<path d="M13.3808 19.1939C1.44118 33.3434 4.52504 50.4522 21.1344 63.9321C38.2359 76.5423 56.787 73.5002 66.5379 61.0974C76.2887 48.6946 72.7124 28.0778 57.5694 17.1232C42.4264 6.16857 22.364 6.77534 13.3808 19.1939Z" fill="url(#paint1_linear_43268_31003)"/>
<path d="M56.4934 17.4504C42.1347 7.06314 23.8508 8.97117 16.1564 19.608C12.3358 24.8897 11.6545 31.5887 13.7776 38.4086C15.9067 45.2476 20.8403 52.0864 28.0083 57.2718C42.5087 67.7615 59.3887 66.7328 67.0008 56.2098C74.6955 45.5722 70.8507 27.8368 56.4934 17.4504Z" stroke="url(#paint2_linear_43268_31003)" stroke-width="5.13687"/>
<path d="M53.8719 21.2174C40.5224 11.5603 26.4779 13.8106 21.3048 20.9614C16.1319 28.1124 18.3893 42.1568 31.739 51.8141C45.0886 61.4711 59.1331 59.2198 64.3059 52.0688C69.4784 44.9177 67.221 30.8746 53.8719 21.2174Z" fill="#FFD93B" stroke="url(#paint3_linear_43268_31003)" stroke-width="14.2691"/>
<path d="M53.2945 22.1946C47.5438 18.0344 41.1708 15.9615 35.5506 15.9261C29.928 15.8908 25.1589 17.8836 22.3737 21.7337C19.5885 25.584 19.1878 30.7378 20.981 36.0672C22.7734 41.3942 26.7365 46.7986 32.4873 50.9587C38.2379 55.1188 44.6103 57.1912 50.2304 57.2266C55.8534 57.262 60.6233 55.2692 63.4086 51.4188C66.1937 47.5684 66.5933 42.4149 64.8 37.0855C63.0076 31.7585 59.0452 26.3547 53.2945 22.1946Z" stroke="url(#paint4_linear_43268_31003)" stroke-width="2.28305"/>
<g filter="url(#filter0_f_43268_31003)">
<path d="M10.3448 34.7549L6.11566 41.4948C4.80528 33.7936 7.67044 27.6296 8.79647 25.9196C9.68758 24.2491 11.3408 21.9026 13.288 19.328C18.4557 11.2487 29.3492 4.04284 46.2829 9.42363C66.4232 16.3503 73.099 32.6726 73.8152 39.88L12.0665 33.9658L10.3448 34.7549Z" fill="url(#paint5_linear_43268_31003)" fill-opacity="0.3"/>
</g>
<g clip-path="url(#clip0_43268_31003)">
<path d="M42.0997 51.7522C36.745 52.4097 30.8324 48.8567 28.8982 43.8179L25.7551 35.6299C23.8219 30.5936 26.5972 25.9743 31.9539 25.3164L40.6571 24.2477C46.0141 23.59 51.9273 27.143 53.8615 32.1817L57.0035 40.367C58.9377 45.4058 56.1618 50.0256 50.8048 50.6834L42.0997 51.7522ZM50.4344 42.0347C50.4814 41.5493 50.4083 41.0282 50.2028 40.4927L47.5783 33.6559L46.6596 32.2011C45.9639 31.4394 45.023 30.8717 44.023 30.6126C43.4563 30.465 42.8707 30.4152 42.3013 30.4851L35.0327 31.3776C34.4635 31.4475 33.9678 31.6302 33.5605 31.8973L40.6805 36.1754L43.318 37.758L50.4344 42.0347ZM47.7253 44.6098C48.2947 44.5399 48.7891 44.3599 49.1956 44.0904L39.441 38.2293L32.3257 33.9554C32.2777 34.4384 32.3516 34.9615 32.5562 35.4946L35.181 42.3324C35.3866 42.8677 35.7018 43.3584 36.1004 43.7889C36.7962 44.5506 37.7389 45.1176 38.738 45.3744C39.3054 45.5243 39.8874 45.5722 40.4567 45.5023L47.7253 44.6098Z" fill="url(#paint6_linear_43268_31003)"/>
</g>
<defs>
<filter id="filter0_f_43268_31003" x="3.49649" y="5.27945" width="72.6018" height="38.4958" filterUnits="userSpaceOnUse" color-interpolation-filters="sRGB">
<feFlood flood-opacity="0" result="BackgroundImageFix"/>
<feBlend mode="normal" in="SourceGraphic" in2="BackgroundImageFix" result="shape"/>
<feGaussianBlur stdDeviation="1.14153" result="effect1_foregroundBlur_43268_31003"/>
</filter>
<linearGradient id="paint0_linear_43268_31003" x1="11.5968" y1="21.9766" x2="55.8268" y2="71.697" gradientUnits="userSpaceOnUse">
<stop stop-color="#FDF8CE"/>
<stop offset="0.0550575" stop-color="#F2E158"/>
<stop offset="0.170676" stop-color="#FCF5AF"/>
<stop offset="0.309086" stop-color="#ECD42F"/>
<stop offset="0.491314" stop-color="#E9B00C"/>
<stop offset="0.704021" stop-color="#ECB600"/>
<stop offset="0.78935" stop-color="#E8CF29"/>
<stop offset="0.843399" stop-color="#EBD431"/>
<stop offset="0.909367" stop-color="#E2C317"/>
<stop offset="1" stop-color="#E9D14F"/>
</linearGradient>
<linearGradient id="paint1_linear_43268_31003" x1="12.3563" y1="22.2999" x2="61.2533" y2="71.6762" gradientUnits="userSpaceOnUse">
<stop stop-color="#EEBB5C"/>
<stop offset="0.0550575" stop-color="#FDEE48"/>
<stop offset="0.170676" stop-color="#E8BB06"/>
<stop offset="0.309086" stop-color="#D57B01"/>
<stop offset="0.491314" stop-color="#C86101"/>
<stop offset="0.660555" stop-color="#D88C2D"/>
<stop offset="0.771761" stop-color="#E8BE29"/>
<stop offset="0.815114" stop-color="#E8BE29"/>
<stop offset="0.881945" stop-color="#E8AE0E"/>
<stop offset="0.930202" stop-color="#D98317"/>
<stop offset="1" stop-color="#EBAE4E"/>
</linearGradient>
<linearGradient id="paint2_linear_43268_31003" x1="15.742" y1="15.7678" x2="60.8308" y2="67.0462" gradientUnits="userSpaceOnUse">
<stop stop-color="#FDF8CE"/>
<stop offset="0.0550575" stop-color="#F2E158"/>
<stop offset="0.170676" stop-color="#FCF5AF"/>
<stop offset="0.309086" stop-color="#ECD42F"/>
<stop offset="0.491314" stop-color="#E9B00C"/>
<stop offset="0.704021" stop-color="#ECB600"/>
<stop offset="0.78935" stop-color="#E8CF29"/>
<stop offset="0.843399" stop-color="#EBD431"/>
<stop offset="0.909367" stop-color="#E2C317"/>
<stop offset="1" stop-color="#E9D14F"/>
</linearGradient>
<linearGradient id="paint3_linear_43268_31003" x1="30.1035" y1="7.2366" x2="52.0346" y2="65.8719" gradientUnits="userSpaceOnUse">
<stop stop-color="#FFDC5E"/>
<stop offset="0.417119" stop-color="#FFED97"/>
<stop offset="1" stop-color="#FFF27B"/>
</linearGradient>
<linearGradient id="paint4_linear_43268_31003" x1="53.6739" y1="20.0892" x2="30.0643" y2="51.361" gradientUnits="userSpaceOnUse">
<stop stop-color="#E4991A"/>
<stop offset="0.474971" stop-color="#EAAA2E" stop-opacity="0"/>
<stop offset="1" stop-color="#FFF27B" stop-opacity="0"/>
</linearGradient>
<linearGradient id="paint5_linear_43268_31003" x1="51.3138" y1="37.2261" x2="52.216" y2="5.04796" gradientUnits="userSpaceOnUse">
<stop stop-color="white"/>
<stop offset="0.105858" stop-color="white"/>
<stop offset="0.21696" stop-color="white" stop-opacity="0.961194"/>
<stop offset="1" stop-color="white" stop-opacity="0"/>
</linearGradient>
<linearGradient id="paint6_linear_43268_31003" x1="36.306" y1="24.782" x2="39.6544" y2="52.0525" gradientUnits="userSpaceOnUse">
<stop stop-color="#F0AB39" stop-opacity="0.6"/>
<stop offset="1" stop-color="#EAA32C"/>
</linearGradient>
<clipPath id="clip0_43268_31003">
<rect width="28.3167" height="28.3167" fill="white" transform="matrix(0.992546 -0.121869 -0.358368 -0.93358 32.4016 52.9453)"/>
</clipPath>
</defs>
</svg>
