<svg width="24" height="24" viewBox="0 0 24 24" fill="none" xmlns="http://www.w3.org/2000/svg">
<path d="M15.2603 20.3928C14.9163 20.5568 14.5144 20.6788 14.0594 20.7608L7.48931 21.9109C5.29931 22.3009 4.0092 21.4009 3.6292 19.2109L2.08941 10.4608C1.69941 8.27085 2.59936 6.98085 4.78936 6.59085L6.58721 6.27481C6.79221 6.23881 6.97138 6.41784 6.93438 6.62284L5.75836 13.2809C5.22836 16.3109 6.65828 18.3508 9.67828 18.8808C9.67828 18.8808 14.8973 19.7978 15.1663 19.8498C15.4983 19.9098 15.5513 20.2638 15.2603 20.3928ZM21.9134 7.10685L20.3692 15.8608C19.9972 17.9688 18.7814 18.8698 16.7364 18.5898C16.6584 18.5788 16.5884 18.5789 16.5074 18.5649L9.94219 17.4068C7.75319 17.0208 6.85234 15.7338 7.23834 13.5448L8.58135 5.92881L8.78228 4.79081C9.16828 2.60181 10.4553 1.70083 12.6443 2.08683L19.2103 3.24485C21.3983 3.63085 22.2994 4.91885 21.9134 7.10685ZM15.5543 13.8968C15.6263 13.4888 15.3543 13.0998 14.9463 13.0278L10.8423 12.3038C10.4363 12.2308 10.0454 12.5048 9.97442 12.9118C9.90242 13.3198 10.1743 13.7089 10.5823 13.7809L14.6863 14.5049C14.7303 14.5129 14.7742 14.5158 14.8172 14.5158C15.1742 14.5168 15.4903 14.2608 15.5543 13.8968ZM18.5972 11.0358C18.6692 10.6278 18.3973 10.2388 17.9893 10.1668L11.4244 9.00882C11.0204 8.93782 10.6272 9.20986 10.5562 9.61686C10.4842 10.0249 10.7564 10.4138 11.1644 10.4858L17.7293 11.6438C17.7733 11.6518 17.8174 11.6548 17.8604 11.6548C18.2174 11.6548 18.5332 11.3988 18.5972 11.0358ZM19.2974 7.77384C19.3694 7.36584 19.0973 6.97682 18.6893 6.90482L12.1243 5.7468C11.7203 5.6748 11.3274 5.94783 11.2564 6.35483C11.1844 6.76283 11.4563 7.15185 11.8643 7.22385L18.4293 8.38181C18.4733 8.38981 18.5174 8.39286 18.5604 8.39286C18.9174 8.39386 19.2334 8.13784 19.2974 7.77384Z" fill="white"/>
</svg>
