<svg width="60" height="60" viewBox="0 0 60 60" fill="none" xmlns="http://www.w3.org/2000/svg">
<g clip-path="url(#clip0_37179_26785)">
<path d="M30 0C46.5678 0 60 13.4322 60 30C60 46.5678 46.5672 60 30 60C13.4328 60 0 46.5714 0 30C0 13.4286 13.4304 0 30 0Z" fill="#53AE94"/>
<path d="M33.7026 26.0048V21.542H43.908V14.7422H16.1184V21.542H26.325V26.0012C18.03 26.3822 11.793 28.025 11.793 29.993C11.793 31.961 18.033 33.6038 26.325 33.9872V48.2822H33.705V33.986C41.985 33.6038 48.2094 31.9622 48.2094 29.996C48.2094 28.0298 41.985 26.3882 33.705 26.006M33.705 32.7752V32.7716C33.4968 32.7848 32.427 32.849 30.045 32.849C28.1406 32.849 26.8008 32.795 26.3286 32.7704V32.7764C19.0002 32.4518 13.53 31.1756 13.53 29.6486C13.53 28.1216 19.0008 26.8472 26.3286 26.522V31.505C26.8086 31.538 28.1814 31.619 30.0762 31.619C32.352 31.619 33.4962 31.5242 33.7062 31.505V26.522C41.0202 26.8478 46.4778 28.1252 46.4778 29.6468C46.4778 31.1684 41.0178 32.4464 33.7062 32.7722" fill="white"/>
</g>
<defs>
<clipPath id="clip0_37179_26785">
<rect width="60" height="60" fill="white"/>
</clipPath>
</defs>
</svg>
