<svg width="186" height="186" viewBox="0 0 186 186" fill="none" xmlns="http://www.w3.org/2000/svg">
<mask id="mask0_3100_10443" style="mask-type:alpha" maskUnits="userSpaceOnUse" x="0" y="0" width="186" height="186">
<rect width="186" height="186" rx="8" fill="url(#paint0_radial_3100_10443)"/>
</mask>
<g mask="url(#mask0_3100_10443)">
<rect width="186" height="186" rx="8" fill="url(#paint1_radial_3100_10443)" fill-opacity="0.08"/>
<mask id="mask1_3100_10443" style="mask-type:alpha" maskUnits="userSpaceOnUse" x="10" y="62" width="166" height="102">
<ellipse cx="93.0001" cy="113.129" rx="83.0001" ry="50.8713" fill="#D9D9D9"/>
</mask>
<g mask="url(#mask1_3100_10443)">
<path fill-rule="evenodd" clip-rule="evenodd" d="M151.093 148.43C165.159 139.781 173.993 128.1 174.879 115.264C174.681 115.368 174.43 115.5 174.136 115.656C173.353 116.072 172.261 116.656 171.025 117.331C168.551 118.683 165.506 120.396 163.203 121.851C161.26 123.078 159.298 124.469 157.335 125.982C157.416 126.8 157.457 127.624 157.457 128.455C157.457 137.018 153.112 144.952 145.716 151.456C147.581 150.496 149.375 149.486 151.093 148.43ZM143.042 153.644C162.911 144.352 175.739 129.661 175.739 113.128C175.739 104.156 171.96 95.7251 165.328 88.406L165.43 88.3176L165.541 88.2205L165.534 88.2124L165.517 88.1922L165.284 87.9232C165.026 87.6261 165.026 87.6261 165.026 87.6262L164.913 87.7245L164.795 87.827C158.939 81.5581 150.973 76.1289 141.492 71.9058L141.604 71.7309L141.692 71.5933C141.692 71.5933 141.692 71.5932 141.361 71.381C141.03 71.1687 141.03 71.1687 141.03 71.1689L140.941 71.3077L140.874 71.4125L140.764 71.5851C127.272 65.7099 110.791 62.2572 92.9997 62.2572C87.3234 62.2572 81.7807 62.6086 76.4258 63.278L76.3742 63.0569L76.3356 62.8922C76.3356 62.8921 76.3356 62.892 75.9528 62.982C75.5699 63.0719 75.5701 63.0725 75.5701 63.0726L75.6084 63.236L75.6416 63.3785C65.0605 64.7674 55.2287 67.4 46.5705 71.0156L46.5088 70.9169C46.5087 70.9168 46.5087 70.9168 46.1755 71.1257C46.0291 71.2176 45.9471 71.2691 45.9011 71.2981C24.3641 80.4824 10.2607 95.7928 10.2607 113.128C10.2607 129.662 23.0887 144.353 42.9589 153.645C49.1959 158.401 57.1619 162.251 66.2633 164.827C66.7243 165.479 67.1589 166.099 67.5656 166.685C68.8333 168.512 69.8296 169.998 70.5086 171.028C70.8481 171.543 71.1083 171.944 71.2835 172.216C71.3711 172.351 71.4374 172.455 71.4818 172.525L71.5317 172.603L71.548 172.629C71.5481 172.629 71.5482 172.629 71.8807 172.419C72.2132 172.209 72.2131 172.209 72.2129 172.208L72.1958 172.182L72.1448 172.102C72.0998 172.031 72.0328 171.926 71.9446 171.789C71.768 171.516 71.5063 171.113 71.1653 170.595C70.4832 169.561 69.4834 168.069 68.2117 166.237C67.9699 165.889 67.7183 165.528 67.4572 165.156C68.9104 165.545 70.3913 165.902 71.8976 166.226C72.1327 166.845 72.3393 167.396 72.5164 167.874C72.7713 168.56 72.9651 169.093 73.0952 169.455C73.1602 169.635 73.2093 169.773 73.2421 169.865L73.279 169.969L73.291 170.003C73.2911 170.004 73.2911 170.004 73.6623 169.874C74.0335 169.744 74.0334 169.744 74.0333 169.743L74.0208 169.708L73.9833 169.602C73.9501 169.508 73.9007 169.37 73.8352 169.188C73.7043 168.825 73.5096 168.289 73.2538 167.6C73.1222 167.245 72.9745 166.85 72.811 166.417C74.426 166.747 76.0692 167.038 77.7378 167.29L77.7648 167.475L77.7986 167.708C77.9022 168.424 77.9795 168.979 78.0309 169.354C78.0567 169.542 78.0759 169.684 78.0887 169.78L78.1031 169.888L78.1077 169.924C78.1078 169.924 78.1078 169.925 78.4978 169.874C78.8877 169.823 78.8877 169.823 78.8877 169.822L78.8829 169.786L78.8683 169.676C78.8554 169.58 78.836 169.436 78.8102 169.247C78.7585 168.87 78.6809 168.314 78.5771 167.595L78.5499 167.408C80.8918 167.741 83.2823 167.994 85.7138 168.164C85.7111 168.858 85.7076 169.474 85.7038 170.004C85.6985 170.755 85.6926 171.335 85.6881 171.728C85.6859 171.925 85.684 172.074 85.6826 172.174L85.6805 172.325C85.6805 172.325 85.6805 172.325 86.0737 172.331C86.3026 172.335 86.3983 172.336 86.4382 172.337C86.4669 172.337 86.4669 172.337 86.4669 172.337L86.4691 172.185C86.4705 172.084 86.4724 171.934 86.4746 171.737C86.4791 171.343 86.485 170.762 86.4903 170.01C86.494 169.491 86.4975 168.891 86.5001 168.216C88.6377 168.349 90.806 168.416 93 168.416C94.0448 168.416 95.0838 168.401 96.1165 168.371C96.0919 168.788 96.0697 169.172 96.0498 169.519C96.0061 170.285 95.9738 170.878 95.9524 171.279C95.9417 171.48 95.9337 171.632 95.9284 171.735L95.9205 171.89C95.9205 171.89 95.9205 171.891 96.3133 171.91C96.706 171.93 96.706 171.93 96.7061 171.929L96.7139 171.776L96.7229 171.602L96.7378 171.321C96.7592 170.921 96.7914 170.329 96.8351 169.564C96.8463 169.368 96.8583 169.16 96.871 168.94L96.9059 168.344C100.951 168.194 104.895 167.813 108.705 167.222C108.602 167.933 108.514 168.562 108.439 169.1C108.339 169.827 108.264 170.389 108.214 170.771C108.189 170.962 108.17 171.107 108.158 171.205L108.144 171.315L108.14 171.351L108.139 171.353C108.139 171.353 108.139 171.353 108.53 171.401C108.92 171.45 108.92 171.449 108.92 171.449L108.924 171.413L108.938 171.304L108.952 171.196C108.963 171.11 108.977 171.002 108.994 170.873C109.043 170.493 109.118 169.932 109.218 169.208C109.301 168.611 109.401 167.902 109.519 167.092C111.125 166.829 112.707 166.528 114.262 166.191C113.619 167.846 113.103 169.213 112.725 170.231C112.48 170.893 112.293 171.407 112.167 171.755C112.104 171.93 112.056 172.063 112.024 172.152L111.988 172.254L111.977 172.286L111.976 172.288C111.976 172.288 111.976 172.288 112.347 172.419L112.678 172.535C112.718 172.549 112.718 172.549 112.718 172.549L112.718 172.548L112.721 172.541L112.73 172.516L112.765 172.416C112.797 172.328 112.844 172.196 112.906 172.022C113.032 171.676 113.218 171.164 113.463 170.504C113.876 169.392 114.455 167.858 115.186 165.986C116.791 165.621 118.367 165.218 119.909 164.778C119.431 165.412 119.022 165.96 118.688 166.412C118.343 166.878 118.078 167.241 117.899 167.487C117.809 167.61 117.741 167.704 117.696 167.767L117.644 167.839L117.631 167.857L117.626 167.863C117.626 167.864 117.626 167.864 117.946 168.093C118.266 168.322 118.266 168.321 118.266 168.321L118.267 168.32L118.283 168.298L118.333 168.227C118.379 168.165 118.446 168.072 118.535 167.949C118.713 167.705 118.977 167.344 119.32 166.88C119.794 166.24 120.418 165.404 121.178 164.406C129.68 161.839 137.136 158.148 143.042 153.644ZM142.634 152.966C139.329 154.508 135.826 155.9 132.153 157.126C139.473 152.124 143.875 145.696 143.875 138.684C143.875 138.477 143.872 138.269 143.864 138.062C147.955 133.939 152.269 129.962 156.596 126.558C156.645 127.187 156.67 127.819 156.67 128.455C156.67 137.659 151.474 146.202 142.634 152.966ZM143.088 138.849C143.012 146.18 137.859 152.975 129.207 158.062C129.054 158.108 128.9 158.154 128.746 158.2C131.724 155.556 133.415 152.542 133.428 149.343C136.394 145.931 139.657 142.347 143.088 138.849ZM132.638 149.053C132.475 149.242 132.312 149.43 132.15 149.617C129.024 153.241 126.251 156.641 123.989 159.501C121.767 160.057 119.496 160.555 117.181 160.992C118.885 156.822 121.032 151.791 123.545 146.358C124.538 144.21 125.589 141.999 126.691 139.755C130.44 142.534 132.537 145.738 132.638 149.053ZM133.364 148.22C136.347 144.808 139.622 141.235 143.062 137.755C142.761 132.643 139.994 127.815 135.302 123.674C132.325 128.737 129.554 133.967 127.044 139.04C130.696 141.716 132.961 144.851 133.364 148.22ZM126.395 138.579C128.915 133.489 131.7 128.239 134.696 123.153C132.909 121.649 130.863 120.241 128.586 118.948C126.189 117.588 123.547 116.363 120.7 115.297C118.845 121.379 117.223 127.607 115.824 133.6C119.969 134.937 123.558 136.627 126.395 138.579ZM126.043 139.29C124.916 141.582 123.844 143.838 122.831 146.028C120.218 151.677 117.999 156.893 116.262 161.162C114.298 161.518 112.303 161.829 110.28 162.095C111.096 156.958 112.289 150.076 113.885 142.402C114.426 139.802 115.012 137.112 115.646 134.369C117.659 135.021 119.535 135.756 121.252 136.564C123.045 137.408 124.647 138.321 126.043 139.29ZM114.894 134.131C114.253 136.903 113.66 139.619 113.115 142.242C111.493 150.044 110.286 157.029 109.467 162.2C105.486 162.697 101.4 163.018 97.2305 163.148L97.2373 163.043C97.6014 157.504 98.1624 149.776 98.9498 141.02C99.2297 137.906 99.5383 134.664 99.8767 131.344C105.354 131.79 110.44 132.759 114.894 134.131ZM99.0922 131.284C98.7541 134.601 98.446 137.84 98.1664 140.949C97.3783 149.713 96.8169 157.448 96.4525 162.991L96.4408 163.17C95.2997 163.199 94.1525 163.213 92.9997 163.213C90.8118 163.213 88.6443 163.161 86.5001 163.058C86.4806 157.651 86.3953 150.257 86.1381 141.899C86.0344 138.527 85.9027 134.997 85.736 131.376C88.0898 131.173 90.5176 131.067 93 131.067C95.0725 131.067 97.107 131.141 99.0922 131.284ZM99.9569 130.561C105.456 131.01 110.574 131.982 115.072 133.363C116.473 127.364 118.099 121.124 119.96 115.025C114.659 113.115 108.675 111.75 102.255 111.074C101.374 117.595 100.611 124.211 99.9569 130.561ZM99.1724 130.501C97.1599 130.356 95.0986 130.281 93 130.281C90.5073 130.281 88.0673 130.387 85.6993 130.59C85.3973 124.204 84.9856 117.554 84.4263 111.005C87.2112 110.734 90.0757 110.593 92.9999 110.593C95.8886 110.593 98.7189 110.731 101.472 110.995C100.59 117.526 99.8264 124.148 99.1724 130.501ZM84.9152 130.661C84.6135 124.275 84.2023 117.628 83.6438 111.084C77.6983 111.718 72.1286 112.942 67.1313 114.643C68.9933 120.777 70.6243 127.039 72.031 133.036C75.94 131.918 80.2839 131.104 84.9152 130.661ZM71.2751 133.258C69.8706 127.267 68.2435 121.018 66.3877 114.901C63.1231 116.056 60.1129 117.416 57.4138 118.948C55.4628 120.056 53.6812 121.248 52.0863 122.513C55.1351 127.662 57.942 132.941 60.4563 138.015C63.4075 136.135 67.0774 134.519 71.2751 133.258ZM60.8062 138.724C61.4431 140.018 62.0606 141.299 62.6579 142.558C66.1124 149.845 68.8965 156.472 70.8454 161.358C72.8545 161.702 74.895 162.001 76.9637 162.253C76.9301 162.043 76.8958 161.83 76.8606 161.614C76.0226 156.447 74.7563 149.261 73.0434 141.187C72.5506 138.864 72.021 136.468 71.4541 134.026C69.0219 134.758 66.7736 135.611 64.7475 136.564C63.3085 137.242 61.992 137.964 60.8062 138.724ZM60.1447 139.161C60.7639 140.421 61.365 141.667 61.9472 142.895C65.2878 149.942 68.0003 156.371 69.9345 161.198C67.8106 160.817 65.7227 160.385 63.6745 159.904C61.8924 157.492 59.8793 154.853 57.6822 152.107C56.3929 150.496 55.0394 148.847 53.6314 147.185C54.3768 144.306 56.6272 141.559 60.1447 139.161ZM59.7939 138.45C57.2896 133.392 54.4976 128.136 51.4688 123.014C46.9329 126.781 44.0229 131.157 43.1714 135.819C46.6372 139.246 49.9514 142.877 53.0187 146.465C53.9559 143.518 56.3297 140.792 59.7939 138.45ZM52.7736 147.39C49.7363 143.819 46.4553 140.202 43.0254 136.783C42.9495 137.412 42.911 138.046 42.911 138.684C42.911 146.078 48.0768 152.938 56.793 158.062C56.9464 158.108 57.1001 158.154 57.2541 158.2C54.2646 155.546 52.5714 152.518 52.5714 149.305C52.5714 148.658 52.6399 148.02 52.7736 147.39ZM53.4357 148.172C53.384 148.548 53.3579 148.926 53.3579 149.305C53.3579 152.668 55.4152 155.926 59.1707 158.751C60.2621 159.054 61.3664 159.343 62.4829 159.618C60.8478 157.421 59.0316 155.053 57.0681 152.599C55.906 151.146 54.6929 149.665 53.4357 148.172ZM62.9047 161.117C62.2845 160.783 61.6916 160.44 61.1272 160.088C61.8177 160.266 62.513 160.437 63.2129 160.603C63.442 160.914 63.6671 161.221 63.8882 161.524C63.5574 161.39 63.2295 161.255 62.9047 161.117ZM124.873 160.088C124.656 160.223 124.436 160.357 124.211 160.489C124.287 160.393 124.363 160.296 124.44 160.198C124.585 160.162 124.729 160.125 124.873 160.088ZM126.83 158.751C130.204 156.212 132.207 153.324 132.579 150.324C129.818 153.53 127.339 156.555 125.25 159.178C125.779 159.039 126.306 158.896 126.83 158.751ZM62.5672 161.829C60.3963 160.907 58.3593 159.89 56.4759 158.788C53.0405 157.747 49.7396 156.564 46.5936 155.251C47.0018 155.519 47.4162 155.783 47.8366 156.043C52.9413 159.208 58.9186 161.843 65.5305 163.796C65.3469 163.539 65.1596 163.278 64.9688 163.013C64.1329 162.635 63.3316 162.239 62.5672 161.829ZM66.3701 163.619C66.4967 163.796 66.6214 163.972 66.7443 164.145C67.9535 164.483 69.183 164.799 70.4313 165.091C69.0109 164.64 67.6546 164.148 66.3701 163.619ZM115.569 165.091C117.32 164.681 119.034 164.225 120.707 163.726C120.919 163.448 121.14 163.158 121.372 162.857C119.591 163.683 117.649 164.431 115.569 165.091ZM122.972 162.072C122.736 162.376 122.508 162.671 122.288 162.956L122.131 163.161L122.002 163.328C128.007 161.43 133.456 158.962 138.163 156.043C138.584 155.783 138.999 155.518 139.407 155.25C136.261 156.563 132.96 157.746 129.525 158.787C127.641 159.89 125.604 160.907 123.433 161.828C123.281 161.91 123.127 161.991 122.972 162.072ZM72.21 133.803C72.7822 136.267 73.3163 138.683 73.8129 141.023C75.529 149.113 76.7975 156.312 77.637 161.488C77.6846 161.782 77.7308 162.069 77.7757 162.349C80.3799 162.648 83.0279 162.873 85.7134 163.018C85.6936 157.62 85.6082 150.251 85.352 141.923C85.2486 138.564 85.1176 135.05 84.9519 131.448C80.3628 131.888 76.0669 132.697 72.21 133.803ZM135.709 122.986C140.376 127.069 143.276 131.863 143.792 137.02C147.88 132.928 152.186 128.992 156.506 125.63C155.722 118.9 152.157 112.599 146.448 107.186C142.665 111.925 139.059 117.342 135.709 122.986ZM145.871 106.648C142.074 111.399 138.459 116.822 135.102 122.467C131.342 119.328 126.52 116.632 120.931 114.544C122.98 107.907 125.308 101.464 127.927 95.7104C131.627 97.2098 135.057 98.9396 138.163 100.866C141.026 102.64 143.607 104.577 145.871 106.648ZM127.196 95.4185C124.572 101.187 122.241 107.637 120.191 114.273C114.841 112.348 108.815 110.975 102.361 110.294C103.321 103.27 104.419 96.3736 105.666 90.0564C113.456 91.0265 120.725 92.8731 127.196 95.4185ZM104.883 89.962C103.635 96.2891 102.538 103.19 101.578 110.215C98.7891 109.946 95.9233 109.806 92.9999 109.806C90.0543 109.806 87.1672 109.948 84.3587 110.221C83.741 103.148 82.9489 96.2103 81.9342 89.8703C85.527 89.4818 89.2244 89.2791 93 89.2791C97.0624 89.2791 101.034 89.5138 104.883 89.962ZM81.1517 89.958C82.1664 96.2902 82.9585 103.226 83.5761 110.301C77.5812 110.938 71.9567 112.172 66.9015 113.89C64.8613 107.249 62.549 100.777 59.9559 94.9758C66.3623 92.5726 73.514 90.8448 81.1517 89.958ZM59.2198 95.2562C61.8085 101.042 64.1187 107.507 66.1579 114.148C60.4918 116.149 55.5697 118.766 51.681 121.832C48.3359 116.236 44.7063 110.813 40.8576 105.996C42.9418 104.169 45.2769 102.453 47.8366 100.866C51.2621 98.7419 55.0804 96.8568 59.2198 95.2562ZM42.4997 135.159C43.5122 130.437 46.533 126.066 51.0626 122.331C47.7237 116.738 44.1038 111.322 40.2698 106.52C34.4976 111.757 30.7627 117.866 29.6663 124.415C34.0423 127.415 38.3729 131.133 42.4997 135.159ZM29.537 125.281C33.8953 128.305 38.2123 132.046 42.3268 136.091C42.1929 136.945 42.1244 137.81 42.1244 138.684C42.1244 145.696 46.5266 152.124 53.8477 157.126C50.1745 155.901 46.672 154.509 43.3671 152.967C34.5266 146.203 29.3298 137.659 29.3298 128.455C29.3298 127.387 29.3997 126.329 29.537 125.281ZM65.2442 162.051C67.0835 162.742 69.0088 163.366 71.0095 163.918C70.7815 163.333 70.5374 162.712 70.2776 162.058L70.2774 162.057C68.283 161.708 66.3192 161.314 64.3893 160.876C64.6812 161.275 64.9662 161.667 65.2442 162.051ZM71.9516 164.17C73.7314 164.635 75.5681 165.043 77.4545 165.39C77.3472 164.685 77.2266 163.906 77.0926 163.061C75.0969 162.822 73.1268 162.538 71.1852 162.213C71.4594 162.906 71.715 163.56 71.9516 164.17ZM78.2721 165.536C80.681 165.953 83.1679 166.271 85.7179 166.48C85.7189 165.662 85.7184 164.768 85.7159 163.805C83.0744 163.664 80.4684 163.446 77.9039 163.155C78.0411 164.024 78.1638 164.82 78.2721 165.536ZM92.9999 166.776C94.0804 166.776 95.1526 166.757 96.2157 166.719C96.2667 165.886 96.3246 164.963 96.3895 163.958C95.2652 163.986 94.1351 164 92.9997 164C90.8131 164 88.6464 163.948 86.5026 163.845C86.505 164.817 86.5054 165.718 86.5044 166.541C88.63 166.696 90.798 166.776 92.9999 166.776ZM97.0057 166.687C101.165 166.502 105.179 166.03 108.987 165.308C109.094 164.595 109.212 163.827 109.34 163.008C105.381 163.495 101.32 163.809 97.1791 163.936C97.1144 164.936 97.0566 165.856 97.0057 166.687ZM109.807 165.148C111.649 164.778 113.441 164.35 115.175 163.866C115.409 163.277 115.656 162.662 115.913 162.024C114.02 162.359 112.098 162.653 110.152 162.905L110.13 163.047C110.014 163.789 109.906 164.491 109.807 165.148ZM116.131 163.593C118.371 162.935 120.512 162.184 122.537 161.35C122.751 161.075 122.972 160.793 123.198 160.505C121.115 161.007 118.99 161.459 116.829 161.858C116.586 162.457 116.353 163.035 116.131 163.593ZM157.229 125.072C159.086 123.656 160.942 122.349 162.783 121.186C165.108 119.717 168.171 117.994 170.648 116.641C171.888 115.964 172.982 115.378 173.767 114.962C174.16 114.753 174.475 114.588 174.692 114.474L174.928 114.35C174.944 113.944 174.952 113.537 174.952 113.128C174.952 104.391 171.27 96.1304 164.737 88.9241C164.505 89.1285 164.227 89.3735 163.911 89.6539C162.897 90.5533 161.486 91.8169 159.899 93.2735C156.723 96.189 152.853 99.8695 150.05 102.949C149.002 104.1 147.966 105.31 146.942 106.571C152.653 111.971 156.311 118.28 157.229 125.072ZM146.365 106.035C147.387 104.777 148.422 103.569 149.468 102.42C152.296 99.3127 156.188 95.6126 159.367 92.6941C160.958 91.2338 162.372 89.9671 163.389 89.0654C163.7 88.7896 163.974 88.5479 164.204 88.3453C160.609 84.5 156.195 80.964 151.093 77.8271C147.99 75.9192 144.637 74.1625 141.066 72.5772C140.883 72.8674 140.663 73.2161 140.412 73.6153C139.618 74.8806 138.516 76.6532 137.283 78.6825C134.816 82.7434 131.832 87.823 129.75 91.9195C129.242 92.9184 128.744 93.9446 128.256 94.9951C135.406 97.8965 141.568 101.655 146.365 106.035ZM127.525 94.7026C128.022 93.6303 128.53 92.5827 129.048 91.5631C131.145 87.4387 134.142 82.3381 136.611 78.2741C137.846 76.2409 138.951 74.4649 139.746 73.1971C139.969 72.8423 140.168 72.5272 140.338 72.2575C131.82 68.5615 122.095 65.8331 111.591 64.3409L111.514 64.6551C111.426 65.0185 111.296 65.5474 111.136 66.2093C110.814 67.5331 110.365 69.3888 109.856 71.5165C108.838 75.7724 107.581 81.1143 106.623 85.4631C106.349 86.708 106.081 87.9826 105.82 89.283C113.665 90.2646 120.994 92.1293 127.525 94.7026ZM105.037 89.1882C105.303 87.8623 105.575 86.5628 105.855 85.294C106.814 80.938 108.073 75.5906 109.091 71.3335C109.6 69.2047 110.049 67.348 110.371 66.0235C110.532 65.3612 110.661 64.832 110.75 64.4683L110.808 64.2321C105.076 63.4542 99.1174 63.0437 92.9997 63.0437C87.3833 63.0437 81.9006 63.3897 76.6047 64.0483C76.6853 64.3965 76.7821 64.816 76.8924 65.2968C77.2368 66.7978 77.7134 68.8964 78.242 71.2876C79.299 76.0684 80.5656 82.024 81.4004 86.7092C81.54 87.493 81.6759 88.2879 81.8081 89.0928C85.4431 88.6983 89.1828 88.4926 93 88.4926C97.1136 88.4926 101.137 88.7315 105.037 89.1882ZM81.0255 89.1809C80.8959 88.3929 80.7628 87.6146 80.6261 86.8471C79.7943 82.1788 78.5306 76.2363 77.474 71.4574C76.9459 69.0687 76.4698 66.9721 76.1258 65.4727C76.0073 64.9562 75.9044 64.5106 75.8205 64.1483C65.3218 65.5199 55.5728 68.1222 46.9915 71.6923C47.188 72.0092 47.4392 72.4156 47.7351 72.8969C48.4956 74.1343 49.5515 75.8676 50.7331 77.851C53.0949 81.8157 55.9641 86.7885 57.9797 90.8006C58.5423 91.9206 59.093 93.0743 59.6318 94.2573C66.1046 91.8244 73.3235 90.078 81.0255 89.1809ZM58.8955 94.5383C58.3674 93.3801 57.8278 92.2505 57.2768 91.1537C55.2746 87.1681 52.4174 82.2152 50.0574 78.2536C48.878 76.2739 47.8241 74.5438 47.065 73.3088C46.7357 72.7731 46.462 72.3305 46.2576 72.0012C42.1893 73.7335 38.3903 75.685 34.9064 77.8271C29.9742 80.8596 25.6853 84.265 22.1569 87.9624C22.3765 88.143 22.6758 88.3899 23.0391 88.6915C23.8485 89.3633 24.9757 90.3064 26.2476 91.3917C28.7893 93.5607 31.9157 96.3041 34.2353 98.5867C36.3295 100.648 38.3755 102.933 40.3643 105.383C45.313 101.051 51.6179 97.3571 58.8955 94.5383ZM39.7763 105.906C37.7981 103.467 35.7642 101.195 33.6836 99.1473C31.3849 96.8852 28.2761 94.1567 25.737 91.99C24.4685 90.9075 23.344 89.9668 22.5368 89.2967C22.1517 88.9771 21.8389 88.7191 21.617 88.5368C14.8633 95.8338 11.0473 104.234 11.0473 113.128C11.0473 126.801 20.0636 139.304 34.9064 148.43C36.6245 149.486 38.4192 150.496 40.285 151.457C32.8879 144.952 28.5433 137.018 28.5433 128.455C28.5433 127.217 28.634 125.993 28.8115 124.784C27.6635 124.01 26.5134 123.287 25.3639 122.622C22.7428 121.107 19.2558 119.395 16.4172 118.059C14.9993 117.391 13.7459 116.819 12.8469 116.413C12.3975 116.211 12.0368 116.05 11.7885 115.94C11.6644 115.884 11.5684 115.842 11.5035 115.813L11.4054 115.77C11.4053 115.77 11.405 115.77 11.5629 115.41C11.7208 115.05 11.7208 115.05 11.7209 115.05L11.8209 115.094C11.8864 115.123 11.983 115.165 12.1077 115.221C12.3572 115.331 12.7194 115.493 13.1703 115.696C14.0722 116.103 15.3296 116.678 16.7522 117.347C19.5944 118.685 23.1063 120.409 25.7575 121.941C26.8229 122.557 27.8883 123.222 28.9516 123.931C30.1574 117.295 33.9847 111.151 39.7763 105.906Z" fill="url(#paint2_radial_3100_10443)"/>
<ellipse cx="92.9999" cy="157.989" rx="25.9101" ry="9.5955" fill="url(#paint3_radial_3100_10443)"/>
</g>
<g filter="url(#filter0_b_3100_10443)">
<ellipse cx="19.6214" cy="19.3684" rx="19.6214" ry="19.3684" transform="matrix(-0.132501 0.991183 -0.94769 -0.319193 50.6221 94.8091)" fill="url(#paint4_linear_3100_10443)"/>
<path d="M27.1334 127.028C17.2636 123.704 10.3855 112.526 11.7856 102.053C13.1857 91.5792 22.3308 85.7982 32.2006 89.1225C42.0704 92.4468 48.9485 103.625 47.5484 114.098C46.1483 124.571 37.0032 130.352 27.1334 127.028Z" stroke="url(#paint5_linear_3100_10443)"/>
</g>
<g filter="url(#filter1_b_3100_10443)">
<circle cx="19.3684" cy="19.3684" r="19.3684" transform="matrix(-0.132501 0.991183 -0.94769 -0.319193 51.9531 93)" fill="url(#paint6_linear_3100_10443)"/>
<circle cx="19.3684" cy="19.3684" r="18.8684" transform="matrix(-0.132501 0.991183 -0.94769 -0.319193 51.9531 93)" stroke="url(#paint7_linear_3100_10443)"/>
</g>
<path d="M26.5766 107.352C26.7315 106.838 28.157 107.305 28.157 107.305C28.157 107.305 29.4506 109.403 31.4299 110.433C31.3052 111.365 33.3811 112.667 34.2636 111.989C35.055 112.297 40.3631 115.297 41.1483 109.423C41.9335 103.549 36.3153 102.869 35.5127 102.639C34.8798 101.451 32.6497 101.302 32.525 102.235C30.453 101.899 28.7339 102.983 28.7339 102.983C28.7339 102.983 27.3117 102.491 27.3017 101.922C27.2695 100.089 25.3937 92.6492 22.3811 91.6345L20.9142 102.608L19.4473 113.581C22.4599 114.596 26.0773 109.007 26.5766 107.352Z" fill="url(#paint8_linear_3100_10443)"/>
<g filter="url(#filter2_b_3100_10443)">
<ellipse cx="14.3308" cy="15.2404" rx="14.3308" ry="15.2404" transform="matrix(0.97437 -0.224951 0.422618 0.906308 94.917 123.624)" fill="url(#paint9_linear_3100_10443)"/>
<path d="M128.798 131.102C132.251 138.507 128.966 145.86 121.551 147.572C114.136 149.284 105.298 144.729 101.845 137.324C98.3921 129.919 101.677 122.566 109.092 120.854C116.507 119.142 125.345 123.697 128.798 131.102Z" stroke="url(#paint10_linear_3100_10443)"/>
</g>
<g filter="url(#filter3_b_3100_10443)">
<ellipse cx="14.146" cy="15.2404" rx="14.146" ry="15.2404" transform="matrix(0.97437 -0.224951 0.422618 0.906308 93 123.198)" fill="url(#paint11_linear_3100_10443)"/>
<path d="M126.52 130.759C129.976 138.169 126.764 145.5 119.454 147.188C112.144 148.875 103.384 144.309 99.9281 136.898C96.4725 129.488 99.685 122.157 106.995 120.469C114.304 118.782 123.065 123.348 126.52 130.759Z" stroke="url(#paint12_linear_3100_10443)"/>
</g>
<path d="M116.609 136.458C116.191 136.486 115.683 135.416 115.683 135.416C115.683 135.416 116.297 134.019 115.835 132.437C116.505 132.282 116.163 130.567 115.227 130.151C114.976 129.545 113.892 125.242 109.674 126.216C105.457 127.189 108.207 131.108 108.514 131.702C108.111 132.426 109.28 133.951 109.949 133.797C110.909 135.263 112.581 136.133 112.581 136.133C112.581 136.133 113.071 137.207 112.711 137.358C111.552 137.847 107.839 140.994 108.896 143.261L116.775 141.442L124.653 139.623C123.596 137.356 117.955 136.369 116.609 136.458Z" fill="url(#paint13_linear_3100_10443)"/>
<g filter="url(#filter4_b_3100_10443)">
<ellipse cx="28.1336" cy="27.7708" rx="28.1336" ry="27.7708" transform="matrix(0.920505 -0.390731 0.173648 0.984808 68.7588 41.9878)" fill="url(#paint14_linear_3100_10443)"/>
<path d="M124.915 47.5467C127.529 62.3731 118.268 79.2349 104.214 85.2005C90.1597 91.1661 76.6557 83.9678 74.0414 69.1413C71.4271 54.3149 80.6887 37.4531 94.7428 31.4875C108.797 25.5219 122.301 32.7203 124.915 47.5467Z" stroke="url(#paint15_linear_3100_10443)"/>
</g>
<g filter="url(#filter5_b_3100_10443)">
<circle cx="27.7708" cy="27.7708" r="27.7708" transform="matrix(0.920505 -0.390731 0.173648 0.984808 65.6084 41.6559)" fill="url(#paint16_linear_3100_10443)"/>
<circle cx="27.7708" cy="27.7708" r="27.2708" transform="matrix(0.920505 -0.390731 0.173648 0.984808 65.6084 41.6559)" stroke="url(#paint17_linear_3100_10443)"/>
</g>
<path d="M100.684 62.7172C99.9409 62.9005 99.5501 60.786 99.5501 60.786C99.5501 60.786 101.273 57.6423 101.203 54.4278C102.445 53.9007 102.648 50.3666 101.206 49.7653C101.049 48.5562 101.158 39.7605 93.3364 43.0805C85.5149 46.4005 88.4949 53.8849 88.7555 55.0513C87.7126 56.7074 89.0454 59.5898 90.2874 59.0626C91.2809 61.8849 93.7964 63.2295 93.7964 63.2295C93.7964 63.2295 94.1538 65.3582 93.4542 65.7871C91.2017 67.1682 83.2491 74.9425 84.0406 79.4313L98.6524 73.2289L113.264 67.0266C112.473 62.5378 103.077 62.1274 100.684 62.7172Z" fill="url(#paint18_linear_3100_10443)"/>
</g>
<defs>
<filter id="filter0_b_3100_10443" x="-24.874" y="51.6624" width="109.082" height="112.826" filterUnits="userSpaceOnUse" color-interpolation-filters="sRGB">
<feFlood flood-opacity="0" result="BackgroundImageFix"/>
<feGaussianBlur in="BackgroundImageFix" stdDeviation="18"/>
<feComposite in2="SourceAlpha" operator="in" result="effect1_backgroundBlur_3100_10443"/>
<feBlend mode="normal" in="SourceGraphic" in2="effect1_backgroundBlur_3100_10443" result="shape"/>
</filter>
<filter id="filter1_b_3100_10443" x="-23.5049" y="49.8414" width="109.072" height="112.348" filterUnits="userSpaceOnUse" color-interpolation-filters="sRGB">
<feFlood flood-opacity="0" result="BackgroundImageFix"/>
<feGaussianBlur in="BackgroundImageFix" stdDeviation="18"/>
<feComposite in2="SourceAlpha" operator="in" result="effect1_backgroundBlur_3100_10443"/>
<feBlend mode="normal" in="SourceGraphic" in2="effect1_backgroundBlur_3100_10443" result="shape"/>
</filter>
<filter id="filter2_b_3100_10443" x="63.9404" y="84.0261" width="102.762" height="100.374" filterUnits="userSpaceOnUse" color-interpolation-filters="sRGB">
<feFlood flood-opacity="0" result="BackgroundImageFix"/>
<feGaussianBlur in="BackgroundImageFix" stdDeviation="18"/>
<feComposite in2="SourceAlpha" operator="in" result="effect1_backgroundBlur_3100_10443"/>
<feBlend mode="normal" in="SourceGraphic" in2="effect1_backgroundBlur_3100_10443" result="shape"/>
</filter>
<filter id="filter3_b_3100_10443" x="62.0068" y="83.6511" width="102.436" height="100.355" filterUnits="userSpaceOnUse" color-interpolation-filters="sRGB">
<feFlood flood-opacity="0" result="BackgroundImageFix"/>
<feGaussianBlur in="BackgroundImageFix" stdDeviation="18"/>
<feComposite in2="SourceAlpha" operator="in" result="effect1_backgroundBlur_3100_10443"/>
<feBlend mode="normal" in="SourceGraphic" in2="effect1_backgroundBlur_3100_10443" result="shape"/>
</filter>
<filter id="filter4_b_3100_10443" x="37.1309" y="-7.13924" width="124.694" height="130.967" filterUnits="userSpaceOnUse" color-interpolation-filters="sRGB">
<feFlood flood-opacity="0" result="BackgroundImageFix"/>
<feGaussianBlur in="BackgroundImageFix" stdDeviation="18"/>
<feComposite in2="SourceAlpha" operator="in" result="effect1_backgroundBlur_3100_10443"/>
<feBlend mode="normal" in="SourceGraphic" in2="effect1_backgroundBlur_3100_10443" result="shape"/>
</filter>
<filter id="filter5_b_3100_10443" x="33.9756" y="-7.27678" width="124.037" height="130.861" filterUnits="userSpaceOnUse" color-interpolation-filters="sRGB">
<feFlood flood-opacity="0" result="BackgroundImageFix"/>
<feGaussianBlur in="BackgroundImageFix" stdDeviation="18"/>
<feComposite in2="SourceAlpha" operator="in" result="effect1_backgroundBlur_3100_10443"/>
<feBlend mode="normal" in="SourceGraphic" in2="effect1_backgroundBlur_3100_10443" result="shape"/>
</filter>
<radialGradient id="paint0_radial_3100_10443" cx="0" cy="0" r="1" gradientUnits="userSpaceOnUse" gradientTransform="translate(93 93) rotate(90) scale(93)">
<stop stop-color="#D9D9D9"/>
<stop offset="1" stop-color="#737373" stop-opacity="0.07"/>
</radialGradient>
<radialGradient id="paint1_radial_3100_10443" cx="0" cy="0" r="1" gradientUnits="userSpaceOnUse" gradientTransform="translate(93 93) rotate(90) scale(93)">
<stop stop-color="#00AA51"/>
<stop offset="1" stop-color="#0D1116"/>
</radialGradient>
<radialGradient id="paint2_radial_3100_10443" cx="0" cy="0" r="1" gradientUnits="userSpaceOnUse" gradientTransform="translate(85.8092 144.425) rotate(89.076) scale(51.1068 70.5792)">
<stop stop-color="white" stop-opacity="0.3"/>
<stop offset="0.0001" stop-color="#FEFEFE" stop-opacity="0.54"/>
<stop offset="1" stop-color="#999999" stop-opacity="0.26"/>
</radialGradient>
<radialGradient id="paint3_radial_3100_10443" cx="0" cy="0" r="1" gradientUnits="userSpaceOnUse" gradientTransform="translate(92.9999 160.257) rotate(90) scale(9.25681 24.9955)">
<stop stop-color="#00AA51"/>
<stop offset="1" stop-color="#141414" stop-opacity="0.39"/>
</radialGradient>
<linearGradient id="paint4_linear_3100_10443" x1="19.6214" y1="0" x2="19.6214" y2="38.7368" gradientUnits="userSpaceOnUse">
<stop stop-color="#1D987A" stop-opacity="0.15"/>
<stop offset="1" stop-color="#16BE66" stop-opacity="0.3"/>
</linearGradient>
<linearGradient id="paint5_linear_3100_10443" x1="48.0222" y1="114.258" x2="10.3324" y2="109.219" gradientUnits="userSpaceOnUse">
<stop stop-color="#00C165" stop-opacity="0.32"/>
<stop offset="1" stop-color="#029785" stop-opacity="0"/>
</linearGradient>
<linearGradient id="paint6_linear_3100_10443" x1="19.3684" y1="0" x2="19.3684" y2="38.7368" gradientUnits="userSpaceOnUse">
<stop stop-color="#1D987A" stop-opacity="0.15"/>
<stop offset="1" stop-color="#16BE66" stop-opacity="0.3"/>
</linearGradient>
<linearGradient id="paint7_linear_3100_10443" x1="19.3684" y1="0" x2="19.3684" y2="38.7368" gradientUnits="userSpaceOnUse">
<stop stop-color="#00C165" stop-opacity="0.32"/>
<stop offset="1" stop-color="#029785" stop-opacity="0"/>
</linearGradient>
<linearGradient id="paint8_linear_3100_10443" x1="39.8796" y1="100.836" x2="21.8516" y2="105.927" gradientUnits="userSpaceOnUse">
<stop stop-color="#33B394"/>
<stop offset="1" stop-color="#02C98D" stop-opacity="0.61"/>
</linearGradient>
<linearGradient id="paint9_linear_3100_10443" x1="14.3308" y1="0" x2="14.3308" y2="30.4808" gradientUnits="userSpaceOnUse">
<stop stop-color="#1D987A" stop-opacity="0.15"/>
<stop offset="1" stop-color="#16BE66" stop-opacity="0.3"/>
</linearGradient>
<linearGradient id="paint10_linear_3100_10443" x1="108.88" y1="120.401" x2="115.587" y2="149.451" gradientUnits="userSpaceOnUse">
<stop stop-color="#00C165" stop-opacity="0.32"/>
<stop offset="1" stop-color="#029785" stop-opacity="0"/>
</linearGradient>
<linearGradient id="paint11_linear_3100_10443" x1="14.146" y1="0" x2="14.146" y2="30.4808" gradientUnits="userSpaceOnUse">
<stop stop-color="#1D987A" stop-opacity="0.15"/>
<stop offset="1" stop-color="#16BE66" stop-opacity="0.3"/>
</linearGradient>
<linearGradient id="paint12_linear_3100_10443" x1="106.783" y1="120.016" x2="113.49" y2="149.067" gradientUnits="userSpaceOnUse">
<stop stop-color="#00C165" stop-opacity="0.32"/>
<stop offset="1" stop-color="#029785" stop-opacity="0"/>
</linearGradient>
<linearGradient id="paint13_linear_3100_10443" x1="104.88" y1="129.25" x2="116.403" y2="141.783" gradientUnits="userSpaceOnUse">
<stop stop-color="#33B394"/>
<stop offset="1" stop-color="#02C98D" stop-opacity="0.61"/>
</linearGradient>
<linearGradient id="paint14_linear_3100_10443" x1="28.1336" y1="0" x2="28.1336" y2="55.5416" gradientUnits="userSpaceOnUse">
<stop stop-color="#1D987A" stop-opacity="0.15"/>
<stop offset="1" stop-color="#16BE66" stop-opacity="0.3"/>
</linearGradient>
<linearGradient id="paint15_linear_3100_10443" x1="94.6559" y1="30.9951" x2="115.802" y2="80.8111" gradientUnits="userSpaceOnUse">
<stop stop-color="#00C165" stop-opacity="0.32"/>
<stop offset="1" stop-color="#029785" stop-opacity="0"/>
</linearGradient>
<linearGradient id="paint16_linear_3100_10443" x1="27.7708" y1="0" x2="27.7708" y2="55.5416" gradientUnits="userSpaceOnUse">
<stop stop-color="#1D987A" stop-opacity="0.15"/>
<stop offset="1" stop-color="#16BE66" stop-opacity="0.3"/>
</linearGradient>
<linearGradient id="paint17_linear_3100_10443" x1="27.7708" y1="0" x2="27.7708" y2="55.5416" gradientUnits="userSpaceOnUse">
<stop stop-color="#00C165" stop-opacity="0.32"/>
<stop offset="1" stop-color="#029785" stop-opacity="0"/>
</linearGradient>
<linearGradient id="paint18_linear_3100_10443" x1="83.5471" y1="50.9392" x2="102.482" y2="69.2746" gradientUnits="userSpaceOnUse">
<stop stop-color="#33B394"/>
<stop offset="1" stop-color="#02C98D" stop-opacity="0.61"/>
</linearGradient>
</defs>
</svg>
