<svg width="186" height="186" viewBox="0 0 186 186" fill="none" xmlns="http://www.w3.org/2000/svg">
<mask id="mask0_3100_10480" style="mask-type:alpha" maskUnits="userSpaceOnUse" x="0" y="0" width="186" height="186">
<rect width="186" height="186" rx="8" fill="url(#paint0_radial_3100_10480)"/>
</mask>
<g mask="url(#mask0_3100_10480)">
<rect width="186" height="186" rx="8" fill="url(#paint1_radial_3100_10480)" fill-opacity="0.18"/>
<path fill-rule="evenodd" clip-rule="evenodd" d="M77.9983 93.3941L77.9982 93.3942L77.5622 93.3175L77.9983 93.3941ZM77.8546 93.628L77.5622 93.3175L77.8547 93.6278L77.8546 93.628ZM77.5545 94.0018C77.6148 93.9477 77.6677 93.8997 77.713 93.8585L77.5106 94.1879L91.7719 102.949L78.0655 111.322L64.2041 101.738C67.3139 101.215 70.6643 99.2557 73.2387 97.4371C74.6004 96.4752 75.765 95.538 76.5892 94.8413C77.0016 94.4928 77.3293 94.204 77.5545 94.0018ZM77.132 111.892L62.6527 101.882C59.2515 101.951 55.3946 100.567 52.3325 99.1384C50.7401 98.3957 49.34 97.6302 48.2982 97.0241L62.6746 120.698L62.6963 120.711L77.132 111.892ZM63.6694 121.288L78.0318 112.515L78.1715 112.611L93.3134 120.497L80.1288 131L79.9194 130.931L63.6694 121.288ZM61.8328 121.238L46.7087 96.3332C46.494 96.7137 46.1925 97.2438 45.8176 97.892C45.0184 99.274 43.8855 101.193 42.5503 103.342C39.884 107.635 36.396 112.869 33.1413 116.572C32.998 116.735 32.8515 116.899 32.702 117.064L48.6694 129.279L61.8328 121.238ZM51.4843 128.732L62.7038 121.878L75.4771 129.458L62.132 125.032L61.6491 125.767L51.4843 128.732ZM47.7543 129.838L32.0742 117.843L32.5009 117.285C29.783 120.255 26.1626 123.525 23.146 126.113C21.5133 127.514 20.0527 128.719 19.0002 129.574C18.5728 129.922 18.2126 130.211 17.9354 130.433C18.183 130.549 18.4876 130.694 18.8403 130.862C19.8587 131.348 21.2783 132.034 22.8833 132.834C26.0895 134.431 30.0492 136.49 33.0273 138.319C33.1689 138.405 33.3083 138.492 33.4458 138.579L47.7543 129.838ZM34.3762 139.182L48.6059 130.49L48.7223 130.579L60.8023 127.055L46.9064 148.201L46.8804 148.188C43.9841 146.653 41.9619 145.077 39.9429 143.436C39.75 143.28 39.557 143.122 39.3632 142.964L39.3599 142.961C37.8592 141.737 36.3106 140.474 34.3762 139.182ZM79.007 111.919L92.7283 103.537L105.129 111.155L94.1635 119.813L79.007 111.919ZM93.6806 102.948L105.965 110.495L106.322 110.214L119.101 84.6562L119.662 84.9368C119.58 84.8047 119.497 84.6734 119.413 84.543C117.61 81.7178 116.394 78.6841 115.383 75.6982C114.949 74.4148 114.557 73.1567 114.174 71.927C113.655 70.2615 113.153 68.6479 112.582 67.0938C111.601 64.42 110.458 62.0462 108.794 60.1617C107.385 58.5644 105.588 57.3035 103.162 56.5212L93.6806 102.948ZM102.198 56.2442C102.082 56.2147 101.965 56.1863 101.846 56.1588C97.8181 55.2278 94.3313 56.9589 91.313 60.2285C88.2872 63.5064 85.7983 68.2689 83.8237 73.2009C81.8525 78.1245 80.4096 83.1763 79.4591 87.0011C78.9841 88.9125 78.6326 90.5152 78.4 91.6394C78.2838 92.2014 78.1972 92.6437 78.1398 92.9449C78.1112 93.0955 78.0898 93.2109 78.0756 93.2883L78.0637 93.3541L92.7298 102.364L92.7863 102.33L102.198 56.2442ZM62.5962 100.627L62.949 100.871C63.1762 100.859 63.4003 100.84 63.6209 100.813C66.5931 100.45 69.976 98.5176 72.6617 96.6204C73.9941 95.6792 75.1355 94.7608 75.9437 94.0776C76.3476 93.7362 76.6678 93.454 76.8864 93.2577C76.9745 93.1786 77.0462 93.1134 77.1001 93.064C77.1142 92.9872 77.1334 92.8846 77.1575 92.7578C77.2158 92.4517 77.3034 92.0043 77.4208 91.4368C77.6556 90.3018 78.0099 88.686 78.4886 86.7599C79.4454 82.9097 80.9011 77.8103 82.8953 72.8292C84.8862 67.8566 87.4296 62.9611 90.5782 59.5502C93.7344 56.1311 97.5643 54.1428 102.071 55.1845C105.379 55.9492 107.75 57.4675 109.544 59.5C111.328 61.5217 112.523 64.0312 113.521 66.7492C114.094 68.3091 114.614 69.9796 115.144 71.6769L115.144 71.6772L115.144 71.6778C115.527 72.9075 115.915 74.1514 116.33 75.3775C117.33 78.332 118.516 81.2786 120.256 84.005C122.61 87.6925 124.685 92.0908 126.639 96.2345L126.64 96.2348C127.523 98.1083 128.383 99.9298 129.232 101.61C130.607 104.33 131.954 106.679 133.344 108.343C134.054 109.194 134.756 109.842 135.457 110.273L135.627 110.142L135.925 110.528C136.448 110.777 136.972 110.904 137.501 110.904H154.116C155.051 110.904 155.982 111.252 156.876 111.812C157.772 112.372 158.66 113.161 159.52 114.087C161.239 115.939 162.898 118.392 164.34 120.823C165.784 123.258 167.023 125.691 167.9 127.513C168.339 128.424 168.688 129.184 168.927 129.717C169.047 129.983 169.139 130.192 169.202 130.335L169.247 130.44L169.273 130.5L169.291 130.542L169.296 130.553L169.297 130.557L169.488 131.005L169.045 131.208L169.043 131.209L168.594 131.414C168.303 131.548 167.878 131.744 167.35 131.988C166.292 132.477 164.815 133.164 163.139 133.955C159.785 135.537 155.638 137.532 152.454 139.188C150.33 140.293 148.697 141.578 147.108 142.827C146.548 143.268 145.993 143.704 145.425 144.126C143.256 145.737 140.95 147.084 137.554 147.444C134.735 147.743 132.585 146.738 130.576 145.799L130.576 145.799L130.443 145.737C128.381 144.773 126.45 143.908 123.904 144.287C123.009 144.42 122.216 144.642 121.507 144.94L121.513 144.96L121.361 145.003C120.115 145.556 119.137 146.35 118.328 147.318C117.018 148.885 116.137 150.924 115.317 153.204C115.079 153.865 114.847 154.546 114.611 155.24C113.24 159.268 111.731 163.701 108.181 166.878C105.609 169.181 101.949 171.618 98.9512 173.472C97.4487 174.401 96.1055 175.187 95.1379 175.741C94.654 176.018 94.2638 176.238 93.9943 176.388C93.8595 176.463 93.7549 176.52 93.6838 176.559L93.6028 176.604L93.5765 176.618L93.5745 176.619L93.3315 176.752L93.0899 176.616C93.0899 176.616 93.0899 176.616 93.0937 176.609C93.097 176.603 93.1032 176.592 93.1147 176.572C93.1432 176.522 93.2043 176.413 93.3357 176.18L93.0899 176.616L93.0884 176.615L92.9775 176.552C92.9036 176.51 92.7947 176.449 92.6539 176.369C92.3725 176.209 91.9641 175.975 91.4555 175.683C90.4383 175.098 89.0204 174.275 87.4168 173.322C84.2126 171.419 80.2563 168.993 77.2763 166.916C74.5848 165.04 72.6082 163.211 70.7235 161.468C70.4179 161.185 70.1146 160.904 69.8111 160.626C67.9026 158.877 65.9715 157.209 63.3291 155.618L63.3037 155.63L63.2863 155.592C62.9306 155.379 62.562 155.167 62.1789 154.956C59.3534 153.403 56.912 152.713 54.4177 152.022L54.2807 151.984C51.8288 151.306 49.3167 150.61 46.4122 149.071C43.4283 147.49 41.3458 145.865 39.3123 144.212C39.1178 144.054 38.9239 143.896 38.7297 143.738C36.8942 142.241 35.038 140.727 32.5041 139.171C29.5655 137.367 25.6386 135.324 22.4373 133.729C20.8385 132.932 19.4241 132.249 18.4095 131.765C17.9023 131.522 17.4951 131.33 17.2148 131.199C17.0747 131.133 16.9663 131.082 16.8931 131.048L16.782 130.996L16.041 130.653L16.6844 130.149L16.7129 130.126L16.7993 130.058C16.8755 129.998 16.9881 129.909 17.1334 129.793C17.4242 129.562 17.8461 129.223 18.3697 128.798C19.4169 127.947 20.8704 126.748 22.4948 125.354C25.7487 122.563 29.6697 119.006 32.3902 115.911C35.5875 112.274 39.0398 107.098 41.7008 102.815C43.0293 100.676 44.1567 98.7665 44.952 97.3914C45.3496 96.7039 45.664 96.1502 45.8789 95.7687C45.9863 95.578 46.0689 95.4303 46.1245 95.3305L46.1874 95.2172L46.2072 95.1814L46.2084 95.1792L46.4718 94.7012L46.9251 95.0054L46.9262 95.0062L46.931 95.0094L46.9514 95.023C46.9698 95.0351 46.9976 95.0534 47.0343 95.0774C47.1078 95.1254 47.2172 95.1962 47.3593 95.2862C47.6437 95.4664 48.0588 95.7236 48.5792 96.0299C49.6206 96.6429 51.0805 97.4511 52.7552 98.2321C55.737 99.6229 59.3193 100.889 62.4182 100.884L62.5962 100.627ZM132.576 108.984C133.224 109.76 133.904 110.423 134.62 110.92L123.038 119.873L120.444 119.391L106.873 111.053L107.117 110.861L119.892 85.3092C122.013 88.7717 123.892 92.7564 125.698 96.5852L125.698 96.5854C126.59 98.4759 127.464 100.328 128.339 102.061C129.72 104.792 131.109 107.227 132.576 108.984ZM123.295 120.938L135.556 111.46C136.176 111.746 136.823 111.904 137.501 111.904H151.253L136.697 129.375L122.819 120.85L123.295 120.938ZM137.558 129.904L152.555 111.904H154.116C154.802 111.904 155.549 112.161 156.346 112.66C157.142 113.157 157.963 113.88 158.787 114.768C160.436 116.544 162.052 118.927 163.48 121.334C164.905 123.736 166.13 126.141 166.999 127.947C167.434 128.849 167.779 129.601 168.015 130.126C168.079 130.269 168.135 130.395 168.183 130.503L168.177 130.506C167.884 130.64 167.46 130.836 166.93 131.081C165.87 131.571 164.391 132.259 162.712 133.051C159.356 134.634 155.195 136.635 151.992 138.301C151.713 138.447 151.441 138.595 151.176 138.747L151.388 138.401L137.558 129.904ZM136.805 130.615L150.597 139.089C149.02 140.049 147.687 141.098 146.434 142.084C145.888 142.513 145.357 142.931 144.829 143.323C142.733 144.88 140.596 146.116 137.448 146.45C136.543 146.546 135.715 146.493 134.932 146.342L134.957 146.305L123.624 138.75L136.805 130.615ZM122.688 139.327L131.121 144.95L130.935 144.862L130.867 144.831C128.811 143.871 126.631 142.87 123.757 143.298C122.737 143.449 121.831 143.709 121.022 144.06L109.889 147.226L122.688 139.327ZM107.631 148.907L118.31 145.871C118.045 146.125 117.796 146.394 117.56 146.677C116.13 148.388 115.201 150.571 114.376 152.866C114.128 153.556 113.888 154.257 113.648 154.961L113.647 154.963L113.647 154.963C112.284 158.951 110.885 163.048 107.631 166.027L93.4577 157.366L107.398 148.763L107.631 148.907ZM92.5035 157.955L106.842 166.717C104.394 168.784 101.156 170.933 98.4254 172.621C96.9344 173.543 95.6012 174.323 94.6409 174.873C94.1609 175.148 93.7742 175.366 93.5078 175.514L93.339 175.608L93.1482 175.499C92.8681 175.34 92.4611 175.108 91.9541 174.816C90.94 174.233 89.5262 173.412 87.9275 172.462C84.9715 170.707 81.3927 168.516 78.5398 166.572L92.5035 157.955ZM91.5468 157.37L77.642 165.951C75.1159 164.169 73.2431 162.436 71.4081 160.739C71.1009 160.454 70.7948 160.171 70.4868 159.889C68.6959 158.247 66.8544 156.648 64.4167 155.113L77.7394 148.932L91.5468 157.37ZM77.0287 148.159L63.3854 154.49C63.1494 154.352 62.908 154.216 62.6607 154.08C59.7244 152.466 57.1841 151.75 54.6845 151.058L54.5695 151.027L54.5694 151.026C52.3844 150.422 50.228 149.825 47.8047 148.655L62.2826 126.624L62.431 126.58L77.0287 148.159ZM122.709 138.139L135.851 130.029L120.079 120.34L109.826 118.432L122.215 137.81L122.709 138.139ZM109.088 117.278L109.076 117.259L109.064 117.273L109.024 117.266L96.091 119.565L106.037 111.713L117.704 118.881L109.088 117.278ZM108.08 118.449L91.9043 137.797L91.7152 137.931L81.0141 131.58L94.4343 120.875L108.08 118.449ZM90.8193 138.562L79.776 132.009L63.7283 126.713L77.9006 147.664L90.8193 138.562ZM78.6821 148.336L91.7618 139.121L91.987 139.255L106.445 148.176L92.501 156.781L78.6821 148.336ZM92.6367 138.48L108.968 118.947L121.486 138.526L121.772 138.717L107.398 147.588L92.6367 138.48Z" fill="url(#paint2_radial_3100_10480)"/>
<circle cx="61.833" cy="126.514" r="2.85059" fill="#D9D9D9"/>
<circle cx="108.532" cy="118.116" r="2.85059" fill="#D9D9D9"/>
<rect x="61.4297" y="87.4988" width="1" height="38.1289" fill="#D9D9D9"/>
<rect x="108.032" y="80.6355" width="1" height="38.1289" fill="#D9D9D9"/>
<circle cx="101.576" cy="55.7517" r="2.85059" fill="url(#paint3_linear_3100_10480)"/>
<rect x="101.156" y="18.3264" width="1" height="38.1289" rx="0.5" fill="url(#paint4_linear_3100_10480)"/>
<path d="M76.6141 91.6554C73.3077 89.9705 70.6337 90.9473 69.2643 92.0108C69.0645 92.1651 68.8166 92.358 68.6526 92.6942C68.4873 93.0317 68.4873 93.3623 68.4873 93.6585V107.738C68.4873 107.982 68.5841 108.216 68.7564 108.388C68.9288 108.56 69.1625 108.657 69.4062 108.657C69.6499 108.657 69.8836 108.56 70.056 108.388C70.2283 108.216 70.3251 107.982 70.3251 107.738V102.418C70.3251 102.272 70.3251 102.199 70.3609 102.135C70.3981 102.072 70.4573 102.039 70.5717 101.97C71.6917 101.315 73.5956 100.848 75.99 102.068C79.4011 103.806 82.352 103.102 83.8068 102.307C83.9514 102.23 84.2366 102.077 84.3992 101.8C84.5659 101.521 84.5631 101.167 84.5617 100.988V94.0387C84.5617 93.6902 84.5617 93.3733 84.5342 93.1281C84.5108 92.9077 84.4474 92.5082 84.1071 92.2492C83.9445 92.1292 83.7497 92.0606 83.5478 92.0522C83.3954 92.0459 83.2428 92.0575 83.0932 92.0866C82.8273 92.1335 82.4484 92.2382 82.053 92.3484C80.7525 92.7093 78.8211 92.781 76.6141 91.6582V91.6554Z" fill="url(#paint5_linear_3100_10480)"/>
<path d="M121.018 78.5775C117.712 76.8927 115.038 77.8694 113.669 78.933C113.469 79.0873 113.221 79.2801 113.057 79.6163C112.892 79.9538 112.892 80.2844 112.892 80.5806V94.6602C112.892 94.9039 112.988 95.1376 113.161 95.31C113.333 95.4823 113.567 95.5791 113.81 95.5791C114.054 95.5791 114.288 95.4823 114.46 95.31C114.633 95.1376 114.729 94.9039 114.729 94.6602V89.3397C114.729 89.1937 114.729 89.1207 114.765 89.0573C114.802 88.9939 114.862 88.9609 114.976 88.892C116.096 88.2376 118 87.7706 120.394 88.9898C123.805 90.7284 126.756 90.0244 128.211 89.2295C128.356 89.1524 128.641 88.9995 128.803 88.7225C128.97 88.4429 128.967 88.0888 128.966 87.9097V80.9609C128.966 80.6123 128.966 80.2955 128.938 80.0502C128.915 79.8298 128.852 79.4303 128.511 79.1713C128.349 79.0513 128.154 78.9827 127.952 78.9743C127.8 78.968 127.647 78.9796 127.497 79.0087C127.232 79.0556 126.853 79.1603 126.457 79.2705C125.157 79.6314 123.225 79.7031 121.018 78.5803V78.5775Z" fill="url(#paint6_linear_3100_10480)"/>
<path d="M124.271 21.672C123.719 21.672 123.271 21.2243 123.271 20.672V20.4383C123.271 19.886 122.824 19.4383 122.271 19.4383H110.869C110.317 19.4383 109.869 19.886 109.869 20.4383V20.672C109.869 21.2243 109.421 21.672 108.869 21.672H106.401C105.849 21.672 105.401 22.1197 105.401 22.672V25.0226C105.408 26.3676 105.899 27.6651 106.786 28.6766C107.535 29.5321 108.525 30.1345 109.618 30.4107C109.986 30.5036 110.297 30.759 110.451 31.1061C110.856 32.0188 111.46 32.832 112.223 33.484C112.929 34.0871 113.749 34.535 114.632 34.8027C115.099 34.9442 115.453 35.3529 115.453 35.8405V38.5419C115.453 39.0942 115.005 39.5419 114.453 39.5419H113.103C112.55 39.5419 112.103 39.9896 112.103 40.5419V40.7757C112.103 41.328 112.55 41.7757 113.103 41.7757H120.038C120.59 41.7757 121.038 41.3279 121.038 40.7757V40.5419C121.038 39.9896 120.59 39.5419 120.038 39.5419H118.687C118.135 39.5419 117.687 39.0942 117.687 38.5419V35.8182C117.687 35.3306 118.042 34.9219 118.508 34.7804C119.391 34.5127 120.211 34.0648 120.917 33.4617C121.68 32.8097 122.285 31.9964 122.689 31.0838C122.843 30.7367 123.154 30.4813 123.522 30.3883C124.612 30.1131 125.598 29.5139 126.347 28.6627C127.233 27.6558 127.727 26.3637 127.739 25.0226V22.672C127.739 22.1197 127.291 21.672 126.739 21.672H124.271ZM107.635 25.0226V24.9057C107.635 24.3535 108.083 23.9057 108.635 23.9057H108.869C109.421 23.9057 109.869 24.3535 109.869 24.9057V26.7691C109.869 27.4593 109.172 27.925 108.673 27.4486C108.517 27.2999 108.375 27.1358 108.249 26.9581C107.849 26.392 107.635 25.7158 107.635 25.0226ZM125.505 25.0226C125.505 25.7158 125.291 26.392 124.891 26.9581C124.765 27.1358 124.623 27.2999 124.467 27.4486C123.968 27.925 123.271 27.4593 123.271 26.7691V24.9057C123.271 24.3535 123.719 23.9057 124.271 23.9057H124.505C125.057 23.9057 125.505 24.3535 125.505 24.9057V25.0226Z" fill="url(#paint7_linear_3100_10480)"/>
</g>
<defs>
<radialGradient id="paint0_radial_3100_10480" cx="0" cy="0" r="1" gradientUnits="userSpaceOnUse" gradientTransform="translate(93 43.1893) rotate(90) scale(142.811)">
<stop stop-color="#D9D9D9"/>
<stop offset="1" stop-color="#737373" stop-opacity="0.07"/>
</radialGradient>
<radialGradient id="paint1_radial_3100_10480" cx="0" cy="0" r="1" gradientUnits="userSpaceOnUse" gradientTransform="translate(102.538 68.6962) rotate(97.4314) scale(40.0026 29.1469)">
<stop stop-color="#00AA51"/>
<stop offset="1" stop-color="#0D1116"/>
</radialGradient>
<radialGradient id="paint2_radial_3100_10480" cx="0" cy="0" r="1" gradientUnits="userSpaceOnUse" gradientTransform="translate(92.7647 74.2327) rotate(90) scale(102.519 65.1921)">
<stop stop-color="white" stop-opacity="0.3"/>
<stop offset="0.0001" stop-color="#FEFEFE" stop-opacity="0.3993"/>
<stop offset="1" stop-color="#999999" stop-opacity="0.42"/>
</radialGradient>
<linearGradient id="paint3_linear_3100_10480" x1="99.5479" y1="53.5527" x2="101.969" y2="58.4066" gradientUnits="userSpaceOnUse">
<stop stop-color="#33B394"/>
<stop offset="1" stop-color="#02C98D" stop-opacity="0.61"/>
</linearGradient>
<linearGradient id="paint4_linear_3100_10480" x1="101.3" y1="22.684" x2="103.426" y2="22.7958" gradientUnits="userSpaceOnUse">
<stop stop-color="#33B394"/>
<stop offset="1" stop-color="#02C98D" stop-opacity="0.61"/>
</linearGradient>
<linearGradient id="paint5_linear_3100_10480" x1="76.5247" y1="90.7459" x2="76.5247" y2="108.657" gradientUnits="userSpaceOnUse">
<stop stop-color="white"/>
<stop offset="0.0001" stop-color="white"/>
<stop offset="1" stop-color="white" stop-opacity="0.31"/>
</linearGradient>
<linearGradient id="paint6_linear_3100_10480" x1="120.929" y1="77.668" x2="120.929" y2="95.5791" gradientUnits="userSpaceOnUse">
<stop stop-color="white"/>
<stop offset="0.0001" stop-color="white"/>
<stop offset="1" stop-color="white" stop-opacity="0.31"/>
</linearGradient>
<linearGradient id="paint7_linear_3100_10480" x1="108.623" y1="21.9911" x2="118.108" y2="41.0087" gradientUnits="userSpaceOnUse">
<stop stop-color="#33B394"/>
<stop offset="1" stop-color="#02C98D" stop-opacity="0.61"/>
</linearGradient>
</defs>
</svg>
