<svg width="288" height="219" viewBox="0 0 288 219" fill="none" xmlns="http://www.w3.org/2000/svg">
<rect x="0.5" y="0.5" width="287" height="218" rx="15.5" stroke="url(#paint0_linear_1874_8755)"/>
<path d="M33.9205 187.318C32.4962 187.318 31.2159 187.045 30.0795 186.5C28.9508 185.947 28.0492 185.189 27.375 184.227C26.7008 183.265 26.3409 182.167 26.2955 180.932H29.7045C29.7879 181.932 30.2311 182.754 31.0341 183.398C31.8371 184.042 32.7992 184.364 33.9205 184.364C34.8144 184.364 35.6061 184.159 36.2955 183.75C36.9924 183.333 37.5379 182.761 37.9318 182.034C38.3333 181.307 38.5341 180.477 38.5341 179.545C38.5341 178.598 38.3295 177.754 37.9205 177.011C37.5114 176.269 36.947 175.686 36.2273 175.261C35.5152 174.837 34.697 174.621 33.7727 174.614C33.0682 174.614 32.3598 174.735 31.6477 174.977C30.9356 175.22 30.3598 175.538 29.9205 175.932L26.7045 175.455L28.0114 163.727H40.8068V166.739H30.9318L30.1932 173.25H30.3295C30.7841 172.811 31.3864 172.443 32.1364 172.148C32.8939 171.852 33.7045 171.705 34.5682 171.705C35.9848 171.705 37.2462 172.042 38.3523 172.716C39.4659 173.39 40.3409 174.311 40.9773 175.477C41.6212 176.636 41.9394 177.97 41.9318 179.477C41.9394 180.985 41.5985 182.33 40.9091 183.511C40.2273 184.693 39.2803 185.625 38.0682 186.307C36.8636 186.981 35.4811 187.318 33.9205 187.318ZM54.6335 183.727V182.807C54.6335 182.148 54.7699 181.545 55.0426 181C55.321 180.449 55.7244 180.009 56.2528 179.679C56.7869 179.344 57.4318 179.176 58.1875 179.176C58.9602 179.176 59.608 179.341 60.1307 179.67C60.6534 180 61.0483 180.44 61.3153 180.991C61.5881 181.543 61.7244 182.148 61.7244 182.807V183.727C61.7244 184.386 61.5881 184.991 61.3153 185.543C61.0426 186.088 60.642 186.528 60.1136 186.864C59.5909 187.193 58.9489 187.358 58.1875 187.358C57.4205 187.358 56.7727 187.193 56.2443 186.864C55.7159 186.528 55.3153 186.088 55.0426 185.543C54.7699 184.991 54.6335 184.386 54.6335 183.727ZM56.6193 182.807V183.727C56.6193 184.216 56.7358 184.659 56.9688 185.057C57.2017 185.455 57.608 185.653 58.1875 185.653C58.7614 185.653 59.1619 185.455 59.3892 185.057C59.6165 184.659 59.7301 184.216 59.7301 183.727V182.807C59.7301 182.318 59.6193 181.875 59.3977 181.477C59.1818 181.08 58.7784 180.881 58.1875 180.881C57.6193 180.881 57.2159 181.08 56.9773 181.477C56.7386 181.875 56.6193 182.318 56.6193 182.807ZM45.8551 173.739V172.818C45.8551 172.159 45.9915 171.554 46.2642 171.003C46.5426 170.452 46.946 170.011 47.4744 169.682C48.0085 169.352 48.6534 169.188 49.4091 169.188C50.1818 169.188 50.8295 169.352 51.3523 169.682C51.875 170.011 52.2699 170.452 52.5369 171.003C52.804 171.554 52.9375 172.159 52.9375 172.818V173.739C52.9375 174.398 52.8011 175.003 52.5284 175.554C52.2614 176.099 51.8636 176.54 51.3352 176.875C50.8125 177.205 50.1705 177.369 49.4091 177.369C48.6364 177.369 47.9858 177.205 47.4574 176.875C46.9347 176.54 46.5369 176.099 46.2642 175.554C45.9915 175.003 45.8551 174.398 45.8551 173.739ZM47.8494 172.818V173.739C47.8494 174.227 47.9631 174.67 48.1903 175.068C48.4233 175.466 48.8295 175.665 49.4091 175.665C49.9773 175.665 50.375 175.466 50.6023 175.068C50.8352 174.67 50.9517 174.227 50.9517 173.739V172.818C50.9517 172.33 50.8409 171.886 50.6193 171.489C50.3977 171.091 49.9943 170.892 49.4091 170.892C48.8409 170.892 48.4375 171.091 48.1989 171.489C47.9659 171.886 47.8494 172.33 47.8494 172.818ZM46.6648 187L58.6648 169.545H60.7017L48.7017 187H46.6648ZM69.4972 187V175.364H76.7926V176.875H71.2528V180.42H76.4119V181.926H71.2528V185.489H76.8608V187H69.4972ZM82.7628 187.176C81.9029 187.176 81.1624 186.992 80.5412 186.625C79.9238 186.254 79.4465 185.733 79.1094 185.062C78.776 184.388 78.6094 183.598 78.6094 182.693C78.6094 181.799 78.776 181.011 79.1094 180.33C79.4465 179.648 79.9162 179.116 80.5185 178.733C81.1245 178.35 81.8329 178.159 82.6435 178.159C83.1359 178.159 83.6132 178.241 84.0753 178.403C84.5374 178.566 84.9522 178.822 85.3196 179.17C85.687 179.519 85.9768 179.972 86.1889 180.528C86.401 181.081 86.5071 181.754 86.5071 182.545V183.148H79.5696V181.875H84.8423C84.8423 181.428 84.7514 181.032 84.5696 180.688C84.3878 180.339 84.1321 180.064 83.8026 179.864C83.4768 179.663 83.0942 179.562 82.6548 179.562C82.1776 179.562 81.7609 179.68 81.4048 179.915C81.0526 180.146 80.7798 180.449 80.5866 180.824C80.3973 181.195 80.3026 181.598 80.3026 182.034V183.028C80.3026 183.612 80.4048 184.108 80.6094 184.517C80.8177 184.926 81.1075 185.239 81.4787 185.455C81.8499 185.667 82.2836 185.773 82.7798 185.773C83.1018 185.773 83.3954 185.727 83.6605 185.636C83.9257 185.542 84.1548 185.402 84.348 185.216C84.5412 185.03 84.6889 184.801 84.7912 184.528L86.3991 184.818C86.2704 185.292 86.0393 185.706 85.706 186.062C85.3764 186.415 84.9616 186.689 84.4616 186.886C83.9654 187.08 83.3991 187.176 82.7628 187.176ZM90.9318 187.193C90.3788 187.193 89.8788 187.091 89.4318 186.886C88.9848 186.678 88.6307 186.377 88.3693 185.983C88.1117 185.589 87.983 185.106 87.983 184.534C87.983 184.042 88.0777 183.636 88.267 183.318C88.4564 183 88.7121 182.748 89.0341 182.562C89.3561 182.377 89.7159 182.237 90.1136 182.142C90.5114 182.047 90.9167 181.975 91.3295 181.926C91.8523 181.866 92.2765 181.816 92.6023 181.778C92.928 181.737 93.1648 181.67 93.3125 181.58C93.4602 181.489 93.5341 181.341 93.5341 181.136V181.097C93.5341 180.6 93.3939 180.216 93.1136 179.943C92.8371 179.67 92.4242 179.534 91.875 179.534C91.303 179.534 90.8523 179.661 90.5227 179.915C90.197 180.165 89.9716 180.443 89.8466 180.75L88.25 180.386C88.4394 179.856 88.7159 179.428 89.0795 179.102C89.447 178.773 89.8693 178.534 90.3466 178.386C90.8239 178.235 91.3258 178.159 91.8523 178.159C92.2008 178.159 92.5701 178.201 92.9602 178.284C93.3542 178.364 93.7216 178.511 94.0625 178.727C94.4072 178.943 94.6894 179.252 94.9091 179.653C95.1288 180.051 95.2386 180.568 95.2386 181.205V187H93.5795V185.807H93.5114C93.4015 186.027 93.2367 186.242 93.017 186.455C92.7973 186.667 92.5152 186.843 92.1705 186.983C91.8258 187.123 91.4129 187.193 90.9318 187.193ZM91.3011 185.83C91.7708 185.83 92.1723 185.737 92.5057 185.551C92.8428 185.366 93.0985 185.123 93.2727 184.824C93.4508 184.521 93.5398 184.197 93.5398 183.852V182.727C93.4792 182.788 93.3617 182.845 93.1875 182.898C93.017 182.947 92.822 182.991 92.6023 183.028C92.3826 183.062 92.1686 183.095 91.9602 183.125C91.7519 183.152 91.5777 183.174 91.4375 183.193C91.108 183.235 90.8068 183.305 90.5341 183.403C90.2652 183.502 90.0492 183.644 89.8864 183.83C89.7273 184.011 89.6477 184.254 89.6477 184.557C89.6477 184.977 89.803 185.295 90.1136 185.511C90.4242 185.723 90.8201 185.83 91.3011 185.83ZM97.5014 187V178.273H99.1435V179.659H99.2344C99.3935 179.189 99.6738 178.82 100.075 178.551C100.481 178.278 100.939 178.142 101.45 178.142C101.556 178.142 101.681 178.146 101.825 178.153C101.973 178.161 102.089 178.17 102.172 178.182V179.807C102.104 179.788 101.982 179.767 101.808 179.744C101.634 179.718 101.46 179.705 101.286 179.705C100.884 179.705 100.526 179.79 100.212 179.96C99.901 180.127 99.6548 180.36 99.473 180.659C99.2912 180.955 99.2003 181.292 99.2003 181.67V187H97.5014ZM105.341 181.818V187H103.642V178.273H105.273V179.693H105.381C105.581 179.231 105.896 178.86 106.324 178.58C106.756 178.299 107.299 178.159 107.955 178.159C108.549 178.159 109.07 178.284 109.517 178.534C109.964 178.78 110.311 179.148 110.557 179.636C110.803 180.125 110.926 180.729 110.926 181.449V187H109.227V181.653C109.227 181.021 109.063 180.527 108.733 180.17C108.403 179.811 107.951 179.631 107.375 179.631C106.981 179.631 106.631 179.716 106.324 179.886C106.021 180.057 105.78 180.307 105.602 180.636C105.428 180.962 105.341 181.356 105.341 181.818ZM116.966 187.176C116.106 187.176 115.366 186.992 114.744 186.625C114.127 186.254 113.65 185.733 113.312 185.062C112.979 184.388 112.812 183.598 112.812 182.693C112.812 181.799 112.979 181.011 113.312 180.33C113.65 179.648 114.119 179.116 114.722 178.733C115.328 178.35 116.036 178.159 116.847 178.159C117.339 178.159 117.816 178.241 118.278 178.403C118.741 178.566 119.155 178.822 119.523 179.17C119.89 179.519 120.18 179.972 120.392 180.528C120.604 181.081 120.71 181.754 120.71 182.545V183.148H113.773V181.875H119.045C119.045 181.428 118.955 181.032 118.773 180.688C118.591 180.339 118.335 180.064 118.006 179.864C117.68 179.663 117.297 179.562 116.858 179.562C116.381 179.562 115.964 179.68 115.608 179.915C115.256 180.146 114.983 180.449 114.79 180.824C114.6 181.195 114.506 181.598 114.506 182.034V183.028C114.506 183.612 114.608 184.108 114.812 184.517C115.021 184.926 115.311 185.239 115.682 185.455C116.053 185.667 116.487 185.773 116.983 185.773C117.305 185.773 117.598 185.727 117.864 185.636C118.129 185.542 118.358 185.402 118.551 185.216C118.744 185.03 118.892 184.801 118.994 184.528L120.602 184.818C120.473 185.292 120.242 185.706 119.909 186.062C119.58 186.415 119.165 186.689 118.665 186.886C118.169 187.08 117.602 187.176 116.966 187.176ZM125.862 187.17C125.158 187.17 124.529 186.991 123.976 186.631C123.427 186.267 122.995 185.75 122.68 185.08C122.37 184.405 122.214 183.597 122.214 182.653C122.214 181.71 122.372 180.903 122.686 180.233C123.004 179.562 123.44 179.049 123.993 178.693C124.546 178.337 125.173 178.159 125.874 178.159C126.415 178.159 126.851 178.25 127.18 178.432C127.514 178.61 127.771 178.818 127.953 179.057C128.139 179.295 128.283 179.506 128.385 179.688H128.487V175.364H130.186V187H128.527V185.642H128.385C128.283 185.828 128.135 186.04 127.942 186.278C127.752 186.517 127.491 186.725 127.158 186.903C126.824 187.081 126.393 187.17 125.862 187.17ZM126.237 185.722C126.726 185.722 127.139 185.593 127.476 185.335C127.817 185.074 128.074 184.712 128.249 184.25C128.427 183.788 128.516 183.25 128.516 182.636C128.516 182.03 128.429 181.5 128.254 181.045C128.08 180.591 127.824 180.237 127.487 179.983C127.15 179.729 126.733 179.602 126.237 179.602C125.726 179.602 125.3 179.735 124.959 180C124.618 180.265 124.36 180.627 124.186 181.085C124.016 181.544 123.93 182.061 123.93 182.636C123.93 183.22 124.018 183.744 124.192 184.21C124.366 184.676 124.624 185.045 124.964 185.318C125.309 185.587 125.733 185.722 126.237 185.722ZM137.339 181.182C137.339 179.758 137.527 178.447 137.902 177.25C138.277 176.053 138.824 174.949 139.544 173.938H141.101C140.821 174.312 140.559 174.773 140.317 175.318C140.074 175.864 139.862 176.462 139.68 177.114C139.499 177.761 139.357 178.434 139.254 179.131C139.152 179.824 139.101 180.508 139.101 181.182C139.101 182.083 139.19 182.996 139.368 183.92C139.546 184.845 139.786 185.703 140.089 186.494C140.393 187.286 140.73 187.932 141.101 188.432H139.544C138.824 187.42 138.277 186.316 137.902 185.119C137.527 183.922 137.339 182.61 137.339 181.182ZM146.312 185.045V177.364H147.841V185.045H146.312ZM143.239 181.966V180.443H150.92V181.966H143.239ZM157.366 187.159C156.654 187.159 156.014 187.023 155.446 186.75C154.882 186.473 154.431 186.095 154.094 185.614C153.757 185.133 153.577 184.583 153.554 183.966H155.259C155.3 184.466 155.522 184.877 155.923 185.199C156.325 185.521 156.806 185.682 157.366 185.682C157.813 185.682 158.209 185.58 158.554 185.375C158.902 185.167 159.175 184.881 159.372 184.517C159.573 184.153 159.673 183.739 159.673 183.273C159.673 182.799 159.571 182.377 159.366 182.006C159.162 181.634 158.88 181.343 158.52 181.131C158.164 180.919 157.755 180.811 157.293 180.807C156.94 180.807 156.586 180.867 156.23 180.989C155.874 181.11 155.586 181.269 155.366 181.466L153.759 181.227L154.412 175.364H160.81V176.869H155.872L155.503 180.125H155.571C155.798 179.905 156.099 179.722 156.474 179.574C156.853 179.426 157.259 179.352 157.69 179.352C158.399 179.352 159.029 179.521 159.582 179.858C160.139 180.195 160.577 180.655 160.895 181.239C161.217 181.818 161.376 182.485 161.372 183.239C161.376 183.992 161.205 184.665 160.861 185.256C160.52 185.847 160.046 186.312 159.44 186.653C158.838 186.991 158.147 187.159 157.366 187.159ZM169.521 184.818V184.205C169.521 183.765 169.612 183.364 169.794 183C169.98 182.633 170.249 182.339 170.601 182.119C170.957 181.896 171.387 181.784 171.891 181.784C172.406 181.784 172.838 181.894 173.186 182.114C173.535 182.333 173.798 182.627 173.976 182.994C174.158 183.362 174.249 183.765 174.249 184.205V184.818C174.249 185.258 174.158 185.661 173.976 186.028C173.794 186.392 173.527 186.686 173.175 186.909C172.826 187.129 172.398 187.239 171.891 187.239C171.379 187.239 170.947 187.129 170.595 186.909C170.243 186.686 169.976 186.392 169.794 186.028C169.612 185.661 169.521 185.258 169.521 184.818ZM170.845 184.205V184.818C170.845 185.144 170.923 185.439 171.078 185.705C171.233 185.97 171.504 186.102 171.891 186.102C172.273 186.102 172.54 185.97 172.692 185.705C172.843 185.439 172.919 185.144 172.919 184.818V184.205C172.919 183.879 172.845 183.583 172.697 183.318C172.554 183.053 172.285 182.92 171.891 182.92C171.512 182.92 171.243 183.053 171.084 183.318C170.925 183.583 170.845 183.879 170.845 184.205ZM163.669 178.159V177.545C163.669 177.106 163.76 176.703 163.942 176.335C164.127 175.968 164.396 175.674 164.749 175.455C165.105 175.235 165.535 175.125 166.038 175.125C166.554 175.125 166.985 175.235 167.334 175.455C167.682 175.674 167.946 175.968 168.124 176.335C168.302 176.703 168.391 177.106 168.391 177.545V178.159C168.391 178.598 168.3 179.002 168.118 179.369C167.94 179.733 167.675 180.027 167.322 180.25C166.974 180.47 166.546 180.58 166.038 180.58C165.523 180.58 165.089 180.47 164.737 180.25C164.389 180.027 164.124 179.733 163.942 179.369C163.76 179.002 163.669 178.598 163.669 178.159ZM164.999 177.545V178.159C164.999 178.485 165.074 178.78 165.226 179.045C165.381 179.311 165.652 179.443 166.038 179.443C166.417 179.443 166.682 179.311 166.834 179.045C166.989 178.78 167.067 178.485 167.067 178.159V177.545C167.067 177.22 166.993 176.924 166.845 176.659C166.697 176.394 166.429 176.261 166.038 176.261C165.66 176.261 165.391 176.394 165.232 176.659C165.076 176.924 164.999 177.22 164.999 177.545ZM164.209 187L172.209 175.364H173.567L165.567 187H164.209ZM179.987 181.182C179.987 182.61 179.8 183.922 179.425 185.119C179.05 186.316 178.502 187.42 177.783 188.432H176.226C176.506 188.057 176.768 187.597 177.01 187.051C177.252 186.506 177.464 185.909 177.646 185.261C177.828 184.61 177.97 183.936 178.072 183.239C178.175 182.542 178.226 181.856 178.226 181.182C178.226 180.284 178.137 179.373 177.959 178.449C177.781 177.525 177.54 176.667 177.237 175.875C176.934 175.083 176.597 174.438 176.226 173.938H177.783C178.502 174.949 179.05 176.053 179.425 177.25C179.8 178.447 179.987 179.758 179.987 181.182Z" fill="url(#paint1_linear_1874_8755)"/>
<rect x="28.5" y="115.5" width="235" height="15" rx="7.5" fill="url(#paint2_linear_1874_8755)" fill-opacity="0.1" stroke="url(#paint3_linear_1874_8755)"/>
<g filter="url(#filter0_d_1874_8755)">
<circle cx="38" cy="123" r="8" fill="#F838AB"/>
<circle cx="38" cy="123" r="12" stroke="white" stroke-width="8"/>
</g>
<path d="M30.2741 30.8707C30.241 30.5062 30.0935 30.2228 29.8317 30.0206C29.5732 29.8151 29.2036 29.7124 28.723 29.7124C28.4048 29.7124 28.1397 29.7538 27.9276 29.8366C27.7154 29.9195 27.5563 30.0339 27.4503 30.1797C27.3442 30.3222 27.2895 30.4863 27.2862 30.6719C27.2796 30.8243 27.3094 30.9586 27.3757 31.0746C27.4453 31.1906 27.5447 31.2933 27.674 31.3828C27.8066 31.469 27.9657 31.5452 28.1513 31.6115C28.3369 31.6778 28.5457 31.7358 28.7777 31.7855L29.6527 31.9844C30.1565 32.0938 30.6006 32.2396 30.9851 32.4219C31.3729 32.6042 31.6977 32.8213 31.9595 33.0732C32.2247 33.325 32.4252 33.6151 32.5611 33.9432C32.697 34.2713 32.7666 34.6392 32.7699 35.0469C32.7666 35.6899 32.6042 36.2417 32.2827 36.7024C31.9612 37.1631 31.4988 37.5161 30.8956 37.7614C30.2957 38.0066 29.5715 38.1293 28.723 38.1293C27.8712 38.1293 27.1288 38.0017 26.4957 37.7464C25.8627 37.4912 25.3705 37.1035 25.0192 36.5831C24.6679 36.0627 24.4872 35.4048 24.4773 34.6094H26.8338C26.8537 34.9375 26.9415 35.2109 27.0973 35.4297C27.2531 35.6484 27.4669 35.8142 27.7386 35.9268C28.0137 36.0395 28.3319 36.0959 28.6932 36.0959C29.0246 36.0959 29.3063 36.0511 29.5384 35.9616C29.7737 35.8722 29.9543 35.7479 30.0803 35.5888C30.2062 35.4297 30.2708 35.2474 30.2741 35.0419C30.2708 34.8497 30.2112 34.6856 30.0952 34.5497C29.9792 34.4105 29.8002 34.2912 29.5582 34.1918C29.3196 34.089 29.0147 33.9946 28.6435 33.9084L27.5795 33.6598C26.6979 33.4576 26.0036 33.1312 25.4964 32.6804C24.9893 32.2263 24.7375 31.6132 24.7408 30.8409C24.7375 30.2112 24.9065 29.6593 25.2479 29.1854C25.5893 28.7114 26.0616 28.3419 26.6648 28.0767C27.268 27.8116 27.9557 27.679 28.728 27.679C29.5168 27.679 30.2012 27.8132 30.7812 28.0817C31.3646 28.3468 31.817 28.7197 32.1385 29.2003C32.46 29.6809 32.6241 30.2377 32.6307 30.8707H30.2741ZM38.1832 30.3636V32.1534H33.3657V30.3636H38.1832ZM34.3749 28.5341H36.806V35.5987C36.806 35.7479 36.8292 35.8688 36.8756 35.9616C36.9253 36.0511 36.9966 36.1158 37.0894 36.1555C37.1822 36.192 37.2932 36.2102 37.4225 36.2102C37.5153 36.2102 37.6131 36.2019 37.7158 36.1854C37.8219 36.1655 37.9014 36.1489 37.9545 36.1357L38.3224 37.8906C38.2064 37.9238 38.0423 37.9652 37.8302 38.0149C37.6214 38.0646 37.3711 38.0961 37.0795 38.1094C36.5094 38.1359 36.0205 38.0696 35.6128 37.9105C35.2085 37.7481 34.8986 37.4962 34.6832 37.1548C34.471 36.8134 34.3683 36.3842 34.3749 35.8672V28.5341ZM41.4363 38.1293C40.949 38.1293 40.5165 38.0481 40.1387 37.8857C39.7642 37.7199 39.4675 37.4714 39.2488 37.1399C39.0333 36.8052 38.9256 36.3859 38.9256 35.8821C38.9256 35.4579 39.0002 35.0999 39.1493 34.8082C39.2985 34.5166 39.504 34.2796 39.7658 34.0973C40.0276 33.915 40.3293 33.7775 40.6706 33.6847C41.012 33.5885 41.3766 33.5239 41.7644 33.4908C42.1986 33.451 42.5482 33.4096 42.8134 33.3665C43.0785 33.3201 43.2708 33.2554 43.3901 33.1726C43.5127 33.0864 43.574 32.9654 43.574 32.8097V32.7848C43.574 32.5296 43.4862 32.3324 43.3106 32.1932C43.1349 32.054 42.8979 31.9844 42.5996 31.9844C42.2781 31.9844 42.0196 32.054 41.824 32.1932C41.6285 32.3324 41.5042 32.5246 41.4512 32.7699L39.209 32.6903C39.2753 32.2263 39.446 31.812 39.7211 31.4474C39.9995 31.0795 40.3806 30.7912 40.8645 30.5824C41.3517 30.3703 41.9367 30.2642 42.6195 30.2642C43.1067 30.2642 43.5558 30.3222 43.9668 30.4382C44.3778 30.5509 44.7357 30.7166 45.0407 30.9354C45.3456 31.1508 45.5809 31.416 45.7466 31.7308C45.9157 32.0457 46.0002 32.4053 46.0002 32.8097V38H43.7133V36.9361H43.6536C43.5177 37.1946 43.3437 37.4134 43.1316 37.5923C42.9228 37.7713 42.6758 37.9055 42.3908 37.995C42.1091 38.0845 41.7909 38.1293 41.4363 38.1293ZM42.187 36.5384C42.4488 36.5384 42.6841 36.4853 42.8929 36.3793C43.1051 36.2732 43.2741 36.1274 43.4 35.9418C43.526 35.7528 43.589 35.5341 43.589 35.2855V34.5597C43.5194 34.5961 43.4348 34.6293 43.3354 34.6591C43.2393 34.6889 43.1332 34.7171 43.0172 34.7436C42.9012 34.7701 42.7819 34.7933 42.6593 34.8132C42.5366 34.8331 42.419 34.8513 42.3063 34.8679C42.0776 34.9044 41.8821 34.9607 41.7196 35.0369C41.5606 35.1132 41.4379 35.2126 41.3517 35.3352C41.2689 35.4545 41.2275 35.5971 41.2275 35.7628C41.2275 36.0147 41.3169 36.2069 41.4959 36.3395C41.6782 36.4721 41.9086 36.5384 42.187 36.5384ZM50.9063 41.0227C50.1805 41.0227 49.559 40.9216 49.042 40.7195C48.525 40.5173 48.1189 40.2405 47.824 39.8892C47.529 39.5379 47.3517 39.1402 47.292 38.696L49.5938 38.5668C49.6369 38.7225 49.7165 38.8584 49.8325 38.9744C49.9518 39.0904 50.1059 39.1799 50.2948 39.2429C50.4871 39.3059 50.7125 39.3374 50.971 39.3374C51.3787 39.3374 51.7151 39.2379 51.9802 39.0391C52.2487 38.8435 52.3829 38.5005 52.3829 38.0099V36.6676H52.2984C52.2023 36.9029 52.0564 37.1134 51.8609 37.299C51.6653 37.4846 51.4217 37.6304 51.1301 37.7365C50.8417 37.8426 50.5103 37.8956 50.1358 37.8956C49.5789 37.8956 49.0685 37.7663 48.6045 37.5078C48.1438 37.246 47.7742 36.8416 47.4958 36.2947C47.2207 35.7446 47.0832 35.0369 47.0832 34.1719C47.0832 33.2803 47.2257 32.5462 47.5108 31.9695C47.7958 31.3894 48.1687 30.9602 48.6294 30.6818C49.0934 30.4034 49.5922 30.2642 50.1258 30.2642C50.5269 30.2642 50.8699 30.3338 51.1549 30.473C51.4433 30.6089 51.6803 30.7846 51.8659 31C52.0515 31.2154 52.1923 31.4392 52.2885 31.6712H52.3581V30.3636H54.7792V38.0298C54.7792 38.6761 54.6168 39.2214 54.292 39.6655C53.9672 40.1096 53.5131 40.446 52.9298 40.6747C52.3465 40.9067 51.672 41.0227 50.9063 41.0227ZM50.9809 36.1257C51.2759 36.1257 51.5278 36.0478 51.7366 35.892C51.9454 35.7363 52.1062 35.5125 52.2188 35.2209C52.3315 34.9292 52.3879 34.5795 52.3879 34.1719C52.3879 33.7576 52.3315 33.4013 52.2188 33.103C52.1095 32.8014 51.9487 32.5694 51.7366 32.407C51.5278 32.2446 51.2759 32.1634 50.9809 32.1634C50.6793 32.1634 50.4241 32.2462 50.2153 32.4119C50.0065 32.5777 49.8474 32.8113 49.738 33.1129C49.632 33.4112 49.5789 33.7642 49.5789 34.1719C49.5789 34.5795 49.6336 34.9292 49.743 35.2209C49.8524 35.5125 50.0098 35.7363 50.2153 35.892C50.4241 36.0478 50.6793 36.1257 50.9809 36.1257ZM59.7587 38.1442C58.9599 38.1442 58.2706 37.9867 57.6905 37.6719C57.1138 37.3537 56.6697 36.9013 56.3581 36.3146C56.0499 35.7247 55.8958 35.0237 55.8958 34.2116C55.8958 33.4228 56.0516 32.7334 56.3631 32.1435C56.6747 31.5502 57.1138 31.0895 57.6806 30.7614C58.2474 30.4299 58.9152 30.2642 59.6841 30.2642C60.2277 30.2642 60.7249 30.3487 61.1756 30.5178C61.6264 30.6868 62.0158 30.937 62.3439 31.2685C62.6721 31.5999 62.9273 32.0092 63.1096 32.4964C63.2919 32.9804 63.383 33.5355 63.383 34.1619V34.7685H56.7459V33.3565H61.1209C61.1176 33.098 61.0563 32.8677 60.937 32.6655C60.8177 32.4633 60.6536 32.3059 60.4448 32.1932C60.2393 32.0772 60.0023 32.0192 59.7339 32.0192C59.4621 32.0192 59.2185 32.0805 59.003 32.2031C58.7876 32.3224 58.6169 32.4865 58.491 32.6953C58.365 32.9008 58.2987 33.1345 58.2921 33.3963V34.8331C58.2921 35.1446 58.3534 35.4181 58.476 35.6534C58.5987 35.8854 58.7727 36.0661 58.9981 36.1953C59.2234 36.3246 59.4919 36.3892 59.8035 36.3892C60.0189 36.3892 60.2144 36.3594 60.3901 36.2997C60.5658 36.2401 60.7166 36.1522 60.8425 36.0362C60.9685 35.9202 61.0629 35.7777 61.1259 35.6087L63.3581 35.6733C63.2653 36.1738 63.0615 36.6096 62.7466 36.9808C62.4351 37.3487 62.0258 37.6354 61.5187 37.8409C61.0116 38.0431 60.4249 38.1442 59.7587 38.1442ZM74.9085 27.8182V38H72.4525V30.1151H72.3929L70.1159 31.5071V29.3793L72.6265 27.8182H74.9085ZM81.2743 36.8565C80.9163 36.8565 80.6097 36.7306 80.3545 36.4787C80.1026 36.2268 79.9783 35.9219 79.9817 35.5639C79.9783 35.2126 80.1026 34.9126 80.3545 34.6641C80.6097 34.4122 80.9163 34.2862 81.2743 34.2862C81.6123 34.2862 81.9106 34.4122 82.1692 34.6641C82.431 34.9126 82.5636 35.2126 82.5669 35.5639C82.5636 35.8026 82.5006 36.0196 82.378 36.2152C82.2586 36.4107 82.1012 36.5665 81.9057 36.6825C81.7134 36.7985 81.503 36.8565 81.2743 36.8565ZM81.2743 31.9148C80.9163 31.9148 80.6097 31.7888 80.3545 31.5369C80.1026 31.285 79.9783 30.9801 79.9817 30.6222C79.9783 30.2708 80.1026 29.9709 80.3545 29.7223C80.6097 29.4704 80.9163 29.3445 81.2743 29.3445C81.6123 29.3445 81.9106 29.4704 82.1692 29.7223C82.431 29.9709 82.5636 30.2708 82.5669 30.6222C82.5636 30.8608 82.5006 31.0779 82.378 31.2734C82.2586 31.469 82.1012 31.6248 81.9057 31.7408C81.7134 31.8568 81.503 31.9148 81.2743 31.9148ZM86.3445 27.8182L88.6215 35.2756H88.706L90.983 27.8182H93.7372L90.3019 38H87.0256L83.5902 27.8182H86.3445ZM95.9575 38.1293C95.4703 38.1293 95.0378 38.0481 94.6599 37.8857C94.2854 37.7199 93.9888 37.4714 93.77 37.1399C93.5546 36.8052 93.4469 36.3859 93.4469 35.8821C93.4469 35.4579 93.5214 35.0999 93.6706 34.8082C93.8197 34.5166 94.0252 34.2796 94.2871 34.0973C94.5489 33.915 94.8505 33.7775 95.1919 33.6847C95.5333 33.5885 95.8979 33.5239 96.2856 33.4908C96.7198 33.451 97.0695 33.4096 97.3346 33.3665C97.5998 33.3201 97.792 33.2554 97.9113 33.1726C98.034 33.0864 98.0953 32.9654 98.0953 32.8097V32.7848C98.0953 32.5296 98.0075 32.3324 97.8318 32.1932C97.6561 32.054 97.4192 31.9844 97.1209 31.9844C96.7994 31.9844 96.5408 32.054 96.3453 32.1932C96.1497 32.3324 96.0255 32.5246 95.9724 32.7699L93.7302 32.6903C93.7965 32.2263 93.9672 31.812 94.2423 31.4474C94.5207 31.0795 94.9019 30.7912 95.3858 30.5824C95.873 30.3703 96.458 30.2642 97.1408 30.2642C97.628 30.2642 98.0771 30.3222 98.4881 30.4382C98.899 30.5509 99.257 30.7166 99.5619 30.9354C99.8668 31.1508 100.102 31.416 100.268 31.7308C100.437 32.0457 100.521 32.4053 100.521 32.8097V38H98.2345V36.9361H98.1748C98.039 37.1946 97.8649 37.4134 97.6528 37.5923C97.444 37.7713 97.1971 37.9055 96.9121 37.995C96.6303 38.0845 96.3122 38.1293 95.9575 38.1293ZM96.7082 36.5384C96.9701 36.5384 97.2054 36.4853 97.4142 36.3793C97.6263 36.2732 97.7953 36.1274 97.9213 35.9418C98.0472 35.7528 98.1102 35.5341 98.1102 35.2855V34.5597C98.0406 34.5961 97.9561 34.6293 97.8567 34.6591C97.7605 34.6889 97.6545 34.7171 97.5385 34.7436C97.4225 34.7701 97.3032 34.7933 97.1805 34.8132C97.0579 34.8331 96.9402 34.8513 96.8275 34.8679C96.5988 34.9044 96.4033 34.9607 96.2409 35.0369C96.0818 35.1132 95.9592 35.2126 95.873 35.3352C95.7901 35.4545 95.7487 35.5971 95.7487 35.7628C95.7487 36.0147 95.8382 36.2069 96.0172 36.3395C96.1995 36.4721 96.4298 36.5384 96.7082 36.5384ZM104.299 27.8182V38H101.868V27.8182H104.299ZM105.706 38V30.3636H108.138V38H105.706ZM106.924 29.4737C106.583 29.4737 106.29 29.361 106.045 29.1357C105.799 28.907 105.677 28.6319 105.677 28.3104C105.677 27.9922 105.799 27.7204 106.045 27.495C106.29 27.2663 106.583 27.152 106.924 27.152C107.269 27.152 107.563 27.2663 107.804 27.495C108.05 27.7204 108.172 27.9922 108.172 28.3104C108.172 28.6319 108.05 28.907 107.804 29.1357C107.563 29.361 107.269 29.4737 106.924 29.4737ZM112.334 38.1094C111.771 38.1094 111.259 37.9635 110.798 37.6719C110.337 37.3802 109.969 36.9427 109.694 36.3594C109.419 35.776 109.281 35.0518 109.281 34.1868C109.281 33.2886 109.424 32.5495 109.709 31.9695C109.994 31.3894 110.367 30.9602 110.828 30.6818C111.292 30.4034 111.79 30.2642 112.324 30.2642C112.725 30.2642 113.068 30.3338 113.353 30.473C113.638 30.6089 113.874 30.7846 114.059 31C114.245 31.2154 114.386 31.4392 114.482 31.6712H114.531V27.8182H116.963V38H114.556V36.7621H114.482C114.379 36.9974 114.233 37.2178 114.044 37.4233C113.855 37.6288 113.618 37.7945 113.333 37.9205C113.052 38.0464 112.719 38.1094 112.334 38.1094ZM113.179 36.2152C113.474 36.2152 113.726 36.1323 113.935 35.9666C114.144 35.7976 114.304 35.5606 114.417 35.2557C114.53 34.9508 114.586 34.5928 114.586 34.1818C114.586 33.7642 114.53 33.4046 114.417 33.103C114.308 32.8014 114.147 32.5694 113.935 32.407C113.726 32.2446 113.474 32.1634 113.179 32.1634C112.878 32.1634 112.622 32.2462 112.414 32.4119C112.205 32.5777 112.046 32.8113 111.936 33.1129C111.83 33.4145 111.777 33.7708 111.777 34.1818C111.777 34.5928 111.832 34.9508 111.941 35.2557C112.051 35.5606 112.208 35.7976 112.414 35.9666C112.622 36.1323 112.878 36.2152 113.179 36.2152ZM120.513 38.1293C120.026 38.1293 119.593 38.0481 119.215 37.8857C118.841 37.7199 118.544 37.4714 118.325 37.1399C118.11 36.8052 118.002 36.3859 118.002 35.8821C118.002 35.4579 118.077 35.0999 118.226 34.8082C118.375 34.5166 118.58 34.2796 118.842 34.0973C119.104 33.915 119.406 33.7775 119.747 33.6847C120.089 33.5885 120.453 33.5239 120.841 33.4908C121.275 33.451 121.625 33.4096 121.89 33.3665C122.155 33.3201 122.347 33.2554 122.467 33.1726C122.589 33.0864 122.651 32.9654 122.651 32.8097V32.7848C122.651 32.5296 122.563 32.3324 122.387 32.1932C122.211 32.054 121.974 31.9844 121.676 31.9844C121.355 31.9844 121.096 32.054 120.901 32.1932C120.705 32.3324 120.581 32.5246 120.528 32.7699L118.285 32.6903C118.352 32.2263 118.522 31.812 118.798 31.4474C119.076 31.0795 119.457 30.7912 119.941 30.5824C120.428 30.3703 121.013 30.2642 121.696 30.2642C122.183 30.2642 122.632 30.3222 123.043 30.4382C123.454 30.5509 123.812 30.7166 124.117 30.9354C124.422 31.1508 124.657 31.416 124.823 31.7308C124.992 32.0457 125.077 32.4053 125.077 32.8097V38H122.79V36.9361H122.73C122.594 37.1946 122.42 37.4134 122.208 37.5923C121.999 37.7713 121.752 37.9055 121.467 37.995C121.186 38.0845 120.867 38.1293 120.513 38.1293ZM121.263 36.5384C121.525 36.5384 121.761 36.4853 121.969 36.3793C122.182 36.2732 122.351 36.1274 122.477 35.9418C122.602 35.7528 122.665 35.5341 122.665 35.2855V34.5597C122.596 34.5961 122.511 34.6293 122.412 34.6591C122.316 34.6889 122.21 34.7171 122.094 34.7436C121.978 34.7701 121.858 34.7933 121.736 34.8132C121.613 34.8331 121.495 34.8513 121.383 34.8679C121.154 34.9044 120.959 34.9607 120.796 35.0369C120.637 35.1132 120.514 35.2126 120.428 35.3352C120.345 35.4545 120.304 35.5971 120.304 35.7628C120.304 36.0147 120.393 36.2069 120.572 36.3395C120.755 36.4721 120.985 36.5384 121.263 36.5384ZM130.734 30.3636V32.1534H125.916V30.3636H130.734ZM126.925 28.5341H129.356V35.5987C129.356 35.7479 129.38 35.8688 129.426 35.9616C129.476 36.0511 129.547 36.1158 129.64 36.1555C129.733 36.192 129.844 36.2102 129.973 36.2102C130.066 36.2102 130.163 36.2019 130.266 36.1854C130.372 36.1655 130.452 36.1489 130.505 36.1357L130.873 37.8906C130.757 37.9238 130.593 37.9652 130.381 38.0149C130.172 38.0646 129.922 38.0961 129.63 38.1094C129.06 38.1359 128.571 38.0696 128.163 37.9105C127.759 37.7481 127.449 37.4962 127.234 37.1548C127.021 36.8134 126.919 36.3842 126.925 35.8672V28.5341ZM131.834 38V30.3636H134.265V38H131.834ZM133.052 29.4737C132.711 29.4737 132.417 29.361 132.172 29.1357C131.927 28.907 131.804 28.6319 131.804 28.3104C131.804 27.9922 131.927 27.7204 132.172 27.495C132.417 27.2663 132.711 27.152 133.052 27.152C133.397 27.152 133.69 27.2663 133.932 27.495C134.177 27.7204 134.3 27.9922 134.3 28.3104C134.3 28.6319 134.177 28.907 133.932 29.1357C133.69 29.361 133.397 29.4737 133.052 29.4737ZM139.237 38.1442C138.435 38.1442 137.746 37.9801 137.169 37.652C136.596 37.3205 136.153 36.8598 135.842 36.2699C135.533 35.6766 135.379 34.9889 135.379 34.2067C135.379 33.4212 135.533 32.7334 135.842 32.1435C136.153 31.5502 136.596 31.0895 137.169 30.7614C137.746 30.4299 138.435 30.2642 139.237 30.2642C140.039 30.2642 140.727 30.4299 141.3 30.7614C141.877 31.0895 142.319 31.5502 142.628 32.1435C142.939 32.7334 143.095 33.4212 143.095 34.2067C143.095 34.9889 142.939 35.6766 142.628 36.2699C142.319 36.8598 141.877 37.3205 141.3 37.652C140.727 37.9801 140.039 38.1442 139.237 38.1442ZM139.252 36.3097C139.544 36.3097 139.791 36.2202 139.993 36.0412C140.195 35.8622 140.349 35.6136 140.455 35.2955C140.565 34.9773 140.619 34.6094 140.619 34.1918C140.619 33.7675 140.565 33.3963 140.455 33.0781C140.349 32.7599 140.195 32.5114 139.993 32.3324C139.791 32.1534 139.544 32.0639 139.252 32.0639C138.95 32.0639 138.695 32.1534 138.486 32.3324C138.281 32.5114 138.123 32.7599 138.014 33.0781C137.908 33.3963 137.855 33.7675 137.855 34.1918C137.855 34.6094 137.908 34.9773 138.014 35.2955C138.123 35.6136 138.281 35.8622 138.486 36.0412C138.695 36.2202 138.95 36.3097 139.252 36.3097ZM146.632 33.6449V38H144.2V30.3636H146.512V31.7656H146.597C146.766 31.2983 147.054 30.9321 147.462 30.6669C147.869 30.3984 148.355 30.2642 148.918 30.2642C149.455 30.2642 149.921 30.3852 150.315 30.6271C150.713 30.8658 151.021 31.2005 151.24 31.6314C151.462 32.0589 151.572 32.5594 151.568 33.1328V38H149.137V33.6101C149.141 33.1858 149.033 32.8544 148.814 32.6158C148.599 32.3771 148.299 32.2578 147.914 32.2578C147.659 32.2578 147.434 32.3142 147.238 32.4268C147.046 32.5362 146.897 32.6937 146.791 32.8991C146.688 33.1046 146.635 33.3532 146.632 33.6449ZM153.237 33.6364C153.237 32.5824 153.379 31.6136 153.663 30.7301C153.947 29.8438 154.39 29.0213 154.992 28.2628H157.012C156.785 28.544 156.573 28.8864 156.377 29.2898C156.181 29.6932 156.011 30.1349 155.866 30.6151C155.724 31.0952 155.612 31.5923 155.529 32.1065C155.45 32.6207 155.41 33.1307 155.41 33.6364C155.41 34.3068 155.48 34.9844 155.619 35.669C155.758 36.3509 155.948 36.9844 156.19 37.5696C156.431 38.152 156.706 38.6307 157.012 39.0057H154.992C154.39 38.2472 153.947 37.4261 153.663 36.5426C153.379 35.6562 153.237 34.6875 153.237 33.6364ZM162.147 38H159.88L162.825 29.2727H165.633L168.577 38H166.31L164.261 31.4716H164.192L162.147 38ZM161.844 34.5653H166.583V36.1676H161.844V34.5653ZM171.506 29.2727V38H169.397V29.2727H171.506ZM176.9 33.6662V35.2727H172.86V33.6662H176.9ZM178.251 40.4545V31.4545H180.313V32.5753H180.377C180.462 32.3764 180.583 32.1847 180.739 32C180.898 31.8153 181.1 31.6648 181.345 31.5483C181.592 31.429 181.887 31.3693 182.231 31.3693C182.685 31.3693 183.11 31.4886 183.505 31.7273C183.903 31.9659 184.224 32.3338 184.468 32.831C184.712 33.3281 184.835 33.9616 184.835 34.7315C184.835 35.473 184.717 36.0938 184.481 36.5938C184.248 37.0938 183.933 37.4688 183.535 37.7188C183.14 37.9688 182.701 38.0938 182.218 38.0938C181.889 38.0938 181.603 38.0398 181.362 37.9318C181.12 37.8239 180.917 37.6818 180.752 37.5057C180.59 37.3295 180.465 37.1406 180.377 36.9389H180.335V40.4545H178.251ZM180.292 34.7273C180.292 35.0795 180.339 35.3864 180.433 35.6477C180.529 35.9091 180.667 36.1122 180.846 36.2571C181.028 36.3991 181.245 36.4702 181.498 36.4702C181.754 36.4702 181.971 36.3991 182.15 36.2571C182.329 36.1122 182.464 35.9091 182.555 35.6477C182.648 35.3864 182.695 35.0795 182.695 34.7273C182.695 34.375 182.648 34.0696 182.555 33.8111C182.464 33.5526 182.329 33.3523 182.15 33.2102C181.974 33.0682 181.756 32.9972 181.498 32.9972C181.242 32.9972 181.025 33.0668 180.846 33.206C180.667 33.3452 180.529 33.544 180.433 33.8026C180.339 34.0611 180.292 34.3693 180.292 34.7273ZM188.862 38.1236C188.174 38.1236 187.584 37.983 187.089 37.7017C186.598 37.4176 186.218 37.0227 185.951 36.517C185.687 36.0085 185.555 35.419 185.555 34.7486C185.555 34.0753 185.687 33.4858 185.951 32.9801C186.218 32.4716 186.598 32.0767 187.089 31.7955C187.584 31.5114 188.174 31.3693 188.862 31.3693C189.549 31.3693 190.139 31.5114 190.63 31.7955C191.125 32.0767 191.504 32.4716 191.768 32.9801C192.035 33.4858 192.169 34.0753 192.169 34.7486C192.169 35.419 192.035 36.0085 191.768 36.517C191.504 37.0227 191.125 37.4176 190.63 37.7017C190.139 37.983 189.549 38.1236 188.862 38.1236ZM188.875 36.5511C189.125 36.5511 189.336 36.4744 189.51 36.321C189.683 36.1676 189.815 35.9545 189.906 35.6818C190 35.4091 190.047 35.0937 190.047 34.7358C190.047 34.3722 190 34.054 189.906 33.7812C189.815 33.5085 189.683 33.2955 189.51 33.142C189.336 32.9886 189.125 32.9119 188.875 32.9119C188.616 32.9119 188.397 32.9886 188.218 33.142C188.042 33.2955 187.907 33.5085 187.814 33.7812C187.723 34.054 187.677 34.3722 187.677 34.7358C187.677 35.0937 187.723 35.4091 187.814 35.6818C187.907 35.9545 188.042 36.1676 188.218 36.321C188.397 36.4744 188.616 36.5511 188.875 36.5511ZM194.199 38L192.494 31.4545H194.586L195.468 35.6477H195.524L196.47 31.4545H198.511L199.483 35.6179H199.538L200.395 31.4545H202.487L200.778 38H198.549L197.527 34.1861H197.454L196.432 38H194.199ZM206.122 38.1236C205.438 38.1236 204.847 37.9886 204.35 37.7188C203.855 37.446 203.475 37.0582 203.208 36.5554C202.943 36.0497 202.811 35.4489 202.811 34.7528C202.811 34.0767 202.945 33.4858 203.212 32.9801C203.479 32.4716 203.855 32.0767 204.341 31.7955C204.827 31.5114 205.399 31.3693 206.058 31.3693C206.524 31.3693 206.95 31.4418 207.337 31.5866C207.723 31.7315 208.057 31.946 208.338 32.2301C208.619 32.5142 208.838 32.8651 208.994 33.2827C209.151 33.6974 209.229 34.1733 209.229 34.7102V35.2301H203.54V34.0199H207.29C207.287 33.7983 207.235 33.6009 207.132 33.4276C207.03 33.2543 206.889 33.1193 206.71 33.0227C206.534 32.9233 206.331 32.8736 206.101 32.8736C205.868 32.8736 205.659 32.9261 205.475 33.0312C205.29 33.1335 205.144 33.2741 205.036 33.4531C204.928 33.6293 204.871 33.8295 204.865 34.054V35.2855C204.865 35.5526 204.918 35.7869 205.023 35.9886C205.128 36.1875 205.277 36.3423 205.47 36.4531C205.663 36.5639 205.894 36.6193 206.161 36.6193C206.345 36.6193 206.513 36.5937 206.663 36.5426C206.814 36.4915 206.943 36.4162 207.051 36.3168C207.159 36.2173 207.24 36.0952 207.294 35.9503L209.208 36.0057C209.128 36.4347 208.953 36.8082 208.683 37.1264C208.416 37.4418 208.065 37.6875 207.631 37.8636C207.196 38.0369 206.693 38.1236 206.122 38.1236ZM210.173 38V31.4545H212.197V32.6477H212.265C212.385 32.2159 212.579 31.8949 212.849 31.6847C213.119 31.4716 213.433 31.3651 213.791 31.3651C213.888 31.3651 213.987 31.3722 214.089 31.3864C214.192 31.3977 214.287 31.4162 214.375 31.4418V33.2528C214.275 33.2187 214.145 33.1918 213.983 33.1719C213.824 33.152 213.682 33.142 213.557 33.142C213.309 33.142 213.086 33.1974 212.888 33.3082C212.692 33.4162 212.537 33.5682 212.423 33.7642C212.312 33.9574 212.257 34.1847 212.257 34.446V38H210.173ZM217.824 38.1236C217.139 38.1236 216.548 37.9886 216.051 37.7188C215.557 37.446 215.176 37.0582 214.909 36.5554C214.645 36.0497 214.513 35.4489 214.513 34.7528C214.513 34.0767 214.646 33.4858 214.913 32.9801C215.18 32.4716 215.557 32.0767 216.042 31.7955C216.528 31.5114 217.101 31.3693 217.76 31.3693C218.226 31.3693 218.652 31.4418 219.038 31.5866C219.425 31.7315 219.758 31.946 220.04 32.2301C220.321 32.5142 220.54 32.8651 220.696 33.2827C220.852 33.6974 220.93 34.1733 220.93 34.7102V35.2301H215.241V34.0199H218.991C218.988 33.7983 218.936 33.6009 218.834 33.4276C218.731 33.2543 218.591 33.1193 218.412 33.0227C218.236 32.9233 218.032 32.8736 217.802 32.8736C217.569 32.8736 217.361 32.9261 217.176 33.0312C216.991 33.1335 216.845 33.2741 216.737 33.4531C216.629 33.6293 216.572 33.8295 216.567 34.054V35.2855C216.567 35.5526 216.619 35.7869 216.724 35.9886C216.829 36.1875 216.979 36.3423 217.172 36.4531C217.365 36.5639 217.595 36.6193 217.862 36.6193C218.047 36.6193 218.214 36.5937 218.365 36.5426C218.515 36.4915 218.645 36.4162 218.753 36.3168C218.861 36.2173 218.942 36.0952 218.996 35.9503L220.909 36.0057C220.829 36.4347 220.655 36.8082 220.385 37.1264C220.118 37.4418 219.767 37.6875 219.332 37.8636C218.898 38.0369 218.395 38.1236 217.824 38.1236ZM224.265 38.0938C223.782 38.0938 223.343 37.9688 222.948 37.7188C222.553 37.4688 222.238 37.0938 222.002 36.5938C221.767 36.0938 221.649 35.473 221.649 34.7315C221.649 33.9616 221.771 33.3281 222.015 32.831C222.259 32.3338 222.579 31.9659 222.974 31.7273C223.372 31.4886 223.799 31.3693 224.257 31.3693C224.6 31.3693 224.894 31.429 225.139 31.5483C225.383 31.6648 225.585 31.8153 225.744 32C225.903 32.1847 226.024 32.3764 226.106 32.5753H226.149V29.2727H228.232V38H226.17V36.9389H226.106C226.018 37.1406 225.893 37.3295 225.731 37.5057C225.569 37.6818 225.366 37.8239 225.122 37.9318C224.88 38.0398 224.595 38.0938 224.265 38.0938ZM224.99 36.4702C225.242 36.4702 225.458 36.3991 225.637 36.2571C225.816 36.1122 225.954 35.9091 226.051 35.6477C226.147 35.3864 226.196 35.0795 226.196 34.7273C226.196 34.3693 226.147 34.0611 226.051 33.8026C225.957 33.544 225.819 33.3452 225.637 33.206C225.458 33.0668 225.242 32.9972 224.99 32.9972C224.731 32.9972 224.512 33.0682 224.333 33.2102C224.154 33.3523 224.018 33.5526 223.924 33.8111C223.833 34.0696 223.788 34.375 223.788 34.7273C223.788 35.0795 223.835 35.3864 223.928 35.6477C224.022 35.9091 224.157 36.1122 224.333 36.2571C224.512 36.3991 224.731 36.4702 224.99 36.4702ZM232.792 34.5653C232.792 35.6165 232.65 36.5852 232.366 37.4716C232.082 38.3551 231.639 39.1761 231.037 39.9347H229.017C229.247 39.6534 229.459 39.3111 229.652 38.9077C229.848 38.5043 230.017 38.0625 230.159 37.5824C230.304 37.1023 230.416 36.6051 230.496 36.0909C230.578 35.5767 230.619 35.0682 230.619 34.5653C230.619 33.892 230.55 33.2145 230.41 32.5327C230.271 31.848 230.081 31.2145 229.839 30.6321C229.598 30.0469 229.324 29.5668 229.017 29.1918H231.037C231.639 29.9503 232.082 30.7727 232.366 31.6591C232.65 32.5426 232.792 33.5114 232.792 34.5653Z" fill="white"/>
<path d="M32.0795 59H31.0227C30.9602 58.696 30.8509 58.429 30.6946 58.1989C30.5412 57.9688 30.3537 57.7756 30.1321 57.6193C29.9134 57.4602 29.6705 57.3409 29.4034 57.2614C29.1364 57.1818 28.858 57.142 28.5682 57.142C28.0398 57.142 27.5611 57.2756 27.1321 57.5426C26.706 57.8097 26.3665 58.2031 26.1136 58.723C25.8636 59.2429 25.7386 59.8807 25.7386 60.6364C25.7386 61.392 25.8636 62.0298 26.1136 62.5497C26.3665 63.0696 26.706 63.4631 27.1321 63.7301C27.5611 63.9972 28.0398 64.1307 28.5682 64.1307C28.858 64.1307 29.1364 64.0909 29.4034 64.0114C29.6705 63.9318 29.9134 63.8139 30.1321 63.6577C30.3537 63.4986 30.5412 63.304 30.6946 63.0739C30.8509 62.8409 30.9602 62.5739 31.0227 62.2727H32.0795C32 62.7187 31.8551 63.1179 31.6449 63.4702C31.4347 63.8224 31.1733 64.1222 30.8608 64.3693C30.5483 64.6136 30.1974 64.7997 29.8082 64.9276C29.4219 65.0554 29.0085 65.1193 28.5682 65.1193C27.8239 65.1193 27.1619 64.9375 26.5824 64.5739C26.0028 64.2102 25.5469 63.6932 25.2145 63.0227C24.8821 62.3523 24.7159 61.5568 24.7159 60.6364C24.7159 59.7159 24.8821 58.9205 25.2145 58.25C25.5469 57.5795 26.0028 57.0625 26.5824 56.6989C27.1619 56.3352 27.8239 56.1534 28.5682 56.1534C29.0085 56.1534 29.4219 56.2173 29.8082 56.3452C30.1974 56.473 30.5483 56.6605 30.8608 56.9077C31.1733 57.152 31.4347 57.4503 31.6449 57.8026C31.8551 58.152 32 58.5511 32.0795 59ZM36.19 65.1364C35.5991 65.1364 35.0806 64.9957 34.6346 64.7145C34.1914 64.4332 33.8448 64.0398 33.5948 63.5341C33.3477 63.0284 33.2241 62.4375 33.2241 61.7614C33.2241 61.0795 33.3477 60.4844 33.5948 59.9759C33.8448 59.4673 34.1914 59.0724 34.6346 58.7912C35.0806 58.5099 35.5991 58.3693 36.19 58.3693C36.7809 58.3693 37.298 58.5099 37.7412 58.7912C38.1872 59.0724 38.5338 59.4673 38.7809 59.9759C39.0309 60.4844 39.1559 61.0795 39.1559 61.7614C39.1559 62.4375 39.0309 63.0284 38.7809 63.5341C38.5338 64.0398 38.1872 64.4332 37.7412 64.7145C37.298 64.9957 36.7809 65.1364 36.19 65.1364ZM36.19 64.233C36.6389 64.233 37.0082 64.1179 37.298 63.8878C37.5877 63.6577 37.8022 63.3551 37.9414 62.9801C38.0806 62.6051 38.1502 62.1989 38.1502 61.7614C38.1502 61.3239 38.0806 60.9162 37.9414 60.5384C37.8022 60.1605 37.5877 59.8551 37.298 59.6222C37.0082 59.3892 36.6389 59.2727 36.19 59.2727C35.7412 59.2727 35.3718 59.3892 35.0821 59.6222C34.7923 59.8551 34.5778 60.1605 34.4386 60.5384C34.2994 60.9162 34.2298 61.3239 34.2298 61.7614C34.2298 62.1989 34.2994 62.6051 34.4386 62.9801C34.5778 63.3551 34.7923 63.6577 35.0821 63.8878C35.3718 64.1179 35.7412 64.233 36.19 64.233ZM41.5768 61.0625V65H40.5711V58.4545H41.5427V59.4773H41.6279C41.7813 59.1449 42.0143 58.8778 42.3268 58.6761C42.6393 58.4716 43.0427 58.3693 43.537 58.3693C43.9802 58.3693 44.368 58.4602 44.7003 58.642C45.0327 58.821 45.2913 59.0938 45.4759 59.4602C45.6606 59.8239 45.7529 60.2841 45.7529 60.8409V65H44.7472V60.9091C44.7472 60.3949 44.6137 59.9943 44.3466 59.7074C44.0796 59.4176 43.7131 59.2727 43.2472 59.2727C42.9262 59.2727 42.6393 59.3423 42.3864 59.4815C42.1364 59.6207 41.939 59.8239 41.7941 60.0909C41.6492 60.358 41.5768 60.6818 41.5768 61.0625ZM49.9422 65.1364C49.3967 65.1364 48.9152 64.9986 48.4976 64.723C48.08 64.4446 47.7533 64.0526 47.5175 63.5469C47.2817 63.0384 47.1638 62.4375 47.1638 61.7443C47.1638 61.0568 47.2817 60.4602 47.5175 59.9545C47.7533 59.4489 48.0814 59.0582 48.5019 58.7827C48.9223 58.5071 49.4081 58.3693 49.9592 58.3693C50.3854 58.3693 50.722 58.4403 50.9692 58.5824C51.2192 58.7216 51.4095 58.8807 51.5402 59.0597C51.6737 59.2358 51.7774 59.3807 51.8513 59.4943H51.9365V56.2727H52.9422V65H51.9706V63.9943H51.8513C51.7774 64.1136 51.6723 64.2642 51.536 64.446C51.3996 64.625 51.205 64.7855 50.9521 64.9276C50.6993 65.0668 50.3627 65.1364 49.9422 65.1364ZM50.0786 64.233C50.482 64.233 50.8229 64.1278 51.1013 63.9176C51.3797 63.7045 51.5913 63.4105 51.7362 63.0355C51.8811 62.6577 51.9536 62.2216 51.9536 61.7273C51.9536 61.2386 51.8825 60.8111 51.7405 60.4446C51.5985 60.0753 51.3882 59.7884 51.1098 59.5838C50.8314 59.3764 50.4877 59.2727 50.0786 59.2727C49.6524 59.2727 49.2973 59.3821 49.0132 59.6009C48.732 59.8168 48.5203 60.1108 48.3783 60.483C48.2391 60.8523 48.1695 61.267 48.1695 61.7273C48.1695 62.1932 48.2405 62.6165 48.3825 62.9972C48.5274 63.375 48.7405 63.6761 49.0217 63.9006C49.3058 64.1222 49.6581 64.233 50.0786 64.233ZM54.8037 65V58.4545H55.8094V65H54.8037ZM55.3151 57.3636C55.1191 57.3636 54.95 57.2969 54.808 57.1634C54.6688 57.0298 54.5992 56.8693 54.5992 56.6818C54.5992 56.4943 54.6688 56.3338 54.808 56.2003C54.95 56.0668 55.1191 56 55.3151 56C55.5111 56 55.6787 56.0668 55.8179 56.2003C55.96 56.3338 56.031 56.4943 56.031 56.6818C56.031 56.8693 55.96 57.0298 55.8179 57.1634C55.6787 57.2969 55.5111 57.3636 55.3151 57.3636ZM60.378 58.4545V59.3068H56.9859V58.4545H60.378ZM57.9746 56.8864H58.9803V63.125C58.9803 63.4091 59.0215 63.6222 59.1038 63.7642C59.1891 63.9034 59.297 63.9972 59.4277 64.0455C59.5612 64.0909 59.7018 64.1136 59.8496 64.1136C59.9604 64.1136 60.0513 64.108 60.1223 64.0966C60.1933 64.0824 60.2501 64.071 60.2928 64.0625L60.4973 64.9659C60.4291 64.9915 60.334 65.017 60.2118 65.0426C60.0896 65.071 59.9348 65.0852 59.7473 65.0852C59.4632 65.0852 59.1848 65.0241 58.9121 64.902C58.6422 64.7798 58.4178 64.5938 58.2388 64.3438C58.0626 64.0938 57.9746 63.7784 57.9746 63.3977V56.8864ZM61.7708 65V58.4545H62.7764V65H61.7708ZM62.2821 57.3636C62.0861 57.3636 61.9171 57.2969 61.775 57.1634C61.6358 57.0298 61.5662 56.8693 61.5662 56.6818C61.5662 56.4943 61.6358 56.3338 61.775 56.2003C61.9171 56.0668 62.0861 56 62.2821 56C62.4782 56 62.6458 56.0668 62.785 56.2003C62.927 56.3338 62.998 56.4943 62.998 56.6818C62.998 56.8693 62.927 57.0298 62.785 57.1634C62.6458 57.2969 62.4782 57.3636 62.2821 57.3636ZM67.1575 65.1364C66.5666 65.1364 66.0481 64.9957 65.6021 64.7145C65.1589 64.4332 64.8123 64.0398 64.5623 63.5341C64.3152 63.0284 64.1916 62.4375 64.1916 61.7614C64.1916 61.0795 64.3152 60.4844 64.5623 59.9759C64.8123 59.4673 65.1589 59.0724 65.6021 58.7912C66.0481 58.5099 66.5666 58.3693 67.1575 58.3693C67.7484 58.3693 68.2655 58.5099 68.7087 58.7912C69.1547 59.0724 69.5013 59.4673 69.7484 59.9759C69.9984 60.4844 70.1234 61.0795 70.1234 61.7614C70.1234 62.4375 69.9984 63.0284 69.7484 63.5341C69.5013 64.0398 69.1547 64.4332 68.7087 64.7145C68.2655 64.9957 67.7484 65.1364 67.1575 65.1364ZM67.1575 64.233C67.6064 64.233 67.9757 64.1179 68.2655 63.8878C68.5552 63.6577 68.7697 63.3551 68.9089 62.9801C69.0481 62.6051 69.1177 62.1989 69.1177 61.7614C69.1177 61.3239 69.0481 60.9162 68.9089 60.5384C68.7697 60.1605 68.5552 59.8551 68.2655 59.6222C67.9757 59.3892 67.6064 59.2727 67.1575 59.2727C66.7087 59.2727 66.3393 59.3892 66.0496 59.6222C65.7598 59.8551 65.5453 60.1605 65.4061 60.5384C65.2669 60.9162 65.1973 61.3239 65.1973 61.7614C65.1973 62.1989 65.2669 62.6051 65.4061 62.9801C65.5453 63.3551 65.7598 63.6577 66.0496 63.8878C66.3393 64.1179 66.7087 64.233 67.1575 64.233ZM72.5443 61.0625V65H71.5386V58.4545H72.5102V59.4773H72.5954C72.7488 59.1449 72.9818 58.8778 73.2943 58.6761C73.6068 58.4716 74.0102 58.3693 74.5045 58.3693C74.9477 58.3693 75.3355 58.4602 75.6678 58.642C76.0002 58.821 76.2588 59.0938 76.4434 59.4602C76.6281 59.8239 76.7204 60.2841 76.7204 60.8409V65H75.7147V60.9091C75.7147 60.3949 75.5812 59.9943 75.3141 59.7074C75.0471 59.4176 74.6806 59.2727 74.2147 59.2727C73.8937 59.2727 73.6068 59.3423 73.3539 59.4815C73.1039 59.6207 72.9065 59.8239 72.7616 60.0909C72.6167 60.358 72.5443 60.6818 72.5443 61.0625ZM80.3642 65.1534C79.9495 65.1534 79.5731 65.0753 79.235 64.919C78.8969 64.7599 78.6284 64.5312 78.4296 64.233C78.2307 63.9318 78.1313 63.5682 78.1313 63.142C78.1313 62.767 78.2052 62.4631 78.3529 62.2301C78.5006 61.9943 78.6981 61.8097 78.9452 61.6761C79.1924 61.5426 79.4651 61.4432 79.7634 61.3778C80.0645 61.3097 80.3671 61.2557 80.6711 61.2159C81.0688 61.1648 81.3912 61.1264 81.6384 61.1009C81.8884 61.0724 82.0702 61.0256 82.1838 60.9602C82.3003 60.8949 82.3586 60.7812 82.3586 60.6193V60.5852C82.3586 60.1648 82.2435 59.8381 82.0134 59.6051C81.7861 59.3722 81.441 59.2557 80.9779 59.2557C80.4978 59.2557 80.1213 59.3608 79.8486 59.571C79.5759 59.7812 79.3841 60.0057 79.2733 60.2443L78.3188 59.9034C78.4892 59.5057 78.7165 59.196 79.0006 58.9744C79.2875 58.75 79.6 58.5937 79.9381 58.5057C80.279 58.4148 80.6142 58.3693 80.9438 58.3693C81.154 58.3693 81.3955 58.3949 81.6682 58.446C81.9438 58.4943 82.2094 58.5952 82.4651 58.7486C82.7236 58.902 82.9381 59.1335 83.1086 59.4432C83.279 59.7528 83.3642 60.1676 83.3642 60.6875V65H82.3586V64.1136H82.3074C82.2392 64.2557 82.1256 64.4077 81.9665 64.5696C81.8074 64.7315 81.5958 64.8693 81.3316 64.983C81.0674 65.0966 80.7449 65.1534 80.3642 65.1534ZM80.5177 64.25C80.9154 64.25 81.2506 64.1719 81.5233 64.0156C81.7989 63.8594 82.0063 63.6577 82.1455 63.4105C82.2875 63.1634 82.3586 62.9034 82.3586 62.6307V61.7102C82.316 61.7614 82.2222 61.8082 82.0773 61.8509C81.9353 61.8906 81.7705 61.9261 81.583 61.9574C81.3983 61.9858 81.2179 62.0114 81.0418 62.0341C80.8685 62.054 80.7279 62.071 80.6199 62.0852C80.3586 62.1193 80.1142 62.1747 79.887 62.2514C79.6625 62.3253 79.4807 62.4375 79.3415 62.5881C79.2052 62.7358 79.137 62.9375 79.137 63.1932C79.137 63.5426 79.2662 63.8068 79.5248 63.9858C79.7861 64.1619 80.1171 64.25 80.5177 64.25ZM86.0855 56.2727V65H85.0798V56.2727H86.0855ZM92.9886 65.1534C92.5738 65.1534 92.1974 65.0753 91.8594 64.919C91.5213 64.7599 91.2528 64.5312 91.054 64.233C90.8551 63.9318 90.7557 63.5682 90.7557 63.142C90.7557 62.767 90.8295 62.4631 90.9773 62.2301C91.125 61.9943 91.3224 61.8097 91.5696 61.6761C91.8167 61.5426 92.0895 61.4432 92.3878 61.3778C92.6889 61.3097 92.9915 61.2557 93.2954 61.2159C93.6932 61.1648 94.0156 61.1264 94.2628 61.1009C94.5128 61.0724 94.6946 61.0256 94.8082 60.9602C94.9247 60.8949 94.9829 60.7812 94.9829 60.6193V60.5852C94.9829 60.1648 94.8679 59.8381 94.6378 59.6051C94.4105 59.3722 94.0653 59.2557 93.6023 59.2557C93.1221 59.2557 92.7457 59.3608 92.473 59.571C92.2003 59.7812 92.0085 60.0057 91.8977 60.2443L90.9432 59.9034C91.1136 59.5057 91.3409 59.196 91.625 58.9744C91.9119 58.75 92.2244 58.5937 92.5625 58.5057C92.9034 58.4148 93.2386 58.3693 93.5682 58.3693C93.7784 58.3693 94.0199 58.3949 94.2926 58.446C94.5682 58.4943 94.8338 58.5952 95.0895 58.7486C95.348 58.902 95.5625 59.1335 95.7329 59.4432C95.9034 59.7528 95.9886 60.1676 95.9886 60.6875V65H94.9829V64.1136H94.9318C94.8636 64.2557 94.75 64.4077 94.5909 64.5696C94.4318 64.7315 94.2202 64.8693 93.9559 64.983C93.6917 65.0966 93.3693 65.1534 92.9886 65.1534ZM93.142 64.25C93.5398 64.25 93.875 64.1719 94.1477 64.0156C94.4233 63.8594 94.6307 63.6577 94.7699 63.4105C94.9119 63.1634 94.9829 62.9034 94.9829 62.6307V61.7102C94.9403 61.7614 94.8466 61.8082 94.7017 61.8509C94.5596 61.8906 94.3949 61.9261 94.2074 61.9574C94.0227 61.9858 93.8423 62.0114 93.6662 62.0341C93.4929 62.054 93.3523 62.071 93.2443 62.0852C92.9829 62.1193 92.7386 62.1747 92.5113 62.2514C92.2869 62.3253 92.1051 62.4375 91.9659 62.5881C91.8295 62.7358 91.7613 62.9375 91.7613 63.1932C91.7613 63.5426 91.8906 63.8068 92.1491 63.9858C92.4105 64.1619 92.7415 64.25 93.142 64.25ZM100.363 65.1364C99.7497 65.1364 99.2213 64.9915 98.7781 64.7017C98.3349 64.4119 97.994 64.0128 97.7553 63.5043C97.5167 62.9957 97.3974 62.4148 97.3974 61.7614C97.3974 61.0966 97.5195 60.5099 97.7639 60.0014C98.011 59.4901 98.3548 59.0909 98.7951 58.804C99.2383 58.5142 99.7553 58.3693 100.346 58.3693C100.806 58.3693 101.221 58.4545 101.591 58.625C101.96 58.7955 102.262 59.0341 102.498 59.3409C102.734 59.6477 102.88 60.0057 102.937 60.4148H101.931C101.855 60.1165 101.684 59.8523 101.42 59.6222C101.159 59.3892 100.806 59.2727 100.363 59.2727C99.9713 59.2727 99.6275 59.375 99.332 59.5795C99.0394 59.7812 98.8107 60.0668 98.646 60.4361C98.484 60.8026 98.4031 61.233 98.4031 61.7273C98.4031 62.233 98.4826 62.6733 98.6417 63.0483C98.8036 63.4233 99.0309 63.7145 99.3235 63.9219C99.619 64.1293 99.9656 64.233 100.363 64.233C100.625 64.233 100.862 64.1875 101.075 64.0966C101.288 64.0057 101.468 63.875 101.616 63.7045C101.764 63.5341 101.869 63.3295 101.931 63.0909H102.937C102.88 63.4773 102.74 63.8253 102.515 64.1349C102.294 64.4418 102 64.6861 101.633 64.8679C101.27 65.0469 100.846 65.1364 100.363 65.1364ZM106.946 65.1364C106.333 65.1364 105.804 64.9915 105.361 64.7017C104.918 64.4119 104.577 64.0128 104.338 63.5043C104.1 62.9957 103.981 62.4148 103.981 61.7614C103.981 61.0966 104.103 60.5099 104.347 60.0014C104.594 59.4901 104.938 59.0909 105.378 58.804C105.821 58.5142 106.338 58.3693 106.929 58.3693C107.39 58.3693 107.804 58.4545 108.174 58.625C108.543 58.7955 108.846 59.0341 109.081 59.3409C109.317 59.6477 109.463 60.0057 109.52 60.4148H108.515C108.438 60.1165 108.267 59.8523 108.003 59.6222C107.742 59.3892 107.39 59.2727 106.946 59.2727C106.554 59.2727 106.211 59.375 105.915 59.5795C105.623 59.7812 105.394 60.0668 105.229 60.4361C105.067 60.8026 104.986 61.233 104.986 61.7273C104.986 62.233 105.066 62.6733 105.225 63.0483C105.387 63.4233 105.614 63.7145 105.907 63.9219C106.202 64.1293 106.549 64.233 106.946 64.233C107.208 64.233 107.445 64.1875 107.658 64.0966C107.871 64.0057 108.052 63.875 108.199 63.7045C108.347 63.5341 108.452 63.3295 108.515 63.0909H109.52C109.463 63.4773 109.323 63.8253 109.098 64.1349C108.877 64.4418 108.583 64.6861 108.216 64.8679C107.853 65.0469 107.429 65.1364 106.946 65.1364ZM113.615 65.1364C112.984 65.1364 112.44 64.9972 111.983 64.7188C111.528 64.4375 111.177 64.0455 110.93 63.5426C110.686 63.0369 110.564 62.4489 110.564 61.7784C110.564 61.108 110.686 60.517 110.93 60.0057C111.177 59.4915 111.521 59.0909 111.961 58.804C112.405 58.5142 112.922 58.3693 113.512 58.3693C113.853 58.3693 114.19 58.4261 114.522 58.5398C114.855 58.6534 115.157 58.8381 115.43 59.0938C115.703 59.3466 115.92 59.6818 116.082 60.0994C116.244 60.517 116.325 61.0312 116.325 61.642V62.0682H111.28V61.1989H115.302C115.302 60.8295 115.228 60.5 115.081 60.2102C114.936 59.9205 114.728 59.6918 114.459 59.5241C114.191 59.3565 113.876 59.2727 113.512 59.2727C113.112 59.2727 112.765 59.3722 112.473 59.571C112.183 59.767 111.96 60.0227 111.804 60.3381C111.647 60.6534 111.569 60.9915 111.569 61.3523V61.9318C111.569 62.4261 111.655 62.8452 111.825 63.1889C111.998 63.5298 112.238 63.7898 112.545 63.9688C112.852 64.1449 113.209 64.233 113.615 64.233C113.879 64.233 114.118 64.196 114.331 64.1222C114.547 64.0455 114.733 63.9318 114.889 63.7812C115.045 63.6278 115.166 63.4375 115.251 63.2102L116.223 63.483C116.12 63.8125 115.949 64.1023 115.707 64.3523C115.466 64.5994 115.167 64.7926 114.812 64.9318C114.457 65.0682 114.058 65.1364 113.615 65.1364ZM122.371 59.9205L121.468 60.1761C121.411 60.0256 121.327 59.8793 121.216 59.7372C121.108 59.5923 120.961 59.473 120.773 59.3793C120.586 59.2855 120.346 59.2386 120.053 59.2386C119.652 59.2386 119.319 59.331 119.052 59.5156C118.787 59.6974 118.655 59.929 118.655 60.2102C118.655 60.4602 118.746 60.6577 118.928 60.8026C119.11 60.9474 119.394 61.0682 119.78 61.1648L120.752 61.4034C121.337 61.5455 121.773 61.7628 122.06 62.0554C122.347 62.3452 122.491 62.7187 122.491 63.1761C122.491 63.5511 122.383 63.8864 122.167 64.1818C121.954 64.4773 121.655 64.7102 121.272 64.8807C120.888 65.0511 120.442 65.1364 119.934 65.1364C119.266 65.1364 118.714 64.9915 118.276 64.7017C117.839 64.4119 117.562 63.9886 117.445 63.4318L118.4 63.1932C118.491 63.5455 118.662 63.8097 118.915 63.9858C119.171 64.1619 119.505 64.25 119.917 64.25C120.385 64.25 120.758 64.1506 121.033 63.9517C121.312 63.75 121.451 63.5085 121.451 63.2273C121.451 63 121.371 62.8097 121.212 62.6562C121.053 62.5 120.809 62.3835 120.479 62.3068L119.388 62.0511C118.789 61.9091 118.348 61.6889 118.067 61.3906C117.789 61.0895 117.65 60.7131 117.65 60.2614C117.65 59.892 117.753 59.5653 117.961 59.2812C118.171 58.9972 118.456 58.7741 118.817 58.6122C119.181 58.4503 119.593 58.3693 120.053 58.3693C120.701 58.3693 121.209 58.5114 121.579 58.7955C121.951 59.0795 122.215 59.4545 122.371 59.9205ZM128.521 59.9205L127.617 60.1761C127.56 60.0256 127.477 59.8793 127.366 59.7372C127.258 59.5923 127.11 59.473 126.923 59.3793C126.735 59.2855 126.495 59.2386 126.203 59.2386C125.802 59.2386 125.468 59.331 125.201 59.5156C124.937 59.6974 124.805 59.929 124.805 60.2102C124.805 60.4602 124.896 60.6577 125.078 60.8026C125.259 60.9474 125.543 61.0682 125.93 61.1648L126.901 61.4034C127.487 61.5455 127.923 61.7628 128.21 62.0554C128.497 62.3452 128.64 62.7187 128.64 63.1761C128.64 63.5511 128.532 63.8864 128.316 64.1818C128.103 64.4773 127.805 64.7102 127.421 64.8807C127.038 65.0511 126.592 65.1364 126.083 65.1364C125.416 65.1364 124.863 64.9915 124.426 64.7017C123.988 64.4119 123.711 63.9886 123.595 63.4318L124.549 63.1932C124.64 63.5455 124.812 63.8097 125.065 63.9858C125.32 64.1619 125.654 64.25 126.066 64.25C126.535 64.25 126.907 64.1506 127.183 63.9517C127.461 63.75 127.6 63.5085 127.6 63.2273C127.6 63 127.521 62.8097 127.362 62.6562C127.203 62.5 126.958 62.3835 126.629 62.3068L125.538 62.0511C124.938 61.9091 124.498 61.6889 124.217 61.3906C123.938 61.0895 123.799 60.7131 123.799 60.2614C123.799 59.892 123.903 59.5653 124.11 59.2812C124.32 58.9972 124.606 58.7741 124.967 58.6122C125.33 58.4503 125.742 58.3693 126.203 58.3693C126.85 58.3693 127.359 58.5114 127.728 58.7955C128.1 59.0795 128.364 59.4545 128.521 59.9205ZM130.034 65V58.4545H131.04V65H130.034ZM130.545 57.3636C130.349 57.3636 130.18 57.2969 130.038 57.1634C129.899 57.0298 129.829 56.8693 129.829 56.6818C129.829 56.4943 129.899 56.3338 130.038 56.2003C130.18 56.0668 130.349 56 130.545 56C130.741 56 130.909 56.0668 131.048 56.2003C131.19 56.3338 131.261 56.4943 131.261 56.6818C131.261 56.8693 131.19 57.0298 131.048 57.1634C130.909 57.2969 130.741 57.3636 130.545 57.3636ZM132.898 65V56.2727H133.904V59.4943H133.989C134.063 59.3807 134.165 59.2358 134.296 59.0597C134.429 58.8807 134.62 58.7216 134.867 58.5824C135.117 58.4403 135.455 58.3693 135.881 58.3693C136.432 58.3693 136.918 58.5071 137.338 58.7827C137.759 59.0582 138.087 59.4489 138.323 59.9545C138.558 60.4602 138.676 61.0568 138.676 61.7443C138.676 62.4375 138.558 63.0384 138.323 63.5469C138.087 64.0526 137.76 64.4446 137.343 64.723C136.925 64.9986 136.443 65.1364 135.898 65.1364C135.477 65.1364 135.141 65.0668 134.888 64.9276C134.635 64.7855 134.441 64.625 134.304 64.446C134.168 64.2642 134.063 64.1136 133.989 63.9943H133.87V65H132.898ZM133.887 61.7273C133.887 62.2216 133.959 62.6577 134.104 63.0355C134.249 63.4105 134.46 63.7045 134.739 63.9176C135.017 64.1278 135.358 64.233 135.762 64.233C136.182 64.233 136.533 64.1222 136.814 63.9006C137.098 63.6761 137.311 63.375 137.453 62.9972C137.598 62.6165 137.671 62.1932 137.671 61.7273C137.671 61.267 137.6 60.8523 137.458 60.483C137.318 60.1108 137.107 59.8168 136.823 59.6009C136.541 59.3821 136.188 59.2727 135.762 59.2727C135.352 59.2727 135.009 59.3764 134.73 59.5838C134.452 59.7884 134.242 60.0753 134.1 60.4446C133.958 60.8111 133.887 61.2386 133.887 61.7273ZM140.095 65V58.4545H141.1V65H140.095ZM140.606 57.3636C140.41 57.3636 140.241 57.2969 140.099 57.1634C139.96 57.0298 139.89 56.8693 139.89 56.6818C139.89 56.4943 139.96 56.3338 140.099 56.2003C140.241 56.0668 140.41 56 140.606 56C140.802 56 140.97 56.0668 141.109 56.2003C141.251 56.3338 141.322 56.4943 141.322 56.6818C141.322 56.8693 141.251 57.0298 141.109 57.1634C140.97 57.2969 140.802 57.3636 140.606 57.3636ZM143.828 56.2727V65H142.822V56.2727H143.828ZM145.55 65V58.4545H146.556V65H145.55ZM146.061 57.3636C145.865 57.3636 145.696 57.2969 145.554 57.1634C145.415 57.0298 145.345 56.8693 145.345 56.6818C145.345 56.4943 145.415 56.3338 145.554 56.2003C145.696 56.0668 145.865 56 146.061 56C146.257 56 146.425 56.0668 146.564 56.2003C146.706 56.3338 146.777 56.4943 146.777 56.6818C146.777 56.8693 146.706 57.0298 146.564 57.1634C146.425 57.2969 146.257 57.3636 146.061 57.3636ZM151.124 58.4545V59.3068H147.732V58.4545H151.124ZM148.721 56.8864H149.727V63.125C149.727 63.4091 149.768 63.6222 149.85 63.7642C149.935 63.9034 150.043 63.9972 150.174 64.0455C150.307 64.0909 150.448 64.1136 150.596 64.1136C150.707 64.1136 150.798 64.108 150.869 64.0966C150.94 64.0824 150.996 64.071 151.039 64.0625L151.244 64.9659C151.175 64.9915 151.08 65.017 150.958 65.0426C150.836 65.071 150.681 65.0852 150.494 65.0852C150.209 65.0852 149.931 65.0241 149.658 64.902C149.388 64.7798 149.164 64.5938 148.985 64.3438C148.809 64.0938 148.721 63.7784 148.721 63.3977V56.8864ZM153.165 67.4545C152.994 67.4545 152.842 67.4403 152.709 67.4119C152.575 67.3864 152.483 67.3608 152.432 67.3352L152.687 66.4489C152.932 66.5114 153.148 66.5341 153.335 66.517C153.523 66.5 153.689 66.4162 153.834 66.2656C153.982 66.1179 154.116 65.8778 154.239 65.5455L154.426 65.0341L152.006 58.4545H153.097L154.903 63.6705H154.972L156.778 58.4545H157.869L155.091 65.9545C154.966 66.2926 154.811 66.5724 154.626 66.794C154.442 67.0185 154.227 67.1847 153.983 67.2926C153.741 67.4006 153.469 67.4545 153.165 67.4545ZM163.815 65L161.82 58.4545H162.877L164.292 63.4659H164.36L165.758 58.4545H166.832L168.212 63.4489H168.281L169.695 58.4545H170.752L168.758 65H167.769L166.337 59.9716H166.235L164.803 65H163.815ZM171.962 65V58.4545H172.967V65H171.962ZM172.473 57.3636C172.277 57.3636 172.108 57.2969 171.966 57.1634C171.827 57.0298 171.757 56.8693 171.757 56.6818C171.757 56.4943 171.827 56.3338 171.966 56.2003C172.108 56.0668 172.277 56 172.473 56C172.669 56 172.837 56.0668 172.976 56.2003C173.118 56.3338 173.189 56.4943 173.189 56.6818C173.189 56.8693 173.118 57.0298 172.976 57.1634C172.837 57.2969 172.669 57.3636 172.473 57.3636ZM177.536 58.4545V59.3068H174.144V58.4545H177.536ZM175.133 56.8864H176.138V63.125C176.138 63.4091 176.179 63.6222 176.262 63.7642C176.347 63.9034 176.455 63.9972 176.586 64.0455C176.719 64.0909 176.86 64.1136 177.008 64.1136C177.118 64.1136 177.209 64.108 177.28 64.0966C177.351 64.0824 177.408 64.071 177.451 64.0625L177.655 64.9659C177.587 64.9915 177.492 65.017 177.37 65.0426C177.248 65.071 177.093 65.0852 176.905 65.0852C176.621 65.0852 176.343 65.0241 176.07 64.902C175.8 64.7798 175.576 64.5938 175.397 64.3438C175.221 64.0938 175.133 63.7784 175.133 63.3977V56.8864ZM180.075 61.0625V65H179.069V56.2727H180.075V59.4773H180.16C180.314 59.1392 180.544 58.8707 180.851 58.6719C181.16 58.4702 181.572 58.3693 182.086 58.3693C182.532 58.3693 182.923 58.4588 183.258 58.6378C183.594 58.8139 183.853 59.0852 184.038 59.4517C184.226 59.8153 184.319 60.2784 184.319 60.8409V65H183.314V60.9091C183.314 60.3892 183.179 59.9872 182.909 59.7031C182.642 59.4162 182.271 59.2727 181.797 59.2727C181.467 59.2727 181.172 59.3423 180.91 59.4815C180.652 59.6207 180.447 59.8239 180.297 60.0909C180.149 60.358 180.075 60.6818 180.075 61.0625ZM193.76 67.4545V63.9943H193.675C193.601 64.1136 193.496 64.2642 193.36 64.446C193.223 64.625 193.029 64.7855 192.776 64.9276C192.523 65.0668 192.186 65.1364 191.766 65.1364C191.22 65.1364 190.739 64.9986 190.321 64.723C189.904 64.4446 189.577 64.0526 189.341 63.5469C189.105 63.0384 188.987 62.4375 188.987 61.7443C188.987 61.0568 189.105 60.4602 189.341 59.9545C189.577 59.4489 189.905 59.0582 190.325 58.7827C190.746 58.5071 191.232 58.3693 191.783 58.3693C192.209 58.3693 192.546 58.4403 192.793 58.5824C193.043 58.7216 193.233 58.8807 193.364 59.0597C193.497 59.2358 193.601 59.3807 193.675 59.4943H193.794V58.4545H194.766V67.4545H193.76ZM191.902 64.233C192.306 64.233 192.646 64.1278 192.925 63.9176C193.203 63.7045 193.415 63.4105 193.56 63.0355C193.705 62.6577 193.777 62.2216 193.777 61.7273C193.777 61.2386 193.706 60.8111 193.564 60.4446C193.422 60.0753 193.212 59.7884 192.933 59.5838C192.655 59.3764 192.311 59.2727 191.902 59.2727C191.476 59.2727 191.121 59.3821 190.837 59.6009C190.556 59.8168 190.344 60.1108 190.202 60.483C190.063 60.8523 189.993 61.267 189.993 61.7273C189.993 62.1932 190.064 62.6165 190.206 62.9972C190.351 63.375 190.564 63.6761 190.845 63.9006C191.129 64.1222 191.482 64.233 191.902 64.233ZM200.612 62.3239V58.4545H201.617V65H200.612V63.892H200.544C200.39 64.2244 200.151 64.5071 199.828 64.7401C199.504 64.9702 199.095 65.0852 198.6 65.0852C198.191 65.0852 197.828 64.9957 197.509 64.8168C197.191 64.6349 196.941 64.3622 196.759 63.9986C196.578 63.6321 196.487 63.1705 196.487 62.6136V58.4545H197.492V62.5455C197.492 63.0227 197.626 63.4034 197.893 63.6875C198.163 63.9716 198.507 64.1136 198.924 64.1136C199.174 64.1136 199.428 64.0497 199.687 63.9219C199.948 63.794 200.167 63.598 200.343 63.3338C200.522 63.0696 200.612 62.733 200.612 62.3239ZM205.265 65.1534C204.851 65.1534 204.474 65.0753 204.136 64.919C203.798 64.7599 203.53 64.5312 203.331 64.233C203.132 63.9318 203.033 63.5682 203.033 63.142C203.033 62.767 203.106 62.4631 203.254 62.2301C203.402 61.9943 203.599 61.8097 203.846 61.6761C204.094 61.5426 204.366 61.4432 204.665 61.3778C204.966 61.3097 205.268 61.2557 205.572 61.2159C205.97 61.1648 206.292 61.1264 206.54 61.1009C206.79 61.0724 206.971 61.0256 207.085 60.9602C207.202 60.8949 207.26 60.7812 207.26 60.6193V60.5852C207.26 60.1648 207.145 59.8381 206.915 59.6051C206.687 59.3722 206.342 59.2557 205.879 59.2557C205.399 59.2557 205.023 59.3608 204.75 59.571C204.477 59.7812 204.285 60.0057 204.175 60.2443L203.22 59.9034C203.39 59.5057 203.618 59.196 203.902 58.9744C204.189 58.75 204.501 58.5937 204.839 58.5057C205.18 58.4148 205.515 58.3693 205.845 58.3693C206.055 58.3693 206.297 58.3949 206.569 58.446C206.845 58.4943 207.111 58.5952 207.366 58.7486C207.625 58.902 207.839 59.1335 208.01 59.4432C208.18 59.7528 208.265 60.1676 208.265 60.6875V65H207.26V64.1136H207.209C207.14 64.2557 207.027 64.4077 206.868 64.5696C206.709 64.7315 206.497 64.8693 206.233 64.983C205.969 65.0966 205.646 65.1534 205.265 65.1534ZM205.419 64.25C205.817 64.25 206.152 64.1719 206.425 64.0156C206.7 63.8594 206.908 63.6577 207.047 63.4105C207.189 63.1634 207.26 62.9034 207.26 62.6307V61.7102C207.217 61.7614 207.123 61.8082 206.979 61.8509C206.837 61.8906 206.672 61.9261 206.484 61.9574C206.3 61.9858 206.119 62.0114 205.943 62.0341C205.77 62.054 205.629 62.071 205.521 62.0852C205.26 62.1193 205.015 62.1747 204.788 62.2514C204.564 62.3253 204.382 62.4375 204.243 62.5881C204.106 62.7358 204.038 62.9375 204.038 63.1932C204.038 63.5426 204.167 63.8068 204.426 63.9858C204.687 64.1619 205.018 64.25 205.419 64.25ZM210.987 56.2727V65H209.981V56.2727H210.987ZM212.709 65V58.4545H213.714V65H212.709ZM213.22 57.3636C213.024 57.3636 212.855 57.2969 212.713 57.1634C212.574 57.0298 212.504 56.8693 212.504 56.6818C212.504 56.4943 212.574 56.3338 212.713 56.2003C212.855 56.0668 213.024 56 213.22 56C213.416 56 213.584 56.0668 213.723 56.2003C213.865 56.3338 213.936 56.4943 213.936 56.6818C213.936 56.8693 213.865 57.0298 213.723 57.1634C213.584 57.2969 213.416 57.3636 213.22 57.3636ZM218.283 58.4545V59.3068H214.891V58.4545H218.283ZM215.88 56.8864H216.885V63.125C216.885 63.4091 216.926 63.6222 217.009 63.7642C217.094 63.9034 217.202 63.9972 217.333 64.0455C217.466 64.0909 217.607 64.1136 217.755 64.1136C217.865 64.1136 217.956 64.108 218.027 64.0966C218.098 64.0824 218.155 64.071 218.198 64.0625L218.402 64.9659C218.334 64.9915 218.239 65.017 218.117 65.0426C217.995 65.071 217.84 65.0852 217.652 65.0852C217.368 65.0852 217.09 65.0241 216.817 64.902C216.547 64.7798 216.323 64.5938 216.144 64.3438C215.968 64.0938 215.88 63.7784 215.88 63.3977V56.8864ZM220.323 67.4545C220.153 67.4545 220.001 67.4403 219.868 67.4119C219.734 67.3864 219.642 67.3608 219.591 67.3352L219.846 66.4489C220.091 66.5114 220.306 66.5341 220.494 66.517C220.681 66.5 220.848 66.4162 220.993 66.2656C221.14 66.1179 221.275 65.8778 221.397 65.5455L221.585 65.0341L219.164 58.4545H220.255L222.062 63.6705H222.13L223.937 58.4545H225.028L222.25 65.9545C222.125 66.2926 221.97 66.5724 221.785 66.794C221.6 67.0185 221.386 67.1847 221.142 67.2926C220.9 67.4006 220.627 67.4545 220.323 67.4545ZM26.4034 80L24.4091 73.4545H25.4659L26.8807 78.4659H26.9489L28.3466 73.4545H29.4205L30.8011 78.4489H30.8693L32.2841 73.4545H33.3409L31.3466 80H30.358L28.9261 74.9716H28.8239L27.392 80H26.4034ZM36.4766 80.1534C36.0618 80.1534 35.6854 80.0753 35.3473 79.919C35.0093 79.7599 34.7408 79.5312 34.5419 79.233C34.3431 78.9318 34.2436 78.5682 34.2436 78.142C34.2436 77.767 34.3175 77.4631 34.4652 77.2301C34.613 76.9943 34.8104 76.8097 35.0576 76.6761C35.3047 76.5426 35.5774 76.4432 35.8757 76.3778C36.1769 76.3097 36.4794 76.2557 36.7834 76.2159C37.1811 76.1648 37.5036 76.1264 37.7507 76.1009C38.0007 76.0724 38.1826 76.0256 38.2962 75.9602C38.4127 75.8949 38.4709 75.7812 38.4709 75.6193V75.5852C38.4709 75.1648 38.3559 74.8381 38.1257 74.6051C37.8985 74.3722 37.5533 74.2557 37.0902 74.2557C36.6101 74.2557 36.2337 74.3608 35.961 74.571C35.6882 74.7812 35.4965 75.0057 35.3857 75.2443L34.4311 74.9034C34.6016 74.5057 34.8289 74.196 35.113 73.9744C35.3999 73.75 35.7124 73.5937 36.0505 73.5057C36.3914 73.4148 36.7266 73.3693 37.0561 73.3693C37.2664 73.3693 37.5078 73.3949 37.7806 73.446C38.0561 73.4943 38.3218 73.5952 38.5774 73.7486C38.836 73.902 39.0505 74.1335 39.2209 74.4432C39.3914 74.7528 39.4766 75.1676 39.4766 75.6875V80H38.4709V79.1136H38.4198C38.3516 79.2557 38.238 79.4077 38.0789 79.5696C37.9198 79.7315 37.7081 79.8693 37.4439 79.983C37.1797 80.0966 36.8573 80.1534 36.4766 80.1534ZM36.63 79.25C37.0277 79.25 37.363 79.1719 37.6357 79.0156C37.9113 78.8594 38.1186 78.6577 38.2578 78.4105C38.3999 78.1634 38.4709 77.9034 38.4709 77.6307V76.7102C38.4283 76.7614 38.3345 76.8082 38.1897 76.8509C38.0476 76.8906 37.8828 76.9261 37.6953 76.9574C37.5107 76.9858 37.3303 77.0114 37.1541 77.0341C36.9809 77.054 36.8402 77.071 36.7323 77.0852C36.4709 77.1193 36.2266 77.1747 35.9993 77.2514C35.7749 77.3253 35.5931 77.4375 35.4539 77.5881C35.3175 77.7358 35.2493 77.9375 35.2493 78.1932C35.2493 78.5426 35.3786 78.8068 35.6371 78.9858C35.8985 79.1619 36.2294 79.25 36.63 79.25ZM41.1922 80V73.4545H42.1638V74.4432H42.2319C42.3513 74.1193 42.5672 73.8565 42.8797 73.6548C43.1922 73.4531 43.5444 73.3523 43.9365 73.3523C44.0104 73.3523 44.1027 73.3537 44.2135 73.3565C44.3243 73.3594 44.4081 73.3636 44.4649 73.3693V74.392C44.4308 74.3835 44.3527 74.3707 44.2305 74.3537C44.1112 74.3338 43.9848 74.3239 43.8513 74.3239C43.5331 74.3239 43.249 74.3906 42.999 74.5241C42.7518 74.6548 42.5558 74.8366 42.4109 75.0696C42.2689 75.2997 42.1979 75.5625 42.1979 75.858V80H41.1922ZM46.5427 76.0625V80H45.537V73.4545H46.5086V74.4773H46.5938C46.7472 74.1449 46.9802 73.8778 47.2927 73.6761C47.6052 73.4716 48.0086 73.3693 48.5029 73.3693C48.9461 73.3693 49.3339 73.4602 49.6663 73.642C49.9987 73.821 50.2572 74.0938 50.4418 74.4602C50.6265 74.8239 50.7188 75.2841 50.7188 75.8409V80H49.7132V75.9091C49.7132 75.3949 49.5796 74.9943 49.3126 74.7074C49.0455 74.4176 48.6791 74.2727 48.2132 74.2727C47.8921 74.2727 47.6052 74.3423 47.3524 74.4815C47.1024 74.6207 46.9049 74.8239 46.76 75.0909C46.6151 75.358 46.5427 75.6818 46.5427 76.0625ZM52.4365 80V73.4545H53.4422V80H52.4365ZM52.9479 72.3636C52.7519 72.3636 52.5829 72.2969 52.4408 72.1634C52.3016 72.0298 52.232 71.8693 52.232 71.6818C52.232 71.4943 52.3016 71.3338 52.4408 71.2003C52.5829 71.0668 52.7519 71 52.9479 71C53.1439 71 53.3115 71.0668 53.4508 71.2003C53.5928 71.3338 53.6638 71.4943 53.6638 71.6818C53.6638 71.8693 53.5928 72.0298 53.4508 72.1634C53.3115 72.2969 53.1439 72.3636 52.9479 72.3636ZM56.1699 76.0625V80H55.1642V73.4545H56.1358V74.4773H56.221C56.3744 74.1449 56.6074 73.8778 56.9199 73.6761C57.2324 73.4716 57.6358 73.3693 58.1301 73.3693C58.5733 73.3693 58.9611 73.4602 59.2935 73.642C59.6259 73.821 59.8844 74.0938 60.069 74.4602C60.2537 74.8239 60.346 75.2841 60.346 75.8409V80H59.3403V75.9091C59.3403 75.3949 59.2068 74.9943 58.9398 74.7074C58.6727 74.4176 58.3062 74.2727 57.8403 74.2727C57.5193 74.2727 57.2324 74.3423 56.9795 74.4815C56.7295 74.6207 56.5321 74.8239 56.3872 75.0909C56.2423 75.358 56.1699 75.6818 56.1699 76.0625ZM64.7058 82.5909C64.22 82.5909 63.8024 82.5284 63.4529 82.4034C63.1035 82.2812 62.8123 82.1193 62.5794 81.9176C62.3492 81.7188 62.166 81.5057 62.0296 81.2784L62.8308 80.7159C62.9217 80.8352 63.0367 80.9716 63.176 81.125C63.3152 81.2812 63.5055 81.4162 63.747 81.5298C63.9913 81.6463 64.3109 81.7045 64.7058 81.7045C65.2342 81.7045 65.6703 81.5767 66.014 81.321C66.3578 81.0653 66.5296 80.6648 66.5296 80.1193V78.7898H66.4444C66.3706 78.9091 66.2654 79.0568 66.1291 79.233C65.9956 79.4062 65.8024 79.5611 65.5495 79.6974C65.2995 79.831 64.9615 79.8977 64.5353 79.8977C64.0069 79.8977 63.5325 79.7727 63.112 79.5227C62.6944 79.2727 62.3635 78.9091 62.1191 78.4318C61.8777 77.9545 61.7569 77.375 61.7569 76.6932C61.7569 76.0227 61.8748 75.4389 62.1106 74.9418C62.3464 74.4418 62.6745 74.0554 63.095 73.7827C63.5154 73.5071 64.0012 73.3693 64.5524 73.3693C64.9785 73.3693 65.3166 73.4403 65.5666 73.5824C65.8194 73.7216 66.0126 73.8807 66.1461 74.0597C66.2825 74.2358 66.3876 74.3807 66.4615 74.4943H66.5637V73.4545H67.5353V80.1875C67.5353 80.75 67.4075 81.2074 67.1518 81.5597C66.899 81.9148 66.5581 82.1747 66.1291 82.3395C65.7029 82.5071 65.2285 82.5909 64.7058 82.5909ZM64.6717 78.9943C65.0751 78.9943 65.416 78.902 65.6944 78.7173C65.9728 78.5327 66.1845 78.267 66.3294 77.9205C66.4742 77.5739 66.5467 77.1591 66.5467 76.6761C66.5467 76.2045 66.4757 75.7884 66.3336 75.4276C66.1916 75.0668 65.9813 74.7841 65.7029 74.5795C65.4245 74.375 65.0808 74.2727 64.6717 74.2727C64.2456 74.2727 63.8904 74.3807 63.6063 74.5966C63.3251 74.8125 63.1135 75.1023 62.9714 75.4659C62.8322 75.8295 62.7626 76.233 62.7626 76.6761C62.7626 77.1307 62.8336 77.5327 62.9757 77.8821C63.1206 78.2287 63.3336 78.5014 63.6149 78.7003C63.899 78.8963 64.2512 78.9943 64.6717 78.9943Z" fill="white" fill-opacity="0.65"/>
<defs>
<filter id="filter0_d_1874_8755" x="14" y="99" width="48" height="48" filterUnits="userSpaceOnUse" color-interpolation-filters="sRGB">
<feFlood flood-opacity="0" result="BackgroundImageFix"/>
<feColorMatrix in="SourceAlpha" type="matrix" values="0 0 0 0 0 0 0 0 0 0 0 0 0 0 0 0 0 0 127 0" result="hardAlpha"/>
<feOffset/>
<feGaussianBlur stdDeviation="4"/>
<feComposite in2="hardAlpha" operator="out"/>
<feColorMatrix type="matrix" values="0 0 0 0 1 0 0 0 0 1 0 0 0 0 1 0 0 0 0.55 0"/>
<feBlend mode="normal" in2="BackgroundImageFix" result="effect1_dropShadow_1874_8755"/>
<feBlend mode="normal" in="SourceGraphic" in2="effect1_dropShadow_1874_8755" result="shape"/>
</filter>
<linearGradient id="paint0_linear_1874_8755" x1="144" y1="0" x2="144" y2="219" gradientUnits="userSpaceOnUse">
<stop stop-color="#70767C"/>
<stop offset="1" stop-color="#4B525A" stop-opacity="0.72"/>
</linearGradient>
<linearGradient id="paint1_linear_1874_8755" x1="29.8211" y1="178.396" x2="300.124" y2="178.396" gradientUnits="userSpaceOnUse">
<stop stop-color="#F838AB"/>
<stop offset="1" stop-color="white"/>
</linearGradient>
<linearGradient id="paint2_linear_1874_8755" x1="260.616" y1="128.5" x2="36.1182" y2="130.536" gradientUnits="userSpaceOnUse">
<stop stop-color="white" stop-opacity="0.7"/>
<stop offset="1" stop-color="white" stop-opacity="0.1"/>
</linearGradient>
<linearGradient id="paint3_linear_1874_8755" x1="146" y1="115" x2="146" y2="131" gradientUnits="userSpaceOnUse">
<stop stop-color="white" stop-opacity="0.3"/>
<stop offset="1" stop-color="white" stop-opacity="0.2"/>
</linearGradient>
</defs>
</svg>
