<svg width="288" height="219" viewBox="0 0 288 219" fill="none" xmlns="http://www.w3.org/2000/svg">
<rect x="0.5" y="0.5" width="287" height="218" rx="15.5" stroke="url(#paint0_linear_1874_8756)"/>
<path d="M25.2386 187V184.455L33.1136 176.295C33.9545 175.409 34.6477 174.633 35.1932 173.966C35.7462 173.292 36.1591 172.652 36.4318 172.045C36.7045 171.439 36.8409 170.795 36.8409 170.114C36.8409 169.341 36.6591 168.674 36.2955 168.114C35.9318 167.545 35.4356 167.11 34.8068 166.807C34.178 166.496 33.4697 166.341 32.6818 166.341C31.8485 166.341 31.1212 166.511 30.5 166.852C29.8788 167.193 29.4015 167.674 29.0682 168.295C28.7348 168.917 28.5682 169.644 28.5682 170.477H25.2159C25.2159 169.061 25.5417 167.822 26.1932 166.761C26.8447 165.701 27.7386 164.879 28.875 164.295C30.0114 163.705 31.303 163.409 32.75 163.409C34.2121 163.409 35.5 163.701 36.6136 164.284C37.7348 164.86 38.6098 165.648 39.2386 166.648C39.8674 167.64 40.1818 168.761 40.1818 170.011C40.1818 170.875 40.0189 171.72 39.6932 172.545C39.375 173.371 38.8182 174.292 38.0227 175.307C37.2273 176.314 36.1212 177.538 34.7045 178.977L30.0795 183.818V183.989H40.5568V187H25.2386ZM52.9659 187.386C51.1705 187.379 49.6364 186.905 48.3636 185.966C47.0909 185.027 46.1174 183.659 45.4432 181.864C44.7689 180.068 44.4318 177.905 44.4318 175.375C44.4318 172.852 44.7689 170.697 45.4432 168.909C46.125 167.121 47.1023 165.758 48.375 164.818C49.6553 163.879 51.1856 163.409 52.9659 163.409C54.7462 163.409 56.2727 163.883 57.5455 164.83C58.8182 165.769 59.7917 167.133 60.4659 168.92C61.1477 170.701 61.4886 172.852 61.4886 175.375C61.4886 177.913 61.1515 180.08 60.4773 181.875C59.803 183.663 58.8295 185.03 57.5568 185.977C56.2841 186.917 54.7538 187.386 52.9659 187.386ZM52.9659 184.352C54.5417 184.352 55.7727 183.583 56.6591 182.045C57.553 180.508 58 178.284 58 175.375C58 173.443 57.7955 171.811 57.3864 170.477C56.9848 169.136 56.4053 168.121 55.6477 167.432C54.8977 166.735 54.0038 166.386 52.9659 166.386C51.3977 166.386 50.1667 167.159 49.2727 168.705C48.3788 170.25 47.928 172.473 47.9205 175.375C47.9205 177.314 48.1212 178.955 48.5227 180.295C48.9318 181.629 49.5114 182.64 50.2614 183.33C51.0114 184.011 51.9129 184.352 52.9659 184.352ZM74.071 183.727V182.807C74.071 182.148 74.2074 181.545 74.4801 181C74.7585 180.449 75.1619 180.009 75.6903 179.679C76.2244 179.344 76.8693 179.176 77.625 179.176C78.3977 179.176 79.0455 179.341 79.5682 179.67C80.0909 180 80.4858 180.44 80.7528 180.991C81.0256 181.543 81.1619 182.148 81.1619 182.807V183.727C81.1619 184.386 81.0256 184.991 80.7528 185.543C80.4801 186.088 80.0795 186.528 79.5511 186.864C79.0284 187.193 78.3864 187.358 77.625 187.358C76.858 187.358 76.2102 187.193 75.6818 186.864C75.1534 186.528 74.7528 186.088 74.4801 185.543C74.2074 184.991 74.071 184.386 74.071 183.727ZM76.0568 182.807V183.727C76.0568 184.216 76.1733 184.659 76.4062 185.057C76.6392 185.455 77.0455 185.653 77.625 185.653C78.1989 185.653 78.5994 185.455 78.8267 185.057C79.054 184.659 79.1676 184.216 79.1676 183.727V182.807C79.1676 182.318 79.0568 181.875 78.8352 181.477C78.6193 181.08 78.2159 180.881 77.625 180.881C77.0568 180.881 76.6534 181.08 76.4148 181.477C76.1761 181.875 76.0568 182.318 76.0568 182.807ZM65.2926 173.739V172.818C65.2926 172.159 65.429 171.554 65.7017 171.003C65.9801 170.452 66.3835 170.011 66.9119 169.682C67.446 169.352 68.0909 169.188 68.8466 169.188C69.6193 169.188 70.267 169.352 70.7898 169.682C71.3125 170.011 71.7074 170.452 71.9744 171.003C72.2415 171.554 72.375 172.159 72.375 172.818V173.739C72.375 174.398 72.2386 175.003 71.9659 175.554C71.6989 176.099 71.3011 176.54 70.7727 176.875C70.25 177.205 69.608 177.369 68.8466 177.369C68.0739 177.369 67.4233 177.205 66.8949 176.875C66.3722 176.54 65.9744 176.099 65.7017 175.554C65.429 175.003 65.2926 174.398 65.2926 173.739ZM67.2869 172.818V173.739C67.2869 174.227 67.4006 174.67 67.6278 175.068C67.8608 175.466 68.267 175.665 68.8466 175.665C69.4148 175.665 69.8125 175.466 70.0398 175.068C70.2727 174.67 70.3892 174.227 70.3892 173.739V172.818C70.3892 172.33 70.2784 171.886 70.0568 171.489C69.8352 171.091 69.4318 170.892 68.8466 170.892C68.2784 170.892 67.875 171.091 67.6364 171.489C67.4034 171.886 67.2869 172.33 67.2869 172.818ZM66.1023 187L78.1023 169.545H80.1392L68.1392 187H66.1023ZM88.9347 187V175.364H96.2301V176.875H90.6903V180.42H95.8494V181.926H90.6903V185.489H96.2983V187H88.9347ZM102.2 187.176C101.34 187.176 100.6 186.992 99.9787 186.625C99.3613 186.254 98.884 185.733 98.5469 185.062C98.2135 184.388 98.0469 183.598 98.0469 182.693C98.0469 181.799 98.2135 181.011 98.5469 180.33C98.884 179.648 99.3537 179.116 99.956 178.733C100.562 178.35 101.27 178.159 102.081 178.159C102.573 178.159 103.051 178.241 103.513 178.403C103.975 178.566 104.39 178.822 104.757 179.17C105.125 179.519 105.414 179.972 105.626 180.528C105.839 181.081 105.945 181.754 105.945 182.545V183.148H99.0071V181.875H104.28C104.28 181.428 104.189 181.032 104.007 180.688C103.825 180.339 103.57 180.064 103.24 179.864C102.914 179.663 102.532 179.562 102.092 179.562C101.615 179.562 101.198 179.68 100.842 179.915C100.49 180.146 100.217 180.449 100.024 180.824C99.8348 181.195 99.7401 181.598 99.7401 182.034V183.028C99.7401 183.612 99.8423 184.108 100.047 184.517C100.255 184.926 100.545 185.239 100.916 185.455C101.287 185.667 101.721 185.773 102.217 185.773C102.539 185.773 102.833 185.727 103.098 185.636C103.363 185.542 103.592 185.402 103.786 185.216C103.979 185.03 104.126 184.801 104.229 184.528L105.837 184.818C105.708 185.292 105.477 185.706 105.143 186.062C104.814 186.415 104.399 186.689 103.899 186.886C103.403 187.08 102.837 187.176 102.2 187.176ZM110.369 187.193C109.816 187.193 109.316 187.091 108.869 186.886C108.422 186.678 108.068 186.377 107.807 185.983C107.549 185.589 107.42 185.106 107.42 184.534C107.42 184.042 107.515 183.636 107.705 183.318C107.894 183 108.15 182.748 108.472 182.562C108.794 182.377 109.153 182.237 109.551 182.142C109.949 182.047 110.354 181.975 110.767 181.926C111.29 181.866 111.714 181.816 112.04 181.778C112.366 181.737 112.602 181.67 112.75 181.58C112.898 181.489 112.972 181.341 112.972 181.136V181.097C112.972 180.6 112.831 180.216 112.551 179.943C112.275 179.67 111.862 179.534 111.312 179.534C110.741 179.534 110.29 179.661 109.96 179.915C109.634 180.165 109.409 180.443 109.284 180.75L107.688 180.386C107.877 179.856 108.153 179.428 108.517 179.102C108.884 178.773 109.307 178.534 109.784 178.386C110.261 178.235 110.763 178.159 111.29 178.159C111.638 178.159 112.008 178.201 112.398 178.284C112.792 178.364 113.159 178.511 113.5 178.727C113.845 178.943 114.127 179.252 114.347 179.653C114.566 180.051 114.676 180.568 114.676 181.205V187H113.017V185.807H112.949C112.839 186.027 112.674 186.242 112.455 186.455C112.235 186.667 111.953 186.843 111.608 186.983C111.263 187.123 110.85 187.193 110.369 187.193ZM110.739 185.83C111.208 185.83 111.61 185.737 111.943 185.551C112.28 185.366 112.536 185.123 112.71 184.824C112.888 184.521 112.977 184.197 112.977 183.852V182.727C112.917 182.788 112.799 182.845 112.625 182.898C112.455 182.947 112.259 182.991 112.04 183.028C111.82 183.062 111.606 183.095 111.398 183.125C111.189 183.152 111.015 183.174 110.875 183.193C110.545 183.235 110.244 183.305 109.972 183.403C109.703 183.502 109.487 183.644 109.324 183.83C109.165 184.011 109.085 184.254 109.085 184.557C109.085 184.977 109.241 185.295 109.551 185.511C109.862 185.723 110.258 185.83 110.739 185.83ZM116.939 187V178.273H118.581V179.659H118.672C118.831 179.189 119.111 178.82 119.513 178.551C119.918 178.278 120.376 178.142 120.888 178.142C120.994 178.142 121.119 178.146 121.263 178.153C121.411 178.161 121.526 178.17 121.609 178.182V179.807C121.541 179.788 121.42 179.767 121.246 179.744C121.071 179.718 120.897 179.705 120.723 179.705C120.321 179.705 119.964 179.79 119.649 179.96C119.339 180.127 119.092 180.36 118.911 180.659C118.729 180.955 118.638 181.292 118.638 181.67V187H116.939ZM124.778 181.818V187H123.08V178.273H124.71V179.693H124.818C125.019 179.231 125.333 178.86 125.761 178.58C126.193 178.299 126.737 178.159 127.392 178.159C127.987 178.159 128.508 178.284 128.955 178.534C129.402 178.78 129.748 179.148 129.994 179.636C130.241 180.125 130.364 180.729 130.364 181.449V187H128.665V181.653C128.665 181.021 128.5 180.527 128.17 180.17C127.841 179.811 127.388 179.631 126.812 179.631C126.419 179.631 126.068 179.716 125.761 179.886C125.458 180.057 125.218 180.307 125.04 180.636C124.866 180.962 124.778 181.356 124.778 181.818ZM136.403 187.176C135.544 187.176 134.803 186.992 134.182 186.625C133.564 186.254 133.087 185.733 132.75 185.062C132.417 184.388 132.25 183.598 132.25 182.693C132.25 181.799 132.417 181.011 132.75 180.33C133.087 179.648 133.557 179.116 134.159 178.733C134.765 178.35 135.473 178.159 136.284 178.159C136.777 178.159 137.254 178.241 137.716 178.403C138.178 178.566 138.593 178.822 138.96 179.17C139.328 179.519 139.617 179.972 139.83 180.528C140.042 181.081 140.148 181.754 140.148 182.545V183.148H133.21V181.875H138.483C138.483 181.428 138.392 181.032 138.21 180.688C138.028 180.339 137.773 180.064 137.443 179.864C137.117 179.663 136.735 179.562 136.295 179.562C135.818 179.562 135.402 179.68 135.045 179.915C134.693 180.146 134.42 180.449 134.227 180.824C134.038 181.195 133.943 181.598 133.943 182.034V183.028C133.943 183.612 134.045 184.108 134.25 184.517C134.458 184.926 134.748 185.239 135.119 185.455C135.491 185.667 135.924 185.773 136.42 185.773C136.742 185.773 137.036 185.727 137.301 185.636C137.566 185.542 137.795 185.402 137.989 185.216C138.182 185.03 138.33 184.801 138.432 184.528L140.04 184.818C139.911 185.292 139.68 185.706 139.347 186.062C139.017 186.415 138.602 186.689 138.102 186.886C137.606 187.08 137.04 187.176 136.403 187.176ZM145.3 187.17C144.595 187.17 143.966 186.991 143.413 186.631C142.864 186.267 142.432 185.75 142.118 185.08C141.807 184.405 141.652 183.597 141.652 182.653C141.652 181.71 141.809 180.903 142.124 180.233C142.442 179.562 142.877 179.049 143.43 178.693C143.983 178.337 144.61 178.159 145.311 178.159C145.853 178.159 146.288 178.25 146.618 178.432C146.951 178.61 147.209 178.818 147.391 179.057C147.576 179.295 147.72 179.506 147.822 179.688H147.925V175.364H149.624V187H147.964V185.642H147.822C147.72 185.828 147.572 186.04 147.379 186.278C147.19 186.517 146.929 186.725 146.595 186.903C146.262 187.081 145.83 187.17 145.3 187.17ZM145.675 185.722C146.163 185.722 146.576 185.593 146.913 185.335C147.254 185.074 147.512 184.712 147.686 184.25C147.864 183.788 147.953 183.25 147.953 182.636C147.953 182.03 147.866 181.5 147.692 181.045C147.518 180.591 147.262 180.237 146.925 179.983C146.588 179.729 146.171 179.602 145.675 179.602C145.163 179.602 144.737 179.735 144.396 180C144.055 180.265 143.798 180.627 143.624 181.085C143.453 181.544 143.368 182.061 143.368 182.636C143.368 183.22 143.455 183.744 143.629 184.21C143.804 184.676 144.061 185.045 144.402 185.318C144.747 185.587 145.171 185.722 145.675 185.722ZM156.777 181.182C156.777 179.758 156.964 178.447 157.339 177.25C157.714 176.053 158.262 174.949 158.982 173.938H160.538C160.258 174.312 159.997 174.773 159.754 175.318C159.512 175.864 159.3 176.462 159.118 177.114C158.936 177.761 158.794 178.434 158.692 179.131C158.589 179.824 158.538 180.508 158.538 181.182C158.538 182.083 158.627 182.996 158.805 183.92C158.983 184.845 159.224 185.703 159.527 186.494C159.83 187.286 160.167 187.932 160.538 188.432H158.982C158.262 187.42 157.714 186.316 157.339 185.119C156.964 183.922 156.777 182.61 156.777 181.182ZM165.75 185.045V177.364H167.278V185.045H165.75ZM162.676 181.966V180.443H170.358V181.966H162.676ZM177.378 175.364V187H175.616V177.125H175.548L172.764 178.943V177.261L175.668 175.364H177.378ZM184.366 187.159C183.654 187.159 183.014 187.023 182.446 186.75C181.882 186.473 181.431 186.095 181.094 185.614C180.757 185.133 180.577 184.583 180.554 183.966H182.259C182.3 184.466 182.522 184.877 182.923 185.199C183.325 185.521 183.806 185.682 184.366 185.682C184.813 185.682 185.209 185.58 185.554 185.375C185.902 185.167 186.175 184.881 186.372 184.517C186.573 184.153 186.673 183.739 186.673 183.273C186.673 182.799 186.571 182.377 186.366 182.006C186.162 181.634 185.88 181.343 185.52 181.131C185.164 180.919 184.755 180.811 184.293 180.807C183.94 180.807 183.586 180.867 183.23 180.989C182.874 181.11 182.586 181.269 182.366 181.466L180.759 181.227L181.412 175.364H187.81V176.869H182.872L182.503 180.125H182.571C182.798 179.905 183.099 179.722 183.474 179.574C183.853 179.426 184.259 179.352 184.69 179.352C185.399 179.352 186.029 179.521 186.582 179.858C187.139 180.195 187.577 180.655 187.895 181.239C188.217 181.818 188.376 182.485 188.372 183.239C188.376 183.992 188.205 184.665 187.861 185.256C187.52 185.847 187.046 186.312 186.44 186.653C185.838 186.991 185.147 187.159 184.366 187.159ZM196.521 184.818V184.205C196.521 183.765 196.612 183.364 196.794 183C196.98 182.633 197.249 182.339 197.601 182.119C197.957 181.896 198.387 181.784 198.891 181.784C199.406 181.784 199.838 181.894 200.186 182.114C200.535 182.333 200.798 182.627 200.976 182.994C201.158 183.362 201.249 183.765 201.249 184.205V184.818C201.249 185.258 201.158 185.661 200.976 186.028C200.794 186.392 200.527 186.686 200.175 186.909C199.826 187.129 199.398 187.239 198.891 187.239C198.379 187.239 197.947 187.129 197.595 186.909C197.243 186.686 196.976 186.392 196.794 186.028C196.612 185.661 196.521 185.258 196.521 184.818ZM197.845 184.205V184.818C197.845 185.144 197.923 185.439 198.078 185.705C198.233 185.97 198.504 186.102 198.891 186.102C199.273 186.102 199.54 185.97 199.692 185.705C199.843 185.439 199.919 185.144 199.919 184.818V184.205C199.919 183.879 199.845 183.583 199.697 183.318C199.554 183.053 199.285 182.92 198.891 182.92C198.512 182.92 198.243 183.053 198.084 183.318C197.925 183.583 197.845 183.879 197.845 184.205ZM190.669 178.159V177.545C190.669 177.106 190.76 176.703 190.942 176.335C191.127 175.968 191.396 175.674 191.749 175.455C192.105 175.235 192.535 175.125 193.038 175.125C193.554 175.125 193.985 175.235 194.334 175.455C194.682 175.674 194.946 175.968 195.124 176.335C195.302 176.703 195.391 177.106 195.391 177.545V178.159C195.391 178.598 195.3 179.002 195.118 179.369C194.94 179.733 194.675 180.027 194.322 180.25C193.974 180.47 193.546 180.58 193.038 180.58C192.523 180.58 192.089 180.47 191.737 180.25C191.389 180.027 191.124 179.733 190.942 179.369C190.76 179.002 190.669 178.598 190.669 178.159ZM191.999 177.545V178.159C191.999 178.485 192.074 178.78 192.226 179.045C192.381 179.311 192.652 179.443 193.038 179.443C193.417 179.443 193.682 179.311 193.834 179.045C193.989 178.78 194.067 178.485 194.067 178.159V177.545C194.067 177.22 193.993 176.924 193.845 176.659C193.697 176.394 193.429 176.261 193.038 176.261C192.66 176.261 192.391 176.394 192.232 176.659C192.076 176.924 191.999 177.22 191.999 177.545ZM191.209 187L199.209 175.364H200.567L192.567 187H191.209ZM206.987 181.182C206.987 182.61 206.8 183.922 206.425 185.119C206.05 186.316 205.502 187.42 204.783 188.432H203.226C203.506 188.057 203.768 187.597 204.01 187.051C204.252 186.506 204.464 185.909 204.646 185.261C204.828 184.61 204.97 183.936 205.072 183.239C205.175 182.542 205.226 181.856 205.226 181.182C205.226 180.284 205.137 179.373 204.959 178.449C204.781 177.525 204.54 176.667 204.237 175.875C203.934 175.083 203.597 174.438 203.226 173.938H204.783C205.502 174.949 206.05 176.053 206.425 177.25C206.8 178.447 206.987 179.758 206.987 181.182Z" fill="url(#paint1_linear_1874_8756)"/>
<rect x="24.5" y="115.5" width="239" height="15" rx="7.5" fill="url(#paint2_linear_1874_8756)" fill-opacity="0.1" stroke="url(#paint3_linear_1874_8756)"/>
<path d="M25 123C25 119.134 28.134 116 32 116H77V130H32C28.134 130 25 126.866 25 123Z" fill="url(#paint4_linear_1874_8756)"/>
<g filter="url(#filter0_d_1874_8756)">
<circle cx="81" cy="123" r="8" fill="#F838AB"/>
<circle cx="81" cy="123" r="12" stroke="white" stroke-width="8"/>
</g>
<path d="M29.4084 30.7464C29.3686 30.3454 29.1979 30.0339 28.8963 29.8118C28.5947 29.5897 28.1854 29.4787 27.6683 29.4787C27.317 29.4787 27.0204 29.5284 26.7784 29.6278C26.5365 29.724 26.3509 29.8582 26.2216 30.0305C26.0956 30.2029 26.0327 30.3984 26.0327 30.6172C26.026 30.7995 26.0642 30.9586 26.147 31.0945C26.2332 31.2304 26.3509 31.348 26.5 31.4474C26.6491 31.5436 26.8215 31.6281 27.017 31.701C27.2126 31.7706 27.4214 31.8303 27.6435 31.88L28.5582 32.0987C29.0024 32.1982 29.41 32.3307 29.7812 32.4964C30.1525 32.6622 30.474 32.866 30.7457 33.108C31.0175 33.3499 31.228 33.6349 31.3771 33.9631C31.5296 34.2912 31.6075 34.6674 31.6108 35.0916C31.6075 35.7147 31.4484 36.255 31.1335 36.7124C30.822 37.1664 30.3712 37.5194 29.7812 37.7713C29.1946 38.0199 28.487 38.1442 27.6584 38.1442C26.8364 38.1442 26.1205 38.0182 25.5107 37.7663C24.9041 37.5144 24.4302 37.1416 24.0888 36.6477C23.7507 36.1506 23.5734 35.5357 23.5568 34.8033H25.6399C25.6631 35.1446 25.7609 35.4297 25.9332 35.6584C26.1089 35.8838 26.3426 36.0545 26.6342 36.1705C26.9292 36.2831 27.2623 36.3395 27.6335 36.3395C27.9981 36.3395 28.3146 36.2865 28.5831 36.1804C28.8549 36.0743 29.0653 35.9268 29.2145 35.7379C29.3636 35.549 29.4382 35.3319 29.4382 35.0866C29.4382 34.858 29.3703 34.6657 29.2344 34.5099C29.1018 34.3542 28.9063 34.2216 28.6477 34.1122C28.3925 34.0028 28.0793 33.9034 27.7081 33.8139L26.5994 33.5355C25.741 33.3267 25.0632 33.0002 24.5661 32.5561C24.0689 32.112 23.822 31.5137 23.8253 30.7614C23.822 30.1449 23.986 29.6063 24.3175 29.1456C24.6522 28.6849 25.1113 28.3253 25.6946 28.0668C26.2779 27.8082 26.9408 27.679 27.6832 27.679C28.4389 27.679 29.0985 27.8082 29.6619 28.0668C30.2287 28.3253 30.6695 28.6849 30.9844 29.1456C31.2992 29.6063 31.4616 30.1399 31.4716 30.7464H29.4084ZM36.9408 30.3636V31.9545H32.3421V30.3636H36.9408ZM33.3861 28.5341H35.504V35.6534C35.504 35.849 35.5338 36.0014 35.5935 36.1108C35.6531 36.2169 35.736 36.2914 35.8421 36.3345C35.9514 36.3776 36.0774 36.3991 36.2199 36.3991C36.3193 36.3991 36.4188 36.3909 36.5182 36.3743C36.6176 36.3544 36.6939 36.3395 36.7469 36.3295L37.08 37.9055C36.9739 37.9387 36.8248 37.9768 36.6325 38.0199C36.4403 38.0663 36.2066 38.0945 35.9316 38.1044C35.4211 38.1243 34.9737 38.0563 34.5892 37.9006C34.2081 37.7448 33.9114 37.5028 33.6993 37.1747C33.4872 36.8466 33.3828 36.4323 33.3861 35.9318V28.5341ZM40.358 38.1442C39.8707 38.1442 39.4366 38.0597 39.0554 37.8906C38.6742 37.7183 38.3726 37.4647 38.1506 37.13C37.9318 36.7919 37.8225 36.371 37.8225 35.8672C37.8225 35.4429 37.9003 35.0866 38.0561 34.7983C38.2119 34.5099 38.424 34.2779 38.6925 34.1023C38.9609 33.9266 39.2659 33.794 39.6073 33.7045C39.9519 33.6151 40.3132 33.5521 40.6911 33.5156C41.1352 33.4692 41.4931 33.4261 41.7649 33.3864C42.0367 33.3433 42.2339 33.2803 42.3565 33.1974C42.4792 33.1146 42.5405 32.992 42.5405 32.8295V32.7997C42.5405 32.4848 42.4411 32.2412 42.2422 32.0689C42.0466 31.8965 41.7682 31.8104 41.407 31.8104C41.0258 31.8104 40.7225 31.8949 40.4972 32.0639C40.2718 32.2296 40.1226 32.4384 40.0497 32.6903L38.0909 32.5312C38.1903 32.0672 38.3859 31.6662 38.6776 31.3281C38.9692 30.9867 39.3454 30.7249 39.8061 30.5426C40.2701 30.357 40.8071 30.2642 41.4169 30.2642C41.8412 30.2642 42.2472 30.3139 42.635 30.4134C43.026 30.5128 43.3724 30.6669 43.674 30.8757C43.9789 31.0845 44.2192 31.353 44.3949 31.6811C44.5706 32.0059 44.6584 32.3954 44.6584 32.8494V38H42.6499V36.9411H42.5902C42.4676 37.1797 42.3035 37.3902 42.098 37.5724C41.8925 37.7514 41.6456 37.8923 41.3573 37.995C41.0689 38.0945 40.7358 38.1442 40.358 38.1442ZM40.9645 36.6825C41.276 36.6825 41.5511 36.6212 41.7898 36.4986C42.0284 36.3726 42.2157 36.2036 42.3516 35.9915C42.4875 35.7794 42.5554 35.5391 42.5554 35.2706V34.4602C42.4891 34.5033 42.398 34.5431 42.282 34.5795C42.1693 34.6127 42.0417 34.6442 41.8992 34.674C41.7566 34.7005 41.6141 34.7254 41.4716 34.7486C41.3291 34.7685 41.1998 34.7867 41.0838 34.8033C40.8352 34.8397 40.6181 34.8977 40.4325 34.9773C40.2469 35.0568 40.1028 35.1645 40 35.3004C39.8973 35.433 39.8459 35.5987 39.8459 35.7976C39.8459 36.0859 39.9503 36.3063 40.1591 36.4588C40.3712 36.608 40.6397 36.6825 40.9645 36.6825ZM49.6018 41.0227C48.9158 41.0227 48.3275 40.9283 47.8369 40.7393C47.3497 40.5537 46.9619 40.3002 46.6736 39.9787C46.3852 39.6572 46.198 39.2959 46.1118 38.8949L48.0706 38.6314C48.1302 38.7839 48.2247 38.9264 48.354 39.0589C48.4832 39.1915 48.6539 39.2976 48.866 39.3771C49.0815 39.46 49.3433 39.5014 49.6516 39.5014C50.1123 39.5014 50.4918 39.3887 50.79 39.1634C51.0917 38.9413 51.2425 38.5684 51.2425 38.0447V36.6477H51.153C51.0602 36.8598 50.921 37.0604 50.7354 37.2493C50.5498 37.4382 50.3111 37.5923 50.0195 37.7116C49.7278 37.831 49.3798 37.8906 48.9754 37.8906C48.402 37.8906 47.88 37.758 47.4094 37.4929C46.942 37.2244 46.5692 36.8151 46.2908 36.2649C46.0157 35.7114 45.8781 35.0121 45.8781 34.1669C45.8781 33.3018 46.019 32.5793 46.3007 31.9993C46.5824 31.4193 46.957 30.9851 47.4243 30.6967C47.8949 30.4084 48.4103 30.2642 48.9704 30.2642C49.398 30.2642 49.756 30.3371 50.0443 30.483C50.3327 30.6255 50.5647 30.8045 50.7403 31.0199C50.9193 31.232 51.0569 31.4408 51.153 31.6463H51.2325V30.3636H53.3355V38.0746C53.3355 38.7242 53.1764 39.2678 52.8582 39.7053C52.54 40.1428 52.0992 40.4709 51.5358 40.6896C50.9757 40.9117 50.331 41.0227 49.6018 41.0227ZM49.6466 36.2997C49.988 36.2997 50.2763 36.2152 50.5116 36.0462C50.7503 35.8738 50.9326 35.6286 51.0585 35.3104C51.1878 34.9889 51.2524 34.6044 51.2524 34.157C51.2524 33.7095 51.1894 33.3217 51.0635 32.9936C50.9375 32.6622 50.7552 32.4053 50.5166 32.223C50.278 32.0407 49.988 31.9496 49.6466 31.9496C49.2986 31.9496 49.0052 32.044 48.7666 32.233C48.528 32.4186 48.3473 32.6771 48.2247 33.0085C48.1021 33.34 48.0408 33.7228 48.0408 34.157C48.0408 34.5978 48.1021 34.9789 48.2247 35.3004C48.3507 35.6186 48.5313 35.8655 48.7666 36.0412C49.0052 36.2135 49.2986 36.2997 49.6466 36.2997ZM58.361 38.1491C57.5755 38.1491 56.8993 37.9901 56.3326 37.6719C55.7691 37.3504 55.3349 36.8963 55.03 36.3097C54.7251 35.7197 54.5726 35.022 54.5726 34.2166C54.5726 33.4311 54.7251 32.7417 55.03 32.1484C55.3349 31.5552 55.7642 31.0928 56.3177 30.7614C56.8745 30.4299 57.5274 30.2642 58.2765 30.2642C58.7803 30.2642 59.2492 30.3454 59.6834 30.5078C60.1209 30.6669 60.5021 30.9072 60.8269 31.2287C61.155 31.5502 61.4102 31.9545 61.5925 32.4418C61.7748 32.9257 61.866 33.4924 61.866 34.142V34.7237H55.4178V33.4112H59.8724C59.8724 33.1063 59.8061 32.8362 59.6735 32.6009C59.5409 32.3655 59.357 32.1816 59.1216 32.049C58.8896 31.9131 58.6195 31.8452 58.3113 31.8452C57.9898 31.8452 57.7047 31.9197 57.4562 32.0689C57.2109 32.2147 57.0187 32.4119 56.8795 32.6605C56.7402 32.9058 56.669 33.1792 56.6657 33.4808V34.7287C56.6657 35.1065 56.7353 35.433 56.8745 35.7081C57.017 35.9832 57.2175 36.1953 57.476 36.3445C57.7346 36.4936 58.0411 36.5682 58.3958 36.5682C58.6311 36.5682 58.8465 36.535 59.0421 36.4688C59.2376 36.4025 59.405 36.303 59.5442 36.1705C59.6834 36.0379 59.7895 35.8755 59.8624 35.6832L61.8212 35.8125C61.7218 36.2831 61.5179 36.6941 61.2097 37.0455C60.9048 37.3935 60.5104 37.6652 60.0265 37.8608C59.5459 38.053 58.9907 38.1491 58.361 38.1491ZM66.1884 38V36.4489L69.8127 33.093C70.1209 32.7947 70.3795 32.5263 70.5883 32.2876C70.8004 32.049 70.9611 31.8153 71.0705 31.5866C71.1799 31.3546 71.2346 31.1044 71.2346 30.8359C71.2346 30.5376 71.1666 30.2808 71.0307 30.0653C70.8948 29.8466 70.7092 29.6792 70.4739 29.5632C70.2386 29.4439 69.9718 29.3842 69.6735 29.3842C69.3619 29.3842 69.0902 29.4472 68.8582 29.5732C68.6261 29.6991 68.4472 29.8797 68.3212 30.1151C68.1953 30.3504 68.1323 30.6304 68.1323 30.9553H66.089C66.089 30.2891 66.2398 29.7107 66.5414 29.2202C66.843 28.7296 67.2656 28.3501 67.8091 28.0817C68.3527 27.8132 68.9791 27.679 69.6884 27.679C70.4176 27.679 71.0523 27.8082 71.5925 28.0668C72.1361 28.322 72.5587 28.6766 72.8603 29.1307C73.1619 29.5848 73.3127 30.1051 73.3127 30.6918C73.3127 31.0762 73.2365 31.4557 73.084 31.8303C72.9349 32.2048 72.668 32.6207 72.2836 33.0781C71.8991 33.5322 71.3572 34.0774 70.6579 34.7138L69.1714 36.1705V36.2401H73.4469V38H66.1884ZM76.1246 36.8168C75.7965 36.8168 75.5147 36.7008 75.2794 36.4688C75.0474 36.2367 74.9314 35.955 74.9314 35.6236C74.9314 35.2988 75.0474 35.0204 75.2794 34.7884C75.5147 34.5563 75.7965 34.4403 76.1246 34.4403C76.4428 34.4403 76.7212 34.5563 76.9598 34.7884C77.1984 35.0204 77.3178 35.2988 77.3178 35.6236C77.3178 35.8423 77.2614 36.0429 77.1487 36.2251C77.0394 36.4041 76.8952 36.5483 76.7162 36.6577C76.5372 36.7637 76.34 36.8168 76.1246 36.8168ZM76.1246 31.8203C75.7965 31.8203 75.5147 31.7043 75.2794 31.4723C75.0474 31.2403 74.9314 30.9586 74.9314 30.6271C74.9314 30.3023 75.0474 30.0256 75.2794 29.7969C75.5147 29.5649 75.7965 29.4489 76.1246 29.4489C76.4428 29.4489 76.7212 29.5649 76.9598 29.7969C77.1984 30.0256 77.3178 30.3023 77.3178 30.6271C77.3178 30.8492 77.2614 31.0514 77.1487 31.2337C77.0394 31.4126 76.8952 31.5552 76.7162 31.6612C76.5372 31.7673 76.34 31.8203 76.1246 31.8203ZM83.8961 27.8182L86.357 35.554H86.4515L88.9174 27.8182H91.3037L87.7938 38H85.0197L81.5047 27.8182H83.8961ZM93.6794 38.1442C93.1922 38.1442 92.758 38.0597 92.3768 37.8906C91.9957 37.7183 91.694 37.4647 91.472 37.13C91.2532 36.7919 91.1439 36.371 91.1439 35.8672C91.1439 35.4429 91.2217 35.0866 91.3775 34.7983C91.5333 34.5099 91.7454 34.2779 92.0139 34.1023C92.2823 33.9266 92.5873 33.794 92.9287 33.7045C93.2734 33.6151 93.6346 33.5521 94.0125 33.5156C94.4566 33.4692 94.8145 33.4261 95.0863 33.3864C95.3581 33.3433 95.5553 33.2803 95.6779 33.1974C95.8006 33.1146 95.8619 32.992 95.8619 32.8295V32.7997C95.8619 32.4848 95.7625 32.2412 95.5636 32.0689C95.3681 31.8965 95.0896 31.8104 94.7284 31.8104C94.3472 31.8104 94.0439 31.8949 93.8186 32.0639C93.5932 32.2296 93.444 32.4384 93.3711 32.6903L91.4123 32.5312C91.5118 32.0672 91.7073 31.6662 91.999 31.3281C92.2906 30.9867 92.6668 30.7249 93.1275 30.5426C93.5915 30.357 94.1285 30.2642 94.7383 30.2642C95.1626 30.2642 95.5686 30.3139 95.9564 30.4134C96.3475 30.5128 96.6938 30.6669 96.9954 30.8757C97.3003 31.0845 97.5406 31.353 97.7163 31.6811C97.892 32.0059 97.9798 32.3954 97.9798 32.8494V38H95.9713V36.9411H95.9116C95.789 37.1797 95.6249 37.3902 95.4194 37.5724C95.2139 37.7514 94.967 37.8923 94.6787 37.995C94.3903 38.0945 94.0572 38.1442 93.6794 38.1442ZM94.2859 36.6825C94.5975 36.6825 94.8725 36.6212 95.1112 36.4986C95.3498 36.3726 95.5371 36.2036 95.673 35.9915C95.8089 35.7794 95.8768 35.5391 95.8768 35.2706V34.4602C95.8105 34.5033 95.7194 34.5431 95.6034 34.5795C95.4907 34.6127 95.3631 34.6442 95.2206 34.674C95.078 34.7005 94.9355 34.7254 94.793 34.7486C94.6505 34.7685 94.5212 34.7867 94.4052 34.8033C94.1566 34.8397 93.9395 34.8977 93.7539 34.9773C93.5683 35.0568 93.4242 35.1645 93.3214 35.3004C93.2187 35.433 93.1673 35.5987 93.1673 35.7976C93.1673 36.0859 93.2717 36.3063 93.4805 36.4588C93.6926 36.608 93.9611 36.6825 94.2859 36.6825ZM101.601 27.8182V38H99.4829V27.8182H101.601ZM103.157 38V30.3636H105.275V38H103.157ZM104.221 29.3793C103.906 29.3793 103.636 29.2749 103.411 29.0661C103.189 28.8539 103.078 28.6004 103.078 28.3054C103.078 28.0137 103.189 27.7635 103.411 27.5547C103.636 27.3426 103.906 27.2365 104.221 27.2365C104.536 27.2365 104.805 27.3426 105.027 27.5547C105.252 27.7635 105.365 28.0137 105.365 28.3054C105.365 28.6004 105.252 28.8539 105.027 29.0661C104.805 29.2749 104.536 29.3793 104.221 29.3793ZM109.646 38.1243C109.066 38.1243 108.54 37.9751 108.07 37.6768C107.602 37.3752 107.231 36.9328 106.956 36.3494C106.684 35.7628 106.548 35.0436 106.548 34.1918C106.548 33.3168 106.689 32.5893 106.971 32.0092C107.253 31.4259 107.627 30.9901 108.095 30.7017C108.565 30.41 109.081 30.2642 109.641 30.2642C110.068 30.2642 110.425 30.3371 110.71 30.483C110.998 30.6255 111.23 30.8045 111.406 31.0199C111.585 31.232 111.721 31.4408 111.813 31.6463H111.878V27.8182H113.991V38H111.903V36.777H111.813C111.714 36.9891 111.573 37.1996 111.391 37.4084C111.212 37.6139 110.978 37.7846 110.69 37.9205C110.405 38.0563 110.057 38.1243 109.646 38.1243ZM110.317 36.4389C110.658 36.4389 110.947 36.3461 111.182 36.1605C111.421 35.9716 111.603 35.7081 111.729 35.37C111.858 35.032 111.923 34.6359 111.923 34.1818C111.923 33.7277 111.86 33.3333 111.734 32.9986C111.608 32.6638 111.426 32.4053 111.187 32.223C110.948 32.0407 110.658 31.9496 110.317 31.9496C109.969 31.9496 109.676 32.044 109.437 32.233C109.198 32.4219 109.018 32.6837 108.895 33.0185C108.772 33.3532 108.711 33.741 108.711 34.1818C108.711 34.6259 108.772 35.0187 108.895 35.3601C109.021 35.6982 109.202 35.9633 109.437 36.1555C109.676 36.3445 109.969 36.4389 110.317 36.4389ZM117.77 38.1442C117.283 38.1442 116.848 38.0597 116.467 37.8906C116.086 37.7183 115.784 37.4647 115.562 37.13C115.344 36.7919 115.234 36.371 115.234 35.8672C115.234 35.4429 115.312 35.0866 115.468 34.7983C115.624 34.5099 115.836 34.2779 116.104 34.1023C116.373 33.9266 116.678 33.794 117.019 33.7045C117.364 33.6151 117.725 33.5521 118.103 33.5156C118.547 33.4692 118.905 33.4261 119.177 33.3864C119.449 33.3433 119.646 33.2803 119.768 33.1974C119.891 33.1146 119.952 32.992 119.952 32.8295V32.7997C119.952 32.4848 119.853 32.2412 119.654 32.0689C119.458 31.8965 119.18 31.8104 118.819 31.8104C118.438 31.8104 118.134 31.8949 117.909 32.0639C117.684 32.2296 117.534 32.4384 117.462 32.6903L115.503 32.5312C115.602 32.0672 115.798 31.6662 116.089 31.3281C116.381 30.9867 116.757 30.7249 117.218 30.5426C117.682 30.357 118.219 30.2642 118.829 30.2642C119.253 30.2642 119.659 30.3139 120.047 30.4134C120.438 30.5128 120.784 30.6669 121.086 30.8757C121.391 31.0845 121.631 31.353 121.807 31.6811C121.982 32.0059 122.07 32.3954 122.07 32.8494V38H120.062V36.9411H120.002C119.879 37.1797 119.715 37.3902 119.51 37.5724C119.304 37.7514 119.057 37.8923 118.769 37.995C118.481 38.0945 118.148 38.1442 117.77 38.1442ZM118.376 36.6825C118.688 36.6825 118.963 36.6212 119.202 36.4986C119.44 36.3726 119.627 36.2036 119.763 35.9915C119.899 35.7794 119.967 35.5391 119.967 35.2706V34.4602C119.901 34.5033 119.81 34.5431 119.694 34.5795C119.581 34.6127 119.453 34.6442 119.311 34.674C119.168 34.7005 119.026 34.7254 118.883 34.7486C118.741 34.7685 118.612 34.7867 118.496 34.8033C118.247 34.8397 118.03 34.8977 117.844 34.9773C117.659 35.0568 117.515 35.1645 117.412 35.3004C117.309 35.433 117.258 35.5987 117.258 35.7976C117.258 36.0859 117.362 36.3063 117.571 36.4588C117.783 36.608 118.051 36.6825 118.376 36.6825ZM127.635 30.3636V31.9545H123.036V30.3636H127.635ZM124.08 28.5341H126.198V35.6534C126.198 35.849 126.228 36.0014 126.288 36.1108C126.347 36.2169 126.43 36.2914 126.536 36.3345C126.646 36.3776 126.772 36.3991 126.914 36.3991C127.014 36.3991 127.113 36.3909 127.213 36.3743C127.312 36.3544 127.388 36.3395 127.441 36.3295L127.774 37.9055C127.668 37.9387 127.519 37.9768 127.327 38.0199C127.135 38.0663 126.901 38.0945 126.626 38.1044C126.115 38.1243 125.668 38.0563 125.284 37.9006C124.902 37.7448 124.606 37.5028 124.394 37.1747C124.181 36.8466 124.077 36.4323 124.08 35.9318V28.5341ZM128.875 38V30.3636H130.993V38H128.875ZM129.939 29.3793C129.624 29.3793 129.354 29.2749 129.128 29.0661C128.906 28.8539 128.795 28.6004 128.795 28.3054C128.795 28.0137 128.906 27.7635 129.128 27.5547C129.354 27.3426 129.624 27.2365 129.939 27.2365C130.253 27.2365 130.522 27.3426 130.744 27.5547C130.969 27.7635 131.082 28.0137 131.082 28.3054C131.082 28.6004 130.969 28.8539 130.744 29.0661C130.522 29.2749 130.253 29.3793 129.939 29.3793ZM135.999 38.1491C135.227 38.1491 134.559 37.9851 133.996 37.657C133.436 37.3255 133.003 36.8648 132.698 36.2749C132.393 35.6816 132.241 34.9938 132.241 34.2116C132.241 33.4228 132.393 32.7334 132.698 32.1435C133.003 31.5502 133.436 31.0895 133.996 30.7614C134.559 30.4299 135.227 30.2642 135.999 30.2642C136.772 30.2642 137.438 30.4299 137.998 30.7614C138.561 31.0895 138.996 31.5502 139.301 32.1435C139.606 32.7334 139.758 33.4228 139.758 34.2116C139.758 34.9938 139.606 35.6816 139.301 36.2749C138.996 36.8648 138.561 37.3255 137.998 37.657C137.438 37.9851 136.772 38.1491 135.999 38.1491ZM136.009 36.5085C136.361 36.5085 136.654 36.4091 136.889 36.2102C137.125 36.008 137.302 35.733 137.421 35.3849C137.544 35.0369 137.605 34.6409 137.605 34.1967C137.605 33.7526 137.544 33.3565 137.421 33.0085C137.302 32.6605 137.125 32.3854 136.889 32.1832C136.654 31.9811 136.361 31.88 136.009 31.88C135.655 31.88 135.356 31.9811 135.114 32.1832C134.876 32.3854 134.695 32.6605 134.573 33.0085C134.453 33.3565 134.394 33.7526 134.394 34.1967C134.394 34.6409 134.453 35.0369 134.573 35.3849C134.695 35.733 134.876 36.008 135.114 36.2102C135.356 36.4091 135.655 36.5085 136.009 36.5085ZM143.113 33.5852V38H140.995V30.3636H143.014V31.7109H143.103C143.272 31.2668 143.555 30.9155 143.953 30.657C144.351 30.3951 144.833 30.2642 145.4 30.2642C145.93 30.2642 146.393 30.3802 146.787 30.6122C147.181 30.8442 147.488 31.1757 147.707 31.6065C147.925 32.0341 148.035 32.5445 148.035 33.1378V38H145.917V33.5156C145.92 33.0483 145.801 32.6837 145.559 32.4219C145.317 32.1567 144.984 32.0241 144.56 32.0241C144.275 32.0241 144.023 32.0855 143.804 32.2081C143.589 32.3307 143.42 32.5097 143.297 32.745C143.178 32.977 143.116 33.2571 143.113 33.5852ZM152.501 33.6364C152.501 32.5795 152.642 31.6065 152.923 30.7173C153.207 29.8281 153.64 29.0043 154.223 28.2457H155.957C155.736 28.527 155.53 28.8707 155.339 29.277C155.149 29.6804 154.983 30.1236 154.841 30.6065C154.699 31.0895 154.588 31.5895 154.508 32.1065C154.429 32.6207 154.389 33.1307 154.389 33.6364C154.389 34.3097 154.457 34.9901 154.594 35.6776C154.733 36.3622 154.92 36.9986 155.156 37.5866C155.395 38.1747 155.662 38.6562 155.957 39.0312H154.223C153.64 38.2727 153.207 37.4489 152.923 36.5597C152.642 35.6705 152.501 34.696 152.501 33.6364ZM158.429 38H156.452L159.465 29.2727H161.843L164.851 38H162.874L160.688 31.267H160.62L158.429 38ZM158.306 34.5696H162.976V36.0099H158.306V34.5696ZM167.627 29.2727V38H165.781V29.2727H167.627ZM171.582 36.6705V30.6364H173.107V36.6705H171.582ZM169.327 34.4162V32.8906H175.361V34.4162H169.327ZM179.718 38V29.2727H181.564V32.8736H185.309V29.2727H187.15V38H185.309V34.3949H181.564V38H179.718ZM192.715 35.2131V31.4545H194.53V38H192.787V36.8111H192.719C192.571 37.1946 192.326 37.5028 191.982 37.7358C191.641 37.9687 191.225 38.0852 190.733 38.0852C190.296 38.0852 189.911 37.9858 189.578 37.7869C189.246 37.5881 188.986 37.3054 188.799 36.9389C188.614 36.5724 188.52 36.1335 188.517 35.6222V31.4545H190.333V35.2983C190.336 35.6847 190.439 35.9901 190.644 36.2145C190.848 36.4389 191.123 36.5511 191.466 36.5511C191.685 36.5511 191.89 36.5014 192.08 36.402C192.27 36.2997 192.424 36.1491 192.54 35.9503C192.659 35.7514 192.718 35.5057 192.715 35.2131ZM195.862 38V31.4545H197.592V32.6094H197.669C197.805 32.2259 198.033 31.9233 198.351 31.7017C198.669 31.4801 199.05 31.3693 199.493 31.3693C199.942 31.3693 200.324 31.4815 200.639 31.706C200.955 31.9276 201.165 32.2287 201.27 32.6094H201.338C201.472 32.2344 201.713 31.9347 202.063 31.7102C202.415 31.483 202.831 31.3693 203.311 31.3693C203.922 31.3693 204.418 31.5639 204.798 31.9531C205.182 32.3395 205.374 32.8878 205.374 33.598V38H203.563V33.956C203.563 33.5923 203.466 33.3196 203.273 33.1378C203.08 32.956 202.838 32.8651 202.548 32.8651C202.219 32.8651 201.962 32.9702 201.777 33.1804C201.592 33.3878 201.5 33.6619 201.5 34.0028V38H199.74V33.9176C199.74 33.5966 199.648 33.3409 199.463 33.1506C199.281 32.9602 199.041 32.8651 198.743 32.8651C198.541 32.8651 198.359 32.9162 198.197 33.0185C198.038 33.1179 197.912 33.2585 197.818 33.4403C197.724 33.6193 197.678 33.8295 197.678 34.071V38H195.862ZM208.554 38.1236C208.136 38.1236 207.764 38.0511 207.438 37.9062C207.111 37.7585 206.852 37.5412 206.662 37.2543C206.474 36.9645 206.381 36.6037 206.381 36.1719C206.381 35.8082 206.447 35.5028 206.581 35.2557C206.715 35.0085 206.896 34.8097 207.126 34.6591C207.357 34.5085 207.618 34.3949 207.911 34.3182C208.206 34.2415 208.516 34.1875 208.84 34.1562C209.22 34.1165 209.527 34.0795 209.76 34.0455C209.993 34.0085 210.162 33.9545 210.267 33.8835C210.372 33.8125 210.425 33.7074 210.425 33.5682V33.5426C210.425 33.2727 210.34 33.0639 210.169 32.9162C210.001 32.7685 209.763 32.6946 209.453 32.6946C209.126 32.6946 208.867 32.767 208.673 32.9119C208.48 33.054 208.352 33.233 208.29 33.4489L206.611 33.3125C206.696 32.9148 206.864 32.571 207.114 32.2812C207.364 31.9886 207.686 31.7642 208.081 31.608C208.479 31.4489 208.939 31.3693 209.462 31.3693C209.825 31.3693 210.173 31.4119 210.506 31.4972C210.841 31.5824 211.138 31.7145 211.396 31.8935C211.658 32.0724 211.864 32.3026 212.014 32.5838C212.165 32.8622 212.24 33.196 212.24 33.5852V38H210.519V37.0923H210.467C210.362 37.2969 210.222 37.4773 210.046 37.6335C209.869 37.7869 209.658 37.9077 209.411 37.9957C209.163 38.081 208.878 38.1236 208.554 38.1236ZM209.074 36.8707C209.341 36.8707 209.577 36.8182 209.781 36.7131C209.986 36.6051 210.146 36.4602 210.263 36.2784C210.379 36.0966 210.438 35.8906 210.438 35.6605V34.9659C210.381 35.0028 210.303 35.0369 210.203 35.0682C210.107 35.0966 209.997 35.1236 209.875 35.1491C209.753 35.1719 209.631 35.1932 209.509 35.2131C209.386 35.2301 209.276 35.2457 209.176 35.2599C208.963 35.2912 208.777 35.3409 208.618 35.4091C208.459 35.4773 208.335 35.5696 208.247 35.6861C208.159 35.7997 208.115 35.9418 208.115 36.1122C208.115 36.3594 208.205 36.5483 208.384 36.679C208.565 36.8068 208.796 36.8707 209.074 36.8707ZM215.344 34.2159V38H213.528V31.4545H215.259V32.6094H215.335C215.48 32.2287 215.723 31.9276 216.064 31.706C216.405 31.4815 216.818 31.3693 217.304 31.3693C217.759 31.3693 218.155 31.4688 218.493 31.6676C218.831 31.8665 219.094 32.1506 219.281 32.5199C219.469 32.8864 219.563 33.3239 219.563 33.8324V38H217.747V34.1562C217.75 33.7557 217.648 33.4432 217.44 33.2188C217.233 32.9915 216.948 32.8778 216.584 32.8778C216.34 32.8778 216.124 32.9304 215.936 33.0355C215.752 33.1406 215.607 33.294 215.502 33.4957C215.399 33.6946 215.347 33.9347 215.344 34.2159ZM25.6037 44.2727V53H23.7585V44.2727H25.6037ZM28.7831 49.2159V53H26.9677V46.4545H28.6978V47.6094H28.7745C28.9194 47.2287 29.1623 46.9276 29.5032 46.706C29.8441 46.4815 30.2575 46.3693 30.7433 46.3693C31.1978 46.3693 31.5941 46.4688 31.9322 46.6676C32.2703 46.8665 32.5331 47.1506 32.7206 47.5199C32.9081 47.8864 33.0018 48.3239 33.0018 48.8324V53H31.1865V49.1562C31.1893 48.7557 31.087 48.4432 30.8796 48.2188C30.6723 47.9915 30.3867 47.8778 30.0231 47.8778C29.7788 47.8778 29.5629 47.9304 29.3754 48.0355C29.1907 48.1406 29.0458 48.294 28.9407 48.4957C28.8385 48.6946 28.7859 48.9347 28.7831 49.2159ZM37.7941 46.4545V47.8182H33.8523V46.4545H37.7941ZM34.7472 44.8864H36.5626V50.9886C36.5626 51.1562 36.5881 51.2869 36.6393 51.3807C36.6904 51.4716 36.7614 51.5355 36.8523 51.5724C36.9461 51.6094 37.054 51.6278 37.1762 51.6278C37.2614 51.6278 37.3466 51.6207 37.4319 51.6065C37.5171 51.5895 37.5824 51.5767 37.6279 51.5682L37.9134 52.919C37.8225 52.9474 37.6947 52.9801 37.5299 53.017C37.3651 53.0568 37.1648 53.081 36.929 53.0895C36.4915 53.1065 36.108 53.0483 35.7785 52.9148C35.4518 52.7812 35.1975 52.5739 35.0157 52.2926C34.8339 52.0114 34.7444 51.6562 34.7472 51.2273V44.8864ZM41.7693 53.1278C41.096 53.1278 40.5164 52.9915 40.0306 52.7188C39.5477 52.4432 39.1755 52.054 38.9141 51.5511C38.6528 51.0455 38.5221 50.4474 38.5221 49.7571C38.5221 49.0838 38.6528 48.4929 38.9141 47.9844C39.1755 47.4759 39.5434 47.0795 40.0178 46.7955C40.4951 46.5114 41.0548 46.3693 41.6968 46.3693C42.1286 46.3693 42.5306 46.4389 42.9028 46.5781C43.2778 46.7145 43.6045 46.9205 43.8829 47.196C44.1641 47.4716 44.3829 47.8182 44.5391 48.2358C44.6954 48.6506 44.7735 49.1364 44.7735 49.6932V50.1918H39.2465V49.0668H43.0647C43.0647 48.8054 43.0079 48.5739 42.8943 48.3722C42.7806 48.1705 42.623 48.0128 42.4213 47.8991C42.2224 47.7827 41.9909 47.7244 41.7266 47.7244C41.4511 47.7244 41.2068 47.7884 40.9937 47.9162C40.7835 48.0412 40.6187 48.2102 40.4994 48.4233C40.3801 48.6335 40.319 48.8679 40.3161 49.1264V50.196C40.3161 50.5199 40.3758 50.7997 40.4951 51.0355C40.6173 51.2713 40.7891 51.4531 41.0107 51.581C41.2323 51.7088 41.4951 51.7727 41.7991 51.7727C42.0008 51.7727 42.1855 51.7443 42.3531 51.6875C42.5207 51.6307 42.6641 51.5455 42.7835 51.4318C42.9028 51.3182 42.9937 51.179 43.0562 51.0142L44.7352 51.125C44.6499 51.5284 44.4752 51.8807 44.211 52.1818C43.9497 52.4801 43.6116 52.7131 43.1968 52.8807C42.7849 53.0455 42.309 53.1278 41.7693 53.1278ZM47.6535 44.2727V53H45.8382V44.2727H47.6535ZM50.8031 44.2727V53H48.9877V44.2727H50.8031ZM52.1372 53V46.4545H53.9526V53H52.1372ZM53.0492 45.6108C52.7793 45.6108 52.5478 45.5213 52.3546 45.3423C52.1642 45.1605 52.0691 44.9432 52.0691 44.6903C52.0691 44.4403 52.1642 44.2259 52.3546 44.0469C52.5478 43.8651 52.7793 43.7741 53.0492 43.7741C53.3191 43.7741 53.5492 43.8651 53.7395 44.0469C53.9327 44.2259 54.0293 44.4403 54.0293 44.6903C54.0293 44.9432 53.9327 45.1605 53.7395 45.3423C53.5492 45.5213 53.3191 45.6108 53.0492 45.6108ZM58.2356 55.5909C57.6476 55.5909 57.1433 55.5099 56.7229 55.348C56.3052 55.1889 55.9729 54.9716 55.7257 54.696C55.4785 54.4205 55.318 54.1108 55.2442 53.767L56.9231 53.5412C56.9743 53.6719 57.0552 53.794 57.166 53.9077C57.2768 54.0213 57.4231 54.1122 57.605 54.1804C57.7896 54.2514 58.014 54.2869 58.2783 54.2869C58.6731 54.2869 58.9984 54.1903 59.2541 53.9972C59.5126 53.8068 59.6419 53.4872 59.6419 53.0384V51.8409H59.5652C59.4856 52.0227 59.3663 52.1946 59.2072 52.3565C59.0481 52.5185 58.8436 52.6506 58.5936 52.7528C58.3436 52.8551 58.0453 52.9062 57.6987 52.9062C57.2072 52.9062 56.7598 52.7926 56.3564 52.5653C55.9558 52.3352 55.6362 51.9844 55.3976 51.5128C55.1618 51.0384 55.0439 50.4389 55.0439 49.7145C55.0439 48.973 55.1646 48.3537 55.4061 47.8565C55.6476 47.3594 55.9686 46.9872 56.3692 46.7401C56.7726 46.4929 57.2143 46.3693 57.6944 46.3693C58.0609 46.3693 58.3677 46.4318 58.6149 46.5568C58.8621 46.679 59.0609 46.8324 59.2115 47.017C59.3649 47.1989 59.4828 47.3778 59.5652 47.554H59.6334V46.4545H61.4359V53.0639C61.4359 53.6207 61.2996 54.0866 61.0268 54.4616C60.7541 54.8366 60.3763 55.1179 59.8933 55.3054C59.4132 55.4957 58.8606 55.5909 58.2356 55.5909ZM58.274 51.5426C58.5666 51.5426 58.8138 51.4702 59.0155 51.3253C59.22 51.1776 59.3763 50.9673 59.4842 50.6946C59.595 50.419 59.6504 50.0895 59.6504 49.706C59.6504 49.3224 59.5964 48.9901 59.4885 48.7088C59.3805 48.4247 59.2243 48.2045 59.0197 48.0483C58.8152 47.892 58.5666 47.8139 58.274 47.8139C57.9757 47.8139 57.7243 47.8949 57.5197 48.0568C57.3152 48.2159 57.1604 48.4375 57.0552 48.7216C56.9501 49.0057 56.8976 49.3338 56.8976 49.706C56.8976 50.0838 56.9501 50.4105 57.0552 50.6861C57.1632 50.9588 57.318 51.1705 57.5197 51.321C57.7243 51.4687 57.9757 51.5426 58.274 51.5426ZM65.7435 53.1278C65.0702 53.1278 64.4906 52.9915 64.0048 52.7188C63.5219 52.4432 63.1497 52.054 62.8884 51.5511C62.627 51.0455 62.4963 50.4474 62.4963 49.7571C62.4963 49.0838 62.627 48.4929 62.8884 47.9844C63.1497 47.4759 63.5176 47.0795 63.9921 46.7955C64.4693 46.5114 65.029 46.3693 65.671 46.3693C66.1029 46.3693 66.5048 46.4389 66.877 46.5781C67.252 46.7145 67.5787 46.9205 67.8571 47.196C68.1384 47.4716 68.3571 47.8182 68.5134 48.2358C68.6696 48.6506 68.7477 49.1364 68.7477 49.6932V50.1918H63.2208V49.0668H67.0389C67.0389 48.8054 66.9821 48.5739 66.8685 48.3722C66.7548 48.1705 66.5972 48.0128 66.3955 47.8991C66.1966 47.7827 65.9651 47.7244 65.7009 47.7244C65.4253 47.7244 65.181 47.7884 64.9679 47.9162C64.7577 48.0412 64.5929 48.2102 64.4736 48.4233C64.3543 48.6335 64.2932 48.8679 64.2904 49.1264V50.196C64.2904 50.5199 64.35 50.7997 64.4693 51.0355C64.5915 51.2713 64.7634 51.4531 64.985 51.581C65.2065 51.7088 65.4693 51.7727 65.7733 51.7727C65.975 51.7727 66.1597 51.7443 66.3273 51.6875C66.4949 51.6307 66.6384 51.5455 66.7577 51.4318C66.877 51.3182 66.9679 51.179 67.0304 51.0142L68.7094 51.125C68.6242 51.5284 68.4494 51.8807 68.1852 52.1818C67.9239 52.4801 67.5858 52.7131 67.171 52.8807C66.7591 53.0455 66.2833 53.1278 65.7435 53.1278ZM71.6277 49.2159V53H69.8124V46.4545H71.5425V47.6094H71.6192C71.7641 47.2287 72.007 46.9276 72.3479 46.706C72.6888 46.4815 73.1022 46.3693 73.588 46.3693C74.0425 46.3693 74.4388 46.4688 74.7769 46.6676C75.115 46.8665 75.3777 47.1506 75.5652 47.5199C75.7527 47.8864 75.8465 48.3239 75.8465 48.8324V53H74.0311V49.1562C74.034 48.7557 73.9317 48.4432 73.7243 48.2188C73.5169 47.9915 73.2314 47.8778 72.8678 47.8778C72.6235 47.8778 72.4076 47.9304 72.2201 48.0355C72.0354 48.1406 71.8905 48.294 71.7854 48.4957C71.6831 48.6946 71.6306 48.9347 71.6277 49.2159ZM80.1146 53.1278C79.4442 53.1278 78.8675 52.9858 78.3845 52.7017C77.9044 52.4148 77.5351 52.017 77.2766 51.5085C77.0209 51 76.893 50.4148 76.893 49.7528C76.893 49.0824 77.0223 48.4943 77.2808 47.9886C77.5422 47.4801 77.9129 47.0838 78.393 46.7997C78.8732 46.5128 79.4442 46.3693 80.1061 46.3693C80.6771 46.3693 81.1771 46.473 81.6061 46.6804C82.0351 46.8878 82.3746 47.179 82.6246 47.554C82.8746 47.929 83.0124 48.3693 83.0379 48.875H81.3249C81.2766 48.5483 81.1487 48.2855 80.9413 48.0866C80.7368 47.8849 80.4683 47.7841 80.1359 47.7841C79.8547 47.7841 79.6089 47.8608 79.3987 48.0142C79.1913 48.1648 79.0294 48.3849 78.9129 48.6747C78.7964 48.9645 78.7382 49.3153 78.7382 49.7273C78.7382 50.1449 78.795 50.5 78.9087 50.7926C79.0251 51.0852 79.1885 51.3082 79.3987 51.4616C79.6089 51.6151 79.8547 51.6918 80.1359 51.6918C80.3433 51.6918 80.5294 51.6491 80.6942 51.5639C80.8618 51.4787 80.9996 51.3551 81.1075 51.1932C81.2183 51.0284 81.2908 50.831 81.3249 50.6009H83.0379C83.0095 51.1009 82.8732 51.5412 82.6288 51.9219C82.3874 52.2997 82.0536 52.5952 81.6274 52.8082C81.2013 53.0213 80.697 53.1278 80.1146 53.1278ZM87.0632 53.1278C86.3899 53.1278 85.8103 52.9915 85.3245 52.7188C84.8416 52.4432 84.4694 52.054 84.2081 51.5511C83.9467 51.0455 83.816 50.4474 83.816 49.7571C83.816 49.0838 83.9467 48.4929 84.2081 47.9844C84.4694 47.4759 84.8373 47.0795 85.3117 46.7955C85.789 46.5114 86.3487 46.3693 86.9907 46.3693C87.4225 46.3693 87.8245 46.4389 88.1967 46.5781C88.5717 46.7145 88.8984 46.9205 89.1768 47.196C89.4581 47.4716 89.6768 47.8182 89.8331 48.2358C89.9893 48.6506 90.0674 49.1364 90.0674 49.6932V50.1918H84.5404V49.0668H88.3586C88.3586 48.8054 88.3018 48.5739 88.1882 48.3722C88.0745 48.1705 87.9169 48.0128 87.7152 47.8991C87.5163 47.7827 87.2848 47.7244 87.0206 47.7244C86.745 47.7244 86.5007 47.7884 86.2876 47.9162C86.0774 48.0412 85.9126 48.2102 85.7933 48.4233C85.674 48.6335 85.6129 48.8679 85.61 49.1264V50.196C85.61 50.5199 85.6697 50.7997 85.789 51.0355C85.9112 51.2713 86.0831 51.4531 86.3046 51.581C86.5262 51.7088 86.789 51.7727 87.093 51.7727C87.2947 51.7727 87.4794 51.7443 87.647 51.6875C87.8146 51.6307 87.9581 51.5455 88.0774 51.4318C88.1967 51.3182 88.2876 51.179 88.3501 51.0142L90.0291 51.125C89.9439 51.5284 89.7691 51.8807 89.5049 52.1818C89.2436 52.4801 88.9055 52.7131 88.4907 52.8807C88.0788 53.0455 87.6029 53.1278 87.0632 53.1278ZM94.1917 49.5014C94.1917 50.5611 94.0497 51.5355 93.7656 52.4247C93.4844 53.3139 93.0525 54.1378 92.4702 54.8963H90.7358C90.9574 54.6151 91.1633 54.2713 91.3537 53.8651C91.544 53.4588 91.7102 53.0156 91.8523 52.5355C91.9943 52.0526 92.1051 51.5526 92.1846 51.0355C92.2642 50.5185 92.304 50.0071 92.304 49.5014C92.304 48.8281 92.2344 48.1491 92.0952 47.4645C91.9588 46.777 91.7713 46.1406 91.5327 45.5554C91.2969 44.9673 91.0312 44.4858 90.7358 44.1108H92.4702C93.0525 44.8693 93.4844 45.6932 93.7656 46.5824C94.0497 47.4716 94.1917 48.4446 94.1917 49.5014Z" fill="white"/>
<path d="M24.4148 80H23.3068L26.5114 71.2727H27.6023L30.8068 80H29.6989L27.0909 72.6534H27.0227L24.4148 80ZM24.8239 76.5909H29.2898V77.5284H24.8239V76.5909ZM34.5689 80.1364C33.9553 80.1364 33.4269 79.9915 32.9837 79.7017C32.5405 79.4119 32.1996 79.0128 31.961 78.5043C31.7223 77.9957 31.603 77.4148 31.603 76.7614C31.603 76.0966 31.7252 75.5099 31.9695 75.0014C32.2166 74.4901 32.5604 74.0909 33.0007 73.804C33.4439 73.5142 33.961 73.3693 34.5519 73.3693C35.0121 73.3693 35.4269 73.4545 35.7962 73.625C36.1655 73.7955 36.4681 74.0341 36.7039 74.3409C36.9397 74.6477 37.086 75.0057 37.1428 75.4148H36.1371C36.0604 75.1165 35.8899 74.8523 35.6257 74.6222C35.3644 74.3892 35.0121 74.2727 34.5689 74.2727C34.1769 74.2727 33.8331 74.375 33.5377 74.5795C33.2451 74.7812 33.0164 75.0668 32.8516 75.4361C32.6897 75.8026 32.6087 76.233 32.6087 76.7273C32.6087 77.233 32.6882 77.6733 32.8473 78.0483C33.0093 78.4233 33.2365 78.7145 33.5291 78.9219C33.8246 79.1293 34.1712 79.233 34.5689 79.233C34.8303 79.233 35.0675 79.1875 35.2806 79.0966C35.4936 79.0057 35.674 78.875 35.8218 78.7045C35.9695 78.5341 36.0746 78.3295 36.1371 78.0909H37.1428C37.086 78.4773 36.9453 78.8253 36.7209 79.1349C36.4993 79.4418 36.2053 79.6861 35.8388 79.8679C35.4752 80.0469 35.0519 80.1364 34.5689 80.1364ZM41.152 80.1364C40.5384 80.1364 40.01 79.9915 39.5668 79.7017C39.1236 79.4119 38.7827 79.0128 38.5441 78.5043C38.3055 77.9957 38.1861 77.4148 38.1861 76.7614C38.1861 76.0966 38.3083 75.5099 38.5526 75.0014C38.7998 74.4901 39.1435 74.0909 39.5839 73.804C40.027 73.5142 40.5441 73.3693 41.135 73.3693C41.5952 73.3693 42.01 73.4545 42.3793 73.625C42.7486 73.7955 43.0512 74.0341 43.287 74.3409C43.5228 74.6477 43.6691 75.0057 43.7259 75.4148H42.7202C42.6435 75.1165 42.4731 74.8523 42.2089 74.6222C41.9475 74.3892 41.5952 74.2727 41.152 74.2727C40.76 74.2727 40.4163 74.375 40.1208 74.5795C39.8282 74.7812 39.5995 75.0668 39.4347 75.4361C39.2728 75.8026 39.1918 76.233 39.1918 76.7273C39.1918 77.233 39.2714 77.6733 39.4305 78.0483C39.5924 78.4233 39.8197 78.7145 40.1123 78.9219C40.4077 79.1293 40.7543 79.233 41.152 79.233C41.4134 79.233 41.6506 79.1875 41.8637 79.0966C42.0768 79.0057 42.2572 78.875 42.4049 78.7045C42.5526 78.5341 42.6577 78.3295 42.7202 78.0909H43.7259C43.6691 78.4773 43.5285 78.8253 43.304 79.1349C43.0824 79.4418 42.7884 79.6861 42.4219 79.8679C42.0583 80.0469 41.635 80.1364 41.152 80.1364ZM47.8204 80.1364C47.1897 80.1364 46.6457 79.9972 46.1883 79.7188C45.7337 79.4375 45.3829 79.0455 45.1357 78.5426C44.8914 78.0369 44.7693 77.4489 44.7693 76.7784C44.7693 76.108 44.8914 75.517 45.1357 75.0057C45.3829 74.4915 45.7266 74.0909 46.167 73.804C46.6102 73.5142 47.1272 73.3693 47.7181 73.3693C48.059 73.3693 48.3957 73.4261 48.7281 73.5398C49.0605 73.6534 49.363 73.8381 49.6357 74.0938C49.9085 74.3466 50.1258 74.6818 50.2877 75.0994C50.4497 75.517 50.5306 76.0312 50.5306 76.642V77.0682H45.4852V76.1989H49.5079C49.5079 75.8295 49.434 75.5 49.2863 75.2102C49.1414 74.9205 48.934 74.6918 48.6641 74.5241C48.3971 74.3565 48.0818 74.2727 47.7181 74.2727C47.3176 74.2727 46.971 74.3722 46.6784 74.571C46.3886 74.767 46.1656 75.0227 46.0093 75.3381C45.8531 75.6534 45.7749 75.9915 45.7749 76.3523V76.9318C45.7749 77.4261 45.8602 77.8452 46.0306 78.1889C46.2039 78.5298 46.444 78.7898 46.7508 78.9688C47.0576 79.1449 47.4141 79.233 47.8204 79.233C48.0846 79.233 48.3232 79.196 48.5363 79.1222C48.7522 79.0455 48.9383 78.9318 49.0945 78.7812C49.2508 78.6278 49.3715 78.4375 49.4568 78.2102L50.4284 78.483C50.3261 78.8125 50.1542 79.1023 49.9127 79.3523C49.6712 79.5994 49.373 79.7926 49.0178 79.9318C48.6627 80.0682 48.2636 80.1364 47.8204 80.1364ZM56.5768 74.9205L55.6734 75.1761C55.6166 75.0256 55.5328 74.8793 55.422 74.7372C55.314 74.5923 55.1663 74.473 54.9788 74.3793C54.7913 74.2855 54.5513 74.2386 54.2586 74.2386C53.8581 74.2386 53.5243 74.331 53.2572 74.5156C52.993 74.6974 52.8609 74.929 52.8609 75.2102C52.8609 75.4602 52.9518 75.6577 53.1336 75.8026C53.3155 75.9474 53.5995 76.0682 53.9859 76.1648L54.9575 76.4034C55.5427 76.5455 55.9788 76.7628 56.2657 77.0554C56.5527 77.3452 56.6961 77.7187 56.6961 78.1761C56.6961 78.5511 56.5882 78.8864 56.3723 79.1818C56.1592 79.4773 55.8609 79.7102 55.4774 79.8807C55.0939 80.0511 54.6478 80.1364 54.1393 80.1364C53.4717 80.1364 52.9191 79.9915 52.4816 79.7017C52.0441 79.4119 51.7672 78.9886 51.6507 78.4318L52.6052 78.1932C52.6961 78.5455 52.868 78.8097 53.1209 78.9858C53.3765 79.1619 53.7103 79.25 54.1223 79.25C54.591 79.25 54.9632 79.1506 55.2388 78.9517C55.5172 78.75 55.6564 78.5085 55.6564 78.2273C55.6564 78 55.5768 77.8097 55.4177 77.6562C55.2586 77.5 55.0143 77.3835 54.6848 77.3068L53.5939 77.0511C52.9944 76.9091 52.5541 76.6889 52.2728 76.3906C51.9944 76.0895 51.8552 75.7131 51.8552 75.2614C51.8552 74.892 51.9589 74.5653 52.1663 74.2812C52.3765 73.9972 52.662 73.7741 53.0228 73.6122C53.3865 73.4503 53.7984 73.3693 54.2586 73.3693C54.9064 73.3693 55.4149 73.5114 55.7842 73.7955C56.1564 74.0795 56.4206 74.4545 56.5768 74.9205ZM62.7264 74.9205L61.8229 75.1761C61.7661 75.0256 61.6823 74.8793 61.5715 74.7372C61.4636 74.5923 61.3158 74.473 61.1283 74.3793C60.9408 74.2855 60.7008 74.2386 60.4082 74.2386C60.0076 74.2386 59.6738 74.331 59.4067 74.5156C59.1425 74.6974 59.0104 74.929 59.0104 75.2102C59.0104 75.4602 59.1014 75.6577 59.2832 75.8026C59.465 75.9474 59.7491 76.0682 60.1354 76.1648L61.107 76.4034C61.6923 76.5455 62.1283 76.7628 62.4153 77.0554C62.7022 77.3452 62.8457 77.7187 62.8457 78.1761C62.8457 78.5511 62.7377 78.8864 62.5218 79.1818C62.3087 79.4773 62.0104 79.7102 61.6269 79.8807C61.2434 80.0511 60.7974 80.1364 60.2889 80.1364C59.6212 80.1364 59.0687 79.9915 58.6312 79.7017C58.1937 79.4119 57.9167 78.9886 57.8002 78.4318L58.7548 78.1932C58.8457 78.5455 59.0175 78.8097 59.2704 78.9858C59.5261 79.1619 59.8599 79.25 60.2718 79.25C60.7406 79.25 61.1127 79.1506 61.3883 78.9517C61.6667 78.75 61.8059 78.5085 61.8059 78.2273C61.8059 78 61.7264 77.8097 61.5673 77.6562C61.4082 77.5 61.1639 77.3835 60.8343 77.3068L59.7434 77.0511C59.144 76.9091 58.7036 76.6889 58.4224 76.3906C58.144 76.0895 58.0048 75.7131 58.0048 75.2614C58.0048 74.892 58.1085 74.5653 58.3158 74.2812C58.5261 73.9972 58.8116 73.7741 59.1724 73.6122C59.536 73.4503 59.9479 73.3693 60.4082 73.3693C61.0559 73.3693 61.5644 73.5114 61.9337 73.7955C62.3059 74.0795 62.5701 74.4545 62.7264 74.9205ZM64.2395 80V73.4545H65.2452V80H64.2395ZM64.7509 72.3636C64.5549 72.3636 64.3858 72.2969 64.2438 72.1634C64.1046 72.0298 64.035 71.8693 64.035 71.6818C64.035 71.4943 64.1046 71.3338 64.2438 71.2003C64.3858 71.0668 64.5549 71 64.7509 71C64.9469 71 65.1145 71.0668 65.2537 71.2003C65.3958 71.3338 65.4668 71.4943 65.4668 71.6818C65.4668 71.8693 65.3958 72.0298 65.2537 72.1634C65.1145 72.2969 64.9469 72.3636 64.7509 72.3636ZM67.1035 80V71.2727H68.1092V74.4943H68.1944C68.2683 74.3807 68.3706 74.2358 68.5013 74.0597C68.6348 73.8807 68.8251 73.7216 69.0723 73.5824C69.3223 73.4403 69.6604 73.3693 70.0865 73.3693C70.6376 73.3693 71.1234 73.5071 71.5439 73.7827C71.9643 74.0582 72.2925 74.4489 72.5283 74.9545C72.764 75.4602 72.8819 76.0568 72.8819 76.7443C72.8819 77.4375 72.764 78.0384 72.5283 78.5469C72.2925 79.0526 71.9658 79.4446 71.5481 79.723C71.1305 79.9986 70.649 80.1364 70.1035 80.1364C69.6831 80.1364 69.3464 80.0668 69.0936 79.9276C68.8408 79.7855 68.6462 79.625 68.5098 79.446C68.3734 79.2642 68.2683 79.1136 68.1944 78.9943H68.0751V80H67.1035ZM68.0922 76.7273C68.0922 77.2216 68.1646 77.6577 68.3095 78.0355C68.4544 78.4105 68.666 78.7045 68.9444 78.9176C69.2229 79.1278 69.5638 79.233 69.9672 79.233C70.3876 79.233 70.7385 79.1222 71.0197 78.9006C71.3038 78.6761 71.5169 78.375 71.6589 77.9972C71.8038 77.6165 71.8763 77.1932 71.8763 76.7273C71.8763 76.267 71.8052 75.8523 71.6632 75.483C71.524 75.1108 71.3123 74.8168 71.0283 74.6009C70.747 74.3821 70.3933 74.2727 69.9672 74.2727C69.5581 74.2727 69.2143 74.3764 68.9359 74.5838C68.6575 74.7884 68.4473 75.0753 68.3052 75.4446C68.1632 75.8111 68.0922 76.2386 68.0922 76.7273ZM74.3003 80V73.4545H75.306V80H74.3003ZM74.8117 72.3636C74.6156 72.3636 74.4466 72.2969 74.3046 72.1634C74.1654 72.0298 74.0958 71.8693 74.0958 71.6818C74.0958 71.4943 74.1654 71.3338 74.3046 71.2003C74.4466 71.0668 74.6156 71 74.8117 71C75.0077 71 75.1753 71.0668 75.3145 71.2003C75.4565 71.3338 75.5276 71.4943 75.5276 71.6818C75.5276 71.8693 75.4565 72.0298 75.3145 72.1634C75.1753 72.2969 75.0077 72.3636 74.8117 72.3636ZM78.0336 71.2727V80H77.028V71.2727H78.0336ZM79.7556 80V73.4545H80.7613V80H79.7556ZM80.267 72.3636C80.071 72.3636 79.9019 72.2969 79.7599 72.1634C79.6207 72.0298 79.5511 71.8693 79.5511 71.6818C79.5511 71.4943 79.6207 71.3338 79.7599 71.2003C79.9019 71.0668 80.071 71 80.267 71C80.463 71 80.6306 71.0668 80.7698 71.2003C80.9119 71.3338 80.9829 71.4943 80.9829 71.6818C80.9829 71.8693 80.9119 72.0298 80.7698 72.1634C80.6306 72.2969 80.463 72.3636 80.267 72.3636ZM85.3299 73.4545V74.3068H81.9378V73.4545H85.3299ZM82.9264 71.8864H83.9321V78.125C83.9321 78.4091 83.9733 78.6222 84.0557 78.7642C84.1409 78.9034 84.2489 78.9972 84.3796 79.0455C84.5131 79.0909 84.6537 79.1136 84.8014 79.1136C84.9122 79.1136 85.0032 79.108 85.0742 79.0966C85.1452 79.0824 85.202 79.071 85.2446 79.0625L85.4492 79.9659C85.381 79.9915 85.2858 80.017 85.1637 80.0426C85.0415 80.071 84.8867 80.0852 84.6992 80.0852C84.4151 80.0852 84.1367 80.0241 83.8639 79.902C83.5941 79.7798 83.3696 79.5938 83.1907 79.3438C83.0145 79.0938 82.9264 78.7784 82.9264 78.3977V71.8864ZM87.3704 82.4545C87.1999 82.4545 87.0479 82.4403 86.9144 82.4119C86.7809 82.3864 86.6886 82.3608 86.6374 82.3352L86.8931 81.4489C87.1374 81.5114 87.3533 81.5341 87.5408 81.517C87.7283 81.5 87.8945 81.4162 88.0394 81.2656C88.1871 81.1179 88.3221 80.8778 88.4442 80.5455L88.6317 80.0341L86.2113 73.4545H87.3022L89.109 78.6705H89.1772L90.984 73.4545H92.0749L89.2965 80.9545C89.1715 81.2926 89.0167 81.5724 88.832 81.794C88.6474 82.0185 88.4329 82.1847 88.1886 82.2926C87.9471 82.4006 87.6743 82.4545 87.3704 82.4545ZM98.0203 80L96.026 73.4545H97.0828L98.4976 78.4659H98.5657L99.9635 73.4545H101.037L102.418 78.4489H102.486L103.901 73.4545H104.958L102.963 80H101.975L100.543 74.9716H100.441L99.0089 80H98.0203ZM106.167 80V73.4545H107.173V80H106.167ZM106.679 72.3636C106.483 72.3636 106.314 72.2969 106.172 72.1634C106.032 72.0298 105.963 71.8693 105.963 71.6818C105.963 71.4943 106.032 71.3338 106.172 71.2003C106.314 71.0668 106.483 71 106.679 71C106.875 71 107.042 71.0668 107.182 71.2003C107.324 71.3338 107.395 71.4943 107.395 71.6818C107.395 71.8693 107.324 72.0298 107.182 72.1634C107.042 72.2969 106.875 72.3636 106.679 72.3636ZM111.742 73.4545V74.3068H108.35V73.4545H111.742ZM109.338 71.8864H110.344V78.125C110.344 78.4091 110.385 78.6222 110.467 78.7642C110.553 78.9034 110.661 78.9972 110.791 79.0455C110.925 79.0909 111.065 79.1136 111.213 79.1136C111.324 79.1136 111.415 79.108 111.486 79.0966C111.557 79.0824 111.614 79.071 111.656 79.0625L111.861 79.9659C111.793 79.9915 111.698 80.017 111.575 80.0426C111.453 80.071 111.298 80.0852 111.111 80.0852C110.827 80.0852 110.548 80.0241 110.276 79.902C110.006 79.7798 109.781 79.5938 109.602 79.3438C109.426 79.0938 109.338 78.7784 109.338 78.3977V71.8864ZM114.281 76.0625V80H113.275V71.2727H114.281V74.4773H114.366C114.519 74.1392 114.749 73.8707 115.056 73.6719C115.366 73.4702 115.778 73.3693 116.292 73.3693C116.738 73.3693 117.129 73.4588 117.464 73.6378C117.799 73.8139 118.059 74.0852 118.244 74.4517C118.431 74.8153 118.525 75.2784 118.525 75.8409V80H117.519V75.9091C117.519 75.3892 117.384 74.9872 117.114 74.7031C116.847 74.4162 116.477 74.2727 116.002 74.2727C115.673 74.2727 115.377 74.3423 115.116 74.4815C114.857 74.6207 114.653 74.8239 114.502 75.0909C114.355 75.358 114.281 75.6818 114.281 76.0625ZM127.966 82.4545V78.9943H127.881C127.807 79.1136 127.702 79.2642 127.565 79.446C127.429 79.625 127.234 79.7855 126.981 79.9276C126.729 80.0668 126.392 80.1364 125.971 80.1364C125.426 80.1364 124.944 79.9986 124.527 79.723C124.109 79.4446 123.783 79.0526 123.547 78.5469C123.311 78.0384 123.193 77.4375 123.193 76.7443C123.193 76.0568 123.311 75.4602 123.547 74.9545C123.783 74.4489 124.111 74.0582 124.531 73.7827C124.952 73.5071 125.437 73.3693 125.988 73.3693C126.415 73.3693 126.751 73.4403 126.998 73.5824C127.248 73.7216 127.439 73.8807 127.569 74.0597C127.703 74.2358 127.807 74.3807 127.881 74.4943H128V73.4545H128.971V82.4545H127.966ZM126.108 79.233C126.511 79.233 126.852 79.1278 127.131 78.9176C127.409 78.7045 127.621 78.4105 127.765 78.0355C127.91 77.6577 127.983 77.2216 127.983 76.7273C127.983 76.2386 127.912 75.8111 127.77 75.4446C127.628 75.0753 127.417 74.7884 127.139 74.5838C126.861 74.3764 126.517 74.2727 126.108 74.2727C125.682 74.2727 125.327 74.3821 125.042 74.6009C124.761 74.8168 124.55 75.1108 124.408 75.483C124.268 75.8523 124.199 76.267 124.199 76.7273C124.199 77.1932 124.27 77.6165 124.412 77.9972C124.557 78.375 124.77 78.6761 125.051 78.9006C125.335 79.1222 125.687 79.233 126.108 79.233ZM134.817 77.3239V73.4545H135.823V80H134.817V78.892H134.749C134.596 79.2244 134.357 79.5071 134.033 79.7401C133.709 79.9702 133.3 80.0852 132.806 80.0852C132.397 80.0852 132.033 79.9957 131.715 79.8168C131.397 79.6349 131.147 79.3622 130.965 78.9986C130.783 78.6321 130.692 78.1705 130.692 77.6136V73.4545H131.698V77.5455C131.698 78.0227 131.832 78.4034 132.099 78.6875C132.368 78.9716 132.712 79.1136 133.13 79.1136C133.38 79.1136 133.634 79.0497 133.893 78.9219C134.154 78.794 134.373 78.598 134.549 78.3338C134.728 78.0696 134.817 77.733 134.817 77.3239ZM139.471 80.1534C139.056 80.1534 138.68 80.0753 138.342 79.919C138.004 79.7599 137.735 79.5312 137.536 79.233C137.338 78.9318 137.238 78.5682 137.238 78.142C137.238 77.767 137.312 77.4631 137.46 77.2301C137.607 76.9943 137.805 76.8097 138.052 76.6761C138.299 76.5426 138.572 76.4432 138.87 76.3778C139.171 76.3097 139.474 76.2557 139.778 76.2159C140.176 76.1648 140.498 76.1264 140.745 76.1009C140.995 76.0724 141.177 76.0256 141.291 75.9602C141.407 75.8949 141.465 75.7812 141.465 75.6193V75.5852C141.465 75.1648 141.35 74.8381 141.12 74.6051C140.893 74.3722 140.548 74.2557 140.085 74.2557C139.605 74.2557 139.228 74.3608 138.956 74.571C138.683 74.7812 138.491 75.0057 138.38 75.2443L137.426 74.9034C137.596 74.5057 137.823 74.196 138.107 73.9744C138.394 73.75 138.707 73.5937 139.045 73.5057C139.386 73.4148 139.721 73.3693 140.051 73.3693C140.261 73.3693 140.502 73.3949 140.775 73.446C141.051 73.4943 141.316 73.5952 141.572 73.7486C141.831 73.902 142.045 74.1335 142.215 74.4432C142.386 74.7528 142.471 75.1676 142.471 75.6875V80H141.465V79.1136H141.414C141.346 79.2557 141.232 79.4077 141.073 79.5696C140.914 79.7315 140.703 79.8693 140.438 79.983C140.174 80.0966 139.852 80.1534 139.471 80.1534ZM139.625 79.25C140.022 79.25 140.357 79.1719 140.63 79.0156C140.906 78.8594 141.113 78.6577 141.252 78.4105C141.394 78.1634 141.465 77.9034 141.465 77.6307V76.7102C141.423 76.7614 141.329 76.8082 141.184 76.8509C141.042 76.8906 140.877 76.9261 140.69 76.9574C140.505 76.9858 140.325 77.0114 140.149 77.0341C139.975 77.054 139.835 77.071 139.727 77.0852C139.465 77.1193 139.221 77.1747 138.994 77.2514C138.769 77.3253 138.588 77.4375 138.448 77.5881C138.312 77.7358 138.244 77.9375 138.244 78.1932C138.244 78.5426 138.373 78.8068 138.632 78.9858C138.893 79.1619 139.224 79.25 139.625 79.25ZM145.192 71.2727V80H144.187V71.2727H145.192ZM146.914 80V73.4545H147.92V80H146.914ZM147.426 72.3636C147.23 72.3636 147.061 72.2969 146.919 72.1634C146.779 72.0298 146.71 71.8693 146.71 71.6818C146.71 71.4943 146.779 71.3338 146.919 71.2003C147.061 71.0668 147.23 71 147.426 71C147.622 71 147.789 71.0668 147.929 71.2003C148.071 71.3338 148.142 71.4943 148.142 71.6818C148.142 71.8693 148.071 72.0298 147.929 72.1634C147.789 72.2969 147.622 72.3636 147.426 72.3636ZM152.489 73.4545V74.3068H149.097V73.4545H152.489ZM150.085 71.8864H151.091V78.125C151.091 78.4091 151.132 78.6222 151.214 78.7642C151.3 78.9034 151.408 78.9972 151.538 79.0455C151.672 79.0909 151.812 79.1136 151.96 79.1136C152.071 79.1136 152.162 79.108 152.233 79.0966C152.304 79.0824 152.361 79.071 152.403 79.0625L152.608 79.9659C152.54 79.9915 152.445 80.017 152.322 80.0426C152.2 80.071 152.045 80.0852 151.858 80.0852C151.574 80.0852 151.295 80.0241 151.023 79.902C150.753 79.7798 150.528 79.5938 150.349 79.3438C150.173 79.0938 150.085 78.7784 150.085 78.3977V71.8864ZM154.529 82.4545C154.359 82.4545 154.207 82.4403 154.073 82.4119C153.94 82.3864 153.847 82.3608 153.796 82.3352L154.052 81.4489C154.296 81.5114 154.512 81.5341 154.7 81.517C154.887 81.5 155.053 81.4162 155.198 81.2656C155.346 81.1179 155.481 80.8778 155.603 80.5455L155.79 80.0341L153.37 73.4545H154.461L156.268 78.6705H156.336L158.143 73.4545H159.234L156.455 80.9545C156.33 81.2926 156.175 81.5724 155.991 81.794C155.806 82.0185 155.592 82.1847 155.347 82.2926C155.106 82.4006 154.833 82.4545 154.529 82.4545ZM165.179 80L163.185 73.4545H164.242L165.656 78.4659H165.724L167.122 73.4545H168.196L169.577 78.4489H169.645L171.06 73.4545H172.117L170.122 80H169.134L167.702 74.9716H167.599L166.168 80H165.179ZM175.252 80.1534C174.837 80.1534 174.461 80.0753 174.123 79.919C173.785 79.7599 173.516 79.5312 173.318 79.233C173.119 78.9318 173.019 78.5682 173.019 78.142C173.019 77.767 173.093 77.4631 173.241 77.2301C173.389 76.9943 173.586 76.8097 173.833 76.6761C174.08 76.5426 174.353 76.4432 174.651 76.3778C174.952 76.3097 175.255 76.2557 175.559 76.2159C175.957 76.1648 176.279 76.1264 176.526 76.1009C176.776 76.0724 176.958 76.0256 177.072 75.9602C177.188 75.8949 177.247 75.7812 177.247 75.6193V75.5852C177.247 75.1648 177.131 74.8381 176.901 74.6051C176.674 74.3722 176.329 74.2557 175.866 74.2557C175.386 74.2557 175.009 74.3608 174.737 74.571C174.464 74.7812 174.272 75.0057 174.161 75.2443L173.207 74.9034C173.377 74.5057 173.604 74.196 173.889 73.9744C174.176 73.75 174.488 73.5937 174.826 73.5057C175.167 73.4148 175.502 73.3693 175.832 73.3693C176.042 73.3693 176.283 73.3949 176.556 73.446C176.832 73.4943 177.097 73.5952 177.353 73.7486C177.612 73.902 177.826 74.1335 177.997 74.4432C178.167 74.7528 178.252 75.1676 178.252 75.6875V80H177.247V79.1136H177.195C177.127 79.2557 177.014 79.4077 176.854 79.5696C176.695 79.7315 176.484 79.8693 176.22 79.983C175.955 80.0966 175.633 80.1534 175.252 80.1534ZM175.406 79.25C175.803 79.25 176.139 79.1719 176.411 79.0156C176.687 78.8594 176.894 78.6577 177.033 78.4105C177.176 78.1634 177.247 77.9034 177.247 77.6307V76.7102C177.204 76.7614 177.11 76.8082 176.965 76.8509C176.823 76.8906 176.658 76.9261 176.471 76.9574C176.286 76.9858 176.106 77.0114 175.93 77.0341C175.756 77.054 175.616 77.071 175.508 77.0852C175.247 77.1193 175.002 77.1747 174.775 77.2514C174.551 77.3253 174.369 77.4375 174.229 77.5881C174.093 77.7358 174.025 77.9375 174.025 78.1932C174.025 78.5426 174.154 78.8068 174.413 78.9858C174.674 79.1619 175.005 79.25 175.406 79.25ZM179.968 80V73.4545H180.939V74.4432H181.008C181.127 74.1193 181.343 73.8565 181.655 73.6548C181.968 73.4531 182.32 73.3523 182.712 73.3523C182.786 73.3523 182.878 73.3537 182.989 73.3565C183.1 73.3594 183.184 73.3636 183.241 73.3693V74.392C183.206 74.3835 183.128 74.3707 183.006 74.3537C182.887 74.3338 182.76 74.3239 182.627 74.3239C182.309 74.3239 182.025 74.3906 181.775 74.5241C181.527 74.6548 181.331 74.8366 181.187 75.0696C181.045 75.2997 180.973 75.5625 180.973 75.858V80H179.968ZM185.318 76.0625V80H184.313V73.4545H185.284V74.4773H185.369C185.523 74.1449 185.756 73.8778 186.068 73.6761C186.381 73.4716 186.784 73.3693 187.279 73.3693C187.722 73.3693 188.11 73.4602 188.442 73.642C188.774 73.821 189.033 74.0938 189.217 74.4602C189.402 74.8239 189.494 75.2841 189.494 75.8409V80H188.489V75.9091C188.489 75.3949 188.355 74.9943 188.088 74.7074C187.821 74.4176 187.455 74.2727 186.989 74.2727C186.668 74.2727 186.381 74.3423 186.128 74.4815C185.878 74.6207 185.681 74.8239 185.536 75.0909C185.391 75.358 185.318 75.6818 185.318 76.0625ZM191.212 80V73.4545H192.218V80H191.212ZM191.724 72.3636C191.528 72.3636 191.358 72.2969 191.216 72.1634C191.077 72.0298 191.008 71.8693 191.008 71.6818C191.008 71.4943 191.077 71.3338 191.216 71.2003C191.358 71.0668 191.528 71 191.724 71C191.92 71 192.087 71.0668 192.226 71.2003C192.368 71.3338 192.439 71.4943 192.439 71.6818C192.439 71.8693 192.368 72.0298 192.226 72.1634C192.087 72.2969 191.92 72.3636 191.724 72.3636ZM194.946 76.0625V80H193.94V73.4545H194.911V74.4773H194.997C195.15 74.1449 195.383 73.8778 195.696 73.6761C196.008 73.4716 196.411 73.3693 196.906 73.3693C197.349 73.3693 197.737 73.4602 198.069 73.642C198.401 73.821 198.66 74.0938 198.845 74.4602C199.029 74.8239 199.122 75.2841 199.122 75.8409V80H198.116V75.9091C198.116 75.3949 197.982 74.9943 197.715 74.7074C197.448 74.4176 197.082 74.2727 196.616 74.2727C196.295 74.2727 196.008 74.3423 195.755 74.4815C195.505 74.6207 195.308 74.8239 195.163 75.0909C195.018 75.358 194.946 75.6818 194.946 76.0625ZM203.481 82.5909C202.996 82.5909 202.578 82.5284 202.229 82.4034C201.879 82.2812 201.588 82.1193 201.355 81.9176C201.125 81.7188 200.942 81.5057 200.805 81.2784L201.606 80.7159C201.697 80.8352 201.812 80.9716 201.952 81.125C202.091 81.2812 202.281 81.4162 202.523 81.5298C202.767 81.6463 203.087 81.7045 203.481 81.7045C204.01 81.7045 204.446 81.5767 204.79 81.321C205.133 81.0653 205.305 80.6648 205.305 80.1193V78.7898H205.22C205.146 78.9091 205.041 79.0568 204.905 79.233C204.771 79.4062 204.578 79.5611 204.325 79.6974C204.075 79.831 203.737 79.8977 203.311 79.8977C202.783 79.8977 202.308 79.7727 201.888 79.5227C201.47 79.2727 201.139 78.9091 200.895 78.4318C200.653 77.9545 200.533 77.375 200.533 76.6932C200.533 76.0227 200.65 75.4389 200.886 74.9418C201.122 74.4418 201.45 74.0554 201.871 73.7827C202.291 73.5071 202.777 73.3693 203.328 73.3693C203.754 73.3693 204.092 73.4403 204.342 73.5824C204.595 73.7216 204.788 73.8807 204.922 74.0597C205.058 74.2358 205.163 74.3807 205.237 74.4943H205.339V73.4545H206.311V80.1875C206.311 80.75 206.183 81.2074 205.927 81.5597C205.675 81.9148 205.334 82.1747 204.905 82.3395C204.479 82.5071 204.004 82.5909 203.481 82.5909ZM203.447 78.9943C203.851 78.9943 204.192 78.902 204.47 78.7173C204.748 78.5327 204.96 78.267 205.105 77.9205C205.25 77.5739 205.322 77.1591 205.322 76.6761C205.322 76.2045 205.251 75.7884 205.109 75.4276C204.967 75.0668 204.757 74.7841 204.479 74.5795C204.2 74.375 203.856 74.2727 203.447 74.2727C203.021 74.2727 202.666 74.3807 202.382 74.5966C202.101 74.8125 201.889 75.1023 201.747 75.4659C201.608 75.8295 201.538 76.233 201.538 76.6761C201.538 77.1307 201.609 77.5327 201.751 77.8821C201.896 78.2287 202.109 78.5014 202.39 78.7003C202.675 78.8963 203.027 78.9943 203.447 78.9943Z" fill="white" fill-opacity="0.65"/>
<defs>
<filter id="filter0_d_1874_8756" x="57" y="99" width="48" height="48" filterUnits="userSpaceOnUse" color-interpolation-filters="sRGB">
<feFlood flood-opacity="0" result="BackgroundImageFix"/>
<feColorMatrix in="SourceAlpha" type="matrix" values="0 0 0 0 0 0 0 0 0 0 0 0 0 0 0 0 0 0 127 0" result="hardAlpha"/>
<feOffset/>
<feGaussianBlur stdDeviation="4"/>
<feComposite in2="hardAlpha" operator="out"/>
<feColorMatrix type="matrix" values="0 0 0 0 1 0 0 0 0 1 0 0 0 0 1 0 0 0 0.55 0"/>
<feBlend mode="normal" in2="BackgroundImageFix" result="effect1_dropShadow_1874_8756"/>
<feBlend mode="normal" in="SourceGraphic" in2="effect1_dropShadow_1874_8756" result="shape"/>
</filter>
<linearGradient id="paint0_linear_1874_8756" x1="144" y1="0" x2="144" y2="219" gradientUnits="userSpaceOnUse">
<stop stop-color="#70767C"/>
<stop offset="1" stop-color="#4B525A" stop-opacity="0.72"/>
</linearGradient>
<linearGradient id="paint1_linear_1874_8756" x1="29.8526" y1="178.396" x2="348.057" y2="178.396" gradientUnits="userSpaceOnUse">
<stop stop-color="#F838AB"/>
<stop offset="1" stop-color="white"/>
</linearGradient>
<linearGradient id="paint2_linear_1874_8756" x1="260.558" y1="128.5" x2="32.2564" y2="130.606" gradientUnits="userSpaceOnUse">
<stop stop-color="white" stop-opacity="0.7"/>
<stop offset="1" stop-color="white" stop-opacity="0.1"/>
</linearGradient>
<linearGradient id="paint3_linear_1874_8756" x1="144" y1="115" x2="144" y2="131" gradientUnits="userSpaceOnUse">
<stop stop-color="white" stop-opacity="0.3"/>
<stop offset="1" stop-color="white" stop-opacity="0.2"/>
</linearGradient>
<linearGradient id="paint4_linear_1874_8756" x1="77" y1="123" x2="25" y2="123" gradientUnits="userSpaceOnUse">
<stop stop-color="#F838AB"/>
<stop offset="1" stop-color="#F8385B"/>
</linearGradient>
</defs>
</svg>
