<svg xmlns="http://www.w3.org/2000/svg" width="133" height="31" fill="none" viewBox="0 0 133 31">
  <path fill="url(#a)" d="M11.665.511c1.496 0 2.935.251 4.318.753 1.392.502 2.633 1.302 3.721 2.4 1.099 1.1 1.965 2.558 2.6 4.376.644 1.808.97 4.03.98 6.662 0 2.471-.28 4.678-.838 6.619-.55 1.932-1.34 3.575-2.372 4.929-1.032 1.354-2.278 2.386-3.736 3.097-1.458.7-3.087 1.05-4.886 1.05-1.942 0-3.656-.373-5.142-1.121-1.487-.758-2.685-1.785-3.594-3.083-.9-1.307-1.444-2.774-1.634-4.403h6.066c.236 1.06.734 1.884 1.491 2.471.758.578 1.695.867 2.813.867 1.894 0 3.333-.824 4.318-2.472.985-1.657 1.482-3.925 1.491-6.804h-.198a6.964 6.964 0 0 1-1.762 2.202 8.202 8.202 0 0 1-2.543 1.406 9.091 9.091 0 0 1-3.025.497c-1.714 0-3.243-.402-4.588-1.207-1.345-.805-2.405-1.913-3.182-3.324-.776-1.41-1.165-3.02-1.165-4.83-.01-1.95.44-3.688 1.35-5.212.909-1.525 2.178-2.718 3.807-3.58C7.593.933 9.496.502 11.665.511Zm.042 4.83c-.956 0-1.808.227-2.556.682a5.031 5.031 0 0 0-1.762 1.832c-.426.767-.634 1.624-.625 2.571 0 .957.209 1.818.625 2.585a4.989 4.989 0 0 0 1.733 1.819c.739.445 1.582.667 2.529.667a4.87 4.87 0 0 0 3.55-1.491 5.236 5.236 0 0 0 1.066-1.634 5.06 5.06 0 0 0 .384-1.96 5.234 5.234 0 0 0-.654-2.528 4.993 4.993 0 0 0-1.761-1.847c-.748-.464-1.591-.696-2.529-.696Zm26.445 25.298c-2.444-.01-4.546-.61-6.307-1.804-1.752-1.193-3.101-2.921-4.048-5.184-.938-2.264-1.402-4.986-1.393-8.168 0-3.172.47-5.876 1.407-8.11.947-2.236 2.296-3.936 4.048-5.1C33.62 1.098 35.718.51 38.152.51c2.433 0 4.526.587 6.278 1.762 1.761 1.174 3.116 2.879 4.063 5.113.947 2.226 1.415 4.925 1.406 8.097 0 3.191-.474 5.918-1.42 8.182-.938 2.263-2.283 3.991-4.035 5.184-1.752 1.194-3.85 1.79-6.292 1.79Zm0-5.1c1.666 0 2.997-.837 3.991-2.513.995-1.677 1.487-4.19 1.477-7.543 0-2.207-.227-4.044-.681-5.511-.445-1.468-1.08-2.571-1.904-3.31a4.151 4.151 0 0 0-2.883-1.108c-1.657 0-2.983.829-3.978 2.486-.994 1.657-1.496 4.138-1.505 7.443 0 2.235.222 4.1.667 5.596.455 1.487 1.094 2.605 1.918 3.353a4.202 4.202 0 0 0 2.898 1.108Zm17.754 4.83a3.318 3.318 0 0 1-2.414-.994 3.318 3.318 0 0 1-.995-2.415c0-.928.332-1.723.995-2.386a3.318 3.318 0 0 1 2.414-.995c.91 0 1.705.332 2.387.995.682.663 1.023 1.458 1.023 2.386 0 .625-.162 1.198-.483 1.719a3.673 3.673 0 0 1-1.236 1.236 3.254 3.254 0 0 1-1.69.454Zm17.755.27c-2.443-.01-4.545-.61-6.307-1.804-1.752-1.193-3.101-2.921-4.048-5.184-.938-2.264-1.402-4.986-1.392-8.168 0-3.172.469-5.876 1.406-8.11.947-2.236 2.297-3.936 4.048-5.1C69.13 1.098 71.228.51 73.662.51c2.434 0 4.527.587 6.278 1.762 1.762 1.174 3.116 2.879 4.063 5.113.947 2.226 1.416 4.925 1.406 8.097 0 3.191-.473 5.918-1.42 8.182-.938 2.263-2.282 3.991-4.034 5.184-1.752 1.194-3.85 1.79-6.293 1.79Zm0-5.1c1.667 0 2.997-.837 3.992-2.513.994-1.677 1.486-4.19 1.477-7.543 0-2.207-.227-4.044-.682-5.511-.445-1.468-1.08-2.571-1.903-3.31a4.151 4.151 0 0 0-2.884-1.108c-1.657 0-2.983.829-3.977 2.486-.995 1.657-1.496 4.138-1.506 7.443 0 2.235.223 4.1.668 5.596.454 1.487 1.093 2.605 1.917 3.353a4.202 4.202 0 0 0 2.898 1.108Zm26.739 5.1c-2.443-.01-4.545-.61-6.307-1.804-1.752-1.193-3.101-2.921-4.048-5.184-.938-2.264-1.401-4.986-1.392-8.168 0-3.172.469-5.876 1.406-8.11.947-2.236 2.297-3.936 4.049-5.1C95.868 1.098 97.966.51 100.4.51c2.434 0 4.527.587 6.279 1.762 1.761 1.174 3.115 2.879 4.062 5.113.947 2.226 1.416 4.925 1.406 8.097 0 3.191-.473 5.918-1.42 8.182-.938 2.263-2.282 3.991-4.034 5.184-1.752 1.194-3.85 1.79-6.293 1.79Zm0-5.1c1.667 0 2.997-.837 3.992-2.513.994-1.677 1.486-4.19 1.477-7.543 0-2.207-.227-4.044-.682-5.511-.445-1.468-1.079-2.571-1.903-3.31a4.153 4.153 0 0 0-2.884-1.108c-1.657 0-2.983.829-3.977 2.486-.994 1.657-1.496 4.138-1.506 7.443 0 2.235.223 4.1.668 5.596.454 1.487 1.094 2.605 1.917 3.353a4.202 4.202 0 0 0 2.898 1.108Zm23.944 1.188v-.92c0-.699.147-1.341.443-1.926a3.514 3.514 0 0 1 1.304-1.415c.574-.358 1.273-.537 2.097-.537.835 0 1.536.176 2.105.528a3.384 3.384 0 0 1 1.295 1.415c.296.585.443 1.23.443 1.935v.92c0 .7-.147 1.344-.443 1.935a3.445 3.445 0 0 1-1.304 1.406c-.574.358-1.273.537-2.096.537-.836 0-1.537-.179-2.106-.537-.568-.352-1-.82-1.295-1.406a4.258 4.258 0 0 1-.443-1.935Zm2.48-.92v.92c0 .404.096.784.29 1.142.199.358.556.537 1.074.537.517 0 .869-.176 1.056-.528.194-.352.29-.736.29-1.15v-.921c0-.415-.091-.801-.273-1.16-.181-.357-.539-.536-1.073-.536-.512 0-.867.179-1.066.537a2.347 2.347 0 0 0-.298 1.159Zm-11.438-9.068v-.92c0-.705.151-1.35.452-1.936a3.513 3.513 0 0 1 1.304-1.414c.574-.352 1.267-.529 2.08-.529.841 0 1.545.177 2.113.529.568.352 1 .824 1.296 1.415.295.585.443 1.23.443 1.934v.92c0 .705-.151 1.35-.452 1.935a3.445 3.445 0 0 1-1.304 1.407c-.568.346-1.267.52-2.096.52-.83 0-1.532-.177-2.106-.529a3.54 3.54 0 0 1-1.295-1.406 4.278 4.278 0 0 1-.435-1.926Zm2.498-.92v.92c0 .414.096.798.289 1.15.199.352.549.529 1.049.529.522 0 .877-.177 1.065-.529.193-.352.29-.736.29-1.15v-.92a2.52 2.52 0 0 0-.273-1.16c-.182-.358-.543-.537-1.082-.537-.506 0-.856.182-1.049.546a2.42 2.42 0 0 0-.289 1.15ZM116.511 30l12-17.454h2.233l-12 17.454h-2.233Z"/>
  <text fill="url(#a)" x="0%" y="50%">
    90.00%
  </text>
  <defs>
    <linearGradient id="a" x1="114" x2="-17" y1="15" y2="15" gradientUnits="userSpaceOnUse">
      <stop offset=".04" stop-color="#FFA1D9"/>
      <stop offset=".985" stop-color="#F838AB"/>
    </linearGradient>
  </defs>
</svg>