<svg xmlns="http://www.w3.org/2000/svg" width="24" height="24" fill="#0D1116" viewBox="0 0 24 24">
  <path fill="#fff" fill-rule="evenodd" d="M12 24c6.627 0 12-5.373 12-12S18.627 0 12 0 0 5.373 0 12s5.373 12 12 12Zm-.61-18.767c-.448-.447-1.844-1.445-3.1-1.633-.398.481-.23 2.994.272 3.684l.007-.001c-.266.262-.53.492-.823.65h.46L6.89 9.273c.104.007.502-.084.502-.084l-.105.23s.315.715 2.74 2.015c-1.25 1.966-1.76 3.536-1.774 4.764-.293.41-.514.875-.645 1.376.35.171.715.323 1.09.453.786 1.364 2.489 1.928 4.086 1.928 2.825 0 6.047-3.33 2.293-8.574h-.005c2.19-1.268 2.477-1.965 2.477-1.965l-.098-.23s.373.09.47.084l-1.236-1.342h.432c-.276-.159-.526-.391-.777-.656.495-.71.658-3.194.263-3.672-1.217.182-2.564 1.124-3.053 1.589a4.011 4.011 0 0 0-.966-.103v.008a4.457 4.457 0 0 0-1.194.142v-.003ZM6.502 16.94a7.975 7.975 0 0 1-1.078-.858 4.21 4.21 0 0 1 2.386-2.838c.245.326.465.672.651 1.002a5.45 5.45 0 0 0-1.96 2.694Zm.42-4.64a5.46 5.46 0 0 0-2.42 2.648c-.571-.964-.632-1.973.103-2.814.82-.611 1.621-.393 2.317.167Z" clip-rule="evenodd"/>
</svg>
