<svg width="774" height="213" viewBox="0 0 774 213" fill="none" xmlns="http://www.w3.org/2000/svg">
<path opacity="0.2" d="M1.25506e-05 143.113L4.80875 140.356L9.61749 173.999L14.4263 177.445L19.235 141.669L24.0437 136.548L28.8525 151.318L33.6613 144.524L38.47 116.69L43.2787 189.951L48.0875 175.968L52.8963 135.367L57.705 148.66L62.5138 197.664L67.3225 136.647L72.1313 126.57L76.94 203.671L81.7488 195.203L86.5575 182.5L91.3663 177.052L96.1751 127.161L100.984 159.754L105.793 177.971L110.601 95.5526L115.41 122.434L120.219 145.903L125.028 121.876L129.836 202.85L134.645 143.211L139.454 89.6117L144.263 101.133L149.071 150.99L153.88 134.316L158.689 157.358L163.498 145.148L168.306 154.305L173.115 121.778L177.924 156.439L182.733 184.634L187.541 212.5L192.35 203.671L197.159 173.868L201.968 76.5811L206.776 97.9487L211.585 130.115L216.394 89.3163L221.203 136.811L226.011 101.428L230.82 122.336L235.629 123.78L240.438 124.699L245.246 113.408L250.055 76.8108L254.864 59.8415L259.673 86.2966L264.481 62.3032L269.29 101.822L274.099 48.1566L278.908 163.332L283.716 180.137L288.525 108.78L293.334 76.6467L298.143 70.1478L302.951 69.2616L307.76 54.1631L312.569 65.7824L317.378 107.172L322.186 57.8393L326.995 91.4826L331.804 46.1872L336.613 49.6336L341.421 101.723L346.23 96.6686L351.039 102.019L355.848 77.0078L360.656 79.7649L365.465 55.3448L370.274 68.0472L375.083 51.1106L379.891 74.0209L384.7 71.2966L389.509 75.9903L394.318 26.5592L399.126 35.0603L403.935 61.5154L408.744 53.2113L413.553 67.3907L418.361 39.6555L423.17 64.1741L427.979 43.4957L432.788 42.5767L437.596 51.4389L442.205 57.6752L447.014 40.9356L451.822 48.452L456.631 41.0012L461.44 29.4476L466.249 62.6971L471.057 49.0756L475.866 52.0953L480.675 60.2354L485.484 36.045L490.292 105.859L495.101 110.323L499.91 95.848L504.719 81.2091L509.527 53.0143L514.336 86.0669L519.145 40.115L523.954 60.7933L528.762 168.386L533.571 131.264L538.38 66.8655L543.189 57.3469L547.997 37.0297L552.806 101.067L557.615 102.511L562.424 81.7014L567.232 32.0078L572.041 56.3951L576.85 82.9159L581.659 62.1391L586.467 23.9334L591.276 16.1544L596.085 45.662L600.894 31.7452L605.702 32.1719L610.511 42.9049L615.32 12.2813L620.129 8.34257L624.937 54.8196L629.746 17.5329L634.555 28.8568L639.364 54.4257L644.172 73.9881L648.981 87.5111L653.79 37.1609L658.599 24.7868L663.407 48.6489L668.216 103.561L673.025 69.9837L677.834 76.8765L682.642 79.5351L687.451 35.5198L692.26 17.0078L697.069 24.3601L701.877 28.2332L706.686 9.52419L711.495 -6.39484L716.304 50.1588L721.112 110.914L725.921 75.6949L730.73 41.9202L735.539 53.8677L740.347 10.1806L745.156 -27.6312L749.965 -44.7646L754.774 -37.0841L759.582 -8.42986L764.391 5.45417L769.2 -2.84999L774 -27.1388" stroke="#17CFCF" stroke-width="3" stroke-linecap="round" stroke-linejoin="round"/>
</svg>
