<svg width="635" height="299" viewBox="0 0 635 299" fill="none" xmlns="http://www.w3.org/2000/svg">
<path d="M0.5 16C0.5 7.43958 7.43959 0.5 16 0.5H619C627.56 0.5 634.5 7.43959 634.5 16V283C634.5 291.56 627.56 298.5 619 298.5H16C7.43959 298.5 0.5 291.56 0.5 283V16Z" fill="url(#paint0_linear_1384_8888)"/>
<path d="M0.5 16C0.5 7.43958 7.43959 0.5 16 0.5H619C627.56 0.5 634.5 7.43959 634.5 16V283C634.5 291.56 627.56 298.5 619 298.5H16C7.43959 298.5 0.5 291.56 0.5 283V16Z" fill="url(#paint1_radial_1384_8888)" fill-opacity="0.2"/>
<path d="M0.5 16C0.5 7.43958 7.43959 0.5 16 0.5H619C627.56 0.5 634.5 7.43959 634.5 16V283C634.5 291.56 627.56 298.5 619 298.5H16C7.43959 298.5 0.5 291.56 0.5 283V16Z" stroke="url(#paint2_linear_1384_8888)"/>
<path d="M0.5 16C0.5 7.43958 7.43959 0.5 16 0.5H619C627.56 0.5 634.5 7.43959 634.5 16V283C634.5 291.56 627.56 298.5 619 298.5H16C7.43959 298.5 0.5 291.56 0.5 283V16Z" stroke="url(#paint3_radial_1384_8888)" stroke-opacity="0.2"/>
<mask id="mask0_1384_8888" style="mask-type:alpha" maskUnits="userSpaceOnUse" x="0" y="0" width="635" height="297">
<path d="M0.5 16C0.5 7.43959 7.43959 0.5 16 0.5H619C627.56 0.5 634.5 7.43959 634.5 16V281C634.5 289.56 627.56 296.5 619 296.5H16C7.43959 296.5 0.5 289.56 0.5 281V16Z" fill="url(#paint4_radial_1384_8888)" stroke="url(#paint5_linear_1384_8888)"/>
</mask>
<g mask="url(#mask0_1384_8888)">
<g filter="url(#filter0_b_1384_8888)">
<rect x="153" y="39" width="330" height="192" rx="12" fill="url(#paint6_linear_1384_8888)"/>
<rect x="153.5" y="39.5" width="329" height="191" rx="11.5" stroke="url(#paint7_linear_1384_8888)"/>
</g>
<rect x="176" y="105" width="80" height="76.0137" rx="12" fill="url(#paint8_linear_1384_8888)"/>
<g filter="url(#filter1_b_1384_8888)">
<rect x="178" y="56" width="200" height="12" rx="4" fill="url(#paint9_linear_1384_8888)"/>
</g>
<g filter="url(#filter2_b_1384_8888)">
<rect x="252" y="205" width="53" height="12" rx="4" fill="url(#paint10_linear_1384_8888)"/>
</g>
<g filter="url(#filter3_b_1384_8888)">
<rect x="314" y="205" width="95" height="12" rx="4" fill="url(#paint11_linear_1384_8888)"/>
</g>
<g filter="url(#filter4_b_1384_8888)">
<rect x="178" y="74" width="96" height="12" rx="4" fill="url(#paint12_linear_1384_8888)"/>
</g>
<g filter="url(#filter5_b_1384_8888)">
<rect x="274" y="107" width="57" height="12" rx="4" fill="url(#paint13_linear_1384_8888)"/>
</g>
<g filter="url(#filter6_b_1384_8888)">
<rect x="274" y="127" width="104" height="12" rx="4" fill="url(#paint14_linear_1384_8888)"/>
</g>
<g filter="url(#filter7_b_1384_8888)">
<rect x="274" y="166" width="72" height="12" rx="4" fill="url(#paint15_linear_1384_8888)"/>
</g>
<g filter="url(#filter8_b_1384_8888)">
<rect x="273" y="146" width="45" height="12" rx="4" fill="url(#paint16_linear_1384_8888)"/>
</g>
<path d="M214.957 253.455H217.059L222.002 265.528H222.173L227.116 253.455H229.218V268H227.57V256.949H227.428L222.883 268H221.292L216.746 256.949H216.604V268H214.957V253.455ZM235.733 268.256C235.041 268.256 234.414 268.125 233.85 267.865C233.287 267.6 232.84 267.219 232.508 266.722C232.177 266.22 232.011 265.614 232.011 264.903C232.011 264.278 232.134 263.772 232.38 263.384C232.627 262.991 232.956 262.683 233.368 262.46C233.779 262.238 234.234 262.072 234.731 261.963C235.233 261.849 235.737 261.759 236.244 261.693C236.907 261.608 237.444 261.544 237.856 261.501C238.273 261.454 238.576 261.376 238.765 261.267C238.959 261.158 239.056 260.969 239.056 260.699V260.642C239.056 259.941 238.865 259.397 238.481 259.009C238.102 258.62 237.527 258.426 236.755 258.426C235.955 258.426 235.328 258.601 234.873 258.952C234.419 259.302 234.099 259.676 233.914 260.074L232.324 259.506C232.608 258.843 232.986 258.327 233.46 257.957C233.938 257.583 234.459 257.323 235.022 257.176C235.591 257.025 236.149 256.949 236.699 256.949C237.049 256.949 237.451 256.991 237.906 257.077C238.365 257.157 238.808 257.325 239.234 257.581C239.665 257.837 240.022 258.223 240.306 258.739C240.591 259.255 240.733 259.946 240.733 260.812V268H239.056V266.523H238.971C238.858 266.759 238.668 267.013 238.403 267.283C238.138 267.553 237.785 267.782 237.345 267.972C236.904 268.161 236.367 268.256 235.733 268.256ZM235.988 266.75C236.651 266.75 237.21 266.62 237.664 266.359C238.124 266.099 238.469 265.763 238.701 265.351C238.938 264.939 239.056 264.506 239.056 264.051V262.517C238.985 262.602 238.829 262.68 238.588 262.751C238.351 262.818 238.076 262.877 237.764 262.929C237.456 262.976 237.155 263.019 236.862 263.057C236.573 263.09 236.339 263.118 236.159 263.142C235.723 263.199 235.316 263.291 234.937 263.419C234.563 263.542 234.26 263.729 234.028 263.98C233.801 264.226 233.687 264.562 233.687 264.989C233.687 265.571 233.903 266.011 234.333 266.31C234.769 266.603 235.321 266.75 235.988 266.75ZM251.519 259.534L250.013 259.96C249.919 259.709 249.779 259.465 249.594 259.229C249.415 258.987 249.168 258.788 248.856 258.632C248.543 258.476 248.143 258.398 247.656 258.398C246.988 258.398 246.432 258.552 245.987 258.859C245.546 259.162 245.326 259.548 245.326 260.017C245.326 260.434 245.478 260.763 245.781 261.004C246.084 261.246 246.557 261.447 247.201 261.608L248.82 262.006C249.796 262.242 250.522 262.605 251.001 263.092C251.479 263.575 251.718 264.198 251.718 264.96C251.718 265.585 251.538 266.144 251.178 266.636C250.823 267.129 250.326 267.517 249.687 267.801C249.048 268.085 248.304 268.227 247.457 268.227C246.344 268.227 245.423 267.986 244.694 267.503C243.965 267.02 243.503 266.314 243.309 265.386L244.9 264.989C245.051 265.576 245.338 266.016 245.759 266.31C246.185 266.603 246.742 266.75 247.428 266.75C248.21 266.75 248.83 266.584 249.289 266.253C249.753 265.917 249.985 265.514 249.985 265.045C249.985 264.667 249.853 264.349 249.587 264.094C249.322 263.833 248.915 263.639 248.366 263.511L246.548 263.085C245.549 262.848 244.815 262.482 244.346 261.984C243.882 261.482 243.65 260.855 243.65 260.102C243.65 259.487 243.823 258.942 244.168 258.469C244.519 257.995 244.995 257.624 245.596 257.354C246.202 257.084 246.888 256.949 247.656 256.949C248.735 256.949 249.583 257.186 250.198 257.659C250.818 258.133 251.259 258.758 251.519 259.534ZM255.804 264.023L255.775 261.949H256.116L260.889 257.091H262.963L257.877 262.233H257.735L255.804 264.023ZM254.241 268V253.455H255.917V268H254.241ZM261.173 268L256.912 262.602L258.105 261.438L263.304 268H261.173ZM269.245 268.227C268.194 268.227 267.287 267.995 266.525 267.531C265.767 267.062 265.182 266.409 264.77 265.571C264.363 264.728 264.159 263.748 264.159 262.631C264.159 261.513 264.363 260.528 264.77 259.676C265.182 258.819 265.755 258.152 266.489 257.673C267.228 257.19 268.089 256.949 269.074 256.949C269.642 256.949 270.203 257.044 270.757 257.233C271.311 257.422 271.816 257.73 272.27 258.156C272.725 258.578 273.087 259.136 273.357 259.832C273.627 260.528 273.762 261.385 273.762 262.403V263.114H265.353V261.665H272.057C272.057 261.049 271.934 260.5 271.688 260.017C271.446 259.534 271.101 259.153 270.651 258.874C270.206 258.594 269.68 258.455 269.074 258.455C268.407 258.455 267.829 258.62 267.341 258.952C266.858 259.278 266.487 259.705 266.226 260.23C265.966 260.756 265.836 261.319 265.836 261.92V262.886C265.836 263.71 265.978 264.409 266.262 264.982C266.551 265.55 266.951 265.983 267.462 266.281C267.973 266.575 268.568 266.722 269.245 266.722C269.685 266.722 270.083 266.66 270.438 266.537C270.798 266.409 271.108 266.22 271.368 265.969C271.629 265.713 271.83 265.396 271.972 265.017L273.591 265.472C273.421 266.021 273.134 266.504 272.732 266.92C272.329 267.332 271.832 267.654 271.24 267.886C270.649 268.114 269.983 268.227 269.245 268.227ZM280.431 268.227C279.522 268.227 278.719 267.998 278.023 267.538C277.327 267.074 276.783 266.421 276.39 265.578C275.997 264.731 275.8 263.729 275.8 262.574C275.8 261.428 275.997 260.434 276.39 259.591C276.783 258.748 277.329 258.097 278.03 257.638C278.731 257.179 279.541 256.949 280.459 256.949C281.169 256.949 281.73 257.067 282.142 257.304C282.559 257.536 282.876 257.801 283.094 258.099C283.317 258.393 283.489 258.634 283.613 258.824H283.755V253.455H285.431V268H283.811V266.324H283.613C283.489 266.523 283.314 266.774 283.087 267.077C282.86 267.375 282.535 267.643 282.114 267.879C281.693 268.111 281.132 268.227 280.431 268.227ZM280.658 266.722C281.33 266.722 281.899 266.546 282.363 266.196C282.827 265.841 283.179 265.351 283.421 264.726C283.662 264.096 283.783 263.369 283.783 262.545C283.783 261.731 283.665 261.018 283.428 260.408C283.191 259.792 282.841 259.314 282.377 258.973C281.913 258.627 281.34 258.455 280.658 258.455C279.948 258.455 279.356 258.637 278.882 259.001C278.414 259.361 278.061 259.851 277.824 260.472C277.592 261.087 277.476 261.778 277.476 262.545C277.476 263.322 277.595 264.027 277.831 264.662C278.073 265.292 278.428 265.794 278.897 266.168C279.37 266.537 279.957 266.722 280.658 266.722ZM295.182 268H293.336L298.676 253.455H300.495L305.836 268H303.989L299.642 255.756H299.529L295.182 268ZM295.864 262.318H303.307V263.881H295.864V262.318ZM311.084 268.256C310.393 268.256 309.766 268.125 309.202 267.865C308.639 267.6 308.191 267.219 307.86 266.722C307.528 266.22 307.363 265.614 307.363 264.903C307.363 264.278 307.486 263.772 307.732 263.384C307.978 262.991 308.307 262.683 308.719 262.46C309.131 262.238 309.586 262.072 310.083 261.963C310.585 261.849 311.089 261.759 311.596 261.693C312.258 261.608 312.796 261.544 313.208 261.501C313.624 261.454 313.927 261.376 314.117 261.267C314.311 261.158 314.408 260.969 314.408 260.699V260.642C314.408 259.941 314.216 259.397 313.833 259.009C313.454 258.62 312.879 258.426 312.107 258.426C311.307 258.426 310.679 258.601 310.225 258.952C309.77 259.302 309.451 259.676 309.266 260.074L307.675 259.506C307.959 258.843 308.338 258.327 308.811 257.957C309.29 257.583 309.81 257.323 310.374 257.176C310.942 257.025 311.501 256.949 312.05 256.949C312.4 256.949 312.803 256.991 313.257 257.077C313.717 257.157 314.159 257.325 314.586 257.581C315.016 257.837 315.374 258.223 315.658 258.739C315.942 259.255 316.084 259.946 316.084 260.812V268H314.408V266.523H314.323C314.209 266.759 314.02 267.013 313.755 267.283C313.489 267.553 313.137 267.782 312.696 267.972C312.256 268.161 311.719 268.256 311.084 268.256ZM311.34 266.75C312.003 266.75 312.561 266.62 313.016 266.359C313.475 266.099 313.821 265.763 314.053 265.351C314.29 264.939 314.408 264.506 314.408 264.051V262.517C314.337 262.602 314.181 262.68 313.939 262.751C313.703 262.818 313.428 262.877 313.115 262.929C312.808 262.976 312.507 263.019 312.213 263.057C311.925 263.09 311.69 263.118 311.51 263.142C311.075 263.199 310.667 263.291 310.289 263.419C309.915 263.542 309.612 263.729 309.38 263.98C309.152 264.226 309.039 264.562 309.039 264.989C309.039 265.571 309.254 266.011 309.685 266.31C310.121 266.603 310.672 266.75 311.34 266.75ZM323.263 268.227C322.354 268.227 321.551 267.998 320.855 267.538C320.159 267.074 319.615 266.421 319.222 265.578C318.829 264.731 318.632 263.729 318.632 262.574C318.632 261.428 318.829 260.434 319.222 259.591C319.615 258.748 320.161 258.097 320.862 257.638C321.563 257.179 322.373 256.949 323.291 256.949C324.001 256.949 324.563 257.067 324.974 257.304C325.391 257.536 325.708 257.801 325.926 258.099C326.149 258.393 326.321 258.634 326.445 258.824H326.587V253.455H328.263V268H326.643V266.324H326.445C326.321 266.523 326.146 266.774 325.919 267.077C325.692 267.375 325.367 267.643 324.946 267.879C324.525 268.111 323.964 268.227 323.263 268.227ZM323.49 266.722C324.162 266.722 324.731 266.546 325.195 266.196C325.659 265.841 326.011 265.351 326.253 264.726C326.494 264.096 326.615 263.369 326.615 262.545C326.615 261.731 326.497 261.018 326.26 260.408C326.023 259.792 325.673 259.314 325.209 258.973C324.745 258.627 324.172 258.455 323.49 258.455C322.78 258.455 322.188 258.637 321.714 259.001C321.246 259.361 320.893 259.851 320.656 260.472C320.424 261.087 320.308 261.778 320.308 262.545C320.308 263.322 320.427 264.027 320.663 264.662C320.905 265.292 321.26 265.794 321.729 266.168C322.202 266.537 322.789 266.722 323.49 266.722ZM333.241 261.438V268H331.565V253.455H333.241V258.795H333.384C333.639 258.232 334.023 257.785 334.534 257.453C335.05 257.117 335.737 256.949 336.594 256.949C337.337 256.949 337.988 257.098 338.547 257.396C339.106 257.69 339.539 258.142 339.847 258.753C340.159 259.359 340.315 260.131 340.315 261.068V268H338.639V261.182C338.639 260.315 338.414 259.645 337.964 259.172C337.519 258.694 336.902 258.455 336.111 258.455C335.562 258.455 335.069 258.571 334.634 258.803C334.203 259.035 333.862 259.373 333.611 259.818C333.365 260.263 333.241 260.803 333.241 261.438ZM346.592 268.256C345.901 268.256 345.273 268.125 344.71 267.865C344.146 267.6 343.699 267.219 343.368 266.722C343.036 266.22 342.87 265.614 342.87 264.903C342.87 264.278 342.993 263.772 343.24 263.384C343.486 262.991 343.815 262.683 344.227 262.46C344.639 262.238 345.093 262.072 345.591 261.963C346.092 261.849 346.597 261.759 347.103 261.693C347.766 261.608 348.304 261.544 348.716 261.501C349.132 261.454 349.435 261.376 349.625 261.267C349.819 261.158 349.916 260.969 349.916 260.699V260.642C349.916 259.941 349.724 259.397 349.341 259.009C348.962 258.62 348.386 258.426 347.615 258.426C346.815 258.426 346.187 258.601 345.733 258.952C345.278 259.302 344.958 259.676 344.774 260.074L343.183 259.506C343.467 258.843 343.846 258.327 344.319 257.957C344.797 257.583 345.318 257.323 345.882 257.176C346.45 257.025 347.009 256.949 347.558 256.949C347.908 256.949 348.311 256.991 348.765 257.077C349.225 257.157 349.667 257.325 350.093 257.581C350.524 257.837 350.882 258.223 351.166 258.739C351.45 259.255 351.592 259.946 351.592 260.812V268H349.916V266.523H349.831C349.717 266.759 349.528 267.013 349.262 267.283C348.997 267.553 348.645 267.782 348.204 267.972C347.764 268.161 347.226 268.256 346.592 268.256ZM346.848 266.75C347.511 266.75 348.069 266.62 348.524 266.359C348.983 266.099 349.329 265.763 349.561 265.351C349.797 264.939 349.916 264.506 349.916 264.051V262.517C349.845 262.602 349.689 262.68 349.447 262.751C349.21 262.818 348.936 262.877 348.623 262.929C348.315 262.976 348.015 263.019 347.721 263.057C347.432 263.09 347.198 263.118 347.018 263.142C346.583 263.199 346.175 263.291 345.797 263.419C345.422 263.542 345.119 263.729 344.887 263.98C344.66 264.226 344.547 264.562 344.547 264.989C344.547 265.571 344.762 266.011 345.193 266.31C345.628 266.603 346.18 266.75 346.848 266.75ZM357.862 268.256C357.17 268.256 356.543 268.125 355.979 267.865C355.416 267.6 354.969 267.219 354.637 266.722C354.306 266.22 354.14 265.614 354.14 264.903C354.14 264.278 354.263 263.772 354.509 263.384C354.755 262.991 355.085 262.683 355.496 262.46C355.908 262.238 356.363 262.072 356.86 261.963C357.362 261.849 357.866 261.759 358.373 261.693C359.036 261.608 359.573 261.544 359.985 261.501C360.402 261.454 360.705 261.376 360.894 261.267C361.088 261.158 361.185 260.969 361.185 260.699V260.642C361.185 259.941 360.994 259.397 360.61 259.009C360.231 258.62 359.656 258.426 358.884 258.426C358.084 258.426 357.457 258.601 357.002 258.952C356.548 259.302 356.228 259.676 356.043 260.074L354.452 259.506C354.737 258.843 355.115 258.327 355.589 257.957C356.067 257.583 356.588 257.323 357.151 257.176C357.719 257.025 358.278 256.949 358.827 256.949C359.178 256.949 359.58 256.991 360.035 257.077C360.494 257.157 360.937 257.325 361.363 257.581C361.794 257.837 362.151 258.223 362.435 258.739C362.719 259.255 362.862 259.946 362.862 260.812V268H361.185V266.523H361.1C360.987 266.759 360.797 267.013 360.532 267.283C360.267 267.553 359.914 267.782 359.474 267.972C359.033 268.161 358.496 268.256 357.862 268.256ZM358.117 266.75C358.78 266.75 359.339 266.62 359.793 266.359C360.253 266.099 360.598 265.763 360.83 265.351C361.067 264.939 361.185 264.506 361.185 264.051V262.517C361.114 262.602 360.958 262.68 360.717 262.751C360.48 262.818 360.205 262.877 359.893 262.929C359.585 262.976 359.284 263.019 358.991 263.057C358.702 263.09 358.468 263.118 358.288 263.142C357.852 263.199 357.445 263.291 357.066 263.419C356.692 263.542 356.389 263.729 356.157 263.98C355.93 264.226 355.816 264.562 355.816 264.989C355.816 265.571 356.031 266.011 356.462 266.31C356.898 266.603 357.45 266.75 358.117 266.75ZM365.921 268V257.091H367.54V258.739H367.654C367.853 258.199 368.212 257.761 368.733 257.425C369.254 257.089 369.841 256.92 370.495 256.92C370.618 256.92 370.772 256.923 370.956 256.928C371.141 256.932 371.281 256.939 371.375 256.949V258.653C371.319 258.639 371.188 258.618 370.985 258.589C370.786 258.556 370.575 258.54 370.353 258.54C369.822 258.54 369.349 258.651 368.932 258.874C368.52 259.091 368.194 259.394 367.952 259.783C367.715 260.166 367.597 260.604 367.597 261.097V268H365.921ZM390.919 258H389.158C389.054 257.493 388.871 257.048 388.611 256.665C388.355 256.281 388.043 255.959 387.673 255.699C387.309 255.434 386.904 255.235 386.459 255.102C386.014 254.97 385.55 254.903 385.067 254.903C384.186 254.903 383.388 255.126 382.673 255.571C381.963 256.016 381.397 256.672 380.976 257.538C380.559 258.405 380.351 259.468 380.351 260.727C380.351 261.987 380.559 263.05 380.976 263.916C381.397 264.783 381.963 265.438 382.673 265.884C383.388 266.329 384.186 266.551 385.067 266.551C385.55 266.551 386.014 266.485 386.459 266.352C386.904 266.22 387.309 266.023 387.673 265.763C388.043 265.498 388.355 265.173 388.611 264.79C388.871 264.402 389.054 263.956 389.158 263.455H390.919C390.786 264.198 390.545 264.863 390.195 265.45C389.844 266.037 389.409 266.537 388.888 266.949C388.367 267.356 387.782 267.666 387.134 267.879C386.49 268.092 385.801 268.199 385.067 268.199C383.826 268.199 382.723 267.896 381.757 267.29C380.791 266.684 380.031 265.822 379.477 264.705C378.923 263.587 378.646 262.261 378.646 260.727C378.646 259.193 378.923 257.867 379.477 256.75C380.031 255.633 380.791 254.771 381.757 254.165C382.723 253.559 383.826 253.256 385.067 253.256C385.801 253.256 386.49 253.362 387.134 253.575C387.782 253.788 388.367 254.101 388.888 254.513C389.409 254.92 389.844 255.417 390.195 256.004C390.545 256.587 390.786 257.252 390.919 258ZM396.748 268.256C396.057 268.256 395.43 268.125 394.866 267.865C394.303 267.6 393.855 267.219 393.524 266.722C393.192 266.22 393.027 265.614 393.027 264.903C393.027 264.278 393.15 263.772 393.396 263.384C393.642 262.991 393.971 262.683 394.383 262.46C394.795 262.238 395.25 262.072 395.747 261.963C396.249 261.849 396.753 261.759 397.26 261.693C397.922 261.608 398.46 261.544 398.872 261.501C399.288 261.454 399.592 261.376 399.781 261.267C399.975 261.158 400.072 260.969 400.072 260.699V260.642C400.072 259.941 399.88 259.397 399.497 259.009C399.118 258.62 398.543 258.426 397.771 258.426C396.971 258.426 396.343 258.601 395.889 258.952C395.434 259.302 395.115 259.676 394.93 260.074L393.339 259.506C393.623 258.843 394.002 258.327 394.475 257.957C394.954 257.583 395.475 257.323 396.038 257.176C396.606 257.025 397.165 256.949 397.714 256.949C398.065 256.949 398.467 256.991 398.922 257.077C399.381 257.157 399.824 257.325 400.25 257.581C400.681 257.837 401.038 258.223 401.322 258.739C401.606 259.255 401.748 259.946 401.748 260.812V268H400.072V266.523H399.987C399.873 266.759 399.684 267.013 399.419 267.283C399.154 267.553 398.801 267.782 398.36 267.972C397.92 268.161 397.383 268.256 396.748 268.256ZM397.004 266.75C397.667 266.75 398.225 266.62 398.68 266.359C399.139 266.099 399.485 265.763 399.717 265.351C399.954 264.939 400.072 264.506 400.072 264.051V262.517C400.001 262.602 399.845 262.68 399.603 262.751C399.367 262.818 399.092 262.877 398.779 262.929C398.472 262.976 398.171 263.019 397.877 263.057C397.589 263.09 397.354 263.118 397.174 263.142C396.739 263.199 396.332 263.291 395.953 263.419C395.579 263.542 395.276 263.729 395.044 263.98C394.816 264.226 394.703 264.562 394.703 264.989C394.703 265.571 394.918 266.011 395.349 266.31C395.785 266.603 396.336 266.75 397.004 266.75ZM404.808 268V257.091H406.427V258.739H406.54C406.739 258.199 407.099 257.761 407.62 257.425C408.141 257.089 408.728 256.92 409.381 256.92C409.504 256.92 409.658 256.923 409.843 256.928C410.028 256.932 410.167 256.939 410.262 256.949V258.653C410.205 258.639 410.075 258.618 409.871 258.589C409.673 258.556 409.462 258.54 409.239 258.54C408.709 258.54 408.236 258.651 407.819 258.874C407.407 259.091 407.08 259.394 406.839 259.783C406.602 260.166 406.484 260.604 406.484 261.097V268H404.808ZM416.036 268.227C415.127 268.227 414.325 267.998 413.629 267.538C412.933 267.074 412.388 266.421 411.995 265.578C411.602 264.731 411.406 263.729 411.406 262.574C411.406 261.428 411.602 260.434 411.995 259.591C412.388 258.748 412.935 258.097 413.636 257.638C414.336 257.179 415.146 256.949 416.065 256.949C416.775 256.949 417.336 257.067 417.748 257.304C418.165 257.536 418.482 257.801 418.7 258.099C418.922 258.393 419.095 258.634 419.218 258.824H419.36V253.455H421.036V268H419.417V266.324H419.218C419.095 266.523 418.92 266.774 418.692 267.077C418.465 267.375 418.141 267.643 417.719 267.879C417.298 268.111 416.737 268.227 416.036 268.227ZM416.263 266.722C416.936 266.722 417.504 266.546 417.968 266.196C418.432 265.841 418.785 265.351 419.026 264.726C419.268 264.096 419.388 263.369 419.388 262.545C419.388 261.731 419.27 261.018 419.033 260.408C418.797 259.792 418.446 259.314 417.982 258.973C417.518 258.627 416.945 258.455 416.263 258.455C415.553 258.455 414.961 258.637 414.488 259.001C414.019 259.361 413.666 259.851 413.43 260.472C413.198 261.087 413.082 261.778 413.082 262.545C413.082 263.322 413.2 264.027 413.437 264.662C413.678 265.292 414.033 265.794 414.502 266.168C414.976 266.537 415.563 266.722 416.263 266.722Z" fill="#33B3AE"/>
</g>
<defs>
<filter id="filter0_b_1384_8888" x="125" y="11" width="386" height="248" filterUnits="userSpaceOnUse" color-interpolation-filters="sRGB">
<feFlood flood-opacity="0" result="BackgroundImageFix"/>
<feGaussianBlur in="BackgroundImageFix" stdDeviation="14"/>
<feComposite in2="SourceAlpha" operator="in" result="effect1_backgroundBlur_1384_8888"/>
<feBlend mode="normal" in="SourceGraphic" in2="effect1_backgroundBlur_1384_8888" result="shape"/>
</filter>
<filter id="filter1_b_1384_8888" x="166" y="44" width="224" height="36" filterUnits="userSpaceOnUse" color-interpolation-filters="sRGB">
<feFlood flood-opacity="0" result="BackgroundImageFix"/>
<feGaussianBlur in="BackgroundImageFix" stdDeviation="6"/>
<feComposite in2="SourceAlpha" operator="in" result="effect1_backgroundBlur_1384_8888"/>
<feBlend mode="normal" in="SourceGraphic" in2="effect1_backgroundBlur_1384_8888" result="shape"/>
</filter>
<filter id="filter2_b_1384_8888" x="240" y="193" width="77" height="36" filterUnits="userSpaceOnUse" color-interpolation-filters="sRGB">
<feFlood flood-opacity="0" result="BackgroundImageFix"/>
<feGaussianBlur in="BackgroundImageFix" stdDeviation="6"/>
<feComposite in2="SourceAlpha" operator="in" result="effect1_backgroundBlur_1384_8888"/>
<feBlend mode="normal" in="SourceGraphic" in2="effect1_backgroundBlur_1384_8888" result="shape"/>
</filter>
<filter id="filter3_b_1384_8888" x="302" y="193" width="119" height="36" filterUnits="userSpaceOnUse" color-interpolation-filters="sRGB">
<feFlood flood-opacity="0" result="BackgroundImageFix"/>
<feGaussianBlur in="BackgroundImageFix" stdDeviation="6"/>
<feComposite in2="SourceAlpha" operator="in" result="effect1_backgroundBlur_1384_8888"/>
<feBlend mode="normal" in="SourceGraphic" in2="effect1_backgroundBlur_1384_8888" result="shape"/>
</filter>
<filter id="filter4_b_1384_8888" x="166" y="62" width="120" height="36" filterUnits="userSpaceOnUse" color-interpolation-filters="sRGB">
<feFlood flood-opacity="0" result="BackgroundImageFix"/>
<feGaussianBlur in="BackgroundImageFix" stdDeviation="6"/>
<feComposite in2="SourceAlpha" operator="in" result="effect1_backgroundBlur_1384_8888"/>
<feBlend mode="normal" in="SourceGraphic" in2="effect1_backgroundBlur_1384_8888" result="shape"/>
</filter>
<filter id="filter5_b_1384_8888" x="262" y="95" width="81" height="36" filterUnits="userSpaceOnUse" color-interpolation-filters="sRGB">
<feFlood flood-opacity="0" result="BackgroundImageFix"/>
<feGaussianBlur in="BackgroundImageFix" stdDeviation="6"/>
<feComposite in2="SourceAlpha" operator="in" result="effect1_backgroundBlur_1384_8888"/>
<feBlend mode="normal" in="SourceGraphic" in2="effect1_backgroundBlur_1384_8888" result="shape"/>
</filter>
<filter id="filter6_b_1384_8888" x="262" y="115" width="128" height="36" filterUnits="userSpaceOnUse" color-interpolation-filters="sRGB">
<feFlood flood-opacity="0" result="BackgroundImageFix"/>
<feGaussianBlur in="BackgroundImageFix" stdDeviation="6"/>
<feComposite in2="SourceAlpha" operator="in" result="effect1_backgroundBlur_1384_8888"/>
<feBlend mode="normal" in="SourceGraphic" in2="effect1_backgroundBlur_1384_8888" result="shape"/>
</filter>
<filter id="filter7_b_1384_8888" x="262" y="154" width="96" height="36" filterUnits="userSpaceOnUse" color-interpolation-filters="sRGB">
<feFlood flood-opacity="0" result="BackgroundImageFix"/>
<feGaussianBlur in="BackgroundImageFix" stdDeviation="6"/>
<feComposite in2="SourceAlpha" operator="in" result="effect1_backgroundBlur_1384_8888"/>
<feBlend mode="normal" in="SourceGraphic" in2="effect1_backgroundBlur_1384_8888" result="shape"/>
</filter>
<filter id="filter8_b_1384_8888" x="261" y="134" width="69" height="36" filterUnits="userSpaceOnUse" color-interpolation-filters="sRGB">
<feFlood flood-opacity="0" result="BackgroundImageFix"/>
<feGaussianBlur in="BackgroundImageFix" stdDeviation="6"/>
<feComposite in2="SourceAlpha" operator="in" result="effect1_backgroundBlur_1384_8888"/>
<feBlend mode="normal" in="SourceGraphic" in2="effect1_backgroundBlur_1384_8888" result="shape"/>
</filter>
<linearGradient id="paint0_linear_1384_8888" x1="299.358" y1="-5.55982e-05" x2="296.474" y2="299.098" gradientUnits="userSpaceOnUse">
<stop stop-color="white" stop-opacity="0.01"/>
<stop offset="1" stop-color="white" stop-opacity="0.04"/>
</linearGradient>
<radialGradient id="paint1_radial_1384_8888" cx="0" cy="0" r="1" gradientUnits="userSpaceOnUse" gradientTransform="translate(317.5 10.9696) rotate(86.817) scale(182.601 387.798)">
<stop offset="0.0655707" stop-color="#76EFFF"/>
<stop offset="0.585" stop-color="#40C6FF" stop-opacity="0.49"/>
<stop offset="1" stop-color="#55C2FF" stop-opacity="0"/>
</radialGradient>
<linearGradient id="paint2_linear_1384_8888" x1="317.5" y1="0" x2="317.5" y2="299" gradientUnits="userSpaceOnUse">
<stop stop-color="#EFF6FF" stop-opacity="0.11"/>
<stop offset="1" stop-color="white" stop-opacity="0"/>
</linearGradient>
<radialGradient id="paint3_radial_1384_8888" cx="0" cy="0" r="1" gradientUnits="userSpaceOnUse" gradientTransform="translate(315.67) rotate(88.5669) scale(73.1867 155.43)">
<stop stop-color="white"/>
<stop offset="1" stop-color="white" stop-opacity="0"/>
</radialGradient>
<radialGradient id="paint4_radial_1384_8888" cx="0" cy="0" r="1" gradientUnits="userSpaceOnUse" gradientTransform="translate(317.5 148.5) rotate(90) scale(148.5 317.5)">
<stop stop-color="white"/>
<stop offset="0.629055" stop-color="white"/>
<stop offset="1" stop-color="white" stop-opacity="0"/>
</radialGradient>
<linearGradient id="paint5_linear_1384_8888" x1="317.5" y1="0" x2="317.5" y2="297" gradientUnits="userSpaceOnUse">
<stop stop-color="#EFF6FF" stop-opacity="0.11"/>
<stop offset="1" stop-color="white" stop-opacity="0"/>
</linearGradient>
<linearGradient id="paint6_linear_1384_8888" x1="308.572" y1="39" x2="306.284" y2="231.053" gradientUnits="userSpaceOnUse">
<stop stop-color="#33B3AE" stop-opacity="0.06"/>
<stop offset="1" stop-color="#33B3AE" stop-opacity="0.07"/>
</linearGradient>
<linearGradient id="paint7_linear_1384_8888" x1="241.17" y1="39" x2="353.413" y2="231" gradientUnits="userSpaceOnUse">
<stop stop-color="#33B3AE" stop-opacity="0.71"/>
<stop offset="0.441528" stop-color="#33B3AE" stop-opacity="0.12"/>
</linearGradient>
<linearGradient id="paint8_linear_1384_8888" x1="216" y1="105" x2="216" y2="181.014" gradientUnits="userSpaceOnUse">
<stop stop-color="#33B3AE" stop-opacity="0.4"/>
<stop offset="1" stop-color="#33B3AE" stop-opacity="0.1"/>
</linearGradient>
<linearGradient id="paint9_linear_1384_8888" x1="178" y1="62.4" x2="378" y2="62.4" gradientUnits="userSpaceOnUse">
<stop stop-color="#33B3AE" stop-opacity="0.3"/>
<stop offset="1" stop-color="#33B3AE" stop-opacity="0.2"/>
</linearGradient>
<linearGradient id="paint10_linear_1384_8888" x1="252" y1="211.4" x2="305" y2="211.4" gradientUnits="userSpaceOnUse">
<stop stop-color="#33B3AE" stop-opacity="0.3"/>
<stop offset="1" stop-color="#33B3AE" stop-opacity="0.2"/>
</linearGradient>
<linearGradient id="paint11_linear_1384_8888" x1="314" y1="211.4" x2="409" y2="211.4" gradientUnits="userSpaceOnUse">
<stop stop-color="#33B3AE" stop-opacity="0.3"/>
<stop offset="1" stop-color="#33B3AE" stop-opacity="0.2"/>
</linearGradient>
<linearGradient id="paint12_linear_1384_8888" x1="178" y1="80.4" x2="274" y2="80.4" gradientUnits="userSpaceOnUse">
<stop stop-color="#33B3AE" stop-opacity="0.3"/>
<stop offset="1" stop-color="#33B3AE" stop-opacity="0.2"/>
</linearGradient>
<linearGradient id="paint13_linear_1384_8888" x1="274" y1="113.4" x2="331" y2="113.4" gradientUnits="userSpaceOnUse">
<stop stop-color="#33B3AE" stop-opacity="0.3"/>
<stop offset="1" stop-color="#33B3AE" stop-opacity="0.2"/>
</linearGradient>
<linearGradient id="paint14_linear_1384_8888" x1="274" y1="133.4" x2="378" y2="133.4" gradientUnits="userSpaceOnUse">
<stop stop-color="#33B3AE" stop-opacity="0.3"/>
<stop offset="1" stop-color="#33B3AE" stop-opacity="0.2"/>
</linearGradient>
<linearGradient id="paint15_linear_1384_8888" x1="274" y1="172.4" x2="346" y2="172.4" gradientUnits="userSpaceOnUse">
<stop stop-color="#33B3AE" stop-opacity="0.3"/>
<stop offset="1" stop-color="#33B3AE" stop-opacity="0.2"/>
</linearGradient>
<linearGradient id="paint16_linear_1384_8888" x1="273" y1="152.4" x2="318" y2="152.4" gradientUnits="userSpaceOnUse">
<stop stop-color="#33B3AE" stop-opacity="0.3"/>
<stop offset="1" stop-color="#33B3AE" stop-opacity="0.2"/>
</linearGradient>
</defs>
</svg>
