<svg width="24" height="24" viewBox="0 0 24 24" fill="none" xmlns="http://www.w3.org/2000/svg">
<path d="M22.0001 12.0003C22.0001 12.5523 21.5531 13.0003 21.0001 13.0003H5.41413L10.7071 18.2933C11.0981 18.6842 11.0981 19.3163 10.7071 19.7073C10.5121 19.9023 10.2561 20.0003 10.0001 20.0003C9.74407 20.0003 9.48804 19.9023 9.29304 19.7073L2.29401 12.7083C2.20101 12.6153 2.12797 12.5054 2.07697 12.3824C1.97597 12.1384 1.97597 11.8622 2.07697 11.6182C2.12797 11.4952 2.20101 11.3853 2.29401 11.2923L9.29304 4.29325C9.68403 3.90225 10.3161 3.90225 10.7071 4.29325C11.0981 4.68425 11.0981 5.31631 10.7071 5.70731L5.41413 11.0003H21.0001C21.5531 11.0003 22.0001 11.4483 22.0001 12.0003Z" fill="white"/>
</svg>
