<svg width="96" height="96" viewBox="0 0 96 96" fill="none" xmlns="http://www.w3.org/2000/svg">
<path d="M18.6954 33.2111C10.8244 44.0922 15.5215 61.2285 30.3643 71.966C45.1142 82.6362 62.3998 81.3242 70.3236 70.3704C78.3491 59.2758 74.6455 40.996 60.066 30.4491C45.4853 19.9012 26.7201 22.1176 18.6954 33.2111Z" stroke="url(#paint0_linear_26192_32094)" stroke-width="6.16424"/>
<path d="M19.8483 25.9945C7.22136 40.9585 10.4828 59.0523 28.0483 73.3082C46.1343 86.6444 65.7535 83.4272 76.0656 70.3103C86.3778 57.1935 82.5957 35.3899 66.5809 23.8046C50.5661 12.2193 29.3487 12.861 19.8483 25.9945Z" fill="url(#paint1_linear_26192_32094)"/>
<path d="M23.0801 26.6524C19.1202 32.1267 18.3981 39.0866 20.6166 46.2127C22.8422 53.3615 28.0079 60.5307 35.532 65.9737C50.7776 77.0025 68.3736 75.8326 76.2581 64.9329C84.2423 53.8955 80.3021 35.3574 65.2278 24.4525C50.1523 13.5467 31.0635 15.6161 23.0801 26.6524Z" stroke="url(#paint2_linear_26192_32094)" stroke-width="6.16424"/>
<path d="M29.0509 28.4579C24.0429 35.381 25.9844 49.6311 39.858 59.6674C53.7317 69.7038 67.8732 67.0883 72.8812 60.1652C77.8892 53.2421 75.9477 38.992 62.0741 28.9557C48.2005 18.9193 34.0589 21.5348 29.0509 28.4579Z" fill="#FFD93B" stroke="url(#paint3_linear_26192_32094)" stroke-width="17.1229"/>
<path d="M29.4899 28.7754C26.5831 32.7939 26.1553 38.1861 28.04 43.7872C29.9236 49.3852 34.0921 55.0734 40.1497 59.4555C46.2072 63.8376 52.914 66.0168 58.8202 66.054C64.7297 66.0912 69.717 63.9975 72.6239 59.979C75.5307 55.9605 75.9585 50.5683 74.0739 44.9672C72.1902 39.3692 68.0217 33.681 61.9641 29.2989C55.9066 24.9169 49.1998 22.7376 43.2936 22.7004C37.3841 22.6632 32.3968 24.7569 29.4899 28.7754Z" stroke="url(#paint4_linear_26192_32094)" stroke-width="2.73966"/>
<g filter="url(#filter0_f_26192_32094)">
<path d="M16.6369 42.461L12.1643 49.5889C10.7785 41.4443 13.8086 34.9254 14.9994 33.117C15.9418 31.3504 17.6903 28.8688 19.7495 26.146C25.2148 17.6016 36.7353 9.98084 54.6439 15.6714C75.9437 22.9968 83.0038 40.2588 83.7612 47.8812L18.4576 41.6264L16.6369 42.461Z" fill="url(#paint5_linear_26192_32094)" fill-opacity="0.3"/>
</g>
<path d="M60.5186 38.5685L60.5186 38.5685C59.0236 37.5216 57.2424 37.0169 55.5646 37.1637L55.4433 37.1743C57.5559 38.5486 59.2091 40.6389 59.8591 43.0648C60.5091 45.4907 60.0261 47.7679 58.7299 49.4405L58.8512 49.4298C60.5291 49.283 61.9644 48.4969 62.8427 47.2424L63.0646 47.3978L62.8427 47.2424C63.7211 45.988 63.9689 44.3703 63.533 42.7434C63.097 41.1164 62.0135 39.6153 60.5186 38.5685ZM64.8692 48.6614L64.6474 48.5061L64.8692 48.6614C63.6749 50.3672 61.723 51.4361 59.4422 51.6356L53.4934 52.1561L53.4011 52.1642L53.1521 52.186L53.1503 52.1795C52.2603 52.2233 51.3696 52.1355 50.5028 51.9333L50.5649 52.1652L50.6296 52.4067L50.3806 52.4285L45.2279 52.8793C42.9471 53.0788 40.5249 52.3926 38.4921 50.9692L38.6225 50.783L38.4921 50.9692C36.4594 49.5458 34.986 47.5044 34.3934 45.2928C33.8009 43.0812 34.1378 40.8815 35.3322 39.1757L35.554 39.3311L35.3322 39.1757C36.5265 37.47 38.4784 36.4011 40.7592 36.2015L45.9119 35.7507L46.1609 35.7289L46.2256 35.9704L46.2878 36.2023C47.009 35.8611 47.813 35.6251 48.6851 35.5147L48.6834 35.5082L48.9325 35.4864L49.0248 35.4784L54.9735 34.9579C57.2544 34.7583 59.6765 35.4446 61.7093 36.868L61.7093 36.868C63.742 38.2914 65.2153 40.3328 65.8078 42.5444C66.4004 44.7559 66.0636 46.9557 64.8692 48.6614ZM49.6158 37.6842C48.5844 37.7744 47.6755 38.0985 46.9296 38.5976L49.861 49.538C50.8341 49.8866 51.8711 50.0405 52.9024 49.9503C56.3964 49.6446 58.492 46.6518 57.5842 43.2638C56.6764 39.8759 53.1098 37.3785 49.6158 37.6842ZM44.934 44.3706C45.2918 45.706 46.0624 46.9026 47.0789 47.8442L45.1619 40.6895C44.6849 41.7617 44.5762 43.0353 44.934 44.3706ZM44.6368 50.6735L47.0749 50.4602C44.9623 49.0859 43.3091 46.9956 42.6591 44.5697C42.0091 42.1437 42.4921 39.8665 43.7883 38.194L41.3502 38.4073C39.6724 38.5541 38.237 39.3403 37.3587 40.5947L37.1369 40.4394L37.3587 40.5947C36.4803 41.8492 36.2325 43.4668 36.6685 45.0938C37.1044 46.7207 38.1879 48.2219 39.6828 49.2687L39.5525 49.4549L39.6828 49.2687C41.1778 50.3155 42.959 50.8203 44.6368 50.6735Z" fill="white"/>
<path d="M60.5186 38.5685L60.5186 38.5685C59.0236 37.5216 57.2424 37.0169 55.5646 37.1637L55.4433 37.1743C57.5559 38.5486 59.2091 40.6389 59.8591 43.0648C60.5091 45.4907 60.0261 47.7679 58.7299 49.4405L58.8512 49.4298C60.5291 49.283 61.9644 48.4969 62.8427 47.2424L63.0646 47.3978L62.8427 47.2424C63.7211 45.988 63.9689 44.3703 63.533 42.7434C63.097 41.1164 62.0135 39.6153 60.5186 38.5685ZM64.8692 48.6614L64.6474 48.5061L64.8692 48.6614C63.6749 50.3672 61.723 51.4361 59.4422 51.6356L53.4934 52.1561L53.4011 52.1642L53.1521 52.186L53.1503 52.1795C52.2603 52.2233 51.3696 52.1355 50.5028 51.9333L50.5649 52.1652L50.6296 52.4067L50.3806 52.4285L45.2279 52.8793C42.9471 53.0788 40.5249 52.3926 38.4921 50.9692L38.6225 50.783L38.4921 50.9692C36.4594 49.5458 34.986 47.5044 34.3934 45.2928C33.8009 43.0812 34.1378 40.8815 35.3322 39.1757L35.554 39.3311L35.3322 39.1757C36.5265 37.47 38.4784 36.4011 40.7592 36.2015L45.9119 35.7507L46.1609 35.7289L46.2256 35.9704L46.2878 36.2023C47.009 35.8611 47.813 35.6251 48.6851 35.5147L48.6834 35.5082L48.9325 35.4864L49.0248 35.4784L54.9735 34.9579C57.2544 34.7583 59.6765 35.4446 61.7093 36.868L61.7093 36.868C63.742 38.2914 65.2153 40.3328 65.8078 42.5444C66.4004 44.7559 66.0636 46.9557 64.8692 48.6614ZM49.6158 37.6842C48.5844 37.7744 47.6755 38.0985 46.9296 38.5976L49.861 49.538C50.8341 49.8866 51.8711 50.0405 52.9024 49.9503C56.3964 49.6446 58.492 46.6518 57.5842 43.2638C56.6764 39.8759 53.1098 37.3785 49.6158 37.6842ZM44.934 44.3706C45.2918 45.706 46.0624 46.9026 47.0789 47.8442L45.1619 40.6895C44.6849 41.7617 44.5762 43.0353 44.934 44.3706ZM44.6368 50.6735L47.0749 50.4602C44.9623 49.0859 43.3091 46.9956 42.6591 44.5697C42.0091 42.1437 42.4921 39.8665 43.7883 38.194L41.3502 38.4073C39.6724 38.5541 38.237 39.3403 37.3587 40.5947L37.1369 40.4394L37.3587 40.5947C36.4803 41.8492 36.2325 43.4668 36.6685 45.0938C37.1044 46.7207 38.1879 48.2219 39.6828 49.2687L39.5525 49.4549L39.6828 49.2687C41.1778 50.3155 42.959 50.8203 44.6368 50.6735Z" fill="url(#paint6_linear_26192_32094)"/>
<path d="M60.5186 38.5685L60.5186 38.5685C59.0236 37.5216 57.2424 37.0169 55.5646 37.1637L55.4433 37.1743C57.5559 38.5486 59.2091 40.6389 59.8591 43.0648C60.5091 45.4907 60.0261 47.7679 58.7299 49.4405L58.8512 49.4298C60.5291 49.283 61.9644 48.4969 62.8427 47.2424L63.0646 47.3978L62.8427 47.2424C63.7211 45.988 63.9689 44.3703 63.533 42.7434C63.097 41.1164 62.0135 39.6153 60.5186 38.5685ZM64.8692 48.6614L64.6474 48.5061L64.8692 48.6614C63.6749 50.3672 61.723 51.4361 59.4422 51.6356L53.4934 52.1561L53.4011 52.1642L53.1521 52.186L53.1503 52.1795C52.2603 52.2233 51.3696 52.1355 50.5028 51.9333L50.5649 52.1652L50.6296 52.4067L50.3806 52.4285L45.2279 52.8793C42.9471 53.0788 40.5249 52.3926 38.4921 50.9692L38.6225 50.783L38.4921 50.9692C36.4594 49.5458 34.986 47.5044 34.3934 45.2928C33.8009 43.0812 34.1378 40.8815 35.3322 39.1757L35.554 39.3311L35.3322 39.1757C36.5265 37.47 38.4784 36.4011 40.7592 36.2015L45.9119 35.7507L46.1609 35.7289L46.2256 35.9704L46.2878 36.2023C47.009 35.8611 47.813 35.6251 48.6851 35.5147L48.6834 35.5082L48.9325 35.4864L49.0248 35.4784L54.9735 34.9579C57.2544 34.7583 59.6765 35.4446 61.7093 36.868L61.7093 36.868C63.742 38.2914 65.2153 40.3328 65.8078 42.5444C66.4004 44.7559 66.0636 46.9557 64.8692 48.6614ZM49.6158 37.6842C48.5844 37.7744 47.6755 38.0985 46.9296 38.5976L49.861 49.538C50.8341 49.8866 51.8711 50.0405 52.9024 49.9503C56.3964 49.6446 58.492 46.6518 57.5842 43.2638C56.6764 39.8759 53.1098 37.3785 49.6158 37.6842ZM44.934 44.3706C45.2918 45.706 46.0624 46.9026 47.0789 47.8442L45.1619 40.6895C44.6849 41.7617 44.5762 43.0353 44.934 44.3706ZM44.6368 50.6735L47.0749 50.4602C44.9623 49.0859 43.3091 46.9956 42.6591 44.5697C42.0091 42.1437 42.4921 39.8665 43.7883 38.194L41.3502 38.4073C39.6724 38.5541 38.237 39.3403 37.3587 40.5947L37.1369 40.4394L37.3587 40.5947C36.4803 41.8492 36.2325 43.4668 36.6685 45.0938C37.1044 46.7207 38.1879 48.2219 39.6828 49.2687L39.5525 49.4549L39.6828 49.2687C41.1778 50.3155 42.959 50.8203 44.6368 50.6735Z" stroke="#E9A033" stroke-width="0.499994"/>
<defs>
<filter id="filter0_f_26192_32094" x="9.06905" y="10.9635" width="77.4318" height="41.3621" filterUnits="userSpaceOnUse" color-interpolation-filters="sRGB">
<feFlood flood-opacity="0" result="BackgroundImageFix"/>
<feBlend mode="normal" in="SourceGraphic" in2="BackgroundImageFix" result="shape"/>
<feGaussianBlur stdDeviation="1.36983" result="effect1_foregroundBlur_26192_32094"/>
</filter>
<linearGradient id="paint0_linear_26192_32094" x1="17.9608" y1="28.9358" x2="64.7371" y2="81.5185" gradientUnits="userSpaceOnUse">
<stop stop-color="#FDF8CE"/>
<stop offset="0.0550575" stop-color="#F2E158"/>
<stop offset="0.170676" stop-color="#FCF5AF"/>
<stop offset="0.309086" stop-color="#ECD42F"/>
<stop offset="0.491314" stop-color="#E9B00C"/>
<stop offset="0.704021" stop-color="#ECB600"/>
<stop offset="0.78935" stop-color="#E8CF29"/>
<stop offset="0.843399" stop-color="#EBD431"/>
<stop offset="0.909367" stop-color="#E2C317"/>
<stop offset="1" stop-color="#E9D14F"/>
</linearGradient>
<linearGradient id="paint1_linear_26192_32094" x1="18.7649" y1="29.2793" x2="70.4769" y2="81.4982" gradientUnits="userSpaceOnUse">
<stop stop-color="#EEBB5C"/>
<stop offset="0.0550575" stop-color="#FDEE48"/>
<stop offset="0.170676" stop-color="#E8BB06"/>
<stop offset="0.309086" stop-color="#D57B01"/>
<stop offset="0.491314" stop-color="#C86101"/>
<stop offset="0.660555" stop-color="#D88C2D"/>
<stop offset="0.771761" stop-color="#E8BE29"/>
<stop offset="0.815114" stop-color="#E8BE29"/>
<stop offset="0.881945" stop-color="#E8AE0E"/>
<stop offset="0.930202" stop-color="#D98317"/>
<stop offset="1" stop-color="#EBAE4E"/>
</linearGradient>
<linearGradient id="paint2_linear_26192_32094" x1="22.3451" y1="22.3768" x2="70.0296" y2="76.6073" gradientUnits="userSpaceOnUse">
<stop stop-color="#FDF8CE"/>
<stop offset="0.0550575" stop-color="#F2E158"/>
<stop offset="0.170676" stop-color="#FCF5AF"/>
<stop offset="0.309086" stop-color="#ECD42F"/>
<stop offset="0.491314" stop-color="#E9B00C"/>
<stop offset="0.704021" stop-color="#ECB600"/>
<stop offset="0.78935" stop-color="#E8CF29"/>
<stop offset="0.843399" stop-color="#EBD431"/>
<stop offset="0.909367" stop-color="#E2C317"/>
<stop offset="1" stop-color="#E9D14F"/>
</linearGradient>
<linearGradient id="paint3_linear_26192_32094" x1="37.5332" y1="13.3471" x2="60.7269" y2="75.358" gradientUnits="userSpaceOnUse">
<stop stop-color="#FFDC5E"/>
<stop offset="0.417119" stop-color="#FFED97"/>
<stop offset="1" stop-color="#FFF27B"/>
</linearGradient>
<linearGradient id="paint4_linear_26192_32094" x1="62.4607" y1="26.9407" x2="37.4918" y2="60.0129" gradientUnits="userSpaceOnUse">
<stop stop-color="#E4991A"/>
<stop offset="0.474971" stop-color="#EAAA2E" stop-opacity="0"/>
<stop offset="1" stop-color="#FFF27B" stop-opacity="0"/>
</linearGradient>
<linearGradient id="paint5_linear_26192_32094" x1="59.9644" y1="45.0744" x2="60.9186" y2="11.0438" gradientUnits="userSpaceOnUse">
<stop stop-color="white"/>
<stop offset="0.105858" stop-color="white"/>
<stop offset="0.21696" stop-color="white" stop-opacity="0.961194"/>
<stop offset="1" stop-color="white" stop-opacity="0"/>
</linearGradient>
<linearGradient id="paint6_linear_26192_32094" x1="47.931" y1="35.8212" x2="49.3701" y2="52.2697" gradientUnits="userSpaceOnUse">
<stop stop-color="#E19D37"/>
<stop offset="0.494792" stop-color="#EEA230"/>
<stop offset="1" stop-color="#DB9224"/>
</linearGradient>
</defs>
</svg>
