<svg width="60" height="32" viewBox="0 0 60 32" fill="none" xmlns="http://www.w3.org/2000/svg">
<g style="mix-blend-mode:hard-light">
<path fill-rule="evenodd" clip-rule="evenodd" d="M17.2033 4.5175C14.1574 4.5175 11.2377 5.72593 9.08338 7.88026C6.92906 10.0345 5.72062 12.9543 5.72062 16.0002C5.72062 19.0462 6.92906 21.9659 9.08338 24.1202C11.2377 26.2745 14.1574 27.4829 17.2033 27.4829H18.5971C15.1938 24.8129 13.0076 20.6623 13.0076 16.0002C13.0076 11.3381 15.1938 7.18752 18.5971 4.5175H17.2033ZM27.755 1.41493V1.41406H27.5938H17.2033C13.3348 1.41406 9.62562 2.94907 6.8889 5.68577C4.15219 8.4225 2.61719 12.1317 2.61719 16.0002C2.61719 19.8687 4.15219 23.5779 6.8889 26.3146C9.62562 29.0513 13.3348 30.5864 17.2033 30.5864H27.5938H27.755V30.5855C29.6183 30.5653 31.3977 30.196 33.0309 29.5397V30.5864H42.0308C45.8993 30.5864 49.6085 29.0513 52.3453 26.3146C55.082 23.5779 56.6172 19.8687 56.6172 16.0002C56.6172 12.1317 55.082 8.4225 52.3453 5.68577C49.6085 2.94907 45.8993 1.41406 42.0308 1.41406H33.0309V2.46074C31.3977 1.80449 29.6183 1.43511 27.755 1.41493ZM33.0309 5.88323C31.4125 5.01189 29.561 4.5175 27.5938 4.5175C21.2508 4.5175 16.111 9.65722 16.111 16.0002C16.111 22.3432 21.2508 27.4829 27.5938 27.4829C29.561 27.4829 31.4125 26.9885 33.0309 26.1172V5.88323ZM36.1343 23.6768V8.32362C37.9635 10.3575 39.0765 13.0486 39.0765 16.0002C39.0765 18.9518 37.9635 21.6429 36.1343 23.6768ZM36.5905 27.4829C39.9938 24.8129 42.1799 20.6623 42.1799 16.0002C42.1799 11.3381 39.9938 7.18752 36.5905 4.5175H42.0308C45.0768 4.5175 47.9965 5.72593 50.1508 7.88026C52.3051 10.0345 53.5135 12.9543 53.5135 16.0002C53.5135 19.0462 52.3051 21.9659 50.1508 24.1202C47.9965 26.2745 45.0768 27.4829 42.0308 27.4829H36.5905Z" fill="white"/>
</g>
</svg>
