<svg width="73" height="72" viewBox="0 0 73 72" fill="none" xmlns="http://www.w3.org/2000/svg">
<path d="M36.9464 66.0077C20.3778 66.0077 6.94629 52.5764 6.94629 36.0077C6.94629 19.4393 20.3778 6.00781 36.9464 6.00781C53.5147 6.00781 66.9463 19.4393 66.9463 36.0077C66.9463 52.5764 53.5147 66.0077 36.9464 66.0077ZM36.9464 60.0077C50.2012 60.0077 60.9463 49.2626 60.9463 36.0077C60.9463 22.753 50.2012 12.0078 36.9464 12.0078C23.6914 12.0078 12.9463 22.753 12.9463 36.0077C12.9463 49.2626 23.6914 60.0077 36.9464 60.0077ZM21.9463 39.0077H48.9464V45.0077H36.9464V54.0077L21.9463 39.0077ZM36.9464 27.0078V18.0078L51.9464 33.0077H24.9463V27.0078H36.9464Z" fill="white"/>
</svg>
