<svg width="175" height="16" viewBox="0 0 175 16" fill="none" xmlns="http://www.w3.org/2000/svg">
<path d="M174.503 0.777344V12.6584H171.666V0.777344H174.503Z" fill="white" fill-opacity="0.65"/>
<path d="M166.295 12.8267C165.359 12.8267 164.554 12.6352 163.881 12.2523C163.212 11.8656 162.696 11.328 162.332 10.6396C161.973 9.94728 161.793 9.14476 161.793 8.23203C161.793 7.31542 161.973 6.51291 162.332 5.82448C162.696 5.1322 163.212 4.59461 163.881 4.21172C164.554 3.82497 165.359 3.63159 166.295 3.63159C167.231 3.63159 168.033 3.82497 168.702 4.21172C169.375 4.59461 169.892 5.1322 170.251 5.82448C170.615 6.51291 170.797 7.31542 170.797 8.23203C170.797 9.14476 170.615 9.94728 170.251 10.6396C169.892 11.328 169.375 11.8656 168.702 12.2523C168.033 12.6352 167.231 12.8267 166.295 12.8267ZM166.312 10.686C166.653 10.686 166.941 10.5816 167.177 10.3727C167.413 10.1639 167.592 9.8738 167.716 9.50251C167.844 9.13123 167.908 8.70193 167.908 8.21462C167.908 7.71958 167.844 7.28641 167.716 6.91513C167.592 6.54385 167.413 6.25378 167.177 6.04493C166.941 5.83609 166.653 5.73166 166.312 5.73166C165.96 5.73166 165.662 5.83609 165.419 6.04493C165.179 6.25378 164.995 6.54385 164.868 6.91513C164.744 7.28641 164.682 7.71958 164.682 8.21462C164.682 8.70193 164.744 9.13123 164.868 9.50251C164.995 9.8738 165.179 10.1639 165.419 10.3727C165.662 10.5816 165.96 10.686 166.312 10.686Z" fill="white" fill-opacity="0.65"/>
<path d="M157.131 12.8267C156.191 12.8267 155.385 12.6333 154.712 12.2465C154.042 11.8598 153.528 11.3222 153.168 10.6338C152.809 9.94148 152.629 9.1409 152.629 8.23203C152.629 7.31929 152.809 6.51871 153.168 5.83029C153.532 5.138 154.048 4.59848 154.717 4.21172C155.39 3.82497 156.193 3.63159 157.125 3.63159C157.949 3.63159 158.666 3.78049 159.277 4.07829C159.892 4.37609 160.372 4.79765 160.716 5.34298C161.064 5.88443 161.248 6.52064 161.267 7.25161H158.616C158.562 6.79524 158.407 6.43749 158.152 6.17836C157.9 5.91924 157.572 5.78968 157.166 5.78968C156.837 5.78968 156.549 5.8825 156.301 6.06814C156.054 6.24991 155.86 6.52064 155.721 6.88032C155.586 7.23614 155.518 7.67703 155.518 8.20302C155.518 8.729 155.586 9.17377 155.721 9.53732C155.86 9.897 156.054 10.1697 156.301 10.3553C156.549 10.5371 156.837 10.628 157.166 10.628C157.429 10.628 157.661 10.5719 157.862 10.4597C158.067 10.3476 158.235 10.1832 158.366 9.96662C158.498 9.74617 158.581 9.47931 158.616 9.16604H161.267C161.24 9.90087 161.056 10.5429 160.716 11.0921C160.379 11.6413 159.906 12.0686 159.295 12.3742C158.687 12.6758 157.966 12.8267 157.131 12.8267Z" fill="white" fill-opacity="0.65"/>
<path d="M147.599 12.8267C146.664 12.8267 145.859 12.6352 145.186 12.2523C144.517 11.8656 144.001 11.328 143.637 10.6396C143.277 9.94728 143.098 9.14476 143.098 8.23203C143.098 7.31542 143.277 6.51291 143.637 5.82448C144.001 5.1322 144.517 4.59461 145.186 4.21172C145.859 3.82497 146.664 3.63159 147.599 3.63159C148.535 3.63159 149.338 3.82497 150.007 4.21172C150.68 4.59461 151.196 5.1322 151.556 5.82448C151.92 6.51291 152.101 7.31542 152.101 8.23203C152.101 9.14476 151.92 9.94728 151.556 10.6396C151.196 11.328 150.68 11.8656 150.007 12.2523C149.338 12.6352 148.535 12.8267 147.599 12.8267ZM147.617 10.686C147.957 10.686 148.245 10.5816 148.481 10.3727C148.717 10.1639 148.897 9.8738 149.021 9.50251C149.148 9.13123 149.212 8.70193 149.212 8.21462C149.212 7.71958 149.148 7.28641 149.021 6.91513C148.897 6.54385 148.717 6.25378 148.481 6.04493C148.245 5.83609 147.957 5.73166 147.617 5.73166C147.265 5.73166 146.967 5.83609 146.723 6.04493C146.484 6.25378 146.3 6.54385 146.172 6.91513C146.049 7.28641 145.987 7.71958 145.987 8.21462C145.987 8.70193 146.049 9.13123 146.172 9.50251C146.3 9.8738 146.484 10.1639 146.723 10.3727C146.967 10.5816 147.265 10.686 147.617 10.686Z" fill="white" fill-opacity="0.65"/>
<path d="M142.671 3.74767V5.83614H137.05V3.74767H142.671ZM138.227 1.61279H141.064V9.85645C141.064 10.0305 141.091 10.1717 141.146 10.2799C141.204 10.3844 141.287 10.4598 141.395 10.5062C141.503 10.5487 141.633 10.57 141.784 10.57C141.892 10.57 142.006 10.5603 142.126 10.541C142.25 10.5178 142.343 10.4985 142.404 10.483L142.834 12.5308C142.698 12.5695 142.507 12.6179 142.259 12.6759C142.016 12.7339 141.724 12.7706 141.383 12.7861C140.718 12.817 140.148 12.7397 139.672 12.5541C139.2 12.3645 138.839 12.0706 138.587 11.6723C138.34 11.2739 138.22 10.7731 138.227 10.1697V1.61279Z" fill="white" fill-opacity="0.65"/>
<path d="M132.27 12.8267C131.334 12.8267 130.53 12.6352 129.857 12.2523C129.188 11.8656 128.672 11.328 128.308 10.6396C127.948 9.94728 127.769 9.14476 127.769 8.23203C127.769 7.31542 127.948 6.51291 128.308 5.82448C128.672 5.1322 129.188 4.59461 129.857 4.21172C130.53 3.82497 131.334 3.63159 132.27 3.63159C133.206 3.63159 134.009 3.82497 134.678 4.21172C135.351 4.59461 135.867 5.1322 136.227 5.82448C136.59 6.51291 136.772 7.31542 136.772 8.23203C136.772 9.14476 136.59 9.94728 136.227 10.6396C135.867 11.328 135.351 11.8656 134.678 12.2523C134.009 12.6352 133.206 12.8267 132.27 12.8267ZM132.288 10.686C132.628 10.686 132.916 10.5816 133.152 10.3727C133.388 10.1639 133.568 9.8738 133.692 9.50251C133.819 9.13123 133.883 8.70193 133.883 8.21462C133.883 7.71958 133.819 7.28641 133.692 6.91513C133.568 6.54385 133.388 6.25378 133.152 6.04493C132.916 5.83609 132.628 5.73166 132.288 5.73166C131.936 5.73166 131.638 5.83609 131.394 6.04493C131.155 6.25378 130.971 6.54385 130.843 6.91513C130.719 7.28641 130.658 7.71958 130.658 8.21462C130.658 8.70193 130.719 9.13123 130.843 9.50251C130.971 9.8738 131.155 10.1639 131.394 10.3727C131.638 10.5816 131.936 10.686 132.288 10.686Z" fill="white" fill-opacity="0.65"/>
<path d="M122.281 12.6585V3.74768H125.037V5.37205H125.13C125.292 4.78418 125.557 4.34715 125.924 4.06095C126.292 3.77089 126.719 3.62585 127.207 3.62585C127.338 3.62585 127.473 3.63552 127.613 3.65486C127.752 3.67033 127.881 3.69547 128.001 3.73028V6.19583C127.866 6.14942 127.688 6.11268 127.468 6.08561C127.251 6.05854 127.058 6.045 126.887 6.045C126.551 6.045 126.247 6.12042 125.977 6.27125C125.71 6.41822 125.499 6.62513 125.344 6.89199C125.194 7.15498 125.118 7.46438 125.118 7.8202V12.6585H122.281Z" fill="white" fill-opacity="0.65"/>
<path d="M112.207 12.6584V0.777344H117.115C118.004 0.777344 118.772 0.951383 119.418 1.29946C120.068 1.64367 120.569 2.12518 120.921 2.74399C121.273 3.35892 121.449 4.07442 121.449 4.89047C121.449 5.71039 121.269 6.42781 120.909 7.04275C120.553 7.65382 120.045 8.1276 119.383 8.46407C118.722 8.80055 117.937 8.96879 117.028 8.96879H114V6.70628H116.494C116.927 6.70628 117.289 6.63086 117.579 6.48003C117.873 6.32919 118.095 6.11841 118.246 5.84768C118.397 5.57309 118.472 5.25402 118.472 4.89047C118.472 4.52305 118.397 4.20591 118.246 3.93905C118.095 3.66833 117.873 3.45948 117.579 3.31251C117.285 3.16555 116.923 3.09206 116.494 3.09206H115.079V12.6584H112.207Z" fill="white" fill-opacity="0.65"/>
<path d="M104.186 12.8267C103.254 12.8267 102.45 12.643 101.773 12.2755C101.1 11.9043 100.582 11.3763 100.218 10.6918C99.8585 10.0034 99.6787 9.18537 99.6787 8.23783C99.6787 7.31735 99.8605 6.51291 100.224 5.82448C100.588 5.1322 101.1 4.59461 101.761 4.21172C102.423 3.82497 103.202 3.63159 104.099 3.63159C104.734 3.63159 105.314 3.73021 105.84 3.92746C106.366 4.1247 106.82 4.4167 107.203 4.80345C107.586 5.19021 107.884 5.66785 108.096 6.23638C108.309 6.80104 108.415 7.44885 108.415 8.17981V8.88757H100.671V7.24H105.776C105.772 6.93834 105.7 6.66954 105.561 6.43362C105.422 6.1977 105.231 6.01399 104.987 5.8825C104.747 5.74713 104.471 5.67945 104.157 5.67945C103.84 5.67945 103.556 5.751 103.305 5.8941C103.053 6.03333 102.854 6.22477 102.707 6.46843C102.56 6.70822 102.483 6.98088 102.475 7.28641V8.96299C102.475 9.32654 102.546 9.64561 102.69 9.92021C102.833 10.1909 103.036 10.4017 103.299 10.5525C103.562 10.7034 103.875 10.7788 104.239 10.7788C104.49 10.7788 104.718 10.744 104.923 10.6744C105.128 10.6048 105.304 10.5023 105.451 10.3669C105.598 10.2315 105.708 10.0652 105.782 9.86799L108.386 9.94341C108.278 10.5274 108.04 11.036 107.673 11.4692C107.309 11.8985 106.832 12.233 106.24 12.4728C105.648 12.7087 104.964 12.8267 104.186 12.8267Z" fill="white" fill-opacity="0.65"/>
<path d="M90.1553 16V3.74762H92.9631V5.27336H93.0501C93.1661 5.00263 93.3305 4.74157 93.5432 4.49018C93.7598 4.23879 94.0344 4.03382 94.367 3.87525C94.7035 3.71281 95.1057 3.63159 95.5737 3.63159C96.1925 3.63159 96.7707 3.79403 97.3083 4.1189C97.8497 4.44377 98.2868 4.94462 98.6194 5.62144C98.952 6.29826 99.1183 7.16072 99.1183 8.20882C99.1183 9.21825 98.9578 10.0633 98.6368 10.744C98.3196 11.4247 97.8903 11.9352 97.3489 12.2755C96.8113 12.6159 96.2138 12.7861 95.5563 12.7861C95.1077 12.7861 94.719 12.7126 94.3902 12.5656C94.0615 12.4186 93.785 12.2253 93.5606 11.9855C93.3402 11.7457 93.17 11.4885 93.0501 11.2139H92.9921V16H90.1553ZM92.9341 8.20302C92.9341 8.68259 92.9979 9.10029 93.1255 9.4561C93.257 9.81192 93.4446 10.0884 93.6883 10.2857C93.9358 10.4791 94.2317 10.5758 94.5759 10.5758C94.924 10.5758 95.2198 10.4791 95.4635 10.2857C95.7071 10.0884 95.8908 9.81192 96.0146 9.4561C96.1422 9.10029 96.206 8.68259 96.206 8.20302C96.206 7.72344 96.1422 7.30768 96.0146 6.95574C95.8908 6.60379 95.7071 6.33113 95.4635 6.13776C95.2237 5.94438 94.9278 5.84769 94.5759 5.84769C94.2278 5.84769 93.9319 5.94244 93.6883 6.13195C93.4446 6.32146 93.257 6.59219 93.1255 6.94414C92.9979 7.29608 92.9341 7.71571 92.9341 8.20302Z" fill="white" fill-opacity="0.65"/>
<path d="M84.7831 12.8267C83.8471 12.8267 83.0427 12.6352 82.3697 12.2523C81.7006 11.8656 81.1843 11.328 80.8208 10.6396C80.4611 9.94728 80.2812 9.14476 80.2812 8.23203C80.2812 7.31542 80.4611 6.51291 80.8208 5.82448C81.1843 5.1322 81.7006 4.59461 82.3697 4.21172C83.0427 3.82497 83.8471 3.63159 84.7831 3.63159C85.719 3.63159 86.5215 3.82497 87.1906 4.21172C87.8636 4.59461 88.3799 5.1322 88.7396 5.82448C89.1031 6.51291 89.2849 7.31542 89.2849 8.23203C89.2849 9.14476 89.1031 9.94728 88.7396 10.6396C88.3799 11.328 87.8636 11.8656 87.1906 12.2523C86.5215 12.6352 85.719 12.8267 84.7831 12.8267ZM84.8005 10.686C85.1408 10.686 85.4289 10.5816 85.6649 10.3727C85.9008 10.1639 86.0806 9.8738 86.2044 9.50251C86.332 9.13123 86.3958 8.70193 86.3958 8.21462C86.3958 7.71958 86.332 7.28641 86.2044 6.91513C86.0806 6.54385 85.9008 6.25378 85.6649 6.04493C85.4289 5.83609 85.1408 5.73166 84.8005 5.73166C84.4485 5.73166 84.1507 5.83609 83.9071 6.04493C83.6673 6.25378 83.4836 6.54385 83.3559 6.91513C83.2322 7.28641 83.1703 7.71958 83.1703 8.21462C83.1703 8.70193 83.2322 9.13123 83.3559 9.50251C83.4836 9.8738 83.6673 10.1639 83.9071 10.3727C84.1507 10.5816 84.4485 10.686 84.8005 10.686Z" fill="white" fill-opacity="0.65"/>
<path d="M75.619 12.8267C74.6792 12.8267 73.8728 12.6333 73.1999 12.2465C72.5308 11.8598 72.0164 11.3222 71.6567 10.6338C71.297 9.94148 71.1172 9.1409 71.1172 8.23203C71.1172 7.31929 71.297 6.51871 71.6567 5.83029C72.0203 5.138 72.5366 4.59848 73.2057 4.21172C73.8786 3.82497 74.6811 3.63159 75.6132 3.63159C76.437 3.63159 77.1544 3.78049 77.7655 4.07829C78.3804 4.37609 78.86 4.79765 79.2042 5.34298C79.5523 5.88443 79.736 6.52064 79.7553 7.25161H77.1041C77.05 6.79524 76.8953 6.43749 76.64 6.17836C76.3886 5.91924 76.0599 5.78968 75.6538 5.78968C75.3251 5.78968 75.0369 5.8825 74.7894 6.06814C74.5419 6.24991 74.3485 6.52064 74.2093 6.88032C74.0739 7.23614 74.0062 7.67703 74.0062 8.20302C74.0062 8.729 74.0739 9.17377 74.2093 9.53732C74.3485 9.897 74.5419 10.1697 74.7894 10.3553C75.0369 10.5371 75.3251 10.628 75.6538 10.628C75.9168 10.628 76.1489 10.5719 76.35 10.4597C76.5549 10.3476 76.7232 10.1832 76.8547 9.96662C76.9862 9.74617 77.0693 9.47931 77.1041 9.16604H79.7553C79.7283 9.90087 79.5445 10.5429 79.2042 11.0921C78.8677 11.6413 78.394 12.0686 77.7829 12.3742C77.1757 12.6758 76.4544 12.8267 75.619 12.8267Z" fill="white" fill-opacity="0.65"/>
<path d="M70.426 6.46843L67.8212 6.53805C67.7941 6.3524 67.7206 6.18803 67.6008 6.04493C67.4809 5.89797 67.3242 5.78388 67.1308 5.70266C66.9413 5.61757 66.7209 5.57503 66.4695 5.57503C66.1408 5.57503 65.8604 5.64078 65.6283 5.77227C65.4001 5.90377 65.288 6.08168 65.2918 6.30599C65.288 6.48003 65.3576 6.63087 65.5007 6.75849C65.6476 6.88612 65.9087 6.98861 66.2839 7.06596L68.001 7.39084C68.8906 7.56101 69.5519 7.84334 69.9851 8.23783C70.4221 8.63232 70.6426 9.15443 70.6464 9.80418C70.6426 10.4153 70.4608 10.947 70.1011 11.3995C69.7453 11.852 69.258 12.204 68.6392 12.4554C68.0204 12.7029 67.3126 12.8267 66.5159 12.8267C65.2435 12.8267 64.2399 12.5656 63.505 12.0435C62.7741 11.5175 62.3564 10.8136 62.252 9.93181L65.054 9.86219C65.1159 10.1871 65.2764 10.4346 65.5355 10.6048C65.7946 10.7749 66.1253 10.86 66.5275 10.86C66.8911 10.86 67.1869 10.7923 67.4151 10.657C67.6433 10.5216 67.7593 10.3418 67.7632 10.1175C67.7593 9.91634 67.6704 9.75584 67.4963 9.63594C67.3223 9.51218 67.0496 9.41549 66.6783 9.34588L65.1236 9.05001C64.2302 8.88757 63.565 8.58784 63.1279 8.15081C62.6909 7.70991 62.4743 7.14912 62.4782 6.46843C62.4743 5.87283 62.6329 5.36425 62.9539 4.94269C63.2749 4.51726 63.7313 4.19238 64.323 3.96807C64.9148 3.74375 65.6128 3.63159 66.4173 3.63159C67.624 3.63159 68.5754 3.88491 69.2715 4.39156C69.9677 4.89434 70.3525 5.58663 70.426 6.46843Z" fill="white" fill-opacity="0.65"/>
<path d="M57.2753 12.8267C56.3393 12.8267 55.5349 12.6352 54.8619 12.2523C54.1928 11.8656 53.6765 11.328 53.313 10.6396C52.9533 9.94728 52.7734 9.14476 52.7734 8.23203C52.7734 7.31542 52.9533 6.51291 53.313 5.82448C53.6765 5.1322 54.1928 4.59461 54.8619 4.21172C55.5349 3.82497 56.3393 3.63159 57.2753 3.63159C58.2112 3.63159 59.0137 3.82497 59.6828 4.21172C60.3557 4.59461 60.8721 5.1322 61.2317 5.82448C61.5953 6.51291 61.7771 7.31542 61.7771 8.23203C61.7771 9.14476 61.5953 9.94728 61.2317 10.6396C60.8721 11.328 60.3557 11.8656 59.6828 12.2523C59.0137 12.6352 58.2112 12.8267 57.2753 12.8267ZM57.2927 10.686C57.633 10.686 57.9211 10.5816 58.157 10.3727C58.393 10.1639 58.5728 9.8738 58.6966 9.50251C58.8242 9.13123 58.888 8.70193 58.888 8.21462C58.888 7.71958 58.8242 7.28641 58.6966 6.91513C58.5728 6.54385 58.393 6.25378 58.157 6.04493C57.9211 5.83609 57.633 5.73166 57.2927 5.73166C56.9407 5.73166 56.6429 5.83609 56.3993 6.04493C56.1595 6.25378 55.9758 6.54385 55.8481 6.91513C55.7244 7.28641 55.6625 7.71958 55.6625 8.21462C55.6625 8.70193 55.7244 9.13123 55.8481 9.50251C55.9758 9.8738 56.1595 10.1639 56.3993 10.3727C56.6429 10.5816 56.9407 10.686 57.2927 10.686Z" fill="white" fill-opacity="0.65"/>
<path d="M47.2852 12.6585V3.74768H50.0408V5.37205H50.1336C50.296 4.78418 50.561 4.34715 50.9284 4.06095C51.2958 3.77089 51.7232 3.62585 52.2105 3.62585C52.342 3.62585 52.4773 3.63552 52.6166 3.65486C52.7558 3.67033 52.8853 3.69547 53.0052 3.73028V6.19583C52.8699 6.14942 52.692 6.11268 52.4715 6.08561C52.2549 6.05854 52.0616 6.045 51.8914 6.045C51.5549 6.045 51.2513 6.12042 50.9806 6.27125C50.7137 6.41822 50.5029 6.62513 50.3482 6.89199C50.1974 7.15498 50.122 7.46438 50.122 7.8202V12.6585H47.2852Z" fill="white" fill-opacity="0.65"/>
<path d="M42.2811 12.8267C41.3413 12.8267 40.5349 12.6333 39.862 12.2465C39.1929 11.8598 38.6785 11.3222 38.3188 10.6338C37.9591 9.94148 37.7793 9.1409 37.7793 8.23203C37.7793 7.31929 37.9591 6.51871 38.3188 5.83029C38.6824 5.138 39.1987 4.59848 39.8678 4.21172C40.5407 3.82497 41.3432 3.63159 42.2753 3.63159C43.0991 3.63159 43.8165 3.78049 44.4276 4.07829C45.0425 4.37609 45.5221 4.79765 45.8663 5.34298C46.2144 5.88443 46.3981 6.52064 46.4174 7.25161H43.7662C43.7121 6.79524 43.5574 6.43749 43.3021 6.17836C43.0508 5.91924 42.722 5.78968 42.3159 5.78968C41.9872 5.78968 41.699 5.8825 41.4515 6.06814C41.204 6.24991 41.0106 6.52064 40.8714 6.88032C40.736 7.23614 40.6683 7.67703 40.6683 8.20302C40.6683 8.729 40.736 9.17377 40.8714 9.53732C41.0106 9.897 41.204 10.1697 41.4515 10.3553C41.699 10.5371 41.9872 10.628 42.3159 10.628C42.5789 10.628 42.811 10.5719 43.0121 10.4597C43.2171 10.3476 43.3853 10.1832 43.5168 9.96662C43.6483 9.74617 43.7314 9.47931 43.7662 9.16604H46.4174C46.3904 9.90087 46.2067 10.5429 45.8663 11.0921C45.5298 11.6413 45.0561 12.0686 44.445 12.3742C43.8378 12.6758 43.1165 12.8267 42.2811 12.8267Z" fill="white" fill-opacity="0.65"/>
<path d="M34.0622 12.6584V3.74764H36.899V12.6584H34.0622ZM35.4835 2.70921C35.0851 2.70921 34.7428 2.57771 34.4566 2.31472C34.1704 2.04786 34.0273 1.72686 34.0273 1.3517C34.0273 0.980421 34.1704 0.663283 34.4566 0.400291C34.7428 0.13343 35.0851 0 35.4835 0C35.8857 0 36.228 0.13343 36.5103 0.400291C36.7965 0.663283 36.9396 0.980421 36.9396 1.3517C36.9396 1.72686 36.7965 2.04786 36.5103 2.31472C36.228 2.57771 35.8857 2.70921 35.4835 2.70921Z" fill="white" fill-opacity="0.65"/>
<path d="M19.5693 0.777344H23.1255L26.1422 8.1334H26.2814L29.2981 0.777344H32.8543V12.6584H30.0581V5.36037H29.9595L27.1052 12.583H25.3184L22.4642 5.31977H22.3656V12.6584H19.5693V0.777344Z" fill="white" fill-opacity="0.65"/>
<g clip-path="url(#clip0_3100_10408)">
<path d="M11.6841 7.29799C11.6841 7.9137 11.1906 8.41282 10.5818 8.41282C9.97301 8.41282 9.47949 7.9137 9.47949 7.29799C9.47949 6.6823 9.97301 6.18317 10.5818 6.18317C11.1906 6.18317 11.6841 6.6823 11.6841 7.29799Z" fill="white" fill-opacity="0.65"/>
<path d="M3.96825 3.17312C3.96825 3.78882 3.47473 4.28794 2.86596 4.28794C2.25719 4.28794 1.76367 3.78882 1.76367 3.17312C1.76367 2.55742 2.25719 2.05829 2.86596 2.05829C3.47473 2.05829 3.96825 2.55742 3.96825 3.17312Z" fill="white" fill-opacity="0.65"/>
<path fill-rule="evenodd" clip-rule="evenodd" d="M0 7.29799C0 5.88167 0.522289 4.58872 1.3827 3.60541C1.49136 3.98746 1.74042 4.30939 2.06976 4.5104C1.46441 5.27392 1.10229 6.24318 1.10229 7.29799C1.10229 9.7608 3.07633 11.7573 5.51144 11.7573C7.4989 11.7573 9.17924 10.4274 9.72986 8.59945C9.97403 8.7633 10.267 8.85875 10.582 8.85875C10.659 8.85875 10.7347 8.85304 10.8087 8.84202C10.1467 11.1695 8.02567 12.8722 5.51144 12.8722C2.46756 12.8722 0 10.3765 0 7.29799ZM10.8271 8.83917C10.8322 8.88447 10.8425 8.87042 10.8524 8.83487C10.844 8.83637 10.8356 8.8378 10.8271 8.83917Z" fill="white" fill-opacity="0.65"/>
<path fill-rule="evenodd" clip-rule="evenodd" d="M10.9234 4.74513L10.1141 0.788879L6.12483 0.997776L7.4381 2.02335L5.06152 7.40683L9.61014 3.71956L10.9234 4.74513Z" fill="white" fill-opacity="0.65"/>
</g>
<defs>
<clipPath id="clip0_3100_10408">
<rect width="12.1516" height="12.1516" fill="white" transform="translate(0 0.810425)"/>
</clipPath>
</defs>
</svg>
