<svg width="347" height="123" viewBox="0 0 347 123" fill="none" xmlns="http://www.w3.org/2000/svg">
<path d="M3.76136 21V6.45455H8.67614C9.81724 6.45455 10.75 6.66051 11.4744 7.07244C12.2036 7.47964 12.7434 8.03125 13.0938 8.72727C13.4441 9.4233 13.6193 10.1998 13.6193 11.0568C13.6193 11.9138 13.4441 12.6927 13.0938 13.3935C12.7481 14.0942 12.2131 14.6529 11.4886 15.0696C10.7642 15.4815 9.83617 15.6875 8.70455 15.6875H5.18182V14.125H8.64773C9.42898 14.125 10.0563 13.9901 10.5298 13.7202C11.0033 13.4503 11.3466 13.0857 11.5597 12.6264C11.7775 12.1624 11.8864 11.6392 11.8864 11.0568C11.8864 10.4744 11.7775 9.9536 11.5597 9.49432C11.3466 9.03504 11.0009 8.67519 10.5227 8.41477C10.0445 8.14962 9.41004 8.01705 8.61932 8.01705H5.52273V21H3.76136ZM20.144 21.2273C19.1592 21.2273 18.2951 20.9929 17.5517 20.5241C16.8131 20.0554 16.2354 19.3996 15.8188 18.5568C15.4068 17.714 15.2009 16.7292 15.2009 15.6023C15.2009 14.4659 15.4068 13.474 15.8188 12.6264C16.2354 11.7789 16.8131 11.1207 17.5517 10.652C18.2951 10.1832 19.1592 9.94886 20.144 9.94886C21.1289 9.94886 21.9906 10.1832 22.7293 10.652C23.4726 11.1207 24.0503 11.7789 24.4622 12.6264C24.8789 13.474 25.0872 14.4659 25.0872 15.6023C25.0872 16.7292 24.8789 17.714 24.4622 18.5568C24.0503 19.3996 23.4726 20.0554 22.7293 20.5241C21.9906 20.9929 21.1289 21.2273 20.144 21.2273ZM20.144 19.7216C20.8921 19.7216 21.5077 19.5298 21.9906 19.1463C22.4736 18.7628 22.8311 18.2585 23.0631 17.6335C23.2951 17.0085 23.4111 16.3314 23.4111 15.6023C23.4111 14.8731 23.2951 14.1937 23.0631 13.5639C22.8311 12.9342 22.4736 12.4252 21.9906 12.0369C21.5077 11.6487 20.8921 11.4545 20.144 11.4545C19.3959 11.4545 18.7804 11.6487 18.2974 12.0369C17.8145 12.4252 17.457 12.9342 17.225 13.5639C16.993 14.1937 16.877 14.8731 16.877 15.6023C16.877 16.3314 16.993 17.0085 17.225 17.6335C17.457 18.2585 17.8145 18.7628 18.2974 19.1463C18.7804 19.5298 19.3959 19.7216 20.144 19.7216ZM29.3463 21L26.0224 10.0909H27.7838L30.1418 18.4432H30.2554L32.5849 10.0909H34.3747L36.6759 18.4148H36.7895L39.1474 10.0909H40.9088L37.5849 21H35.9372L33.5509 12.6193H33.3804L30.994 21H29.3463ZM46.9275 21.2273C45.8763 21.2273 44.9696 20.9953 44.2073 20.5312C43.4497 20.0625 42.865 19.4091 42.4531 18.571C42.0459 17.7282 41.8423 16.7481 41.8423 15.6307C41.8423 14.5133 42.0459 13.5284 42.4531 12.6761C42.865 11.8191 43.4379 11.1515 44.1718 10.6733C44.9104 10.1903 45.7722 9.94886 46.757 9.94886C47.3252 9.94886 47.8863 10.0436 48.4403 10.233C48.9942 10.4223 49.4985 10.7301 49.9531 11.1562C50.4076 11.5777 50.7698 12.1364 51.0397 12.8324C51.3096 13.5284 51.4445 14.3854 51.4445 15.4034V16.1136H43.0354V14.6648H49.74C49.74 14.0492 49.6169 13.5 49.3707 13.017C49.1292 12.5341 48.7835 12.1529 48.3337 11.8736C47.8887 11.5942 47.3631 11.4545 46.757 11.4545C46.0894 11.4545 45.5118 11.6203 45.0241 11.9517C44.5411 12.2784 44.1694 12.7045 43.909 13.2301C43.6486 13.7557 43.5184 14.3191 43.5184 14.9205V15.8864C43.5184 16.7102 43.6604 17.4086 43.9445 17.9815C44.2334 18.5497 44.6335 18.983 45.1448 19.2812C45.6562 19.5748 46.2504 19.7216 46.9275 19.7216C47.3678 19.7216 47.7656 19.66 48.1207 19.5369C48.4805 19.4091 48.7906 19.2197 49.0511 18.9688C49.3115 18.7131 49.5127 18.3958 49.6548 18.017L51.2741 18.4716C51.1036 19.0208 50.8172 19.5038 50.4147 19.9205C50.0122 20.3324 49.5151 20.6544 48.9232 20.8864C48.3314 21.1136 47.6661 21.2273 46.9275 21.2273ZM53.5942 21V10.0909H55.2136V11.7386H55.3272C55.5261 11.1989 55.8859 10.7609 56.4067 10.4247C56.9276 10.0885 57.5147 9.92045 58.1681 9.92045C58.2912 9.92045 58.4451 9.92282 58.6298 9.92756C58.8144 9.93229 58.9541 9.93939 59.0488 9.94886V11.6534C58.992 11.6392 58.8618 11.6179 58.6582 11.5895C58.4593 11.5563 58.2486 11.5398 58.0261 11.5398C57.4958 11.5398 57.0223 11.651 56.6056 11.8736C56.1937 12.0914 55.867 12.3944 55.6255 12.7827C55.3888 13.1662 55.2704 13.6042 55.2704 14.0966V21H53.5942ZM64.8775 21.2273C63.8263 21.2273 62.9196 20.9953 62.1573 20.5312C61.3997 20.0625 60.815 19.4091 60.4031 18.571C59.9959 17.7282 59.7923 16.7481 59.7923 15.6307C59.7923 14.5133 59.9959 13.5284 60.4031 12.6761C60.815 11.8191 61.3879 11.1515 62.1218 10.6733C62.8604 10.1903 63.7222 9.94886 64.707 9.94886C65.2752 9.94886 65.8363 10.0436 66.3903 10.233C66.9442 10.4223 67.4485 10.7301 67.9031 11.1562C68.3576 11.5777 68.7198 12.1364 68.9897 12.8324C69.2596 13.5284 69.3945 14.3854 69.3945 15.4034V16.1136H60.9854V14.6648H67.69C67.69 14.0492 67.5669 13.5 67.3207 13.017C67.0792 12.5341 66.7335 12.1529 66.2837 11.8736C65.8387 11.5942 65.3131 11.4545 64.707 11.4545C64.0394 11.4545 63.4618 11.6203 62.9741 11.9517C62.4911 12.2784 62.1194 12.7045 61.859 13.2301C61.5986 13.7557 61.4684 14.3191 61.4684 14.9205V15.8864C61.4684 16.7102 61.6104 17.4086 61.8945 17.9815C62.1834 18.5497 62.5835 18.983 63.0948 19.2812C63.6062 19.5748 64.2004 19.7216 64.8775 19.7216C65.3178 19.7216 65.7156 19.66 66.0707 19.5369C66.4305 19.4091 66.7406 19.2197 67.0011 18.9688C67.2615 18.7131 67.4627 18.3958 67.6048 18.017L69.2241 18.4716C69.0536 19.0208 68.7672 19.5038 68.3647 19.9205C67.9622 20.3324 67.4651 20.6544 66.8732 20.8864C66.2814 21.1136 65.6161 21.2273 64.8775 21.2273ZM75.6636 21.2273C74.7545 21.2273 73.9519 20.9976 73.2559 20.5384C72.5599 20.0743 72.0154 19.4209 71.6224 18.5781C71.2294 17.7306 71.0329 16.7292 71.0329 15.5739C71.0329 14.428 71.2294 13.4337 71.6224 12.5909C72.0154 11.7481 72.5622 11.0971 73.263 10.6378C73.9638 10.1785 74.7734 9.94886 75.692 9.94886C76.4022 9.94886 76.9633 10.0672 77.3752 10.304C77.7919 10.536 78.1091 10.8011 78.3269 11.0994C78.5495 11.393 78.7223 11.6345 78.8454 11.8239H78.9874V6.45455H80.6636V21H79.0442V19.3239H78.8454C78.7223 19.5227 78.5471 19.7737 78.3198 20.0767C78.0925 20.375 77.7682 20.6425 77.3468 20.8793C76.9254 21.1113 76.3643 21.2273 75.6636 21.2273ZM75.8908 19.7216C76.5632 19.7216 77.1314 19.5464 77.5954 19.196C78.0594 18.8409 78.4121 18.3509 78.6536 17.7259C78.8951 17.0961 79.0158 16.3693 79.0158 15.5455C79.0158 14.7311 78.8975 14.0185 78.6607 13.4077C78.424 12.7921 78.0736 12.3139 77.6096 11.973C77.1456 11.6274 76.5727 11.4545 75.8908 11.4545C75.1806 11.4545 74.5888 11.6368 74.1153 12.0014C73.6465 12.3613 73.2938 12.8513 73.057 13.4716C72.825 14.0871 72.709 14.7784 72.709 15.5455C72.709 16.322 72.8274 17.0275 73.0641 17.6619C73.3056 18.2917 73.6607 18.7936 74.1295 19.1676C74.603 19.5369 75.1901 19.7216 75.8908 19.7216ZM89.0184 21V6.45455H90.6945V11.8239H90.8366C90.9597 11.6345 91.1301 11.393 91.3479 11.0994C91.5705 10.8011 91.8877 10.536 92.2996 10.304C92.7163 10.0672 93.2798 9.94886 93.99 9.94886C94.9085 9.94886 95.7182 10.1785 96.419 10.6378C97.1197 11.0971 97.6666 11.7481 98.0596 12.5909C98.4526 13.4337 98.6491 14.428 98.6491 15.5739C98.6491 16.7292 98.4526 17.7306 98.0596 18.5781C97.6666 19.4209 97.1221 20.0743 96.4261 20.5384C95.73 20.9976 94.9275 21.2273 94.0184 21.2273C93.3176 21.2273 92.7566 21.1113 92.3352 20.8793C91.9138 20.6425 91.5894 20.375 91.3621 20.0767C91.1349 19.7737 90.9597 19.5227 90.8366 19.3239H90.6377V21H89.0184ZM90.6661 15.5455C90.6661 16.3693 90.7869 17.0961 91.0283 17.7259C91.2698 18.3509 91.6226 18.8409 92.0866 19.196C92.5506 19.5464 93.1188 19.7216 93.7911 19.7216C94.4919 19.7216 95.0766 19.5369 95.5454 19.1676C96.0189 18.7936 96.374 18.2917 96.6107 17.6619C96.8522 17.0275 96.9729 16.322 96.9729 15.5455C96.9729 14.7784 96.8546 14.0871 96.6178 13.4716C96.3858 12.8513 96.0331 12.3613 95.5596 12.0014C95.0908 11.6368 94.5014 11.4545 93.7911 11.4545C93.1093 11.4545 92.5364 11.6274 92.0724 11.973C91.6084 12.3139 91.258 12.7921 91.0212 13.4077C90.7845 14.0185 90.6661 14.7311 90.6661 15.5455ZM101.502 25.0909C101.218 25.0909 100.965 25.0672 100.742 25.0199C100.519 24.9773 100.366 24.9347 100.28 24.892L100.706 23.4148C101.114 23.5189 101.474 23.5568 101.786 23.5284C102.099 23.5 102.375 23.3603 102.617 23.1094C102.863 22.8632 103.088 22.4631 103.292 21.9091L103.604 21.0568L99.5701 10.0909H101.388L104.4 18.7841H104.513L107.525 10.0909H109.343L104.712 22.5909C104.504 23.1544 104.246 23.6207 103.938 23.9901C103.63 24.3641 103.273 24.6411 102.866 24.821C102.463 25.0009 102.009 25.0909 101.502 25.0909ZM124.465 11.9943V21H115.473L115.459 19.4659H121.823L113.584 11.2131L114.692 10.1051L122.931 18.358L122.917 11.9943H124.465Z" fill="white" fill-opacity="0.45"/>
<path d="M346.651 54.9346V78.4003H341.049V54.9346H346.651Z" fill="white" fill-opacity="0.65"/>
<path d="M330.439 78.7326C328.591 78.7326 327.002 78.3545 325.673 77.5982C324.351 76.8344 323.332 75.7726 322.614 74.413C321.903 73.0456 321.548 71.4606 321.548 69.6579C321.548 67.8476 321.903 66.2626 322.614 64.9029C323.332 63.5356 324.351 62.4739 325.673 61.7177C327.002 60.9538 328.591 60.5719 330.439 60.5719C332.288 60.5719 333.873 60.9538 335.194 61.7177C336.523 62.4739 337.543 63.5356 338.254 64.9029C338.972 66.2626 339.331 67.8476 339.331 69.6579C339.331 71.4606 338.972 73.0456 338.254 74.413C337.543 75.7726 336.523 76.8344 335.194 77.5982C333.873 78.3545 332.288 78.7326 330.439 78.7326ZM330.474 74.5046C331.146 74.5046 331.715 74.2984 332.181 73.8859C332.647 73.4734 333.002 72.9005 333.247 72.1672C333.499 71.4339 333.625 70.586 333.625 69.6236C333.625 68.6458 333.499 67.7903 333.247 67.057C333.002 66.3237 332.647 65.7508 332.181 65.3383C331.715 64.9259 331.146 64.7196 330.474 64.7196C329.779 64.7196 329.19 64.9259 328.709 65.3383C328.236 65.7508 327.873 66.3237 327.621 67.057C327.376 67.7903 327.254 68.6458 327.254 69.6236C327.254 70.586 327.376 71.4339 327.621 72.1672C327.873 72.9005 328.236 73.4734 328.709 73.8859C329.19 74.2984 329.779 74.5046 330.474 74.5046Z" fill="white" fill-opacity="0.65"/>
<path d="M312.34 78.7326C310.484 78.7326 308.891 78.3506 307.562 77.5868C306.24 76.8229 305.224 75.7612 304.514 74.4015C303.804 73.0342 303.448 71.453 303.448 69.6579C303.448 67.8552 303.804 66.2741 304.514 64.9144C305.232 63.5471 306.252 62.4815 307.573 61.7177C308.902 60.9538 310.487 60.5719 312.328 60.5719C313.955 60.5719 315.372 60.866 316.579 61.4541C317.794 62.0423 318.741 62.8749 319.421 63.9519C320.108 65.0213 320.471 66.2779 320.509 67.7216H315.273C315.166 66.8202 314.86 66.1137 314.356 65.6019C313.86 65.0901 313.21 64.8342 312.408 64.8342C311.759 64.8342 311.19 65.0175 310.701 65.3842C310.212 65.7432 309.83 66.2779 309.555 66.9883C309.288 67.691 309.154 68.5618 309.154 69.6007C309.154 70.6395 309.288 71.5179 309.555 72.236C309.83 72.9463 310.212 73.4849 310.701 73.8515C311.19 74.2105 311.759 74.39 312.408 74.39C312.928 74.39 313.386 74.2793 313.783 74.0578C314.188 73.8362 314.52 73.5116 314.78 73.0838C315.04 72.6484 315.204 72.1214 315.273 71.5027H320.509C320.456 72.954 320.093 74.222 319.421 75.3067C318.756 76.3913 317.82 77.2354 316.613 77.8388C315.414 78.4347 313.99 78.7326 312.34 78.7326Z" fill="white" fill-opacity="0.65"/>
<path d="M293.515 78.7326C291.667 78.7326 290.078 78.3545 288.749 77.5982C287.427 76.8344 286.408 75.7726 285.69 74.413C284.979 73.0456 284.624 71.4606 284.624 69.6579C284.624 67.8476 284.979 66.2626 285.69 64.9029C286.408 63.5356 287.427 62.4739 288.749 61.7177C290.078 60.9538 291.667 60.5719 293.515 60.5719C295.364 60.5719 296.949 60.9538 298.27 61.7177C299.599 62.4739 300.619 63.5356 301.329 64.9029C302.048 66.2626 302.407 67.8476 302.407 69.6579C302.407 71.4606 302.048 73.0456 301.329 74.413C300.619 75.7726 299.599 76.8344 298.27 77.5982C296.949 78.3545 295.364 78.7326 293.515 78.7326ZM293.55 74.5046C294.222 74.5046 294.791 74.2984 295.257 73.8859C295.723 73.4734 296.078 72.9005 296.322 72.1672C296.574 71.4339 296.701 70.586 296.701 69.6236C296.701 68.6458 296.574 67.7903 296.322 67.057C296.078 66.3237 295.723 65.7508 295.257 65.3383C294.791 64.9259 294.222 64.7196 293.55 64.7196C292.855 64.7196 292.266 64.9259 291.785 65.3383C291.312 65.7508 290.949 66.3237 290.697 67.057C290.452 67.7903 290.33 68.6458 290.33 69.6236C290.33 70.586 290.452 71.4339 290.697 72.1672C290.949 72.9005 291.312 73.4734 291.785 73.8859C292.266 74.2984 292.855 74.5046 293.55 74.5046Z" fill="white" fill-opacity="0.65"/>
<path d="M283.783 60.801V64.9259H272.68V60.801H283.783ZM275.006 56.5846H280.609V72.8662C280.609 73.2099 280.662 73.4887 280.769 73.7026C280.884 73.9088 281.048 74.0578 281.262 74.1494C281.476 74.2335 281.732 74.2755 282.03 74.2755C282.243 74.2755 282.469 74.2564 282.706 74.2182C282.95 74.1723 283.133 74.1342 283.256 74.1036L284.103 78.1482C283.836 78.2246 283.458 78.3201 282.969 78.4347C282.488 78.5492 281.911 78.6218 281.239 78.6524C279.925 78.7135 278.798 78.5607 277.859 78.194C276.927 77.8198 276.213 77.2392 275.716 76.4525C275.227 75.6657 274.991 74.6765 275.006 73.4849V56.5846Z" fill="white" fill-opacity="0.65"/>
<path d="M263.24 78.7326C261.391 78.7326 259.802 78.3545 258.473 77.5982C257.152 76.8344 256.132 75.7726 255.414 74.413C254.703 73.0456 254.348 71.4606 254.348 69.6579C254.348 67.8476 254.703 66.2626 255.414 64.9029C256.132 63.5356 257.152 62.4739 258.473 61.7177C259.802 60.9538 261.391 60.5719 263.24 60.5719C265.088 60.5719 266.673 60.9538 267.995 61.7177C269.324 62.4739 270.343 63.5356 271.054 64.9029C271.772 66.2626 272.131 67.8476 272.131 69.6579C272.131 71.4606 271.772 73.0456 271.054 74.413C270.343 75.7726 269.324 76.8344 267.995 77.5982C266.673 78.3545 265.088 78.7326 263.24 78.7326ZM263.274 74.5046C263.946 74.5046 264.515 74.2984 264.981 73.8859C265.447 73.4734 265.802 72.9005 266.047 72.1672C266.299 71.4339 266.425 70.586 266.425 69.6236C266.425 68.6458 266.299 67.7903 266.047 67.057C265.802 66.3237 265.447 65.7508 264.981 65.3383C264.515 64.9259 263.946 64.7196 263.274 64.7196C262.579 64.7196 261.991 64.9259 261.509 65.3383C261.036 65.7508 260.673 66.3237 260.421 67.057C260.176 67.7903 260.054 68.6458 260.054 69.6236C260.054 70.586 260.176 71.4339 260.421 72.1672C260.673 72.9005 261.036 73.4734 261.509 73.8859C261.991 74.2984 262.579 74.5046 263.274 74.5046Z" fill="white" fill-opacity="0.65"/>
<path d="M243.51 78.4003V60.801H248.952V64.0092H249.136C249.457 62.8482 249.98 61.985 250.706 61.4198C251.431 60.8469 252.275 60.5604 253.238 60.5604C253.497 60.5604 253.765 60.5795 254.04 60.6177C254.315 60.6483 254.571 60.6979 254.807 60.7667V65.6362C254.54 65.5446 254.189 65.472 253.753 65.4185C253.326 65.3651 252.944 65.3383 252.608 65.3383C251.943 65.3383 251.343 65.4873 250.809 65.7852C250.282 66.0755 249.865 66.4841 249.56 67.0112C249.262 67.5306 249.113 68.1417 249.113 68.8444V78.4003H243.51Z" fill="white" fill-opacity="0.65"/>
<path d="M223.614 78.4003V54.9346H233.308C235.064 54.9346 236.581 55.2784 237.856 55.9658C239.14 56.6457 240.129 57.5967 240.824 58.8188C241.519 60.0334 241.867 61.4465 241.867 63.0582C241.867 64.6776 241.511 66.0946 240.801 67.3091C240.098 68.516 239.094 69.4517 237.788 70.1163C236.481 70.7808 234.931 71.1131 233.136 71.1131H227.155V66.6445H232.082C232.937 66.6445 233.651 66.4956 234.224 66.1977C234.805 65.8998 235.244 65.4835 235.542 64.9488C235.84 64.4064 235.989 63.7763 235.989 63.0582C235.989 62.3326 235.84 61.7062 235.542 61.1792C235.244 60.6445 234.805 60.232 234.224 59.9417C233.644 59.6514 232.93 59.5063 232.082 59.5063H229.286V78.4003H223.614Z" fill="white" fill-opacity="0.65"/>
<path d="M207.773 78.7326C205.932 78.7326 204.343 78.3697 203.006 77.6441C201.677 76.9108 200.653 75.8681 199.935 74.5161C199.225 73.1564 198.87 71.5409 198.87 69.6694C198.87 67.8514 199.229 66.2626 199.947 64.9029C200.665 63.5356 201.677 62.4739 202.983 61.7177C204.289 60.9538 205.829 60.5719 207.601 60.5719C208.853 60.5719 209.999 60.7667 211.038 61.1562C212.077 61.5458 212.974 62.1225 213.731 62.8864C214.487 63.6502 215.075 64.5936 215.495 65.7165C215.915 66.8317 216.125 68.1111 216.125 69.5548V70.9527H200.829V67.6987H210.912C210.904 67.1029 210.763 66.572 210.488 66.106C210.213 65.6401 209.835 65.2772 209.354 65.0175C208.88 64.7502 208.334 64.6165 207.715 64.6165C207.089 64.6165 206.528 64.7578 206.031 65.0404C205.534 65.3154 205.141 65.6935 204.851 66.1748C204.561 66.6484 204.408 67.1869 204.393 67.7903V71.1016C204.393 71.8197 204.534 72.4498 204.816 72.9922C205.099 73.5269 205.5 73.9432 206.02 74.2411C206.539 74.539 207.158 74.6879 207.876 74.6879C208.372 74.6879 208.823 74.6192 209.228 74.4817C209.633 74.3442 209.98 74.1418 210.27 73.8744C210.561 73.6071 210.778 73.2786 210.923 72.8891L216.068 73.038C215.854 74.1914 215.384 75.1959 214.659 76.0514C213.941 76.8993 212.997 77.56 211.829 78.0336C210.66 78.4996 209.308 78.7326 207.773 78.7326Z" fill="white" fill-opacity="0.65"/>
<path d="M180.06 85V60.801H185.605V63.8145H185.777C186.006 63.2798 186.331 62.7641 186.751 62.2676C187.179 61.7711 187.721 61.3663 188.378 61.0531C189.043 60.7323 189.837 60.5719 190.761 60.5719C191.984 60.5719 193.126 60.8927 194.187 61.5343C195.257 62.176 196.12 63.1652 196.777 64.5019C197.434 65.8387 197.762 67.5421 197.762 69.6121C197.762 71.6058 197.445 73.2748 196.811 74.6192C196.185 75.9636 195.337 76.9719 194.268 77.6441C193.206 78.3163 192.026 78.6524 190.727 78.6524C189.841 78.6524 189.073 78.5072 188.424 78.217C187.775 77.9267 187.229 77.5448 186.786 77.0712C186.35 76.5976 186.014 76.0896 185.777 75.5473H185.663V85H180.06ZM185.548 69.6007C185.548 70.5478 185.674 71.3728 185.926 72.0756C186.186 72.7783 186.556 73.3245 187.038 73.714C187.526 74.096 188.111 74.2869 188.791 74.2869C189.478 74.2869 190.062 74.096 190.544 73.714C191.025 73.3245 191.388 72.7783 191.632 72.0756C191.884 71.3728 192.01 70.5478 192.01 69.6007C192.01 68.6535 191.884 67.8323 191.632 67.1372C191.388 66.4421 191.025 65.9036 190.544 65.5217C190.07 65.1397 189.486 64.9488 188.791 64.9488C188.103 64.9488 187.519 65.1359 187.038 65.5102C186.556 65.8845 186.186 66.4192 185.926 67.1143C185.674 67.8094 185.548 68.6382 185.548 69.6007Z" fill="white" fill-opacity="0.65"/>
<path d="M169.451 78.7326C167.602 78.7326 166.013 78.3545 164.684 77.5982C163.363 76.8344 162.343 75.7726 161.625 74.413C160.915 73.0456 160.559 71.4606 160.559 69.6579C160.559 67.8476 160.915 66.2626 161.625 64.9029C162.343 63.5356 163.363 62.4739 164.684 61.7177C166.013 60.9538 167.602 60.5719 169.451 60.5719C171.299 60.5719 172.884 60.9538 174.206 61.7177C175.535 62.4739 176.554 63.5356 177.265 64.9029C177.983 66.2626 178.342 67.8476 178.342 69.6579C178.342 71.4606 177.983 73.0456 177.265 74.413C176.554 75.7726 175.535 76.8344 174.206 77.5982C172.884 78.3545 171.299 78.7326 169.451 78.7326ZM169.485 74.5046C170.157 74.5046 170.726 74.2984 171.192 73.8859C171.658 73.4734 172.013 72.9005 172.258 72.1672C172.51 71.4339 172.636 70.586 172.636 69.6236C172.636 68.6458 172.51 67.7903 172.258 67.057C172.013 66.3237 171.658 65.7508 171.192 65.3383C170.726 64.9259 170.157 64.7196 169.485 64.7196C168.79 64.7196 168.202 64.9259 167.72 65.3383C167.247 65.7508 166.884 66.3237 166.632 67.057C166.388 67.7903 166.265 68.6458 166.265 69.6236C166.265 70.586 166.388 71.4339 166.632 72.1672C166.884 72.9005 167.247 73.4734 167.72 73.8859C168.202 74.2984 168.79 74.5046 169.485 74.5046Z" fill="white" fill-opacity="0.65"/>
<path d="M151.351 78.7326C149.495 78.7326 147.902 78.3506 146.573 77.5868C145.252 76.8229 144.236 75.7612 143.525 74.4015C142.815 73.0342 142.46 71.453 142.46 69.6579C142.46 67.8552 142.815 66.2741 143.525 64.9144C144.243 63.5471 145.263 62.4815 146.584 61.7177C147.914 60.9538 149.499 60.5719 151.339 60.5719C152.966 60.5719 154.383 60.866 155.59 61.4541C156.805 62.0423 157.752 62.8749 158.432 63.9519C159.119 65.0213 159.482 66.2779 159.52 67.7216H154.284C154.177 66.8202 153.872 66.1137 153.367 65.6019C152.871 65.0901 152.222 64.8342 151.42 64.8342C150.77 64.8342 150.201 65.0175 149.712 65.3842C149.224 65.7432 148.842 66.2779 148.567 66.9883C148.299 67.691 148.166 68.5618 148.166 69.6007C148.166 70.6395 148.299 71.5179 148.567 72.236C148.842 72.9463 149.224 73.4849 149.712 73.8515C150.201 74.2105 150.77 74.39 151.42 74.39C151.939 74.39 152.397 74.2793 152.795 74.0578C153.199 73.8362 153.532 73.5116 153.791 73.0838C154.051 72.6484 154.215 72.1214 154.284 71.5027H159.52C159.467 72.954 159.104 74.222 158.432 75.3067C157.767 76.3913 156.832 77.2354 155.625 77.8388C154.425 78.4347 153.001 78.7326 151.351 78.7326Z" fill="white" fill-opacity="0.65"/>
<path d="M141.094 66.1748L135.95 66.3123C135.896 65.9456 135.751 65.621 135.514 65.3383C135.277 65.0481 134.968 64.8227 134.586 64.6623C134.212 64.4943 133.776 64.4103 133.28 64.4103C132.631 64.4103 132.077 64.5401 131.618 64.7998C131.168 65.0595 130.946 65.4109 130.954 65.8539C130.946 66.1977 131.084 66.4956 131.366 66.7477C131.657 66.9997 132.172 67.2022 132.913 67.3549L136.305 67.9966C138.062 68.3327 139.368 68.8903 140.223 69.6694C141.086 70.4485 141.522 71.4797 141.53 72.763C141.522 73.9699 141.163 75.0202 140.452 75.9139C139.75 76.8076 138.787 77.5028 137.565 77.9993C136.343 78.4881 134.945 78.7326 133.372 78.7326C130.858 78.7326 128.876 78.217 127.425 77.1857C125.981 76.1469 125.156 74.7567 124.95 73.0151L130.484 72.8776C130.606 73.5192 130.923 74.0081 131.435 74.3442C131.947 74.6803 132.6 74.8484 133.394 74.8484C134.112 74.8484 134.697 74.7147 135.147 74.4473C135.598 74.18 135.827 73.8248 135.835 73.3817C135.827 72.9845 135.652 72.6675 135.308 72.4307C134.964 72.1863 134.426 71.9953 133.692 71.8579L130.622 71.2735C128.857 70.9527 127.543 70.3607 126.68 69.4975C125.817 68.6267 125.389 67.5192 125.397 66.1748C125.389 64.9984 125.702 63.994 126.336 63.1614C126.97 62.3211 127.872 61.6795 129.04 61.2364C130.209 60.7934 131.588 60.5719 133.177 60.5719C135.56 60.5719 137.439 61.0722 138.814 62.0729C140.189 63.0659 140.949 64.4332 141.094 66.1748Z" fill="white" fill-opacity="0.65"/>
<path d="M115.12 78.7326C113.271 78.7326 111.683 78.3545 110.354 77.5982C109.032 76.8344 108.012 75.7726 107.294 74.413C106.584 73.0456 106.229 71.4606 106.229 69.6579C106.229 67.8476 106.584 66.2626 107.294 64.9029C108.012 63.5356 109.032 62.4739 110.354 61.7177C111.683 60.9538 113.271 60.5719 115.12 60.5719C116.969 60.5719 118.554 60.9538 119.875 61.7177C121.204 62.4739 122.224 63.5356 122.934 64.9029C123.652 66.2626 124.011 67.8476 124.011 69.6579C124.011 71.4606 123.652 73.0456 122.934 74.413C122.224 75.7726 121.204 76.8344 119.875 77.5982C118.554 78.3545 116.969 78.7326 115.12 78.7326ZM115.154 74.5046C115.827 74.5046 116.396 74.2984 116.862 73.8859C117.328 73.4734 117.683 72.9005 117.927 72.1672C118.179 71.4339 118.305 70.586 118.305 69.6236C118.305 68.6458 118.179 67.7903 117.927 67.057C117.683 66.3237 117.328 65.7508 116.862 65.3383C116.396 64.9259 115.827 64.7196 115.154 64.7196C114.459 64.7196 113.871 64.9259 113.39 65.3383C112.916 65.7508 112.553 66.3237 112.301 67.057C112.057 67.7903 111.935 68.6458 111.935 69.6236C111.935 70.586 112.057 71.4339 112.301 72.1672C112.553 72.9005 112.916 73.4734 113.39 73.8859C113.871 74.2984 114.459 74.5046 115.154 74.5046Z" fill="white" fill-opacity="0.65"/>
<path d="M95.3904 78.4003V60.801H100.833V64.0092H101.016C101.337 62.8482 101.86 61.985 102.586 61.4198C103.312 60.8469 104.156 60.5604 105.118 60.5604C105.378 60.5604 105.645 60.5795 105.92 60.6177C106.195 60.6483 106.451 60.6979 106.688 60.7667V65.6362C106.421 65.5446 106.069 65.472 105.634 65.4185C105.206 65.3651 104.824 65.3383 104.488 65.3383C103.823 65.3383 103.224 65.4873 102.689 65.7852C102.162 66.0755 101.746 66.4841 101.44 67.0112C101.142 67.5306 100.993 68.1417 100.993 68.8444V78.4003H95.3904Z" fill="white" fill-opacity="0.65"/>
<path d="M85.506 78.7326C83.6498 78.7326 82.0572 78.3506 80.7281 77.5868C79.4066 76.8229 78.3907 75.7612 77.6803 74.4015C76.9699 73.0342 76.6147 71.453 76.6147 69.6579C76.6147 67.8552 76.9699 66.2741 77.6803 64.9144C78.3983 63.5471 79.4181 62.4815 80.7395 61.7177C82.0686 60.9538 83.6536 60.5719 85.4945 60.5719C87.1216 60.5719 88.5385 60.866 89.7454 61.4541C90.9599 62.0423 91.9071 62.8749 92.5869 63.9519C93.2744 65.0213 93.6372 66.2779 93.6754 67.7216H88.4392C88.3323 66.8202 88.0267 66.1137 87.5226 65.6019C87.0261 65.0901 86.3768 64.8342 85.5747 64.8342C84.9255 64.8342 84.3564 65.0175 83.8675 65.3842C83.3787 65.7432 82.9967 66.2779 82.7217 66.9883C82.4544 67.691 82.3207 68.5618 82.3207 69.6007C82.3207 70.6395 82.4544 71.5179 82.7217 72.236C82.9967 72.9463 83.3787 73.4849 83.8675 73.8515C84.3564 74.2105 84.9255 74.39 85.5747 74.39C86.0942 74.39 86.5525 74.2793 86.9497 74.0578C87.3545 73.8362 87.6868 73.5116 87.9465 73.0838C88.2062 72.6484 88.3705 72.1214 88.4392 71.5027H93.6754C93.622 72.954 93.2591 74.222 92.5869 75.3067C91.9224 76.3913 90.9867 77.2354 89.7798 77.8388C88.5805 78.4347 87.1559 78.7326 85.506 78.7326Z" fill="white" fill-opacity="0.65"/>
<path d="M69.2739 78.4003V60.801H74.8768V78.4003H69.2739ZM72.0811 58.7501C71.2943 58.7501 70.6183 58.4904 70.0531 57.971C69.4878 57.4439 69.2052 56.8099 69.2052 56.069C69.2052 55.3357 69.4878 54.7093 70.0531 54.1899C70.6183 53.6628 71.2943 53.3993 72.0811 53.3993C72.8755 53.3993 73.5515 53.6628 74.1091 54.1899C74.6744 54.7093 74.957 55.3357 74.957 56.069C74.957 56.8099 74.6744 57.4439 74.1091 57.971C73.5515 58.4904 72.8755 58.7501 72.0811 58.7501Z" fill="white" fill-opacity="0.65"/>
<path d="M40.6502 54.9346H47.6739L53.6319 69.4632H53.9069L59.865 54.9346H66.8887V78.4003H61.366V63.9863H61.1712L55.5339 78.2513H52.0049L46.3677 63.9061H46.1729V78.4003H40.6502V54.9346Z" fill="white" fill-opacity="0.65"/>
<path d="M28.5923 68.4284C28.5923 69.9824 27.4691 71.2422 26.0836 71.2422C24.698 71.2422 23.5749 69.9824 23.5749 68.4284C23.5749 66.8745 24.698 65.6147 26.0836 65.6147C27.4691 65.6147 28.5923 66.8745 28.5923 68.4284Z" fill="white" fill-opacity="0.65"/>
<path d="M11.0313 58.0176C11.0313 59.5716 9.90813 60.8314 8.52263 60.8314C7.13712 60.8314 6.01392 59.5716 6.01392 58.0176C6.01392 56.4637 7.13712 55.2039 8.52263 55.2039C9.90813 55.2039 11.0313 56.4637 11.0313 58.0176Z" fill="white" fill-opacity="0.65"/>
<path fill-rule="evenodd" clip-rule="evenodd" d="M2 68.0734C2 64.85 3.18868 61.9073 5.1469 59.6694C5.39419 60.5389 5.96103 61.2716 6.71058 61.7291C5.33285 63.4668 4.5087 65.6727 4.5087 68.0734C4.5087 73.6785 9.00144 78.2224 14.5435 78.2224C19.0668 78.2224 22.8911 75.1957 24.1442 71.0354C24.7 71.4083 25.3667 71.6255 26.0836 71.6255C26.2589 71.6255 26.4312 71.6125 26.5996 71.5874C25.0929 76.8845 20.2657 80.7597 14.5435 80.7597C7.61593 80.7597 2 75.0798 2 68.0734ZM24.4054 69.9594C24.4298 69.8281 24.4517 69.6959 24.471 69.5629C25.3935 69.2281 26.2692 68.7941 27.0855 68.2736C27.0739 69.0291 26.9971 69.7687 26.8604 70.4866C26.6158 70.5671 26.3547 70.6106 26.0836 70.6106C25.4383 70.6106 24.8499 70.3642 24.4054 69.9594ZM6.59419 58.2595C6.687 59.1271 6.86063 59.9701 7.10732 60.7808C6.46864 60.3386 6.0424 59.6055 6.0153 58.7703C6.20301 58.5942 6.39607 58.4239 6.59419 58.2595Z" fill="white" fill-opacity="0.65"/>
<path fill-rule="evenodd" clip-rule="evenodd" d="M26.8599 61.9852L25.018 52L15.9388 52.5272L18.9277 55.1157L13.5188 68.7031L23.8711 59.3968L26.8599 61.9852Z" fill="white" fill-opacity="0.65"/>
<path d="M6.74148 117L4.41477 109.364H5.64773L7.2983 115.21H7.37784L9.00852 109.364H10.2614L11.8722 115.19H11.9517L13.6023 109.364H14.8352L12.5085 117H11.3551L9.68466 111.134H9.56534L7.89489 117H6.74148ZM16.3864 117V109.364H17.5597V117H16.3864ZM16.983 108.091C16.7543 108.091 16.5571 108.013 16.3913 107.857C16.2289 107.701 16.1477 107.514 16.1477 107.295C16.1477 107.077 16.2289 106.889 16.3913 106.734C16.5571 106.578 16.7543 106.5 16.983 106.5C17.2116 106.5 17.4072 106.578 17.5696 106.734C17.7353 106.889 17.8182 107.077 17.8182 107.295C17.8182 107.514 17.7353 107.701 17.5696 107.857C17.4072 108.013 17.2116 108.091 16.983 108.091ZM23.0297 109.364V110.358H19.0723V109.364H23.0297ZM20.2257 107.534H21.399V114.812C21.399 115.144 21.447 115.393 21.5431 115.558C21.6426 115.721 21.7685 115.83 21.921 115.886C22.0768 115.939 22.2408 115.966 22.4132 115.966C22.5424 115.966 22.6485 115.959 22.7314 115.946C22.8142 115.929 22.8805 115.916 22.9302 115.906L23.1689 116.96C23.0893 116.99 22.9783 117.02 22.8358 117.05C22.6932 117.083 22.5126 117.099 22.2939 117.099C21.9624 117.099 21.6376 117.028 21.3194 116.886C21.0046 116.743 20.7427 116.526 20.5339 116.234C20.3284 115.943 20.2257 115.575 20.2257 115.131V107.534ZM26.1319 112.406V117H24.9586V106.818H26.1319V110.557H26.2314C26.4103 110.162 26.6788 109.849 27.0368 109.617C27.398 109.382 27.8786 109.264 28.4785 109.264C28.9989 109.264 29.4546 109.369 29.8457 109.577C30.2368 109.783 30.5401 110.099 30.7555 110.527C30.9743 110.951 31.0836 111.491 31.0836 112.148V117H29.9103V112.227C29.9103 111.621 29.7529 111.152 29.438 110.82C29.1265 110.486 28.694 110.318 28.1404 110.318C27.756 110.318 27.4113 110.399 27.1064 110.562C26.8047 110.724 26.5661 110.961 26.3904 111.273C26.2181 111.584 26.1319 111.962 26.1319 112.406ZM42.5767 111.074L41.5227 111.372C41.4564 111.196 41.3587 111.026 41.2294 110.86C41.1035 110.691 40.9311 110.552 40.7124 110.442C40.4936 110.333 40.2135 110.278 39.8722 110.278C39.4048 110.278 39.0154 110.386 38.7038 110.602C38.3956 110.814 38.2415 111.084 38.2415 111.412C38.2415 111.704 38.3475 111.934 38.5597 112.103C38.7718 112.272 39.1032 112.413 39.554 112.526L40.6875 112.804C41.3703 112.97 41.879 113.223 42.2138 113.565C42.5485 113.903 42.7159 114.339 42.7159 114.872C42.7159 115.31 42.59 115.701 42.3381 116.045C42.0895 116.39 41.7415 116.662 41.294 116.861C40.8466 117.06 40.3262 117.159 39.733 117.159C38.9541 117.159 38.3094 116.99 37.799 116.652C37.2886 116.314 36.9654 115.82 36.8295 115.17L37.9432 114.892C38.0492 115.303 38.2498 115.611 38.5447 115.817C38.843 116.022 39.2325 116.125 39.7131 116.125C40.2599 116.125 40.6941 116.009 41.0156 115.777C41.3404 115.542 41.5028 115.26 41.5028 114.932C41.5028 114.667 41.41 114.445 41.2244 114.266C41.0388 114.083 40.7538 113.947 40.3693 113.858L39.0966 113.56C38.3973 113.394 37.8835 113.137 37.5554 112.789C37.2306 112.438 37.0682 111.999 37.0682 111.472C37.0682 111.041 37.1892 110.66 37.4311 110.328C37.6764 109.997 38.0095 109.737 38.4304 109.548C38.8546 109.359 39.3352 109.264 39.8722 109.264C40.6278 109.264 41.2211 109.43 41.652 109.761C42.0862 110.093 42.3944 110.53 42.5767 111.074ZM45.6554 112.406V117H44.4821V106.818H45.6554V110.557H45.7548C45.9338 110.162 46.2022 109.849 46.5602 109.617C46.9215 109.382 47.402 109.264 48.002 109.264C48.5223 109.264 48.978 109.369 49.3691 109.577C49.7602 109.783 50.0635 110.099 50.2789 110.527C50.4977 110.951 50.6071 111.491 50.6071 112.148V117H49.4338V112.227C49.4338 111.621 49.2763 111.152 48.9615 110.82C48.6499 110.486 48.2174 110.318 47.6639 110.318C47.2794 110.318 46.9347 110.399 46.6298 110.562C46.3282 110.724 46.0895 110.961 45.9139 111.273C45.7415 111.584 45.6554 111.962 45.6554 112.406ZM55.0007 117.179C54.5168 117.179 54.0777 117.088 53.6832 116.906C53.2888 116.72 52.9756 116.453 52.7436 116.105C52.5116 115.754 52.3956 115.33 52.3956 114.832C52.3956 114.395 52.4818 114.04 52.6541 113.768C52.8265 113.493 53.0568 113.278 53.3452 113.122C53.6335 112.966 53.9517 112.85 54.2997 112.774C54.651 112.695 55.004 112.632 55.3587 112.585C55.8227 112.526 56.1989 112.481 56.4872 112.451C56.7789 112.418 56.991 112.363 57.1236 112.287C57.2595 112.211 57.3274 112.078 57.3274 111.889V111.849C57.3274 111.359 57.1932 110.978 56.9247 110.706C56.6596 110.434 56.2569 110.298 55.7166 110.298C55.1565 110.298 54.7173 110.421 54.3991 110.666C54.081 110.911 53.8572 111.173 53.728 111.452L52.6143 111.054C52.8132 110.59 53.0784 110.229 53.4098 109.97C53.7446 109.708 54.1091 109.526 54.5036 109.423C54.9013 109.317 55.2924 109.264 55.6768 109.264C55.9221 109.264 56.2038 109.294 56.522 109.354C56.8435 109.41 57.1534 109.528 57.4517 109.707C57.7533 109.886 58.0036 110.156 58.2024 110.517C58.4013 110.878 58.5007 111.362 58.5007 111.969V117H57.3274V115.966H57.2678C57.1882 116.132 57.0556 116.309 56.87 116.498C56.6844 116.687 56.4375 116.848 56.1293 116.98C55.821 117.113 55.4448 117.179 55.0007 117.179ZM55.1797 116.125C55.6437 116.125 56.0348 116.034 56.353 115.852C56.6745 115.669 56.9164 115.434 57.0788 115.146C57.2446 114.857 57.3274 114.554 57.3274 114.236V113.162C57.2777 113.222 57.1683 113.276 56.9993 113.326C56.8336 113.372 56.6413 113.414 56.4226 113.45C56.2071 113.483 55.9967 113.513 55.7912 113.54C55.589 113.563 55.425 113.583 55.299 113.599C54.9941 113.639 54.709 113.704 54.4439 113.793C54.1821 113.879 53.9699 114.01 53.8075 114.186C53.6484 114.358 53.5689 114.594 53.5689 114.892C53.5689 115.3 53.7197 115.608 54.0213 115.817C54.3262 116.022 54.7124 116.125 55.1797 116.125ZM60.6422 117V109.364H61.7757V110.517H61.8553C61.9945 110.139 62.2464 109.833 62.611 109.597C62.9756 109.362 63.3865 109.244 63.8439 109.244C63.9301 109.244 64.0378 109.246 64.1671 109.249C64.2963 109.253 64.3941 109.258 64.4604 109.264V110.457C64.4206 110.447 64.3295 110.433 64.187 110.413C64.0478 110.389 63.9003 110.378 63.7445 110.378C63.3733 110.378 63.0418 110.456 62.7502 110.612C62.4618 110.764 62.2331 110.976 62.0641 111.248C61.8984 111.516 61.8155 111.823 61.8155 112.168V117H60.6422ZM68.8205 117.159C68.0847 117.159 67.45 116.997 66.9164 116.672C66.3861 116.344 65.9767 115.886 65.6884 115.3C65.4033 114.71 65.2608 114.024 65.2608 113.241C65.2608 112.459 65.4033 111.77 65.6884 111.173C65.9767 110.573 66.3778 110.106 66.8915 109.771C67.4086 109.433 68.0118 109.264 68.7012 109.264C69.0989 109.264 69.4917 109.33 69.8794 109.463C70.2672 109.596 70.6202 109.811 70.9384 110.109C71.2566 110.404 71.5101 110.795 71.699 111.283C71.888 111.77 71.9824 112.37 71.9824 113.082V113.58H66.0961V112.565H70.7892C70.7892 112.134 70.7031 111.75 70.5307 111.412C70.3617 111.074 70.1197 110.807 69.8049 110.612C69.4933 110.416 69.1254 110.318 68.7012 110.318C68.2338 110.318 67.8295 110.434 67.4881 110.666C67.15 110.895 66.8899 111.193 66.7076 111.561C66.5253 111.929 66.4341 112.323 66.4341 112.744V113.42C66.4341 113.997 66.5336 114.486 66.7324 114.887C66.9346 115.285 67.2147 115.588 67.5726 115.797C67.9306 116.002 68.3465 116.105 68.8205 116.105C69.1287 116.105 69.4071 116.062 69.6557 115.976C69.9076 115.886 70.1247 115.754 70.307 115.578C70.4893 115.399 70.6301 115.177 70.7296 114.912L71.8631 115.23C71.7438 115.615 71.5433 115.953 71.2615 116.244C70.9798 116.533 70.6318 116.758 70.2175 116.92C69.8032 117.08 69.3375 117.159 68.8205 117.159ZM76.6507 117.159C76.0144 117.159 75.4526 116.998 74.9654 116.677C74.4782 116.352 74.097 115.895 73.8219 115.305C73.5468 114.711 73.4093 114.01 73.4093 113.202C73.4093 112.4 73.5468 111.704 73.8219 111.114C74.097 110.524 74.4798 110.068 74.9703 109.746C75.4609 109.425 76.0276 109.264 76.6706 109.264C77.1678 109.264 77.5605 109.347 77.8489 109.513C78.1406 109.675 78.3626 109.861 78.5151 110.07C78.6709 110.275 78.7918 110.444 78.878 110.577H78.9775V106.818H80.1507V117H79.0172V115.827H78.878C78.7918 115.966 78.6692 116.142 78.5101 116.354C78.351 116.562 78.124 116.75 77.829 116.915C77.534 117.078 77.1413 117.159 76.6507 117.159ZM76.8098 116.105C77.2805 116.105 77.6782 115.982 78.003 115.737C78.3278 115.489 78.5748 115.146 78.7438 114.708C78.9128 114.267 78.9973 113.759 78.9973 113.182C78.9973 112.612 78.9145 112.113 78.7488 111.685C78.583 111.254 78.3378 110.92 78.013 110.681C77.6882 110.439 77.2871 110.318 76.8098 110.318C76.3127 110.318 75.8984 110.446 75.5669 110.701C75.2388 110.953 74.9919 111.296 74.8262 111.73C74.6638 112.161 74.5826 112.645 74.5826 113.182C74.5826 113.725 74.6654 114.219 74.8311 114.663C75.0002 115.104 75.2488 115.455 75.5769 115.717C75.9083 115.976 76.3193 116.105 76.8098 116.105ZM89.7211 109.364V110.358H85.7637V109.364H89.7211ZM86.9171 107.534H88.0904V114.812C88.0904 115.144 88.1384 115.393 88.2346 115.558C88.334 115.721 88.4599 115.83 88.6124 115.886C88.7682 115.939 88.9322 115.966 89.1046 115.966C89.2338 115.966 89.3399 115.959 89.4228 115.946C89.5056 115.929 89.5719 115.916 89.6216 115.906L89.8603 116.96C89.7807 116.99 89.6697 117.02 89.5272 117.05C89.3846 117.083 89.204 117.099 88.9853 117.099C88.6538 117.099 88.329 117.028 88.0108 116.886C87.696 116.743 87.4341 116.526 87.2253 116.234C87.0198 115.943 86.9171 115.575 86.9171 115.131V107.534ZM94.6056 117.159C93.8699 117.159 93.2351 116.997 92.7015 116.672C92.1712 116.344 91.7619 115.886 91.4735 115.3C91.1885 114.71 91.046 114.024 91.046 113.241C91.046 112.459 91.1885 111.77 91.4735 111.173C91.7619 110.573 92.1629 110.106 92.6767 109.771C93.1937 109.433 93.7969 109.264 94.4863 109.264C94.8841 109.264 95.2768 109.33 95.6646 109.463C96.0524 109.596 96.4054 109.811 96.7235 110.109C97.0417 110.404 97.2953 110.795 97.4842 111.283C97.6731 111.77 97.7676 112.37 97.7676 113.082V113.58H91.8812V112.565H96.5744C96.5744 112.134 96.4882 111.75 96.3159 111.412C96.1468 111.074 95.9049 110.807 95.59 110.612C95.2785 110.416 94.9106 110.318 94.4863 110.318C94.019 110.318 93.6146 110.434 93.2733 110.666C92.9352 110.895 92.675 111.193 92.4927 111.561C92.3104 111.929 92.2193 112.323 92.2193 112.744V113.42C92.2193 113.997 92.3187 114.486 92.5176 114.887C92.7198 115.285 92.9998 115.588 93.3578 115.797C93.7157 116.002 94.1317 116.105 94.6056 116.105C94.9139 116.105 95.1923 116.062 95.4409 115.976C95.6928 115.886 95.9099 115.754 96.0922 115.578C96.2744 115.399 96.4153 115.177 96.5147 114.912L97.6483 115.23C97.5289 115.615 97.3284 115.953 97.0467 116.244C96.765 116.533 96.417 116.758 96.0027 116.92C95.5884 117.08 95.1227 117.159 94.6056 117.159ZM102.655 117.159C101.939 117.159 101.322 116.99 100.805 116.652C100.288 116.314 99.8904 115.848 99.612 115.255C99.3336 114.662 99.1944 113.984 99.1944 113.222C99.1944 112.446 99.3369 111.762 99.622 111.168C99.9103 110.572 100.311 110.106 100.825 109.771C101.342 109.433 101.945 109.264 102.635 109.264C103.172 109.264 103.656 109.364 104.086 109.562C104.517 109.761 104.87 110.04 105.145 110.398C105.421 110.756 105.591 111.173 105.657 111.651H104.484C104.395 111.303 104.196 110.994 103.888 110.726C103.583 110.454 103.172 110.318 102.655 110.318C102.197 110.318 101.796 110.437 101.452 110.676C101.11 110.911 100.843 111.245 100.651 111.675C100.462 112.103 100.368 112.605 100.368 113.182C100.368 113.772 100.461 114.286 100.646 114.723C100.835 115.161 101.1 115.5 101.442 115.742C101.786 115.984 102.191 116.105 102.655 116.105C102.96 116.105 103.236 116.052 103.485 115.946C103.733 115.84 103.944 115.688 104.116 115.489C104.289 115.29 104.411 115.051 104.484 114.773H105.657C105.591 115.223 105.427 115.629 105.165 115.991C104.907 116.349 104.564 116.634 104.136 116.846C103.712 117.055 103.218 117.159 102.655 117.159ZM108.546 112.406V117H107.373V106.818H108.546V110.557H108.645C108.824 110.162 109.093 109.849 109.451 109.617C109.812 109.382 110.293 109.264 110.893 109.264C111.413 109.264 111.869 109.369 112.26 109.577C112.651 109.783 112.954 110.099 113.17 110.527C113.388 110.951 113.498 111.491 113.498 112.148V117H112.324V112.227C112.324 111.621 112.167 111.152 111.852 110.82C111.541 110.486 111.108 110.318 110.555 110.318C110.17 110.318 109.825 110.399 109.52 110.562C109.219 110.724 108.98 110.961 108.805 111.273C108.632 111.584 108.546 111.962 108.546 112.406ZM116.817 112.406V117H115.644V109.364H116.778V110.557H116.877C117.056 110.169 117.328 109.857 117.692 109.622C118.057 109.384 118.528 109.264 119.104 109.264C119.621 109.264 120.074 109.37 120.462 109.582C120.849 109.791 121.151 110.109 121.366 110.537C121.582 110.961 121.69 111.498 121.69 112.148V117H120.516V112.227C120.516 111.627 120.361 111.16 120.049 110.825C119.737 110.487 119.31 110.318 118.766 110.318C118.392 110.318 118.057 110.399 117.762 110.562C117.47 110.724 117.24 110.961 117.071 111.273C116.902 111.584 116.817 111.962 116.817 112.406ZM126.936 117.159C126.247 117.159 125.642 116.995 125.121 116.667C124.604 116.339 124.2 115.88 123.908 115.29C123.62 114.7 123.476 114.01 123.476 113.222C123.476 112.426 123.62 111.732 123.908 111.138C124.2 110.545 124.604 110.085 125.121 109.756C125.642 109.428 126.247 109.264 126.936 109.264C127.625 109.264 128.229 109.428 128.746 109.756C129.266 110.085 129.67 110.545 129.959 111.138C130.25 111.732 130.396 112.426 130.396 113.222C130.396 114.01 130.25 114.7 129.959 115.29C129.67 115.88 129.266 116.339 128.746 116.667C128.229 116.995 127.625 117.159 126.936 117.159ZM126.936 116.105C127.46 116.105 127.89 115.971 128.229 115.702C128.567 115.434 128.817 115.081 128.979 114.643C129.142 114.206 129.223 113.732 129.223 113.222C129.223 112.711 129.142 112.236 128.979 111.795C128.817 111.354 128.567 110.998 128.229 110.726C127.89 110.454 127.46 110.318 126.936 110.318C126.412 110.318 125.981 110.454 125.643 110.726C125.305 110.998 125.055 111.354 124.893 111.795C124.73 112.236 124.649 112.711 124.649 113.222C124.649 113.732 124.73 114.206 124.893 114.643C125.055 115.081 125.305 115.434 125.643 115.702C125.981 115.971 126.412 116.105 126.936 116.105ZM133.36 106.818V117H132.187V106.818H133.36ZM138.612 117.159C137.922 117.159 137.317 116.995 136.797 116.667C136.28 116.339 135.876 115.88 135.584 115.29C135.296 114.7 135.151 114.01 135.151 113.222C135.151 112.426 135.296 111.732 135.584 111.138C135.876 110.545 136.28 110.085 136.797 109.756C137.317 109.428 137.922 109.264 138.612 109.264C139.301 109.264 139.904 109.428 140.421 109.756C140.942 110.085 141.346 110.545 141.634 111.138C141.926 111.732 142.072 112.426 142.072 113.222C142.072 114.01 141.926 114.7 141.634 115.29C141.346 115.88 140.942 116.339 140.421 116.667C139.904 116.995 139.301 117.159 138.612 117.159ZM138.612 116.105C139.135 116.105 139.566 115.971 139.904 115.702C140.242 115.434 140.493 115.081 140.655 114.643C140.817 114.206 140.899 113.732 140.899 113.222C140.899 112.711 140.817 112.236 140.655 111.795C140.493 111.354 140.242 110.998 139.904 110.726C139.566 110.454 139.135 110.318 138.612 110.318C138.088 110.318 137.657 110.454 137.319 110.726C136.981 110.998 136.731 111.354 136.568 111.795C136.406 112.236 136.325 112.711 136.325 113.222C136.325 113.732 136.406 114.206 136.568 114.643C136.731 115.081 136.981 115.434 137.319 115.702C137.657 115.971 138.088 116.105 138.612 116.105ZM146.945 120.023C146.379 120.023 145.891 119.95 145.484 119.804C145.076 119.661 144.736 119.473 144.464 119.237C144.196 119.005 143.982 118.757 143.823 118.491L144.758 117.835C144.864 117.974 144.998 118.134 145.161 118.312C145.323 118.495 145.545 118.652 145.827 118.785C146.112 118.921 146.485 118.989 146.945 118.989C147.562 118.989 148.071 118.839 148.472 118.541C148.873 118.243 149.073 117.776 149.073 117.139V115.588H148.974C148.888 115.727 148.765 115.9 148.606 116.105C148.45 116.307 148.225 116.488 147.93 116.647C147.638 116.803 147.244 116.881 146.746 116.881C146.13 116.881 145.576 116.735 145.086 116.443C144.599 116.152 144.213 115.727 143.928 115.17C143.646 114.614 143.505 113.937 143.505 113.142C143.505 112.36 143.643 111.679 143.918 111.099C144.193 110.515 144.576 110.065 145.066 109.746C145.557 109.425 146.123 109.264 146.766 109.264C147.263 109.264 147.658 109.347 147.95 109.513C148.245 109.675 148.47 109.861 148.626 110.07C148.785 110.275 148.907 110.444 148.994 110.577H149.113V109.364H150.246V117.219C150.246 117.875 150.097 118.409 149.799 118.82C149.504 119.234 149.106 119.537 148.606 119.729C148.109 119.925 147.555 120.023 146.945 120.023ZM146.906 115.827C147.376 115.827 147.774 115.719 148.099 115.504C148.424 115.288 148.67 114.978 148.839 114.574C149.009 114.17 149.093 113.686 149.093 113.122C149.093 112.572 149.01 112.086 148.844 111.665C148.679 111.245 148.433 110.915 148.109 110.676C147.784 110.437 147.383 110.318 146.906 110.318C146.408 110.318 145.994 110.444 145.663 110.696C145.335 110.948 145.088 111.286 144.922 111.71C144.759 112.134 144.678 112.605 144.678 113.122C144.678 113.652 144.761 114.121 144.927 114.529C145.096 114.933 145.344 115.252 145.673 115.484C146.004 115.712 146.415 115.827 146.906 115.827ZM152.394 117V109.364H153.567V117H152.394ZM152.991 108.091C152.762 108.091 152.565 108.013 152.399 107.857C152.237 107.701 152.156 107.514 152.156 107.295C152.156 107.077 152.237 106.889 152.399 106.734C152.565 106.578 152.762 106.5 152.991 106.5C153.219 106.5 153.415 106.578 153.577 106.734C153.743 106.889 153.826 107.077 153.826 107.295C153.826 107.514 153.743 107.701 153.577 107.857C153.415 108.013 153.219 108.091 152.991 108.091ZM158.918 117.159C158.182 117.159 157.548 116.997 157.014 116.672C156.484 116.344 156.074 115.886 155.786 115.3C155.501 114.71 155.358 114.024 155.358 113.241C155.358 112.459 155.501 111.77 155.786 111.173C156.074 110.573 156.475 110.106 156.989 109.771C157.506 109.433 158.109 109.264 158.799 109.264C159.197 109.264 159.589 109.33 159.977 109.463C160.365 109.596 160.718 109.811 161.036 110.109C161.354 110.404 161.608 110.795 161.797 111.283C161.986 111.77 162.08 112.37 162.08 113.082V113.58H156.194V112.565H160.887C160.887 112.134 160.801 111.75 160.628 111.412C160.459 111.074 160.217 110.807 159.903 110.612C159.591 110.416 159.223 110.318 158.799 110.318C158.331 110.318 157.927 110.434 157.586 110.666C157.248 110.895 156.988 111.193 156.805 111.561C156.623 111.929 156.532 112.323 156.532 112.744V113.42C156.532 113.997 156.631 114.486 156.83 114.887C157.032 115.285 157.312 115.588 157.67 115.797C158.028 116.002 158.444 116.105 158.918 116.105C159.226 116.105 159.505 116.062 159.753 115.976C160.005 115.886 160.222 115.754 160.405 115.578C160.587 115.399 160.728 115.177 160.827 114.912L161.961 115.23C161.841 115.615 161.641 115.953 161.359 116.244C161.077 116.533 160.729 116.758 160.315 116.92C159.901 117.08 159.435 117.159 158.918 117.159ZM169.274 111.074L168.22 111.372C168.154 111.196 168.056 111.026 167.927 110.86C167.801 110.691 167.628 110.552 167.41 110.442C167.191 110.333 166.911 110.278 166.569 110.278C166.102 110.278 165.713 110.386 165.401 110.602C165.093 110.814 164.939 111.084 164.939 111.412C164.939 111.704 165.045 111.934 165.257 112.103C165.469 112.272 165.8 112.413 166.251 112.526L167.385 112.804C168.068 112.97 168.576 113.223 168.911 113.565C169.246 113.903 169.413 114.339 169.413 114.872C169.413 115.31 169.287 115.701 169.035 116.045C168.787 116.39 168.439 116.662 167.991 116.861C167.544 117.06 167.023 117.159 166.43 117.159C165.651 117.159 165.007 116.99 164.496 116.652C163.986 116.314 163.663 115.82 163.527 115.17L164.64 114.892C164.747 115.303 164.947 115.611 165.242 115.817C165.54 116.022 165.93 116.125 166.41 116.125C166.957 116.125 167.391 116.009 167.713 115.777C168.038 115.542 168.2 115.26 168.2 114.932C168.2 114.667 168.107 114.445 167.922 114.266C167.736 114.083 167.451 113.947 167.067 113.858L165.794 113.56C165.095 113.394 164.581 113.137 164.253 112.789C163.928 112.438 163.765 111.999 163.765 111.472C163.765 111.041 163.886 110.66 164.128 110.328C164.374 109.997 164.707 109.737 165.128 109.548C165.552 109.359 166.032 109.264 166.569 109.264C167.325 109.264 167.918 109.43 168.349 109.761C168.783 110.093 169.092 110.53 169.274 111.074Z" fill="white" fill-opacity="0.45"/>
</svg>
