        <svg
          width="293"
          height="116"
          viewBox="0 0 293 116"
          fill="none"
          xmlns="http://www.w3.org/2000/svg"
        >
          <path
            className="path"
            d="M2.58239 27V0.818181H7.32528V23.0241H18.8565V27H2.58239ZM30.7416 27.3835C28.7729 27.3835 27.0726 26.9744 25.6408 26.1562C24.2175 25.3295 23.1223 24.1619 22.3553 22.6534C21.5882 21.1364 21.2047 19.3509 21.2047 17.2969C21.2047 15.277 21.5882 13.5043 22.3553 11.9787C23.1309 10.4446 24.2132 9.25142 25.6024 8.39915C26.9916 7.53835 28.6238 7.10795 30.4988 7.10795C31.709 7.10795 32.851 7.30398 33.9249 7.69602C35.0073 8.07954 35.9618 8.67614 36.7885 9.4858C37.6238 10.2955 38.28 11.3267 38.7573 12.5795C39.2345 13.8239 39.4732 15.3068 39.4732 17.0284V18.4474H23.378V15.3281H35.0371C35.0286 14.4418 34.8368 13.6534 34.4618 12.9631C34.0868 12.2642 33.5627 11.7145 32.8894 11.3139C32.2246 10.9134 31.449 10.7131 30.5627 10.7131C29.6166 10.7131 28.7857 10.9432 28.0698 11.4034C27.3539 11.8551 26.7956 12.4517 26.3951 13.1932C26.003 13.9261 25.8027 14.7315 25.7942 15.6094V18.3324C25.7942 19.4744 26.003 20.4545 26.4206 21.2727C26.8382 22.0824 27.422 22.7045 28.172 23.1392C28.922 23.5653 29.7999 23.7784 30.8056 23.7784C31.4789 23.7784 32.0882 23.6847 32.6337 23.4972C33.1791 23.3011 33.6522 23.0156 34.0527 22.6406C34.4533 22.2656 34.7559 21.8011 34.9604 21.2472L39.2814 21.733C39.0087 22.875 38.4888 23.8722 37.7218 24.7244C36.9632 25.5682 35.9916 26.2244 34.807 26.6932C33.6223 27.1534 32.2672 27.3835 30.7416 27.3835ZM52.4737 7.36364V10.9432H41.1854V7.36364H52.4737ZM43.9723 2.65909H48.6001V21.0938C48.6001 21.7159 48.6939 22.1932 48.8814 22.5256C49.0774 22.8494 49.3331 23.071 49.6484 23.1903C49.9638 23.3097 50.3132 23.3693 50.6967 23.3693C50.9865 23.3693 51.2507 23.348 51.4893 23.3054C51.7365 23.2628 51.924 23.2244 52.0518 23.1903L52.8317 26.8082C52.5845 26.8935 52.2308 26.9872 51.7706 27.0895C51.3189 27.1918 50.7649 27.2514 50.1087 27.2685C48.9496 27.3026 47.9055 27.1278 46.9765 26.7443C46.0476 26.3523 45.3104 25.7472 44.7649 24.929C44.228 24.1108 43.9638 23.0881 43.9723 21.8608V2.65909ZM58.8201 0.818181V10.4574H55.2917V0.818181H58.8201ZM78.088 12.554L73.8693 13.0142C73.75 12.5881 73.5412 12.1875 73.2429 11.8125C72.9531 11.4375 72.5611 11.1349 72.0667 10.9048C71.5724 10.6747 70.9673 10.5597 70.2514 10.5597C69.2883 10.5597 68.4787 10.7685 67.8224 11.1861C67.1747 11.6037 66.8551 12.1449 66.8636 12.8097C66.8551 13.3807 67.0639 13.8452 67.49 14.2031C67.9247 14.5611 68.6406 14.8551 69.6378 15.0852L72.9872 15.8011C74.8451 16.2017 76.2258 16.8366 77.1292 17.706C78.0412 18.5753 78.5014 19.7131 78.5099 21.1193C78.5014 22.3551 78.1392 23.446 77.4233 24.392C76.7159 25.3295 75.7315 26.0625 74.4701 26.5909C73.2088 27.1193 71.7599 27.3835 70.1236 27.3835C67.7201 27.3835 65.7855 26.8807 64.3196 25.875C62.8537 24.8608 61.9801 23.4503 61.6988 21.6435L66.2116 21.2088C66.4162 22.0952 66.8508 22.7642 67.5156 23.2159C68.1804 23.6676 69.0454 23.8935 70.1108 23.8935C71.2102 23.8935 72.0923 23.6676 72.7571 23.2159C73.4304 22.7642 73.767 22.206 73.767 21.5412C73.767 20.9787 73.5497 20.5142 73.115 20.1477C72.6889 19.7812 72.0241 19.5 71.1207 19.304L67.7713 18.6009C65.8878 18.2088 64.4943 17.5483 63.5909 16.6193C62.6875 15.6818 62.24 14.4972 62.2486 13.0653C62.24 11.8551 62.5682 10.8068 63.2329 9.92045C63.9062 9.02557 64.8395 8.33523 66.0326 7.84943C67.2343 7.35511 68.6193 7.10795 70.1875 7.10795C72.4886 7.10795 74.2997 7.59801 75.6207 8.57812C76.9503 9.55824 77.7727 10.8835 78.088 12.554ZM95.4662 27.3963C94.2219 27.3963 93.1012 27.1747 92.104 26.7315C91.1154 26.2798 90.3313 25.6151 89.7517 24.7372C89.1807 23.8594 88.8952 22.777 88.8952 21.4901C88.8952 20.3821 89.0997 19.4659 89.5088 18.7415C89.9179 18.017 90.4762 17.4375 91.1836 17.0028C91.8909 16.5682 92.6878 16.2401 93.5742 16.0185C94.4691 15.7884 95.3938 15.6222 96.3483 15.5199C97.4989 15.4006 98.4321 15.294 99.148 15.2003C99.8639 15.098 100.384 14.9446 100.708 14.7401C101.04 14.527 101.206 14.1989 101.206 13.7557V13.679C101.206 12.7159 100.921 11.9702 100.35 11.4418C99.7787 10.9134 98.9563 10.6491 97.8824 10.6491C96.7489 10.6491 95.8497 10.8963 95.185 11.3906C94.5287 11.8849 94.0855 12.4687 93.8554 13.142L89.5344 12.5284C89.8753 11.3352 90.4378 10.3381 91.2219 9.53693C92.006 8.72727 92.9648 8.12216 94.0983 7.72159C95.2318 7.3125 96.4847 7.10795 97.8568 7.10795C98.8029 7.10795 99.7446 7.21875 100.682 7.44034C101.62 7.66193 102.476 8.02841 103.252 8.53977C104.027 9.04261 104.649 9.72869 105.118 10.598C105.595 11.4673 105.834 12.554 105.834 13.858V27H101.385V24.3026H101.232C100.951 24.848 100.554 25.3594 100.043 25.8366C99.5401 26.3054 98.9051 26.6847 98.1381 26.9744C97.3796 27.2557 96.4889 27.3963 95.4662 27.3963ZM96.6679 23.9957C97.5969 23.9957 98.4023 23.8125 99.0841 23.446C99.7659 23.071 100.29 22.5767 100.657 21.9631C101.032 21.3494 101.219 20.6804 101.219 19.956V17.642C101.074 17.7614 100.827 17.8722 100.478 17.9744C100.137 18.0767 99.7532 18.1662 99.327 18.2429C98.9009 18.3196 98.479 18.3878 98.0614 18.4474C97.6438 18.5071 97.2816 18.5582 96.9747 18.6009C96.2844 18.6946 95.6665 18.848 95.1211 19.0611C94.5756 19.2741 94.1452 19.5724 93.8299 19.956C93.5145 20.331 93.3568 20.8168 93.3568 21.4134C93.3568 22.2656 93.6679 22.9091 94.2901 23.3438C94.9122 23.7784 95.7049 23.9957 96.6679 23.9957ZM114.395 15.4943V27H109.768V7.36364H114.191V10.7003H114.421C114.873 9.60085 115.593 8.72727 116.581 8.07955C117.579 7.43182 118.81 7.10795 120.276 7.10795C121.631 7.10795 122.812 7.39773 123.817 7.97727C124.831 8.55682 125.616 9.39631 126.17 10.4957C126.732 11.5952 127.009 12.929 127 14.4972V27H122.373V15.2131C122.373 13.9006 122.032 12.8736 121.35 12.1321C120.677 11.3906 119.743 11.0199 118.55 11.0199C117.741 11.0199 117.02 11.1989 116.39 11.5568C115.768 11.9062 115.277 12.4134 114.92 13.0781C114.57 13.7429 114.395 14.5483 114.395 15.4943ZM135.613 15.4943V27H130.985V7.36364H135.408V10.7003H135.638C136.09 9.60085 136.81 8.72727 137.799 8.07955C138.796 7.43182 140.028 7.10795 141.494 7.10795C142.849 7.10795 144.029 7.39773 145.035 7.97727C146.049 8.55682 146.833 9.39631 147.387 10.4957C147.95 11.5952 148.227 12.929 148.218 14.4972V27H143.59V15.2131C143.59 13.9006 143.249 12.8736 142.567 12.1321C141.894 11.3906 140.961 11.0199 139.768 11.0199C138.958 11.0199 138.238 11.1989 137.607 11.5568C136.985 11.9062 136.495 12.4134 136.137 13.0781C135.788 13.7429 135.613 14.5483 135.613 15.4943ZM160.768 27.3835C158.85 27.3835 157.188 26.9616 155.782 26.1179C154.376 25.2741 153.285 24.0937 152.509 22.5767C151.742 21.0597 151.359 19.2869 151.359 17.2585C151.359 15.2301 151.742 13.4531 152.509 11.9276C153.285 10.402 154.376 9.21733 155.782 8.37358C157.188 7.52983 158.85 7.10795 160.768 7.10795C162.685 7.10795 164.347 7.52983 165.754 8.37358C167.16 9.21733 168.247 10.402 169.014 11.9276C169.789 13.4531 170.177 15.2301 170.177 17.2585C170.177 19.2869 169.789 21.0597 169.014 22.5767C168.247 24.0937 167.16 25.2741 165.754 26.1179C164.347 26.9616 162.685 27.3835 160.768 27.3835ZM160.793 23.6761C161.833 23.6761 162.703 23.3906 163.401 22.8196C164.1 22.2401 164.62 21.4645 164.961 20.4929C165.31 19.5213 165.485 18.4389 165.485 17.2457C165.485 16.044 165.31 14.9574 164.961 13.9858C164.62 13.0057 164.1 12.2259 163.401 11.6463C162.703 11.0668 161.833 10.777 160.793 10.777C159.728 10.777 158.842 11.0668 158.134 11.6463C157.435 12.2259 156.911 13.0057 156.562 13.9858C156.221 14.9574 156.051 16.044 156.051 17.2457C156.051 18.4389 156.221 19.5213 156.562 20.4929C156.911 21.4645 157.435 22.2401 158.134 22.8196C158.842 23.3906 159.728 23.6761 160.793 23.6761ZM183.19 7.36364V10.9432H171.902V7.36364H183.19ZM174.689 2.65909H179.317V21.0938C179.317 21.7159 179.41 22.1932 179.598 22.5256C179.794 22.8494 180.05 23.071 180.365 23.1903C180.68 23.3097 181.03 23.3693 181.413 23.3693C181.703 23.3693 181.967 23.348 182.206 23.3054C182.453 23.2628 182.641 23.2244 182.768 23.1903L183.548 26.8082C183.301 26.8935 182.947 26.9872 182.487 27.0895C182.035 27.1918 181.481 27.2514 180.825 27.2685C179.666 27.3026 178.622 27.1278 177.693 26.7443C176.764 26.3523 176.027 25.7472 175.481 24.929C174.945 24.1108 174.68 23.0881 174.689 21.8608V2.65909ZM191.991 27.3963C190.747 27.3963 189.626 27.1747 188.629 26.7315C187.64 26.2798 186.856 25.6151 186.277 24.7372C185.706 23.8594 185.42 22.777 185.42 21.4901C185.42 20.3821 185.625 19.4659 186.034 18.7415C186.443 18.017 187.001 17.4375 187.709 17.0028C188.416 16.5682 189.213 16.2401 190.099 16.0185C190.994 15.7884 191.919 15.6222 192.873 15.5199C194.024 15.4006 194.957 15.294 195.673 15.2003C196.389 15.098 196.909 14.9446 197.233 14.7401C197.565 14.527 197.731 14.1989 197.731 13.7557V13.679C197.731 12.7159 197.446 11.9702 196.875 11.4418C196.304 10.9134 195.481 10.6491 194.407 10.6491C193.274 10.6491 192.375 10.8963 191.71 11.3906C191.054 11.8849 190.611 12.4687 190.38 13.142L186.059 12.5284C186.4 11.3352 186.963 10.3381 187.747 9.53693C188.531 8.72727 189.49 8.12216 190.623 7.72159C191.757 7.3125 193.01 7.10795 194.382 7.10795C195.328 7.10795 196.27 7.21875 197.207 7.44034C198.145 7.66193 199.001 8.02841 199.777 8.53977C200.552 9.04261 201.174 9.72869 201.643 10.598C202.12 11.4673 202.359 12.554 202.359 13.858V27H197.91V24.3026H197.757C197.476 24.848 197.079 25.3594 196.568 25.8366C196.065 26.3054 195.43 26.6847 194.663 26.9744C193.905 27.2557 193.014 27.3963 191.991 27.3963ZM193.193 23.9957C194.122 23.9957 194.927 23.8125 195.609 23.446C196.291 23.071 196.815 22.5767 197.182 21.9631C197.557 21.3494 197.744 20.6804 197.744 19.956V17.642C197.599 17.7614 197.352 17.8722 197.003 17.9744C196.662 18.0767 196.278 18.1662 195.852 18.2429C195.426 18.3196 195.004 18.3878 194.586 18.4474C194.169 18.5071 193.807 18.5582 193.5 18.6009C192.809 18.6946 192.192 18.848 191.646 19.0611C191.101 19.2741 190.67 19.5724 190.355 19.956C190.04 20.331 189.882 20.8168 189.882 21.4134C189.882 22.2656 190.193 22.9091 190.815 23.3438C191.437 23.7784 192.23 23.9957 193.193 23.9957ZM216.098 7.36364V10.9432H204.81V7.36364H216.098ZM207.597 2.65909H212.224V21.0938C212.224 21.7159 212.318 22.1932 212.506 22.5256C212.702 22.8494 212.957 23.071 213.273 23.1903C213.588 23.3097 213.937 23.3693 214.321 23.3693C214.611 23.3693 214.875 23.348 215.114 23.3054C215.361 23.2628 215.548 23.2244 215.676 23.1903L216.456 26.8082C216.209 26.8935 215.855 26.9872 215.395 27.0895C214.943 27.1918 214.389 27.2514 213.733 27.2685C212.574 27.3026 211.53 27.1278 210.601 26.7443C209.672 26.3523 208.935 25.7472 208.389 24.929C207.852 24.1108 207.588 23.0881 207.597 21.8608V2.65909ZM227.731 27.3835C225.762 27.3835 224.062 26.9744 222.63 26.1562C221.206 25.3295 220.111 24.1619 219.344 22.6534C218.577 21.1364 218.194 19.3509 218.194 17.2969C218.194 15.277 218.577 13.5043 219.344 11.9787C220.12 10.4446 221.202 9.25142 222.591 8.39915C223.981 7.53835 225.613 7.10795 227.488 7.10795C228.698 7.10795 229.84 7.30398 230.914 7.69602C231.996 8.07954 232.951 8.67614 233.777 9.4858C234.613 10.2955 235.269 11.3267 235.746 12.5795C236.223 13.8239 236.462 15.3068 236.462 17.0284V18.4474H220.367V15.3281H232.026C232.017 14.4418 231.826 13.6534 231.451 12.9631C231.076 12.2642 230.552 11.7145 229.878 11.3139C229.214 10.9134 228.438 10.7131 227.552 10.7131C226.606 10.7131 225.775 10.9432 225.059 11.4034C224.343 11.8551 223.785 12.4517 223.384 13.1932C222.992 13.9261 222.792 14.7315 222.783 15.6094V18.3324C222.783 19.4744 222.992 20.4545 223.41 21.2727C223.827 22.0824 224.411 22.7045 225.161 23.1392C225.911 23.5653 226.789 23.7784 227.794 23.7784C228.468 23.7784 229.077 23.6847 229.623 23.4972C230.168 23.3011 230.641 23.0156 231.042 22.6406C231.442 22.2656 231.745 21.8011 231.949 21.2472L236.27 21.733C235.998 22.875 235.478 23.8722 234.711 24.7244C233.952 25.5682 232.981 26.2244 231.796 26.6932C230.611 27.1534 229.256 27.3835 227.731 27.3835ZM10.9432 71.3835C8.98295 71.3835 7.29972 70.9531 5.89347 70.0923C4.49574 69.2315 3.41761 68.0426 2.65909 66.5256C1.90909 65 1.53409 63.2443 1.53409 61.2585C1.53409 59.2642 1.91761 57.5043 2.68466 55.9787C3.4517 54.4446 4.53409 53.2514 5.93182 52.3991C7.33807 51.5384 9 51.108 10.9176 51.108C12.5114 51.108 13.9219 51.402 15.1491 51.9901C16.3849 52.5696 17.3693 53.392 18.1023 54.4574C18.8352 55.5142 19.2528 56.75 19.3551 58.1648H14.9318C14.7528 57.2187 14.3267 56.4304 13.6534 55.7997C12.9886 55.1605 12.098 54.8409 10.9815 54.8409C10.0355 54.8409 9.20455 55.0966 8.48864 55.608C7.77273 56.1108 7.21449 56.8352 6.81392 57.7812C6.42188 58.7273 6.22585 59.8608 6.22585 61.1818C6.22585 62.5199 6.42188 63.6705 6.81392 64.6335C7.20597 65.5881 7.75568 66.3253 8.46307 66.8452C9.17898 67.3565 10.0185 67.6122 10.9815 67.6122C11.6634 67.6122 12.2727 67.4844 12.8097 67.2287C13.3551 66.9645 13.8111 66.5852 14.1776 66.0909C14.544 65.5966 14.7955 64.9957 14.9318 64.2884H19.3551C19.2443 65.6776 18.8352 66.9091 18.1278 67.983C17.4205 69.0483 16.4574 69.8835 15.2386 70.4886C14.0199 71.0852 12.5881 71.3835 10.9432 71.3835ZM22.4352 71V51.3636H26.9224V54.6364H27.1269C27.4849 53.5028 28.0985 52.6293 28.9679 52.0156C29.8457 51.3935 30.8471 51.0824 31.9721 51.0824C32.2278 51.0824 32.5133 51.0952 32.8287 51.1207C33.1525 51.1378 33.421 51.1676 33.634 51.2102V55.4673C33.438 55.3991 33.1269 55.3395 32.7008 55.2884C32.2832 55.2287 31.8784 55.1989 31.4863 55.1989C30.6426 55.1989 29.884 55.3821 29.2108 55.7486C28.546 56.1065 28.0218 56.6051 27.6383 57.2443C27.2548 57.8835 27.063 58.6207 27.063 59.456V71H22.4352ZM39.4627 78.3636C38.832 78.3636 38.2482 78.3125 37.7113 78.2102C37.1829 78.1165 36.761 78.0057 36.4457 77.8778L37.5195 74.2727C38.1928 74.4688 38.7937 74.5625 39.3221 74.554C39.8505 74.5455 40.315 74.3793 40.7155 74.0554C41.1246 73.7401 41.4698 73.2116 41.7511 72.4702L42.1474 71.4091L35.0266 51.3636H39.9357L44.4613 66.1932H44.6658L49.2042 51.3636H54.1261L46.2638 73.3778C45.8974 74.4176 45.4116 75.3082 44.8065 76.0497C44.2013 76.7997 43.4599 77.3707 42.582 77.7628C41.7127 78.1634 40.6729 78.3636 39.4627 78.3636ZM56.6085 78.3636V51.3636H61.1596V54.6108H61.4281C61.6667 54.1335 62.0034 53.6264 62.438 53.0895C62.8727 52.544 63.4607 52.0795 64.2022 51.696C64.9437 51.304 65.8897 51.108 67.0403 51.108C68.5573 51.108 69.9252 51.4957 71.144 52.2713C72.3713 53.0384 73.3428 54.1761 74.0588 55.6847C74.7832 57.1847 75.1454 59.0256 75.1454 61.2074C75.1454 63.3636 74.7917 65.196 74.0843 66.7045C73.3769 68.2131 72.4139 69.3636 71.1951 70.1562C69.9764 70.9489 68.5957 71.3452 67.0531 71.3452C65.9281 71.3452 64.9948 71.1577 64.2534 70.7827C63.5119 70.4077 62.9153 69.956 62.4636 69.4276C62.0204 68.8906 61.6752 68.3835 61.4281 67.9062H61.2363V78.3636H56.6085ZM61.1468 61.1818C61.1468 62.4517 61.3258 63.5639 61.6838 64.5185C62.0502 65.473 62.5744 66.2187 63.2562 66.7557C63.9465 67.2841 64.7818 67.5483 65.7619 67.5483C66.7846 67.5483 67.6411 67.2756 68.3315 66.7301C69.0218 66.1761 69.5417 65.4219 69.8911 64.4673C70.2491 63.5043 70.4281 62.4091 70.4281 61.1818C70.4281 59.9631 70.2534 58.8807 69.9039 57.9347C69.5545 56.9886 69.0346 56.2472 68.3443 55.7102C67.6539 55.1733 66.7931 54.9048 65.7619 54.9048C64.7732 54.9048 63.9338 55.1648 63.2434 55.6847C62.5531 56.2045 62.0289 56.9332 61.671 57.8707C61.3215 58.8082 61.1468 59.9119 61.1468 61.1818ZM88.1939 51.3636V54.9432H76.9055V51.3636H88.1939ZM79.6924 46.6591H84.3203V65.0938C84.3203 65.7159 84.414 66.1932 84.6015 66.5256C84.7976 66.8494 85.0532 67.071 85.3686 67.1903C85.6839 67.3097 86.0334 67.3693 86.4169 67.3693C86.7067 67.3693 86.9709 67.348 87.2095 67.3054C87.4567 67.2628 87.6442 67.2244 87.772 67.1903L88.5518 70.8082C88.3047 70.8935 87.951 70.9872 87.4907 71.0895C87.039 71.1918 86.4851 71.2514 85.8288 71.2685C84.6697 71.3026 83.6257 71.1278 82.6967 70.7443C81.7677 70.3523 81.0305 69.7472 80.4851 68.929C79.9481 68.1108 79.6839 67.0881 79.6924 65.8608V46.6591ZM99.6987 71.3835C97.781 71.3835 96.1191 70.9616 94.7129 70.1179C93.3066 69.2741 92.2157 68.0937 91.4401 66.5767C90.6731 65.0597 90.2896 63.2869 90.2896 61.2585C90.2896 59.2301 90.6731 57.4531 91.4401 55.9276C92.2157 54.402 93.3066 53.2173 94.7129 52.3736C96.1191 51.5298 97.781 51.108 99.6987 51.108C101.616 51.108 103.278 51.5298 104.684 52.3736C106.091 53.2173 107.177 54.402 107.944 55.9276C108.72 57.4531 109.108 59.2301 109.108 61.2585C109.108 63.2869 108.72 65.0597 107.944 66.5767C107.177 68.0937 106.091 69.2741 104.684 70.1179C103.278 70.9616 101.616 71.3835 99.6987 71.3835ZM99.7242 67.6761C100.764 67.6761 101.633 67.3906 102.332 66.8196C103.031 66.2401 103.551 65.4645 103.892 64.4929C104.241 63.5213 104.416 62.4389 104.416 61.2457C104.416 60.044 104.241 58.9574 103.892 57.9858C103.551 57.0057 103.031 56.2259 102.332 55.6463C101.633 55.0668 100.764 54.777 99.7242 54.777C98.6589 54.777 97.7725 55.0668 97.0651 55.6463C96.3663 56.2259 95.8421 57.0057 95.4927 57.9858C95.1518 58.9574 94.9813 60.044 94.9813 61.2457C94.9813 62.4389 95.1518 63.5213 95.4927 64.4929C95.8421 65.4645 96.3663 66.2401 97.0651 66.8196C97.7725 67.3906 98.6589 67.6761 99.7242 67.6761ZM126.176 71.3963C124.932 71.3963 123.811 71.1747 122.814 70.7315C121.825 70.2798 121.041 69.6151 120.461 68.7372C119.89 67.8594 119.605 66.777 119.605 65.4901C119.605 64.3821 119.809 63.4659 120.219 62.7415C120.628 62.017 121.186 61.4375 121.893 61.0028C122.601 60.5682 123.397 60.2401 124.284 60.0185C125.179 59.7884 126.103 59.6222 127.058 59.5199C128.209 59.4006 129.142 59.294 129.858 59.2003C130.574 59.098 131.094 58.9446 131.417 58.7401C131.75 58.527 131.916 58.1989 131.916 57.7557V57.679C131.916 56.7159 131.63 55.9702 131.059 55.4418C130.488 54.9134 129.666 54.6491 128.592 54.6491C127.459 54.6491 126.559 54.8963 125.895 55.3906C125.238 55.8849 124.795 56.4687 124.565 57.142L120.244 56.5284C120.585 55.3352 121.147 54.3381 121.932 53.5369C122.716 52.7273 123.674 52.1222 124.808 51.7216C125.942 51.3125 127.194 51.108 128.567 51.108C129.513 51.108 130.454 51.2188 131.392 51.4403C132.329 51.6619 133.186 52.0284 133.961 52.5398C134.737 53.0426 135.359 53.7287 135.828 54.598C136.305 55.4673 136.544 56.554 136.544 57.858V71H132.095V68.3026H131.942C131.66 68.848 131.264 69.3594 130.753 69.8366C130.25 70.3054 129.615 70.6847 128.848 70.9744C128.089 71.2557 127.199 71.3963 126.176 71.3963ZM127.378 67.9957C128.307 67.9957 129.112 67.8125 129.794 67.446C130.476 67.071 131 66.5767 131.366 65.9631C131.741 65.3494 131.929 64.6804 131.929 63.956V61.642C131.784 61.7614 131.537 61.8722 131.187 61.9744C130.846 62.0767 130.463 62.1662 130.037 62.2429C129.611 62.3196 129.189 62.3878 128.771 62.4474C128.353 62.5071 127.991 62.5582 127.684 62.6009C126.994 62.6946 126.376 62.848 125.831 63.0611C125.285 63.2741 124.855 63.5724 124.54 63.956C124.224 64.331 124.067 64.8168 124.067 65.4134C124.067 66.2656 124.378 66.9091 125 67.3438C125.622 67.7784 126.415 67.9957 127.378 67.9957ZM147.764 71.3452C146.222 71.3452 144.841 70.9489 143.622 70.1562C142.403 69.3636 141.44 68.2131 140.733 66.7045C140.026 65.196 139.672 63.3636 139.672 61.2074C139.672 59.0256 140.03 57.1847 140.746 55.6847C141.47 54.1761 142.446 53.0384 143.673 52.2713C144.901 51.4957 146.268 51.108 147.777 51.108C148.928 51.108 149.874 51.304 150.615 51.696C151.356 52.0795 151.945 52.544 152.379 53.0895C152.814 53.6264 153.151 54.1335 153.389 54.6108H153.581V44.8182H158.222V71H153.67V67.9062H153.389C153.151 68.3835 152.805 68.8906 152.354 69.4276C151.902 69.956 151.305 70.4077 150.564 70.7827C149.822 71.1577 148.889 71.3452 147.764 71.3452ZM149.055 67.5483C150.035 67.5483 150.871 67.2841 151.561 66.7557C152.251 66.2187 152.776 65.473 153.133 64.5185C153.491 63.5639 153.67 62.4517 153.67 61.1818C153.67 59.9119 153.491 58.8082 153.133 57.8707C152.784 56.9332 152.264 56.2045 151.574 55.6847C150.892 55.1648 150.053 54.9048 149.055 54.9048C148.024 54.9048 147.163 55.1733 146.473 55.7102C145.783 56.2472 145.263 56.9886 144.913 57.9347C144.564 58.8807 144.389 59.9631 144.389 61.1818C144.389 62.4091 144.564 63.5043 144.913 64.4673C145.271 65.4219 145.795 66.1761 146.486 66.7301C147.185 67.2756 148.041 67.5483 149.055 67.5483ZM169.72 71.3452C168.177 71.3452 166.797 70.9489 165.578 70.1562C164.359 69.3636 163.396 68.2131 162.689 66.7045C161.981 65.196 161.628 63.3636 161.628 61.2074C161.628 59.0256 161.986 57.1847 162.701 55.6847C163.426 54.1761 164.402 53.0384 165.629 52.2713C166.856 51.4957 168.224 51.108 169.733 51.108C170.883 51.108 171.829 51.304 172.571 51.696C173.312 52.0795 173.9 52.544 174.335 53.0895C174.77 53.6264 175.106 54.1335 175.345 54.6108H175.537V44.8182H180.177V71H175.626V67.9062H175.345C175.106 68.3835 174.761 68.8906 174.309 69.4276C173.858 69.956 173.261 70.4077 172.52 70.7827C171.778 71.1577 170.845 71.3452 169.72 71.3452ZM171.011 67.5483C171.991 67.5483 172.826 67.2841 173.517 66.7557C174.207 66.2187 174.731 65.473 175.089 64.5185C175.447 63.5639 175.626 62.4517 175.626 61.1818C175.626 59.9119 175.447 58.8082 175.089 57.8707C174.74 56.9332 174.22 56.2045 173.53 55.6847C172.848 55.1648 172.008 54.9048 171.011 54.9048C169.98 54.9048 169.119 55.1733 168.429 55.7102C167.738 56.2472 167.219 56.9886 166.869 57.9347C166.52 58.8807 166.345 59.9631 166.345 61.1818C166.345 62.4091 166.52 63.5043 166.869 64.4673C167.227 65.4219 167.751 66.1761 168.442 66.7301C169.14 67.2756 169.997 67.5483 171.011 67.5483ZM184.389 71V51.3636H188.876V54.6364H189.081C189.438 53.5028 190.052 52.6293 190.921 52.0156C191.799 51.3935 192.801 51.0824 193.926 51.0824C194.181 51.0824 194.467 51.0952 194.782 51.1207C195.106 51.1378 195.375 51.1676 195.588 51.2102V55.4673C195.392 55.3991 195.081 55.3395 194.654 55.2884C194.237 55.2287 193.832 55.1989 193.44 55.1989C192.596 55.1989 191.838 55.3821 191.164 55.7486C190.5 56.1065 189.975 56.6051 189.592 57.2443C189.208 57.8835 189.017 58.6207 189.017 59.456V71H184.389ZM205.827 71.3835C203.858 71.3835 202.158 70.9744 200.726 70.1562C199.303 69.3295 198.207 68.1619 197.44 66.6534C196.673 65.1364 196.29 63.3509 196.29 61.2969C196.29 59.277 196.673 57.5043 197.44 55.9787C198.216 54.4446 199.298 53.2514 200.688 52.3991C202.077 51.5384 203.709 51.108 205.584 51.108C206.794 51.108 207.936 51.304 209.01 51.696C210.092 52.0795 211.047 52.6761 211.874 53.4858C212.709 54.2955 213.365 55.3267 213.842 56.5795C214.32 57.8239 214.558 59.3068 214.558 61.0284V62.4474H198.463V59.3281H210.122C210.114 58.4418 209.922 57.6534 209.547 56.9631C209.172 56.2642 208.648 55.7145 207.975 55.3139C207.31 54.9134 206.534 54.7131 205.648 54.7131C204.702 54.7131 203.871 54.9432 203.155 55.4034C202.439 55.8551 201.881 56.4517 201.48 57.1932C201.088 57.9261 200.888 58.7315 200.879 59.6094V62.3324C200.879 63.4744 201.088 64.4545 201.506 65.2727C201.923 66.0824 202.507 66.7045 203.257 67.1392C204.007 67.5653 204.885 67.7784 205.891 67.7784C206.564 67.7784 207.173 67.6847 207.719 67.4972C208.264 67.3011 208.737 67.0156 209.138 66.6406C209.538 66.2656 209.841 65.8011 210.046 65.2472L214.367 65.733C214.094 66.875 213.574 67.8722 212.807 68.7244C212.048 69.5682 211.077 70.2244 209.892 70.6932C208.707 71.1534 207.352 71.3835 205.827 71.3835ZM233.273 56.554L229.055 57.0142C228.935 56.5881 228.726 56.1875 228.428 55.8125C228.138 55.4375 227.746 55.1349 227.252 54.9048C226.758 54.6747 226.153 54.5597 225.437 54.5597C224.474 54.5597 223.664 54.7685 223.008 55.1861C222.36 55.6037 222.04 56.1449 222.049 56.8097C222.04 57.3807 222.249 57.8452 222.675 58.2031C223.11 58.5611 223.826 58.8551 224.823 59.0852L228.173 59.8011C230.03 60.2017 231.411 60.8366 232.315 61.706C233.226 62.5753 233.687 63.7131 233.695 65.1193C233.687 66.3551 233.324 67.446 232.609 68.392C231.901 69.3295 230.917 70.0625 229.655 70.5909C228.394 71.1193 226.945 71.3835 225.309 71.3835C222.905 71.3835 220.971 70.8807 219.505 69.875C218.039 68.8608 217.165 67.4503 216.884 65.6435L221.397 65.2088C221.601 66.0952 222.036 66.7642 222.701 67.2159C223.366 67.6676 224.231 67.8935 225.296 67.8935C226.396 67.8935 227.278 67.6676 227.942 67.2159C228.616 66.7642 228.952 66.206 228.952 65.5412C228.952 64.9787 228.735 64.5142 228.3 64.1477C227.874 63.7812 227.209 63.5 226.306 63.304L222.957 62.6009C221.073 62.2088 219.68 61.5483 218.776 60.6193C217.873 59.6818 217.425 58.4972 217.434 57.0653C217.425 55.8551 217.753 54.8068 218.418 53.9205C219.092 53.0256 220.025 52.3352 221.218 51.8494C222.42 51.3551 223.805 51.108 225.373 51.108C227.674 51.108 229.485 51.598 230.806 52.5781C232.136 53.5582 232.958 54.8835 233.273 56.554ZM252.311 56.554L248.092 57.0142C247.973 56.5881 247.764 56.1875 247.466 55.8125C247.176 55.4375 246.784 55.1349 246.29 54.9048C245.796 54.6747 245.19 54.5597 244.475 54.5597C243.511 54.5597 242.702 54.7685 242.046 55.1861C241.398 55.6037 241.078 56.1449 241.087 56.8097C241.078 57.3807 241.287 57.8452 241.713 58.2031C242.148 58.5611 242.864 58.8551 243.861 59.0852L247.21 59.8011C249.068 60.2017 250.449 60.8366 251.352 61.706C252.264 62.5753 252.725 63.7131 252.733 65.1193C252.725 66.3551 252.362 67.446 251.646 68.392C250.939 69.3295 249.955 70.0625 248.693 70.5909C247.432 71.1193 245.983 71.3835 244.347 71.3835C241.943 71.3835 240.009 70.8807 238.543 69.875C237.077 68.8608 236.203 67.4503 235.922 65.6435L240.435 65.2088C240.639 66.0952 241.074 66.7642 241.739 67.2159C242.403 67.6676 243.269 67.8935 244.334 67.8935C245.433 67.8935 246.315 67.6676 246.98 67.2159C247.653 66.7642 247.99 66.206 247.99 65.5412C247.99 64.9787 247.773 64.5142 247.338 64.1477C246.912 63.7812 246.247 63.5 245.344 63.304L241.994 62.6009C240.111 62.2088 238.717 61.5483 237.814 60.6193C236.911 59.6818 236.463 58.4972 236.472 57.0653C236.463 55.8551 236.791 54.8068 237.456 53.9205C238.129 53.0256 239.063 52.3352 240.256 51.8494C241.457 51.3551 242.842 51.108 244.411 51.108C246.712 51.108 248.523 51.598 249.844 52.5781C251.173 53.5582 251.996 54.8835 252.311 56.554ZM264.522 71.3835C262.554 71.3835 260.853 70.9744 259.421 70.1562C257.998 69.3295 256.903 68.1619 256.136 66.6534C255.369 65.1364 254.985 63.3509 254.985 61.2969C254.985 59.277 255.369 57.5043 256.136 55.9787C256.911 54.4446 257.994 53.2514 259.383 52.3991C260.772 51.5384 262.404 51.108 264.279 51.108C265.49 51.108 266.632 51.304 267.706 51.696C268.788 52.0795 269.742 52.6761 270.569 53.4858C271.404 54.2955 272.061 55.3267 272.538 56.5795C273.015 57.8239 273.254 59.3068 273.254 61.0284V62.4474H257.159V59.3281H268.818C268.809 58.4418 268.617 57.6534 268.242 56.9631C267.867 56.2642 267.343 55.7145 266.67 55.3139C266.005 54.9134 265.23 54.7131 264.343 54.7131C263.397 54.7131 262.566 54.9432 261.85 55.4034C261.134 55.8551 260.576 56.4517 260.176 57.1932C259.784 57.9261 259.583 58.7315 259.575 59.6094V62.3324C259.575 63.4744 259.784 64.4545 260.201 65.2727C260.619 66.0824 261.203 66.7045 261.953 67.1392C262.703 67.5653 263.581 67.7784 264.586 67.7784C265.259 67.7784 265.869 67.6847 266.414 67.4972C266.96 67.3011 267.433 67.0156 267.833 66.6406C268.234 66.2656 268.536 65.8011 268.741 65.2472L273.062 65.733C272.789 66.875 272.269 67.8722 271.502 68.7244C270.744 69.5682 269.772 70.2244 268.588 70.6932C267.403 71.1534 266.048 71.3835 264.522 71.3835ZM291.969 56.554L287.75 57.0142C287.631 56.5881 287.422 56.1875 287.124 55.8125C286.834 55.4375 286.442 55.1349 285.948 54.9048C285.453 54.6747 284.848 54.5597 284.132 54.5597C283.169 54.5597 282.359 54.7685 281.703 55.1861C281.055 55.6037 280.736 56.1449 280.744 56.8097C280.736 57.3807 280.945 57.8452 281.371 58.2031C281.805 58.5611 282.521 58.8551 283.519 59.0852L286.868 59.8011C288.726 60.2017 290.107 60.8366 291.01 61.706C291.922 62.5753 292.382 63.7131 292.391 65.1193C292.382 66.3551 292.02 67.446 291.304 68.392C290.597 69.3295 289.612 70.0625 288.351 70.5909C287.09 71.1193 285.641 71.3835 284.004 71.3835C281.601 71.3835 279.666 70.8807 278.2 69.875C276.734 68.8608 275.861 67.4503 275.58 65.6435L280.092 65.2088C280.297 66.0952 280.732 66.7642 281.396 67.2159C282.061 67.6676 282.926 67.8935 283.992 67.8935C285.091 67.8935 285.973 67.6676 286.638 67.2159C287.311 66.7642 287.648 66.206 287.648 65.5412C287.648 64.9787 287.43 64.5142 286.996 64.1477C286.57 63.7812 285.905 63.5 285.002 63.304L281.652 62.6009C279.769 62.2088 278.375 61.5483 277.472 60.6193C276.568 59.6818 276.121 58.4972 276.129 57.0653C276.121 55.8551 276.449 54.8068 277.114 53.9205C277.787 53.0256 278.72 52.3352 279.913 51.8494C281.115 51.3551 282.5 51.108 284.068 51.108C286.369 51.108 288.18 51.598 289.502 52.5781C290.831 53.5582 291.653 54.8835 291.969 56.554ZM12.3239 95.3636V98.9432H0.715909V95.3636H12.3239ZM3.6179 115V93.5099C3.6179 92.1889 3.89063 91.0895 4.43608 90.2116C4.99006 89.3338 5.73153 88.6776 6.66051 88.2429C7.58949 87.8082 8.62074 87.5909 9.75426 87.5909C10.5554 87.5909 11.267 87.6548 11.8892 87.7827C12.5114 87.9105 12.9716 88.0256 13.2699 88.1278L12.3494 91.7074C12.1534 91.6477 11.9062 91.5881 11.608 91.5284C11.3097 91.4602 10.9773 91.4261 10.6108 91.4261C9.75 91.4261 9.14063 91.6349 8.78267 92.0526C8.43324 92.4616 8.25852 93.0497 8.25852 93.8168V115H3.6179ZM15.2282 115V95.3636H19.7154V98.6364H19.9199C20.2779 97.5028 20.8915 96.6293 21.7608 96.0156C22.6387 95.3935 23.6401 95.0824 24.7651 95.0824C25.0208 95.0824 25.3063 95.0952 25.6216 95.1207C25.9455 95.1378 26.2139 95.1676 26.427 95.2102V99.4673C26.231 99.3991 25.9199 99.3395 25.4938 99.2884C25.0762 99.2287 24.6713 99.1989 24.2793 99.1989C23.4355 99.1989 22.677 99.3821 22.0037 99.7486C21.3389 100.107 20.8148 100.605 20.4313 101.244C20.0478 101.884 19.856 102.621 19.856 103.456V115H15.2282ZM36.5383 115.384C34.6207 115.384 32.9588 114.962 31.5525 114.118C30.1463 113.274 29.0554 112.094 28.2798 110.577C27.5128 109.06 27.1292 107.287 27.1292 105.259C27.1292 103.23 27.5128 101.453 28.2798 99.9276C29.0554 98.402 30.1463 97.2173 31.5525 96.3736C32.9588 95.5298 34.6207 95.108 36.5383 95.108C38.456 95.108 40.1179 95.5298 41.5241 96.3736C42.9304 97.2173 44.017 98.402 44.7841 99.9276C45.5596 101.453 45.9474 103.23 45.9474 105.259C45.9474 107.287 45.5596 109.06 44.7841 110.577C44.017 112.094 42.9304 113.274 41.5241 114.118C40.1179 114.962 38.456 115.384 36.5383 115.384ZM36.5639 111.676C37.6037 111.676 38.473 111.391 39.1719 110.82C39.8707 110.24 40.3906 109.464 40.7315 108.493C41.081 107.521 41.2557 106.439 41.2557 105.246C41.2557 104.044 41.081 102.957 40.7315 101.986C40.3906 101.006 39.8707 100.226 39.1719 99.6463C38.473 99.0668 37.6037 98.777 36.5639 98.777C35.4986 98.777 34.6122 99.0668 33.9048 99.6463C33.206 100.226 32.6818 101.006 32.3324 101.986C31.9915 102.957 31.821 104.044 31.821 105.246C31.821 106.439 31.9915 107.521 32.3324 108.493C32.6818 109.464 33.206 110.24 33.9048 110.82C34.6122 111.391 35.4986 111.676 36.5639 111.676ZM49.1553 115V95.3636H53.5786V98.7003H53.8088C54.2178 97.5753 54.8954 96.6974 55.8414 96.0668C56.7874 95.4276 57.9167 95.108 59.2292 95.108C60.5588 95.108 61.6795 95.4318 62.5914 96.0795C63.5119 96.7187 64.1596 97.5923 64.5346 98.7003H64.7391C65.1738 97.6094 65.9068 96.7401 66.938 96.0923C67.9778 95.4361 69.2093 95.108 70.6326 95.108C72.4394 95.108 73.9139 95.679 75.0559 96.821C76.198 97.9631 76.769 99.6293 76.769 101.82V115H72.1284V102.536C72.1284 101.317 71.8045 100.426 71.1568 99.8636C70.509 99.2926 69.7164 99.0071 68.7789 99.0071C67.6624 99.0071 66.7889 99.3565 66.1582 100.055C65.536 100.746 65.2249 101.645 65.2249 102.753V115H60.6866V102.344C60.6866 101.33 60.3798 100.52 59.7661 99.9148C59.161 99.3097 58.3684 99.0071 57.3883 99.0071C56.7235 99.0071 56.1184 99.1776 55.573 99.5185C55.0275 99.8509 54.5928 100.324 54.269 100.938C53.9451 101.543 53.7832 102.25 53.7832 103.06V115H49.1553ZM93.5815 103.494V115H88.9536V88.8182H93.4792V98.7003H93.7093C94.1695 97.5923 94.8812 96.7187 95.8442 96.0795C96.8158 95.4318 98.0516 95.108 99.5516 95.108C100.915 95.108 102.104 95.3935 103.118 95.9645C104.133 96.5355 104.917 97.3707 105.471 98.4702C106.033 99.5696 106.314 100.912 106.314 102.497V115H101.687V103.213C101.687 101.892 101.346 100.865 100.664 100.132C99.9906 99.3906 99.0445 99.0199 97.8258 99.0199C97.0076 99.0199 96.2746 99.1989 95.6269 99.5568C94.9877 99.9062 94.4849 100.413 94.1184 101.078C93.7604 101.743 93.5815 102.548 93.5815 103.494ZM119.005 115.384C117.036 115.384 115.336 114.974 113.904 114.156C112.481 113.33 111.386 112.162 110.619 110.653C109.852 109.136 109.468 107.351 109.468 105.297C109.468 103.277 109.852 101.504 110.619 99.9787C111.394 98.4446 112.477 97.2514 113.866 96.3991C115.255 95.5384 116.887 95.108 118.762 95.108C119.972 95.108 121.114 95.304 122.188 95.696C123.271 96.0795 124.225 96.6761 125.052 97.4858C125.887 98.2955 126.543 99.3267 127.021 100.58C127.498 101.824 127.736 103.307 127.736 105.028V106.447H111.641V103.328H123.3C123.292 102.442 123.1 101.653 122.725 100.963C122.35 100.264 121.826 99.7145 121.153 99.3139C120.488 98.9134 119.712 98.7131 118.826 98.7131C117.88 98.7131 117.049 98.9432 116.333 99.4034C115.617 99.8551 115.059 100.452 114.658 101.193C114.266 101.926 114.066 102.732 114.057 103.609V106.332C114.057 107.474 114.266 108.455 114.684 109.273C115.102 110.082 115.685 110.705 116.435 111.139C117.185 111.565 118.063 111.778 119.069 111.778C119.742 111.778 120.352 111.685 120.897 111.497C121.442 111.301 121.915 111.016 122.316 110.641C122.717 110.266 123.019 109.801 123.224 109.247L127.545 109.733C127.272 110.875 126.752 111.872 125.985 112.724C125.227 113.568 124.255 114.224 123.07 114.693C121.886 115.153 120.53 115.384 119.005 115.384ZM130.932 115V95.3636H135.419V98.6364H135.623C135.981 97.5028 136.595 96.6293 137.464 96.0156C138.342 95.3935 139.344 95.0824 140.469 95.0824C140.724 95.0824 141.01 95.0952 141.325 95.1207C141.649 95.1378 141.917 95.1676 142.13 95.2102V99.4673C141.934 99.3991 141.623 99.3395 141.197 99.2884C140.78 99.2287 140.375 99.1989 139.983 99.1989C139.139 99.1989 138.38 99.3821 137.707 99.7486C137.042 100.107 136.518 100.605 136.135 101.244C135.751 101.884 135.559 102.621 135.559 103.456V115H130.932ZM152.37 115.384C150.401 115.384 148.701 114.974 147.269 114.156C145.845 113.33 144.75 112.162 143.983 110.653C143.216 109.136 142.833 107.351 142.833 105.297C142.833 103.277 143.216 101.504 143.983 99.9787C144.759 98.4446 145.841 97.2514 147.23 96.3991C148.62 95.5384 150.252 95.108 152.127 95.108C153.337 95.108 154.479 95.304 155.553 95.696C156.635 96.0795 157.59 96.6761 158.416 97.4858C159.252 98.2955 159.908 99.3267 160.385 100.58C160.863 101.824 161.101 103.307 161.101 105.028V106.447H145.006V103.328H156.665C156.657 102.442 156.465 101.653 156.09 100.963C155.715 100.264 155.191 99.7145 154.517 99.3139C153.853 98.9134 153.077 98.7131 152.191 98.7131C151.245 98.7131 150.414 98.9432 149.698 99.4034C148.982 99.8551 148.424 100.452 148.023 101.193C147.631 101.926 147.431 102.732 147.422 103.609V106.332C147.422 107.474 147.631 108.455 148.049 109.273C148.466 110.082 149.05 110.705 149.8 111.139C150.55 111.565 151.428 111.778 152.434 111.778C153.107 111.778 153.716 111.685 154.262 111.497C154.807 111.301 155.28 111.016 155.681 110.641C156.081 110.266 156.384 109.801 156.588 109.247L160.909 109.733C160.637 110.875 160.117 111.872 159.35 112.724C158.591 113.568 157.62 114.224 156.435 114.693C155.25 115.153 153.895 115.384 152.37 115.384Z"
            fill="white"
          />
          <path
            d="M2.58239 27V0.818181H7.32528V23.0241H18.8565V27H2.58239ZM30.7416 27.3835C28.7729 27.3835 27.0726 26.9744 25.6408 26.1562C24.2175 25.3295 23.1223 24.1619 22.3553 22.6534C21.5882 21.1364 21.2047 19.3509 21.2047 17.2969C21.2047 15.277 21.5882 13.5043 22.3553 11.9787C23.1309 10.4446 24.2132 9.25142 25.6024 8.39915C26.9916 7.53835 28.6238 7.10795 30.4988 7.10795C31.709 7.10795 32.851 7.30398 33.9249 7.69602C35.0073 8.07954 35.9618 8.67614 36.7885 9.4858C37.6238 10.2955 38.28 11.3267 38.7573 12.5795C39.2345 13.8239 39.4732 15.3068 39.4732 17.0284V18.4474H23.378V15.3281H35.0371C35.0286 14.4418 34.8368 13.6534 34.4618 12.9631C34.0868 12.2642 33.5627 11.7145 32.8894 11.3139C32.2246 10.9134 31.449 10.7131 30.5627 10.7131C29.6166 10.7131 28.7857 10.9432 28.0698 11.4034C27.3539 11.8551 26.7956 12.4517 26.3951 13.1932C26.003 13.9261 25.8027 14.7315 25.7942 15.6094V18.3324C25.7942 19.4744 26.003 20.4545 26.4206 21.2727C26.8382 22.0824 27.422 22.7045 28.172 23.1392C28.922 23.5653 29.7999 23.7784 30.8056 23.7784C31.4789 23.7784 32.0882 23.6847 32.6337 23.4972C33.1791 23.3011 33.6522 23.0156 34.0527 22.6406C34.4533 22.2656 34.7559 21.8011 34.9604 21.2472L39.2814 21.733C39.0087 22.875 38.4888 23.8722 37.7218 24.7244C36.9632 25.5682 35.9916 26.2244 34.807 26.6932C33.6223 27.1534 32.2672 27.3835 30.7416 27.3835ZM52.4737 7.36364V10.9432H41.1854V7.36364H52.4737ZM43.9723 2.65909H48.6001V21.0938C48.6001 21.7159 48.6939 22.1932 48.8814 22.5256C49.0774 22.8494 49.3331 23.071 49.6484 23.1903C49.9638 23.3097 50.3132 23.3693 50.6967 23.3693C50.9865 23.3693 51.2507 23.348 51.4893 23.3054C51.7365 23.2628 51.924 23.2244 52.0518 23.1903L52.8317 26.8082C52.5845 26.8935 52.2308 26.9872 51.7706 27.0895C51.3189 27.1918 50.7649 27.2514 50.1087 27.2685C48.9496 27.3026 47.9055 27.1278 46.9765 26.7443C46.0476 26.3523 45.3104 25.7472 44.7649 24.929C44.228 24.1108 43.9638 23.0881 43.9723 21.8608V2.65909ZM58.8201 0.818181V10.4574H55.2917V0.818181H58.8201ZM78.088 12.554L73.8693 13.0142C73.75 12.5881 73.5412 12.1875 73.2429 11.8125C72.9531 11.4375 72.5611 11.1349 72.0667 10.9048C71.5724 10.6747 70.9673 10.5597 70.2514 10.5597C69.2883 10.5597 68.4787 10.7685 67.8224 11.1861C67.1747 11.6037 66.8551 12.1449 66.8636 12.8097C66.8551 13.3807 67.0639 13.8452 67.49 14.2031C67.9247 14.5611 68.6406 14.8551 69.6378 15.0852L72.9872 15.8011C74.8451 16.2017 76.2258 16.8366 77.1292 17.706C78.0412 18.5753 78.5014 19.7131 78.5099 21.1193C78.5014 22.3551 78.1392 23.446 77.4233 24.392C76.7159 25.3295 75.7315 26.0625 74.4701 26.5909C73.2088 27.1193 71.7599 27.3835 70.1236 27.3835C67.7201 27.3835 65.7855 26.8807 64.3196 25.875C62.8537 24.8608 61.9801 23.4503 61.6988 21.6435L66.2116 21.2088C66.4162 22.0952 66.8508 22.7642 67.5156 23.2159C68.1804 23.6676 69.0454 23.8935 70.1108 23.8935C71.2102 23.8935 72.0923 23.6676 72.7571 23.2159C73.4304 22.7642 73.767 22.206 73.767 21.5412C73.767 20.9787 73.5497 20.5142 73.115 20.1477C72.6889 19.7812 72.0241 19.5 71.1207 19.304L67.7713 18.6009C65.8878 18.2088 64.4943 17.5483 63.5909 16.6193C62.6875 15.6818 62.24 14.4972 62.2486 13.0653C62.24 11.8551 62.5682 10.8068 63.2329 9.92045C63.9062 9.02557 64.8395 8.33523 66.0326 7.84943C67.2343 7.35511 68.6193 7.10795 70.1875 7.10795C72.4886 7.10795 74.2997 7.59801 75.6207 8.57812C76.9503 9.55824 77.7727 10.8835 78.088 12.554ZM95.4662 27.3963C94.2219 27.3963 93.1012 27.1747 92.104 26.7315C91.1154 26.2798 90.3313 25.6151 89.7517 24.7372C89.1807 23.8594 88.8952 22.777 88.8952 21.4901C88.8952 20.3821 89.0997 19.4659 89.5088 18.7415C89.9179 18.017 90.4762 17.4375 91.1836 17.0028C91.8909 16.5682 92.6878 16.2401 93.5742 16.0185C94.4691 15.7884 95.3938 15.6222 96.3483 15.5199C97.4989 15.4006 98.4321 15.294 99.148 15.2003C99.8639 15.098 100.384 14.9446 100.708 14.7401C101.04 14.527 101.206 14.1989 101.206 13.7557V13.679C101.206 12.7159 100.921 11.9702 100.35 11.4418C99.7787 10.9134 98.9563 10.6491 97.8824 10.6491C96.7489 10.6491 95.8497 10.8963 95.185 11.3906C94.5287 11.8849 94.0855 12.4687 93.8554 13.142L89.5344 12.5284C89.8753 11.3352 90.4378 10.3381 91.2219 9.53693C92.006 8.72727 92.9648 8.12216 94.0983 7.72159C95.2318 7.3125 96.4847 7.10795 97.8568 7.10795C98.8029 7.10795 99.7446 7.21875 100.682 7.44034C101.62 7.66193 102.476 8.02841 103.252 8.53977C104.027 9.04261 104.649 9.72869 105.118 10.598C105.595 11.4673 105.834 12.554 105.834 13.858V27H101.385V24.3026H101.232C100.951 24.848 100.554 25.3594 100.043 25.8366C99.5401 26.3054 98.9051 26.6847 98.1381 26.9744C97.3796 27.2557 96.4889 27.3963 95.4662 27.3963ZM96.6679 23.9957C97.5969 23.9957 98.4023 23.8125 99.0841 23.446C99.7659 23.071 100.29 22.5767 100.657 21.9631C101.032 21.3494 101.219 20.6804 101.219 19.956V17.642C101.074 17.7614 100.827 17.8722 100.478 17.9744C100.137 18.0767 99.7532 18.1662 99.327 18.2429C98.9009 18.3196 98.479 18.3878 98.0614 18.4474C97.6438 18.5071 97.2816 18.5582 96.9747 18.6009C96.2844 18.6946 95.6665 18.848 95.1211 19.0611C94.5756 19.2741 94.1452 19.5724 93.8299 19.956C93.5145 20.331 93.3568 20.8168 93.3568 21.4134C93.3568 22.2656 93.6679 22.9091 94.2901 23.3438C94.9122 23.7784 95.7049 23.9957 96.6679 23.9957ZM114.395 15.4943V27H109.768V7.36364H114.191V10.7003H114.421C114.873 9.60085 115.593 8.72727 116.581 8.07955C117.579 7.43182 118.81 7.10795 120.276 7.10795C121.631 7.10795 122.812 7.39773 123.817 7.97727C124.831 8.55682 125.616 9.39631 126.17 10.4957C126.732 11.5952 127.009 12.929 127 14.4972V27H122.373V15.2131C122.373 13.9006 122.032 12.8736 121.35 12.1321C120.677 11.3906 119.743 11.0199 118.55 11.0199C117.741 11.0199 117.02 11.1989 116.39 11.5568C115.768 11.9062 115.277 12.4134 114.92 13.0781C114.57 13.7429 114.395 14.5483 114.395 15.4943ZM135.613 15.4943V27H130.985V7.36364H135.408V10.7003H135.638C136.09 9.60085 136.81 8.72727 137.799 8.07955C138.796 7.43182 140.028 7.10795 141.494 7.10795C142.849 7.10795 144.029 7.39773 145.035 7.97727C146.049 8.55682 146.833 9.39631 147.387 10.4957C147.95 11.5952 148.227 12.929 148.218 14.4972V27H143.59V15.2131C143.59 13.9006 143.249 12.8736 142.567 12.1321C141.894 11.3906 140.961 11.0199 139.768 11.0199C138.958 11.0199 138.238 11.1989 137.607 11.5568C136.985 11.9062 136.495 12.4134 136.137 13.0781C135.788 13.7429 135.613 14.5483 135.613 15.4943ZM160.768 27.3835C158.85 27.3835 157.188 26.9616 155.782 26.1179C154.376 25.2741 153.285 24.0937 152.509 22.5767C151.742 21.0597 151.359 19.2869 151.359 17.2585C151.359 15.2301 151.742 13.4531 152.509 11.9276C153.285 10.402 154.376 9.21733 155.782 8.37358C157.188 7.52983 158.85 7.10795 160.768 7.10795C162.685 7.10795 164.347 7.52983 165.754 8.37358C167.16 9.21733 168.247 10.402 169.014 11.9276C169.789 13.4531 170.177 15.2301 170.177 17.2585C170.177 19.2869 169.789 21.0597 169.014 22.5767C168.247 24.0937 167.16 25.2741 165.754 26.1179C164.347 26.9616 162.685 27.3835 160.768 27.3835ZM160.793 23.6761C161.833 23.6761 162.703 23.3906 163.401 22.8196C164.1 22.2401 164.62 21.4645 164.961 20.4929C165.31 19.5213 165.485 18.4389 165.485 17.2457C165.485 16.044 165.31 14.9574 164.961 13.9858C164.62 13.0057 164.1 12.2259 163.401 11.6463C162.703 11.0668 161.833 10.777 160.793 10.777C159.728 10.777 158.842 11.0668 158.134 11.6463C157.435 12.2259 156.911 13.0057 156.562 13.9858C156.221 14.9574 156.051 16.044 156.051 17.2457C156.051 18.4389 156.221 19.5213 156.562 20.4929C156.911 21.4645 157.435 22.2401 158.134 22.8196C158.842 23.3906 159.728 23.6761 160.793 23.6761ZM183.19 7.36364V10.9432H171.902V7.36364H183.19ZM174.689 2.65909H179.317V21.0938C179.317 21.7159 179.41 22.1932 179.598 22.5256C179.794 22.8494 180.05 23.071 180.365 23.1903C180.68 23.3097 181.03 23.3693 181.413 23.3693C181.703 23.3693 181.967 23.348 182.206 23.3054C182.453 23.2628 182.641 23.2244 182.768 23.1903L183.548 26.8082C183.301 26.8935 182.947 26.9872 182.487 27.0895C182.035 27.1918 181.481 27.2514 180.825 27.2685C179.666 27.3026 178.622 27.1278 177.693 26.7443C176.764 26.3523 176.027 25.7472 175.481 24.929C174.945 24.1108 174.68 23.0881 174.689 21.8608V2.65909ZM191.991 27.3963C190.747 27.3963 189.626 27.1747 188.629 26.7315C187.64 26.2798 186.856 25.6151 186.277 24.7372C185.706 23.8594 185.42 22.777 185.42 21.4901C185.42 20.3821 185.625 19.4659 186.034 18.7415C186.443 18.017 187.001 17.4375 187.709 17.0028C188.416 16.5682 189.213 16.2401 190.099 16.0185C190.994 15.7884 191.919 15.6222 192.873 15.5199C194.024 15.4006 194.957 15.294 195.673 15.2003C196.389 15.098 196.909 14.9446 197.233 14.7401C197.565 14.527 197.731 14.1989 197.731 13.7557V13.679C197.731 12.7159 197.446 11.9702 196.875 11.4418C196.304 10.9134 195.481 10.6491 194.407 10.6491C193.274 10.6491 192.375 10.8963 191.71 11.3906C191.054 11.8849 190.611 12.4687 190.38 13.142L186.059 12.5284C186.4 11.3352 186.963 10.3381 187.747 9.53693C188.531 8.72727 189.49 8.12216 190.623 7.72159C191.757 7.3125 193.01 7.10795 194.382 7.10795C195.328 7.10795 196.27 7.21875 197.207 7.44034C198.145 7.66193 199.001 8.02841 199.777 8.53977C200.552 9.04261 201.174 9.72869 201.643 10.598C202.12 11.4673 202.359 12.554 202.359 13.858V27H197.91V24.3026H197.757C197.476 24.848 197.079 25.3594 196.568 25.8366C196.065 26.3054 195.43 26.6847 194.663 26.9744C193.905 27.2557 193.014 27.3963 191.991 27.3963ZM193.193 23.9957C194.122 23.9957 194.927 23.8125 195.609 23.446C196.291 23.071 196.815 22.5767 197.182 21.9631C197.557 21.3494 197.744 20.6804 197.744 19.956V17.642C197.599 17.7614 197.352 17.8722 197.003 17.9744C196.662 18.0767 196.278 18.1662 195.852 18.2429C195.426 18.3196 195.004 18.3878 194.586 18.4474C194.169 18.5071 193.807 18.5582 193.5 18.6009C192.809 18.6946 192.192 18.848 191.646 19.0611C191.101 19.2741 190.67 19.5724 190.355 19.956C190.04 20.331 189.882 20.8168 189.882 21.4134C189.882 22.2656 190.193 22.9091 190.815 23.3438C191.437 23.7784 192.23 23.9957 193.193 23.9957ZM216.098 7.36364V10.9432H204.81V7.36364H216.098ZM207.597 2.65909H212.224V21.0938C212.224 21.7159 212.318 22.1932 212.506 22.5256C212.702 22.8494 212.957 23.071 213.273 23.1903C213.588 23.3097 213.937 23.3693 214.321 23.3693C214.611 23.3693 214.875 23.348 215.114 23.3054C215.361 23.2628 215.548 23.2244 215.676 23.1903L216.456 26.8082C216.209 26.8935 215.855 26.9872 215.395 27.0895C214.943 27.1918 214.389 27.2514 213.733 27.2685C212.574 27.3026 211.53 27.1278 210.601 26.7443C209.672 26.3523 208.935 25.7472 208.389 24.929C207.852 24.1108 207.588 23.0881 207.597 21.8608V2.65909ZM227.731 27.3835C225.762 27.3835 224.062 26.9744 222.63 26.1562C221.206 25.3295 220.111 24.1619 219.344 22.6534C218.577 21.1364 218.194 19.3509 218.194 17.2969C218.194 15.277 218.577 13.5043 219.344 11.9787C220.12 10.4446 221.202 9.25142 222.591 8.39915C223.981 7.53835 225.613 7.10795 227.488 7.10795C228.698 7.10795 229.84 7.30398 230.914 7.69602C231.996 8.07954 232.951 8.67614 233.777 9.4858C234.613 10.2955 235.269 11.3267 235.746 12.5795C236.223 13.8239 236.462 15.3068 236.462 17.0284V18.4474H220.367V15.3281H232.026C232.017 14.4418 231.826 13.6534 231.451 12.9631C231.076 12.2642 230.552 11.7145 229.878 11.3139C229.214 10.9134 228.438 10.7131 227.552 10.7131C226.606 10.7131 225.775 10.9432 225.059 11.4034C224.343 11.8551 223.785 12.4517 223.384 13.1932C222.992 13.9261 222.792 14.7315 222.783 15.6094V18.3324C222.783 19.4744 222.992 20.4545 223.41 21.2727C223.827 22.0824 224.411 22.7045 225.161 23.1392C225.911 23.5653 226.789 23.7784 227.794 23.7784C228.468 23.7784 229.077 23.6847 229.623 23.4972C230.168 23.3011 230.641 23.0156 231.042 22.6406C231.442 22.2656 231.745 21.8011 231.949 21.2472L236.27 21.733C235.998 22.875 235.478 23.8722 234.711 24.7244C233.952 25.5682 232.981 26.2244 231.796 26.6932C230.611 27.1534 229.256 27.3835 227.731 27.3835ZM10.9432 71.3835C8.98295 71.3835 7.29972 70.9531 5.89347 70.0923C4.49574 69.2315 3.41761 68.0426 2.65909 66.5256C1.90909 65 1.53409 63.2443 1.53409 61.2585C1.53409 59.2642 1.91761 57.5043 2.68466 55.9787C3.4517 54.4446 4.53409 53.2514 5.93182 52.3991C7.33807 51.5384 9 51.108 10.9176 51.108C12.5114 51.108 13.9219 51.402 15.1491 51.9901C16.3849 52.5696 17.3693 53.392 18.1023 54.4574C18.8352 55.5142 19.2528 56.75 19.3551 58.1648H14.9318C14.7528 57.2187 14.3267 56.4304 13.6534 55.7997C12.9886 55.1605 12.098 54.8409 10.9815 54.8409C10.0355 54.8409 9.20455 55.0966 8.48864 55.608C7.77273 56.1108 7.21449 56.8352 6.81392 57.7812C6.42188 58.7273 6.22585 59.8608 6.22585 61.1818C6.22585 62.5199 6.42188 63.6705 6.81392 64.6335C7.20597 65.5881 7.75568 66.3253 8.46307 66.8452C9.17898 67.3565 10.0185 67.6122 10.9815 67.6122C11.6634 67.6122 12.2727 67.4844 12.8097 67.2287C13.3551 66.9645 13.8111 66.5852 14.1776 66.0909C14.544 65.5966 14.7955 64.9957 14.9318 64.2884H19.3551C19.2443 65.6776 18.8352 66.9091 18.1278 67.983C17.4205 69.0483 16.4574 69.8835 15.2386 70.4886C14.0199 71.0852 12.5881 71.3835 10.9432 71.3835ZM22.4352 71V51.3636H26.9224V54.6364H27.1269C27.4849 53.5028 28.0985 52.6293 28.9679 52.0156C29.8457 51.3935 30.8471 51.0824 31.9721 51.0824C32.2278 51.0824 32.5133 51.0952 32.8287 51.1207C33.1525 51.1378 33.421 51.1676 33.634 51.2102V55.4673C33.438 55.3991 33.1269 55.3395 32.7008 55.2884C32.2832 55.2287 31.8784 55.1989 31.4863 55.1989C30.6426 55.1989 29.884 55.3821 29.2108 55.7486C28.546 56.1065 28.0218 56.6051 27.6383 57.2443C27.2548 57.8835 27.063 58.6207 27.063 59.456V71H22.4352ZM39.4627 78.3636C38.832 78.3636 38.2482 78.3125 37.7113 78.2102C37.1829 78.1165 36.761 78.0057 36.4457 77.8778L37.5195 74.2727C38.1928 74.4688 38.7937 74.5625 39.3221 74.554C39.8505 74.5455 40.315 74.3793 40.7155 74.0554C41.1246 73.7401 41.4698 73.2116 41.7511 72.4702L42.1474 71.4091L35.0266 51.3636H39.9357L44.4613 66.1932H44.6658L49.2042 51.3636H54.1261L46.2638 73.3778C45.8974 74.4176 45.4116 75.3082 44.8065 76.0497C44.2013 76.7997 43.4599 77.3707 42.582 77.7628C41.7127 78.1634 40.6729 78.3636 39.4627 78.3636ZM56.6085 78.3636V51.3636H61.1596V54.6108H61.4281C61.6667 54.1335 62.0034 53.6264 62.438 53.0895C62.8727 52.544 63.4607 52.0795 64.2022 51.696C64.9437 51.304 65.8897 51.108 67.0403 51.108C68.5573 51.108 69.9252 51.4957 71.144 52.2713C72.3713 53.0384 73.3428 54.1761 74.0588 55.6847C74.7832 57.1847 75.1454 59.0256 75.1454 61.2074C75.1454 63.3636 74.7917 65.196 74.0843 66.7045C73.3769 68.2131 72.4139 69.3636 71.1951 70.1562C69.9764 70.9489 68.5957 71.3452 67.0531 71.3452C65.9281 71.3452 64.9948 71.1577 64.2534 70.7827C63.5119 70.4077 62.9153 69.956 62.4636 69.4276C62.0204 68.8906 61.6752 68.3835 61.4281 67.9062H61.2363V78.3636H56.6085ZM61.1468 61.1818C61.1468 62.4517 61.3258 63.5639 61.6838 64.5185C62.0502 65.473 62.5744 66.2187 63.2562 66.7557C63.9465 67.2841 64.7818 67.5483 65.7619 67.5483C66.7846 67.5483 67.6411 67.2756 68.3315 66.7301C69.0218 66.1761 69.5417 65.4219 69.8911 64.4673C70.2491 63.5043 70.4281 62.4091 70.4281 61.1818C70.4281 59.9631 70.2534 58.8807 69.9039 57.9347C69.5545 56.9886 69.0346 56.2472 68.3443 55.7102C67.6539 55.1733 66.7931 54.9048 65.7619 54.9048C64.7732 54.9048 63.9338 55.1648 63.2434 55.6847C62.5531 56.2045 62.0289 56.9332 61.671 57.8707C61.3215 58.8082 61.1468 59.9119 61.1468 61.1818ZM88.1939 51.3636V54.9432H76.9055V51.3636H88.1939ZM79.6924 46.6591H84.3203V65.0938C84.3203 65.7159 84.414 66.1932 84.6015 66.5256C84.7976 66.8494 85.0532 67.071 85.3686 67.1903C85.6839 67.3097 86.0334 67.3693 86.4169 67.3693C86.7067 67.3693 86.9709 67.348 87.2095 67.3054C87.4567 67.2628 87.6442 67.2244 87.772 67.1903L88.5518 70.8082C88.3047 70.8935 87.951 70.9872 87.4907 71.0895C87.039 71.1918 86.4851 71.2514 85.8288 71.2685C84.6697 71.3026 83.6257 71.1278 82.6967 70.7443C81.7677 70.3523 81.0305 69.7472 80.4851 68.929C79.9481 68.1108 79.6839 67.0881 79.6924 65.8608V46.6591ZM99.6987 71.3835C97.781 71.3835 96.1191 70.9616 94.7129 70.1179C93.3066 69.2741 92.2157 68.0937 91.4401 66.5767C90.6731 65.0597 90.2896 63.2869 90.2896 61.2585C90.2896 59.2301 90.6731 57.4531 91.4401 55.9276C92.2157 54.402 93.3066 53.2173 94.7129 52.3736C96.1191 51.5298 97.781 51.108 99.6987 51.108C101.616 51.108 103.278 51.5298 104.684 52.3736C106.091 53.2173 107.177 54.402 107.944 55.9276C108.72 57.4531 109.108 59.2301 109.108 61.2585C109.108 63.2869 108.72 65.0597 107.944 66.5767C107.177 68.0937 106.091 69.2741 104.684 70.1179C103.278 70.9616 101.616 71.3835 99.6987 71.3835ZM99.7242 67.6761C100.764 67.6761 101.633 67.3906 102.332 66.8196C103.031 66.2401 103.551 65.4645 103.892 64.4929C104.241 63.5213 104.416 62.4389 104.416 61.2457C104.416 60.044 104.241 58.9574 103.892 57.9858C103.551 57.0057 103.031 56.2259 102.332 55.6463C101.633 55.0668 100.764 54.777 99.7242 54.777C98.6589 54.777 97.7725 55.0668 97.0651 55.6463C96.3663 56.2259 95.8421 57.0057 95.4927 57.9858C95.1518 58.9574 94.9813 60.044 94.9813 61.2457C94.9813 62.4389 95.1518 63.5213 95.4927 64.4929C95.8421 65.4645 96.3663 66.2401 97.0651 66.8196C97.7725 67.3906 98.6589 67.6761 99.7242 67.6761ZM126.176 71.3963C124.932 71.3963 123.811 71.1747 122.814 70.7315C121.825 70.2798 121.041 69.6151 120.461 68.7372C119.89 67.8594 119.605 66.777 119.605 65.4901C119.605 64.3821 119.809 63.4659 120.219 62.7415C120.628 62.017 121.186 61.4375 121.893 61.0028C122.601 60.5682 123.397 60.2401 124.284 60.0185C125.179 59.7884 126.103 59.6222 127.058 59.5199C128.209 59.4006 129.142 59.294 129.858 59.2003C130.574 59.098 131.094 58.9446 131.417 58.7401C131.75 58.527 131.916 58.1989 131.916 57.7557V57.679C131.916 56.7159 131.63 55.9702 131.059 55.4418C130.488 54.9134 129.666 54.6491 128.592 54.6491C127.459 54.6491 126.559 54.8963 125.895 55.3906C125.238 55.8849 124.795 56.4687 124.565 57.142L120.244 56.5284C120.585 55.3352 121.147 54.3381 121.932 53.5369C122.716 52.7273 123.674 52.1222 124.808 51.7216C125.942 51.3125 127.194 51.108 128.567 51.108C129.513 51.108 130.454 51.2188 131.392 51.4403C132.329 51.6619 133.186 52.0284 133.961 52.5398C134.737 53.0426 135.359 53.7287 135.828 54.598C136.305 55.4673 136.544 56.554 136.544 57.858V71H132.095V68.3026H131.942C131.66 68.848 131.264 69.3594 130.753 69.8366C130.25 70.3054 129.615 70.6847 128.848 70.9744C128.089 71.2557 127.199 71.3963 126.176 71.3963ZM127.378 67.9957C128.307 67.9957 129.112 67.8125 129.794 67.446C130.476 67.071 131 66.5767 131.366 65.9631C131.741 65.3494 131.929 64.6804 131.929 63.956V61.642C131.784 61.7614 131.537 61.8722 131.187 61.9744C130.846 62.0767 130.463 62.1662 130.037 62.2429C129.611 62.3196 129.189 62.3878 128.771 62.4474C128.353 62.5071 127.991 62.5582 127.684 62.6009C126.994 62.6946 126.376 62.848 125.831 63.0611C125.285 63.2741 124.855 63.5724 124.54 63.956C124.224 64.331 124.067 64.8168 124.067 65.4134C124.067 66.2656 124.378 66.9091 125 67.3438C125.622 67.7784 126.415 67.9957 127.378 67.9957ZM147.764 71.3452C146.222 71.3452 144.841 70.9489 143.622 70.1562C142.403 69.3636 141.44 68.2131 140.733 66.7045C140.026 65.196 139.672 63.3636 139.672 61.2074C139.672 59.0256 140.03 57.1847 140.746 55.6847C141.47 54.1761 142.446 53.0384 143.673 52.2713C144.901 51.4957 146.268 51.108 147.777 51.108C148.928 51.108 149.874 51.304 150.615 51.696C151.356 52.0795 151.945 52.544 152.379 53.0895C152.814 53.6264 153.151 54.1335 153.389 54.6108H153.581V44.8182H158.222V71H153.67V67.9062H153.389C153.151 68.3835 152.805 68.8906 152.354 69.4276C151.902 69.956 151.305 70.4077 150.564 70.7827C149.822 71.1577 148.889 71.3452 147.764 71.3452ZM149.055 67.5483C150.035 67.5483 150.871 67.2841 151.561 66.7557C152.251 66.2187 152.776 65.473 153.133 64.5185C153.491 63.5639 153.67 62.4517 153.67 61.1818C153.67 59.9119 153.491 58.8082 153.133 57.8707C152.784 56.9332 152.264 56.2045 151.574 55.6847C150.892 55.1648 150.053 54.9048 149.055 54.9048C148.024 54.9048 147.163 55.1733 146.473 55.7102C145.783 56.2472 145.263 56.9886 144.913 57.9347C144.564 58.8807 144.389 59.9631 144.389 61.1818C144.389 62.4091 144.564 63.5043 144.913 64.4673C145.271 65.4219 145.795 66.1761 146.486 66.7301C147.185 67.2756 148.041 67.5483 149.055 67.5483ZM169.72 71.3452C168.177 71.3452 166.797 70.9489 165.578 70.1562C164.359 69.3636 163.396 68.2131 162.689 66.7045C161.981 65.196 161.628 63.3636 161.628 61.2074C161.628 59.0256 161.986 57.1847 162.701 55.6847C163.426 54.1761 164.402 53.0384 165.629 52.2713C166.856 51.4957 168.224 51.108 169.733 51.108C170.883 51.108 171.829 51.304 172.571 51.696C173.312 52.0795 173.9 52.544 174.335 53.0895C174.77 53.6264 175.106 54.1335 175.345 54.6108H175.537V44.8182H180.177V71H175.626V67.9062H175.345C175.106 68.3835 174.761 68.8906 174.309 69.4276C173.858 69.956 173.261 70.4077 172.52 70.7827C171.778 71.1577 170.845 71.3452 169.72 71.3452ZM171.011 67.5483C171.991 67.5483 172.826 67.2841 173.517 66.7557C174.207 66.2187 174.731 65.473 175.089 64.5185C175.447 63.5639 175.626 62.4517 175.626 61.1818C175.626 59.9119 175.447 58.8082 175.089 57.8707C174.74 56.9332 174.22 56.2045 173.53 55.6847C172.848 55.1648 172.008 54.9048 171.011 54.9048C169.98 54.9048 169.119 55.1733 168.429 55.7102C167.738 56.2472 167.219 56.9886 166.869 57.9347C166.52 58.8807 166.345 59.9631 166.345 61.1818C166.345 62.4091 166.52 63.5043 166.869 64.4673C167.227 65.4219 167.751 66.1761 168.442 66.7301C169.14 67.2756 169.997 67.5483 171.011 67.5483ZM184.389 71V51.3636H188.876V54.6364H189.081C189.438 53.5028 190.052 52.6293 190.921 52.0156C191.799 51.3935 192.801 51.0824 193.926 51.0824C194.181 51.0824 194.467 51.0952 194.782 51.1207C195.106 51.1378 195.375 51.1676 195.588 51.2102V55.4673C195.392 55.3991 195.081 55.3395 194.654 55.2884C194.237 55.2287 193.832 55.1989 193.44 55.1989C192.596 55.1989 191.838 55.3821 191.164 55.7486C190.5 56.1065 189.975 56.6051 189.592 57.2443C189.208 57.8835 189.017 58.6207 189.017 59.456V71H184.389ZM205.827 71.3835C203.858 71.3835 202.158 70.9744 200.726 70.1562C199.303 69.3295 198.207 68.1619 197.44 66.6534C196.673 65.1364 196.29 63.3509 196.29 61.2969C196.29 59.277 196.673 57.5043 197.44 55.9787C198.216 54.4446 199.298 53.2514 200.688 52.3991C202.077 51.5384 203.709 51.108 205.584 51.108C206.794 51.108 207.936 51.304 209.01 51.696C210.092 52.0795 211.047 52.6761 211.874 53.4858C212.709 54.2955 213.365 55.3267 213.842 56.5795C214.32 57.8239 214.558 59.3068 214.558 61.0284V62.4474H198.463V59.3281H210.122C210.114 58.4418 209.922 57.6534 209.547 56.9631C209.172 56.2642 208.648 55.7145 207.975 55.3139C207.31 54.9134 206.534 54.7131 205.648 54.7131C204.702 54.7131 203.871 54.9432 203.155 55.4034C202.439 55.8551 201.881 56.4517 201.48 57.1932C201.088 57.9261 200.888 58.7315 200.879 59.6094V62.3324C200.879 63.4744 201.088 64.4545 201.506 65.2727C201.923 66.0824 202.507 66.7045 203.257 67.1392C204.007 67.5653 204.885 67.7784 205.891 67.7784C206.564 67.7784 207.173 67.6847 207.719 67.4972C208.264 67.3011 208.737 67.0156 209.138 66.6406C209.538 66.2656 209.841 65.8011 210.046 65.2472L214.367 65.733C214.094 66.875 213.574 67.8722 212.807 68.7244C212.048 69.5682 211.077 70.2244 209.892 70.6932C208.707 71.1534 207.352 71.3835 205.827 71.3835ZM233.273 56.554L229.055 57.0142C228.935 56.5881 228.726 56.1875 228.428 55.8125C228.138 55.4375 227.746 55.1349 227.252 54.9048C226.758 54.6747 226.153 54.5597 225.437 54.5597C224.474 54.5597 223.664 54.7685 223.008 55.1861C222.36 55.6037 222.04 56.1449 222.049 56.8097C222.04 57.3807 222.249 57.8452 222.675 58.2031C223.11 58.5611 223.826 58.8551 224.823 59.0852L228.173 59.8011C230.03 60.2017 231.411 60.8366 232.315 61.706C233.226 62.5753 233.687 63.7131 233.695 65.1193C233.687 66.3551 233.324 67.446 232.609 68.392C231.901 69.3295 230.917 70.0625 229.655 70.5909C228.394 71.1193 226.945 71.3835 225.309 71.3835C222.905 71.3835 220.971 70.8807 219.505 69.875C218.039 68.8608 217.165 67.4503 216.884 65.6435L221.397 65.2088C221.601 66.0952 222.036 66.7642 222.701 67.2159C223.366 67.6676 224.231 67.8935 225.296 67.8935C226.396 67.8935 227.278 67.6676 227.942 67.2159C228.616 66.7642 228.952 66.206 228.952 65.5412C228.952 64.9787 228.735 64.5142 228.3 64.1477C227.874 63.7812 227.209 63.5 226.306 63.304L222.957 62.6009C221.073 62.2088 219.68 61.5483 218.776 60.6193C217.873 59.6818 217.425 58.4972 217.434 57.0653C217.425 55.8551 217.753 54.8068 218.418 53.9205C219.092 53.0256 220.025 52.3352 221.218 51.8494C222.42 51.3551 223.805 51.108 225.373 51.108C227.674 51.108 229.485 51.598 230.806 52.5781C232.136 53.5582 232.958 54.8835 233.273 56.554ZM252.311 56.554L248.092 57.0142C247.973 56.5881 247.764 56.1875 247.466 55.8125C247.176 55.4375 246.784 55.1349 246.29 54.9048C245.796 54.6747 245.19 54.5597 244.475 54.5597C243.511 54.5597 242.702 54.7685 242.046 55.1861C241.398 55.6037 241.078 56.1449 241.087 56.8097C241.078 57.3807 241.287 57.8452 241.713 58.2031C242.148 58.5611 242.864 58.8551 243.861 59.0852L247.21 59.8011C249.068 60.2017 250.449 60.8366 251.352 61.706C252.264 62.5753 252.725 63.7131 252.733 65.1193C252.725 66.3551 252.362 67.446 251.646 68.392C250.939 69.3295 249.955 70.0625 248.693 70.5909C247.432 71.1193 245.983 71.3835 244.347 71.3835C241.943 71.3835 240.009 70.8807 238.543 69.875C237.077 68.8608 236.203 67.4503 235.922 65.6435L240.435 65.2088C240.639 66.0952 241.074 66.7642 241.739 67.2159C242.403 67.6676 243.269 67.8935 244.334 67.8935C245.433 67.8935 246.315 67.6676 246.98 67.2159C247.653 66.7642 247.99 66.206 247.99 65.5412C247.99 64.9787 247.773 64.5142 247.338 64.1477C246.912 63.7812 246.247 63.5 245.344 63.304L241.994 62.6009C240.111 62.2088 238.717 61.5483 237.814 60.6193C236.911 59.6818 236.463 58.4972 236.472 57.0653C236.463 55.8551 236.791 54.8068 237.456 53.9205C238.129 53.0256 239.063 52.3352 240.256 51.8494C241.457 51.3551 242.842 51.108 244.411 51.108C246.712 51.108 248.523 51.598 249.844 52.5781C251.173 53.5582 251.996 54.8835 252.311 56.554ZM264.522 71.3835C262.554 71.3835 260.853 70.9744 259.421 70.1562C257.998 69.3295 256.903 68.1619 256.136 66.6534C255.369 65.1364 254.985 63.3509 254.985 61.2969C254.985 59.277 255.369 57.5043 256.136 55.9787C256.911 54.4446 257.994 53.2514 259.383 52.3991C260.772 51.5384 262.404 51.108 264.279 51.108C265.49 51.108 266.632 51.304 267.706 51.696C268.788 52.0795 269.742 52.6761 270.569 53.4858C271.404 54.2955 272.061 55.3267 272.538 56.5795C273.015 57.8239 273.254 59.3068 273.254 61.0284V62.4474H257.159V59.3281H268.818C268.809 58.4418 268.617 57.6534 268.242 56.9631C267.867 56.2642 267.343 55.7145 266.67 55.3139C266.005 54.9134 265.23 54.7131 264.343 54.7131C263.397 54.7131 262.566 54.9432 261.85 55.4034C261.134 55.8551 260.576 56.4517 260.176 57.1932C259.784 57.9261 259.583 58.7315 259.575 59.6094V62.3324C259.575 63.4744 259.784 64.4545 260.201 65.2727C260.619 66.0824 261.203 66.7045 261.953 67.1392C262.703 67.5653 263.581 67.7784 264.586 67.7784C265.259 67.7784 265.869 67.6847 266.414 67.4972C266.96 67.3011 267.433 67.0156 267.833 66.6406C268.234 66.2656 268.536 65.8011 268.741 65.2472L273.062 65.733C272.789 66.875 272.269 67.8722 271.502 68.7244C270.744 69.5682 269.772 70.2244 268.588 70.6932C267.403 71.1534 266.048 71.3835 264.522 71.3835ZM291.969 56.554L287.75 57.0142C287.631 56.5881 287.422 56.1875 287.124 55.8125C286.834 55.4375 286.442 55.1349 285.948 54.9048C285.453 54.6747 284.848 54.5597 284.132 54.5597C283.169 54.5597 282.359 54.7685 281.703 55.1861C281.055 55.6037 280.736 56.1449 280.744 56.8097C280.736 57.3807 280.945 57.8452 281.371 58.2031C281.805 58.5611 282.521 58.8551 283.519 59.0852L286.868 59.8011C288.726 60.2017 290.107 60.8366 291.01 61.706C291.922 62.5753 292.382 63.7131 292.391 65.1193C292.382 66.3551 292.02 67.446 291.304 68.392C290.597 69.3295 289.612 70.0625 288.351 70.5909C287.09 71.1193 285.641 71.3835 284.004 71.3835C281.601 71.3835 279.666 70.8807 278.2 69.875C276.734 68.8608 275.861 67.4503 275.58 65.6435L280.092 65.2088C280.297 66.0952 280.732 66.7642 281.396 67.2159C282.061 67.6676 282.926 67.8935 283.992 67.8935C285.091 67.8935 285.973 67.6676 286.638 67.2159C287.311 66.7642 287.648 66.206 287.648 65.5412C287.648 64.9787 287.43 64.5142 286.996 64.1477C286.57 63.7812 285.905 63.5 285.002 63.304L281.652 62.6009C279.769 62.2088 278.375 61.5483 277.472 60.6193C276.568 59.6818 276.121 58.4972 276.129 57.0653C276.121 55.8551 276.449 54.8068 277.114 53.9205C277.787 53.0256 278.72 52.3352 279.913 51.8494C281.115 51.3551 282.5 51.108 284.068 51.108C286.369 51.108 288.18 51.598 289.502 52.5781C290.831 53.5582 291.653 54.8835 291.969 56.554ZM12.3239 95.3636V98.9432H0.715909V95.3636H12.3239ZM3.6179 115V93.5099C3.6179 92.1889 3.89063 91.0895 4.43608 90.2116C4.99006 89.3338 5.73153 88.6776 6.66051 88.2429C7.58949 87.8082 8.62074 87.5909 9.75426 87.5909C10.5554 87.5909 11.267 87.6548 11.8892 87.7827C12.5114 87.9105 12.9716 88.0256 13.2699 88.1278L12.3494 91.7074C12.1534 91.6477 11.9062 91.5881 11.608 91.5284C11.3097 91.4602 10.9773 91.4261 10.6108 91.4261C9.75 91.4261 9.14063 91.6349 8.78267 92.0526C8.43324 92.4616 8.25852 93.0497 8.25852 93.8168V115H3.6179ZM15.2282 115V95.3636H19.7154V98.6364H19.9199C20.2779 97.5028 20.8915 96.6293 21.7608 96.0156C22.6387 95.3935 23.6401 95.0824 24.7651 95.0824C25.0208 95.0824 25.3063 95.0952 25.6216 95.1207C25.9455 95.1378 26.2139 95.1676 26.427 95.2102V99.4673C26.231 99.3991 25.9199 99.3395 25.4938 99.2884C25.0762 99.2287 24.6713 99.1989 24.2793 99.1989C23.4355 99.1989 22.677 99.3821 22.0037 99.7486C21.3389 100.107 20.8148 100.605 20.4313 101.244C20.0478 101.884 19.856 102.621 19.856 103.456V115H15.2282ZM36.5383 115.384C34.6207 115.384 32.9588 114.962 31.5525 114.118C30.1463 113.274 29.0554 112.094 28.2798 110.577C27.5128 109.06 27.1292 107.287 27.1292 105.259C27.1292 103.23 27.5128 101.453 28.2798 99.9276C29.0554 98.402 30.1463 97.2173 31.5525 96.3736C32.9588 95.5298 34.6207 95.108 36.5383 95.108C38.456 95.108 40.1179 95.5298 41.5241 96.3736C42.9304 97.2173 44.017 98.402 44.7841 99.9276C45.5596 101.453 45.9474 103.23 45.9474 105.259C45.9474 107.287 45.5596 109.06 44.7841 110.577C44.017 112.094 42.9304 113.274 41.5241 114.118C40.1179 114.962 38.456 115.384 36.5383 115.384ZM36.5639 111.676C37.6037 111.676 38.473 111.391 39.1719 110.82C39.8707 110.24 40.3906 109.464 40.7315 108.493C41.081 107.521 41.2557 106.439 41.2557 105.246C41.2557 104.044 41.081 102.957 40.7315 101.986C40.3906 101.006 39.8707 100.226 39.1719 99.6463C38.473 99.0668 37.6037 98.777 36.5639 98.777C35.4986 98.777 34.6122 99.0668 33.9048 99.6463C33.206 100.226 32.6818 101.006 32.3324 101.986C31.9915 102.957 31.821 104.044 31.821 105.246C31.821 106.439 31.9915 107.521 32.3324 108.493C32.6818 109.464 33.206 110.24 33.9048 110.82C34.6122 111.391 35.4986 111.676 36.5639 111.676ZM49.1553 115V95.3636H53.5786V98.7003H53.8088C54.2178 97.5753 54.8954 96.6974 55.8414 96.0668C56.7874 95.4276 57.9167 95.108 59.2292 95.108C60.5588 95.108 61.6795 95.4318 62.5914 96.0795C63.5119 96.7187 64.1596 97.5923 64.5346 98.7003H64.7391C65.1738 97.6094 65.9068 96.7401 66.938 96.0923C67.9778 95.4361 69.2093 95.108 70.6326 95.108C72.4394 95.108 73.9139 95.679 75.0559 96.821C76.198 97.9631 76.769 99.6293 76.769 101.82V115H72.1284V102.536C72.1284 101.317 71.8045 100.426 71.1568 99.8636C70.509 99.2926 69.7164 99.0071 68.7789 99.0071C67.6624 99.0071 66.7889 99.3565 66.1582 100.055C65.536 100.746 65.2249 101.645 65.2249 102.753V115H60.6866V102.344C60.6866 101.33 60.3798 100.52 59.7661 99.9148C59.161 99.3097 58.3684 99.0071 57.3883 99.0071C56.7235 99.0071 56.1184 99.1776 55.573 99.5185C55.0275 99.8509 54.5928 100.324 54.269 100.938C53.9451 101.543 53.7832 102.25 53.7832 103.06V115H49.1553ZM93.5815 103.494V115H88.9536V88.8182H93.4792V98.7003H93.7093C94.1695 97.5923 94.8812 96.7187 95.8442 96.0795C96.8158 95.4318 98.0516 95.108 99.5516 95.108C100.915 95.108 102.104 95.3935 103.118 95.9645C104.133 96.5355 104.917 97.3707 105.471 98.4702C106.033 99.5696 106.314 100.912 106.314 102.497V115H101.687V103.213C101.687 101.892 101.346 100.865 100.664 100.132C99.9906 99.3906 99.0445 99.0199 97.8258 99.0199C97.0076 99.0199 96.2746 99.1989 95.6269 99.5568C94.9877 99.9062 94.4849 100.413 94.1184 101.078C93.7604 101.743 93.5815 102.548 93.5815 103.494ZM119.005 115.384C117.036 115.384 115.336 114.974 113.904 114.156C112.481 113.33 111.386 112.162 110.619 110.653C109.852 109.136 109.468 107.351 109.468 105.297C109.468 103.277 109.852 101.504 110.619 99.9787C111.394 98.4446 112.477 97.2514 113.866 96.3991C115.255 95.5384 116.887 95.108 118.762 95.108C119.972 95.108 121.114 95.304 122.188 95.696C123.271 96.0795 124.225 96.6761 125.052 97.4858C125.887 98.2955 126.543 99.3267 127.021 100.58C127.498 101.824 127.736 103.307 127.736 105.028V106.447H111.641V103.328H123.3C123.292 102.442 123.1 101.653 122.725 100.963C122.35 100.264 121.826 99.7145 121.153 99.3139C120.488 98.9134 119.712 98.7131 118.826 98.7131C117.88 98.7131 117.049 98.9432 116.333 99.4034C115.617 99.8551 115.059 100.452 114.658 101.193C114.266 101.926 114.066 102.732 114.057 103.609V106.332C114.057 107.474 114.266 108.455 114.684 109.273C115.102 110.082 115.685 110.705 116.435 111.139C117.185 111.565 118.063 111.778 119.069 111.778C119.742 111.778 120.352 111.685 120.897 111.497C121.442 111.301 121.915 111.016 122.316 110.641C122.717 110.266 123.019 109.801 123.224 109.247L127.545 109.733C127.272 110.875 126.752 111.872 125.985 112.724C125.227 113.568 124.255 114.224 123.07 114.693C121.886 115.153 120.53 115.384 119.005 115.384ZM130.932 115V95.3636H135.419V98.6364H135.623C135.981 97.5028 136.595 96.6293 137.464 96.0156C138.342 95.3935 139.344 95.0824 140.469 95.0824C140.724 95.0824 141.01 95.0952 141.325 95.1207C141.649 95.1378 141.917 95.1676 142.13 95.2102V99.4673C141.934 99.3991 141.623 99.3395 141.197 99.2884C140.78 99.2287 140.375 99.1989 139.983 99.1989C139.139 99.1989 138.38 99.3821 137.707 99.7486C137.042 100.107 136.518 100.605 136.135 101.244C135.751 101.884 135.559 102.621 135.559 103.456V115H130.932ZM152.37 115.384C150.401 115.384 148.701 114.974 147.269 114.156C145.845 113.33 144.75 112.162 143.983 110.653C143.216 109.136 142.833 107.351 142.833 105.297C142.833 103.277 143.216 101.504 143.983 99.9787C144.759 98.4446 145.841 97.2514 147.23 96.3991C148.62 95.5384 150.252 95.108 152.127 95.108C153.337 95.108 154.479 95.304 155.553 95.696C156.635 96.0795 157.59 96.6761 158.416 97.4858C159.252 98.2955 159.908 99.3267 160.385 100.58C160.863 101.824 161.101 103.307 161.101 105.028V106.447H145.006V103.328H156.665C156.657 102.442 156.465 101.653 156.09 100.963C155.715 100.264 155.191 99.7145 154.517 99.3139C153.853 98.9134 153.077 98.7131 152.191 98.7131C151.245 98.7131 150.414 98.9432 149.698 99.4034C148.982 99.8551 148.424 100.452 148.023 101.193C147.631 101.926 147.431 102.732 147.422 103.609V106.332C147.422 107.474 147.631 108.455 148.049 109.273C148.466 110.082 149.05 110.705 149.8 111.139C150.55 111.565 151.428 111.778 152.434 111.778C153.107 111.778 153.716 111.685 154.262 111.497C154.807 111.301 155.28 111.016 155.681 110.641C156.081 110.266 156.384 109.801 156.588 109.247L160.909 109.733C160.637 110.875 160.117 111.872 159.35 112.724C158.591 113.568 157.62 114.224 156.435 114.693C155.25 115.153 153.895 115.384 152.37 115.384Z"
            fill="url(#paint0_radial_3100_9272)"
          />
          <defs>
            <radialGradient
              id="paint0_radial_3100_9272"
              cx="0"
              cy="0"
              r="1"
              gradientUnits="userSpaceOnUse"
              gradientTransform="translate(40 58) scale(214 233.7)"
            >
              <stop stopColor="white" stopOpacity="0" />
              <stop offset="1" stopOpacity="0.82" />
            </radialGradient>
          </defs>
        </svg>