<svg width="308" height="123" viewBox="0 0 308 123" fill="none" xmlns="http://www.w3.org/2000/svg">
<path d="M6.32528 0.818181V27H1.58239V0.818181H6.32528ZM10.5367 27V7.36364H14.96V10.7003H15.1902C15.5992 9.57528 16.2768 8.69744 17.2228 8.06676C18.1688 7.42756 19.2981 7.10795 20.6106 7.10795C21.9402 7.10795 23.0609 7.43182 23.9728 8.07955C24.8933 8.71875 25.541 9.59233 25.916 10.7003H26.1206C26.5552 9.60937 27.2882 8.74006 28.3194 8.09233C29.3592 7.43608 30.5907 7.10795 32.014 7.10795C33.8208 7.10795 35.2953 7.67898 36.4373 8.82102C37.5794 9.96307 38.1504 11.6293 38.1504 13.8196V27H33.5098V14.5355C33.5098 13.3168 33.1859 12.4261 32.5382 11.8636C31.8904 11.2926 31.0978 11.0071 30.1603 11.0071C29.0438 11.0071 28.1703 11.3565 27.5396 12.0554C26.9174 12.7457 26.6063 13.6449 26.6063 14.7528V27H22.068V14.3438C22.068 13.3295 21.7612 12.5199 21.1475 11.9148C20.5424 11.3097 19.7498 11.0071 18.7697 11.0071C18.1049 11.0071 17.4998 11.1776 16.9544 11.5185C16.4089 11.8509 15.9742 12.3239 15.6504 12.9375C15.3265 13.5426 15.1646 14.25 15.1646 15.0597V27H10.5367ZM42.1253 34.3636V7.36364H46.6765V10.6108H46.9449C47.1836 10.1335 47.5202 9.62642 47.9549 9.08949C48.3895 8.54403 48.9776 8.07954 49.7191 7.69602C50.4606 7.30398 51.4066 7.10795 52.5572 7.10795C54.0742 7.10795 55.4421 7.49574 56.6609 8.27131C57.8881 9.03835 58.8597 10.1761 59.5756 11.6847C60.3001 13.1847 60.6623 15.0256 60.6623 17.2074C60.6623 19.3636 60.3086 21.196 59.6012 22.7045C58.8938 24.2131 57.9307 25.3636 56.712 26.1562C55.4932 26.9489 54.1126 27.3452 52.5699 27.3452C51.4449 27.3452 50.5117 27.1577 49.7702 26.7827C49.0288 26.4077 48.4322 25.956 47.9805 25.4276C47.5373 24.8906 47.1921 24.3835 46.9449 23.9062H46.7532V34.3636H42.1253ZM46.6637 17.1818C46.6637 18.4517 46.8427 19.5639 47.2006 20.5185C47.5671 21.473 48.0913 22.2187 48.7731 22.7557C49.4634 23.2841 50.2986 23.5483 51.2788 23.5483C52.3015 23.5483 53.158 23.2756 53.8484 22.7301C54.5387 22.1761 55.0586 21.4219 55.408 20.4673C55.766 19.5043 55.9449 18.4091 55.9449 17.1818C55.9449 15.9631 55.7702 14.8807 55.4208 13.9347C55.0714 12.9886 54.5515 12.2472 53.8611 11.7102C53.1708 11.1733 52.31 10.9048 51.2788 10.9048C50.2901 10.9048 49.4506 11.1648 48.7603 11.6847C48.0699 12.2045 47.5458 12.9332 47.1878 13.8707C46.8384 14.8082 46.6637 15.9119 46.6637 17.1818ZM63.9053 27V7.36364H68.3926V10.6364H68.5971C68.9551 9.50284 69.5687 8.62926 70.438 8.01562C71.3159 7.39347 72.3173 7.08239 73.4423 7.08239C73.698 7.08239 73.9835 7.09517 74.2988 7.12074C74.6227 7.13778 74.8911 7.16761 75.1042 7.21023V11.4673C74.9082 11.3991 74.5971 11.3395 74.171 11.2884C73.7534 11.2287 73.3485 11.1989 72.9565 11.1989C72.1127 11.1989 71.3542 11.3821 70.6809 11.7486C70.0161 12.1065 69.492 12.6051 69.1085 13.2443C68.7249 13.8835 68.5332 14.6207 68.5332 15.456V27H63.9053ZM85.2155 27.3835C83.2979 27.3835 81.636 26.9616 80.2297 26.1179C78.8235 25.2741 77.7326 24.0937 76.957 22.5767C76.19 21.0597 75.8064 19.2869 75.8064 17.2585C75.8064 15.2301 76.19 13.4531 76.957 11.9276C77.7326 10.402 78.8235 9.21733 80.2297 8.37358C81.636 7.52983 83.2979 7.10795 85.2155 7.10795C87.1331 7.10795 88.7951 7.52983 90.2013 8.37358C91.6076 9.21733 92.6942 10.402 93.4613 11.9276C94.2368 13.4531 94.6246 15.2301 94.6246 17.2585C94.6246 19.2869 94.2368 21.0597 93.4613 22.5767C92.6942 24.0937 91.6076 25.2741 90.2013 26.1179C88.7951 26.9616 87.1331 27.3835 85.2155 27.3835ZM85.2411 23.6761C86.2809 23.6761 87.1502 23.3906 87.8491 22.8196C88.5479 22.2401 89.0678 21.4645 89.4087 20.4929C89.7581 19.5213 89.9329 18.4389 89.9329 17.2457C89.9329 16.044 89.7581 14.9574 89.4087 13.9858C89.0678 13.0057 88.5479 12.2259 87.8491 11.6463C87.1502 11.0668 86.2809 10.777 85.2411 10.777C84.1758 10.777 83.2894 11.0668 82.582 11.6463C81.8831 12.2259 81.359 13.0057 81.0096 13.9858C80.6687 14.9574 80.4982 16.044 80.4982 17.2457C80.4982 18.4389 80.6687 19.5213 81.0096 20.4929C81.359 21.4645 81.8831 22.2401 82.582 22.8196C83.2894 23.3906 84.1758 23.6761 85.2411 23.6761ZM114.704 7.36364L107.711 27H102.598L95.6049 7.36364H100.54L105.052 21.9503H105.257L109.782 7.36364H114.704ZM125.212 27.3835C123.243 27.3835 121.543 26.9744 120.111 26.1562C118.688 25.3295 117.593 24.1619 116.826 22.6534C116.059 21.1364 115.675 19.3509 115.675 17.2969C115.675 15.277 116.059 13.5043 116.826 11.9787C117.601 10.4446 118.684 9.25142 120.073 8.39915C121.462 7.53835 123.094 7.10795 124.969 7.10795C126.179 7.10795 127.321 7.30398 128.395 7.69602C129.478 8.07954 130.432 8.67614 131.259 9.4858C132.094 10.2955 132.75 11.3267 133.228 12.5795C133.705 13.8239 133.943 15.3068 133.943 17.0284V18.4474H117.848V15.3281H129.507C129.499 14.4418 129.307 13.6534 128.932 12.9631C128.557 12.2642 128.033 11.7145 127.36 11.3139C126.695 10.9134 125.919 10.7131 125.033 10.7131C124.087 10.7131 123.256 10.9432 122.54 11.4034C121.824 11.8551 121.266 12.4517 120.865 13.1932C120.473 13.9261 120.273 14.7315 120.265 15.6094V18.3324C120.265 19.4744 120.473 20.4545 120.891 21.2727C121.309 22.0824 121.892 22.7045 122.642 23.1392C123.392 23.5653 124.27 23.7784 125.276 23.7784C125.949 23.7784 126.559 23.6847 127.104 23.4972C127.649 23.3011 128.122 23.0156 128.523 22.6406C128.924 22.2656 129.226 21.8011 129.431 21.2472L133.752 21.733C133.479 22.875 132.959 23.8722 132.192 24.7244C131.434 25.5682 130.462 26.2244 129.277 26.6932C128.093 27.1534 126.738 27.3835 125.212 27.3835ZM151.063 27L143.674 0.818181H148.774L153.492 20.0582H153.735L158.772 0.818181H163.412L168.462 20.071H168.692L173.409 0.818181H178.51L171.121 27H166.442L161.201 8.62926H160.996L155.742 27H151.063ZM187.564 27.3835C185.595 27.3835 183.895 26.9744 182.463 26.1562C181.04 25.3295 179.944 24.1619 179.177 22.6534C178.41 21.1364 178.027 19.3509 178.027 17.2969C178.027 15.277 178.41 13.5043 179.177 11.9787C179.953 10.4446 181.035 9.25142 182.424 8.39915C183.814 7.53835 185.446 7.10795 187.321 7.10795C188.531 7.10795 189.673 7.30398 190.747 7.69602C191.829 8.07954 192.784 8.67614 193.611 9.4858C194.446 10.2955 195.102 11.3267 195.579 12.5795C196.057 13.8239 196.295 15.3068 196.295 17.0284V18.4474H180.2V15.3281H191.859C191.851 14.4418 191.659 13.6534 191.284 12.9631C190.909 12.2642 190.385 11.7145 189.711 11.3139C189.047 10.9134 188.271 10.7131 187.385 10.7131C186.439 10.7131 185.608 10.9432 184.892 11.4034C184.176 11.8551 183.618 12.4517 183.217 13.1932C182.825 13.9261 182.625 14.7315 182.616 15.6094V18.3324C182.616 19.4744 182.825 20.4545 183.243 21.2727C183.66 22.0824 184.244 22.7045 184.994 23.1392C185.744 23.5653 186.622 23.7784 187.628 23.7784C188.301 23.7784 188.91 23.6847 189.456 23.4972C190.001 23.3011 190.474 23.0156 190.875 22.6406C191.275 22.2656 191.578 21.8011 191.782 21.2472L196.103 21.733C195.831 22.875 195.311 23.8722 194.544 24.7244C193.785 25.5682 192.814 26.2244 191.629 26.6932C190.444 27.1534 189.089 27.3835 187.564 27.3835ZM199.695 27V0.818181H204.323V10.6108H204.514C204.753 10.1335 205.09 9.62642 205.524 9.08949C205.959 8.54403 206.547 8.07954 207.289 7.69602C208.03 7.30398 208.976 7.10795 210.127 7.10795C211.644 7.10795 213.012 7.49574 214.23 8.27131C215.458 9.03835 216.429 10.1761 217.145 11.6847C217.87 13.1847 218.232 15.0256 218.232 17.2074C218.232 19.3636 217.878 21.196 217.171 22.7045C216.463 24.2131 215.5 25.3636 214.282 26.1562C213.063 26.9489 211.682 27.3452 210.139 27.3452C209.014 27.3452 208.081 27.1577 207.34 26.7827C206.598 26.4077 206.002 25.956 205.55 25.4276C205.107 24.8906 204.762 24.3835 204.514 23.9062H204.246V27H199.695ZM204.233 17.1818C204.233 18.4517 204.412 19.5639 204.77 20.5185C205.137 21.473 205.661 22.2187 206.343 22.7557C207.033 23.2841 207.868 23.5483 208.848 23.5483C209.871 23.5483 210.728 23.2756 211.418 22.7301C212.108 22.1761 212.628 21.4219 212.978 20.4673C213.336 19.5043 213.514 18.4091 213.514 17.1818C213.514 15.9631 213.34 14.8807 212.99 13.9347C212.641 12.9886 212.121 12.2472 211.431 11.7102C210.74 11.1733 209.88 10.9048 208.848 10.9048C207.86 10.9048 207.02 11.1648 206.33 11.6847C205.639 12.2045 205.115 12.9332 204.757 13.8707C204.408 14.8082 204.233 15.9119 204.233 17.1818ZM230.791 27.358C228.95 27.358 227.314 27.0426 225.882 26.4119C224.459 25.7812 223.334 24.9034 222.507 23.7784C221.68 22.6534 221.242 21.3537 221.19 19.8793H225.997C226.04 20.5866 226.274 21.2045 226.7 21.733C227.127 22.2528 227.693 22.6577 228.401 22.9474C229.108 23.2372 229.901 23.3821 230.779 23.3821C231.716 23.3821 232.547 23.2202 233.271 22.8963C233.996 22.5639 234.563 22.1037 234.972 21.5156C235.381 20.9276 235.581 20.25 235.573 19.483C235.581 18.6903 235.377 17.9915 234.959 17.3864C234.541 16.7812 233.936 16.3082 233.144 15.9673C232.359 15.6264 231.413 15.456 230.305 15.456H227.992V11.7997H230.305C231.217 11.7997 232.014 11.642 232.696 11.3267C233.386 11.0114 233.928 10.5682 234.32 9.99716C234.712 9.41761 234.904 8.74858 234.895 7.99006C234.904 7.24858 234.737 6.60511 234.396 6.05966C234.064 5.50568 233.591 5.07528 232.977 4.76847C232.372 4.46165 231.661 4.30824 230.842 4.30824C230.041 4.30824 229.3 4.45312 228.618 4.7429C227.936 5.03267 227.386 5.44602 226.969 5.98295C226.551 6.51136 226.33 7.14204 226.304 7.875H221.74C221.774 6.40909 222.196 5.12216 223.006 4.0142C223.824 2.89773 224.915 2.02841 226.279 1.40625C227.642 0.775568 229.172 0.460226 230.868 0.460226C232.615 0.460226 234.132 0.788351 235.419 1.4446C236.715 2.09233 237.716 2.96591 238.423 4.06534C239.131 5.16477 239.484 6.37926 239.484 7.70881C239.493 9.18324 239.058 10.419 238.18 11.4162C237.311 12.4134 236.169 13.0653 234.754 13.3722V13.5767C236.595 13.8324 238.006 14.5142 238.986 15.6222C239.975 16.7216 240.465 18.0895 240.456 19.7259C240.456 21.1918 240.038 22.5043 239.203 23.6634C238.377 24.8139 237.234 25.7173 235.777 26.3736C234.328 27.0298 232.666 27.358 230.791 27.358ZM8.66477 71.3452C7.12216 71.3452 5.74148 70.9489 4.52273 70.1562C3.30398 69.3636 2.34091 68.2131 1.63352 66.7045C0.926136 65.196 0.572443 63.3636 0.572443 61.2074C0.572443 59.0256 0.930398 57.1847 1.64631 55.6847C2.37074 54.1761 3.34659 53.0384 4.57386 52.2713C5.80114 51.4957 7.16903 51.108 8.67756 51.108C9.82813 51.108 10.7741 51.304 11.5156 51.696C12.2571 52.0795 12.8452 52.544 13.2798 53.0895C13.7145 53.6264 14.0511 54.1335 14.2898 54.6108H14.4815V44.8182H19.1222V71H14.571V67.9062H14.2898C14.0511 68.3835 13.706 68.8906 13.2543 69.4276C12.8026 69.956 12.206 70.4077 11.4645 70.7827C10.723 71.1577 9.78977 71.3452 8.66477 71.3452ZM9.95597 67.5483C10.9361 67.5483 11.7713 67.2841 12.4616 66.7557C13.152 66.2187 13.6761 65.473 14.0341 64.5185C14.392 63.5639 14.571 62.4517 14.571 61.1818C14.571 59.9119 14.392 58.8082 14.0341 57.8707C13.6847 56.9332 13.1648 56.2045 12.4744 55.6847C11.7926 55.1648 10.9531 54.9048 9.95597 54.9048C8.92472 54.9048 8.06392 55.1733 7.37358 55.7102C6.68324 56.2472 6.16335 56.9886 5.81392 57.9347C5.46449 58.8807 5.28977 59.9631 5.28977 61.1818C5.28977 62.4091 5.46449 63.5043 5.81392 64.4673C6.17188 65.4219 6.69602 66.1761 7.38636 66.7301C8.08523 67.2756 8.94176 67.5483 9.95597 67.5483ZM28.9842 71.3963C27.7399 71.3963 26.6191 71.1747 25.622 70.7315C24.6333 70.2798 23.8492 69.6151 23.2697 68.7372C22.6987 67.8594 22.4132 66.777 22.4132 65.4901C22.4132 64.3821 22.6177 63.4659 23.0268 62.7415C23.4359 62.017 23.9941 61.4375 24.7015 61.0028C25.4089 60.5682 26.2058 60.2401 27.0921 60.0185C27.987 59.7884 28.9117 59.6222 29.8663 59.5199C31.0169 59.4006 31.9501 59.294 32.666 59.2003C33.3819 59.098 33.9018 58.9446 34.2257 58.7401C34.5581 58.527 34.7242 58.1989 34.7242 57.7557V57.679C34.7242 56.7159 34.4387 55.9702 33.8677 55.4418C33.2967 54.9134 32.4742 54.6491 31.4004 54.6491C30.2669 54.6491 29.3677 54.8963 28.7029 55.3906C28.0467 55.8849 27.6035 56.4687 27.3734 57.142L23.0524 56.5284C23.3933 55.3352 23.9558 54.3381 24.7399 53.5369C25.524 52.7273 26.4828 52.1222 27.6163 51.7216C28.7498 51.3125 30.0027 51.108 31.3748 51.108C32.3208 51.108 33.2626 51.2188 34.2001 51.4403C35.1376 51.6619 35.9941 52.0284 36.7697 52.5398C37.5453 53.0426 38.1674 53.7287 38.6362 54.598C39.1135 55.4673 39.3521 56.554 39.3521 57.858V71H34.9032V68.3026H34.7498C34.4686 68.848 34.0723 69.3594 33.5609 69.8366C33.0581 70.3054 32.4231 70.6847 31.6561 70.9744C30.8975 71.2557 30.0069 71.3963 28.9842 71.3963ZM30.1859 67.9957C31.1149 67.9957 31.9203 67.8125 32.6021 67.446C33.2839 67.071 33.8081 66.5767 34.1745 65.9631C34.5495 65.3494 34.737 64.6804 34.737 63.956V61.642C34.5921 61.7614 34.345 61.8722 33.9956 61.9744C33.6546 62.0767 33.2711 62.1662 32.845 62.2429C32.4189 62.3196 31.997 62.3878 31.5794 62.4474C31.1617 62.5071 30.7995 62.5582 30.4927 62.6009C29.8024 62.6946 29.1845 62.848 28.639 63.0611C28.0936 63.2741 27.6632 63.5724 27.3478 63.956C27.0325 64.331 26.8748 64.8168 26.8748 65.4134C26.8748 66.2656 27.1859 66.9091 27.8081 67.3438C28.4302 67.7784 29.2228 67.9957 30.1859 67.9957ZM53.0909 51.3636V54.9432H41.8025V51.3636H53.0909ZM44.5895 46.6591H49.2173V65.0938C49.2173 65.7159 49.3111 66.1932 49.4986 66.5256C49.6946 66.8494 49.9503 67.071 50.2656 67.1903C50.581 67.3097 50.9304 67.3693 51.3139 67.3693C51.6037 67.3693 51.8679 67.348 52.1065 67.3054C52.3537 67.2628 52.5412 67.2244 52.669 67.1903L53.4489 70.8082C53.2017 70.8935 52.848 70.9872 52.3878 71.0895C51.9361 71.1918 51.3821 71.2514 50.7258 71.2685C49.5667 71.3026 48.5227 71.1278 47.5937 70.7443C46.6648 70.3523 45.9275 69.7472 45.3821 68.929C44.8452 68.1108 44.581 67.0881 44.5895 65.8608V46.6591ZM61.8918 71.3963C60.6475 71.3963 59.5268 71.1747 58.5296 70.7315C57.541 70.2798 56.7569 69.6151 56.1774 68.7372C55.6063 67.8594 55.3208 66.777 55.3208 65.4901C55.3208 64.3821 55.5254 63.4659 55.9345 62.7415C56.3436 62.017 56.9018 61.4375 57.6092 61.0028C58.3166 60.5682 59.1134 60.2401 59.9998 60.0185C60.8947 59.7884 61.8194 59.6222 62.7739 59.5199C63.9245 59.4006 64.8578 59.294 65.5737 59.2003C66.2896 59.098 66.8095 58.9446 67.1333 58.7401C67.4657 58.527 67.6319 58.1989 67.6319 57.7557V57.679C67.6319 56.7159 67.3464 55.9702 66.7754 55.4418C66.2043 54.9134 65.3819 54.6491 64.308 54.6491C63.1745 54.6491 62.2754 54.8963 61.6106 55.3906C60.9543 55.8849 60.5112 56.4687 60.2811 57.142L55.96 56.5284C56.3009 55.3352 56.8634 54.3381 57.6475 53.5369C58.4316 52.7273 59.3904 52.1222 60.5239 51.7216C61.6575 51.3125 62.9103 51.108 64.2825 51.108C65.2285 51.108 66.1703 51.2188 67.1078 51.4403C68.0453 51.6619 68.9018 52.0284 69.6774 52.5398C70.4529 53.0426 71.0751 53.7287 71.5438 54.598C72.0211 55.4673 72.2597 56.554 72.2597 57.858V71H67.8109V68.3026H67.6575C67.3762 68.848 66.9799 69.3594 66.4686 69.8366C65.9657 70.3054 65.3308 70.6847 64.5637 70.9744C63.8052 71.2557 62.9146 71.3963 61.8918 71.3963ZM63.0936 67.9957C64.0225 67.9957 64.8279 67.8125 65.5097 67.446C66.1916 67.071 66.7157 66.5767 67.0822 65.9631C67.4572 65.3494 67.6447 64.6804 67.6447 63.956V61.642C67.4998 61.7614 67.2526 61.8722 66.9032 61.9744C66.5623 62.0767 66.1788 62.1662 65.7526 62.2429C65.3265 62.3196 64.9046 62.3878 64.487 62.4474C64.0694 62.5071 63.7072 62.5582 63.4004 62.6009C62.71 62.6946 62.0921 62.848 61.5467 63.0611C61.0012 63.2741 60.5708 63.5724 60.2555 63.956C59.9401 64.331 59.7825 64.8168 59.7825 65.4134C59.7825 66.2656 60.0936 66.9091 60.7157 67.3438C61.3379 67.7784 62.1305 67.9957 63.0936 67.9957ZM92.9682 71.3835C91.008 71.3835 89.3247 70.9531 87.9185 70.0923C86.5207 69.2315 85.4426 68.0426 84.6841 66.5256C83.9341 65 83.5591 63.2443 83.5591 61.2585C83.5591 59.2642 83.9426 57.5043 84.7097 55.9787C85.4767 54.4446 86.5591 53.2514 87.9568 52.3991C89.3631 51.5384 91.025 51.108 92.9426 51.108C94.5364 51.108 95.9469 51.402 97.1742 51.9901C98.4099 52.5696 99.3943 53.392 100.127 54.4574C100.86 55.5142 101.278 56.75 101.38 58.1648H96.9568C96.7778 57.2187 96.3517 56.4304 95.6784 55.7997C95.0136 55.1605 94.123 54.8409 93.0065 54.8409C92.0605 54.8409 91.2295 55.0966 90.5136 55.608C89.7977 56.1108 89.2395 56.8352 88.8389 57.7812C88.4469 58.7273 88.2509 59.8608 88.2509 61.1818C88.2509 62.5199 88.4469 63.6705 88.8389 64.6335C89.231 65.5881 89.7807 66.3253 90.4881 66.8452C91.204 67.3565 92.0435 67.6122 93.0065 67.6122C93.6884 67.6122 94.2977 67.4844 94.8347 67.2287C95.3801 66.9645 95.8361 66.5852 96.2026 66.0909C96.569 65.5966 96.8205 64.9957 96.9568 64.2884H101.38C101.269 65.6776 100.86 66.9091 100.153 67.983C99.4455 69.0483 98.4824 69.8835 97.2636 70.4886C96.0449 71.0852 94.6131 71.3835 92.9682 71.3835ZM113.026 71.3835C111.108 71.3835 109.446 70.9616 108.04 70.1179C106.633 69.2741 105.543 68.0937 104.767 66.5767C104 65.0597 103.616 63.2869 103.616 61.2585C103.616 59.2301 104 57.4531 104.767 55.9276C105.543 54.402 106.633 53.2173 108.04 52.3736C109.446 51.5298 111.108 51.108 113.026 51.108C114.943 51.108 116.605 51.5298 118.011 52.3736C119.418 53.2173 120.504 54.402 121.271 55.9276C122.047 57.4531 122.435 59.2301 122.435 61.2585C122.435 63.2869 122.047 65.0597 121.271 66.5767C120.504 68.0937 119.418 69.2741 118.011 70.1179C116.605 70.9616 114.943 71.3835 113.026 71.3835ZM113.051 67.6761C114.091 67.6761 114.96 67.3906 115.659 66.8196C116.358 66.2401 116.878 65.4645 117.219 64.4929C117.568 63.5213 117.743 62.4389 117.743 61.2457C117.743 60.044 117.568 58.9574 117.219 57.9858C116.878 57.0057 116.358 56.2259 115.659 55.6463C114.96 55.0668 114.091 54.777 113.051 54.777C111.986 54.777 111.099 55.0668 110.392 55.6463C109.693 56.2259 109.169 57.0057 108.82 57.9858C108.479 58.9574 108.308 60.044 108.308 61.2457C108.308 62.4389 108.479 63.5213 108.82 64.4929C109.169 65.4645 109.693 66.2401 110.392 66.8196C111.099 67.3906 111.986 67.6761 113.051 67.6761ZM142.514 51.3636L135.521 71H130.408L123.415 51.3636H128.35L132.862 65.9503H133.067L137.592 51.3636H142.514ZM153.022 71.3835C151.053 71.3835 149.353 70.9744 147.921 70.1562C146.498 69.3295 145.403 68.1619 144.636 66.6534C143.869 65.1364 143.485 63.3509 143.485 61.2969C143.485 59.277 143.869 57.5043 144.636 55.9787C145.411 54.4446 146.494 53.2514 147.883 52.3991C149.272 51.5384 150.904 51.108 152.779 51.108C153.989 51.108 155.131 51.304 156.205 51.696C157.288 52.0795 158.242 52.6761 159.069 53.4858C159.904 54.2955 160.56 55.3267 161.038 56.5795C161.515 57.8239 161.754 59.3068 161.754 61.0284V62.4474H145.658V59.3281H157.317C157.309 58.4418 157.117 57.6534 156.742 56.9631C156.367 56.2642 155.843 55.7145 155.17 55.3139C154.505 54.9134 153.729 54.7131 152.843 54.7131C151.897 54.7131 151.066 54.9432 150.35 55.4034C149.634 55.8551 149.076 56.4517 148.675 57.1932C148.283 57.9261 148.083 58.7315 148.075 59.6094V62.3324C148.075 63.4744 148.283 64.4545 148.701 65.2727C149.119 66.0824 149.702 66.7045 150.452 67.1392C151.202 67.5653 152.08 67.7784 153.086 67.7784C153.759 67.7784 154.369 67.6847 154.914 67.4972C155.459 67.3011 155.932 67.0156 156.333 66.6406C156.734 66.2656 157.036 65.8011 157.241 65.2472L161.562 65.733C161.289 66.875 160.769 67.8722 160.002 68.7244C159.244 69.5682 158.272 70.2244 157.087 70.6932C155.903 71.1534 154.548 71.3835 153.022 71.3835ZM164.949 71V51.3636H169.436V54.6364H169.64C169.998 53.5028 170.612 52.6293 171.481 52.0156C172.359 51.3935 173.361 51.0824 174.486 51.0824C174.741 51.0824 175.027 51.0952 175.342 51.1207C175.666 51.1378 175.934 51.1676 176.147 51.2102V55.4673C175.951 55.3991 175.64 55.3395 175.214 55.2884C174.797 55.2287 174.392 55.1989 174 55.1989C173.156 55.1989 172.397 55.3821 171.724 55.7486C171.059 56.1065 170.535 56.6051 170.152 57.2443C169.768 57.8835 169.576 58.6207 169.576 59.456V71H164.949ZM183.801 71.3963C182.557 71.3963 181.436 71.1747 180.439 70.7315C179.45 70.2798 178.666 69.6151 178.087 68.7372C177.516 67.8594 177.23 66.777 177.23 65.4901C177.23 64.3821 177.435 63.4659 177.844 62.7415C178.253 62.017 178.811 61.4375 179.518 61.0028C180.226 60.5682 181.023 60.2401 181.909 60.0185C182.804 59.7884 183.729 59.6222 184.683 59.5199C185.834 59.4006 186.767 59.294 187.483 59.2003C188.199 59.098 188.719 58.9446 189.043 58.7401C189.375 58.527 189.541 58.1989 189.541 57.7557V57.679C189.541 56.7159 189.256 55.9702 188.685 55.4418C188.114 54.9134 187.291 54.6491 186.217 54.6491C185.084 54.6491 184.185 54.8963 183.52 55.3906C182.864 55.8849 182.42 56.4687 182.19 57.142L177.869 56.5284C178.21 55.3352 178.773 54.3381 179.557 53.5369C180.341 52.7273 181.3 52.1222 182.433 51.7216C183.567 51.3125 184.82 51.108 186.192 51.108C187.138 51.108 188.079 51.2188 189.017 51.4403C189.954 51.6619 190.811 52.0284 191.587 52.5398C192.362 53.0426 192.984 53.7287 193.453 54.598C193.93 55.4673 194.169 56.554 194.169 57.858V71H189.72V68.3026H189.567C189.285 68.848 188.889 69.3594 188.378 69.8366C187.875 70.3054 187.24 70.6847 186.473 70.9744C185.714 71.2557 184.824 71.3963 183.801 71.3963ZM185.003 67.9957C185.932 67.9957 186.737 67.8125 187.419 67.446C188.101 67.071 188.625 66.5767 188.991 65.9631C189.366 65.3494 189.554 64.6804 189.554 63.956V61.642C189.409 61.7614 189.162 61.8722 188.812 61.9744C188.472 62.0767 188.088 62.1662 187.662 62.2429C187.236 62.3196 186.814 62.3878 186.396 62.4474C185.979 62.5071 185.616 62.5582 185.31 62.6009C184.619 62.6946 184.001 62.848 183.456 63.0611C182.91 63.2741 182.48 63.5724 182.165 63.956C181.849 64.331 181.692 64.8168 181.692 65.4134C181.692 66.2656 182.003 66.9091 182.625 67.3438C183.247 67.7784 184.04 67.9957 185.003 67.9957ZM206.642 78.7727C204.98 78.7727 203.553 78.5469 202.359 78.0952C201.166 77.652 200.207 77.0554 199.483 76.3054C198.759 75.5554 198.256 74.7244 197.975 73.8125L202.142 72.8026C202.33 73.1861 202.602 73.5653 202.96 73.9403C203.318 74.3239 203.8 74.6392 204.405 74.8864C205.019 75.142 205.79 75.2699 206.719 75.2699C208.031 75.2699 209.118 74.9503 209.979 74.3111C210.84 73.6804 211.27 72.6406 211.27 71.1918V67.4716H211.04C210.801 67.9489 210.452 68.4389 209.992 68.9418C209.54 69.4446 208.939 69.8665 208.189 70.2074C207.448 70.5483 206.514 70.7188 205.389 70.7188C203.881 70.7188 202.513 70.3651 201.286 69.6577C200.067 68.9418 199.095 67.8764 198.371 66.4616C197.655 65.0384 197.297 63.2571 197.297 61.1179C197.297 58.9616 197.655 57.142 198.371 55.6591C199.095 54.1676 200.071 53.0384 201.298 52.2713C202.526 51.4957 203.894 51.108 205.402 51.108C206.553 51.108 207.499 51.304 208.24 51.696C208.99 52.0795 209.587 52.544 210.03 53.0895C210.473 53.6264 210.81 54.1335 211.04 54.6108H211.296V51.3636H215.859V71.3196C215.859 72.9986 215.459 74.3878 214.658 75.4872C213.857 76.5866 212.761 77.4091 211.372 77.9545C209.983 78.5 208.406 78.7727 206.642 78.7727ZM206.68 67.0881C207.661 67.0881 208.496 66.8494 209.186 66.3722C209.877 65.8949 210.401 65.2088 210.759 64.3139C211.117 63.419 211.296 62.3452 211.296 61.0923C211.296 59.8565 211.117 58.7741 210.759 57.8452C210.409 56.9162 209.889 56.196 209.199 55.6847C208.517 55.1648 207.678 54.9048 206.68 54.9048C205.649 54.9048 204.788 55.1733 204.098 55.7102C203.408 56.2472 202.888 56.9844 202.538 57.9219C202.189 58.8509 202.014 59.9077 202.014 61.0923C202.014 62.294 202.189 63.3466 202.538 64.25C202.896 65.1449 203.421 65.8437 204.111 66.3466C204.81 66.8409 205.666 67.0881 206.68 67.0881ZM228.576 71.3835C226.607 71.3835 224.907 70.9744 223.475 70.1562C222.051 69.3295 220.956 68.1619 220.189 66.6534C219.422 65.1364 219.039 63.3509 219.039 61.2969C219.039 59.277 219.422 57.5043 220.189 55.9787C220.965 54.4446 222.047 53.2514 223.436 52.3991C224.826 51.5384 226.458 51.108 228.333 51.108C229.543 51.108 230.685 51.304 231.759 51.696C232.841 52.0795 233.796 52.6761 234.622 53.4858C235.458 54.2955 236.114 55.3267 236.591 56.5795C237.068 57.8239 237.307 59.3068 237.307 61.0284V62.4474H221.212V59.3281H232.871C232.862 58.4418 232.671 57.6534 232.296 56.9631C231.921 56.2642 231.397 55.7145 230.723 55.3139C230.059 54.9134 229.283 54.7131 228.397 54.7131C227.451 54.7131 226.62 54.9432 225.904 55.4034C225.188 55.8551 224.63 56.4517 224.229 57.1932C223.837 57.9261 223.637 58.7315 223.628 59.6094V62.3324C223.628 63.4744 223.837 64.4545 224.255 65.2727C224.672 66.0824 225.256 66.7045 226.006 67.1392C226.756 67.5653 227.634 67.7784 228.639 67.7784C229.313 67.7784 229.922 67.6847 230.468 67.4972C231.013 67.3011 231.486 67.0156 231.887 66.6406C232.287 66.2656 232.59 65.8011 232.794 65.2472L237.115 65.733C236.843 66.875 236.323 67.8722 235.556 68.7244C234.797 69.5682 233.826 70.2244 232.641 70.6932C231.456 71.1534 230.101 71.3835 228.576 71.3835ZM254.362 71.3963C253.118 71.3963 251.997 71.1747 251 70.7315C250.012 70.2798 249.228 69.6151 248.648 68.7372C248.077 67.8594 247.791 66.777 247.791 65.4901C247.791 64.3821 247.996 63.4659 248.405 62.7415C248.814 62.017 249.372 61.4375 250.08 61.0028C250.787 60.5682 251.584 60.2401 252.47 60.0185C253.365 59.7884 254.29 59.6222 255.245 59.5199C256.395 59.4006 257.328 59.294 258.044 59.2003C258.76 59.098 259.28 58.9446 259.604 58.7401C259.936 58.527 260.103 58.1989 260.103 57.7557V57.679C260.103 56.7159 259.817 55.9702 259.246 55.4418C258.675 54.9134 257.853 54.6491 256.779 54.6491C255.645 54.6491 254.746 54.8963 254.081 55.3906C253.425 55.8849 252.982 56.4687 252.752 57.142L248.431 56.5284C248.772 55.3352 249.334 54.3381 250.118 53.5369C250.902 52.7273 251.861 52.1222 252.995 51.7216C254.128 51.3125 255.381 51.108 256.753 51.108C257.699 51.108 258.641 51.2188 259.578 51.4403C260.516 51.6619 261.372 52.0284 262.148 52.5398C262.924 53.0426 263.546 53.7287 264.014 54.598C264.492 55.4673 264.73 56.554 264.73 57.858V71H260.282V68.3026H260.128C259.847 68.848 259.451 69.3594 258.939 69.8366C258.436 70.3054 257.801 70.6847 257.034 70.9744C256.276 71.2557 255.385 71.3963 254.362 71.3963ZM255.564 67.9957C256.493 67.9957 257.299 67.8125 257.98 67.446C258.662 67.071 259.186 66.5767 259.553 65.9631C259.928 65.3494 260.115 64.6804 260.115 63.956V61.642C259.97 61.7614 259.723 61.8722 259.374 61.9744C259.033 62.0767 258.649 62.1662 258.223 62.2429C257.797 62.3196 257.375 62.3878 256.958 62.4474C256.54 62.5071 256.178 62.5582 255.871 62.6009C255.181 62.6946 254.563 62.848 254.017 63.0611C253.472 63.2741 253.041 63.5724 252.726 63.956C252.411 64.331 252.253 64.8168 252.253 65.4134C252.253 66.2656 252.564 66.9091 253.186 67.3438C253.808 67.7784 254.601 67.9957 255.564 67.9957ZM273.292 59.4943V71H268.664V51.3636H273.087V54.7003H273.317C273.769 53.6009 274.489 52.7273 275.478 52.0795C276.475 51.4318 277.706 51.108 279.172 51.108C280.527 51.108 281.708 51.3977 282.714 51.9773C283.728 52.5568 284.512 53.3963 285.066 54.4957C285.628 55.5952 285.905 56.929 285.897 58.4972V71H281.269V59.2131C281.269 57.9006 280.928 56.8736 280.246 56.1321C279.573 55.3906 278.64 55.0199 277.446 55.0199C276.637 55.0199 275.917 55.1989 275.286 55.5568C274.664 55.9062 274.174 56.4134 273.816 57.0781C273.466 57.7429 273.292 58.5483 273.292 59.4943ZM297.168 71.3452C295.626 71.3452 294.245 70.9489 293.026 70.1562C291.807 69.3636 290.844 68.2131 290.137 66.7045C289.43 65.196 289.076 63.3636 289.076 61.2074C289.076 59.0256 289.434 57.1847 290.15 55.6847C290.874 54.1761 291.85 53.0384 293.077 52.2713C294.305 51.4957 295.672 51.108 297.181 51.108C298.332 51.108 299.278 51.304 300.019 51.696C300.761 52.0795 301.349 52.544 301.783 53.0895C302.218 53.6264 302.555 54.1335 302.793 54.6108H302.985V44.8182H307.626V71H303.074V67.9062H302.793C302.555 68.3835 302.209 68.8906 301.758 69.4276C301.306 69.956 300.709 70.4077 299.968 70.7827C299.226 71.1577 298.293 71.3452 297.168 71.3452ZM298.459 67.5483C299.44 67.5483 300.275 67.2841 300.965 66.7557C301.655 66.2187 302.18 65.473 302.538 64.5185C302.895 63.5639 303.074 62.4517 303.074 61.1818C303.074 59.9119 302.895 58.8082 302.538 57.8707C302.188 56.9332 301.668 56.2045 300.978 55.6847C300.296 55.1648 299.457 54.9048 298.459 54.9048C297.428 54.9048 296.567 55.1733 295.877 55.7102C295.187 56.2472 294.667 56.9886 294.317 57.9347C293.968 58.8807 293.793 59.9631 293.793 61.1818C293.793 62.4091 293.968 63.5043 294.317 64.4673C294.675 65.4219 295.199 66.1761 295.89 66.7301C296.589 67.2756 297.445 67.5483 298.459 67.5483ZM14.4815 122.364V111.906H14.2898C14.0511 112.384 13.706 112.891 13.2543 113.428C12.8026 113.956 12.206 114.408 11.4645 114.783C10.723 115.158 9.78977 115.345 8.66477 115.345C7.12216 115.345 5.74148 114.949 4.52273 114.156C3.30398 113.364 2.34091 112.213 1.63352 110.705C0.926136 109.196 0.572443 107.364 0.572443 105.207C0.572443 103.026 0.930398 101.185 1.64631 99.6847C2.37074 98.1761 3.34659 97.0384 4.57386 96.2713C5.80114 95.4957 7.16903 95.108 8.67756 95.108C9.82813 95.108 10.7741 95.304 11.5156 95.696C12.2571 96.0795 12.8452 96.544 13.2798 97.0895C13.7145 97.6264 14.0511 98.1335 14.2898 98.6108H14.571V95.3636H19.1222V122.364H14.4815ZM9.95597 111.548C10.9361 111.548 11.7713 111.284 12.4616 110.756C13.152 110.219 13.6761 109.473 14.0341 108.518C14.392 107.564 14.571 106.452 14.571 105.182C14.571 103.912 14.392 102.808 14.0341 101.871C13.6847 100.933 13.1648 100.205 12.4744 99.6847C11.7926 99.1648 10.9531 98.9048 9.95597 98.9048C8.92472 98.9048 8.06392 99.1733 7.37358 99.7102C6.68324 100.247 6.16335 100.989 5.81392 101.935C5.46449 102.881 5.28977 103.963 5.28977 105.182C5.28977 106.409 5.46449 107.504 5.81392 108.467C6.17188 109.422 6.69602 110.176 7.38636 110.73C8.08523 111.276 8.94176 111.548 9.95597 111.548ZM35.6735 106.741V95.3636H40.3013V115H35.8141V111.51H35.6095C35.1664 112.609 34.4377 113.509 33.4235 114.207C32.4178 114.906 31.1777 115.256 29.7033 115.256C28.4164 115.256 27.2786 114.97 26.2899 114.399C25.3098 113.82 24.5428 112.98 23.9888 111.881C23.4348 110.773 23.1578 109.435 23.1578 107.866V95.3636H27.7857V107.151C27.7857 108.395 28.1266 109.384 28.8084 110.116C29.4902 110.849 30.3851 111.216 31.4931 111.216C32.1749 111.216 32.8354 111.05 33.4746 110.717C34.1138 110.385 34.638 109.891 35.047 109.234C35.4647 108.57 35.6735 107.739 35.6735 106.741ZM49.9908 115.396C48.7464 115.396 47.6257 115.175 46.6285 114.732C45.6399 114.28 44.8558 113.615 44.2763 112.737C43.7052 111.859 43.4197 110.777 43.4197 109.49C43.4197 108.382 43.6243 107.466 44.0334 106.741C44.4425 106.017 45.0007 105.438 45.7081 105.003C46.4155 104.568 47.2123 104.24 48.0987 104.018C48.9936 103.788 49.9183 103.622 50.8729 103.52C52.0234 103.401 52.9567 103.294 53.6726 103.2C54.3885 103.098 54.9084 102.945 55.2322 102.74C55.5646 102.527 55.7308 102.199 55.7308 101.756V101.679C55.7308 100.716 55.4453 99.9702 54.8743 99.4418C54.3033 98.9134 53.4808 98.6491 52.4069 98.6491C51.2734 98.6491 50.3743 98.8963 49.7095 99.3906C49.0533 99.8849 48.6101 100.469 48.38 101.142L44.0589 100.528C44.3998 99.3352 44.9623 98.3381 45.7464 97.5369C46.5305 96.7273 47.4893 96.1222 48.6229 95.7216C49.7564 95.3125 51.0092 95.108 52.3814 95.108C53.3274 95.108 54.2692 95.2188 55.2067 95.4403C56.1442 95.6619 57.0007 96.0284 57.7763 96.5398C58.5518 97.0426 59.174 97.7287 59.6427 98.598C60.12 99.4673 60.3587 100.554 60.3587 101.858V115H55.9098V112.303H55.7564C55.4751 112.848 55.0788 113.359 54.5675 113.837C54.0646 114.305 53.4297 114.685 52.6626 114.974C51.9041 115.256 51.0135 115.396 49.9908 115.396ZM51.1925 111.996C52.1214 111.996 52.9268 111.812 53.6087 111.446C54.2905 111.071 54.8146 110.577 55.1811 109.963C55.5561 109.349 55.7436 108.68 55.7436 107.956V105.642C55.5987 105.761 55.3516 105.872 55.0021 105.974C54.6612 106.077 54.2777 106.166 53.8515 106.243C53.4254 106.32 53.0035 106.388 52.5859 106.447C52.1683 106.507 51.8061 106.558 51.4993 106.601C50.8089 106.695 50.191 106.848 49.6456 107.061C49.1001 107.274 48.6697 107.572 48.3544 107.956C48.0391 108.331 47.8814 108.817 47.8814 109.413C47.8814 110.266 48.1925 110.909 48.8146 111.344C49.4368 111.778 50.2294 111.996 51.1925 111.996ZM68.9199 88.8182V115H64.2921V88.8182H68.9199ZM72.9588 115V95.3636H77.5866V115H72.9588ZM75.2855 92.5767C74.5525 92.5767 73.9218 92.3338 73.3934 91.848C72.865 91.3537 72.6008 90.7614 72.6008 90.071C72.6008 89.3722 72.865 88.7798 73.3934 88.294C73.9218 87.7997 74.5525 87.5526 75.2855 87.5526C76.027 87.5526 76.6576 87.7997 77.1775 88.294C77.7059 88.7798 77.9701 89.3722 77.9701 90.071C77.9701 90.7614 77.7059 91.3537 77.1775 91.848C76.6576 92.3338 76.027 92.5767 75.2855 92.5767ZM91.4309 95.3636V98.9432H80.1425V95.3636H91.4309ZM82.9295 90.6591H87.5573V109.094C87.5573 109.716 87.6511 110.193 87.8386 110.526C88.0346 110.849 88.2903 111.071 88.6056 111.19C88.921 111.31 89.2704 111.369 89.6539 111.369C89.9437 111.369 90.2079 111.348 90.4465 111.305C90.6937 111.263 90.8812 111.224 91.009 111.19L91.7889 114.808C91.5417 114.893 91.188 114.987 90.7278 115.089C90.2761 115.192 89.7221 115.251 89.0658 115.268C87.9067 115.303 86.8627 115.128 85.9337 114.744C85.0048 114.352 84.2675 113.747 83.7221 112.929C83.1852 112.111 82.921 111.088 82.9295 109.861V90.6591ZM97.4577 122.364C96.827 122.364 96.2432 122.313 95.7063 122.21C95.1779 122.116 94.756 122.006 94.4407 121.878L95.5145 118.273C96.1878 118.469 96.7887 118.563 97.3171 118.554C97.8455 118.545 98.31 118.379 98.7105 118.055C99.1196 117.74 99.4648 117.212 99.7461 116.47L100.142 115.409L93.0216 95.3636H97.9307L102.456 110.193H102.661L107.199 95.3636H112.121L104.259 117.378C103.892 118.418 103.407 119.308 102.801 120.05C102.196 120.8 101.455 121.371 100.577 121.763C99.7077 122.163 98.6679 122.364 97.4577 122.364ZM132.619 95.3636V98.9432H121.33V95.3636H132.619ZM124.117 90.6591H128.745V109.094C128.745 109.716 128.839 110.193 129.026 110.526C129.222 110.849 129.478 111.071 129.793 111.19C130.109 111.31 130.458 111.369 130.842 111.369C131.131 111.369 131.396 111.348 131.634 111.305C131.881 111.263 132.069 111.224 132.197 111.19L132.977 114.808C132.729 114.893 132.376 114.987 131.915 115.089C131.464 115.192 130.91 115.251 130.253 115.268C129.094 115.303 128.05 115.128 127.121 114.744C126.192 114.352 125.455 113.747 124.91 112.929C124.373 112.111 124.109 111.088 124.117 109.861V90.6591ZM144.123 115.384C142.206 115.384 140.544 114.962 139.138 114.118C137.731 113.274 136.64 112.094 135.865 110.577C135.098 109.06 134.714 107.287 134.714 105.259C134.714 103.23 135.098 101.453 135.865 99.9276C136.64 98.402 137.731 97.2173 139.138 96.3736C140.544 95.5298 142.206 95.108 144.123 95.108C146.041 95.108 147.703 95.5298 149.109 96.3736C150.515 97.2173 151.602 98.402 152.369 99.9276C153.145 101.453 153.532 103.23 153.532 105.259C153.532 107.287 153.145 109.06 152.369 110.577C151.602 112.094 150.515 113.274 149.109 114.118C147.703 114.962 146.041 115.384 144.123 115.384ZM144.149 111.676C145.189 111.676 146.058 111.391 146.757 110.82C147.456 110.24 147.976 109.464 148.317 108.493C148.666 107.521 148.841 106.439 148.841 105.246C148.841 104.044 148.666 102.957 148.317 101.986C147.976 101.006 147.456 100.226 146.757 99.6463C146.058 99.0668 145.189 98.777 144.149 98.777C143.084 98.777 142.197 99.0668 141.49 99.6463C140.791 100.226 140.267 101.006 139.917 101.986C139.576 102.957 139.406 104.044 139.406 105.246C139.406 106.439 139.576 107.521 139.917 108.493C140.267 109.464 140.791 110.24 141.49 110.82C142.197 111.391 143.084 111.676 144.149 111.676ZM165.28 122.773C163.618 122.773 162.191 122.547 160.997 122.095C159.804 121.652 158.845 121.055 158.121 120.305C157.397 119.555 156.894 118.724 156.613 117.812L160.78 116.803C160.968 117.186 161.24 117.565 161.598 117.94C161.956 118.324 162.438 118.639 163.043 118.886C163.657 119.142 164.428 119.27 165.357 119.27C166.669 119.27 167.756 118.95 168.617 118.311C169.478 117.68 169.908 116.641 169.908 115.192V111.472H169.678C169.439 111.949 169.09 112.439 168.63 112.942C168.178 113.445 167.577 113.866 166.827 114.207C166.086 114.548 165.152 114.719 164.027 114.719C162.519 114.719 161.151 114.365 159.924 113.658C158.705 112.942 157.733 111.876 157.009 110.462C156.293 109.038 155.935 107.257 155.935 105.118C155.935 102.962 156.293 101.142 157.009 99.6591C157.733 98.1676 158.709 97.0384 159.936 96.2713C161.164 95.4957 162.532 95.108 164.04 95.108C165.191 95.108 166.137 95.304 166.878 95.696C167.628 96.0795 168.225 96.544 168.668 97.0895C169.111 97.6264 169.448 98.1335 169.678 98.6108H169.934V95.3636H174.497V115.32C174.497 116.999 174.097 118.388 173.296 119.487C172.495 120.587 171.399 121.409 170.01 121.955C168.621 122.5 167.044 122.773 165.28 122.773ZM165.318 111.088C166.299 111.088 167.134 110.849 167.824 110.372C168.514 109.895 169.039 109.209 169.397 108.314C169.755 107.419 169.934 106.345 169.934 105.092C169.934 103.857 169.755 102.774 169.397 101.845C169.047 100.916 168.527 100.196 167.837 99.6847C167.155 99.1648 166.316 98.9048 165.318 98.9048C164.287 98.9048 163.426 99.1733 162.736 99.7102C162.046 100.247 161.526 100.984 161.176 101.922C160.827 102.851 160.652 103.908 160.652 105.092C160.652 106.294 160.827 107.347 161.176 108.25C161.534 109.145 162.059 109.844 162.749 110.347C163.448 110.841 164.304 111.088 165.318 111.088ZM187.214 115.384C185.245 115.384 183.544 114.974 182.113 114.156C180.689 113.33 179.594 112.162 178.827 110.653C178.06 109.136 177.677 107.351 177.677 105.297C177.677 103.277 178.06 101.504 178.827 99.9787C179.603 98.4446 180.685 97.2514 182.074 96.3991C183.464 95.5384 185.096 95.108 186.971 95.108C188.181 95.108 189.323 95.304 190.397 95.696C191.479 96.0795 192.434 96.6761 193.26 97.4858C194.096 98.2955 194.752 99.3267 195.229 100.58C195.706 101.824 195.945 103.307 195.945 105.028V106.447H179.85V103.328H191.509C191.5 102.442 191.309 101.653 190.934 100.963C190.559 100.264 190.035 99.7145 189.361 99.3139C188.696 98.9134 187.921 98.7131 187.035 98.7131C186.089 98.7131 185.258 98.9432 184.542 99.4034C183.826 99.8551 183.268 100.452 182.867 101.193C182.475 101.926 182.275 102.732 182.266 103.609V106.332C182.266 107.474 182.475 108.455 182.893 109.273C183.31 110.082 183.894 110.705 184.644 111.139C185.394 111.565 186.272 111.778 187.277 111.778C187.951 111.778 188.56 111.685 189.106 111.497C189.651 111.301 190.124 111.016 190.525 110.641C190.925 110.266 191.228 109.801 191.432 109.247L195.753 109.733C195.481 110.875 194.961 111.872 194.194 112.724C193.435 113.568 192.464 114.224 191.279 114.693C190.094 115.153 188.739 115.384 187.214 115.384ZM208.946 95.3636V98.9432H197.657V95.3636H208.946ZM200.444 90.6591H205.072V109.094C205.072 109.716 205.166 110.193 205.353 110.526C205.549 110.849 205.805 111.071 206.12 111.19C206.436 111.31 206.785 111.369 207.169 111.369C207.458 111.369 207.723 111.348 207.961 111.305C208.208 111.263 208.396 111.224 208.524 111.19L209.304 114.808C209.056 114.893 208.703 114.987 208.242 115.089C207.791 115.192 207.237 115.251 206.581 115.268C205.421 115.303 204.377 115.128 203.448 114.744C202.519 114.352 201.782 113.747 201.237 112.929C200.7 112.111 200.436 111.088 200.444 109.861V90.6591ZM217.146 103.494V115H212.518V88.8182H217.043V98.7003H217.274C217.734 97.5923 218.445 96.7187 219.408 96.0795C220.38 95.4318 221.616 95.108 223.116 95.108C224.479 95.108 225.668 95.3935 226.683 95.9645C227.697 96.5355 228.481 97.3707 229.035 98.4702C229.597 99.5696 229.879 100.912 229.879 102.497V115H225.251V103.213C225.251 101.892 224.91 100.865 224.228 100.132C223.555 99.3906 222.609 99.0199 221.39 99.0199C220.572 99.0199 219.839 99.1989 219.191 99.5568C218.552 99.9062 218.049 100.413 217.683 101.078C217.325 101.743 217.146 102.548 217.146 103.494ZM242.569 115.384C240.6 115.384 238.9 114.974 237.468 114.156C236.045 113.33 234.95 112.162 234.183 110.653C233.416 109.136 233.032 107.351 233.032 105.297C233.032 103.277 233.416 101.504 234.183 99.9787C234.958 98.4446 236.041 97.2514 237.43 96.3991C238.819 95.5384 240.451 95.108 242.326 95.108C243.536 95.108 244.679 95.304 245.752 95.696C246.835 96.0795 247.789 96.6761 248.616 97.4858C249.451 98.2955 250.107 99.3267 250.585 100.58C251.062 101.824 251.301 103.307 251.301 105.028V106.447H235.206V103.328H246.865C246.856 102.442 246.664 101.653 246.289 100.963C245.914 100.264 245.39 99.7145 244.717 99.3139C244.052 98.9134 243.277 98.7131 242.39 98.7131C241.444 98.7131 240.613 98.9432 239.897 99.4034C239.181 99.8551 238.623 100.452 238.223 101.193C237.831 101.926 237.63 102.732 237.622 103.609V106.332C237.622 107.474 237.831 108.455 238.248 109.273C238.666 110.082 239.25 110.705 240 111.139C240.75 111.565 241.627 111.778 242.633 111.778C243.306 111.778 243.916 111.685 244.461 111.497C245.007 111.301 245.48 111.016 245.88 110.641C246.281 110.266 246.583 109.801 246.788 109.247L251.109 109.733C250.836 110.875 250.316 111.872 249.549 112.724C248.791 113.568 247.819 114.224 246.634 114.693C245.45 115.153 244.095 115.384 242.569 115.384ZM254.496 115V95.3636H258.983V98.6364H259.188C259.546 97.5028 260.159 96.6293 261.028 96.0156C261.906 95.3935 262.908 95.0824 264.033 95.0824C264.288 95.0824 264.574 95.0952 264.889 95.1207C265.213 95.1378 265.482 95.1676 265.695 95.2102V99.4673C265.499 99.3991 265.188 99.3395 264.761 99.2884C264.344 99.2287 263.939 99.1989 263.547 99.1989C262.703 99.1989 261.945 99.3821 261.271 99.7486C260.607 100.107 260.082 100.605 259.699 101.244C259.315 101.884 259.124 102.621 259.124 103.456V115H254.496Z" fill="white"/>
<path d="M6.32528 0.818181V27H1.58239V0.818181H6.32528ZM10.5367 27V7.36364H14.96V10.7003H15.1902C15.5992 9.57528 16.2768 8.69744 17.2228 8.06676C18.1688 7.42756 19.2981 7.10795 20.6106 7.10795C21.9402 7.10795 23.0609 7.43182 23.9728 8.07955C24.8933 8.71875 25.541 9.59233 25.916 10.7003H26.1206C26.5552 9.60937 27.2882 8.74006 28.3194 8.09233C29.3592 7.43608 30.5907 7.10795 32.014 7.10795C33.8208 7.10795 35.2953 7.67898 36.4373 8.82102C37.5794 9.96307 38.1504 11.6293 38.1504 13.8196V27H33.5098V14.5355C33.5098 13.3168 33.1859 12.4261 32.5382 11.8636C31.8904 11.2926 31.0978 11.0071 30.1603 11.0071C29.0438 11.0071 28.1703 11.3565 27.5396 12.0554C26.9174 12.7457 26.6063 13.6449 26.6063 14.7528V27H22.068V14.3438C22.068 13.3295 21.7612 12.5199 21.1475 11.9148C20.5424 11.3097 19.7498 11.0071 18.7697 11.0071C18.1049 11.0071 17.4998 11.1776 16.9544 11.5185C16.4089 11.8509 15.9742 12.3239 15.6504 12.9375C15.3265 13.5426 15.1646 14.25 15.1646 15.0597V27H10.5367ZM42.1253 34.3636V7.36364H46.6765V10.6108H46.9449C47.1836 10.1335 47.5202 9.62642 47.9549 9.08949C48.3895 8.54403 48.9776 8.07954 49.7191 7.69602C50.4606 7.30398 51.4066 7.10795 52.5572 7.10795C54.0742 7.10795 55.4421 7.49574 56.6609 8.27131C57.8881 9.03835 58.8597 10.1761 59.5756 11.6847C60.3001 13.1847 60.6623 15.0256 60.6623 17.2074C60.6623 19.3636 60.3086 21.196 59.6012 22.7045C58.8938 24.2131 57.9307 25.3636 56.712 26.1562C55.4932 26.9489 54.1126 27.3452 52.5699 27.3452C51.4449 27.3452 50.5117 27.1577 49.7702 26.7827C49.0288 26.4077 48.4322 25.956 47.9805 25.4276C47.5373 24.8906 47.1921 24.3835 46.9449 23.9062H46.7532V34.3636H42.1253ZM46.6637 17.1818C46.6637 18.4517 46.8427 19.5639 47.2006 20.5185C47.5671 21.473 48.0913 22.2187 48.7731 22.7557C49.4634 23.2841 50.2986 23.5483 51.2788 23.5483C52.3015 23.5483 53.158 23.2756 53.8484 22.7301C54.5387 22.1761 55.0586 21.4219 55.408 20.4673C55.766 19.5043 55.9449 18.4091 55.9449 17.1818C55.9449 15.9631 55.7702 14.8807 55.4208 13.9347C55.0714 12.9886 54.5515 12.2472 53.8611 11.7102C53.1708 11.1733 52.31 10.9048 51.2788 10.9048C50.2901 10.9048 49.4506 11.1648 48.7603 11.6847C48.0699 12.2045 47.5458 12.9332 47.1878 13.8707C46.8384 14.8082 46.6637 15.9119 46.6637 17.1818ZM63.9053 27V7.36364H68.3926V10.6364H68.5971C68.9551 9.50284 69.5687 8.62926 70.438 8.01562C71.3159 7.39347 72.3173 7.08239 73.4423 7.08239C73.698 7.08239 73.9835 7.09517 74.2988 7.12074C74.6227 7.13778 74.8911 7.16761 75.1042 7.21023V11.4673C74.9082 11.3991 74.5971 11.3395 74.171 11.2884C73.7534 11.2287 73.3485 11.1989 72.9565 11.1989C72.1127 11.1989 71.3542 11.3821 70.6809 11.7486C70.0161 12.1065 69.492 12.6051 69.1085 13.2443C68.7249 13.8835 68.5332 14.6207 68.5332 15.456V27H63.9053ZM85.2155 27.3835C83.2979 27.3835 81.636 26.9616 80.2297 26.1179C78.8235 25.2741 77.7326 24.0937 76.957 22.5767C76.19 21.0597 75.8064 19.2869 75.8064 17.2585C75.8064 15.2301 76.19 13.4531 76.957 11.9276C77.7326 10.402 78.8235 9.21733 80.2297 8.37358C81.636 7.52983 83.2979 7.10795 85.2155 7.10795C87.1331 7.10795 88.7951 7.52983 90.2013 8.37358C91.6076 9.21733 92.6942 10.402 93.4613 11.9276C94.2368 13.4531 94.6246 15.2301 94.6246 17.2585C94.6246 19.2869 94.2368 21.0597 93.4613 22.5767C92.6942 24.0937 91.6076 25.2741 90.2013 26.1179C88.7951 26.9616 87.1331 27.3835 85.2155 27.3835ZM85.2411 23.6761C86.2809 23.6761 87.1502 23.3906 87.8491 22.8196C88.5479 22.2401 89.0678 21.4645 89.4087 20.4929C89.7581 19.5213 89.9329 18.4389 89.9329 17.2457C89.9329 16.044 89.7581 14.9574 89.4087 13.9858C89.0678 13.0057 88.5479 12.2259 87.8491 11.6463C87.1502 11.0668 86.2809 10.777 85.2411 10.777C84.1758 10.777 83.2894 11.0668 82.582 11.6463C81.8831 12.2259 81.359 13.0057 81.0096 13.9858C80.6687 14.9574 80.4982 16.044 80.4982 17.2457C80.4982 18.4389 80.6687 19.5213 81.0096 20.4929C81.359 21.4645 81.8831 22.2401 82.582 22.8196C83.2894 23.3906 84.1758 23.6761 85.2411 23.6761ZM114.704 7.36364L107.711 27H102.598L95.6049 7.36364H100.54L105.052 21.9503H105.257L109.782 7.36364H114.704ZM125.212 27.3835C123.243 27.3835 121.543 26.9744 120.111 26.1562C118.688 25.3295 117.593 24.1619 116.826 22.6534C116.059 21.1364 115.675 19.3509 115.675 17.2969C115.675 15.277 116.059 13.5043 116.826 11.9787C117.601 10.4446 118.684 9.25142 120.073 8.39915C121.462 7.53835 123.094 7.10795 124.969 7.10795C126.179 7.10795 127.321 7.30398 128.395 7.69602C129.478 8.07954 130.432 8.67614 131.259 9.4858C132.094 10.2955 132.75 11.3267 133.228 12.5795C133.705 13.8239 133.943 15.3068 133.943 17.0284V18.4474H117.848V15.3281H129.507C129.499 14.4418 129.307 13.6534 128.932 12.9631C128.557 12.2642 128.033 11.7145 127.36 11.3139C126.695 10.9134 125.919 10.7131 125.033 10.7131C124.087 10.7131 123.256 10.9432 122.54 11.4034C121.824 11.8551 121.266 12.4517 120.865 13.1932C120.473 13.9261 120.273 14.7315 120.265 15.6094V18.3324C120.265 19.4744 120.473 20.4545 120.891 21.2727C121.309 22.0824 121.892 22.7045 122.642 23.1392C123.392 23.5653 124.27 23.7784 125.276 23.7784C125.949 23.7784 126.559 23.6847 127.104 23.4972C127.649 23.3011 128.122 23.0156 128.523 22.6406C128.924 22.2656 129.226 21.8011 129.431 21.2472L133.752 21.733C133.479 22.875 132.959 23.8722 132.192 24.7244C131.434 25.5682 130.462 26.2244 129.277 26.6932C128.093 27.1534 126.738 27.3835 125.212 27.3835ZM151.063 27L143.674 0.818181H148.774L153.492 20.0582H153.735L158.772 0.818181H163.412L168.462 20.071H168.692L173.409 0.818181H178.51L171.121 27H166.442L161.201 8.62926H160.996L155.742 27H151.063ZM187.564 27.3835C185.595 27.3835 183.895 26.9744 182.463 26.1562C181.04 25.3295 179.944 24.1619 179.177 22.6534C178.41 21.1364 178.027 19.3509 178.027 17.2969C178.027 15.277 178.41 13.5043 179.177 11.9787C179.953 10.4446 181.035 9.25142 182.424 8.39915C183.814 7.53835 185.446 7.10795 187.321 7.10795C188.531 7.10795 189.673 7.30398 190.747 7.69602C191.829 8.07954 192.784 8.67614 193.611 9.4858C194.446 10.2955 195.102 11.3267 195.579 12.5795C196.057 13.8239 196.295 15.3068 196.295 17.0284V18.4474H180.2V15.3281H191.859C191.851 14.4418 191.659 13.6534 191.284 12.9631C190.909 12.2642 190.385 11.7145 189.711 11.3139C189.047 10.9134 188.271 10.7131 187.385 10.7131C186.439 10.7131 185.608 10.9432 184.892 11.4034C184.176 11.8551 183.618 12.4517 183.217 13.1932C182.825 13.9261 182.625 14.7315 182.616 15.6094V18.3324C182.616 19.4744 182.825 20.4545 183.243 21.2727C183.66 22.0824 184.244 22.7045 184.994 23.1392C185.744 23.5653 186.622 23.7784 187.628 23.7784C188.301 23.7784 188.91 23.6847 189.456 23.4972C190.001 23.3011 190.474 23.0156 190.875 22.6406C191.275 22.2656 191.578 21.8011 191.782 21.2472L196.103 21.733C195.831 22.875 195.311 23.8722 194.544 24.7244C193.785 25.5682 192.814 26.2244 191.629 26.6932C190.444 27.1534 189.089 27.3835 187.564 27.3835ZM199.695 27V0.818181H204.323V10.6108H204.514C204.753 10.1335 205.09 9.62642 205.524 9.08949C205.959 8.54403 206.547 8.07954 207.289 7.69602C208.03 7.30398 208.976 7.10795 210.127 7.10795C211.644 7.10795 213.012 7.49574 214.23 8.27131C215.458 9.03835 216.429 10.1761 217.145 11.6847C217.87 13.1847 218.232 15.0256 218.232 17.2074C218.232 19.3636 217.878 21.196 217.171 22.7045C216.463 24.2131 215.5 25.3636 214.282 26.1562C213.063 26.9489 211.682 27.3452 210.139 27.3452C209.014 27.3452 208.081 27.1577 207.34 26.7827C206.598 26.4077 206.002 25.956 205.55 25.4276C205.107 24.8906 204.762 24.3835 204.514 23.9062H204.246V27H199.695ZM204.233 17.1818C204.233 18.4517 204.412 19.5639 204.77 20.5185C205.137 21.473 205.661 22.2187 206.343 22.7557C207.033 23.2841 207.868 23.5483 208.848 23.5483C209.871 23.5483 210.728 23.2756 211.418 22.7301C212.108 22.1761 212.628 21.4219 212.978 20.4673C213.336 19.5043 213.514 18.4091 213.514 17.1818C213.514 15.9631 213.34 14.8807 212.99 13.9347C212.641 12.9886 212.121 12.2472 211.431 11.7102C210.74 11.1733 209.88 10.9048 208.848 10.9048C207.86 10.9048 207.02 11.1648 206.33 11.6847C205.639 12.2045 205.115 12.9332 204.757 13.8707C204.408 14.8082 204.233 15.9119 204.233 17.1818ZM230.791 27.358C228.95 27.358 227.314 27.0426 225.882 26.4119C224.459 25.7812 223.334 24.9034 222.507 23.7784C221.68 22.6534 221.242 21.3537 221.19 19.8793H225.997C226.04 20.5866 226.274 21.2045 226.7 21.733C227.127 22.2528 227.693 22.6577 228.401 22.9474C229.108 23.2372 229.901 23.3821 230.779 23.3821C231.716 23.3821 232.547 23.2202 233.271 22.8963C233.996 22.5639 234.563 22.1037 234.972 21.5156C235.381 20.9276 235.581 20.25 235.573 19.483C235.581 18.6903 235.377 17.9915 234.959 17.3864C234.541 16.7812 233.936 16.3082 233.144 15.9673C232.359 15.6264 231.413 15.456 230.305 15.456H227.992V11.7997H230.305C231.217 11.7997 232.014 11.642 232.696 11.3267C233.386 11.0114 233.928 10.5682 234.32 9.99716C234.712 9.41761 234.904 8.74858 234.895 7.99006C234.904 7.24858 234.737 6.60511 234.396 6.05966C234.064 5.50568 233.591 5.07528 232.977 4.76847C232.372 4.46165 231.661 4.30824 230.842 4.30824C230.041 4.30824 229.3 4.45312 228.618 4.7429C227.936 5.03267 227.386 5.44602 226.969 5.98295C226.551 6.51136 226.33 7.14204 226.304 7.875H221.74C221.774 6.40909 222.196 5.12216 223.006 4.0142C223.824 2.89773 224.915 2.02841 226.279 1.40625C227.642 0.775568 229.172 0.460226 230.868 0.460226C232.615 0.460226 234.132 0.788351 235.419 1.4446C236.715 2.09233 237.716 2.96591 238.423 4.06534C239.131 5.16477 239.484 6.37926 239.484 7.70881C239.493 9.18324 239.058 10.419 238.18 11.4162C237.311 12.4134 236.169 13.0653 234.754 13.3722V13.5767C236.595 13.8324 238.006 14.5142 238.986 15.6222C239.975 16.7216 240.465 18.0895 240.456 19.7259C240.456 21.1918 240.038 22.5043 239.203 23.6634C238.377 24.8139 237.234 25.7173 235.777 26.3736C234.328 27.0298 232.666 27.358 230.791 27.358ZM8.66477 71.3452C7.12216 71.3452 5.74148 70.9489 4.52273 70.1562C3.30398 69.3636 2.34091 68.2131 1.63352 66.7045C0.926136 65.196 0.572443 63.3636 0.572443 61.2074C0.572443 59.0256 0.930398 57.1847 1.64631 55.6847C2.37074 54.1761 3.34659 53.0384 4.57386 52.2713C5.80114 51.4957 7.16903 51.108 8.67756 51.108C9.82813 51.108 10.7741 51.304 11.5156 51.696C12.2571 52.0795 12.8452 52.544 13.2798 53.0895C13.7145 53.6264 14.0511 54.1335 14.2898 54.6108H14.4815V44.8182H19.1222V71H14.571V67.9062H14.2898C14.0511 68.3835 13.706 68.8906 13.2543 69.4276C12.8026 69.956 12.206 70.4077 11.4645 70.7827C10.723 71.1577 9.78977 71.3452 8.66477 71.3452ZM9.95597 67.5483C10.9361 67.5483 11.7713 67.2841 12.4616 66.7557C13.152 66.2187 13.6761 65.473 14.0341 64.5185C14.392 63.5639 14.571 62.4517 14.571 61.1818C14.571 59.9119 14.392 58.8082 14.0341 57.8707C13.6847 56.9332 13.1648 56.2045 12.4744 55.6847C11.7926 55.1648 10.9531 54.9048 9.95597 54.9048C8.92472 54.9048 8.06392 55.1733 7.37358 55.7102C6.68324 56.2472 6.16335 56.9886 5.81392 57.9347C5.46449 58.8807 5.28977 59.9631 5.28977 61.1818C5.28977 62.4091 5.46449 63.5043 5.81392 64.4673C6.17188 65.4219 6.69602 66.1761 7.38636 66.7301C8.08523 67.2756 8.94176 67.5483 9.95597 67.5483ZM28.9842 71.3963C27.7399 71.3963 26.6191 71.1747 25.622 70.7315C24.6333 70.2798 23.8492 69.6151 23.2697 68.7372C22.6987 67.8594 22.4132 66.777 22.4132 65.4901C22.4132 64.3821 22.6177 63.4659 23.0268 62.7415C23.4359 62.017 23.9941 61.4375 24.7015 61.0028C25.4089 60.5682 26.2058 60.2401 27.0921 60.0185C27.987 59.7884 28.9117 59.6222 29.8663 59.5199C31.0169 59.4006 31.9501 59.294 32.666 59.2003C33.3819 59.098 33.9018 58.9446 34.2257 58.7401C34.5581 58.527 34.7242 58.1989 34.7242 57.7557V57.679C34.7242 56.7159 34.4387 55.9702 33.8677 55.4418C33.2967 54.9134 32.4742 54.6491 31.4004 54.6491C30.2669 54.6491 29.3677 54.8963 28.7029 55.3906C28.0467 55.8849 27.6035 56.4687 27.3734 57.142L23.0524 56.5284C23.3933 55.3352 23.9558 54.3381 24.7399 53.5369C25.524 52.7273 26.4828 52.1222 27.6163 51.7216C28.7498 51.3125 30.0027 51.108 31.3748 51.108C32.3208 51.108 33.2626 51.2188 34.2001 51.4403C35.1376 51.6619 35.9941 52.0284 36.7697 52.5398C37.5453 53.0426 38.1674 53.7287 38.6362 54.598C39.1135 55.4673 39.3521 56.554 39.3521 57.858V71H34.9032V68.3026H34.7498C34.4686 68.848 34.0723 69.3594 33.5609 69.8366C33.0581 70.3054 32.4231 70.6847 31.6561 70.9744C30.8975 71.2557 30.0069 71.3963 28.9842 71.3963ZM30.1859 67.9957C31.1149 67.9957 31.9203 67.8125 32.6021 67.446C33.2839 67.071 33.8081 66.5767 34.1745 65.9631C34.5495 65.3494 34.737 64.6804 34.737 63.956V61.642C34.5921 61.7614 34.345 61.8722 33.9956 61.9744C33.6546 62.0767 33.2711 62.1662 32.845 62.2429C32.4189 62.3196 31.997 62.3878 31.5794 62.4474C31.1617 62.5071 30.7995 62.5582 30.4927 62.6009C29.8024 62.6946 29.1845 62.848 28.639 63.0611C28.0936 63.2741 27.6632 63.5724 27.3478 63.956C27.0325 64.331 26.8748 64.8168 26.8748 65.4134C26.8748 66.2656 27.1859 66.9091 27.8081 67.3438C28.4302 67.7784 29.2228 67.9957 30.1859 67.9957ZM53.0909 51.3636V54.9432H41.8025V51.3636H53.0909ZM44.5895 46.6591H49.2173V65.0938C49.2173 65.7159 49.3111 66.1932 49.4986 66.5256C49.6946 66.8494 49.9503 67.071 50.2656 67.1903C50.581 67.3097 50.9304 67.3693 51.3139 67.3693C51.6037 67.3693 51.8679 67.348 52.1065 67.3054C52.3537 67.2628 52.5412 67.2244 52.669 67.1903L53.4489 70.8082C53.2017 70.8935 52.848 70.9872 52.3878 71.0895C51.9361 71.1918 51.3821 71.2514 50.7258 71.2685C49.5667 71.3026 48.5227 71.1278 47.5937 70.7443C46.6648 70.3523 45.9275 69.7472 45.3821 68.929C44.8452 68.1108 44.581 67.0881 44.5895 65.8608V46.6591ZM61.8918 71.3963C60.6475 71.3963 59.5268 71.1747 58.5296 70.7315C57.541 70.2798 56.7569 69.6151 56.1774 68.7372C55.6063 67.8594 55.3208 66.777 55.3208 65.4901C55.3208 64.3821 55.5254 63.4659 55.9345 62.7415C56.3436 62.017 56.9018 61.4375 57.6092 61.0028C58.3166 60.5682 59.1134 60.2401 59.9998 60.0185C60.8947 59.7884 61.8194 59.6222 62.7739 59.5199C63.9245 59.4006 64.8578 59.294 65.5737 59.2003C66.2896 59.098 66.8095 58.9446 67.1333 58.7401C67.4657 58.527 67.6319 58.1989 67.6319 57.7557V57.679C67.6319 56.7159 67.3464 55.9702 66.7754 55.4418C66.2043 54.9134 65.3819 54.6491 64.308 54.6491C63.1745 54.6491 62.2754 54.8963 61.6106 55.3906C60.9543 55.8849 60.5112 56.4687 60.2811 57.142L55.96 56.5284C56.3009 55.3352 56.8634 54.3381 57.6475 53.5369C58.4316 52.7273 59.3904 52.1222 60.5239 51.7216C61.6575 51.3125 62.9103 51.108 64.2825 51.108C65.2285 51.108 66.1703 51.2188 67.1078 51.4403C68.0453 51.6619 68.9018 52.0284 69.6774 52.5398C70.4529 53.0426 71.0751 53.7287 71.5438 54.598C72.0211 55.4673 72.2597 56.554 72.2597 57.858V71H67.8109V68.3026H67.6575C67.3762 68.848 66.9799 69.3594 66.4686 69.8366C65.9657 70.3054 65.3308 70.6847 64.5637 70.9744C63.8052 71.2557 62.9146 71.3963 61.8918 71.3963ZM63.0936 67.9957C64.0225 67.9957 64.8279 67.8125 65.5097 67.446C66.1916 67.071 66.7157 66.5767 67.0822 65.9631C67.4572 65.3494 67.6447 64.6804 67.6447 63.956V61.642C67.4998 61.7614 67.2526 61.8722 66.9032 61.9744C66.5623 62.0767 66.1788 62.1662 65.7526 62.2429C65.3265 62.3196 64.9046 62.3878 64.487 62.4474C64.0694 62.5071 63.7072 62.5582 63.4004 62.6009C62.71 62.6946 62.0921 62.848 61.5467 63.0611C61.0012 63.2741 60.5708 63.5724 60.2555 63.956C59.9401 64.331 59.7825 64.8168 59.7825 65.4134C59.7825 66.2656 60.0936 66.9091 60.7157 67.3438C61.3379 67.7784 62.1305 67.9957 63.0936 67.9957ZM92.9682 71.3835C91.008 71.3835 89.3247 70.9531 87.9185 70.0923C86.5207 69.2315 85.4426 68.0426 84.6841 66.5256C83.9341 65 83.5591 63.2443 83.5591 61.2585C83.5591 59.2642 83.9426 57.5043 84.7097 55.9787C85.4767 54.4446 86.5591 53.2514 87.9568 52.3991C89.3631 51.5384 91.025 51.108 92.9426 51.108C94.5364 51.108 95.9469 51.402 97.1742 51.9901C98.4099 52.5696 99.3943 53.392 100.127 54.4574C100.86 55.5142 101.278 56.75 101.38 58.1648H96.9568C96.7778 57.2187 96.3517 56.4304 95.6784 55.7997C95.0136 55.1605 94.123 54.8409 93.0065 54.8409C92.0605 54.8409 91.2295 55.0966 90.5136 55.608C89.7977 56.1108 89.2395 56.8352 88.8389 57.7812C88.4469 58.7273 88.2509 59.8608 88.2509 61.1818C88.2509 62.5199 88.4469 63.6705 88.8389 64.6335C89.231 65.5881 89.7807 66.3253 90.4881 66.8452C91.204 67.3565 92.0435 67.6122 93.0065 67.6122C93.6884 67.6122 94.2977 67.4844 94.8347 67.2287C95.3801 66.9645 95.8361 66.5852 96.2026 66.0909C96.569 65.5966 96.8205 64.9957 96.9568 64.2884H101.38C101.269 65.6776 100.86 66.9091 100.153 67.983C99.4455 69.0483 98.4824 69.8835 97.2636 70.4886C96.0449 71.0852 94.6131 71.3835 92.9682 71.3835ZM113.026 71.3835C111.108 71.3835 109.446 70.9616 108.04 70.1179C106.633 69.2741 105.543 68.0937 104.767 66.5767C104 65.0597 103.616 63.2869 103.616 61.2585C103.616 59.2301 104 57.4531 104.767 55.9276C105.543 54.402 106.633 53.2173 108.04 52.3736C109.446 51.5298 111.108 51.108 113.026 51.108C114.943 51.108 116.605 51.5298 118.011 52.3736C119.418 53.2173 120.504 54.402 121.271 55.9276C122.047 57.4531 122.435 59.2301 122.435 61.2585C122.435 63.2869 122.047 65.0597 121.271 66.5767C120.504 68.0937 119.418 69.2741 118.011 70.1179C116.605 70.9616 114.943 71.3835 113.026 71.3835ZM113.051 67.6761C114.091 67.6761 114.96 67.3906 115.659 66.8196C116.358 66.2401 116.878 65.4645 117.219 64.4929C117.568 63.5213 117.743 62.4389 117.743 61.2457C117.743 60.044 117.568 58.9574 117.219 57.9858C116.878 57.0057 116.358 56.2259 115.659 55.6463C114.96 55.0668 114.091 54.777 113.051 54.777C111.986 54.777 111.099 55.0668 110.392 55.6463C109.693 56.2259 109.169 57.0057 108.82 57.9858C108.479 58.9574 108.308 60.044 108.308 61.2457C108.308 62.4389 108.479 63.5213 108.82 64.4929C109.169 65.4645 109.693 66.2401 110.392 66.8196C111.099 67.3906 111.986 67.6761 113.051 67.6761ZM142.514 51.3636L135.521 71H130.408L123.415 51.3636H128.35L132.862 65.9503H133.067L137.592 51.3636H142.514ZM153.022 71.3835C151.053 71.3835 149.353 70.9744 147.921 70.1562C146.498 69.3295 145.403 68.1619 144.636 66.6534C143.869 65.1364 143.485 63.3509 143.485 61.2969C143.485 59.277 143.869 57.5043 144.636 55.9787C145.411 54.4446 146.494 53.2514 147.883 52.3991C149.272 51.5384 150.904 51.108 152.779 51.108C153.989 51.108 155.131 51.304 156.205 51.696C157.288 52.0795 158.242 52.6761 159.069 53.4858C159.904 54.2955 160.56 55.3267 161.038 56.5795C161.515 57.8239 161.754 59.3068 161.754 61.0284V62.4474H145.658V59.3281H157.317C157.309 58.4418 157.117 57.6534 156.742 56.9631C156.367 56.2642 155.843 55.7145 155.17 55.3139C154.505 54.9134 153.729 54.7131 152.843 54.7131C151.897 54.7131 151.066 54.9432 150.35 55.4034C149.634 55.8551 149.076 56.4517 148.675 57.1932C148.283 57.9261 148.083 58.7315 148.075 59.6094V62.3324C148.075 63.4744 148.283 64.4545 148.701 65.2727C149.119 66.0824 149.702 66.7045 150.452 67.1392C151.202 67.5653 152.08 67.7784 153.086 67.7784C153.759 67.7784 154.369 67.6847 154.914 67.4972C155.459 67.3011 155.932 67.0156 156.333 66.6406C156.734 66.2656 157.036 65.8011 157.241 65.2472L161.562 65.733C161.289 66.875 160.769 67.8722 160.002 68.7244C159.244 69.5682 158.272 70.2244 157.087 70.6932C155.903 71.1534 154.548 71.3835 153.022 71.3835ZM164.949 71V51.3636H169.436V54.6364H169.64C169.998 53.5028 170.612 52.6293 171.481 52.0156C172.359 51.3935 173.361 51.0824 174.486 51.0824C174.741 51.0824 175.027 51.0952 175.342 51.1207C175.666 51.1378 175.934 51.1676 176.147 51.2102V55.4673C175.951 55.3991 175.64 55.3395 175.214 55.2884C174.797 55.2287 174.392 55.1989 174 55.1989C173.156 55.1989 172.397 55.3821 171.724 55.7486C171.059 56.1065 170.535 56.6051 170.152 57.2443C169.768 57.8835 169.576 58.6207 169.576 59.456V71H164.949ZM183.801 71.3963C182.557 71.3963 181.436 71.1747 180.439 70.7315C179.45 70.2798 178.666 69.6151 178.087 68.7372C177.516 67.8594 177.23 66.777 177.23 65.4901C177.23 64.3821 177.435 63.4659 177.844 62.7415C178.253 62.017 178.811 61.4375 179.518 61.0028C180.226 60.5682 181.023 60.2401 181.909 60.0185C182.804 59.7884 183.729 59.6222 184.683 59.5199C185.834 59.4006 186.767 59.294 187.483 59.2003C188.199 59.098 188.719 58.9446 189.043 58.7401C189.375 58.527 189.541 58.1989 189.541 57.7557V57.679C189.541 56.7159 189.256 55.9702 188.685 55.4418C188.114 54.9134 187.291 54.6491 186.217 54.6491C185.084 54.6491 184.185 54.8963 183.52 55.3906C182.864 55.8849 182.42 56.4687 182.19 57.142L177.869 56.5284C178.21 55.3352 178.773 54.3381 179.557 53.5369C180.341 52.7273 181.3 52.1222 182.433 51.7216C183.567 51.3125 184.82 51.108 186.192 51.108C187.138 51.108 188.079 51.2188 189.017 51.4403C189.954 51.6619 190.811 52.0284 191.587 52.5398C192.362 53.0426 192.984 53.7287 193.453 54.598C193.93 55.4673 194.169 56.554 194.169 57.858V71H189.72V68.3026H189.567C189.285 68.848 188.889 69.3594 188.378 69.8366C187.875 70.3054 187.24 70.6847 186.473 70.9744C185.714 71.2557 184.824 71.3963 183.801 71.3963ZM185.003 67.9957C185.932 67.9957 186.737 67.8125 187.419 67.446C188.101 67.071 188.625 66.5767 188.991 65.9631C189.366 65.3494 189.554 64.6804 189.554 63.956V61.642C189.409 61.7614 189.162 61.8722 188.812 61.9744C188.472 62.0767 188.088 62.1662 187.662 62.2429C187.236 62.3196 186.814 62.3878 186.396 62.4474C185.979 62.5071 185.616 62.5582 185.31 62.6009C184.619 62.6946 184.001 62.848 183.456 63.0611C182.91 63.2741 182.48 63.5724 182.165 63.956C181.849 64.331 181.692 64.8168 181.692 65.4134C181.692 66.2656 182.003 66.9091 182.625 67.3438C183.247 67.7784 184.04 67.9957 185.003 67.9957ZM206.642 78.7727C204.98 78.7727 203.553 78.5469 202.359 78.0952C201.166 77.652 200.207 77.0554 199.483 76.3054C198.759 75.5554 198.256 74.7244 197.975 73.8125L202.142 72.8026C202.33 73.1861 202.602 73.5653 202.96 73.9403C203.318 74.3239 203.8 74.6392 204.405 74.8864C205.019 75.142 205.79 75.2699 206.719 75.2699C208.031 75.2699 209.118 74.9503 209.979 74.3111C210.84 73.6804 211.27 72.6406 211.27 71.1918V67.4716H211.04C210.801 67.9489 210.452 68.4389 209.992 68.9418C209.54 69.4446 208.939 69.8665 208.189 70.2074C207.448 70.5483 206.514 70.7188 205.389 70.7188C203.881 70.7188 202.513 70.3651 201.286 69.6577C200.067 68.9418 199.095 67.8764 198.371 66.4616C197.655 65.0384 197.297 63.2571 197.297 61.1179C197.297 58.9616 197.655 57.142 198.371 55.6591C199.095 54.1676 200.071 53.0384 201.298 52.2713C202.526 51.4957 203.894 51.108 205.402 51.108C206.553 51.108 207.499 51.304 208.24 51.696C208.99 52.0795 209.587 52.544 210.03 53.0895C210.473 53.6264 210.81 54.1335 211.04 54.6108H211.296V51.3636H215.859V71.3196C215.859 72.9986 215.459 74.3878 214.658 75.4872C213.857 76.5866 212.761 77.4091 211.372 77.9545C209.983 78.5 208.406 78.7727 206.642 78.7727ZM206.68 67.0881C207.661 67.0881 208.496 66.8494 209.186 66.3722C209.877 65.8949 210.401 65.2088 210.759 64.3139C211.117 63.419 211.296 62.3452 211.296 61.0923C211.296 59.8565 211.117 58.7741 210.759 57.8452C210.409 56.9162 209.889 56.196 209.199 55.6847C208.517 55.1648 207.678 54.9048 206.68 54.9048C205.649 54.9048 204.788 55.1733 204.098 55.7102C203.408 56.2472 202.888 56.9844 202.538 57.9219C202.189 58.8509 202.014 59.9077 202.014 61.0923C202.014 62.294 202.189 63.3466 202.538 64.25C202.896 65.1449 203.421 65.8437 204.111 66.3466C204.81 66.8409 205.666 67.0881 206.68 67.0881ZM228.576 71.3835C226.607 71.3835 224.907 70.9744 223.475 70.1562C222.051 69.3295 220.956 68.1619 220.189 66.6534C219.422 65.1364 219.039 63.3509 219.039 61.2969C219.039 59.277 219.422 57.5043 220.189 55.9787C220.965 54.4446 222.047 53.2514 223.436 52.3991C224.826 51.5384 226.458 51.108 228.333 51.108C229.543 51.108 230.685 51.304 231.759 51.696C232.841 52.0795 233.796 52.6761 234.622 53.4858C235.458 54.2955 236.114 55.3267 236.591 56.5795C237.068 57.8239 237.307 59.3068 237.307 61.0284V62.4474H221.212V59.3281H232.871C232.862 58.4418 232.671 57.6534 232.296 56.9631C231.921 56.2642 231.397 55.7145 230.723 55.3139C230.059 54.9134 229.283 54.7131 228.397 54.7131C227.451 54.7131 226.62 54.9432 225.904 55.4034C225.188 55.8551 224.63 56.4517 224.229 57.1932C223.837 57.9261 223.637 58.7315 223.628 59.6094V62.3324C223.628 63.4744 223.837 64.4545 224.255 65.2727C224.672 66.0824 225.256 66.7045 226.006 67.1392C226.756 67.5653 227.634 67.7784 228.639 67.7784C229.313 67.7784 229.922 67.6847 230.468 67.4972C231.013 67.3011 231.486 67.0156 231.887 66.6406C232.287 66.2656 232.59 65.8011 232.794 65.2472L237.115 65.733C236.843 66.875 236.323 67.8722 235.556 68.7244C234.797 69.5682 233.826 70.2244 232.641 70.6932C231.456 71.1534 230.101 71.3835 228.576 71.3835ZM254.362 71.3963C253.118 71.3963 251.997 71.1747 251 70.7315C250.012 70.2798 249.228 69.6151 248.648 68.7372C248.077 67.8594 247.791 66.777 247.791 65.4901C247.791 64.3821 247.996 63.4659 248.405 62.7415C248.814 62.017 249.372 61.4375 250.08 61.0028C250.787 60.5682 251.584 60.2401 252.47 60.0185C253.365 59.7884 254.29 59.6222 255.245 59.5199C256.395 59.4006 257.328 59.294 258.044 59.2003C258.76 59.098 259.28 58.9446 259.604 58.7401C259.936 58.527 260.103 58.1989 260.103 57.7557V57.679C260.103 56.7159 259.817 55.9702 259.246 55.4418C258.675 54.9134 257.853 54.6491 256.779 54.6491C255.645 54.6491 254.746 54.8963 254.081 55.3906C253.425 55.8849 252.982 56.4687 252.752 57.142L248.431 56.5284C248.772 55.3352 249.334 54.3381 250.118 53.5369C250.902 52.7273 251.861 52.1222 252.995 51.7216C254.128 51.3125 255.381 51.108 256.753 51.108C257.699 51.108 258.641 51.2188 259.578 51.4403C260.516 51.6619 261.372 52.0284 262.148 52.5398C262.924 53.0426 263.546 53.7287 264.014 54.598C264.492 55.4673 264.73 56.554 264.73 57.858V71H260.282V68.3026H260.128C259.847 68.848 259.451 69.3594 258.939 69.8366C258.436 70.3054 257.801 70.6847 257.034 70.9744C256.276 71.2557 255.385 71.3963 254.362 71.3963ZM255.564 67.9957C256.493 67.9957 257.299 67.8125 257.98 67.446C258.662 67.071 259.186 66.5767 259.553 65.9631C259.928 65.3494 260.115 64.6804 260.115 63.956V61.642C259.97 61.7614 259.723 61.8722 259.374 61.9744C259.033 62.0767 258.649 62.1662 258.223 62.2429C257.797 62.3196 257.375 62.3878 256.958 62.4474C256.54 62.5071 256.178 62.5582 255.871 62.6009C255.181 62.6946 254.563 62.848 254.017 63.0611C253.472 63.2741 253.041 63.5724 252.726 63.956C252.411 64.331 252.253 64.8168 252.253 65.4134C252.253 66.2656 252.564 66.9091 253.186 67.3438C253.808 67.7784 254.601 67.9957 255.564 67.9957ZM273.292 59.4943V71H268.664V51.3636H273.087V54.7003H273.317C273.769 53.6009 274.489 52.7273 275.478 52.0795C276.475 51.4318 277.706 51.108 279.172 51.108C280.527 51.108 281.708 51.3977 282.714 51.9773C283.728 52.5568 284.512 53.3963 285.066 54.4957C285.628 55.5952 285.905 56.929 285.897 58.4972V71H281.269V59.2131C281.269 57.9006 280.928 56.8736 280.246 56.1321C279.573 55.3906 278.64 55.0199 277.446 55.0199C276.637 55.0199 275.917 55.1989 275.286 55.5568C274.664 55.9062 274.174 56.4134 273.816 57.0781C273.466 57.7429 273.292 58.5483 273.292 59.4943ZM297.168 71.3452C295.626 71.3452 294.245 70.9489 293.026 70.1562C291.807 69.3636 290.844 68.2131 290.137 66.7045C289.43 65.196 289.076 63.3636 289.076 61.2074C289.076 59.0256 289.434 57.1847 290.15 55.6847C290.874 54.1761 291.85 53.0384 293.077 52.2713C294.305 51.4957 295.672 51.108 297.181 51.108C298.332 51.108 299.278 51.304 300.019 51.696C300.761 52.0795 301.349 52.544 301.783 53.0895C302.218 53.6264 302.555 54.1335 302.793 54.6108H302.985V44.8182H307.626V71H303.074V67.9062H302.793C302.555 68.3835 302.209 68.8906 301.758 69.4276C301.306 69.956 300.709 70.4077 299.968 70.7827C299.226 71.1577 298.293 71.3452 297.168 71.3452ZM298.459 67.5483C299.44 67.5483 300.275 67.2841 300.965 66.7557C301.655 66.2187 302.18 65.473 302.538 64.5185C302.895 63.5639 303.074 62.4517 303.074 61.1818C303.074 59.9119 302.895 58.8082 302.538 57.8707C302.188 56.9332 301.668 56.2045 300.978 55.6847C300.296 55.1648 299.457 54.9048 298.459 54.9048C297.428 54.9048 296.567 55.1733 295.877 55.7102C295.187 56.2472 294.667 56.9886 294.317 57.9347C293.968 58.8807 293.793 59.9631 293.793 61.1818C293.793 62.4091 293.968 63.5043 294.317 64.4673C294.675 65.4219 295.199 66.1761 295.89 66.7301C296.589 67.2756 297.445 67.5483 298.459 67.5483ZM14.4815 122.364V111.906H14.2898C14.0511 112.384 13.706 112.891 13.2543 113.428C12.8026 113.956 12.206 114.408 11.4645 114.783C10.723 115.158 9.78977 115.345 8.66477 115.345C7.12216 115.345 5.74148 114.949 4.52273 114.156C3.30398 113.364 2.34091 112.213 1.63352 110.705C0.926136 109.196 0.572443 107.364 0.572443 105.207C0.572443 103.026 0.930398 101.185 1.64631 99.6847C2.37074 98.1761 3.34659 97.0384 4.57386 96.2713C5.80114 95.4957 7.16903 95.108 8.67756 95.108C9.82813 95.108 10.7741 95.304 11.5156 95.696C12.2571 96.0795 12.8452 96.544 13.2798 97.0895C13.7145 97.6264 14.0511 98.1335 14.2898 98.6108H14.571V95.3636H19.1222V122.364H14.4815ZM9.95597 111.548C10.9361 111.548 11.7713 111.284 12.4616 110.756C13.152 110.219 13.6761 109.473 14.0341 108.518C14.392 107.564 14.571 106.452 14.571 105.182C14.571 103.912 14.392 102.808 14.0341 101.871C13.6847 100.933 13.1648 100.205 12.4744 99.6847C11.7926 99.1648 10.9531 98.9048 9.95597 98.9048C8.92472 98.9048 8.06392 99.1733 7.37358 99.7102C6.68324 100.247 6.16335 100.989 5.81392 101.935C5.46449 102.881 5.28977 103.963 5.28977 105.182C5.28977 106.409 5.46449 107.504 5.81392 108.467C6.17188 109.422 6.69602 110.176 7.38636 110.73C8.08523 111.276 8.94176 111.548 9.95597 111.548ZM35.6735 106.741V95.3636H40.3013V115H35.8141V111.51H35.6095C35.1664 112.609 34.4377 113.509 33.4235 114.207C32.4178 114.906 31.1777 115.256 29.7033 115.256C28.4164 115.256 27.2786 114.97 26.2899 114.399C25.3098 113.82 24.5428 112.98 23.9888 111.881C23.4348 110.773 23.1578 109.435 23.1578 107.866V95.3636H27.7857V107.151C27.7857 108.395 28.1266 109.384 28.8084 110.116C29.4902 110.849 30.3851 111.216 31.4931 111.216C32.1749 111.216 32.8354 111.05 33.4746 110.717C34.1138 110.385 34.638 109.891 35.047 109.234C35.4647 108.57 35.6735 107.739 35.6735 106.741ZM49.9908 115.396C48.7464 115.396 47.6257 115.175 46.6285 114.732C45.6399 114.28 44.8558 113.615 44.2763 112.737C43.7052 111.859 43.4197 110.777 43.4197 109.49C43.4197 108.382 43.6243 107.466 44.0334 106.741C44.4425 106.017 45.0007 105.438 45.7081 105.003C46.4155 104.568 47.2123 104.24 48.0987 104.018C48.9936 103.788 49.9183 103.622 50.8729 103.52C52.0234 103.401 52.9567 103.294 53.6726 103.2C54.3885 103.098 54.9084 102.945 55.2322 102.74C55.5646 102.527 55.7308 102.199 55.7308 101.756V101.679C55.7308 100.716 55.4453 99.9702 54.8743 99.4418C54.3033 98.9134 53.4808 98.6491 52.4069 98.6491C51.2734 98.6491 50.3743 98.8963 49.7095 99.3906C49.0533 99.8849 48.6101 100.469 48.38 101.142L44.0589 100.528C44.3998 99.3352 44.9623 98.3381 45.7464 97.5369C46.5305 96.7273 47.4893 96.1222 48.6229 95.7216C49.7564 95.3125 51.0092 95.108 52.3814 95.108C53.3274 95.108 54.2692 95.2188 55.2067 95.4403C56.1442 95.6619 57.0007 96.0284 57.7763 96.5398C58.5518 97.0426 59.174 97.7287 59.6427 98.598C60.12 99.4673 60.3587 100.554 60.3587 101.858V115H55.9098V112.303H55.7564C55.4751 112.848 55.0788 113.359 54.5675 113.837C54.0646 114.305 53.4297 114.685 52.6626 114.974C51.9041 115.256 51.0135 115.396 49.9908 115.396ZM51.1925 111.996C52.1214 111.996 52.9268 111.812 53.6087 111.446C54.2905 111.071 54.8146 110.577 55.1811 109.963C55.5561 109.349 55.7436 108.68 55.7436 107.956V105.642C55.5987 105.761 55.3516 105.872 55.0021 105.974C54.6612 106.077 54.2777 106.166 53.8515 106.243C53.4254 106.32 53.0035 106.388 52.5859 106.447C52.1683 106.507 51.8061 106.558 51.4993 106.601C50.8089 106.695 50.191 106.848 49.6456 107.061C49.1001 107.274 48.6697 107.572 48.3544 107.956C48.0391 108.331 47.8814 108.817 47.8814 109.413C47.8814 110.266 48.1925 110.909 48.8146 111.344C49.4368 111.778 50.2294 111.996 51.1925 111.996ZM68.9199 88.8182V115H64.2921V88.8182H68.9199ZM72.9588 115V95.3636H77.5866V115H72.9588ZM75.2855 92.5767C74.5525 92.5767 73.9218 92.3338 73.3934 91.848C72.865 91.3537 72.6008 90.7614 72.6008 90.071C72.6008 89.3722 72.865 88.7798 73.3934 88.294C73.9218 87.7997 74.5525 87.5526 75.2855 87.5526C76.027 87.5526 76.6576 87.7997 77.1775 88.294C77.7059 88.7798 77.9701 89.3722 77.9701 90.071C77.9701 90.7614 77.7059 91.3537 77.1775 91.848C76.6576 92.3338 76.027 92.5767 75.2855 92.5767ZM91.4309 95.3636V98.9432H80.1425V95.3636H91.4309ZM82.9295 90.6591H87.5573V109.094C87.5573 109.716 87.6511 110.193 87.8386 110.526C88.0346 110.849 88.2903 111.071 88.6056 111.19C88.921 111.31 89.2704 111.369 89.6539 111.369C89.9437 111.369 90.2079 111.348 90.4465 111.305C90.6937 111.263 90.8812 111.224 91.009 111.19L91.7889 114.808C91.5417 114.893 91.188 114.987 90.7278 115.089C90.2761 115.192 89.7221 115.251 89.0658 115.268C87.9067 115.303 86.8627 115.128 85.9337 114.744C85.0048 114.352 84.2675 113.747 83.7221 112.929C83.1852 112.111 82.921 111.088 82.9295 109.861V90.6591ZM97.4577 122.364C96.827 122.364 96.2432 122.313 95.7063 122.21C95.1779 122.116 94.756 122.006 94.4407 121.878L95.5145 118.273C96.1878 118.469 96.7887 118.563 97.3171 118.554C97.8455 118.545 98.31 118.379 98.7105 118.055C99.1196 117.74 99.4648 117.212 99.7461 116.47L100.142 115.409L93.0216 95.3636H97.9307L102.456 110.193H102.661L107.199 95.3636H112.121L104.259 117.378C103.892 118.418 103.407 119.308 102.801 120.05C102.196 120.8 101.455 121.371 100.577 121.763C99.7077 122.163 98.6679 122.364 97.4577 122.364ZM132.619 95.3636V98.9432H121.33V95.3636H132.619ZM124.117 90.6591H128.745V109.094C128.745 109.716 128.839 110.193 129.026 110.526C129.222 110.849 129.478 111.071 129.793 111.19C130.109 111.31 130.458 111.369 130.842 111.369C131.131 111.369 131.396 111.348 131.634 111.305C131.881 111.263 132.069 111.224 132.197 111.19L132.977 114.808C132.729 114.893 132.376 114.987 131.915 115.089C131.464 115.192 130.91 115.251 130.253 115.268C129.094 115.303 128.05 115.128 127.121 114.744C126.192 114.352 125.455 113.747 124.91 112.929C124.373 112.111 124.109 111.088 124.117 109.861V90.6591ZM144.123 115.384C142.206 115.384 140.544 114.962 139.138 114.118C137.731 113.274 136.64 112.094 135.865 110.577C135.098 109.06 134.714 107.287 134.714 105.259C134.714 103.23 135.098 101.453 135.865 99.9276C136.64 98.402 137.731 97.2173 139.138 96.3736C140.544 95.5298 142.206 95.108 144.123 95.108C146.041 95.108 147.703 95.5298 149.109 96.3736C150.515 97.2173 151.602 98.402 152.369 99.9276C153.145 101.453 153.532 103.23 153.532 105.259C153.532 107.287 153.145 109.06 152.369 110.577C151.602 112.094 150.515 113.274 149.109 114.118C147.703 114.962 146.041 115.384 144.123 115.384ZM144.149 111.676C145.189 111.676 146.058 111.391 146.757 110.82C147.456 110.24 147.976 109.464 148.317 108.493C148.666 107.521 148.841 106.439 148.841 105.246C148.841 104.044 148.666 102.957 148.317 101.986C147.976 101.006 147.456 100.226 146.757 99.6463C146.058 99.0668 145.189 98.777 144.149 98.777C143.084 98.777 142.197 99.0668 141.49 99.6463C140.791 100.226 140.267 101.006 139.917 101.986C139.576 102.957 139.406 104.044 139.406 105.246C139.406 106.439 139.576 107.521 139.917 108.493C140.267 109.464 140.791 110.24 141.49 110.82C142.197 111.391 143.084 111.676 144.149 111.676ZM165.28 122.773C163.618 122.773 162.191 122.547 160.997 122.095C159.804 121.652 158.845 121.055 158.121 120.305C157.397 119.555 156.894 118.724 156.613 117.812L160.78 116.803C160.968 117.186 161.24 117.565 161.598 117.94C161.956 118.324 162.438 118.639 163.043 118.886C163.657 119.142 164.428 119.27 165.357 119.27C166.669 119.27 167.756 118.95 168.617 118.311C169.478 117.68 169.908 116.641 169.908 115.192V111.472H169.678C169.439 111.949 169.09 112.439 168.63 112.942C168.178 113.445 167.577 113.866 166.827 114.207C166.086 114.548 165.152 114.719 164.027 114.719C162.519 114.719 161.151 114.365 159.924 113.658C158.705 112.942 157.733 111.876 157.009 110.462C156.293 109.038 155.935 107.257 155.935 105.118C155.935 102.962 156.293 101.142 157.009 99.6591C157.733 98.1676 158.709 97.0384 159.936 96.2713C161.164 95.4957 162.532 95.108 164.04 95.108C165.191 95.108 166.137 95.304 166.878 95.696C167.628 96.0795 168.225 96.544 168.668 97.0895C169.111 97.6264 169.448 98.1335 169.678 98.6108H169.934V95.3636H174.497V115.32C174.497 116.999 174.097 118.388 173.296 119.487C172.495 120.587 171.399 121.409 170.01 121.955C168.621 122.5 167.044 122.773 165.28 122.773ZM165.318 111.088C166.299 111.088 167.134 110.849 167.824 110.372C168.514 109.895 169.039 109.209 169.397 108.314C169.755 107.419 169.934 106.345 169.934 105.092C169.934 103.857 169.755 102.774 169.397 101.845C169.047 100.916 168.527 100.196 167.837 99.6847C167.155 99.1648 166.316 98.9048 165.318 98.9048C164.287 98.9048 163.426 99.1733 162.736 99.7102C162.046 100.247 161.526 100.984 161.176 101.922C160.827 102.851 160.652 103.908 160.652 105.092C160.652 106.294 160.827 107.347 161.176 108.25C161.534 109.145 162.059 109.844 162.749 110.347C163.448 110.841 164.304 111.088 165.318 111.088ZM187.214 115.384C185.245 115.384 183.544 114.974 182.113 114.156C180.689 113.33 179.594 112.162 178.827 110.653C178.06 109.136 177.677 107.351 177.677 105.297C177.677 103.277 178.06 101.504 178.827 99.9787C179.603 98.4446 180.685 97.2514 182.074 96.3991C183.464 95.5384 185.096 95.108 186.971 95.108C188.181 95.108 189.323 95.304 190.397 95.696C191.479 96.0795 192.434 96.6761 193.26 97.4858C194.096 98.2955 194.752 99.3267 195.229 100.58C195.706 101.824 195.945 103.307 195.945 105.028V106.447H179.85V103.328H191.509C191.5 102.442 191.309 101.653 190.934 100.963C190.559 100.264 190.035 99.7145 189.361 99.3139C188.696 98.9134 187.921 98.7131 187.035 98.7131C186.089 98.7131 185.258 98.9432 184.542 99.4034C183.826 99.8551 183.268 100.452 182.867 101.193C182.475 101.926 182.275 102.732 182.266 103.609V106.332C182.266 107.474 182.475 108.455 182.893 109.273C183.31 110.082 183.894 110.705 184.644 111.139C185.394 111.565 186.272 111.778 187.277 111.778C187.951 111.778 188.56 111.685 189.106 111.497C189.651 111.301 190.124 111.016 190.525 110.641C190.925 110.266 191.228 109.801 191.432 109.247L195.753 109.733C195.481 110.875 194.961 111.872 194.194 112.724C193.435 113.568 192.464 114.224 191.279 114.693C190.094 115.153 188.739 115.384 187.214 115.384ZM208.946 95.3636V98.9432H197.657V95.3636H208.946ZM200.444 90.6591H205.072V109.094C205.072 109.716 205.166 110.193 205.353 110.526C205.549 110.849 205.805 111.071 206.12 111.19C206.436 111.31 206.785 111.369 207.169 111.369C207.458 111.369 207.723 111.348 207.961 111.305C208.208 111.263 208.396 111.224 208.524 111.19L209.304 114.808C209.056 114.893 208.703 114.987 208.242 115.089C207.791 115.192 207.237 115.251 206.581 115.268C205.421 115.303 204.377 115.128 203.448 114.744C202.519 114.352 201.782 113.747 201.237 112.929C200.7 112.111 200.436 111.088 200.444 109.861V90.6591ZM217.146 103.494V115H212.518V88.8182H217.043V98.7003H217.274C217.734 97.5923 218.445 96.7187 219.408 96.0795C220.38 95.4318 221.616 95.108 223.116 95.108C224.479 95.108 225.668 95.3935 226.683 95.9645C227.697 96.5355 228.481 97.3707 229.035 98.4702C229.597 99.5696 229.879 100.912 229.879 102.497V115H225.251V103.213C225.251 101.892 224.91 100.865 224.228 100.132C223.555 99.3906 222.609 99.0199 221.39 99.0199C220.572 99.0199 219.839 99.1989 219.191 99.5568C218.552 99.9062 218.049 100.413 217.683 101.078C217.325 101.743 217.146 102.548 217.146 103.494ZM242.569 115.384C240.6 115.384 238.9 114.974 237.468 114.156C236.045 113.33 234.95 112.162 234.183 110.653C233.416 109.136 233.032 107.351 233.032 105.297C233.032 103.277 233.416 101.504 234.183 99.9787C234.958 98.4446 236.041 97.2514 237.43 96.3991C238.819 95.5384 240.451 95.108 242.326 95.108C243.536 95.108 244.679 95.304 245.752 95.696C246.835 96.0795 247.789 96.6761 248.616 97.4858C249.451 98.2955 250.107 99.3267 250.585 100.58C251.062 101.824 251.301 103.307 251.301 105.028V106.447H235.206V103.328H246.865C246.856 102.442 246.664 101.653 246.289 100.963C245.914 100.264 245.39 99.7145 244.717 99.3139C244.052 98.9134 243.277 98.7131 242.39 98.7131C241.444 98.7131 240.613 98.9432 239.897 99.4034C239.181 99.8551 238.623 100.452 238.223 101.193C237.831 101.926 237.63 102.732 237.622 103.609V106.332C237.622 107.474 237.831 108.455 238.248 109.273C238.666 110.082 239.25 110.705 240 111.139C240.75 111.565 241.627 111.778 242.633 111.778C243.306 111.778 243.916 111.685 244.461 111.497C245.007 111.301 245.48 111.016 245.88 110.641C246.281 110.266 246.583 109.801 246.788 109.247L251.109 109.733C250.836 110.875 250.316 111.872 249.549 112.724C248.791 113.568 247.819 114.224 246.634 114.693C245.45 115.153 244.095 115.384 242.569 115.384ZM254.496 115V95.3636H258.983V98.6364H259.188C259.546 97.5028 260.159 96.6293 261.028 96.0156C261.906 95.3935 262.908 95.0824 264.033 95.0824C264.288 95.0824 264.574 95.0952 264.889 95.1207C265.213 95.1378 265.482 95.1676 265.695 95.2102V99.4673C265.499 99.3991 265.188 99.3395 264.761 99.2884C264.344 99.2287 263.939 99.1989 263.547 99.1989C262.703 99.1989 261.945 99.3821 261.271 99.7486C260.607 100.107 260.082 100.605 259.699 101.244C259.315 101.884 259.124 102.621 259.124 103.456V115H254.496Z" fill="url(#paint0_radial_3100_9272)"/>
<defs>
<radialGradient id="paint0_radial_3100_9272" cx="0" cy="0" r="1" gradientUnits="userSpaceOnUse" gradientTransform="translate(40.4426 58) scale(221.718 233.7)">
<stop stop-color="white" stop-opacity="0"/>
<stop offset="1" stop-opacity="0.82"/>
</radialGradient>
</defs>
</svg>
