<svg width="120" height="120" viewBox="0 0 120 120" fill="none" xmlns="http://www.w3.org/2000/svg">
<circle opacity="0.6" cx="60" cy="60" r="60" fill="#D92B2B" fill-opacity="0.12"/>
<circle cx="60" cy="60" r="40" fill="#D92B2B" fill-opacity="0.12"/>
<path d="M76.4336 41.6523C77.3488 41.8557 78 42.6671 78 43.6045V61.8047C77.4862 61.7344 76.9619 61.6953 76.4287 61.6953C70.085 61.6953 64.9424 66.8379 64.9424 73.1816C64.9424 74.902 65.3231 76.5329 66.001 77.998L60 82L47.3438 73.5625C44.0055 71.337 42.0001 67.5902 42 63.5781V43.6045C42 42.6671 42.6513 41.8557 43.5664 41.6523L60 38L76.4336 41.6523ZM60 50C57.7908 50 56 51.7909 56 54C56 55.4805 56.8046 56.7732 58 57.4648V66H62L62.002 57.4639C63.1964 56.7719 64 55.4797 64 54C64 51.7909 62.2092 50 60 50Z" fill="white"/>
<path d="M83.5877 78.0967L79.2535 73.7626L83.5877 69.4285L80.6982 66.5391L76.3641 70.8732L72.03 66.5391L69.1406 69.4285L73.4747 73.7626L69.1406 78.0967L72.03 80.9861L76.3641 76.652L80.6982 80.9861L83.5877 78.0967Z" fill="white"/>
</svg>
