<svg width="1728" height="1259" viewBox="0 0 1728 1259" fill="none" xmlns="http://www.w3.org/2000/svg">
<path d="M-1019.21 -68H-1089V1.78947M-1019.21 -68V1.78947M-1019.21 -68H-949.421M-1019.21 1.78947H-1089M-1019.21 1.78947V71.5789M-1019.21 1.78947H-949.421M-1089 1.78947V71.5789M-1019.21 71.5789H-1089M-1019.21 71.5789V141.368M-1019.21 71.5789H-949.421M-1089 71.5789V141.368M-1019.21 141.368H-1089M-1019.21 141.368V211.158M-1019.21 141.368H-949.421M-1089 141.368V211.158M-1019.21 211.158H-1089M-1019.21 211.158V280.947M-1019.21 211.158H-949.421M-1089 211.158V280.947M-1019.21 280.947H-1089M-1019.21 280.947V350.737M-1019.21 280.947H-949.421M-1089 280.947V350.737M-1019.21 350.737H-1089M-1019.21 350.737V420.526M-1019.21 350.737H-949.421M-1089 350.737V420.526M-1019.21 420.526H-1089M-1019.21 420.526V490.316M-1019.21 420.526H-949.421M-1089 420.526V490.316M-1019.21 490.316H-1089M-1019.21 490.316V560.105M-1019.21 490.316H-949.421M-1089 490.316V560.105M-1019.21 560.105H-1089M-1019.21 560.105V629.895M-1019.21 560.105H-949.421M-1089 560.105V629.895M-1019.21 629.895H-1089M-1019.21 629.895V699.684M-1019.21 629.895H-949.421M-1089 629.895V699.684M-1019.21 699.684H-1089M-1019.21 699.684V769.474M-1019.21 699.684H-949.421M-1089 699.684V769.474M-1019.21 769.474H-1089M-1019.21 769.474V839.263M-1019.21 769.474H-949.421M-1089 769.474V839.263M-1019.21 839.263H-1089M-1019.21 839.263V909.053M-1019.21 839.263H-949.421M-1089 839.263V909.053M-1019.21 909.053H-1089M-1019.21 909.053V978.842M-1019.21 909.053H-949.421M-1089 909.053V978.842M-1019.21 978.842H-1089M-1019.21 978.842V1048.63M-1019.21 978.842H-949.421M-1089 978.842V1048.63M-1019.21 1048.63H-1089M-1019.21 1048.63V1118.42M-1019.21 1048.63H-949.421M-1089 1048.63V1118.42M-1019.21 1118.42H-1089M-1019.21 1118.42V1188.21M-1019.21 1118.42H-949.421M-1089 1118.42V1188.21M-1019.21 1188.21H-1089M-1019.21 1188.21V1258M-1019.21 1188.21H-949.421M-1089 1188.21V1258H-1019.21M-1019.21 1258H-949.421M-949.421 -68V1.78947M-949.421 -68H-879.632M-949.421 1.78947V71.5789M-949.421 1.78947H-879.632M-949.421 71.5789V141.368M-949.421 71.5789H-879.632M-949.421 141.368V211.158M-949.421 141.368H-879.632M-949.421 211.158V280.947M-949.421 211.158H-879.632M-949.421 280.947V350.737M-949.421 280.947H-879.632M-949.421 350.737V420.526M-949.421 350.737H-879.632M-949.421 420.526V490.316M-949.421 420.526H-879.632M-949.421 490.316V560.105M-949.421 490.316H-879.632M-949.421 560.105V629.895M-949.421 560.105H-879.632M-949.421 629.895V699.684M-949.421 629.895H-879.632M-949.421 699.684V769.474M-949.421 699.684H-879.632M-949.421 769.474V839.263M-949.421 769.474H-879.632M-949.421 839.263V909.053M-949.421 839.263H-879.632M-949.421 909.053V978.842M-949.421 909.053H-879.632M-949.421 978.842V1048.63M-949.421 978.842H-879.632M-949.421 1048.63V1118.42M-949.421 1048.63H-879.632M-949.421 1118.42V1188.21M-949.421 1118.42H-879.632M-949.421 1188.21V1258M-949.421 1188.21H-879.632M-949.421 1258H-879.632M-879.632 -68V1.78947M-879.632 -68H-809.842M-879.632 1.78947V71.5789M-879.632 1.78947H-809.842M-879.632 71.5789V141.368M-879.632 71.5789H-809.842M-879.632 141.368V211.158M-879.632 141.368H-809.842M-879.632 211.158V280.947M-879.632 211.158H-809.842M-879.632 280.947V350.737M-879.632 280.947H-809.842M-879.632 350.737V420.526M-879.632 350.737H-809.842M-879.632 420.526V490.316M-879.632 420.526H-809.842M-879.632 490.316V560.105M-879.632 490.316H-809.842M-879.632 560.105V629.895M-879.632 560.105H-809.842M-879.632 629.895V699.684M-879.632 629.895H-809.842M-879.632 699.684V769.474M-879.632 699.684H-809.842M-879.632 769.474V839.263M-879.632 769.474H-809.842M-879.632 839.263V909.053M-879.632 839.263H-809.842M-879.632 909.053V978.842M-879.632 909.053H-809.842M-879.632 978.842V1048.63M-879.632 978.842H-809.842M-879.632 1048.63V1118.42M-879.632 1048.63H-809.842M-879.632 1118.42V1188.21M-879.632 1118.42H-809.842M-879.632 1188.21V1258M-879.632 1188.21H-809.842M-879.632 1258H-809.842M-809.842 -68V1.78947M-809.842 -68H-740.053M-809.842 1.78947V71.5789M-809.842 1.78947H-740.053M-809.842 71.5789V141.368M-809.842 71.5789H-740.053M-809.842 141.368V211.158M-809.842 141.368H-740.053M-809.842 211.158V280.947M-809.842 211.158H-740.053M-809.842 280.947V350.737M-809.842 280.947H-740.053M-809.842 350.737V420.526M-809.842 350.737H-740.053M-809.842 420.526V490.316M-809.842 420.526H-740.053M-809.842 490.316V560.105M-809.842 490.316H-740.053M-809.842 560.105V629.895M-809.842 560.105H-740.053M-809.842 629.895V699.684M-809.842 629.895H-740.053M-809.842 699.684V769.474M-809.842 699.684H-740.053M-809.842 769.474V839.263M-809.842 769.474H-740.053M-809.842 839.263V909.053M-809.842 839.263H-740.053M-809.842 909.053V978.842M-809.842 909.053H-740.053M-809.842 978.842V1048.63M-809.842 978.842H-740.053M-809.842 1048.63V1118.42M-809.842 1048.63H-740.053M-809.842 1118.42V1188.21M-809.842 1118.42H-740.053M-809.842 1188.21V1258M-809.842 1188.21H-740.053M-809.842 1258H-740.053M-740.053 -68V1.78947M-740.053 -68H-670.263M-740.053 1.78947V71.5789M-740.053 1.78947H-670.263M-740.053 71.5789V141.368M-740.053 71.5789H-670.263M-740.053 141.368V211.158M-740.053 141.368H-670.263M-740.053 211.158V280.947M-740.053 211.158H-670.263M-740.053 280.947V350.737M-740.053 280.947H-670.263M-740.053 350.737V420.526M-740.053 350.737H-670.263M-740.053 420.526V490.316M-740.053 420.526H-670.263M-740.053 490.316V560.105M-740.053 490.316H-670.263M-740.053 560.105V629.895M-740.053 560.105H-670.263M-740.053 629.895V699.684M-740.053 629.895H-670.263M-740.053 699.684V769.474M-740.053 699.684H-670.263M-740.053 769.474V839.263M-740.053 769.474H-670.263M-740.053 839.263V909.053M-740.053 839.263H-670.263M-740.053 909.053V978.842M-740.053 909.053H-670.263M-740.053 978.842V1048.63M-740.053 978.842H-670.263M-740.053 1048.63V1118.42M-740.053 1048.63H-670.263M-740.053 1118.42V1188.21M-740.053 1118.42H-670.263M-740.053 1188.21V1258M-740.053 1188.21H-670.263M-740.053 1258H-670.263M-670.263 -68V1.78947M-670.263 -68H-600.474M-670.263 1.78947V71.5789M-670.263 1.78947H-600.474M-670.263 71.5789V141.368M-670.263 71.5789H-600.474M-670.263 141.368V211.158M-670.263 141.368H-600.474M-670.263 211.158V280.947M-670.263 211.158H-600.474M-670.263 280.947V350.737M-670.263 280.947H-600.474M-670.263 350.737V420.526M-670.263 350.737H-600.474M-670.263 420.526V490.316M-670.263 420.526H-600.474M-670.263 490.316V560.105M-670.263 490.316H-600.474M-670.263 560.105V629.895M-670.263 560.105H-600.474M-670.263 629.895V699.684M-670.263 629.895H-600.474M-670.263 699.684V769.474M-670.263 699.684H-600.474M-670.263 769.474V839.263M-670.263 769.474H-600.474M-670.263 839.263V909.053M-670.263 839.263H-600.474M-670.263 909.053V978.842M-670.263 909.053H-600.474M-670.263 978.842V1048.63M-670.263 978.842H-600.474M-670.263 1048.63V1118.42M-670.263 1048.63H-600.474M-670.263 1118.42V1188.21M-670.263 1118.42H-600.474M-670.263 1188.21V1258M-670.263 1188.21H-600.474M-670.263 1258H-600.474M-600.474 -68V1.78947M-600.474 -68H-530.684M-600.474 1.78947V71.5789M-600.474 1.78947H-530.684M-600.474 71.5789V141.368M-600.474 71.5789H-530.684M-600.474 141.368V211.158M-600.474 141.368H-530.684M-600.474 211.158V280.947M-600.474 211.158H-530.684M-600.474 280.947V350.737M-600.474 280.947H-530.684M-600.474 350.737V420.526M-600.474 350.737H-530.684M-600.474 420.526V490.316M-600.474 420.526H-530.684M-600.474 490.316V560.105M-600.474 490.316H-530.684M-600.474 560.105V629.895M-600.474 560.105H-530.684M-600.474 629.895V699.684M-600.474 629.895H-530.684M-600.474 699.684V769.474M-600.474 699.684H-530.684M-600.474 769.474V839.263M-600.474 769.474H-530.684M-600.474 839.263V909.053M-600.474 839.263H-530.684M-600.474 909.053V978.842M-600.474 909.053H-530.684M-600.474 978.842V1048.63M-600.474 978.842H-530.684M-600.474 1048.63V1118.42M-600.474 1048.63H-530.684M-600.474 1118.42V1188.21M-600.474 1118.42H-530.684M-600.474 1188.21V1258M-600.474 1188.21H-530.684M-600.474 1258H-530.684M-530.684 -68V1.78947M-530.684 -68H-460.895M-530.684 1.78947V71.5789M-530.684 1.78947H-460.895M-530.684 71.5789V141.368M-530.684 71.5789H-460.895M-530.684 141.368V211.158M-530.684 141.368H-460.895M-530.684 211.158V280.947M-530.684 211.158H-460.895M-530.684 280.947V350.737M-530.684 280.947H-460.895M-530.684 350.737V420.526M-530.684 350.737H-460.895M-530.684 420.526V490.316M-530.684 420.526H-460.895M-530.684 490.316V560.105M-530.684 490.316H-460.895M-530.684 560.105V629.895M-530.684 560.105H-460.895M-530.684 629.895V699.684M-530.684 629.895H-460.895M-530.684 699.684V769.474M-530.684 699.684H-460.895M-530.684 769.474V839.263M-530.684 769.474H-460.895M-530.684 839.263V909.053M-530.684 839.263H-460.895M-530.684 909.053V978.842M-530.684 909.053H-460.895M-530.684 978.842V1048.63M-530.684 978.842H-460.895M-530.684 1048.63V1118.42M-530.684 1048.63H-460.895M-530.684 1118.42V1188.21M-530.684 1118.42H-460.895M-530.684 1188.21V1258M-530.684 1188.21H-460.895M-530.684 1258H-460.895M-460.895 -68V1.78947M-460.895 -68H-391.105M-460.895 1.78947V71.5789M-460.895 1.78947H-391.105M-460.895 71.5789V141.368M-460.895 71.5789H-391.105M-460.895 141.368V211.158M-460.895 141.368H-391.105M-460.895 211.158V280.947M-460.895 211.158H-391.105M-460.895 280.947V350.737M-460.895 280.947H-391.105M-460.895 350.737V420.526M-460.895 350.737H-391.105M-460.895 420.526V490.316M-460.895 420.526H-391.105M-460.895 490.316V560.105M-460.895 490.316H-391.105M-460.895 560.105V629.895M-460.895 560.105H-391.105M-460.895 629.895V699.684M-460.895 629.895H-391.105M-460.895 699.684V769.474M-460.895 699.684H-391.105M-460.895 769.474V839.263M-460.895 769.474H-391.105M-460.895 839.263V909.053M-460.895 839.263H-391.105M-460.895 909.053V978.842M-460.895 909.053H-391.105M-460.895 978.842V1048.63M-460.895 978.842H-391.105M-460.895 1048.63V1118.42M-460.895 1048.63H-391.105M-460.895 1118.42V1188.21M-460.895 1118.42H-391.105M-460.895 1188.21V1258M-460.895 1188.21H-391.105M-460.895 1258H-391.105M-391.105 -68V1.78947M-391.105 -68H-321.316M-391.105 1.78947V71.5789M-391.105 1.78947H-321.316M-391.105 71.5789V141.368M-391.105 71.5789H-321.316M-391.105 141.368V211.158M-391.105 141.368H-321.316M-391.105 211.158V280.947M-391.105 211.158H-321.316M-391.105 280.947V350.737M-391.105 280.947H-321.316M-391.105 350.737V420.526M-391.105 350.737H-321.316M-391.105 420.526V490.316M-391.105 420.526H-321.316M-391.105 490.316V560.105M-391.105 490.316H-321.316M-391.105 560.105V629.895M-391.105 560.105H-321.316M-391.105 629.895V699.684M-391.105 629.895H-321.316M-391.105 699.684V769.474M-391.105 699.684H-321.316M-391.105 769.474V839.263M-391.105 769.474H-321.316M-391.105 839.263V909.053M-391.105 839.263H-321.316M-391.105 909.053V978.842M-391.105 909.053H-321.316M-391.105 978.842V1048.63M-391.105 978.842H-321.316M-391.105 1048.63V1118.42M-391.105 1048.63H-321.316M-391.105 1118.42V1188.21M-391.105 1118.42H-321.316M-391.105 1188.21V1258M-391.105 1188.21H-321.316M-391.105 1258H-321.316M-321.316 -68V1.78947M-321.316 -68H-251.526M-321.316 1.78947V71.5789M-321.316 1.78947H-251.526M-321.316 71.5789V141.368M-321.316 71.5789H-251.526M-321.316 141.368V211.158M-321.316 141.368H-251.526M-321.316 211.158V280.947M-321.316 211.158H-251.526M-321.316 280.947V350.737M-321.316 280.947H-251.526M-321.316 350.737V420.526M-321.316 350.737H-251.526M-321.316 420.526V490.316M-321.316 420.526H-251.526M-321.316 490.316V560.105M-321.316 490.316H-251.526M-321.316 560.105V629.895M-321.316 560.105H-251.526M-321.316 629.895V699.684M-321.316 629.895H-251.526M-321.316 699.684V769.474M-321.316 699.684H-251.526M-321.316 769.474V839.263M-321.316 769.474H-251.526M-321.316 839.263V909.053M-321.316 839.263H-251.526M-321.316 909.053V978.842M-321.316 909.053H-251.526M-321.316 978.842V1048.63M-321.316 978.842H-251.526M-321.316 1048.63V1118.42M-321.316 1048.63H-251.526M-321.316 1118.42V1188.21M-321.316 1118.42H-251.526M-321.316 1188.21V1258M-321.316 1188.21H-251.526M-321.316 1258H-251.526M-251.526 -68V1.78947M-251.526 -68H-181.737M-251.526 1.78947V71.5789M-251.526 1.78947H-181.737M-251.526 71.5789V141.368M-251.526 71.5789H-181.737M-251.526 141.368V211.158M-251.526 141.368H-181.737M-251.526 211.158V280.947M-251.526 211.158H-181.737M-251.526 280.947V350.737M-251.526 280.947H-181.737M-251.526 350.737V420.526M-251.526 350.737H-181.737M-251.526 420.526V490.316M-251.526 420.526H-181.737M-251.526 490.316V560.105M-251.526 490.316H-181.737M-251.526 560.105V629.895M-251.526 560.105H-181.737M-251.526 629.895V699.684M-251.526 629.895H-181.737M-251.526 699.684V769.474M-251.526 699.684H-181.737M-251.526 769.474V839.263M-251.526 769.474H-181.737M-251.526 839.263V909.053M-251.526 839.263H-181.737M-251.526 909.053V978.842M-251.526 909.053H-181.737M-251.526 978.842V1048.63M-251.526 978.842H-181.737M-251.526 1048.63V1118.42M-251.526 1048.63H-181.737M-251.526 1118.42V1188.21M-251.526 1118.42H-181.737M-251.526 1188.21V1258M-251.526 1188.21H-181.737M-251.526 1258H-181.737M-181.737 -68V1.78947M-181.737 -68H-111.947M-181.737 1.78947V71.5789M-181.737 1.78947H-111.947M-181.737 71.5789V141.368M-181.737 71.5789H-111.947M-181.737 141.368V211.158M-181.737 141.368H-111.947M-181.737 211.158V280.947M-181.737 211.158H-111.947M-181.737 280.947V350.737M-181.737 280.947H-111.947M-181.737 350.737V420.526M-181.737 350.737H-111.947M-181.737 420.526V490.316M-181.737 420.526H-111.947M-181.737 490.316V560.105M-181.737 490.316H-111.947M-181.737 560.105V629.895M-181.737 560.105H-111.947M-181.737 629.895V699.684M-181.737 629.895H-111.947M-181.737 699.684V769.474M-181.737 699.684H-111.947M-181.737 769.474V839.263M-181.737 769.474H-111.947M-181.737 839.263V909.053M-181.737 839.263H-111.947M-181.737 909.053V978.842M-181.737 909.053H-111.947M-181.737 978.842V1048.63M-181.737 978.842H-111.947M-181.737 1048.63V1118.42M-181.737 1048.63H-111.947M-181.737 1118.42V1188.21M-181.737 1118.42H-111.947M-181.737 1188.21V1258M-181.737 1188.21H-111.947M-181.737 1258H-111.947M-111.947 -68V1.78947M-111.947 -68H-42.158M-111.947 1.78947V71.5789M-111.947 1.78947H-42.158M-111.947 71.5789V141.368M-111.947 71.5789H-42.158M-111.947 141.368V211.158M-111.947 141.368H-42.158M-111.947 211.158V280.947M-111.947 211.158H-42.158M-111.947 280.947V350.737M-111.947 280.947H-42.158M-111.947 350.737V420.526M-111.947 350.737H-42.158M-111.947 420.526V490.316M-111.947 420.526H-42.158M-111.947 490.316V560.105M-111.947 490.316H-42.158M-111.947 560.105V629.895M-111.947 560.105H-42.158M-111.947 629.895V699.684M-111.947 629.895H-42.158M-111.947 699.684V769.474M-111.947 699.684H-42.158M-111.947 769.474V839.263M-111.947 769.474H-42.158M-111.947 839.263V909.053M-111.947 839.263H-42.158M-111.947 909.053V978.842M-111.947 909.053H-42.158M-111.947 978.842V1048.63M-111.947 978.842H-42.158M-111.947 1048.63V1118.42M-111.947 1048.63H-42.158M-111.947 1118.42V1188.21M-111.947 1118.42H-42.158M-111.947 1188.21V1258M-111.947 1188.21H-42.158M-111.947 1258H-42.158M-42.158 -68V1.78947M-42.158 -68H27.6316M-42.158 1.78947V71.5789M-42.158 1.78947H27.6316M-42.158 71.5789V141.368M-42.158 71.5789H27.6316M-42.158 141.368V211.158M-42.158 141.368H27.6316M-42.158 211.158V280.947M-42.158 211.158H27.6316M-42.158 280.947V350.737M-42.158 280.947H27.6316M-42.158 350.737V420.526M-42.158 350.737H27.6316M-42.158 420.526V490.316M-42.158 420.526H27.6316M-42.158 490.316V560.105M-42.158 490.316H27.6316M-42.158 560.105V629.895M-42.158 560.105H27.6316M-42.158 629.895V699.684M-42.158 629.895H27.6316M-42.158 699.684V769.474M-42.158 699.684H27.6316M-42.158 769.474V839.263M-42.158 769.474H27.6316M-42.158 839.263V909.053M-42.158 839.263H27.6316M-42.158 909.053V978.842M-42.158 909.053H27.6316M-42.158 978.842V1048.63M-42.158 978.842H27.6316M-42.158 1048.63V1118.42M-42.158 1048.63H27.6316M-42.158 1118.42V1188.21M-42.158 1118.42H27.6316M-42.158 1188.21V1258M-42.158 1188.21H27.6316M-42.158 1258H27.6316M27.6316 -68V1.78947M27.6316 -68H97.421M27.6316 1.78947V71.5789M27.6316 1.78947H97.421M27.6316 71.5789V141.368M27.6316 71.5789H97.421M27.6316 141.368V211.158M27.6316 141.368H97.421M27.6316 211.158V280.947M27.6316 211.158H97.421M27.6316 280.947V350.737M27.6316 280.947H97.421M27.6316 350.737V420.526M27.6316 350.737H97.421M27.6316 420.526V490.316M27.6316 420.526H97.421M27.6316 490.316V560.105M27.6316 490.316H97.421M27.6316 560.105V629.895M27.6316 560.105H97.421M27.6316 629.895V699.684M27.6316 629.895H97.421M27.6316 699.684V769.474M27.6316 699.684H97.421M27.6316 769.474V839.263M27.6316 769.474H97.421M27.6316 839.263V909.053M27.6316 839.263H97.421M27.6316 909.053V978.842M27.6316 909.053H97.421M27.6316 978.842V1048.63M27.6316 978.842H97.421M27.6316 1048.63V1118.42M27.6316 1048.63H97.421M27.6316 1118.42V1188.21M27.6316 1118.42H97.421M27.6316 1188.21V1258M27.6316 1188.21H97.421M27.6316 1258H97.421M97.421 -68V1.78947M97.421 -68H167.21M97.421 1.78947V71.5789M97.421 1.78947H167.21M97.421 71.5789V141.368M97.421 71.5789H167.21M97.421 141.368V211.158M97.421 141.368H167.21M97.421 211.158V280.947M97.421 211.158H167.21M97.421 280.947V350.737M97.421 280.947H167.21M97.421 350.737V420.526M97.421 350.737H167.21M97.421 420.526V490.316M97.421 420.526H167.21M97.421 490.316V560.105M97.421 490.316H167.21M97.421 560.105V629.895M97.421 560.105H167.21M97.421 629.895V699.684M97.421 629.895H167.21M97.421 699.684V769.474M97.421 699.684H167.21M97.421 769.474V839.263M97.421 769.474H167.21M97.421 839.263V909.053M97.421 839.263H167.21M97.421 909.053V978.842M97.421 909.053H167.21M97.421 978.842V1048.63M97.421 978.842H167.21M97.421 1048.63V1118.42M97.421 1048.63H167.21M97.421 1118.42V1188.21M97.421 1118.42H167.21M97.421 1188.21V1258M97.421 1188.21H167.21M97.421 1258H167.21M167.21 -68V1.78947M167.21 -68H237M167.21 1.78947V71.5789M167.21 1.78947H237M167.21 71.5789V141.368M167.21 71.5789H237M167.21 141.368V211.158M167.21 141.368H237M167.21 211.158V280.947M167.21 211.158H237M167.21 280.947V350.737M167.21 280.947H237M167.21 350.737V420.526M167.21 350.737H237M167.21 420.526V490.316M167.21 420.526H237M167.21 490.316V560.105M167.21 490.316H237M167.21 560.105V629.895M167.21 560.105H237M167.21 629.895V699.684M167.21 629.895H237M167.21 699.684V769.474M167.21 699.684H237M167.21 769.474V839.263M167.21 769.474H237M167.21 839.263V909.053M167.21 839.263H237M167.21 909.053V978.842M167.21 909.053H237M167.21 978.842V1048.63M167.21 978.842H237M167.21 1048.63V1118.42M167.21 1048.63H237M167.21 1118.42V1188.21M167.21 1118.42H237M167.21 1188.21V1258M167.21 1188.21H237M167.21 1258H237M237 -68V1.78947M237 -68H306.789M237 1.78947V71.5789M237 1.78947H306.789M237 71.5789V141.368M237 71.5789H306.789M237 141.368V211.158M237 141.368H306.789M237 211.158V280.947M237 211.158H306.789M237 280.947V350.737M237 280.947H306.789M237 350.737V420.526M237 350.737H306.789M237 420.526V490.316M237 420.526H306.789M237 490.316V560.105M237 490.316H306.789M237 560.105V629.895M237 560.105H306.789M237 629.895V699.684M237 629.895H306.789M237 699.684V769.474M237 699.684H306.789M237 769.474V839.263M237 769.474H306.789M237 839.263V909.053M237 839.263H306.789M237 909.053V978.842M237 909.053H306.789M237 978.842V1048.63M237 978.842H306.789M237 1048.63V1118.42M237 1048.63H306.789M237 1118.42V1188.21M237 1118.42H306.789M237 1188.21V1258M237 1188.21H306.789M237 1258H306.789M306.789 -68V1.78947M306.789 -68H376.579M306.789 1.78947V71.5789M306.789 1.78947H376.579M306.789 71.5789V141.368M306.789 71.5789H376.579M306.789 141.368V211.158M306.789 141.368H376.579M306.789 211.158V280.947M306.789 211.158H376.579M306.789 280.947V350.737M306.789 280.947H376.579M306.789 350.737V420.526M306.789 350.737H376.579M306.789 420.526V490.316M306.789 420.526H376.579M306.789 490.316V560.105M306.789 490.316H376.579M306.789 560.105V629.895M306.789 560.105H376.579M306.789 629.895V699.684M306.789 629.895H376.579M306.789 699.684V769.474M306.789 699.684H376.579M306.789 769.474V839.263M306.789 769.474H376.579M306.789 839.263V909.053M306.789 839.263H376.579M306.789 909.053V978.842M306.789 909.053H376.579M306.789 978.842V1048.63M306.789 978.842H376.579M306.789 1048.63V1118.42M306.789 1048.63H376.579M306.789 1118.42V1188.21M306.789 1118.42H376.579M306.789 1188.21V1258M306.789 1188.21H376.579M306.789 1258H376.579M376.579 -68V1.78947M376.579 -68H446.368M376.579 1.78947V71.5789M376.579 1.78947H446.368M376.579 71.5789V141.368M376.579 71.5789H446.368M376.579 141.368V211.158M376.579 141.368H446.368M376.579 211.158V280.947M376.579 211.158H446.368M376.579 280.947V350.737M376.579 280.947H446.368M376.579 350.737V420.526M376.579 350.737H446.368M376.579 420.526V490.316M376.579 420.526H446.368M376.579 490.316V560.105M376.579 490.316H446.368M376.579 560.105V629.895M376.579 560.105H446.368M376.579 629.895V699.684M376.579 629.895H446.368M376.579 699.684V769.474M376.579 699.684H446.368M376.579 769.474V839.263M376.579 769.474H446.368M376.579 839.263V909.053M376.579 839.263H446.368M376.579 909.053V978.842M376.579 909.053H446.368M376.579 978.842V1048.63M376.579 978.842H446.368M376.579 1048.63V1118.42M376.579 1048.63H446.368M376.579 1118.42V1188.21M376.579 1118.42H446.368M376.579 1188.21V1258M376.579 1188.21H446.368M376.579 1258H446.368M446.368 -68V1.78947M446.368 -68H516.158M446.368 1.78947V71.5789M446.368 1.78947H516.158M446.368 71.5789V141.368M446.368 71.5789H516.158M446.368 141.368V211.158M446.368 141.368H516.158M446.368 211.158V280.947M446.368 211.158H516.158M446.368 280.947V350.737M446.368 280.947H516.158M446.368 350.737V420.526M446.368 350.737H516.158M446.368 420.526V490.316M446.368 420.526H516.158M446.368 490.316V560.105M446.368 490.316H516.158M446.368 560.105V629.895M446.368 560.105H516.158M446.368 629.895V699.684M446.368 629.895H516.158M446.368 699.684V769.474M446.368 699.684H516.158M446.368 769.474V839.263M446.368 769.474H516.158M446.368 839.263V909.053M446.368 839.263H516.158M446.368 909.053V978.842M446.368 909.053H516.158M446.368 978.842V1048.63M446.368 978.842H516.158M446.368 1048.63V1118.42M446.368 1048.63H516.158M446.368 1118.42V1188.21M446.368 1118.42H516.158M446.368 1188.21V1258M446.368 1188.21H516.158M446.368 1258H516.158M516.158 -68V1.78947M516.158 -68H585.947M516.158 1.78947V71.5789M516.158 1.78947H585.947M516.158 71.5789V141.368M516.158 71.5789H585.947M516.158 141.368V211.158M516.158 141.368H585.947M516.158 211.158V280.947M516.158 211.158H585.947M516.158 280.947V350.737M516.158 280.947H585.947M516.158 350.737V420.526M516.158 350.737H585.947M516.158 420.526V490.316M516.158 420.526H585.947M516.158 490.316V560.105M516.158 490.316H585.947M516.158 560.105V629.895M516.158 560.105H585.947M516.158 629.895V699.684M516.158 629.895H585.947M516.158 699.684V769.474M516.158 699.684H585.947M516.158 769.474V839.263M516.158 769.474H585.947M516.158 839.263V909.053M516.158 839.263H585.947M516.158 909.053V978.842M516.158 909.053H585.947M516.158 978.842V1048.63M516.158 978.842H585.947M516.158 1048.63V1118.42M516.158 1048.63H585.947M516.158 1118.42V1188.21M516.158 1118.42H585.947M516.158 1188.21V1258M516.158 1188.21H585.947M516.158 1258H585.947M585.947 -68V1.78947M585.947 -68H655.737M585.947 1.78947V71.5789M585.947 1.78947H655.737M585.947 71.5789V141.368M585.947 71.5789H655.737M585.947 141.368V211.158M585.947 141.368H655.737M585.947 211.158V280.947M585.947 211.158H655.737M585.947 280.947V350.737M585.947 280.947H655.737M585.947 350.737V420.526M585.947 350.737H655.737M585.947 420.526V490.316M585.947 420.526H655.737M585.947 490.316V560.105M585.947 490.316H655.737M585.947 560.105V629.895M585.947 560.105H655.737M585.947 629.895V699.684M585.947 629.895H655.737M585.947 699.684V769.474M585.947 699.684H655.737M585.947 769.474V839.263M585.947 769.474H655.737M585.947 839.263V909.053M585.947 839.263H655.737M585.947 909.053V978.842M585.947 909.053H655.737M585.947 978.842V1048.63M585.947 978.842H655.737M585.947 1048.63V1118.42M585.947 1048.63H655.737M585.947 1118.42V1188.21M585.947 1118.42H655.737M585.947 1188.21V1258M585.947 1188.21H655.737M585.947 1258H655.737M655.737 -68V1.78947M655.737 -68H725.526M655.737 1.78947V71.5789M655.737 1.78947H725.526M655.737 71.5789V141.368M655.737 71.5789H725.526M655.737 141.368V211.158M655.737 141.368H725.526M655.737 211.158V280.947M655.737 211.158H725.526M655.737 280.947V350.737M655.737 280.947H725.526M655.737 350.737V420.526M655.737 350.737H725.526M655.737 420.526V490.316M655.737 420.526H725.526M655.737 490.316V560.105M655.737 490.316H725.526M655.737 560.105V629.895M655.737 560.105H725.526M655.737 629.895V699.684M655.737 629.895H725.526M655.737 699.684V769.474M655.737 699.684H725.526M655.737 769.474V839.263M655.737 769.474H725.526M655.737 839.263V909.053M655.737 839.263H725.526M655.737 909.053V978.842M655.737 909.053H725.526M655.737 978.842V1048.63M655.737 978.842H725.526M655.737 1048.63V1118.42M655.737 1048.63H725.526M655.737 1118.42V1188.21M655.737 1118.42H725.526M655.737 1188.21V1258M655.737 1188.21H725.526M655.737 1258H725.526M725.526 -68V1.78947M725.526 -68H795.316M725.526 1.78947V71.5789M725.526 1.78947H795.316M725.526 71.5789V141.368M725.526 71.5789H795.316M725.526 141.368V211.158M725.526 141.368H795.316M725.526 211.158V280.947M725.526 211.158H795.316M725.526 280.947V350.737M725.526 280.947H795.316M725.526 350.737V420.526M725.526 350.737H795.316M725.526 420.526V490.316M725.526 420.526H795.316M725.526 490.316V560.105M725.526 490.316H795.316M725.526 560.105V629.895M725.526 560.105H795.316M725.526 629.895V699.684M725.526 629.895H795.316M725.526 699.684V769.474M725.526 699.684H795.316M725.526 769.474V839.263M725.526 769.474H795.316M725.526 839.263V909.053M725.526 839.263H795.316M725.526 909.053V978.842M725.526 909.053H795.316M725.526 978.842V1048.63M725.526 978.842H795.316M725.526 1048.63V1118.42M725.526 1048.63H795.316M725.526 1118.42V1188.21M725.526 1118.42H795.316M725.526 1188.21V1258M725.526 1188.21H795.316M725.526 1258H795.316M795.316 -68V1.78947M795.316 -68H865.105M795.316 1.78947V71.5789M795.316 1.78947H865.105M795.316 71.5789V141.368M795.316 71.5789H865.105M795.316 141.368V211.158M795.316 141.368H865.105M795.316 211.158V280.947M795.316 211.158H865.105M795.316 280.947V350.737M795.316 280.947H865.105M795.316 350.737V420.526M795.316 350.737H865.105M795.316 420.526V490.316M795.316 420.526H865.105M795.316 490.316V560.105M795.316 490.316H865.105M795.316 560.105V629.895M795.316 560.105H865.105M795.316 629.895V699.684M795.316 629.895H865.105M795.316 699.684V769.474M795.316 699.684H865.105M795.316 769.474V839.263M795.316 769.474H865.105M795.316 839.263V909.053M795.316 839.263H865.105M795.316 909.053V978.842M795.316 909.053H865.105M795.316 978.842V1048.63M795.316 978.842H865.105M795.316 1048.63V1118.42M795.316 1048.63H865.105M795.316 1118.42V1188.21M795.316 1118.42H865.105M795.316 1188.21V1258M795.316 1188.21H865.105M795.316 1258H865.105M865.105 -68V1.78947M865.105 -68H934.895M865.105 1.78947V71.5789M865.105 1.78947H934.895M865.105 71.5789V141.368M865.105 71.5789H934.895M865.105 141.368V211.158M865.105 141.368H934.895M865.105 211.158V280.947M865.105 211.158H934.895M865.105 280.947V350.737M865.105 280.947H934.895M865.105 350.737V420.526M865.105 350.737H934.895M865.105 420.526V490.316M865.105 420.526H934.895M865.105 490.316V560.105M865.105 490.316H934.895M865.105 560.105V629.895M865.105 560.105H934.895M865.105 629.895V699.684M865.105 629.895H934.895M865.105 699.684V769.474M865.105 699.684H934.895M865.105 769.474V839.263M865.105 769.474H934.895M865.105 839.263V909.053M865.105 839.263H934.895M865.105 909.053V978.842M865.105 909.053H934.895M865.105 978.842V1048.63M865.105 978.842H934.895M865.105 1048.63V1118.42M865.105 1048.63H934.895M865.105 1118.42V1188.21M865.105 1118.42H934.895M865.105 1188.21V1258M865.105 1188.21H934.895M865.105 1258H934.895M934.895 -68V1.78947M934.895 -68H1004.68M934.895 1.78947V71.5789M934.895 1.78947H1004.68M934.895 71.5789V141.368M934.895 71.5789H1004.68M934.895 141.368V211.158M934.895 141.368H1004.68M934.895 211.158V280.947M934.895 211.158H1004.68M934.895 280.947V350.737M934.895 280.947H1004.68M934.895 350.737V420.526M934.895 350.737H1004.68M934.895 420.526V490.316M934.895 420.526H1004.68M934.895 490.316V560.105M934.895 490.316H1004.68M934.895 560.105V629.895M934.895 560.105H1004.68M934.895 629.895V699.684M934.895 629.895H1004.68M934.895 699.684V769.474M934.895 699.684H1004.68M934.895 769.474V839.263M934.895 769.474H1004.68M934.895 839.263V909.053M934.895 839.263H1004.68M934.895 909.053V978.842M934.895 909.053H1004.68M934.895 978.842V1048.63M934.895 978.842H1004.68M934.895 1048.63V1118.42M934.895 1048.63H1004.68M934.895 1118.42V1188.21M934.895 1118.42H1004.68M934.895 1188.21V1258M934.895 1188.21H1004.68M934.895 1258H1004.68M1004.68 -68V1.78947M1004.68 -68H1074.47M1004.68 1.78947V71.5789M1004.68 1.78947H1074.47M1004.68 71.5789V141.368M1004.68 71.5789H1074.47M1004.68 141.368V211.158M1004.68 141.368H1074.47M1004.68 211.158V280.947M1004.68 211.158H1074.47M1004.68 280.947V350.737M1004.68 280.947H1074.47M1004.68 350.737V420.526M1004.68 350.737H1074.47M1004.68 420.526V490.316M1004.68 420.526H1074.47M1004.68 490.316V560.105M1004.68 490.316H1074.47M1004.68 560.105V629.895M1004.68 560.105H1074.47M1004.68 629.895V699.684M1004.68 629.895H1074.47M1004.68 699.684V769.474M1004.68 699.684H1074.47M1004.68 769.474V839.263M1004.68 769.474H1074.47M1004.68 839.263V909.053M1004.68 839.263H1074.47M1004.68 909.053V978.842M1004.68 909.053H1074.47M1004.68 978.842V1048.63M1004.68 978.842H1074.47M1004.68 1048.63V1118.42M1004.68 1048.63H1074.47M1004.68 1118.42V1188.21M1004.68 1118.42H1074.47M1004.68 1188.21V1258M1004.68 1188.21H1074.47M1004.68 1258H1074.47M1074.47 -68V1.78947M1074.47 -68H1144.26M1074.47 1.78947V71.5789M1074.47 1.78947H1144.26M1074.47 71.5789V141.368M1074.47 71.5789H1144.26M1074.47 141.368V211.158M1074.47 141.368H1144.26M1074.47 211.158V280.947M1074.47 211.158H1144.26M1074.47 280.947V350.737M1074.47 280.947H1144.26M1074.47 350.737V420.526M1074.47 350.737H1144.26M1074.47 420.526V490.316M1074.47 420.526H1144.26M1074.47 490.316V560.105M1074.47 490.316H1144.26M1074.47 560.105V629.895M1074.47 560.105H1144.26M1074.47 629.895V699.684M1074.47 629.895H1144.26M1074.47 699.684V769.474M1074.47 699.684H1144.26M1074.47 769.474V839.263M1074.47 769.474H1144.26M1074.47 839.263V909.053M1074.47 839.263H1144.26M1074.47 909.053V978.842M1074.47 909.053H1144.26M1074.47 978.842V1048.63M1074.47 978.842H1144.26M1074.47 1048.63V1118.42M1074.47 1048.63H1144.26M1074.47 1118.42V1188.21M1074.47 1118.42H1144.26M1074.47 1188.21V1258M1074.47 1188.21H1144.26M1074.47 1258H1144.26M1144.26 -68V1.78947M1144.26 -68H1214.05M1144.26 1.78947V71.5789M1144.26 1.78947H1214.05M1144.26 71.5789V141.368M1144.26 71.5789H1214.05M1144.26 141.368V211.158M1144.26 141.368H1214.05M1144.26 211.158V280.947M1144.26 211.158H1214.05M1144.26 280.947V350.737M1144.26 280.947H1214.05M1144.26 350.737V420.526M1144.26 350.737H1214.05M1144.26 420.526V490.316M1144.26 420.526H1214.05M1144.26 490.316V560.105M1144.26 490.316H1214.05M1144.26 560.105V629.895M1144.26 560.105H1214.05M1144.26 629.895V699.684M1144.26 629.895H1214.05M1144.26 699.684V769.474M1144.26 699.684H1214.05M1144.26 769.474V839.263M1144.26 769.474H1214.05M1144.26 839.263V909.053M1144.26 839.263H1214.05M1144.26 909.053V978.842M1144.26 909.053H1214.05M1144.26 978.842V1048.63M1144.26 978.842H1214.05M1144.26 1048.63V1118.42M1144.26 1048.63H1214.05M1144.26 1118.42V1188.21M1144.26 1118.42H1214.05M1144.26 1188.21V1258M1144.26 1188.21H1214.05M1144.26 1258H1214.05M1214.05 -68V1.78947M1214.05 -68H1283.84M1214.05 1.78947V71.5789M1214.05 1.78947H1283.84M1214.05 71.5789V141.368M1214.05 71.5789H1283.84M1214.05 141.368V211.158M1214.05 141.368H1283.84M1214.05 211.158V280.947M1214.05 211.158H1283.84M1214.05 280.947V350.737M1214.05 280.947H1283.84M1214.05 350.737V420.526M1214.05 350.737H1283.84M1214.05 420.526V490.316M1214.05 420.526H1283.84M1214.05 490.316V560.105M1214.05 490.316H1283.84M1214.05 560.105V629.895M1214.05 560.105H1283.84M1214.05 629.895V699.684M1214.05 629.895H1283.84M1214.05 699.684V769.474M1214.05 699.684H1283.84M1214.05 769.474V839.263M1214.05 769.474H1283.84M1214.05 839.263V909.053M1214.05 839.263H1283.84M1214.05 909.053V978.842M1214.05 909.053H1283.84M1214.05 978.842V1048.63M1214.05 978.842H1283.84M1214.05 1048.63V1118.42M1214.05 1048.63H1283.84M1214.05 1118.42V1188.21M1214.05 1118.42H1283.84M1214.05 1188.21V1258M1214.05 1188.21H1283.84M1214.05 1258H1283.84M1283.84 -68V1.78947M1283.84 -68H1353.63M1283.84 1.78947V71.5789M1283.84 1.78947H1353.63M1283.84 71.5789V141.368M1283.84 71.5789H1353.63M1283.84 141.368V211.158M1283.84 141.368H1353.63M1283.84 211.158V280.947M1283.84 211.158H1353.63M1283.84 280.947V350.737M1283.84 280.947H1353.63M1283.84 350.737V420.526M1283.84 350.737H1353.63M1283.84 420.526V490.316M1283.84 420.526H1353.63M1283.84 490.316V560.105M1283.84 490.316H1353.63M1283.84 560.105V629.895M1283.84 560.105H1353.63M1283.84 629.895V699.684M1283.84 629.895H1353.63M1283.84 699.684V769.474M1283.84 699.684H1353.63M1283.84 769.474V839.263M1283.84 769.474H1353.63M1283.84 839.263V909.053M1283.84 839.263H1353.63M1283.84 909.053V978.842M1283.84 909.053H1353.63M1283.84 978.842V1048.63M1283.84 978.842H1353.63M1283.84 1048.63V1118.42M1283.84 1048.63H1353.63M1283.84 1118.42V1188.21M1283.84 1118.42H1353.63M1283.84 1188.21V1258M1283.84 1188.21H1353.63M1283.84 1258H1353.63M1353.63 -68V1.78947M1353.63 -68H1423.42M1353.63 1.78947V71.5789M1353.63 1.78947H1423.42M1353.63 71.5789V141.368M1353.63 71.5789H1423.42M1353.63 141.368V211.158M1353.63 141.368H1423.42M1353.63 211.158V280.947M1353.63 211.158H1423.42M1353.63 280.947V350.737M1353.63 280.947H1423.42M1353.63 350.737V420.526M1353.63 350.737H1423.42M1353.63 420.526V490.316M1353.63 420.526H1423.42M1353.63 490.316V560.105M1353.63 490.316H1423.42M1353.63 560.105V629.895M1353.63 560.105H1423.42M1353.63 629.895V699.684M1353.63 629.895H1423.42M1353.63 699.684V769.474M1353.63 699.684H1423.42M1353.63 769.474V839.263M1353.63 769.474H1423.42M1353.63 839.263V909.053M1353.63 839.263H1423.42M1353.63 909.053V978.842M1353.63 909.053H1423.42M1353.63 978.842V1048.63M1353.63 978.842H1423.42M1353.63 1048.63V1118.42M1353.63 1048.63H1423.42M1353.63 1118.42V1188.21M1353.63 1118.42H1423.42M1353.63 1188.21V1258M1353.63 1188.21H1423.42M1353.63 1258H1423.42M1423.42 -68V1.78947M1423.42 -68H1493.21M1423.42 1.78947V71.5789M1423.42 1.78947H1493.21M1423.42 71.5789V141.368M1423.42 71.5789H1493.21M1423.42 141.368V211.158M1423.42 141.368H1493.21M1423.42 211.158V280.947M1423.42 211.158H1493.21M1423.42 280.947V350.737M1423.42 280.947H1493.21M1423.42 350.737V420.526M1423.42 350.737H1493.21M1423.42 420.526V490.316M1423.42 420.526H1493.21M1423.42 490.316V560.105M1423.42 490.316H1493.21M1423.42 560.105V629.895M1423.42 560.105H1493.21M1423.42 629.895V699.684M1423.42 629.895H1493.21M1423.42 699.684V769.474M1423.42 699.684H1493.21M1423.42 769.474V839.263M1423.42 769.474H1493.21M1423.42 839.263V909.053M1423.42 839.263H1493.21M1423.42 909.053V978.842M1423.42 909.053H1493.21M1423.42 978.842V1048.63M1423.42 978.842H1493.21M1423.42 1048.63V1118.42M1423.42 1048.63H1493.21M1423.42 1118.42V1188.21M1423.42 1118.42H1493.21M1423.42 1188.21V1258M1423.42 1188.21H1493.21M1423.42 1258H1493.21M1493.21 -68V1.78947M1493.21 -68H1563M1493.21 1.78947V71.5789M1493.21 1.78947H1563M1493.21 71.5789V141.368M1493.21 71.5789H1563M1493.21 141.368V211.158M1493.21 141.368H1563M1493.21 211.158V280.947M1493.21 211.158H1563M1493.21 280.947V350.737M1493.21 280.947H1563M1493.21 350.737V420.526M1493.21 350.737H1563M1493.21 420.526V490.316M1493.21 420.526H1563M1493.21 490.316V560.105M1493.21 490.316H1563M1493.21 560.105V629.895M1493.21 560.105H1563M1493.21 629.895V699.684M1493.21 629.895H1563M1493.21 699.684V769.474M1493.21 699.684H1563M1493.21 769.474V839.263M1493.21 769.474H1563M1493.21 839.263V909.053M1493.21 839.263H1563M1493.21 909.053V978.842M1493.21 909.053H1563M1493.21 978.842V1048.63M1493.21 978.842H1563M1493.21 1048.63V1118.42M1493.21 1048.63H1563M1493.21 1118.42V1188.21M1493.21 1118.42H1563M1493.21 1188.21V1258M1493.21 1188.21H1563M1493.21 1258H1563M1563 -68V1.78947M1563 -68H1632.79M1563 1.78947V71.5789M1563 1.78947H1632.79M1563 71.5789V141.368M1563 71.5789H1632.79M1563 141.368V211.158M1563 141.368H1632.79M1563 211.158V280.947M1563 211.158H1632.79M1563 280.947V350.737M1563 280.947H1632.79M1563 350.737V420.526M1563 350.737H1632.79M1563 420.526V490.316M1563 420.526H1632.79M1563 490.316V560.105M1563 490.316H1632.79M1563 560.105V629.895M1563 560.105H1632.79M1563 629.895V699.684M1563 629.895H1632.79M1563 699.684V769.474M1563 699.684H1632.79M1563 769.474V839.263M1563 769.474H1632.79M1563 839.263V909.053M1563 839.263H1632.79M1563 909.053V978.842M1563 909.053H1632.79M1563 978.842V1048.63M1563 978.842H1632.79M1563 1048.63V1118.42M1563 1048.63H1632.79M1563 1118.42V1188.21M1563 1118.42H1632.79M1563 1188.21V1258M1563 1188.21H1632.79M1563 1258H1632.79M1632.79 -68V1.78947M1632.79 -68H1702.58M1632.79 1.78947V71.5789M1632.79 1.78947H1702.58M1632.79 71.5789V141.368M1632.79 71.5789H1702.58M1632.79 141.368V211.158M1632.79 141.368H1702.58M1632.79 211.158V280.947M1632.79 211.158H1702.58M1632.79 280.947V350.737M1632.79 280.947H1702.58M1632.79 350.737V420.526M1632.79 350.737H1702.58M1632.79 420.526V490.316M1632.79 420.526H1702.58M1632.79 490.316V560.105M1632.79 490.316H1702.58M1632.79 560.105V629.895M1632.79 560.105H1702.58M1632.79 629.895V699.684M1632.79 629.895H1702.58M1632.79 699.684V769.474M1632.79 699.684H1702.58M1632.79 769.474V839.263M1632.79 769.474H1702.58M1632.79 839.263V909.053M1632.79 839.263H1702.58M1632.79 909.053V978.842M1632.79 909.053H1702.58M1632.79 978.842V1048.63M1632.79 978.842H1702.58M1632.79 1048.63V1118.42M1632.79 1048.63H1702.58M1632.79 1118.42V1188.21M1632.79 1118.42H1702.58M1632.79 1188.21V1258M1632.79 1188.21H1702.58M1632.79 1258H1702.58M1702.58 -68V1.78947M1702.58 -68H1772.37M1702.58 1.78947V71.5789M1702.58 1.78947H1772.37M1702.58 71.5789V141.368M1702.58 71.5789H1772.37M1702.58 141.368V211.158M1702.58 141.368H1772.37M1702.58 211.158V280.947M1702.58 211.158H1772.37M1702.58 280.947V350.737M1702.58 280.947H1772.37M1702.58 350.737V420.526M1702.58 350.737H1772.37M1702.58 420.526V490.316M1702.58 420.526H1772.37M1702.58 490.316V560.105M1702.58 490.316H1772.37M1702.58 560.105V629.895M1702.58 560.105H1772.37M1702.58 629.895V699.684M1702.58 629.895H1772.37M1702.58 699.684V769.474M1702.58 699.684H1772.37M1702.58 769.474V839.263M1702.58 769.474H1772.37M1702.58 839.263V909.053M1702.58 839.263H1772.37M1702.58 909.053V978.842M1702.58 909.053H1772.37M1702.58 978.842V1048.63M1702.58 978.842H1772.37M1702.58 1048.63V1118.42M1702.58 1048.63H1772.37M1702.58 1118.42V1188.21M1702.58 1118.42H1772.37M1702.58 1188.21V1258M1702.58 1188.21H1772.37M1702.58 1258H1772.37M1772.37 -68V1.78947M1772.37 -68H1842.16M1772.37 1.78947V71.5789M1772.37 1.78947H1842.16M1772.37 71.5789V141.368M1772.37 71.5789H1842.16M1772.37 141.368V211.158M1772.37 141.368H1842.16M1772.37 211.158V280.947M1772.37 211.158H1842.16M1772.37 280.947V350.737M1772.37 280.947H1842.16M1772.37 350.737V420.526M1772.37 350.737H1842.16M1772.37 420.526V490.316M1772.37 420.526H1842.16M1772.37 490.316V560.105M1772.37 490.316H1842.16M1772.37 560.105V629.895M1772.37 560.105H1842.16M1772.37 629.895V699.684M1772.37 629.895H1842.16M1772.37 699.684V769.474M1772.37 699.684H1842.16M1772.37 769.474V839.263M1772.37 769.474H1842.16M1772.37 839.263V909.053M1772.37 839.263H1842.16M1772.37 909.053V978.842M1772.37 909.053H1842.16M1772.37 978.842V1048.63M1772.37 978.842H1842.16M1772.37 1048.63V1118.42M1772.37 1048.63H1842.16M1772.37 1118.42V1188.21M1772.37 1118.42H1842.16M1772.37 1188.21V1258M1772.37 1188.21H1842.16M1772.37 1258H1842.16M1842.16 -68V1.78947M1842.16 -68H1911.95M1842.16 1.78947V71.5789M1842.16 1.78947H1911.95M1842.16 71.5789V141.368M1842.16 71.5789H1911.95M1842.16 141.368V211.158M1842.16 141.368H1911.95M1842.16 211.158V280.947M1842.16 211.158H1911.95M1842.16 280.947V350.737M1842.16 280.947H1911.95M1842.16 350.737V420.526M1842.16 350.737H1911.95M1842.16 420.526V490.316M1842.16 420.526H1911.95M1842.16 490.316V560.105M1842.16 490.316H1911.95M1842.16 560.105V629.895M1842.16 560.105H1911.95M1842.16 629.895V699.684M1842.16 629.895H1911.95M1842.16 699.684V769.474M1842.16 699.684H1911.95M1842.16 769.474V839.263M1842.16 769.474H1911.95M1842.16 839.263V909.053M1842.16 839.263H1911.95M1842.16 909.053V978.842M1842.16 909.053H1911.95M1842.16 978.842V1048.63M1842.16 978.842H1911.95M1842.16 1048.63V1118.42M1842.16 1048.63H1911.95M1842.16 1118.42V1188.21M1842.16 1118.42H1911.95M1842.16 1188.21V1258M1842.16 1188.21H1911.95M1842.16 1258H1911.95M1911.95 -68V1.78947M1911.95 -68H1981.74V1.78947M1911.95 1.78947V71.5789M1911.95 1.78947H1981.74M1911.95 71.5789V141.368M1911.95 71.5789H1981.74M1911.95 141.368V211.158M1911.95 141.368H1981.74M1911.95 211.158V280.947M1911.95 211.158H1981.74M1911.95 280.947V350.737M1911.95 280.947H1981.74M1911.95 350.737V420.526M1911.95 350.737H1981.74M1911.95 420.526V490.316M1911.95 420.526H1981.74M1911.95 490.316V560.105M1911.95 490.316H1981.74M1911.95 560.105V629.895M1911.95 560.105H1981.74M1911.95 629.895V699.684M1911.95 629.895H1981.74M1911.95 699.684V769.474M1911.95 699.684H1981.74M1911.95 769.474V839.263M1911.95 769.474H1981.74M1911.95 839.263V909.053M1911.95 839.263H1981.74M1911.95 909.053V978.842M1911.95 909.053H1981.74M1911.95 978.842V1048.63M1911.95 978.842H1981.74M1911.95 1048.63V1118.42M1911.95 1048.63H1981.74M1911.95 1118.42V1188.21M1911.95 1118.42H1981.74M1911.95 1188.21V1258M1911.95 1188.21H1981.74M1911.95 1258H1981.74V1188.21M1981.74 1.78947V71.5789M1981.74 71.5789V141.368M1981.74 141.368V211.158M1981.74 211.158V280.947M1981.74 280.947V350.737M1981.74 350.737V420.526M1981.74 420.526V490.316M1981.74 490.316V560.105M1981.74 560.105V629.895M1981.74 629.895V699.684M1981.74 699.684V769.474M1981.74 769.474V839.263M1981.74 839.263V909.053M1981.74 909.053V978.842M1981.74 978.842V1048.63M1981.74 1048.63V1118.42M1981.74 1118.42V1188.21" stroke="url(#paint0_radial_26375_945)" stroke-width="1.74474"/>
<defs>
<radialGradient id="paint0_radial_26375_945" cx="0" cy="0" r="1" gradientUnits="userSpaceOnUse" gradientTransform="translate(1246.5 476.5) rotate(128.409) scale(357.329 668.22)">
<stop stop-opacity="0.12"/>
<stop offset="1" stop-opacity="0"/>
</radialGradient>
</defs>
</svg>
