<svg width="103" height="32" viewBox="0 0 103 32" fill="none" xmlns="http://www.w3.org/2000/svg">
<path d="M21.13 0.544107C20.297 0.326503 19.5965 0.205612 18.4796 0.0847208C15.9049 -0.199374 12.8254 0.241879 10.3454 1.24528C9.73956 1.48706 9.56286 1.60191 9.71432 1.65631C9.8847 1.71675 23.9382 1.66235 23.9382 1.59586C23.9255 1.45079 22.3479 0.858425 21.13 0.544107Z" fill="black"/>
<path d="M14.3147 2.64157C14.3147 2.51463 14.2768 2.45419 14.1506 2.41188C14.0559 2.37561 12.7749 2.35143 10.9512 2.35143C8.3197 2.35143 7.88427 2.36352 7.7202 2.44814C7.24691 2.68388 5.7324 3.81421 5.7324 3.92906C5.7324 3.95928 9.32307 3.98346 13.7152 3.98346C20.5873 3.98346 21.7232 3.97137 21.8431 3.89884C21.9567 3.8263 22.4867 3.80213 24.6828 3.76586C26.1658 3.74168 27.3963 3.69937 27.4152 3.67519C27.4174 3.67147 27.4187 3.66728 27.4192 3.66265C27.2418 3.51869 27.0613 3.37819 26.8777 3.24126C26.8647 3.23784 26.8525 3.23536 26.841 3.23394C26.74 3.2158 25.5915 3.18558 24.2915 3.16745C22.3605 3.13722 21.9125 3.11909 21.8052 3.04656C21.6916 2.96798 21.1363 2.95589 18.0694 2.95589C15.3496 2.95589 14.4472 2.93775 14.3904 2.88335C14.3462 2.84104 14.3147 2.73224 14.3147 2.64157Z" fill="black"/>
<path d="M29.5527 5.73826C29.2849 5.69525 28.623 5.6784 26.7968 5.65176C19.199 5.53087 19.0854 5.52483 18.9213 5.43416C18.7888 5.35558 18.183 5.33744 15.1035 5.31327L11.4434 5.28304L11.4245 5.08962C11.4118 4.96873 11.3487 4.85388 11.2667 4.79948C11.1531 4.7209 10.6924 4.70881 7.96631 4.70881H4.79845L4.36933 5.14402C3.84556 5.68803 3.3849 6.27435 3.43538 6.34689C3.45431 6.37711 6.6348 6.40129 11.0206 6.40129C18.2461 6.40129 18.5932 6.39524 18.9213 6.28644C19.2305 6.18368 19.5587 6.17159 22.0766 6.13533C27.5184 6.06481 29.3982 6.02837 29.7541 5.97796C29.6878 5.89743 29.6206 5.81753 29.5527 5.73826Z" fill="black"/>
<path d="M31.3158 8.24096C30.8927 8.22291 29.6643 8.1896 28.2293 8.16025C27.4734 8.14474 26.5442 8.1248 25.6073 8.10469C24.3543 8.0778 23.0874 8.05061 22.2028 8.03332C20.6567 7.99705 18.8835 7.97287 18.2587 7.97287C17.3563 7.96683 17.0976 7.94869 17.0029 7.8822C16.8957 7.80362 16.3529 7.79153 13.3176 7.79153C10.989 7.79153 9.72063 7.76736 9.63859 7.73109C9.56286 7.68878 9.51869 7.60415 9.51869 7.48931C9.51869 7.37446 9.47452 7.28984 9.39879 7.24752C9.31676 7.21126 8.13669 7.18708 5.99744 7.18708H2.71599L2.46988 7.56184C2.11018 8.1119 1.8199 8.63173 1.8199 8.73449C1.8199 8.80702 2.84219 8.81911 9.32938 8.81911C16.0374 8.81911 16.8578 8.80702 16.9966 8.7224C17.1544 8.62568 17.7791 8.60755 27.2827 8.45644C29.9704 8.41197 31.0362 8.38386 31.3641 8.3264C31.3481 8.29786 31.332 8.26938 31.3158 8.24096Z" fill="black"/>
<path d="M31.2685 23.6996C30.7738 23.6497 29.3142 23.6129 25.926 23.5618C17.3612 23.4206 17.1821 23.4219 17.0568 23.3438C17.048 23.3383 17.0394 23.3324 17.0282 23.3261C16.8957 23.2475 16.3151 23.2293 13.2103 23.2052L9.55024 23.1749L9.51869 22.9634C9.49976 22.8183 9.43666 22.7337 9.32938 22.6793C9.12113 22.5765 1.59903 22.5644 1.53592 22.6672C1.48544 22.7397 2.00921 23.8096 2.23639 24.0937L2.39415 24.2932H9.58811C16.2962 24.2932 16.7947 24.2871 16.984 24.1904C17.1607 24.0937 17.5015 24.0816 20.0257 24.0454C27.1715 23.9404 30.3322 23.8726 31.2114 23.7976C31.2305 23.765 31.2495 23.7323 31.2685 23.6996Z" fill="black"/>
<path d="M29.6054 26.058C29.1501 26.0155 27.6948 25.9864 23.4964 25.9192C20.0067 25.8648 19.0412 25.8285 18.9087 25.7681C18.7699 25.7016 18.0568 25.6834 15.1981 25.6834C12.8759 25.6834 11.6138 25.6593 11.5317 25.623C11.456 25.5807 11.4118 25.4961 11.4118 25.3752C11.4118 25.2422 11.374 25.1817 11.2478 25.1394C11.0269 25.0548 3.03782 25.0608 2.98734 25.1394C2.96841 25.1757 3.01258 25.2905 3.0883 25.3993C3.3281 25.7257 3.97808 26.4934 4.1106 26.6022C4.22419 26.705 4.66593 26.711 11.4749 26.711C17.7349 26.711 18.7383 26.6989 18.9024 26.6203C19.0854 26.5297 21.1174 26.4753 27.5982 26.3665C28.5662 26.3528 29.0914 26.3391 29.3822 26.3155C29.4575 26.2305 29.5319 26.1446 29.6054 26.058Z" fill="black"/>
<path d="M27.2169 28.357C26.8792 28.3266 26.0301 28.2998 24.6323 28.2766C22.3542 28.2342 21.9314 28.2161 21.8115 28.1375C21.6853 28.0529 21.2373 28.0408 18.0315 28.0408C14.893 28.0408 14.3954 28.0523 14.3234 27.8902C14.3048 27.8483 14.3147 27.7948 14.3147 27.7265C14.3147 27.654 14.2642 27.5633 14.2074 27.521C14.1127 27.4545 13.2293 27.4424 9.56917 27.4364C6.60325 27.4364 5.03824 27.4545 5.03824 27.4968C5.03824 27.5814 5.66298 28.1375 6.32558 28.6453L6.47603 28.7612C6.62061 28.8658 6.76702 28.9682 6.91519 29.0684H14.2705C20.7072 29.0684 21.6916 29.0563 21.8494 28.9777C21.9882 28.9052 22.2722 28.8871 23.1115 28.8871C23.7047 28.8871 24.809 28.8689 25.5663 28.8447L26.6029 28.8174C26.8114 28.6684 27.0161 28.5149 27.2169 28.357Z" fill="black"/>
<path d="M23.7929 30.4426C23.2314 30.4107 21.1768 30.3982 16.8136 30.3982C12.4531 30.3982 9.6449 30.4224 9.6449 30.4526C9.6449 30.5251 10.1624 30.7548 10.8881 31.0087C11.1973 31.1115 11.5002 31.2203 11.5696 31.2505C11.639 31.2807 12.0176 31.3835 12.4026 31.4862C12.8342 31.5965 13.2722 31.69 13.7146 31.7668C14.6453 31.9201 15.6022 32 16.5785 32C19.1612 32 21.6075 31.4411 23.7929 30.4426Z" fill="black"/>
<path d="M8.25659 10.0522C8.25659 9.91318 8.21873 9.82855 8.13669 9.78624C8.05466 9.74997 6.84935 9.72579 4.66593 9.72579C1.54223 9.72579 1.31506 9.73184 1.26457 9.82855C1.13205 10.0643 0.747113 11.116 0.747113 11.2369V11.3578H8.16194C14.9078 11.3578 15.602 11.3518 15.785 11.2611C15.9554 11.1765 16.4161 11.1523 19.2368 11.11C29.1128 10.9589 32.2554 10.8864 31.984 10.8078C31.8957 10.7836 31.3277 10.7655 30.7219 10.7594C30.1161 10.7534 28.4565 10.7292 27.0303 10.699C25.753 10.6663 23.1276 10.619 20.9089 10.5791C20.6612 10.5746 20.4185 10.5702 20.1834 10.566C16.8452 10.5116 15.886 10.4753 15.7535 10.4149C15.6146 10.3484 14.8889 10.3303 12.0176 10.3303C10.0614 10.3303 8.41436 10.3121 8.35756 10.294C8.29446 10.2698 8.25659 10.1852 8.25659 10.0522Z" fill="black"/>
<path d="M7.61923 12.6272C7.59399 12.5184 7.52458 12.3854 7.46147 12.3431C7.2974 12.2282 0.538867 12.2282 0.44421 12.337C0.336931 12.464 0.109754 13.6789 0.160238 13.818C0.18548 13.8784 1.71893 13.8965 7.53089 13.8965C14.0244 13.8965 14.8952 13.8845 15.1035 13.7998C15.2991 13.7212 15.9238 13.6971 19.0097 13.6548C29.605 13.4916 31.4792 13.4432 30.8481 13.3465C30.6904 13.3223 30.0846 13.2981 29.4914 13.2981C28.9045 13.2921 27.1565 13.2679 25.6104 13.2316C25.2795 13.2252 24.8829 13.2173 24.4433 13.2086C22.8294 13.1766 20.636 13.1332 18.9844 13.1047C16.3025 13.0563 15.1413 13.0201 15.0782 12.9657C15.0151 12.9173 13.9423 12.8931 11.3235 12.869L7.66341 12.8387L7.61923 12.6272Z" fill="black"/>
<path d="M7.32264 15.2566C7.31002 15.1538 7.25323 15.039 7.19643 14.9967C7.04498 14.8878 0.0655805 14.8878 0.0150966 15.0027C0.00247563 15.045 -0.00383485 15.4077 0.00247563 15.8066L0.0214071 16.5259L7.2974 16.5441C13.936 16.5561 14.5923 16.5501 14.7753 16.4594C14.9457 16.3748 15.3811 16.3506 17.9432 16.3083C29.1191 16.1209 30.8229 16.0786 30.7409 16.0121C30.7156 15.988 28.8035 15.9336 26.4939 15.8973C24.1843 15.855 21.3761 15.8006 20.2465 15.7704C19.1169 15.7341 17.4762 15.7099 16.5991 15.7099C15.1981 15.7099 14.9773 15.6978 14.8006 15.6011C14.6176 15.5104 14.2705 15.4983 10.9701 15.4681L7.34157 15.4379L7.32264 15.2566Z" fill="black"/>
<path d="M7.62554 17.9585C7.62554 17.759 7.57506 17.6865 7.39206 17.5898C7.20905 17.4991 0.141306 17.4931 0.084512 17.5837C0.0340281 17.6563 0.160238 18.6657 0.254895 18.9619C0.292758 19.0828 0.368484 19.1674 0.45052 19.1855C0.526246 19.2037 3.81401 19.2097 7.75175 19.2037C14.4282 19.1855 14.9268 19.1795 15.1035 19.0828C15.2675 18.9861 15.4758 18.974 16.7126 18.974C17.4951 18.974 19.2242 18.9498 20.562 18.9135C21.8999 18.8833 24.8216 18.8289 27.0618 18.7926C29.3021 18.7503 31.1763 18.708 31.2268 18.6838C31.4098 18.6113 27.9769 18.5327 18.0063 18.3756C15.5768 18.3393 15.2044 18.3212 15.0277 18.2305C14.8447 18.1398 14.485 18.1277 11.2225 18.1277H7.62554V17.9585Z" fill="black"/>
<path d="M8.25659 20.4368C8.25659 20.2433 8.22504 20.1889 8.09883 20.1345C7.97893 20.0801 6.91877 20.062 4.27468 20.062C1.03108 20.062 0.614593 20.0741 0.57673 20.1527C0.545178 20.2373 0.627214 20.5274 0.892254 21.3314C0.930117 21.4462 1.00584 21.5913 1.05633 21.6457C1.13836 21.7484 1.56748 21.7545 8.33232 21.7545C15.3938 21.7545 15.52 21.7545 15.7661 21.6336C15.9996 21.5187 16.1384 21.5127 17.8296 21.5127C18.8267 21.5127 20.7261 21.4885 22.045 21.4522C23.3639 21.422 26.1405 21.3616 28.2167 21.3253C30.2865 21.283 31.984 21.2346 31.984 21.2105C31.984 21.1561 26.7779 21.0473 18.7005 20.9324C16.3277 20.8961 16.0185 20.878 15.7471 20.7813C15.4632 20.6725 15.2044 20.6665 11.8536 20.6665H8.25659V20.4368Z" fill="black"/>
<path fill-rule="evenodd" clip-rule="evenodd" d="M63.0536 24.0515L63.0174 22.5574V22.5459C62.5499 23.0131 62.008 23.3944 61.4121 23.6684C60.7236 23.9853 59.9798 24.1505 59.2254 24.1505C58.4703 24.1505 57.7266 23.9853 57.0381 23.6684C56.3496 23.3518 55.7328 22.8917 55.2195 22.3214C55.0658 22.1508 54.9221 21.9712 54.7892 21.7837C54.6305 21.9888 54.4589 22.1839 54.2749 22.3679C53.7093 22.9331 53.0383 23.3814 52.2993 23.6872C51.5603 23.9931 50.7683 24.1505 49.9686 24.1505C49.1692 24.1505 48.3771 23.9931 47.6381 23.6872C47.239 23.522 46.8596 23.3153 46.5062 23.0709C45.7921 23.5451 44.9832 23.874 44.1294 24.0357C42.9122 24.2662 41.6501 24.1484 40.5002 23.695C39.3496 23.2415 38.3571 22.4697 37.6543 21.4684C36.9508 20.4663 36.5714 19.2815 36.5714 18.0642C36.5714 16.8468 36.9508 15.662 37.6543 14.6599C38.3571 13.6586 39.3496 12.8868 40.5002 12.4333C41.6501 11.98 42.9122 11.8621 44.1294 12.0926C44.9832 12.2543 45.7921 12.5832 46.5062 13.0574C46.8596 12.813 47.239 12.6063 47.6381 12.4411C48.3771 12.1352 49.1692 11.9778 49.9686 11.9778C50.7683 11.9778 51.5603 12.1352 52.2993 12.4411C53.0383 12.7469 53.7093 13.1952 54.2749 13.7604C54.4589 13.9444 54.6305 14.1395 54.7892 14.3446C54.9221 14.1571 55.0658 13.9776 55.2195 13.8069C55.7328 13.2366 56.3496 12.7765 57.0381 12.4599C57.7266 12.143 58.4703 11.9778 59.2254 11.9778C59.9798 11.9778 60.7236 12.143 61.4121 12.4599C61.9857 12.7238 62.5096 13.0872 62.9658 13.531V7.71729H65.6822V15.8922C65.7769 15.618 65.89 15.3536 66.0217 15.0988C66.4925 14.1865 67.1335 13.4728 67.9431 12.9577C68.7527 12.4427 69.6658 12.1852 70.6814 12.1852C71.2704 12.1852 71.8078 12.2735 72.294 12.45C72.7799 12.6119 73.2068 12.8474 73.5749 13.1564C73.8983 13.4281 74.1708 13.7338 74.3918 14.0737V12.428H77.1305V24.0606H74.3702V22.4281C74.1156 22.7605 73.7991 23.0619 73.4201 23.3322C73.0228 23.6118 72.5739 23.8399 72.0727 24.0165C71.5872 24.193 71.0641 24.2813 70.5051 24.2813C69.5477 24.2813 68.6792 24.0165 67.8988 23.4867C67.1185 22.957 66.4925 22.2359 66.0217 21.3235C65.89 21.0688 65.7769 20.8043 65.6822 20.5301V24.0515H63.0536ZM71.2561 21.8754C71.889 21.8754 72.4488 21.7208 72.9343 21.4118C73.4201 21.1028 73.7955 20.676 74.0607 20.1316C74.3406 19.5724 74.4803 18.9323 74.4803 18.2112C74.4803 17.5049 74.3406 16.8794 74.0607 16.335C73.7955 15.7905 73.4201 15.3637 72.9343 15.0547C72.4488 14.7457 71.889 14.5911 71.2561 14.5911C70.6225 14.5911 70.0635 14.7457 69.5773 15.0547C69.1061 15.3637 68.7384 15.7905 68.4732 16.335C68.2083 16.8794 68.0759 17.5049 68.0759 18.2112C68.0759 18.9323 68.2083 19.5724 68.4732 20.1316C68.7384 20.676 69.1061 21.1028 69.5773 21.4118C70.0635 21.7208 70.6225 21.8754 71.2561 21.8754ZM53.3445 16.6667C53.5282 17.1097 53.6226 17.5846 53.6226 18.0642C53.6226 18.5437 53.5282 19.0186 53.3445 19.4616C53.1605 19.9047 52.8916 20.3073 52.5525 20.6464C52.213 20.9855 51.8102 21.2545 51.3668 21.438C50.9238 21.6216 50.4486 21.716 49.9686 21.716C49.4889 21.716 49.0141 21.6216 48.5707 21.438C48.1273 21.2545 47.7241 20.9855 47.385 20.6464C47.0458 20.3073 46.7766 19.9047 46.5929 19.4616C46.4097 19.0186 46.3149 18.5437 46.3149 18.0642C46.3149 17.5846 46.4097 17.1097 46.5929 16.6667C46.7766 16.2236 47.0458 15.821 47.385 15.4819C47.7241 15.1428 48.1273 14.8738 48.5707 14.6903C49.0141 14.5067 49.4889 14.4123 49.9686 14.4123C50.4486 14.4123 50.9238 14.5067 51.3668 14.6903C51.8102 14.8738 52.213 15.1428 52.5525 15.4819C52.8916 15.821 53.1605 16.2236 53.3445 16.6667ZM44.7871 21.2615C44.4429 21.4396 44.0683 21.5694 43.6761 21.6437C42.9085 21.789 42.1136 21.714 41.394 21.4303C40.6747 21.1467 40.07 20.6703 39.6482 20.0701C39.2278 19.4708 39.0072 18.7728 39.0072 18.0642C39.0072 17.3555 39.2278 16.6575 39.6482 16.0582C40.07 15.458 40.6747 14.9816 41.394 14.698C42.1136 14.4144 42.9085 14.3393 43.6761 14.4846C44.0683 14.5589 44.4429 14.6887 44.7871 14.8668C44.6163 15.1432 44.4674 15.4335 44.3426 15.735C44.0364 16.4734 43.8791 17.2649 43.8791 18.0642C43.8791 18.8634 44.0364 19.6549 44.3426 20.3933C44.4674 20.6948 44.6163 20.9851 44.7871 21.2615ZM59.2254 14.4123C58.8281 14.4123 58.4316 14.4989 58.0562 14.6714C57.6809 14.8442 57.3308 15.1015 57.03 15.4355C56.7289 15.7697 56.4842 16.1733 56.3155 16.626C56.1465 17.0788 56.0584 17.5678 56.0584 18.0642C56.0584 18.5605 56.1465 19.0495 56.3155 19.5023C56.4842 19.955 56.7289 20.3585 57.03 20.6928C57.3308 21.0268 57.6809 21.2841 58.0562 21.4568C58.4316 21.6293 58.8281 21.716 59.2254 21.716C59.622 21.716 60.0186 21.6293 60.3939 21.4568C60.7693 21.2841 61.1194 21.0268 61.4201 20.6928C61.7212 20.3585 61.9656 19.955 62.135 19.5023C62.3036 19.0495 62.3918 18.5605 62.3918 18.0642C62.3918 17.5678 62.3036 17.0788 62.135 16.626C61.9656 16.1733 61.7212 15.7697 61.4201 15.4355C61.1194 15.1015 60.7693 14.8442 60.3939 14.6714C60.0186 14.4989 59.622 14.4123 59.2254 14.4123Z" fill="black"/>
<path d="M79.9007 14.9446V24.0609H82.6174V14.9446H86.0936V24.0609H88.81V14.9446H91.35V12.4282H88.81V9.47039H86.0936V12.4282H82.6174V9.47039H79.9007V12.4282H77.6035V14.9446H79.9007Z" fill="black"/>
<path fill-rule="evenodd" clip-rule="evenodd" d="M96.0814 24.2825C95.1244 24.2825 94.2559 24.0176 93.4755 23.4878C92.6948 22.9581 92.0692 22.2371 91.598 21.3247C91.1268 20.4123 90.8916 19.3749 90.8916 18.2123C90.8916 17.0498 91.1268 16.0124 91.598 15.1C92.0692 14.1876 92.7094 13.4739 93.5194 12.9589C94.3294 12.4439 95.2422 12.1863 96.2581 12.1863C96.8471 12.1863 97.3845 12.2746 97.87 12.4512C98.3562 12.6131 98.7835 12.8485 99.1512 13.1575C99.4746 13.4292 99.7471 13.735 99.9685 14.0749V12.4291H102.707V24.0618H99.9465V22.4292C99.6919 22.7616 99.3755 23.063 98.9964 23.3333C98.5991 23.613 98.1499 23.841 97.6498 24.0176C97.1636 24.1942 96.6408 24.2825 96.0814 24.2825ZM96.8325 21.8765C97.4654 21.8765 98.0248 21.722 98.511 21.4129C98.9964 21.1039 99.3721 20.6772 99.6374 20.1327C99.9169 19.5735 100.057 18.9334 100.057 18.2123C100.057 17.506 99.9169 16.8806 99.6374 16.3361C99.3721 15.7916 98.9964 15.3649 98.511 15.0558C98.0248 14.7468 97.4654 14.5923 96.8325 14.5923C96.1992 14.5923 95.6398 14.7468 95.1536 15.0558C94.6824 15.3649 94.3144 15.7916 94.0495 16.3361C93.7847 16.8806 93.6519 17.506 93.6519 18.2123C93.6519 18.9334 93.7847 19.5735 94.0495 20.1327C94.3144 20.6772 94.6824 21.1039 95.1536 21.4129C95.6398 21.722 96.1992 21.8765 96.8325 21.8765Z" fill="black"/>
</svg>
