<svg width="1019" height="981" viewBox="0 0 1019 981" fill="none" xmlns="http://www.w3.org/2000/svg">
<g clip-path="url(#clip0_26375_1139)">
<path d="M2747.21 -68H2817V1.78947M2747.21 -68V1.78947M2747.21 -68H2677.42M2747.21 1.78947H2817M2747.21 1.78947V71.5789M2747.21 1.78947H2677.42M2817 1.78947V71.5789M2747.21 71.5789H2817M2747.21 71.5789V141.368M2747.21 71.5789H2677.42M2817 71.5789V141.368M2747.21 141.368H2817M2747.21 141.368V211.158M2747.21 141.368H2677.42M2817 141.368V211.158M2747.21 211.158H2817M2747.21 211.158V280.947M2747.21 211.158H2677.42M2817 211.158V280.947M2747.21 280.947H2817M2747.21 280.947V350.737M2747.21 280.947H2677.42M2817 280.947V350.737M2747.21 350.737H2817M2747.21 350.737V420.526M2747.21 350.737H2677.42M2817 350.737V420.526M2747.21 420.526H2817M2747.21 420.526V490.316M2747.21 420.526H2677.42M2817 420.526V490.316M2747.21 490.316H2817M2747.21 490.316V560.105M2747.21 490.316H2677.42M2817 490.316V560.105M2747.21 560.105H2817M2747.21 560.105V629.895M2747.21 560.105H2677.42M2817 560.105V629.895M2747.21 629.895H2817M2747.21 629.895V699.684M2747.21 629.895H2677.42M2817 629.895V699.684M2747.21 699.684H2817M2747.21 699.684V769.474M2747.21 699.684H2677.42M2817 699.684V769.474M2747.21 769.474H2817M2747.21 769.474V839.263M2747.21 769.474H2677.42M2817 769.474V839.263M2747.21 839.263H2817M2747.21 839.263V909.053M2747.21 839.263H2677.42M2817 839.263V909.053M2747.21 909.053H2817M2747.21 909.053V978.842M2747.21 909.053H2677.42M2817 909.053V978.842M2747.21 978.842H2817M2747.21 978.842V1048.63M2747.21 978.842H2677.42M2817 978.842V1048.63M2747.21 1048.63H2817M2747.21 1048.63V1118.42M2747.21 1048.63H2677.42M2817 1048.63V1118.42M2747.21 1118.42H2817M2747.21 1118.42V1188.21M2747.21 1118.42H2677.42M2817 1118.42V1188.21M2747.21 1188.21H2817M2747.21 1188.21V1258M2747.21 1188.21H2677.42M2817 1188.21V1258H2747.21M2747.21 1258H2677.42M2677.42 -68V1.78947M2677.42 -68H2607.63M2677.42 1.78947V71.5789M2677.42 1.78947H2607.63M2677.42 71.5789V141.368M2677.42 71.5789H2607.63M2677.42 141.368V211.158M2677.42 141.368H2607.63M2677.42 211.158V280.947M2677.42 211.158H2607.63M2677.42 280.947V350.737M2677.42 280.947H2607.63M2677.42 350.737V420.526M2677.42 350.737H2607.63M2677.42 420.526V490.316M2677.42 420.526H2607.63M2677.42 490.316V560.105M2677.42 490.316H2607.63M2677.42 560.105V629.895M2677.42 560.105H2607.63M2677.42 629.895V699.684M2677.42 629.895H2607.63M2677.42 699.684V769.474M2677.42 699.684H2607.63M2677.42 769.474V839.263M2677.42 769.474H2607.63M2677.42 839.263V909.053M2677.42 839.263H2607.63M2677.42 909.053V978.842M2677.42 909.053H2607.63M2677.42 978.842V1048.63M2677.42 978.842H2607.63M2677.42 1048.63V1118.42M2677.42 1048.63H2607.63M2677.42 1118.42V1188.21M2677.42 1118.42H2607.63M2677.42 1188.21V1258M2677.42 1188.21H2607.63M2677.42 1258H2607.63M2607.63 -68V1.78947M2607.63 -68H2537.84M2607.63 1.78947V71.5789M2607.63 1.78947H2537.84M2607.63 71.5789V141.368M2607.63 71.5789H2537.84M2607.63 141.368V211.158M2607.63 141.368H2537.84M2607.63 211.158V280.947M2607.63 211.158H2537.84M2607.63 280.947V350.737M2607.63 280.947H2537.84M2607.63 350.737V420.526M2607.63 350.737H2537.84M2607.63 420.526V490.316M2607.63 420.526H2537.84M2607.63 490.316V560.105M2607.63 490.316H2537.84M2607.63 560.105V629.895M2607.63 560.105H2537.84M2607.63 629.895V699.684M2607.63 629.895H2537.84M2607.63 699.684V769.474M2607.63 699.684H2537.84M2607.63 769.474V839.263M2607.63 769.474H2537.84M2607.63 839.263V909.053M2607.63 839.263H2537.84M2607.63 909.053V978.842M2607.63 909.053H2537.84M2607.63 978.842V1048.63M2607.63 978.842H2537.84M2607.63 1048.63V1118.42M2607.63 1048.63H2537.84M2607.63 1118.42V1188.21M2607.63 1118.42H2537.84M2607.63 1188.21V1258M2607.63 1188.21H2537.84M2607.63 1258H2537.84M2537.84 -68V1.78947M2537.84 -68H2468.05M2537.84 1.78947V71.5789M2537.84 1.78947H2468.05M2537.84 71.5789V141.368M2537.84 71.5789H2468.05M2537.84 141.368V211.158M2537.84 141.368H2468.05M2537.84 211.158V280.947M2537.84 211.158H2468.05M2537.84 280.947V350.737M2537.84 280.947H2468.05M2537.84 350.737V420.526M2537.84 350.737H2468.05M2537.84 420.526V490.316M2537.84 420.526H2468.05M2537.84 490.316V560.105M2537.84 490.316H2468.05M2537.84 560.105V629.895M2537.84 560.105H2468.05M2537.84 629.895V699.684M2537.84 629.895H2468.05M2537.84 699.684V769.474M2537.84 699.684H2468.05M2537.84 769.474V839.263M2537.84 769.474H2468.05M2537.84 839.263V909.053M2537.84 839.263H2468.05M2537.84 909.053V978.842M2537.84 909.053H2468.05M2537.84 978.842V1048.63M2537.84 978.842H2468.05M2537.84 1048.63V1118.42M2537.84 1048.63H2468.05M2537.84 1118.42V1188.21M2537.84 1118.42H2468.05M2537.84 1188.21V1258M2537.84 1188.21H2468.05M2537.84 1258H2468.05M2468.05 -68V1.78947M2468.05 -68H2398.26M2468.05 1.78947V71.5789M2468.05 1.78947H2398.26M2468.05 71.5789V141.368M2468.05 71.5789H2398.26M2468.05 141.368V211.158M2468.05 141.368H2398.26M2468.05 211.158V280.947M2468.05 211.158H2398.26M2468.05 280.947V350.737M2468.05 280.947H2398.26M2468.05 350.737V420.526M2468.05 350.737H2398.26M2468.05 420.526V490.316M2468.05 420.526H2398.26M2468.05 490.316V560.105M2468.05 490.316H2398.26M2468.05 560.105V629.895M2468.05 560.105H2398.26M2468.05 629.895V699.684M2468.05 629.895H2398.26M2468.05 699.684V769.474M2468.05 699.684H2398.26M2468.05 769.474V839.263M2468.05 769.474H2398.26M2468.05 839.263V909.053M2468.05 839.263H2398.26M2468.05 909.053V978.842M2468.05 909.053H2398.26M2468.05 978.842V1048.63M2468.05 978.842H2398.26M2468.05 1048.63V1118.42M2468.05 1048.63H2398.26M2468.05 1118.42V1188.21M2468.05 1118.42H2398.26M2468.05 1188.21V1258M2468.05 1188.21H2398.26M2468.05 1258H2398.26M2398.26 -68V1.78947M2398.26 -68H2328.47M2398.26 1.78947V71.5789M2398.26 1.78947H2328.47M2398.26 71.5789V141.368M2398.26 71.5789H2328.47M2398.26 141.368V211.158M2398.26 141.368H2328.47M2398.26 211.158V280.947M2398.26 211.158H2328.47M2398.26 280.947V350.737M2398.26 280.947H2328.47M2398.26 350.737V420.526M2398.26 350.737H2328.47M2398.26 420.526V490.316M2398.26 420.526H2328.47M2398.26 490.316V560.105M2398.26 490.316H2328.47M2398.26 560.105V629.895M2398.26 560.105H2328.47M2398.26 629.895V699.684M2398.26 629.895H2328.47M2398.26 699.684V769.474M2398.26 699.684H2328.47M2398.26 769.474V839.263M2398.26 769.474H2328.47M2398.26 839.263V909.053M2398.26 839.263H2328.47M2398.26 909.053V978.842M2398.26 909.053H2328.47M2398.26 978.842V1048.63M2398.26 978.842H2328.47M2398.26 1048.63V1118.42M2398.26 1048.63H2328.47M2398.26 1118.42V1188.21M2398.26 1118.42H2328.47M2398.26 1188.21V1258M2398.26 1188.21H2328.47M2398.26 1258H2328.47M2328.47 -68V1.78947M2328.47 -68H2258.68M2328.47 1.78947V71.5789M2328.47 1.78947H2258.68M2328.47 71.5789V141.368M2328.47 71.5789H2258.68M2328.47 141.368V211.158M2328.47 141.368H2258.68M2328.47 211.158V280.947M2328.47 211.158H2258.68M2328.47 280.947V350.737M2328.47 280.947H2258.68M2328.47 350.737V420.526M2328.47 350.737H2258.68M2328.47 420.526V490.316M2328.47 420.526H2258.68M2328.47 490.316V560.105M2328.47 490.316H2258.68M2328.47 560.105V629.895M2328.47 560.105H2258.68M2328.47 629.895V699.684M2328.47 629.895H2258.68M2328.47 699.684V769.474M2328.47 699.684H2258.68M2328.47 769.474V839.263M2328.47 769.474H2258.68M2328.47 839.263V909.053M2328.47 839.263H2258.68M2328.47 909.053V978.842M2328.47 909.053H2258.68M2328.47 978.842V1048.63M2328.47 978.842H2258.68M2328.47 1048.63V1118.42M2328.47 1048.63H2258.68M2328.47 1118.42V1188.21M2328.47 1118.42H2258.68M2328.47 1188.21V1258M2328.47 1188.21H2258.68M2328.47 1258H2258.68M2258.68 -68V1.78947M2258.68 -68H2188.89M2258.68 1.78947V71.5789M2258.68 1.78947H2188.89M2258.68 71.5789V141.368M2258.68 71.5789H2188.89M2258.68 141.368V211.158M2258.68 141.368H2188.89M2258.68 211.158V280.947M2258.68 211.158H2188.89M2258.68 280.947V350.737M2258.68 280.947H2188.89M2258.68 350.737V420.526M2258.68 350.737H2188.89M2258.68 420.526V490.316M2258.68 420.526H2188.89M2258.68 490.316V560.105M2258.68 490.316H2188.89M2258.68 560.105V629.895M2258.68 560.105H2188.89M2258.68 629.895V699.684M2258.68 629.895H2188.89M2258.68 699.684V769.474M2258.68 699.684H2188.89M2258.68 769.474V839.263M2258.68 769.474H2188.89M2258.68 839.263V909.053M2258.68 839.263H2188.89M2258.68 909.053V978.842M2258.68 909.053H2188.89M2258.68 978.842V1048.63M2258.68 978.842H2188.89M2258.68 1048.63V1118.42M2258.68 1048.63H2188.89M2258.68 1118.42V1188.21M2258.68 1118.42H2188.89M2258.68 1188.21V1258M2258.68 1188.21H2188.89M2258.68 1258H2188.89M2188.89 -68V1.78947M2188.89 -68H2119.11M2188.89 1.78947V71.5789M2188.89 1.78947H2119.11M2188.89 71.5789V141.368M2188.89 71.5789H2119.11M2188.89 141.368V211.158M2188.89 141.368H2119.11M2188.89 211.158V280.947M2188.89 211.158H2119.11M2188.89 280.947V350.737M2188.89 280.947H2119.11M2188.89 350.737V420.526M2188.89 350.737H2119.11M2188.89 420.526V490.316M2188.89 420.526H2119.11M2188.89 490.316V560.105M2188.89 490.316H2119.11M2188.89 560.105V629.895M2188.89 560.105H2119.11M2188.89 629.895V699.684M2188.89 629.895H2119.11M2188.89 699.684V769.474M2188.89 699.684H2119.11M2188.89 769.474V839.263M2188.89 769.474H2119.11M2188.89 839.263V909.053M2188.89 839.263H2119.11M2188.89 909.053V978.842M2188.89 909.053H2119.11M2188.89 978.842V1048.63M2188.89 978.842H2119.11M2188.89 1048.63V1118.42M2188.89 1048.63H2119.11M2188.89 1118.42V1188.21M2188.89 1118.42H2119.11M2188.89 1188.21V1258M2188.89 1188.21H2119.11M2188.89 1258H2119.11M2119.11 -68V1.78947M2119.11 -68H2049.32M2119.11 1.78947V71.5789M2119.11 1.78947H2049.32M2119.11 71.5789V141.368M2119.11 71.5789H2049.32M2119.11 141.368V211.158M2119.11 141.368H2049.32M2119.11 211.158V280.947M2119.11 211.158H2049.32M2119.11 280.947V350.737M2119.11 280.947H2049.32M2119.11 350.737V420.526M2119.11 350.737H2049.32M2119.11 420.526V490.316M2119.11 420.526H2049.32M2119.11 490.316V560.105M2119.11 490.316H2049.32M2119.11 560.105V629.895M2119.11 560.105H2049.32M2119.11 629.895V699.684M2119.11 629.895H2049.32M2119.11 699.684V769.474M2119.11 699.684H2049.32M2119.11 769.474V839.263M2119.11 769.474H2049.32M2119.11 839.263V909.053M2119.11 839.263H2049.32M2119.11 909.053V978.842M2119.11 909.053H2049.32M2119.11 978.842V1048.63M2119.11 978.842H2049.32M2119.11 1048.63V1118.42M2119.11 1048.63H2049.32M2119.11 1118.42V1188.21M2119.11 1118.42H2049.32M2119.11 1188.21V1258M2119.11 1188.21H2049.32M2119.11 1258H2049.32M2049.32 -68V1.78947M2049.32 -68H1979.53M2049.32 1.78947V71.5789M2049.32 1.78947H1979.53M2049.32 71.5789V141.368M2049.32 71.5789H1979.53M2049.32 141.368V211.158M2049.32 141.368H1979.53M2049.32 211.158V280.947M2049.32 211.158H1979.53M2049.32 280.947V350.737M2049.32 280.947H1979.53M2049.32 350.737V420.526M2049.32 350.737H1979.53M2049.32 420.526V490.316M2049.32 420.526H1979.53M2049.32 490.316V560.105M2049.32 490.316H1979.53M2049.32 560.105V629.895M2049.32 560.105H1979.53M2049.32 629.895V699.684M2049.32 629.895H1979.53M2049.32 699.684V769.474M2049.32 699.684H1979.53M2049.32 769.474V839.263M2049.32 769.474H1979.53M2049.32 839.263V909.053M2049.32 839.263H1979.53M2049.32 909.053V978.842M2049.32 909.053H1979.53M2049.32 978.842V1048.63M2049.32 978.842H1979.53M2049.32 1048.63V1118.42M2049.32 1048.63H1979.53M2049.32 1118.42V1188.21M2049.32 1118.42H1979.53M2049.32 1188.21V1258M2049.32 1188.21H1979.53M2049.32 1258H1979.53M1979.53 -68V1.78947M1979.53 -68H1909.74M1979.53 1.78947V71.5789M1979.53 1.78947H1909.74M1979.53 71.5789V141.368M1979.53 71.5789H1909.74M1979.53 141.368V211.158M1979.53 141.368H1909.74M1979.53 211.158V280.947M1979.53 211.158H1909.74M1979.53 280.947V350.737M1979.53 280.947H1909.74M1979.53 350.737V420.526M1979.53 350.737H1909.74M1979.53 420.526V490.316M1979.53 420.526H1909.74M1979.53 490.316V560.105M1979.53 490.316H1909.74M1979.53 560.105V629.895M1979.53 560.105H1909.74M1979.53 629.895V699.684M1979.53 629.895H1909.74M1979.53 699.684V769.474M1979.53 699.684H1909.74M1979.53 769.474V839.263M1979.53 769.474H1909.74M1979.53 839.263V909.053M1979.53 839.263H1909.74M1979.53 909.053V978.842M1979.53 909.053H1909.74M1979.53 978.842V1048.63M1979.53 978.842H1909.74M1979.53 1048.63V1118.42M1979.53 1048.63H1909.74M1979.53 1118.42V1188.21M1979.53 1118.42H1909.74M1979.53 1188.21V1258M1979.53 1188.21H1909.74M1979.53 1258H1909.74M1909.74 -68V1.78947M1909.74 -68H1839.95M1909.74 1.78947V71.5789M1909.74 1.78947H1839.95M1909.74 71.5789V141.368M1909.74 71.5789H1839.95M1909.74 141.368V211.158M1909.74 141.368H1839.95M1909.74 211.158V280.947M1909.74 211.158H1839.95M1909.74 280.947V350.737M1909.74 280.947H1839.95M1909.74 350.737V420.526M1909.74 350.737H1839.95M1909.74 420.526V490.316M1909.74 420.526H1839.95M1909.74 490.316V560.105M1909.74 490.316H1839.95M1909.74 560.105V629.895M1909.74 560.105H1839.95M1909.74 629.895V699.684M1909.74 629.895H1839.95M1909.74 699.684V769.474M1909.74 699.684H1839.95M1909.74 769.474V839.263M1909.74 769.474H1839.95M1909.74 839.263V909.053M1909.74 839.263H1839.95M1909.74 909.053V978.842M1909.74 909.053H1839.95M1909.74 978.842V1048.63M1909.74 978.842H1839.95M1909.74 1048.63V1118.42M1909.74 1048.63H1839.95M1909.74 1118.42V1188.21M1909.74 1118.42H1839.95M1909.74 1188.21V1258M1909.74 1188.21H1839.95M1909.74 1258H1839.95M1839.95 -68V1.78947M1839.95 -68H1770.16M1839.95 1.78947V71.5789M1839.95 1.78947H1770.16M1839.95 71.5789V141.368M1839.95 71.5789H1770.16M1839.95 141.368V211.158M1839.95 141.368H1770.16M1839.95 211.158V280.947M1839.95 211.158H1770.16M1839.95 280.947V350.737M1839.95 280.947H1770.16M1839.95 350.737V420.526M1839.95 350.737H1770.16M1839.95 420.526V490.316M1839.95 420.526H1770.16M1839.95 490.316V560.105M1839.95 490.316H1770.16M1839.95 560.105V629.895M1839.95 560.105H1770.16M1839.95 629.895V699.684M1839.95 629.895H1770.16M1839.95 699.684V769.474M1839.95 699.684H1770.16M1839.95 769.474V839.263M1839.95 769.474H1770.16M1839.95 839.263V909.053M1839.95 839.263H1770.16M1839.95 909.053V978.842M1839.95 909.053H1770.16M1839.95 978.842V1048.63M1839.95 978.842H1770.16M1839.95 1048.63V1118.42M1839.95 1048.63H1770.16M1839.95 1118.42V1188.21M1839.95 1118.42H1770.16M1839.95 1188.21V1258M1839.95 1188.21H1770.16M1839.95 1258H1770.16M1770.16 -68V1.78947M1770.16 -68H1700.37M1770.16 1.78947V71.5789M1770.16 1.78947H1700.37M1770.16 71.5789V141.368M1770.16 71.5789H1700.37M1770.16 141.368V211.158M1770.16 141.368H1700.37M1770.16 211.158V280.947M1770.16 211.158H1700.37M1770.16 280.947V350.737M1770.16 280.947H1700.37M1770.16 350.737V420.526M1770.16 350.737H1700.37M1770.16 420.526V490.316M1770.16 420.526H1700.37M1770.16 490.316V560.105M1770.16 490.316H1700.37M1770.16 560.105V629.895M1770.16 560.105H1700.37M1770.16 629.895V699.684M1770.16 629.895H1700.37M1770.16 699.684V769.474M1770.16 699.684H1700.37M1770.16 769.474V839.263M1770.16 769.474H1700.37M1770.16 839.263V909.053M1770.16 839.263H1700.37M1770.16 909.053V978.842M1770.16 909.053H1700.37M1770.16 978.842V1048.63M1770.16 978.842H1700.37M1770.16 1048.63V1118.42M1770.16 1048.63H1700.37M1770.16 1118.42V1188.21M1770.16 1118.42H1700.37M1770.16 1188.21V1258M1770.16 1188.21H1700.37M1770.16 1258H1700.37M1700.37 -68V1.78947M1700.37 -68H1630.58M1700.37 1.78947V71.5789M1700.37 1.78947H1630.58M1700.37 71.5789V141.368M1700.37 71.5789H1630.58M1700.37 141.368V211.158M1700.37 141.368H1630.58M1700.37 211.158V280.947M1700.37 211.158H1630.58M1700.37 280.947V350.737M1700.37 280.947H1630.58M1700.37 350.737V420.526M1700.37 350.737H1630.58M1700.37 420.526V490.316M1700.37 420.526H1630.58M1700.37 490.316V560.105M1700.37 490.316H1630.58M1700.37 560.105V629.895M1700.37 560.105H1630.58M1700.37 629.895V699.684M1700.37 629.895H1630.58M1700.37 699.684V769.474M1700.37 699.684H1630.58M1700.37 769.474V839.263M1700.37 769.474H1630.58M1700.37 839.263V909.053M1700.37 839.263H1630.58M1700.37 909.053V978.842M1700.37 909.053H1630.58M1700.37 978.842V1048.63M1700.37 978.842H1630.58M1700.37 1048.63V1118.42M1700.37 1048.63H1630.58M1700.37 1118.42V1188.21M1700.37 1118.42H1630.58M1700.37 1188.21V1258M1700.37 1188.21H1630.58M1700.37 1258H1630.58M1630.58 -68V1.78947M1630.58 -68H1560.79M1630.58 1.78947V71.5789M1630.58 1.78947H1560.79M1630.58 71.5789V141.368M1630.58 71.5789H1560.79M1630.58 141.368V211.158M1630.58 141.368H1560.79M1630.58 211.158V280.947M1630.58 211.158H1560.79M1630.58 280.947V350.737M1630.58 280.947H1560.79M1630.58 350.737V420.526M1630.58 350.737H1560.79M1630.58 420.526V490.316M1630.58 420.526H1560.79M1630.58 490.316V560.105M1630.58 490.316H1560.79M1630.58 560.105V629.895M1630.58 560.105H1560.79M1630.58 629.895V699.684M1630.58 629.895H1560.79M1630.58 699.684V769.474M1630.58 699.684H1560.79M1630.58 769.474V839.263M1630.58 769.474H1560.79M1630.58 839.263V909.053M1630.58 839.263H1560.79M1630.58 909.053V978.842M1630.58 909.053H1560.79M1630.58 978.842V1048.63M1630.58 978.842H1560.79M1630.58 1048.63V1118.42M1630.58 1048.63H1560.79M1630.58 1118.42V1188.21M1630.58 1118.42H1560.79M1630.58 1188.21V1258M1630.58 1188.21H1560.79M1630.58 1258H1560.79M1560.79 -68V1.78947M1560.79 -68H1491M1560.79 1.78947V71.5789M1560.79 1.78947H1491M1560.79 71.5789V141.368M1560.79 71.5789H1491M1560.79 141.368V211.158M1560.79 141.368H1491M1560.79 211.158V280.947M1560.79 211.158H1491M1560.79 280.947V350.737M1560.79 280.947H1491M1560.79 350.737V420.526M1560.79 350.737H1491M1560.79 420.526V490.316M1560.79 420.526H1491M1560.79 490.316V560.105M1560.79 490.316H1491M1560.79 560.105V629.895M1560.79 560.105H1491M1560.79 629.895V699.684M1560.79 629.895H1491M1560.79 699.684V769.474M1560.79 699.684H1491M1560.79 769.474V839.263M1560.79 769.474H1491M1560.79 839.263V909.053M1560.79 839.263H1491M1560.79 909.053V978.842M1560.79 909.053H1491M1560.79 978.842V1048.63M1560.79 978.842H1491M1560.79 1048.63V1118.42M1560.79 1048.63H1491M1560.79 1118.42V1188.21M1560.79 1118.42H1491M1560.79 1188.21V1258M1560.79 1188.21H1491M1560.79 1258H1491M1491 -68V1.78947M1491 -68H1421.21M1491 1.78947V71.5789M1491 1.78947H1421.21M1491 71.5789V141.368M1491 71.5789H1421.21M1491 141.368V211.158M1491 141.368H1421.21M1491 211.158V280.947M1491 211.158H1421.21M1491 280.947V350.737M1491 280.947H1421.21M1491 350.737V420.526M1491 350.737H1421.21M1491 420.526V490.316M1491 420.526H1421.21M1491 490.316V560.105M1491 490.316H1421.21M1491 560.105V629.895M1491 560.105H1421.21M1491 629.895V699.684M1491 629.895H1421.21M1491 699.684V769.474M1491 699.684H1421.21M1491 769.474V839.263M1491 769.474H1421.21M1491 839.263V909.053M1491 839.263H1421.21M1491 909.053V978.842M1491 909.053H1421.21M1491 978.842V1048.63M1491 978.842H1421.21M1491 1048.63V1118.42M1491 1048.63H1421.21M1491 1118.42V1188.21M1491 1118.42H1421.21M1491 1188.21V1258M1491 1188.21H1421.21M1491 1258H1421.21M1421.21 -68V1.78947M1421.21 -68H1351.42M1421.21 1.78947V71.5789M1421.21 1.78947H1351.42M1421.21 71.5789V141.368M1421.21 71.5789H1351.42M1421.21 141.368V211.158M1421.21 141.368H1351.42M1421.21 211.158V280.947M1421.21 211.158H1351.42M1421.21 280.947V350.737M1421.21 280.947H1351.42M1421.21 350.737V420.526M1421.21 350.737H1351.42M1421.21 420.526V490.316M1421.21 420.526H1351.42M1421.21 490.316V560.105M1421.21 490.316H1351.42M1421.21 560.105V629.895M1421.21 560.105H1351.42M1421.21 629.895V699.684M1421.21 629.895H1351.42M1421.21 699.684V769.474M1421.21 699.684H1351.42M1421.21 769.474V839.263M1421.21 769.474H1351.42M1421.21 839.263V909.053M1421.21 839.263H1351.42M1421.21 909.053V978.842M1421.21 909.053H1351.42M1421.21 978.842V1048.63M1421.21 978.842H1351.42M1421.21 1048.63V1118.42M1421.21 1048.63H1351.42M1421.21 1118.42V1188.21M1421.21 1118.42H1351.42M1421.21 1188.21V1258M1421.21 1188.21H1351.42M1421.21 1258H1351.42M1351.42 -68V1.78947M1351.42 -68H1281.63M1351.42 1.78947V71.5789M1351.42 1.78947H1281.63M1351.42 71.5789V141.368M1351.42 71.5789H1281.63M1351.42 141.368V211.158M1351.42 141.368H1281.63M1351.42 211.158V280.947M1351.42 211.158H1281.63M1351.42 280.947V350.737M1351.42 280.947H1281.63M1351.42 350.737V420.526M1351.42 350.737H1281.63M1351.42 420.526V490.316M1351.42 420.526H1281.63M1351.42 490.316V560.105M1351.42 490.316H1281.63M1351.42 560.105V629.895M1351.42 560.105H1281.63M1351.42 629.895V699.684M1351.42 629.895H1281.63M1351.42 699.684V769.474M1351.42 699.684H1281.63M1351.42 769.474V839.263M1351.42 769.474H1281.63M1351.42 839.263V909.053M1351.42 839.263H1281.63M1351.42 909.053V978.842M1351.42 909.053H1281.63M1351.42 978.842V1048.63M1351.42 978.842H1281.63M1351.42 1048.63V1118.42M1351.42 1048.63H1281.63M1351.42 1118.42V1188.21M1351.42 1118.42H1281.63M1351.42 1188.21V1258M1351.42 1188.21H1281.63M1351.42 1258H1281.63M1281.63 -68V1.78947M1281.63 -68H1211.84M1281.63 1.78947V71.5789M1281.63 1.78947H1211.84M1281.63 71.5789V141.368M1281.63 71.5789H1211.84M1281.63 141.368V211.158M1281.63 141.368H1211.84M1281.63 211.158V280.947M1281.63 211.158H1211.84M1281.63 280.947V350.737M1281.63 280.947H1211.84M1281.63 350.737V420.526M1281.63 350.737H1211.84M1281.63 420.526V490.316M1281.63 420.526H1211.84M1281.63 490.316V560.105M1281.63 490.316H1211.84M1281.63 560.105V629.895M1281.63 560.105H1211.84M1281.63 629.895V699.684M1281.63 629.895H1211.84M1281.63 699.684V769.474M1281.63 699.684H1211.84M1281.63 769.474V839.263M1281.63 769.474H1211.84M1281.63 839.263V909.053M1281.63 839.263H1211.84M1281.63 909.053V978.842M1281.63 909.053H1211.84M1281.63 978.842V1048.63M1281.63 978.842H1211.84M1281.63 1048.63V1118.42M1281.63 1048.63H1211.84M1281.63 1118.42V1188.21M1281.63 1118.42H1211.84M1281.63 1188.21V1258M1281.63 1188.21H1211.84M1281.63 1258H1211.84M1211.84 -68V1.78947M1211.84 -68H1142.05M1211.84 1.78947V71.5789M1211.84 1.78947H1142.05M1211.84 71.5789V141.368M1211.84 71.5789H1142.05M1211.84 141.368V211.158M1211.84 141.368H1142.05M1211.84 211.158V280.947M1211.84 211.158H1142.05M1211.84 280.947V350.737M1211.84 280.947H1142.05M1211.84 350.737V420.526M1211.84 350.737H1142.05M1211.84 420.526V490.316M1211.84 420.526H1142.05M1211.84 490.316V560.105M1211.84 490.316H1142.05M1211.84 560.105V629.895M1211.84 560.105H1142.05M1211.84 629.895V699.684M1211.84 629.895H1142.05M1211.84 699.684V769.474M1211.84 699.684H1142.05M1211.84 769.474V839.263M1211.84 769.474H1142.05M1211.84 839.263V909.053M1211.84 839.263H1142.05M1211.84 909.053V978.842M1211.84 909.053H1142.05M1211.84 978.842V1048.63M1211.84 978.842H1142.05M1211.84 1048.63V1118.42M1211.84 1048.63H1142.05M1211.84 1118.42V1188.21M1211.84 1118.42H1142.05M1211.84 1188.21V1258M1211.84 1188.21H1142.05M1211.84 1258H1142.05M1142.05 -68V1.78947M1142.05 -68H1072.26M1142.05 1.78947V71.5789M1142.05 1.78947H1072.26M1142.05 71.5789V141.368M1142.05 71.5789H1072.26M1142.05 141.368V211.158M1142.05 141.368H1072.26M1142.05 211.158V280.947M1142.05 211.158H1072.26M1142.05 280.947V350.737M1142.05 280.947H1072.26M1142.05 350.737V420.526M1142.05 350.737H1072.26M1142.05 420.526V490.316M1142.05 420.526H1072.26M1142.05 490.316V560.105M1142.05 490.316H1072.26M1142.05 560.105V629.895M1142.05 560.105H1072.26M1142.05 629.895V699.684M1142.05 629.895H1072.26M1142.05 699.684V769.474M1142.05 699.684H1072.26M1142.05 769.474V839.263M1142.05 769.474H1072.26M1142.05 839.263V909.053M1142.05 839.263H1072.26M1142.05 909.053V978.842M1142.05 909.053H1072.26M1142.05 978.842V1048.63M1142.05 978.842H1072.26M1142.05 1048.63V1118.42M1142.05 1048.63H1072.26M1142.05 1118.42V1188.21M1142.05 1118.42H1072.26M1142.05 1188.21V1258M1142.05 1188.21H1072.26M1142.05 1258H1072.26M1072.26 -68V1.78947M1072.26 -68H1002.47M1072.26 1.78947V71.5789M1072.26 1.78947H1002.47M1072.26 71.5789V141.368M1072.26 71.5789H1002.47M1072.26 141.368V211.158M1072.26 141.368H1002.47M1072.26 211.158V280.947M1072.26 211.158H1002.47M1072.26 280.947V350.737M1072.26 280.947H1002.47M1072.26 350.737V420.526M1072.26 350.737H1002.47M1072.26 420.526V490.316M1072.26 420.526H1002.47M1072.26 490.316V560.105M1072.26 490.316H1002.47M1072.26 560.105V629.895M1072.26 560.105H1002.47M1072.26 629.895V699.684M1072.26 629.895H1002.47M1072.26 699.684V769.474M1072.26 699.684H1002.47M1072.26 769.474V839.263M1072.26 769.474H1002.47M1072.26 839.263V909.053M1072.26 839.263H1002.47M1072.26 909.053V978.842M1072.26 909.053H1002.47M1072.26 978.842V1048.63M1072.26 978.842H1002.47M1072.26 1048.63V1118.42M1072.26 1048.63H1002.47M1072.26 1118.42V1188.21M1072.26 1118.42H1002.47M1072.26 1188.21V1258M1072.26 1188.21H1002.47M1072.26 1258H1002.47M1002.47 -68V1.78947M1002.47 -68H932.684M1002.47 1.78947V71.5789M1002.47 1.78947H932.684M1002.47 71.5789V141.368M1002.47 71.5789H932.684M1002.47 141.368V211.158M1002.47 141.368H932.684M1002.47 211.158V280.947M1002.47 211.158H932.684M1002.47 280.947V350.737M1002.47 280.947H932.684M1002.47 350.737V420.526M1002.47 350.737H932.684M1002.47 420.526V490.316M1002.47 420.526H932.684M1002.47 490.316V560.105M1002.47 490.316H932.684M1002.47 560.105V629.895M1002.47 560.105H932.684M1002.47 629.895V699.684M1002.47 629.895H932.684M1002.47 699.684V769.474M1002.47 699.684H932.684M1002.47 769.474V839.263M1002.47 769.474H932.684M1002.47 839.263V909.053M1002.47 839.263H932.684M1002.47 909.053V978.842M1002.47 909.053H932.684M1002.47 978.842V1048.63M1002.47 978.842H932.684M1002.47 1048.63V1118.42M1002.47 1048.63H932.684M1002.47 1118.42V1188.21M1002.47 1118.42H932.684M1002.47 1188.21V1258M1002.47 1188.21H932.684M1002.47 1258H932.684M932.684 -68V1.78947M932.684 -68H862.895M932.684 1.78947V71.5789M932.684 1.78947H862.895M932.684 71.5789V141.368M932.684 71.5789H862.895M932.684 141.368V211.158M932.684 141.368H862.895M932.684 211.158V280.947M932.684 211.158H862.895M932.684 280.947V350.737M932.684 280.947H862.895M932.684 350.737V420.526M932.684 350.737H862.895M932.684 420.526V490.316M932.684 420.526H862.895M932.684 490.316V560.105M932.684 490.316H862.895M932.684 560.105V629.895M932.684 560.105H862.895M932.684 629.895V699.684M932.684 629.895H862.895M932.684 699.684V769.474M932.684 699.684H862.895M932.684 769.474V839.263M932.684 769.474H862.895M932.684 839.263V909.053M932.684 839.263H862.895M932.684 909.053V978.842M932.684 909.053H862.895M932.684 978.842V1048.63M932.684 978.842H862.895M932.684 1048.63V1118.42M932.684 1048.63H862.895M932.684 1118.42V1188.21M932.684 1118.42H862.895M932.684 1188.21V1258M932.684 1188.21H862.895M932.684 1258H862.895M862.895 -68V1.78947M862.895 -68H793.105M862.895 1.78947V71.5789M862.895 1.78947H793.105M862.895 71.5789V141.368M862.895 71.5789H793.105M862.895 141.368V211.158M862.895 141.368H793.105M862.895 211.158V280.947M862.895 211.158H793.105M862.895 280.947V350.737M862.895 280.947H793.105M862.895 350.737V420.526M862.895 350.737H793.105M862.895 420.526V490.316M862.895 420.526H793.105M862.895 490.316V560.105M862.895 490.316H793.105M862.895 560.105V629.895M862.895 560.105H793.105M862.895 629.895V699.684M862.895 629.895H793.105M862.895 699.684V769.474M862.895 699.684H793.105M862.895 769.474V839.263M862.895 769.474H793.105M862.895 839.263V909.053M862.895 839.263H793.105M862.895 909.053V978.842M862.895 909.053H793.105M862.895 978.842V1048.63M862.895 978.842H793.105M862.895 1048.63V1118.42M862.895 1048.63H793.105M862.895 1118.42V1188.21M862.895 1118.42H793.105M862.895 1188.21V1258M862.895 1188.21H793.105M862.895 1258H793.105M793.105 -68V1.78947M793.105 -68H723.316M793.105 1.78947V71.5789M793.105 1.78947H723.316M793.105 71.5789V141.368M793.105 71.5789H723.316M793.105 141.368V211.158M793.105 141.368H723.316M793.105 211.158V280.947M793.105 211.158H723.316M793.105 280.947V350.737M793.105 280.947H723.316M793.105 350.737V420.526M793.105 350.737H723.316M793.105 420.526V490.316M793.105 420.526H723.316M793.105 490.316V560.105M793.105 490.316H723.316M793.105 560.105V629.895M793.105 560.105H723.316M793.105 629.895V699.684M793.105 629.895H723.316M793.105 699.684V769.474M793.105 699.684H723.316M793.105 769.474V839.263M793.105 769.474H723.316M793.105 839.263V909.053M793.105 839.263H723.316M793.105 909.053V978.842M793.105 909.053H723.316M793.105 978.842V1048.63M793.105 978.842H723.316M793.105 1048.63V1118.42M793.105 1048.63H723.316M793.105 1118.42V1188.21M793.105 1118.42H723.316M793.105 1188.21V1258M793.105 1188.21H723.316M793.105 1258H723.316M723.316 -68V1.78947M723.316 -68H653.526M723.316 1.78947V71.5789M723.316 1.78947H653.526M723.316 71.5789V141.368M723.316 71.5789H653.526M723.316 141.368V211.158M723.316 141.368H653.526M723.316 211.158V280.947M723.316 211.158H653.526M723.316 280.947V350.737M723.316 280.947H653.526M723.316 350.737V420.526M723.316 350.737H653.526M723.316 420.526V490.316M723.316 420.526H653.526M723.316 490.316V560.105M723.316 490.316H653.526M723.316 560.105V629.895M723.316 560.105H653.526M723.316 629.895V699.684M723.316 629.895H653.526M723.316 699.684V769.474M723.316 699.684H653.526M723.316 769.474V839.263M723.316 769.474H653.526M723.316 839.263V909.053M723.316 839.263H653.526M723.316 909.053V978.842M723.316 909.053H653.526M723.316 978.842V1048.63M723.316 978.842H653.526M723.316 1048.63V1118.42M723.316 1048.63H653.526M723.316 1118.42V1188.21M723.316 1118.42H653.526M723.316 1188.21V1258M723.316 1188.21H653.526M723.316 1258H653.526M653.526 -68V1.78947M653.526 -68H583.737M653.526 1.78947V71.5789M653.526 1.78947H583.737M653.526 71.5789V141.368M653.526 71.5789H583.737M653.526 141.368V211.158M653.526 141.368H583.737M653.526 211.158V280.947M653.526 211.158H583.737M653.526 280.947V350.737M653.526 280.947H583.737M653.526 350.737V420.526M653.526 350.737H583.737M653.526 420.526V490.316M653.526 420.526H583.737M653.526 490.316V560.105M653.526 490.316H583.737M653.526 560.105V629.895M653.526 560.105H583.737M653.526 629.895V699.684M653.526 629.895H583.737M653.526 699.684V769.474M653.526 699.684H583.737M653.526 769.474V839.263M653.526 769.474H583.737M653.526 839.263V909.053M653.526 839.263H583.737M653.526 909.053V978.842M653.526 909.053H583.737M653.526 978.842V1048.63M653.526 978.842H583.737M653.526 1048.63V1118.42M653.526 1048.63H583.737M653.526 1118.42V1188.21M653.526 1118.42H583.737M653.526 1188.21V1258M653.526 1188.21H583.737M653.526 1258H583.737M583.737 -68V1.78947M583.737 -68H513.948M583.737 1.78947V71.5789M583.737 1.78947H513.948M583.737 71.5789V141.368M583.737 71.5789H513.948M583.737 141.368V211.158M583.737 141.368H513.948M583.737 211.158V280.947M583.737 211.158H513.948M583.737 280.947V350.737M583.737 280.947H513.948M583.737 350.737V420.526M583.737 350.737H513.948M583.737 420.526V490.316M583.737 420.526H513.948M583.737 490.316V560.105M583.737 490.316H513.948M583.737 560.105V629.895M583.737 560.105H513.948M583.737 629.895V699.684M583.737 629.895H513.948M583.737 699.684V769.474M583.737 699.684H513.948M583.737 769.474V839.263M583.737 769.474H513.948M583.737 839.263V909.053M583.737 839.263H513.948M583.737 909.053V978.842M583.737 909.053H513.948M583.737 978.842V1048.63M583.737 978.842H513.948M583.737 1048.63V1118.42M583.737 1048.63H513.948M583.737 1118.42V1188.21M583.737 1118.42H513.948M583.737 1188.21V1258M583.737 1188.21H513.948M583.737 1258H513.948M513.948 -68V1.78947M513.948 -68H444.158M513.948 1.78947V71.5789M513.948 1.78947H444.158M513.948 71.5789V141.368M513.948 71.5789H444.158M513.948 141.368V211.158M513.948 141.368H444.158M513.948 211.158V280.947M513.948 211.158H444.158M513.948 280.947V350.737M513.948 280.947H444.158M513.948 350.737V420.526M513.948 350.737H444.158M513.948 420.526V490.316M513.948 420.526H444.158M513.948 490.316V560.105M513.948 490.316H444.158M513.948 560.105V629.895M513.948 560.105H444.158M513.948 629.895V699.684M513.948 629.895H444.158M513.948 699.684V769.474M513.948 699.684H444.158M513.948 769.474V839.263M513.948 769.474H444.158M513.948 839.263V909.053M513.948 839.263H444.158M513.948 909.053V978.842M513.948 909.053H444.158M513.948 978.842V1048.63M513.948 978.842H444.158M513.948 1048.63V1118.42M513.948 1048.63H444.158M513.948 1118.42V1188.21M513.948 1118.42H444.158M513.948 1188.21V1258M513.948 1188.21H444.158M513.948 1258H444.158M444.158 -68V1.78947M444.158 -68H374.368M444.158 1.78947V71.5789M444.158 1.78947H374.368M444.158 71.5789V141.368M444.158 71.5789H374.368M444.158 141.368V211.158M444.158 141.368H374.368M444.158 211.158V280.947M444.158 211.158H374.368M444.158 280.947V350.737M444.158 280.947H374.368M444.158 350.737V420.526M444.158 350.737H374.368M444.158 420.526V490.316M444.158 420.526H374.368M444.158 490.316V560.105M444.158 490.316H374.368M444.158 560.105V629.895M444.158 560.105H374.368M444.158 629.895V699.684M444.158 629.895H374.368M444.158 699.684V769.474M444.158 699.684H374.368M444.158 769.474V839.263M444.158 769.474H374.368M444.158 839.263V909.053M444.158 839.263H374.368M444.158 909.053V978.842M444.158 909.053H374.368M444.158 978.842V1048.63M444.158 978.842H374.368M444.158 1048.63V1118.42M444.158 1048.63H374.368M444.158 1118.42V1188.21M444.158 1118.42H374.368M444.158 1188.21V1258M444.158 1188.21H374.368M444.158 1258H374.368M374.368 -68V1.78947M374.368 -68H304.579M374.368 1.78947V71.5789M374.368 1.78947H304.579M374.368 71.5789V141.368M374.368 71.5789H304.579M374.368 141.368V211.158M374.368 141.368H304.579M374.368 211.158V280.947M374.368 211.158H304.579M374.368 280.947V350.737M374.368 280.947H304.579M374.368 350.737V420.526M374.368 350.737H304.579M374.368 420.526V490.316M374.368 420.526H304.579M374.368 490.316V560.105M374.368 490.316H304.579M374.368 560.105V629.895M374.368 560.105H304.579M374.368 629.895V699.684M374.368 629.895H304.579M374.368 699.684V769.474M374.368 699.684H304.579M374.368 769.474V839.263M374.368 769.474H304.579M374.368 839.263V909.053M374.368 839.263H304.579M374.368 909.053V978.842M374.368 909.053H304.579M374.368 978.842V1048.63M374.368 978.842H304.579M374.368 1048.63V1118.42M374.368 1048.63H304.579M374.368 1118.42V1188.21M374.368 1118.42H304.579M374.368 1188.21V1258M374.368 1188.21H304.579M374.368 1258H304.579M304.579 -68V1.78947M304.579 -68H234.79M304.579 1.78947V71.5789M304.579 1.78947H234.79M304.579 71.5789V141.368M304.579 71.5789H234.79M304.579 141.368V211.158M304.579 141.368H234.79M304.579 211.158V280.947M304.579 211.158H234.79M304.579 280.947V350.737M304.579 280.947H234.79M304.579 350.737V420.526M304.579 350.737H234.79M304.579 420.526V490.316M304.579 420.526H234.79M304.579 490.316V560.105M304.579 490.316H234.79M304.579 560.105V629.895M304.579 560.105H234.79M304.579 629.895V699.684M304.579 629.895H234.79M304.579 699.684V769.474M304.579 699.684H234.79M304.579 769.474V839.263M304.579 769.474H234.79M304.579 839.263V909.053M304.579 839.263H234.79M304.579 909.053V978.842M304.579 909.053H234.79M304.579 978.842V1048.63M304.579 978.842H234.79M304.579 1048.63V1118.42M304.579 1048.63H234.79M304.579 1118.42V1188.21M304.579 1118.42H234.79M304.579 1188.21V1258M304.579 1188.21H234.79M304.579 1258H234.79M234.79 -68V1.78947M234.79 -68H165M234.79 1.78947V71.5789M234.79 1.78947H165M234.79 71.5789V141.368M234.79 71.5789H165M234.79 141.368V211.158M234.79 141.368H165M234.79 211.158V280.947M234.79 211.158H165M234.79 280.947V350.737M234.79 280.947H165M234.79 350.737V420.526M234.79 350.737H165M234.79 420.526V490.316M234.79 420.526H165M234.79 490.316V560.105M234.79 490.316H165M234.79 560.105V629.895M234.79 560.105H165M234.79 629.895V699.684M234.79 629.895H165M234.79 699.684V769.474M234.79 699.684H165M234.79 769.474V839.263M234.79 769.474H165M234.79 839.263V909.053M234.79 839.263H165M234.79 909.053V978.842M234.79 909.053H165M234.79 978.842V1048.63M234.79 978.842H165M234.79 1048.63V1118.42M234.79 1048.63H165M234.79 1118.42V1188.21M234.79 1118.42H165M234.79 1188.21V1258M234.79 1188.21H165M234.79 1258H165M165 -68V1.78947M165 -68H95.2107M165 1.78947V71.5789M165 1.78947H95.2107M165 71.5789V141.368M165 71.5789H95.2107M165 141.368V211.158M165 141.368H95.2107M165 211.158V280.947M165 211.158H95.2107M165 280.947V350.737M165 280.947H95.2107M165 350.737V420.526M165 350.737H95.2107M165 420.526V490.316M165 420.526H95.2107M165 490.316V560.105M165 490.316H95.2107M165 560.105V629.895M165 560.105H95.2107M165 629.895V699.684M165 629.895H95.2107M165 699.684V769.474M165 699.684H95.2107M165 769.474V839.263M165 769.474H95.2107M165 839.263V909.053M165 839.263H95.2107M165 909.053V978.842M165 909.053H95.2107M165 978.842V1048.63M165 978.842H95.2107M165 1048.63V1118.42M165 1048.63H95.2107M165 1118.42V1188.21M165 1118.42H95.2107M165 1188.21V1258M165 1188.21H95.2107M165 1258H95.2107M95.2107 -68V1.78947M95.2107 -68H25.4211M95.2107 1.78947V71.5789M95.2107 1.78947H25.4211M95.2107 71.5789V141.368M95.2107 71.5789H25.4211M95.2107 141.368V211.158M95.2107 141.368H25.4211M95.2107 211.158V280.947M95.2107 211.158H25.4211M95.2107 280.947V350.737M95.2107 280.947H25.4211M95.2107 350.737V420.526M95.2107 350.737H25.4211M95.2107 420.526V490.316M95.2107 420.526H25.4211M95.2107 490.316V560.105M95.2107 490.316H25.4211M95.2107 560.105V629.895M95.2107 560.105H25.4211M95.2107 629.895V699.684M95.2107 629.895H25.4211M95.2107 699.684V769.474M95.2107 699.684H25.4211M95.2107 769.474V839.263M95.2107 769.474H25.4211M95.2107 839.263V909.053M95.2107 839.263H25.4211M95.2107 909.053V978.842M95.2107 909.053H25.4211M95.2107 978.842V1048.63M95.2107 978.842H25.4211M95.2107 1048.63V1118.42M95.2107 1048.63H25.4211M95.2107 1118.42V1188.21M95.2107 1118.42H25.4211M95.2107 1188.21V1258M95.2107 1188.21H25.4211M95.2107 1258H25.4211M25.4211 -68V1.78947M25.4211 -68H-44.3684M25.4211 1.78947V71.5789M25.4211 1.78947H-44.3684M25.4211 71.5789V141.368M25.4211 71.5789H-44.3684M25.4211 141.368V211.158M25.4211 141.368H-44.3684M25.4211 211.158V280.947M25.4211 211.158H-44.3684M25.4211 280.947V350.737M25.4211 280.947H-44.3684M25.4211 350.737V420.526M25.4211 350.737H-44.3684M25.4211 420.526V490.316M25.4211 420.526H-44.3684M25.4211 490.316V560.105M25.4211 490.316H-44.3684M25.4211 560.105V629.895M25.4211 560.105H-44.3684M25.4211 629.895V699.684M25.4211 629.895H-44.3684M25.4211 699.684V769.474M25.4211 699.684H-44.3684M25.4211 769.474V839.263M25.4211 769.474H-44.3684M25.4211 839.263V909.053M25.4211 839.263H-44.3684M25.4211 909.053V978.842M25.4211 909.053H-44.3684M25.4211 978.842V1048.63M25.4211 978.842H-44.3684M25.4211 1048.63V1118.42M25.4211 1048.63H-44.3684M25.4211 1118.42V1188.21M25.4211 1118.42H-44.3684M25.4211 1188.21V1258M25.4211 1188.21H-44.3684M25.4211 1258H-44.3684M-44.3684 -68V1.78947M-44.3684 -68H-114.158M-44.3684 1.78947V71.5789M-44.3684 1.78947H-114.158M-44.3684 71.5789V141.368M-44.3684 71.5789H-114.158M-44.3684 141.368V211.158M-44.3684 141.368H-114.158M-44.3684 211.158V280.947M-44.3684 211.158H-114.158M-44.3684 280.947V350.737M-44.3684 280.947H-114.158M-44.3684 350.737V420.526M-44.3684 350.737H-114.158M-44.3684 420.526V490.316M-44.3684 420.526H-114.158M-44.3684 490.316V560.105M-44.3684 490.316H-114.158M-44.3684 560.105V629.895M-44.3684 560.105H-114.158M-44.3684 629.895V699.684M-44.3684 629.895H-114.158M-44.3684 699.684V769.474M-44.3684 699.684H-114.158M-44.3684 769.474V839.263M-44.3684 769.474H-114.158M-44.3684 839.263V909.053M-44.3684 839.263H-114.158M-44.3684 909.053V978.842M-44.3684 909.053H-114.158M-44.3684 978.842V1048.63M-44.3684 978.842H-114.158M-44.3684 1048.63V1118.42M-44.3684 1048.63H-114.158M-44.3684 1118.42V1188.21M-44.3684 1118.42H-114.158M-44.3684 1188.21V1258M-44.3684 1188.21H-114.158M-44.3684 1258H-114.158M-114.158 -68V1.78947M-114.158 -68H-183.947M-114.158 1.78947V71.5789M-114.158 1.78947H-183.947M-114.158 71.5789V141.368M-114.158 71.5789H-183.947M-114.158 141.368V211.158M-114.158 141.368H-183.947M-114.158 211.158V280.947M-114.158 211.158H-183.947M-114.158 280.947V350.737M-114.158 280.947H-183.947M-114.158 350.737V420.526M-114.158 350.737H-183.947M-114.158 420.526V490.316M-114.158 420.526H-183.947M-114.158 490.316V560.105M-114.158 490.316H-183.947M-114.158 560.105V629.895M-114.158 560.105H-183.947M-114.158 629.895V699.684M-114.158 629.895H-183.947M-114.158 699.684V769.474M-114.158 699.684H-183.947M-114.158 769.474V839.263M-114.158 769.474H-183.947M-114.158 839.263V909.053M-114.158 839.263H-183.947M-114.158 909.053V978.842M-114.158 909.053H-183.947M-114.158 978.842V1048.63M-114.158 978.842H-183.947M-114.158 1048.63V1118.42M-114.158 1048.63H-183.947M-114.158 1118.42V1188.21M-114.158 1118.42H-183.947M-114.158 1188.21V1258M-114.158 1188.21H-183.947M-114.158 1258H-183.947M-183.947 -68V1.78947M-183.947 -68H-253.737V1.78947M-183.947 1.78947V71.5789M-183.947 1.78947H-253.737M-183.947 71.5789V141.368M-183.947 71.5789H-253.737M-183.947 141.368V211.158M-183.947 141.368H-253.737M-183.947 211.158V280.947M-183.947 211.158H-253.737M-183.947 280.947V350.737M-183.947 280.947H-253.737M-183.947 350.737V420.526M-183.947 350.737H-253.737M-183.947 420.526V490.316M-183.947 420.526H-253.737M-183.947 490.316V560.105M-183.947 490.316H-253.737M-183.947 560.105V629.895M-183.947 560.105H-253.737M-183.947 629.895V699.684M-183.947 629.895H-253.737M-183.947 699.684V769.474M-183.947 699.684H-253.737M-183.947 769.474V839.263M-183.947 769.474H-253.737M-183.947 839.263V909.053M-183.947 839.263H-253.737M-183.947 909.053V978.842M-183.947 909.053H-253.737M-183.947 978.842V1048.63M-183.947 978.842H-253.737M-183.947 1048.63V1118.42M-183.947 1048.63H-253.737M-183.947 1118.42V1188.21M-183.947 1118.42H-253.737M-183.947 1188.21V1258M-183.947 1188.21H-253.737M-183.947 1258H-253.737V1188.21M-253.737 1.78947V71.5789M-253.737 71.5789V141.368M-253.737 141.368V211.158M-253.737 211.158V280.947M-253.737 280.947V350.737M-253.737 350.737V420.526M-253.737 420.526V490.316M-253.737 490.316V560.105M-253.737 560.105V629.895M-253.737 629.895V699.684M-253.737 699.684V769.474M-253.737 769.474V839.263M-253.737 839.263V909.053M-253.737 909.053V978.842M-253.737 978.842V1048.63M-253.737 1048.63V1118.42M-253.737 1118.42V1188.21" stroke="url(#paint0_radial_26375_1139)" stroke-width="1.74474"/>
</g>
<defs>
<radialGradient id="paint0_radial_26375_1139" cx="0" cy="0" r="1" gradientUnits="userSpaceOnUse" gradientTransform="translate(481.5 476.5) rotate(51.5906) scale(357.329 668.22)">
<stop stop-color="white" stop-opacity="0.16"/>
<stop offset="1" stop-color="white" stop-opacity="0"/>
</radialGradient>
<clipPath id="clip0_26375_1139">
<rect width="1019" height="981" fill="white" transform="matrix(-1 0 0 1 1019 0)"/>
</clipPath>
</defs>
</svg>
