<svg width="122" height="47" viewBox="1 1 122 47" fill="none" xmlns="http://www.w3.org/2000/svg">
<path d="M121.461 1.53125C116.546 1.53136 111.955 3.93834 109.156 7.9541L108.891 8.34766L98.6348 24.1006C95.5958 28.7679 90.471 31.6412 84.9268 31.8164L84.3887 31.8252H16.5391C8.25479 31.8252 1.53906 38.5409 1.53906 46.8252H0.539062C0.539062 37.9886 7.70251 30.8252 16.5391 30.8252H84.3887C89.7999 30.8251 94.8444 28.0894 97.7969 23.5547L108.053 7.80176C111.005 3.2668 116.05 0.531363 121.461 0.53125V1.53125Z" fill="#3C3C46"/>
<path d="M121.461 0.53125C116.05 0.531363 111.005 3.2668 108.053 7.80176L97.7969 23.5547C94.8444 28.0894 89.7999 30.8251 84.3887 30.8252H16.5391C7.70251 30.8252 0.539062 37.9886 0.539062 46.8252V0.53125H121.461Z" fill="#1C1C26"/>
</svg>
