<svg width="120" height="120" viewBox="0 0 120 120" fill="none" xmlns="http://www.w3.org/2000/svg">
<circle opacity="0.6" cx="60" cy="60" r="60" fill="#875DFF" fill-opacity="0.12"/>
<circle cx="60" cy="60" r="40" fill="#875DFF" fill-opacity="0.12"/>
<path d="M59.9998 26.6641C41.5998 26.6641 26.6665 41.5974 26.6665 59.9974C26.6665 78.3974 41.5998 93.3307 59.9998 93.3307C78.3998 93.3307 93.3332 78.3974 93.3332 59.9974C93.3332 41.5974 78.3998 26.6641 59.9998 26.6641ZM73.4332 53.9974L57.8665 69.5307C57.3998 70.0307 56.7665 70.2641 56.0998 70.2641C55.4665 70.2641 54.8331 70.0307 54.3331 69.5307L46.5665 61.7642C45.5998 60.7975 45.5998 59.1973 46.5665 58.2306C47.5332 57.264 49.1332 57.264 50.0998 58.2306L56.0998 64.2308L69.8998 50.4641C70.8665 49.4641 72.4665 49.4641 73.4332 50.4641C74.3998 51.4308 74.3998 52.9974 73.4332 53.9974Z" fill="white"/>
</svg>
