<svg width="48" height="48" viewBox="0 0 48 48" fill="none" xmlns="http://www.w3.org/2000/svg">
<rect width="48" height="48" rx="8" fill="#404049"/>
<rect x="0.5" y="0.5" width="47" height="47" rx="7.5" stroke="url(#paint0_linear_43172_45104)" stroke-opacity="0.14"/>
<path d="M26.0049 14C30.4232 14 34.0049 17.5817 34.0049 22C34.0049 25.2446 32.0733 28.0381 29.2973 29.2932C28.0422 32.069 25.249 34 22.0049 34C17.5866 34 14.0049 30.4183 14.0049 26C14.0049 22.7559 15.9359 19.9627 18.7112 18.7073C19.9668 15.9316 22.7603 14 26.0049 14ZM23.0049 21H21.0049V22C19.6242 22 18.5049 23.1193 18.5049 24.5C18.5049 25.8255 19.5364 26.91 20.8405 26.9947L21.0049 27H23.0049L23.0948 27.0081C23.328 27.0504 23.5049 27.2545 23.5049 27.5C23.5049 27.7455 23.328 27.9496 23.0948 27.992L23.0049 28H19.0049V30H21.0049V31H23.0049V30C24.3856 30 25.5049 28.8807 25.5049 27.5C25.5049 26.1745 24.4733 25.09 23.1693 25.0053L23.0049 25H21.0049L20.915 24.992C20.6818 24.9496 20.5049 24.7455 20.5049 24.5C20.5049 24.2545 20.6818 24.0504 20.915 24.0081L21.0049 24H25.0049V22H23.0049V21ZM26.0049 16C24.2214 16 22.6196 16.7782 21.5206 18.0135C21.6813 18.0048 21.8425 18 22.0049 18C26.4232 18 30.0049 21.5817 30.0049 26C30.0049 26.1627 30 26.3242 29.9905 26.4845C31.2265 25.3857 32.0049 23.7838 32.0049 22C32.0049 18.6863 29.3186 16 26.0049 16Z" fill="white"/>
<defs>
<linearGradient id="paint0_linear_43172_45104" x1="2" y1="3.22858e-07" x2="48" y2="48" gradientUnits="userSpaceOnUse">
<stop stop-color="white"/>
<stop offset="0.265" stop-color="#CCCCCC" stop-opacity="0"/>
<stop offset="0.6325" stop-color="#B3B3B3" stop-opacity="0"/>
<stop offset="1" stop-color="white"/>
</linearGradient>
</defs>
</svg>
